ply
format ascii 1.0
element vertex 256
comment vertices
property float x
property float y
property float z
end_header
-1.84616315364837646 5.21157169342041016 0.471096158027648926
1.5299689769744873 2.15888500213623047 -0.616842448711395264
-1.95055603981018066 3.09831547737121582 -0.587003648281097412
1.17144930362701416 -0.696498095989227295 1.39223325252532959
-2.36952042579650879 3.59127974510192871 2.2760622501373291
-0.260961860418319702 3.7112119197845459 -0.606629312038421631
-3.08216094970703125 4.78660202026367188 -0.343784987926483154
-0.461682975292205811 2.40626907348632812 -0.443579256534576416
1.6107790470123291 1.56915783882141113 -0.268510103225708008
-1.82313692569732666 5.85744190216064453 -0.513969242572784424
0.281901359558105469 2.6817624568939209 -0.431823223829269409
-0.703563094139099121 0.345462143421173096 1.66880083084106445
-1.21182215213775635 3.73944640159606934 -0.423725128173828125
-2.9229130744934082 0.994613945484161377 2.44708824157714844
-2.43553066253662109 6.77093744277954102 1.24593019485473633
-1.1135554313659668 4.15818262100219727 -0.790885269641876221
-1.32191824913024902 2.70435500144958496 -0.617492139339447021
-0.189786702394485474 3.64525389671325684 -0.312039077281951904
-2.30164265632629395 5.43869829177856445 -0.482904940843582153
0.581830143928527832 2.4673926830291748 -0.447738796472549438
0.857937812805175781 2.09323501586914062 -0.394838094711303711
-0.674964666366577148 2.7369239330291748 -0.373955070972442627
-2.21206092834472656 0.906965076923370361 2.51367974281311035
1.31029117107391357 2.36474132537841797 -0.564274847507476807
-1.02279758453369141 4.60988759994506836 0.0866404175758361816
-0.0309335365891456604 2.73292112350463867 -0.373428881168365479
3.12407493591308594 -1.82535481452941895 0.581230640411376953
-1.5510249137878418 5.5097804069519043 -0.229542672634124756
-1.57142198085784912 2.50136733055114746 2.69258761405944824
0.431383341550827026 -0.208501040935516357 0.838822722434997559
-2.83128142356872559 5.4945220947265625 0.181768715381622314
0.124864049255847931 2.48629999160766602 -0.510433495044708252
0.359740763902664185 3.24191522598266602 -0.234323084354400635
0.78113943338394165 2.58133387565612793 -0.670121848583221436
-2.36185002326965332 5.70803737640380859 0.339524984359741211
-0.653893887996673584 2.5781853199005127 -0.677619278430938721
-1.3549048900604248 2.9865870475769043 -0.605860650539398193
-1.09961438179016113 5.3553166389465332 -0.514960944652557373
0.0410074219107627869 2.60122966766357422 -0.35309264063835144
0.915839731693267822 2.51318573951721191 -0.475426614284515381
-0.419915169477462769 4.05890655517578125 -0.503584921360015869
-1.64045357704162598 3.19919037818908691 -0.612521648406982422
-0.564338624477386475 4.64804744720458984 0.280562818050384521
-2.07854557037353516 3.27007651329040527 0.866529703140258789
1.37871193885803223 2.2547602653503418 -0.56197124719619751
-2.62747693061828613 5.30221700668334961 -0.439949274063110352
1.26540756225585938 2.18901920318603516 -0.444503158330917358
-0.892509281635284424 2.54396390914916992 -0.475873112678527832
-1.85619175434112549 5.67322874069213867 -0.546281695365905762
1.32901382446289062 2.43694758415222168 -0.650263190269470215
0.678993165493011475 2.66204428672790527 -0.439872324466705322
-2.29584336280822754 5.11260890960693359 -0.230734914541244507
-2.02435421943664551 6.41716098785400391 1.2145848274230957
-1.64423465728759766 3.02440333366394043 -0.648211777210235596
1.57722413539886475 2.09094333648681641 -0.389638364315032959
0.126436412334442139 3.16153049468994141 -0.660915493965148926
0.28444257378578186 0.190690815448760986 -0.599683582782745361
-2.26389503479003906 3.17634701728820801 -0.102274119853973389
0.0291800070554018021 2.43339967727661133 -0.437552005052566528
0.53180772066116333 2.52330279350280762 -0.38814777135848999
-2.19987916946411133 5.50307178497314453 -0.419982790946960449
-0.276790797710418701 2.62162661552429199 -0.421222269535064697
-2.00300145149230957 5.38026189804077148 -0.147936582565307617
1.53724491596221924 1.06797146797180176 1.38434457778930664
0.0475744940340518951 3.32485318183898926 -0.315805315971374512
1.08301389217376709 2.49515914916992188 -0.554107129573822021
-1.20661056041717529 5.08675813674926758 -0.228133916854858398
-0.18812793493270874 0.924517452716827393 -0.500474274158477783
-0.71905207633972168 3.42085051536560059 -0.583186745643615723
1.22472786903381348 2.11065554618835449 -0.340673089027404785
-0.413485348224639893 2.5684974193572998 -0.405199617147445679
-1.58086287975311279 4.57490921020507812 0.588138043880462646
0.000206653843633830547 2.7849433422088623 -0.522861778736114502
-1.4614403247833252 5.07492637634277344 -0.0752338767051696777
-2.67111110687255859 5.67518281936645508 0.180035531520843506
-0.0986660048365592957 3.30284476280212402 -0.537926554679870605
-1.77648246288299561 3.13384890556335449 -0.636400341987609863
-3.52571964263916016 3.14504837989807129 -0.309918880462646484
-0.685609698295593262 4.13833999633789062 -0.499124407768249512
-0.194947734475135803 2.4923102855682373 -0.473825514316558838
-3.43560600280761719 4.04973173141479492 1.83667266368865967
0.423540890216827393 2.72823429107666016 -0.567123830318450928
-2.06308889389038086 3.1092832088470459 -0.605172336101531982
-1.11600708961486816 2.67534089088439941 -0.712137937545776367
0.504777967929840088 2.46843123435974121 -0.439470946788787842
0.932454884052276611 1.01476740837097168 0.798628449440002441
-2.80369758605957031 5.53394317626953125 0.301391303539276123
-1.32928228378295898 5.87509441375732422 -0.2465105801820755
-4.47559595108032227 2.42935681343078613 1.44789671897888184
1.33234965801239014 -1.01543998718261719 0.677321434020996094
-2.64310598373413086 5.195343017578125 -0.00515988189727067947
-1.77663195133209229 2.91598701477050781 -0.604367077350616455
-3.16217923164367676 5.10184907913208008 0.0196282584220170975
-2.24397897720336914 2.45630145072937012 0.973543524742126465
-1.16227960586547852 2.60731768608093262 -0.507029473781585693
-1.18078947067260742 5.72884082794189453 -0.266063868999481201
1.39545333385467529 2.36880612373352051 -0.584900438785552979
0.626509308815002441 1.88566505908966064 -0.743111610412597656
0.124003134667873383 1.37771058082580566 -0.285008251667022705
-0.915407240390777588 2.59481716156005859 -0.623264491558074951
-0.394582778215408325 -0.90828627347946167 1.13034582138061523
-1.33018124103546143 3.16602826118469238 -0.616862475872039795
-0.734828948974609375 4.51319694519042969 0.0887903571128845215
-1.55910742282867432 3.00601053237915039 -0.578461050987243652
1.17077577114105225 2.46293234825134277 -0.666234672069549561
1.23122656345367432 2.31996893882751465 -0.549612522125244141
0.790469765663146973 2.62250161170959473 -0.510784745216369629
-0.073054194450378418 2.32794690132141113 -0.46185678243637085
-0.204077169299125671 3.66582131385803223 -0.361113607883453369
-0.510228931903839111 1.11775612831115723 -0.442798912525177002
-0.486439913511276245 2.46674585342407227 -0.470799833536148071
-1.94284868240356445 5.57797813415527344 -0.661219120025634766
-0.450944125652313232 4.23714828491210938 -0.156363606452941895
0.0912215337157249451 3.34504485130310059 -0.370049834251403809
-2.85829710960388184 3.9757382869720459 -0.0832305550575256348
-2.32275629043579102 5.72365188598632812 -0.299516230821609497
-2.36028838157653809 5.21214199066162109 -0.295120060443878174
0.165762737393379211 3.05632281303405762 -0.425599873065948486
0.3093300461769104 2.71051979064941406 -0.394793987274169922
1.01557075977325439 1.93993794918060303 -0.495874524116516113
-1.40087175369262695 2.95932602882385254 -0.471088707447052002
0.282161206007003784 2.39757132530212402 -0.471475332975387573
0.972488105297088623 2.21896862983703613 -0.352573156356811523
0.202918216586112976 2.42624497413635254 -0.52136075496673584
-0.295225769281387329 2.53421998023986816 -0.396757572889328003
0.904363274574279785 2.5045630931854248 -0.484265625476837158
0.293492913246154785 2.78541731834411621 -0.275527715682983398
-1.78962242603302002 6.21509647369384766 0.885120034217834473
1.37222778797149658 2.3160862922668457 -0.564783751964569092
-1.77904486656188965 3.18926095962524414 -0.588965952396392822
2.001007080078125 -0.866708695888519287 1.04894840717315674
-1.48811852931976318 5.05469131469726562 0.348369896411895752
-1.92468392848968506 5.84144067764282227 -0.35982021689414978
1.5147472620010376 2.1305088996887207 -0.470919579267501831
0.38225477933883667 2.53306365013122559 -0.44813874363899231
1.14376974105834961 2.31510806083679199 -0.472686946392059326
-2.91299867630004883 5.23053789138793945 -0.0437962673604488373
-2.09049606323242188 5.15167140960693359 0.0795692801475524902
-1.23488211631774902 5.05641651153564453 0.204778015613555908
0.648848116397857666 2.45291638374328613 -0.524912118911743164
-0.703261196613311768 2.59791064262390137 -0.473195075988769531
1.46425724029541016 2.09050774574279785 -0.479343175888061523
0.594381988048553467 2.57624602317810059 -0.427136749029159546
-0.63335651159286499 2.60076546669006348 -0.413084656000137329
1.07780706882476807 2.02519869804382324 -0.327333629131317139
-2.84950399398803711 4.666595458984375 -0.633323013782501221
-0.3296985924243927 3.64031291007995605 -0.475415915250778198
0.970824241638183594 2.41122794151306152 -0.501612603664398193
-1.79667139053344727 5.43906688690185547 -0.0018832061905413866
0.75093996524810791 2.27710199356079102 -0.381280571222305298
-2.71325492858886719 5.39131975173950195 0.201208591461181641
1.57488179206848145 2.26388907432556152 -0.528390169143676758
-1.52422201633453369 2.51889777183532715 0.076689302921295166
-2.1094663143157959 5.20547103881835938 -0.64269787073135376
-1.64241158962249756 2.84282803535461426 -0.0268017631024122238
-0.8261299729347229 2.53686642646789551 -0.435997843742370605
-0.0277081038802862167 2.68702149391174316 -0.414007037878036499
-2.08523726463317871 5.39507532119750977 -0.644409477710723877
-2.22625994682312012 6.67038345336914062 1.24735808372497559
-1.66834914684295654 5.76721286773681641 -0.607801616191864014
-0.826274216175079346 0.05332975834608078 1.88066387176513672
1.26644480228424072 2.30818295478820801 -0.236394524574279785
-0.303867071866989136 2.42647099494934082 -0.430370748043060303
-0.302034467458724976 3.79969429969787598 -0.0530278049409389496
0.524590492248535156 1.6338798999786377 1.60925555229187012
0.00322006223723292351 2.66228342056274414 -0.405526578426361084
-1.61152589321136475 3.0462794303894043 -0.617890417575836182
3.11285972595214844 -1.55197978019714355 0.823596596717834473
-2.50835013389587402 4.83443164825439453 -0.182734668254852295
-1.19434571266174316 5.3405146598815918 -0.391027897596359253
-0.0808860883116722107 2.50764584541320801 -0.404528826475143433
0.275083363056182861 2.4821622371673584 -0.462695211172103882
1.25816690921783447 2.20643830299377441 -0.639177024364471436
1.40424764156341553 2.11378240585327148 -0.415378987789154053
-1.90068447589874268 5.42293787002563477 1.03161787986755371
0.362293869256973267 2.82971715927124023 -0.394676506519317627
0.733109354972839355 2.5765233039855957 -0.462477803230285645
1.51084768772125244 1.89197158813476562 -0.471821427345275879
-0.42540094256401062 4.03837776184082031 -0.375939249992370605
0.0453961491584777832 2.40179562568664551 -0.486718952655792236
0.311043053865432739 2.23052525520324707 -0.431117713451385498
0.632016897201538086 2.39831662178039551 -0.684176862239837646
-0.792068183422088623 0.62365800142288208 1.51049768924713135
1.38261556625366211 2.21841621398925781 -0.438086926937103271
-0.875347435474395752 2.45426583290100098 1.06096220016479492
-1.41755270957946777 5.1446070671081543 -0.228677749633789062
0.504150211811065674 2.83176016807556152 -0.251156747341156006
-1.76143729686737061 5.1597132682800293 -0.32881617546081543
-2.63822078704833984 4.82314109802246094 0.174231648445129395
1.86126482486724854 -0.312887370586395264 0.825432181358337402
-1.12987899780273438 2.67312765121459961 -0.628178000450134277
-2.13371777534484863 5.43278598785400391 -0.443133652210235596
-0.0150423226878046989 2.90981316566467285 -0.247398823499679565
-2.38044595718383789 3.90880942344665527 -0.0739013552665710449
1.12388873100280762 1.3258061408996582 -0.411608874797821045
-0.0661014392971992493 3.40739083290100098 -0.587533414363861084
-2.27742576599121094 5.19669294357299805 0.0692742466926574707
1.26768577098846436 2.3623960018157959 -0.613910257816314697
0.287475526332855225 3.00599908828735352 -0.511617958545684814
-1.64251220226287842 6.03830194473266602 0.444077014923095703
0.662835657596588135 2.26427245140075684 -0.352484405040740967
-2.53074097633361816 5.64601230621337891 -0.212449729442596436
1.41592085361480713 1.76423192024230957 -0.094250023365020752
-0.0253336522728204727 2.93668580055236816 -0.480786025524139404
-0.0636386871337890625 3.72256827354431152 -0.277292191982269287
1.05709493160247803 2.41406893730163574 -0.697282016277313232
0.20097842812538147 3.43662571907043457 -0.332505524158477783
-0.930946528911590576 6.38091707229614258 -0.0647069811820983887
-0.954336047172546387 2.73292040824890137 -0.433500468730926514
-3.05775332450866699 4.33085107803344727 -0.12123715877532959
-1.82197034358978271 3.17772293090820312 -0.580239474773406982
1.71717703342437744 0.918296158313751221 1.44246649742126465
0.794417083263397217 1.78912687301635742 -0.55191802978515625
-2.46065211296081543 5.27709817886352539 -0.137703359127044678
-1.16147768497467041 5.30652523040771484 -0.408367335796356201
-0.892253696918487549 4.50042533874511719 -0.00337290507741272449
0.935131669044494629 2.67113375663757324 -0.501128971576690674
-0.293202251195907593 2.32217764854431152 -0.501067757606506348
-1.06072044372558594 2.57631039619445801 -0.483905881643295288
-2.12493109703063965 5.5315546989440918 -0.313189208507537842
-2.71117711067199707 5.36694431304931641 -0.159887880086898804
-0.924004614353179932 2.48050189018249512 -0.662790596485137939
-0.476894497871398926 2.57355189323425293 -0.364090472459793091
0.475002288818359375 2.71988248825073242 -0.408517360687255859
-1.15750360488891602 4.57310867309570312 -0.181988060474395752
0.327507644891738892 2.40767598152160645 -0.580624282360076904
-1.60903799533843994 2.99696469306945801 -0.597249269485473633
0.138825416564941406 2.34300351142883301 -0.439341366291046143
1.07992386817932129 2.49515819549560547 -0.520119130611419678
0.657812893390655518 2.54733729362487793 -0.471547126770019531
2.05682468414306641 0.0268896147608757019 1.27619385719299316
-1.21171426773071289 4.85009050369262695 -0.615147173404693604
-1.45077013969421387 3.08600330352783203 -0.599732697010040283
-1.85786604881286621 3.04150962829589844 -0.611328184604644775
-0.468374550342559814 2.5704193115234375 -0.455841958522796631
0.035269763320684433 1.31325411796569824 2.0210108757019043
-0.219121292233467102 3.43611574172973633 -0.360490173101425171
1.0507957935333252 0.461202919483184814 1.43842959403991699
1.38851892948150635 2.20615696907043457 -0.472530364990234375
-0.74529111385345459 4.9034886360168457 0.272681951522827148
-1.66661036014556885 5.76620388031005859 -0.585752367973327637
0.468866646289825439 2.50631594657897949 -0.444128185510635376
-2.38702392578125 3.42568373680114746 -0.091237485408782959
-2.64278602600097656 5.26513338088989258 -0.080908358097076416
0.0881585702300071716 0.394337713718414307 0.200101912021636963
-0.208164647221565247 2.53019070625305176 -0.359847724437713623
-0.568995177745819092 2.44029521942138672 -0.462176740169525146
1.22260856628417969 1.82763981819152832 -0.392468452453613281
1.42608606815338135 2.16354513168334961 -0.53523099422454834
-0.852438688278198242 7.35111236572265625 0.00162661331705749035
1.56122374534606934 2.23137307167053223 -0.678459763526916504
-0.717684447765350342 2.58796000480651855 -0.442479729652404785
0.159783914685249329 2.54528403282165527 -0.368550926446914673
-1.19855844974517822 2.44771361351013184 -0.604813814163208008
0.984623312950134277 0.903781712055206299 0.755113720893859863
0.396910399198532104 -0.363862454891204834 -0.249036252498626709
