ply
format ascii 1.0
element vertex 256
comment vertices
property float x
property float y
property float z
end_header
1.36572277545928955 3.45423245429992676 0.0710825324058532715
-2.1535944938659668 6.28863096237182617 1.64345359802246094
-2.69342350959777832 4.20743131637573242 -0.652492225170135498
2.32475042343139648 3.1990201473236084 2.64632201194763184
-0.372460752725601196 0.292647689580917358 -0.532969415187835693
-0.691770434379577637 5.14328670501708984 0.415800094604492188
-0.739195644855499268 3.2526404857635498 -0.743982613086700439
1.47632670402526855 3.21396160125732422 -0.731835663318634033
0.722471714019775391 4.89784431457519531 -0.737556517124176025
-0.807454824447631836 2.92716646194458008 2.04693126678466797
0.359166741371154785 7.10130405426025391 2.15529775619506836
-0.946909248828887939 4.36827421188354492 -0.663186967372894287
-2.14378190040588379 3.0419456958770752 -0.182767570018768311
-1.7458953857421875 1.03612446784973145 -1.36591506004333496
0.47048652172088623 3.44103813171386719 -0.449829131364822388
1.56931650638580322 1.0221250057220459 0.239128589630126953
-1.40659677982330322 2.89187169075012207 2.73913216590881348
1.49645030498504639 2.24870562553405762 -0.377417147159576416
-3.6685032844543457 3.76369023323059082 2.23975515365600586
1.48869264125823975 6.57075881958007812 1.39874577522277832
0.274972885847091675 3.42366766929626465 -0.758208692073822021
-1.7244110107421875 4.41400909423828125 -0.720921814441680908
1.34799134731292725 5.80477809906005859 1.86266756057739258
0.294880509376525879 5.04203319549560547 -0.480792611837387085
-0.437285155057907104 -1.13685011863708496 1.45055508613586426
-0.797213137149810791 3.04463362693786621 -0.756387591361999512
-3.75901365280151367 2.24963879585266113 -1.52791225910186768
1.07306408882141113 3.15493273735046387 -0.340996146202087402
-0.989405333995819092 5.27376985549926758 -0.229653343558311462
-1.85775136947631836 4.53236818313598633 -0.36480751633644104
-0.881701469421386719 5.83684492111206055 1.48773860931396484
-0.567207038402557373 3.44165897369384766 -0.505398213863372803
-0.368049263954162598 3.30463433265686035 -0.545527994632720947
0.150620177388191223 3.73414444923400879 -0.316213548183441162
1.29670536518096924 3.36545038223266602 -0.602044820785522461
-0.47896343469619751 4.84005928039550781 -0.450269341468811035
-1.71342813968658447 4.89038181304931641 -0.749700248241424561
0.399969190359115601 2.03253817558288574 0.928721964359283447
0.40754622220993042 5.13515043258666992 1.68451881408691406
-0.267551839351654053 6.51862144470214844 1.33247232437133789
0.567471504211425781 3.37735915184020996 -0.552708923816680908
-1.40372657775878906 4.25482416152954102 -0.0369644127786159515
-0.794943749904632568 0.872768819332122803 -0.26285204291343689
2.3641510009765625 -0.69911116361618042 2.37965703010559082
1.76940619945526123 1.84403574466705322 -0.611724793910980225
-1.78410983085632324 4.30591154098510742 -0.621619880199432373
0.310633152723312378 1.25647377967834473 -0.161199867725372314
1.15848898887634277 7.05312824249267578 2.1651921272277832
0.00925990380346775055 4.34541225433349609 2.28837394714355469
1.83695924282073975 2.8466789722442627 -0.52532583475112915
-0.0884797349572181702 5.88074207305908203 1.77770256996154785
1.38045895099639893 3.42923760414123535 -0.255032867193222046
-1.25718367099761963 3.52465367317199707 -0.736070692539215088
0.797411262989044189 3.27922654151916504 -0.720332801342010498
-0.151979252696037292 3.47173619270324707 -0.47174564003944397
-1.02845335006713867 3.36597204208374023 -0.764686107635498047
0.678996145725250244 5.75423908233642578 1.67130517959594727
-0.338742941617965698 4.84235668182373047 -0.473333448171615601
-1.43465006351470947 3.63959908485412598 -0.771736800670623779
0.823747217655181885 3.72325897216796875 -0.402968108654022217
3.00412797927856445 -0.807207763195037842 1.13731551170349121
-1.67526900768280029 5.79773998260498047 1.19919776916503906
-0.370322883129119873 3.1036531925201416 -0.74426734447479248
-2.41722273826599121 4.72824192047119141 -0.216897487640380859
-1.23612117767333984 4.78377246856689453 -0.431732028722763062
1.74602270126342773 3.22745299339294434 -0.337115049362182617
-0.765386402606964111 3.33489012718200684 -0.611305892467498779
0.869301259517669678 3.44869613647460938 -0.483714669942855835
0.559578657150268555 4.14848136901855469 -0.296737492084503174
1.12045967578887939 5.67864656448364258 2.10144925117492676
-0.306494235992431641 7.04967021942138672 2.04936480522155762
-0.244349122047424316 5.02463865280151367 -0.18572765588760376
2.62313413619995117 0.612211048603057861 0.169057667255401611
-0.908236801624298096 5.25640964508056641 0.056120995432138443
-0.619087755680084229 0.789156019687652588 -0.525122761726379395
0.486459106206893921 3.79488062858581543 0.96185988187789917
1.36995458602905273 3.52278351783752441 -0.72610551118850708
0.9579811692237854 3.51996064186096191 -0.375848352909088135
1.1711956262588501 2.77324128150939941 -0.325371205806732178
-1.29761373996734619 4.43126773834228516 -0.727080404758453369
0.104658208787441254 3.19235754013061523 -0.552249610424041748
1.04934108257293701 3.4742882251739502 -0.552632331848144531
1.01860690116882324 3.2793581485748291 -0.392547309398651123
3.63990926742553711 -0.506851136684417725 1.12164998054504395
-0.522358477115631104 5.12839269638061523 -0.474991142749786377
-2.01836848258972168 4.82433176040649414 -0.605948388576507568
-1.82593142986297607 4.17440414428710938 -0.1572837233543396
-0.795154154300689697 6.42296361923217773 1.15128517150878906
-0.38521343469619751 0.730414807796478271 -0.212501943111419678
-0.0401969514787197113 3.41697049140930176 -0.447955131530761719
-1.46805930137634277 4.39395427703857422 -0.573097288608551025
-1.70797407627105713 3.08250904083251953 -0.383057534694671631
0.592565059661865234 4.71846628189086914 -0.538059413433074951
-1.15312564373016357 3.48163723945617676 -0.0847435593605041504
1.58633065223693848 2.13318991661071777 -0.533259570598602295
-2.17608141899108887 3.11263012886047363 2.25639104843139648
3.22682666778564453 2.15774655342102051 2.49072933197021484
-2.01378798484802246 5.14956855773925781 1.98823189735412598
-1.23784089088439941 5.97618389129638672 1.09955501556396484
0.729019999504089355 3.37661600112915039 -0.528818428516387939
1.50443124771118164 2.73420238494873047 -0.376828551292419434
-1.73811531066894531 4.76315069198608398 -0.599503219127655029
-0.942075431346893311 3.34890627861022949 -0.649295508861541748
-1.94122493267059326 4.39119958877563477 -0.758255302906036377
0.766630411148071289 3.34607410430908203 -0.756971895694732666
-0.923006713390350342 4.72593450546264648 -0.557714998722076416
1.5570831298828125 7.18744230270385742 2.01708841323852539
2.38277983665466309 0.615567028522491455 2.40765261650085449
-0.59792327880859375 3.29705643653869629 -0.575475573539733887
0.187171384692192078 4.86409282684326172 -0.143259346485137939
-0.798923909664154053 3.12374401092529297 -0.740459978580474854
-2.55449295043945312 4.75209236145019531 2.53752994537353516
0.770881175994873047 7.32993412017822266 2.20265698432922363
-1.24322032928466797 4.24671030044555664 -0.248500049114227295
0.393135517835617065 3.17718505859375 -0.730944931507110596
1.4496694803237915 3.38279914855957031 -0.568678021430969238
0.28400459885597229 3.35992884635925293 -0.497227191925048828
2.84795284271240234 0.941320717334747314 0.68858182430267334
0.745434165000915527 4.35678339004516602 -0.505772233009338379
-0.132944494485855103 4.9474334716796875 1.42546534538269043
0.335437923669815063 0.810679256916046143 -0.0699772238731384277
-2.79225611686706543 4.47833108901977539 -0.351370871067047119
1.5936504602432251 1.90729093551635742 -0.334396660327911377
-2.29136157035827637 3.88437557220458984 -0.05229925736784935
-1.04439866542816162 3.41471982002258301 -0.749591529369354248
1.69721031188964844 3.43223047256469727 -0.550497353076934814
0.771861016750335693 4.69598484039306641 1.66761398315429688
0.31410980224609375 4.88402223587036133 1.23616433143615723
1.05877184867858887 6.67477035522460938 2.11485552787780762
1.47143042087554932 6.8439788818359375 2.14126229286193848
-1.26402997970581055 4.37566614151000977 -0.652363598346710205
-0.0919644758105278015 3.31102776527404785 -0.483888328075408936
-0.258360981941223145 3.1527557373046875 -0.591494083404541016
0.436549454927444458 3.33162236213684082 -0.457962304353713989
0.741798698902130127 6.93997383117675781 2.13277339935302734
0.691449344158172607 4.58690738677978516 -0.536678969860076904
-1.1257483959197998 3.26380324363708496 -0.751300990581512451
-0.527107298374176025 0.728836953639984131 -0.32617872953414917
-2.21469688415527344 4.78887033462524414 -0.33842623233795166
0.789677321910858154 6.03475475311279297 2.14077615737915039
1.6113511323928833 0.336009085178375244 0.550562858581542969
1.51364719867706299 3.09834766387939453 -0.334381312131881714
-0.693570613861083984 6.36192798614501953 1.60601663589477539
-0.021099872887134552 3.21200299263000488 -0.740927755832672119
-1.38225638866424561 4.16252803802490234 -0.73981088399887085
2.49873781204223633 0.307184994220733643 0.698469638824462891
-0.984918832778930664 3.05301260948181152 -0.734009683132171631
1.0922389030456543 3.31055474281311035 -0.741336524486541748
-0.294837802648544312 3.71866583824157715 -0.30526655912399292
0.02075214684009552 7.08437347412109375 2.24303221702575684
0.110204063355922699 2.18371844291687012 -0.535201132297515869
-0.536403298377990723 5.17817020416259766 -0.144251227378845215
-0.0746263936161994934 3.38828611373901367 -0.760859429836273193
-0.439865678548812866 2.96298766136169434 -0.752921044826507568
-1.31312465667724609 6.2127842903137207 1.73362064361572266
0.854422688484191895 4.12884330749511719 -0.624403417110443115
-1.5299907922744751 2.91493344306945801 -0.532772481441497803
-0.484289646148681641 3.45408129692077637 -0.490170449018478394
1.13395464420318604 3.04828333854675293 -0.292237281799316406
1.34970188140869141 3.3674919605255127 -0.216507196426391602
-0.423960059881210327 3.37154984474182129 -0.556233227252960205
-0.728100597858428955 5.22998476028442383 -0.117180824279785156
-0.437156438827514648 6.23173809051513672 1.87186026573181152
-2.10912322998046875 4.50441169738769531 -0.151773124933242798
0.946614623069763184 3.41339707374572754 -0.281679153442382812
-0.837989449501037598 5.10589981079101562 -0.335405796766281128
0.157754674553871155 3.49139189720153809 -0.474036663770675659
-0.0277829971164464951 7.37675142288208008 2.07054710388183594
1.68754410743713379 2.94613146781921387 -0.259157359600067139
0.34206196665763855 5.9720458984375 1.80858969688415527
0.994609057903289795 3.34703493118286133 -0.528325319290161133
0.741826832294464111 3.43675541877746582 -0.551081299781799316
0.806787848472595215 3.45811843872070312 -0.498942285776138306
-0.952956497669219971 4.68187332153320312 0.00137442606501281261
-1.87321031093597412 5.43081951141357422 1.06100106239318848
1.87437057495117188 2.94660782814025879 -0.477393805980682373
0.93617326021194458 5.24612712860107422 1.60635805130004883
0.443315327167510986 3.29201626777648926 -0.549434661865234375
1.6356818675994873 2.18735194206237793 -0.462305217981338501
-1.88303542137145996 3.97466754913330078 0.0507941879332065582
-0.208348840475082397 2.42850327491760254 2.11286449432373047
0.240246936678886414 3.31066203117370605 -0.497418016195297241
-0.582238256931304932 5.13122701644897461 -0.274364352226257324
1.11655950546264648 3.42841506004333496 -0.726246237754821777
-1.38498568534851074 4.02566862106323242 -0.727789461612701416
-2.41950678825378418 4.66980171203613281 -0.575135767459869385
1.05575406551361084 3.05813241004943848 -0.283930540084838867
-0.1399402916431427 4.58075666427612305 -0.169796258211135864
2.5560610294342041 -0.564099729061126709 0.844722628593444824
0.488301336765289307 4.49171161651611328 -0.47246086597442627
0.443314999341964722 4.00435829162597656 -0.329558789730072021
-0.887758731842041016 3.24757647514343262 -0.588843882083892822
-0.611173689365386963 4.27541255950927734 1.35622549057006836
0.0353766195476055145 4.90120458602905273 -0.442187964916229248
1.79494309425354004 2.29485130310058594 -0.412767767906188965
2.02533102035522461 0.263427555561065674 0.369234144687652588
-0.663833439350128174 3.0428767204284668 -0.742780983448028564
-1.39279663562774658 4.63408327102661133 -0.619255602359771729
-1.03911077976226807 4.99123287200927734 -0.362535238265991211
1.04628598690032959 2.67603039741516113 -0.4723663330078125
-1.61565423011779785 4.40217256546020508 -0.743037402629852295
-1.58121025562286377 5.43118762969970703 1.29613232612609863
-0.7706412672996521 3.40087604522705078 -0.761241495609283447
-0.0596227981150150299 2.4486844539642334 -0.0985781550407409668
0.970292210578918457 3.27316045761108398 -0.490840613842010498
-1.70648419857025146 4.48616504669189453 -0.528618097305297852
-1.41527962684631348 3.57254528999328613 -0.765836656093597412
-1.41567420959472656 4.10173463821411133 0.0243540424853563309
-0.651872754096984863 5.2846531867980957 -0.303555935621261597
0.479511052370071411 4.80223798751831055 -0.583196341991424561
-1.40963685512542725 4.22503376007080078 -0.736532330513000488
-0.508636057376861572 5.59398841857910156 0.302416145801544189
-1.63658988475799561 2.98813605308532715 -0.749562919139862061
3.31961488723754883 -0.052928633987903595 1.21009182929992676
1.15878200531005859 4.23218441009521484 1.32337474822998047
-0.24773484468460083 4.94024991989135742 -0.362344861030578613
-0.762543857097625732 3.31007862091064453 -0.654146909713745117
1.89588081836700439 0.859854996204376221 -0.15955740213394165
-0.246798262000083923 3.37957978248596191 -0.478796839714050293
0.142033219337463379 3.27100586891174316 -0.482537686824798584
1.32787632942199707 -0.587450921535491943 2.24349403381347656
-1.53656947612762451 4.34949016571044922 -0.597263872623443604
1.24550127983093262 2.9513404369354248 -0.174875199794769287
-1.16184043884277344 4.65882778167724609 -0.017023799940943718
0.456278175115585327 3.48669314384460449 -0.469329178333282471
-0.0728922486305236816 3.30177807807922363 -0.529507100582122803
2.23308038711547852 -0.619757592678070068 0.694111406803131104
0.838316798210144043 2.99400210380554199 -0.90410381555557251
-1.57607066631317139 4.40056800842285156 -0.738448679447174072
-0.509251892566680908 3.2131187915802002 -0.591869056224822998
0.015094708651304245 4.69771766662597656 -0.0636647343635559082
0.266363531351089478 4.1376185417175293 1.22258615493774414
-1.558205246925354 4.18047809600830078 0.0644279718399047852
0.835623085498809814 3.4434211254119873 -0.535922586917877197
-0.0462174713611602783 3.17158389091491699 -0.588671743869781494
-0.662375926971435547 0.77095264196395874 -0.227052971720695496
0.622077286243438721 4.65445518493652344 -0.405644655227661133
0.0703118667006492615 1.58427882194519043 -0.0792475342750549316
0.23304399847984314 3.30740785598754883 -0.587892711162567139
-1.62702858448028564 3.92065644264221191 0.0151453642174601555
0.695635974407196045 4.69359302520751953 -0.568700194358825684
0.84923475980758667 4.09800529479980469 -0.381543129682540894
-0.350782841444015503 5.44244480133056641 1.59802627563476562
1.12525761127471924 2.33019351959228516 -0.525222241878509521
-0.389013856649398804 0.665410101413726807 -0.241841286420822144
1.24567234516143799 3.26642942428588867 -0.620231211185455322
-1.48258817195892334 6.19614219665527344 1.19431567192077637
1.13991689682006836 6.09299421310424805 2.13837623596191406
0.65228646993637085 3.48894667625427246 -0.465471506118774414
-0.697551429271697998 5.47673177719116211 1.23540401458740234
-0.562336742877960205 5.96105051040649414 1.54971742630004883
-0.325796425342559814 7.4249725341796875 2.0301666259765625
-1.20483708381652832 4.05899810791015625 -0.0825420022010803223
0.474256664514541626 7.01784992218017578 2.21020293235778809
-0.781197190284729004 4.88062620162963867 -0.0517287217080593109
1.9907759428024292 0.810250580310821533 1.25149226188659668
