ply
format ascii 1.0
element vertex 256
comment vertices
property float x
property float y
property float z
end_header
-0.389076709747314453 3.55471992492675781 -0.22974395751953125
5.13135671615600586 3.62344789505004883 1.38579249382019043
-2.89897680282592773 2.00304365158081055 0.847791850566864014
-0.0623887702822685242 7.62264394760131836 1.84708213806152344
1.6997445821762085 3.40473413467407227 -0.865620970726013184
1.88199210166931152 1.79669713973999023 1.52285957336425781
-1.14164638519287109 1.6838986873626709 -1.00605511665344238
-2.28327679634094238 0.619582176208496094 -0.5754660964012146
-2.24770760536193848 5.27646446228027344 0.924574613571166992
2.17765283584594727 4.94403839111328125 -0.779258072376251221
2.10534882545471191 6.92765474319458008 1.95103931427001953
-1.66491901874542236 3.44619560241699219 -1.08775138854980469
-1.75659072399139404 3.24925851821899414 1.85337710380554199
-0.0739075392484664917 3.35857534408569336 -0.794072389602661133
-2.0567011833190918 3.54817533493041992 -0.59412682056427002
1.15029478073120117 3.642181396484375 -0.561370253562927246
0.319388777017593384 3.32463645935058594 -0.546897590160369873
-1.8178631067276001 1.76703321933746338 -0.466203689575195312
4.52564048767089844 2.07795810699462891 2.79763293266296387
1.17564296722412109 3.39169883728027344 -0.505564093589782715
-0.843618214130401611 5.29767894744873047 1.20697855949401855
-0.933295011520385742 3.55252242088317871 -0.599539697170257568
1.64106535911560059 3.41229963302612305 -0.386188864707946777
0.836829423904418945 6.925079345703125 2.0497283935546875
1.68444657325744629 4.06459712982177734 0.46947479248046875
2.5301513671875 4.19624996185302734 2.75238275527954102
0.19148409366607666 3.34765934944152832 -0.53438258171081543
2.2945706844329834 4.62674617767333984 -0.509059906005859375
-1.82472777366638184 1.03524971008300781 -0.729142248630523682
-2.11236858367919922 3.57712721824645996 -0.217978641390800476
-1.05987548828125 3.64232110977172852 -0.785342037677764893
1.04966294765472412 6.58657932281494141 1.20327472686767578
-1.54032933712005615 6.74622488021850586 1.55971050262451172
1.25546026229858398 3.6806492805480957 -0.70779949426651001
-0.155204609036445618 3.13125777244567871 -0.787530660629272461
0.253720104694366455 3.24039220809936523 -0.555307984352111816
1.93341267108917236 0.0295243263244628906 -0.00179743766784667969
0.843993186950683594 3.23910045623779297 -0.801486492156982422
0.162223324179649353 3.23889946937561035 -0.794903993606567383
-1.18909764289855957 3.44091415405273438 0.00161004066467285156
0.0232500992715358734 6.32113122940063477 1.73251557350158691
1.04585349559783936 3.44959831237792969 -0.513440847396850586
1.74634850025177002 3.29195499420166016 -0.125071048736572266
1.95826566219329834 4.50798368453979492 -0.460213780403137207
0.132830023765563965 5.49032306671142578 1.51108002662658691
-0.766845881938934326 7.44202756881713867 2.00162649154663086
-1.64152824878692627 3.42498636245727539 -0.419335633516311646
-0.659864068031311035 3.56744241714477539 -0.492270976305007935
1.4745795726776123 6.13904094696044922 1.86126232147216797
-0.681817412376403809 3.72763371467590332 -0.629579901695251465
0.470402419567108154 3.14905786514282227 -0.398286342620849609
-0.309100449085235596 3.5700840950012207 -0.669255912303924561
-1.55222892761230469 5.40413284301757812 1.34588623046875
0.115713775157928467 2.15799903869628906 2.61379218101501465
-0.50091707706451416 3.81553387641906738 -0.779031634330749512
2.36475181579589844 4.91326141357421875 1.04027414321899414
1.40251493453979492 7.13026762008666992 1.99761056900024414
0.231871411204338074 7.22964286804199219 2.06163120269775391
-0.891409456729888916 2.31940841674804688 -0.257055401802062988
-3.62255334854125977 2.99901962280273438 3.0902562141418457
3.25439715385437012 1.76523399353027344 2.65590000152587891
0.698787093162536621 4.88395547866821289 1.23332571983337402
1.81235742568969727 3.43529200553894043 -0.506180047988891602
-1.46713471412658691 3.49225497245788574 -0.250365257263183594
-1.6978985071182251 2.46166849136352539 -0.789534389972686768
-0.497182935476303101 4.67137813568115234 0.977514028549194336
0.797669887542724609 3.30723690986633301 -0.551418125629425049
-0.329995930194854736 3.48726248741149902 -0.544253051280975342
-1.63843059539794922 3.2847142219543457 -0.0582647323608398438
1.24895501136779785 3.27816057205200195 -0.572973251342773438
1.6821751594543457 4.30117034912109375 -0.479306548833847046
3.70210790634155273 0.993308544158935547 2.35715389251708984
-0.345060139894485474 3.4053037166595459 -0.802167057991027832
-0.115410313010215759 3.05482077598571777 -0.44724804162979126
2.32891368865966797 4.62607383728027344 -0.649232923984527588
-1.25245606899261475 3.62404155731201172 -0.596830844879150391
-0.360761791467666626 7.12674903869628906 2.04298686981201172
-1.31377983093261719 2.85288619995117188 -0.750149846076965332
0.386634379625320435 3.14144611358642578 -0.721885383129119873
1.50168907642364502 3.54441070556640625 -0.419982284307479858
1.75881576538085938 4.40984916687011719 -0.782510697841644287
0.937060773372650146 3.40690040588378906 -0.537268400192260742
0.754614651203155518 7.41475629806518555 2.06948637962341309
2.43911528587341309 0.423266887664794922 -0.053134918212890625
1.09927093982696533 3.80278229713439941 -0.851157665252685547
1.56975817680358887 0.398987770080566406 2.91331195831298828
2.29899263381958008 4.48791694641113281 0.202684879302978516
0.850569069385528564 3.29880428314208984 -0.527359604835510254
1.28369474411010742 4.64924955368041992 2.74876666069030762
-1.3841174840927124 3.1294102668762207 0.148598194122314453
0.184615135192871094 3.22895908355712891 -0.614921092987060547
-0.662653803825378418 3.39621520042419434 -0.774476289749145508
-2.09631013870239258 3.55107569694519043 -0.43962019681930542
-0.213345110416412354 0.442300319671630859 0.336781561374664307
-2.10793113708496094 3.52767515182495117 0.128611147403717041
-0.0702088251709938049 3.15967798233032227 -0.656806468963623047
0.527945160865783691 3.34914350509643555 -0.564633190631866455
0.789061427116394043 3.3528447151184082 -0.516461610794067383
2.22957849502563477 7.24015188217163086 1.73753738403320312
-0.966119349002838135 3.46646380424499512 -0.430701106786727905
-1.10855948925018311 7.14574146270751953 2.0587303638458252
0.126756563782691956 3.35715055465698242 -0.784634292125701904
1.87414968013763428 4.61143255233764648 -0.647993326187133789
0.4690399169921875 7.23874187469482422 1.67842006683349609
-0.293782621622085571 3.14213299751281738 -0.56105196475982666
0.0816042795777320862 3.46861982345581055 -0.455149054527282715
0.170702159404754639 3.38025569915771484 -0.808051943778991699
-0.746470153331756592 3.35889267921447754 -0.184005379676818848
-1.95187115669250488 6.80983543395996094 1.72575902938842773
0.120614126324653625 3.28051662445068359 -0.607059121131896973
-1.00253212451934814 3.86084103584289551 -0.789219915866851807
-0.336070269346237183 3.66488409042358398 -0.750597476959228516
1.41840827465057373 3.38622760772705078 -0.47101515531539917
1.27317655086517334 3.24963879585266113 -0.81033778190612793
1.43603062629699707 3.78305435180664062 -0.583345174789428711
1.93624472618103027 5.72602653503417969 0.788942873477935791
1.28437590599060059 3.43357253074645996 -0.623377442359924316
0.746211647987365723 3.24306321144104004 -0.510288655757904053
-1.47172200679779053 3.57561755180358887 -0.77624058723449707
1.92260777950286865 4.98996496200561523 1.14656972885131836
1.3546522855758667 2.96732473373413086 -0.659454107284545898
-1.79797005653381348 3.49099230766296387 -0.128469467163085938
-1.29535496234893799 3.55280780792236328 -0.454353690147399902
-1.6590421199798584 3.45716714859008789 -0.525212228298187256
0.576520204544067383 3.38773012161254883 -0.584800004959106445
1.84354376792907715 7.23408651351928711 1.75502252578735352
0.810555338859558105 3.13307881355285645 -0.611621677875518799
-0.301125377416610718 7.39885139465332031 2.00412607192993164
0.585368871688842773 3.3563995361328125 -0.514790952205657959
-1.39079666137695312 4.01142978668212891 1.84883785247802734
1.960396409034729 4.45752954483032227 -0.344057083129882812
0.052419658750295639 3.3912045955657959 -0.58790433406829834
-0.899856984615325928 3.77833080291748047 -0.770872294902801514
-1.62584328651428223 3.54294443130493164 -0.0180376172065734863
-0.648325204849243164 3.46133685111999512 -0.614535629749298096
2.50597810745239258 6.96126222610473633 1.97990703582763672
-1.44691634178161621 1.95532631874084473 0.0475852489471435547
0.407901972532272339 6.96890878677368164 2.06806135177612305
2.02390241622924805 4.15029096603393555 -0.565723657608032227
0.208932161331176758 2.42985200881958008 1.93536972999572754
-0.450126737356185913 3.4842827320098877 -0.794431447982788086
1.26191127300262451 6.80532741546630859 2.02897500991821289
1.75802743434906006 6.89183330535888672 2.06814146041870117
1.08993089199066162 5.12175083160400391 1.35596084594726562
-1.83683359622955322 3.50958347320556641 -0.370885074138641357
-1.54880928993225098 7.103363037109375 1.97787952423095703
-2.58759522438049316 6.19001579284667969 1.39041519165039062
0.694831132888793945 2.71388530731201172 0.642317295074462891
-0.404039233922958374 3.15482211112976074 -0.428059160709381104
-0.664254486560821533 3.59834074974060059 -0.78848034143447876
-1.16343438625335693 7.34616374969482422 1.99013948440551758
1.45467865467071533 4.64605426788330078 1.02261924743652344
-1.2793813943862915 3.58254480361938477 -0.506291031837463379
-0.522481739521026611 7.65121173858642578 1.97448587417602539
-0.209186583757400513 3.25573205947875977 -0.783542215824127197
0.200649261474609375 4.77298402786254883 1.30217981338500977
2.48393821716308594 6.70165443420410156 1.92791104316711426
0.313366204500198364 3.08597326278686523 -0.487037122249603271
-0.447826743125915527 3.67960572242736816 -0.482813477516174316
-0.957283556461334229 3.71437406539916992 -0.609243512153625488
0.863999605178833008 3.52851343154907227 -0.689164876937866211
-0.233772993087768555 3.21444845199584961 -0.775407552719116211
-0.903333067893981934 2.98297548294067383 2.1383359432220459
0.398669123649597168 3.44147777557373047 -0.482625424861907959
1.14637589454650879 3.45176887512207031 -0.49477115273475647
1.82655715942382812 4.63043546676635742 -0.715288400650024414
-0.737607359886169434 7.14896345138549805 2.05501532554626465
0.456449210643768311 3.25397372245788574 -0.476581037044525146
1.04928958415985107 4.41040611267089844 1.11933565139770508
1.63220894336700439 3.70110321044921875 -0.576674103736877441
-0.934721767902374268 3.38780498504638672 -0.02626800537109375
-0.18034788966178894 5.02735519409179688 1.30457139015197754
-1.85853219032287598 3.80626320838928223 -0.597878813743591309
-0.626097202301025391 3.68217563629150391 -0.541040599346160889
0.0470580719411373138 7.00429439544677734 1.99748241901397705
1.49965190887451172 4.12897062301635742 -0.784726083278656006
-0.667495787143707275 3.75739312171936035 -0.79822242259979248
0.653660714626312256 5.64901924133300781 1.54178595542907715
0.240291163325309753 3.23062372207641602 -0.589598894119262695
-1.47191226482391357 3.41998577117919922 -0.156772971153259277
-2.40060973167419434 1.82918548583984375 0.24472653865814209
-1.83817398548126221 3.34209656715393066 -0.755458235740661621
0.403885513544082642 3.42201542854309082 -0.798250377178192139
-1.37478375434875488 3.5444788932800293 -0.787602365016937256
1.07035887241363525 7.05796384811401367 2.04272270202636719
-0.808930277824401855 1.2910991907119751 -0.760477006435394287
1.62806761264801025 4.27751493453979492 -0.373584568500518799
-1.22273313999176025 5.8719487190246582 1.58967185020446777
1.3169097900390625 1.83787250518798828 1.48221731185913086
0.831866264343261719 3.39191627502441406 -0.516799211502075195
0.318199068307876587 6.66079044342041016 1.8923954963684082
0.173078805208206177 3.35620212554931641 -0.789496064186096191
-0.128938466310501099 3.31520199775695801 -0.560661911964416504
-1.62728714942932129 3.51518416404724121 -0.484234660863876343
0.333114415407180786 3.48566818237304688 -0.597939014434814453
-0.401387482881546021 3.66148948669433594 -0.68868333101272583
2.29705929756164551 4.78896379470825195 -0.658598959445953369
1.37074184417724609 3.83257865905761719 -0.494583547115325928
1.52402114868164062 3.50879693031311035 -0.470158219337463379
0.564321637153625488 7.13788890838623047 2.03910136222839355
0.510331928730010986 3.20486307144165039 -0.585415363311767578
-0.156109839677810669 3.43822336196899414 -0.800628125667572021
0.856303691864013672 3.35687828063964844 -0.540993690490722656
1.53515768051147461 3.34572243690490723 -0.555372238159179688
-1.53851473331451416 3.47076272964477539 -0.00254297256469726562
-2.10717177391052246 3.92592334747314453 -0.0114066004753112793
0.544912219047546387 3.29024839401245117 -0.78812563419342041
2.29346776008605957 4.51397705078125 -0.289246201515197754
-1.18183910846710205 3.5445854663848877 -0.487745076417922974
2.03208088874816895 3.19894528388977051 -0.141299724578857422
-0.0411674901843070984 3.33006381988525391 -0.793066978454589844
-0.678826272487640381 3.20322155952453613 -0.109055161476135254
-1.83875870704650879 5.48112821578979492 1.25148344039916992
-0.94547349214553833 6.97340297698974609 1.52811336517333984
-2.98831415176391602 4.70710372924804688 2.03009891510009766
0.156720623373985291 3.15416288375854492 -0.36532023549079895
-1.11856913566589355 3.42929220199584961 -0.835792660713195801
0.000796622131019830704 3.34415888786315918 -0.61215507984161377
-1.07309174537658691 3.80664300918579102 -0.774245083332061768
0.160026580095291138 2.43813300132751465 -0.86532294750213623
1.15253615379333496 3.34140491485595703 -0.502360641956329346
1.60738027095794678 4.26506328582763672 -0.625073075294494629
2.06910610198974609 6.46805381774902344 1.96654891967773438
1.73399674892425537 4.32000064849853516 -0.645196437835693359
-0.378383338451385498 3.02933692932128906 -0.445006608963012695
0.288472086191177368 7.55204963684082031 2.01062130928039551
1.37414717674255371 4.31663036346435547 0.921480178833007812
-1.45775520801544189 3.54644250869750977 -0.54668724536895752
-1.19634795188903809 3.53226423263549805 -0.672357559204101562
-0.0687500089406967163 7.26546573638916016 2.03534340858459473
-0.0256043374538421631 3.17246103286743164 -0.546901404857635498
-0.205739244818687439 3.44338679313659668 -0.432076752185821533
0.456485450267791748 3.42464852333068848 -0.679115653038024902
2.00146579742431641 4.58466720581054688 -0.533817112445831299
1.07326090335845947 3.3378751277923584 -0.585952520370483398
1.3307497501373291 0.890009880065917969 -0.114557385444641113
1.11824643611907959 3.64585399627685547 -0.45793461799621582
-1.84387052059173584 3.4511406421661377 -0.125310659408569336
-0.986609220504760742 3.67946314811706543 -0.616194784641265869
-0.439328163862228394 3.38717412948608398 -0.781273066997528076
-1.81556797027587891 3.53337764739990234 -0.258409678936004639
0.62159430980682373 3.43914437294006348 -0.512268900871276855
1.80950462818145752 7.24766159057617188 1.99862980842590332
0.234566837549209595 3.22585582733154297 -0.556105494499206543
1.15474104881286621 3.56432509422302246 -0.545545458793640137
0.09364299476146698 3.44052886962890625 -0.59295278787612915
-2.10593295097351074 3.5300755500793457 -0.327394455671310425
0.539769649505615234 3.36020612716674805 -0.503851473331451416
-0.564739882946014404 5.39821958541870117 1.28765869140625
-1.84783267974853516 3.50431156158447266 0.175036132335662842
1.36381852626800537 3.43361592292785645 -0.49103778600692749
2.42261767387390137 0.849772930145263672 3.31063365936279297
-0.00732359569519758224 3.23895072937011719 -0.782770216464996338
-0.321747481822967529 3.6448521614074707 -0.717951416969299316
1.88317537307739258 4.41556787490844727 -0.604807198047637939
0.641448557376861572 3.28769207000732422 -0.503218114376068115
