ply
format ascii 1.0
element vertex 228
comment vertices
property float x
property float y
property float z
end_header
-0.653440952301025391 2.19285345077514648 -0.820205390453338623
4.70267724990844727 3.6369321346282959 2.81310153007507324
3.23251581192016602 4.43199491500854492 -0.806577503681182861
-1.48941981792449951 2.05811858177185059 2.14136552810668945
-0.121276997029781342 4.54736566543579102 -0.723130345344543457
1.87224209308624268 3.80222344398498535 2.03782510757446289
2.5016930103302002 1.42306780815124512 0.11583477258682251
1.7601240873336792 3.03038382530212402 -0.679848194122314453
2.20186591148376465 2.55379176139831543 3.1575767993927002
-1.43625950813293457 4.5478358268737793 -0.390633344650268555
0.211935654282569885 5.01803398132324219 -0.420280218124389648
-0.783682167530059814 0.208760082721710205 -0.867234170436859131
-0.707649290561676025 3.4073333740234375 -0.557487070560455322
3.25615763664245605 4.75388622283935547 -0.298684179782867432
0.861867189407348633 2.4125816822052002 -0.906336009502410889
2.39598822593688965 3.37279915809631348 -0.785684585571289062
3.38704967498779297 3.70658755302429199 1.88190507888793945
0.42650914192199707 2.69859981536865234 -0.654903531074523926
-1.05814242362976074 4.59926748275756836 0.340565919876098633
-0.618989646434783936 4.69625568389892578 1.5485384464263916
0.678856611251831055 3.1539008617401123 1.83336067199707031
-0.681075036525726318 4.38277435302734375 -0.474207878112792969
2.42584824562072754 4.55654048919677734 -0.636624157428741455
2.22947311401367188 2.25838017463684082 -0.824934124946594238
-3.37385702133178711 3.37646150588989258 0.857310116291046143
-0.465661287307739258 5.17370700836181641 -0.384761542081832886
-0.127470090985298157 2.78014659881591797 -0.849691450595855713
1.22623157501220703 4.18214702606201172 -0.302569389343261719
0.439144432544708252 4.52219152450561523 -0.624351143836975098
1.06357419490814209 3.66521239280700684 -0.645999610424041748
-0.719752311706542969 5.34072685241699219 0.233164429664611816
2.5419156551361084 1.05435585975646973 0.408272385597229004
-0.0433725006878376007 3.54669022560119629 -0.730561614036560059
4.3494267463684082 2.49683070182800293 2.04038000106811523
1.93121027946472168 3.67026782035827637 2.88923764228820801
2.77326846122741699 3.44253087043762207 -0.340892374515533447
-0.826582551002502441 5.06002664566040039 -0.66014409065246582
2.2947688102722168 4.36736822128295898 -0.196209251880645752
-0.918800890445709229 3.1510322093963623 -0.367432087659835815
-0.974691033363342285 3.19868254661560059 -0.682854056358337402
3.2294926643371582 4.87799406051635742 -0.641272962093353271
1.29896605014801025 1.46821713447570801 0.814222931861877441
1.07311654090881348 2.60947585105895996 -0.86744314432144165
0.112281881272792816 2.62949776649475098 -0.773352682590484619
1.57154989242553711 2.34884119033813477 -0.809112727642059326
-0.946698665618896484 5.04413557052612305 -0.0797244012355804443
0.319620043039321899 4.05920028686523438 -0.671884119510650635
0.338668137788772583 2.56328344345092773 -0.811349630355834961
0.0778129920363426208 3.64557385444641113 1.64038181304931641
0.23444424569606781 4.63289833068847656 -0.604824244976043701
-1.09351098537445068 3.66275334358215332 0.557287096977233887
-1.04289889335632324 4.16126394271850586 -0.325068950653076172
1.79661130905151367 4.13409042358398438 -0.359449297189712524
2.54243874549865723 3.51588129997253418 2.42261457443237305
1.00607156753540039 4.18106317520141602 -0.544475972652435303
-0.59684222936630249 4.37712907791137695 -0.624870359897613525
-0.945728003978729248 1.98562955856323242 -0.292320907115936279
0.706557631492614746 2.7972104549407959 2.66011953353881836
2.45492768287658691 3.89366316795349121 -0.73650127649307251
-0.334816247224807739 3.95854020118713379 -0.746256649494171143
3.71458292007446289 5.08214282989501953 -0.7683907151222229
-0.850309669971466064 1.70483720302581787 -0.92892223596572876
1.36769413948059082 5.55434799194335938 1.12516450881958008
-0.38239133358001709 5.21619176864624023 -0.501568019390106201
-0.852729201316833496 3.15361714363098145 -0.589328229427337646
-0.960352957248687744 4.57326936721801758 -0.0063867541030049324
2.08926534652709961 2.89149260520935059 -0.770276725292205811
1.65879344940185547 3.77160143852233887 -0.699760496616363525
-0.0517382994294166565 4.39719295501708984 -0.642271816730499268
-0.848180949687957764 1.99449515342712402 -0.741339027881622314
-0.988618075847625732 3.65567326545715332 -0.165362298488616943
1.70000100135803223 2.94230842590332031 -0.760771811008453369
-1.36251354217529297 5.38518619537353516 0.190165340900421143
-0.291612595319747925 5.12674045562744141 -0.709353744983673096
1.76006138324737549 4.66991519927978516 -0.293814122676849365
0.7396659255027771 4.70992374420166016 -0.293491899967193604
0.450690388679504395 4.27971220016479492 -0.40565076470375061
-0.0162710137665271759 2.8977665901184082 -0.675986826419830322
-0.17191062867641449 2.93555665016174316 -0.761094272136688232
-0.821935534477233887 2.48385500907897949 -0.271159112453460693
-0.906841576099395752 2.62388920783996582 -0.120901942253112793
-0.485367804765701294 4.15249538421630859 -0.710100054740905762
2.74331831932067871 3.77508950233459473 -0.773256540298461914
4.12818098068237305 3.71123290061950684 2.67142295837402344
-0.641475915908813477 3.49730086326599121 -0.576104462146759033
-0.643213391304016113 1.97073996067047119 -0.740738272666931152
0.0057967393659055233 5.03158855438232422 -0.606318891048431396
-0.550865113735198975 4.01156139373779297 -0.0503721795976161957
-0.681445658206939697 5.04070615768432617 0.223330378532409668
0.974077284336090088 2.5894463062286377 -0.710852324962615967
2.34585022926330566 3.72299289703369141 -0.370218157768249512
1.99056005477905273 3.97458004951477051 -0.726494371891021729
-0.234980866312980652 5.14944744110107422 -0.306416213512420654
2.31536650657653809 4.07967233657836914 -0.235938847064971924
-0.531356394290924072 3.37682795524597168 -0.71995854377746582
-0.854893326759338379 5.20957517623901367 -0.349157214164733887
0.366895347833633423 4.61956644058227539 -0.2853890061378479
0.401260524988174438 2.57114744186401367 -0.871839284896850586
-0.688912868499755859 5.32033157348632812 1.81235933303833008
0.881219625473022461 3.81192564964294434 2.50178718566894531
1.4141685962677002 2.61179757118225098 -0.771719574928283691
-0.325218290090560913 2.81491637229919434 -0.7615395188331604
1.24731254577636719 2.5819849967956543 -0.858378112316131592
-0.0416236482560634613 4.04054975509643555 -0.722126364707946777
-0.812245965003967285 2.4891965389251709 -0.267139911651611328
-0.549915134906768799 3.63291764259338379 -0.74352717399597168
0.640281915664672852 2.61035513877868652 -0.832546472549438477
-1.74458193778991699 5.35334968566894531 -0.0386542342603206635
2.23773932456970215 4.29141426086425781 -0.450566709041595459
3.93465566635131836 2.39942717552185059 2.19570541381835938
0.806244790554046631 4.09555959701538086 -0.343834728002548218
0.768928229808807373 2.62961816787719727 -0.842487871646881104
-0.989542663097381592 3.92428684234619141 0.161265730857849121
-0.486692219972610474 4.78629159927368164 -0.703189492225646973
3.16568470001220703 4.90542745590209961 -0.390329718589782715
-0.599125325679779053 4.42126226425170898 -0.536354005336761475
-0.987791478633880615 5.07698535919189453 0.275322794914245605
-0.714424192905426025 4.19128894805908203 -0.302582025527954102
-0.796960294246673584 3.34321999549865723 -0.589867055416107178
-1.06382071971893311 4.09386301040649414 -0.431919485330581665
3.23343372344970703 5.1293792724609375 -0.614528536796569824
-0.651372849941253662 4.87051534652709961 -0.617979943752288818
0.096121080219745636 2.64236807823181152 -0.783329010009765625
0.233045458793640137 2.65785622596740723 -0.756215095520019531
-1.09218680858612061 5.82945394515991211 0.845345497131347656
3.18456792831420898 4.364013671875 -0.232931315898895264
-0.383453965187072754 4.08061027526855469 -0.710640966892242432
0.0337064526975154877 3.184295654296875 -0.676363348960876465
-0.958023309707641602 3.13982844352722168 -0.59138411283493042
0.643951952457427979 3.38840341567993164 -0.734869539737701416
-0.902377128601074219 1.83166217803955078 -0.826823532581329346
-0.749687373638153076 3.23421955108642578 -0.620783686637878418
-1.03619074821472168 4.98481988906860352 0.232063233852386475
-0.792129218578338623 2.63210940361022949 -0.2818947434425354
-0.701183676719665527 3.64179611206054688 -0.710924088954925537
0.320909857749938965 4.62566184997558594 -0.569827616214752197
-0.148033544421195984 4.91078662872314453 -0.609819352626800537
-1.02371954917907715 3.54989838600158691 0.415388882160186768
0.628936171531677246 3.47390151023864746 2.6316683292388916
-0.611529052257537842 3.63782572746276855 -0.616064667701721191
2.93048667907714844 3.4917294979095459 2.41691327095031738
1.88893330097198486 2.13309407234191895 -0.813629746437072754
1.10510170459747314 5.84853458404541016 1.1518104076385498
-0.0741456523537635803 4.90464353561401367 -0.706202864646911621
1.79439127445220947 4.03974771499633789 -0.554282724857330322
1.96042287349700928 2.64330649375915527 -0.782322108745574951
1.97065615653991699 4.22385549545288086 -0.339837521314620972
-0.0730580613017082214 2.71317768096923828 -0.754492580890655518
-1.04268229007720947 3.35596346855163574 0.0288907904177904129
-0.578402817249298096 5.28067684173583984 -0.275652587413787842
-0.274130314588546753 3.34986233711242676 2.41001009941101074
-0.728625833988189697 5.07150363922119141 -0.149803251028060913
1.42230916023254395 2.54050278663635254 -0.864178240299224854
-1.03570199012756348 3.02553057670593262 -0.189544975757598877
1.07237374782562256 2.60610628128051758 -0.760624408721923828
1.62908625602722168 4.32450294494628906 -0.302531063556671143
-0.369047373533248901 4.44404315948486328 2.33531951904296875
2.07736515998840332 4.4170379638671875 -0.289794385433197021
-0.148026525974273682 3.22657942771911621 -0.738171100616455078
1.31432616710662842 2.64038658142089844 -0.662840425968170166
1.34370410442352295 3.05016183853149414 -0.741724789142608643
-0.65869671106338501 2.20681190490722656 -1.04141497611999512
0.0396539419889450073 4.79381608963012695 -0.301834464073181152
-0.235224023461341858 2.83263278007507324 -0.764423787593841553
1.43586337566375732 4.68653249740600586 -0.260481774806976318
-0.906398177146911621 1.66548943519592285 -0.779508292675018311
0.670194268226623535 5.63995647430419922 0.889071881771087646
-0.0419242233037948608 4.13726902008056641 -0.616202116012573242
0.110727451741695404 3.05453014373779297 -0.777490675449371338
1.7367398738861084 3.01640582084655762 -0.719410955905914307
-0.966642081737518311 5.10390186309814453 0.43195807933807373
-0.335836231708526611 2.62694621086120605 -0.750511825084686279
-0.899142920970916748 1.97963070869445801 -0.775987327098846436
0.621437311172485352 4.5265049934387207 -0.53880774974822998
0.476002395153045654 4.46313333511352539 -0.403067260980606079
-1.91047942638397217 2.6746222972869873 0.552877545356750488
1.47235202789306641 3.71270251274108887 -0.554291367530822754
1.18796539306640625 2.53677868843078613 -0.852612972259521484
1.9072258472442627 3.09406018257141113 3.05607175827026367
-1.43141007423400879 4.7000732421875 -0.137093722820281982
-0.303124904632568359 3.74634528160095215 -0.589391410350799561
2.96438121795654297 3.19116044044494629 2.7174072265625
1.03328919410705566 1.90001034736633301 -0.251763284206390381
-0.940487861633300781 3.17946124076843262 -0.64491957426071167
2.49944472312927246 4.48877811431884766 -0.227291107177734375
2.89111065864562988 4.64891481399536133 -0.142543375492095947
-0.077173963189125061 5.09182548522949219 -0.562243282794952393
0.710884571075439453 2.65876674652099609 -0.730695009231567383
-0.513351321220397949 5.23705291748046875 -0.0842912793159484863
-0.854407429695129395 2.47552967071533203 -0.343288838863372803
-1.21755945682525635 3.33654880523681641 0.572051465511322021
1.08866536617279053 2.6643979549407959 -0.837354123592376709
-0.421200692653656006 4.45253801345825195 -0.713984370231628418
0.401431411504745483 2.98301005363464355 2.6745607852935791
1.04994237422943115 4.12291669845581055 -0.39159083366394043
-0.866107821464538574 2.42527437210083008 -0.352755218744277954
3.07728791236877441 2.80582451820373535 2.18449974060058594
0.253257393836975098 4.76425027847290039 -0.555149734020233154
0.0842063277959823608 2.8834235668182373 -0.789317607879638672
-0.4649219810962677 2.33640885353088379 -0.749811053276062012
-0.616239845752716064 3.60437321662902832 -0.619585096836090088
0.23976859450340271 4.9647064208984375 -0.517332613468170166
-0.0843093320727348328 2.55911993980407715 2.83785343170166016
3.6152193546295166 2.52416300773620605 3.2400970458984375
2.51744413375854492 4.74356698989868164 -0.570779919624328613
-0.534162759780883789 5.03886508941650391 -0.747877299785614014
-0.288687855005264282 5.12979555130004883 -0.454114735126495361
0.692265987396240234 2.68186330795288086 -0.861346185207366943
-0.522018969058990479 4.44476318359375 -0.521062672138214111
-0.84998399019241333 5.48604059219360352 0.598190665245056152
0.428831189870834351 2.61214327812194824 -0.7670021653175354
-1.34978282451629639 5.08664703369140625 -0.132840514183044434
1.66966938972473145 1.30595850944519043 0.0671644806861877441
0.449891239404678345 5.01155471801757812 -0.324099421501159668
2.0096285343170166 3.90363073348999023 -0.471436202526092529
-0.7575492262840271 3.35777902603149414 -0.55251997709274292
-1.66088449954986572 5.62435531616210938 0.274867236614227295
0.586637318134307861 2.59835648536682129 -0.837726175785064697
-0.840678572654724121 -0.413090527057647705 -1.43907284736633301
-0.81926274299621582 4.19290685653686523 -0.483604252338409424
3.15592479705810547 1.1714627742767334 0.286362171173095703
0.400118142366409302 2.83233237266540527 -0.785808265209197998
0.519464731216430664 2.60333418846130371 -0.861153602600097656
-0.73003077507019043 5.00482606887817383 -0.0249832253903150558
1.59412968158721924 2.42624902725219727 -0.830710947513580322
-1.23347163200378418 4.86234378814697266 0.252438604831695557
-0.752813100814819336 2.19771909713745117 -0.739923059940338135
-0.701810777187347412 3.63731956481933594 -0.569520533084869385
