ply
format ascii 1.0
element vertex 191
comment vertices
property float x
property float y
property float z
end_header
3.08218765258789062 2.21901440620422363 2.04372930526733398
2.54238247871398926 3.04456162452697754 -0.850757420063018799
-0.122012510895729065 1.12595772743225098 -0.677152335643768311
2.30582594871520996 -0.0434691384434700012 0.107343733310699463
-2.21373200416564941 2.87908196449279785 -0.755109727382659912
-3.21836996078491211 0.594683706760406494 0.35819709300994873
0.910967886447906494 2.58287835121154785 -0.467244088649749756
-0.939742624759674072 2.55179238319396973 -0.666633307933807373
0.680633664131164551 2.17809557914733887 0.0206691641360521317
-1.40652942657470703 3.15311789512634277 -0.453342229127883911
-2.18927001953125 1.03925919532775879 0.39148402214050293
-0.689233958721160889 2.79830336570739746 -0.601911604404449463
2.35447168350219727 3.29982185363769531 -0.434442758560180664
0.770662486553192139 2.24299407005310059 -0.58784407377243042
-2.21897196769714355 3.07453703880310059 -0.498311251401901245
-1.38374412059783936 2.71551108360290527 -0.717346370220184326
-0.383833825588226318 2.47620081901550293 -0.477059334516525269
-0.946163415908813477 2.73325467109680176 -0.479717344045639038
1.50858032703399658 2.98694634437561035 -0.253630101680755615
-0.0276644788682460785 3.12476801872253418 0.0904763936996459961
2.20173168182373047 3.40377116203308105 -0.742570102214813232
-0.496939092874526978 2.39554142951965332 -0.498086601495742798
1.30458521842956543 2.44212722778320312 -0.650460541248321533
0.27040630578994751 2.55583620071411133 -0.415637403726577759
0.497324466705322266 2.53174948692321777 -0.417117774486541748
-1.09732472896575928 2.36218166351318359 -0.676133215427398682
-1.3821331262588501 1.69772279262542725 -0.635841548442840576
0.237677603960037231 1.18369603157043457 -0.105153143405914307
-1.96447670459747314 3.07083821296691895 -0.517344295978546143
0.179356470704078674 2.4741673469543457 -0.414596498012542725
0.938266634941101074 2.53969979286193848 -0.654928028583526611
-1.49297893047332764 2.00925469398498535 -0.638192892074584961
0.373905658721923828 2.52884221076965332 -0.488937705755233765
1.35100090503692627 2.19892144203186035 -0.444513380527496338
-0.821327626705169678 2.27164936065673828 -0.391572773456573486
-0.412096410989761353 2.48358035087585449 -0.509371399879455566
2.05163240432739258 3.07650303840637207 -0.493232786655426025
-0.452613979578018188 2.81504940986633301 -0.399734914302825928
0.986689746379852295 3.01997709274291992 -0.387160599231719971
0.257895320653915405 2.67894721031188965 -0.567443192005157471
-1.86385440826416016 2.42490291595458984 -0.693631827831268311
0.954854011535644531 2.52983975410461426 -0.454638421535491943
-0.428108900785446167 2.61343789100646973 -0.490029335021972656
2.07725715637207031 3.81984448432922363 -0.771574318408966064
-2.20392775535583496 3.10769200325012207 -0.486556649208068848
-1.09047484397888184 2.6072075366973877 -0.661902308464050293
-0.445105910301208496 2.54382085800170898 -0.445875257253646851
-0.321011513471603394 1.91364061832427979 -0.156561315059661865
0.407911241054534912 3.36495661735534668 0.139896035194396973
1.14523911476135254 2.73790717124938965 -0.702806055545806885
1.17492222785949707 2.48792910575866699 -0.371022045612335205
0.254634290933609009 2.58663105964660645 -0.424246877431869507
0.205662250518798828 1.93683397769927979 -0.109010875225067139
-0.588534951210021973 2.38840770721435547 -0.429716110229492188
0.0102933328598737717 2.41851210594177246 -0.4781838059425354
1.67862319946289062 2.03562545776367188 -0.480551660060882568
-0.7763938307762146 2.65686750411987305 -0.69434589147567749
0.231611967086791992 2.44542336463928223 -0.574081003665924072
2.17263650894165039 3.1327674388885498 -0.699864685535430908
0.254241675138473511 2.67690253257751465 -0.614149749279022217
-1.7881084680557251 2.50032496452331543 -0.46654665470123291
-0.22930087149143219 2.14586663246154785 -0.474620580673217773
0.929186522960662842 2.59556746482849121 -0.571639835834503174
2.4359886646270752 3.1938784122467041 -0.841219186782836914
0.0205933470278978348 2.55431294441223145 -0.541744530200958252
2.48301553726196289 3.6270298957824707 -0.538560330867767334
-0.399138897657394409 2.51617336273193359 -0.420107632875442505
-2.23170375823974609 2.92952632904052734 -0.673531711101531982
-0.544077455997467041 2.88711762428283691 -0.351929605007171631
-1.04060208797454834 2.67764091491699219 -0.660105884075164795
0.538740038871765137 2.55388617515563965 -0.454133331775665283
-0.458932965993881226 2.42767858505249023 -0.519593536853790283
-1.95202648639678955 3.04826259613037109 -0.540716588497161865
1.05504751205444336 2.53869223594665527 -0.491094142198562622
-0.891777753829956055 2.85825562477111816 -0.534065306186676025
-2.2572636604309082 3.04095077514648438 -0.4527016282081604
1.18760561943054199 2.98694443702697754 -0.375259637832641602
-1.96380829811096191 3.01833772659301758 -0.418078720569610596
1.00493466854095459 1.87597835063934326 -0.303826034069061279
1.30793249607086182 2.94787859916687012 -0.266885697841644287
0.0659659579396247864 1.17165231704711914 -0.603956758975982666
-0.87120366096496582 2.51385021209716797 -0.469505727291107178
0.137293070554733276 2.38328099250793457 -0.501768946647644043
1.44609916210174561 2.70473599433898926 -0.619934320449829102
0.170121088624000549 2.44617056846618652 -0.495698481798171997
-2.48630523681640625 1.10436248779296875 0.155827105045318604
-1.25810050964355469 3.04005074501037598 -0.48124578595161438
-0.63131636381149292 2.46827435493469238 -0.479490816593170166
-0.902684509754180908 2.38704967498779297 -0.507617473602294922
-2.57947158813476562 0.536749184131622314 0.508358597755432129
-0.757993638515472412 3.09484696388244629 -0.353663086891174316
-1.97771739959716797 2.90631628036499023 -0.6643180251121521
0.199754610657691956 2.35775351524353027 -0.520839095115661621
1.48536252975463867 2.59730339050292969 -0.462219595909118652
-1.2170872688293457 2.52283549308776855 -0.63734358549118042
1.22910356521606445 2.65780878067016602 -0.571483910083770752
-1.55262649059295654 2.27534604072570801 -0.704551517963409424
0.714716017246246338 3.03220033645629883 -0.166299700736999512
-1.92080652713775635 3.07522368431091309 -0.353567242622375488
0.308052897453308105 2.43564748764038086 -0.47911834716796875
0.531162500381469727 2.54635357856750488 -0.492099910974502563
-0.613827109336853027 2.77801847457885742 -0.489216119050979614
2.05874395370483398 3.17057490348815918 -0.527969062328338623
-1.65821158885955811 2.80571937561035156 -0.674511313438415527
1.97504222393035889 2.60579061508178711 -0.390476763248443604
-0.490928739309310913 2.4521491527557373 -0.504368782043457031
-1.947906494140625 2.86411070823669434 -0.715919911861419678
-0.662060856819152832 2.4837498664855957 -0.534068822860717773
-0.289006173610687256 3.08835506439208984 -0.22611236572265625
0.0680292323231697083 2.76847672462463379 -0.386042475700378418
-0.0525663085281848907 2.68735575675964355 0.176039993762969971
0.935757696628570557 2.45385909080505371 -0.51258617639541626
-0.835271477699279785 2.42283105850219727 -0.692835032939910889
1.76584446430206299 3.00211977958679199 -0.319103479385375977
1.61797904968261719 3.23853302001953125 -0.683524549007415771
0.868778407573699951 2.56645011901855469 -0.489414393901824951
2.31821298599243164 2.97629332542419434 -0.806863129138946533
-1.05924761295318604 2.29796862602233887 -0.37627100944519043
1.29509282112121582 2.54191374778747559 -0.502487063407897949
-0.350300401449203491 2.26378893852233887 -0.400264501571655273
0.43569907546043396 1.97771286964416504 -0.0851524472236633301
2.4460906982421875 3.63979983329772949 -0.573848903179168701
2.27123522758483887 3.36894536018371582 -0.273301601409912109
2.39438247680664062 3.19145488739013672 -0.626098334789276123
2.10513758659362793 3.21675705909729004 -0.545701742172241211
1.00619649887084961 2.88503456115722656 -0.652122676372528076
-0.705058276653289795 2.2934420108795166 -0.355291217565536499
-1.00579929351806641 2.51800155639648438 -0.655709505081176758
-2.15617537498474121 1.49331951141357422 -0.902846932411193848
-0.779546201229095459 2.92885065078735352 -0.235859811305999756
0.879372358322143555 2.49949002265930176 -0.643738210201263428
-1.34686315059661865 2.49718499183654785 -0.650775253772735596
0.0162221882492303848 2.55417704582214355 -0.456376522779464722
1.3564072847366333 2.36154055595397949 -0.41222381591796875
0.25348430871963501 2.38610529899597168 -0.471020162105560303
0.496940881013870239 2.50405573844909668 -0.460953265428543091
0.196388095617294312 1.23040914535522461 -0.575222611427307129
-1.06017494201660156 2.61241722106933594 -0.288961231708526611
-0.387368828058242798 2.36918473243713379 -0.479690015316009521
0.221928000450134277 2.47669625282287598 -0.419078648090362549
0.0339685939252376556 2.4406130313873291 -0.437060117721557617
-0.440071463584899902 2.61075425148010254 -0.439023971557617188
-2.22287154197692871 3.1188042163848877 -0.617566585540771484
1.56631338596343994 0.00141220539808273315 -0.325010240077972412
1.12557375431060791 2.75808072090148926 -0.236820399761199951
2.71409440040588379 2.3518521785736084 2.15500903129577637
0.736982464790344238 0.49157029390335083 -0.124692976474761963
0.0600847825407981873 2.44642281532287598 -0.47545933723449707
-0.548609018325805664 2.17395353317260742 -0.153563797473907471
-0.196187123656272888 1.14320135116577148 -0.635651707649230957
-1.13707566261291504 2.68745923042297363 -0.64806753396987915
0.141012012958526611 2.82600235939025879 0.123054623603820801
-1.90278565883636475 2.56355929374694824 -0.361431002616882324
-1.20920991897583008 2.71081995964050293 -0.653775990009307861
2.61158037185668945 2.94940638542175293 -0.738269627094268799
-1.42580187320709229 2.21164655685424805 -0.615676701068878174
-0.390832364559173584 1.17041873931884766 -0.587607681751251221
1.52200126647949219 2.81854557991027832 -0.375141620635986328
-0.393701046705245972 2.62533187866210938 -0.535949766635894775
-1.94178175926208496 2.87748408317565918 -0.602677464485168457
0.351636260747909546 2.41261720657348633 -0.531116485595703125
-0.354034245014190674 2.9555363655090332 0.0104671148583292961
2.26462674140930176 3.50136733055114746 -0.563772857189178467
0.258750885725021362 3.16264867782592773 -0.387087643146514893
0.348144650459289551 2.40958786010742188 -0.473556458950042725
0.0456255488097667694 2.52608895301818848 -0.411218583583831787
-0.891947150230407715 2.43529081344604492 -0.675195634365081787
-2.18559980392456055 2.9669041633605957 -0.534063100814819336
-2.16922402381896973 3.02020144462585449 -0.503860294818878174
0.0460734330117702484 2.47099471092224121 -0.55064159631729126
2.16775107383728027 2.25586199760437012 -0.388076126575469971
0.251513928174972534 2.58358931541442871 -0.572726070880889893
-0.631167948246002197 2.57097482681274414 -0.605821669101715088
0.171726778149604797 2.47663974761962891 -0.480279326438903809
0.866342484951019287 2.93468546867370605 -0.0597266517579555511
0.0658790692687034607 1.08653855323791504 -0.646683275699615479
-2.03304553031921387 3.14306092262268066 -0.60272669792175293
2.2502133846282959 2.78519845008850098 -0.558991909027099609
0.378720134496688843 2.51929211616516113 -0.346786260604858398
1.09758079051971436 2.53187060356140137 -0.545383691787719727
-0.955733418464660645 2.50185108184814453 -0.67994457483291626
1.18089234828948975 3.06501984596252441 -0.353308320045471191
0.982157051563262939 2.49404001235961914 -0.494815409183502197
0.954800188541412354 2.48716521263122559 -0.460438191890716553
-1.99287331104278564 2.5974278450012207 -0.727022886276245117
1.43766307830810547 2.48857283592224121 -0.244482338428497314
-1.57159638404846191 2.07033753395080566 -0.384188294410705566
-1.13489389419555664 2.67453694343566895 -0.425582766532897949
-1.28551316261291504 2.65152239799499512 -0.45844152569770813
-0.00812705140560865402 2.4853670597076416 -0.451081216335296631
-2.06335020065307617 2.96739482879638672 -0.434007018804550171
