ply
format ascii 1.0
element vertex 29
comment vertices
property float x
property float y
property float z
end_header
-0.421666175127029419 3.17104029655456543 -0.653690636157989502
1.12782764434814453 3.78577184677124023 -0.818052053451538086
-1.71971797943115234 3.98024559020996094 -0.579762578010559082
0.891836464405059814 4.12571954727172852 -0.85175633430480957
-0.139814764261245728 3.24585366249084473 -0.601163268089294434
1.07683968544006348 3.95302081108093262 -0.758004128932952881
-0.37496793270111084 3.27808380126953125 -0.59855574369430542
-0.173727452754974365 3.19751596450805664 -0.320542007684707642
1.02753198146820068 3.8329460620880127 -0.831927120685577393
-0.204443782567977905 3.13416409492492676 -0.626350224018096924
-1.70962345600128174 4.05546236038208008 -0.704562485218048096
0.011951974593102932 3.22405171394348145 -0.641051113605499268
0.803421676158905029 3.96297860145568848 -0.835440158843994141
-0.302887171506881714 3.15086913108825684 -0.653197824954986572
1.25153434276580811 4.02132511138916016 -0.849594593048095703
1.28680765628814697 3.94932866096496582 -0.841495990753173828
-0.0588236525654792786 3.20234107971191406 -0.57092583179473877
0.0133297452703118324 3.17015671730041504 -0.595753371715545654
1.19947731494903564 3.81124520301818848 -0.851183235645294189
-1.68415772914886475 3.94531798362731934 -0.712555587291717529
-0.170445546507835388 3.08653140068054199 -0.591260910034179688
-0.286927908658981323 3.13435149192810059 -0.601375043392181396
-0.0665757507085800171 3.11424160003662109 -0.67279738187789917
-1.86162316799163818 3.93300199508666992 -0.657565295696258545
-0.373494178056716919 3.13275384902954102 -0.639671146869659424
-0.106368549168109894 3.28796935081481934 -0.599082708358764648
1.09546911716461182 3.95704984664916992 -0.832058906555175781
1.16182458400726318 4.030242919921875 -0.845238626003265381
-0.358038783073425293 3.0913550853729248 -0.399178087711334229
