ply
format ascii 1.0
element vertex 256
comment vertices
property float x
property float y
property float z
end_header
-0.165416046977043152 2.3918609619140625 -0.403072953224182129
3.08347558975219727 2.23357152938842773 2.04706192016601562
2.5436704158782959 3.05911874771118164 -0.847424745559692383
-0.120724476873874664 1.14051485061645508 -0.673819661140441895
2.3071138858795166 -0.0289120674133300781 0.110676407814025879
-2.21244406700134277 2.89363908767700195 -0.751777052879333496
-3.21708202362060547 0.60924077033996582 0.361529767513275146
0.912255942821502686 2.59743547439575195 -0.46391141414642334
-0.938454568386077881 2.56634950637817383 -0.663300633430480957
1.50746941566467285 2.87358570098876953 -0.626765251159667969
0.681921720504760742 2.19265270233154297 0.0240018367767333984
-1.40524137020111084 3.16767501831054688 -0.450009554624557495
-2.18798208236694336 1.05381631851196289 0.394816696643829346
-0.126450031995773315 2.44455265998840332 -0.457934170961380005
-0.687945902347564697 2.81286048889160156 -0.598578929901123047
0.789804160594940186 2.42720699310302734 -0.493739664554595947
0.560011804103851318 2.64604663848876953 -0.545165300369262695
2.35575962066650391 3.31437897682189941 -0.431110084056854248
0.77195054292678833 2.25755119323730469 -0.584511399269104004
-2.21768403053283691 3.08909416198730469 -0.494978576898574829
-1.38245606422424316 2.73006820678710938 -0.71401369571685791
-0.382545799016952515 2.49075794219970703 -0.473726660013198853
-0.944875359535217285 2.74781179428100586 -0.476384669542312622
1.50986838340759277 3.00150346755981445 -0.250297427177429199
-0.0263764467090368271 3.13932514190673828 0.0938090682029724121
2.20301961898803711 3.41832828521728516 -0.739237427711486816
-0.495651066303253174 2.41009855270385742 -0.494753926992416382
1.30587327480316162 2.45668435096740723 -0.647127866744995117
0.271694332361221313 2.57039332389831543 -0.412304729223251343
-1.61955893039703369 3.01832103729248047 -0.364345520734786987
0.498612493276596069 2.54630661010742188 -0.413785099983215332
-1.09603667259216309 2.3767387866973877 -0.672800540924072266
-1.38084506988525391 1.71227991580963135 -0.63250887393951416
-0.894028782844543457 3.08461380004882812 -0.431256949901580811
0.238965630531311035 1.19825315475463867 -0.101820468902587891
-1.96318864822387695 3.08539533615112305 -0.514011621475219727
-0.0732646957039833069 2.49650287628173828 -0.494334191083908081
0.180644497275352478 2.4887244701385498 -0.411263823509216309
0.939554691314697266 2.55425691604614258 -0.651595354080200195
-1.49169087409973145 2.02381181716918945 -0.634860217571258545
0.375193685293197632 2.54339933395385742 -0.485605031251907349
1.35228896141052246 2.21347856521606445 -0.441180706024169922
-0.820039570331573486 2.28620648384094238 -0.38824009895324707
-0.410808384418487549 2.49813747406005859 -0.50603872537612915
2.05292034149169922 3.09106016159057617 -0.489900112152099609
-0.451325953006744385 2.82960653305053711 -0.396402239799499512
0.987977802753448486 3.03453421592712402 -0.383827924728393555
0.259183347225189209 2.69350433349609375 -0.564110517501831055
1.86452054977416992 3.21658873558044434 -0.568437814712524414
-1.86256635189056396 2.43946003913879395 -0.690299153327941895
0.956142067909240723 2.54439687728881836 -0.451305747032165527
-0.426820874214172363 2.62799501419067383 -0.48669666051864624
2.07854509353637695 3.83440160751342773 -0.768241643905639648
0.71321481466293335 2.58559656143188477 -0.499705523252487183
-1.3526235818862915 2.73720383644104004 -0.607670366764068604
-2.20263981819152832 3.12224912643432617 -0.483223974704742432
-1.08918678760528564 2.6217646598815918 -0.658569633960723877
-0.443817883729934692 2.55837798118591309 -0.442542582750320435
-0.31972348690032959 1.92819774150848389 -0.153228640556335449
0.409199267625808716 3.37951374053955078 0.143228709697723389
1.14652717113494873 2.75246429443359375 -0.699473381042480469
1.77719271183013916 3.16963982582092285 -0.751746594905853271
1.17621028423309326 2.50248622894287109 -0.367689371109008789
0.255922317504882812 2.60118818283081055 -0.420914202928543091
-0.990453958511352539 2.93564438819885254 -0.222085714340209961
0.206950277090072632 1.95139110088348389 -0.105678200721740723
-0.587246894836425781 2.40296483039855957 -0.426383435726165771
0.0115813650190830231 2.43306922912597656 -0.474851131439208984
1.67991125583648682 2.05018258094787598 -0.477218985557556152
-0.775105774402618408 2.67142462730407715 -0.691013216972351074
0.232899993658065796 2.45998048782348633 -0.570748329162597656
2.17392444610595703 3.14732456207275391 -0.696532011032104492
0.255529701709747314 2.69145965576171875 -0.610817074775695801
-1.78682041168212891 2.51488208770751953 -0.463213980197906494
-1.28421342372894287 2.75961947441101074 -0.232886314392089844
-0.228012844920158386 2.16042375564575195 -0.471287906169891357
-1.6903308629989624 3.20912003517150879 -0.199772894382476807
-1.46411764621734619 2.84622764587402344 -0.439624637365341187
0.930474579334259033 2.61012458801269531 -0.568307161331176758
-0.0711545795202255249 2.59252619743347168 -0.417613178491592407
2.43727660179138184 3.2084355354309082 -0.837886512279510498
0.524785697460174561 2.39356493949890137 -0.47348707914352417
0.0218813791871070862 2.56887006759643555 -0.538411855697631836
2.48430347442626953 3.6415870189666748 -0.535227656364440918
-0.397850871086120605 2.5307304859161377 -0.416774958372116089
-0.945907235145568848 2.94588732719421387 -0.426935255527496338
-2.23041582107543945 2.94408345222473145 -0.670199036598205566
0.797133088111877441 2.51874542236328125 -0.479231178760528564
-0.54278939962387085 2.90167474746704102 -0.348596930503845215
-1.03931403160095215 2.69219803810119629 -0.656773209571838379
0.540028095245361328 2.56844329833984375 -0.450800657272338867
-0.036738712340593338 2.54529070854187012 -0.439075261354446411
-0.457644939422607422 2.44223570823669434 -0.516260862350463867
-1.95073843002319336 3.0628197193145752 -0.537383913993835449
1.05633556842803955 2.55324935913085938 -0.487761467695236206
-0.890489697456359863 2.87281274795532227 -0.530732631683349609
-1.20202052593231201 2.86059331893920898 -0.557976961135864258
1.84661734104156494 3.18826174736022949 -0.712817549705505371
-2.25597572326660156 3.05550789833068848 -0.449368953704833984
1.18889367580413818 3.00150156021118164 -0.371926963329315186
-0.145475000143051147 2.72551226615905762 -0.502562284469604492
-1.96252024173736572 3.03289484977722168 -0.41474604606628418
0.57402646541595459 2.58894109725952148 -0.652905941009521484
0.566186130046844482 2.65938854217529297 -0.428167164325714111
1.00622272491455078 1.89053547382354736 -0.300493359565734863
1.30922055244445801 2.96243572235107422 -0.263553023338317871
0.067253991961479187 1.18620944023132324 -0.60062408447265625
1.64901578426361084 2.86059308052062988 -0.67474830150604248
-0.869915604591369629 2.52840733528137207 -0.466173052787780762
0.13858109712600708 2.39783811569213867 -0.498436272144317627
1.4473872184753418 2.71929311752319336 -0.616601645946502686
0.171409115195274353 2.46072769165039062 -0.492365807294845581
1.7845609188079834 3.08202528953552246 -0.541994452476501465
-2.48501729965209961 1.11891961097717285 0.15915977954864502
-1.2568124532699585 3.05460786819458008 -0.477913111448287964
0.674102783203125 2.50526762008666992 -0.470113992691040039
-0.630028307437896729 2.48283147811889648 -0.47615814208984375
0.439166277647018433 2.06914758682250977 -0.436073899269104004
-0.901396453380584717 2.40160679817199707 -0.504284799098968506
-2.57818365097045898 0.551306247711181641 0.511691272258758545
-0.756705582141876221 3.10940408706665039 -0.3503304123878479
-1.97642934322357178 2.92087340354919434 -0.660985350608825684
0.201042637228965759 2.37231063842773438 -0.517506420612335205
-1.08294320106506348 3.18036317825317383 -0.660999715328216553
1.48665058612823486 2.61186051368713379 -0.458886921405792236
-1.21579921245574951 2.53739261627197266 -0.634010910987854004
1.23039162158966064 2.67236590385437012 -0.568151235580444336
-1.55133843421936035 2.28990316390991211 -0.701218843460083008
0.716004073619842529 3.04675745964050293 -0.162967026233673096
-1.91951847076416016 3.08978080749511719 -0.350234568119049072
0.309340924024581909 2.45020461082458496 -0.475785672664642334
0.532450556755065918 2.56091070175170898 -0.488767236471176147
-0.612539052963256836 2.79257559776306152 -0.485883444547653198
2.06003189086914062 3.18513202667236328 -0.524636387825012207
-1.65692353248596191 2.82027649879455566 -0.671178638935089111
1.40279674530029297 2.93079018592834473 -0.589000701904296875
1.97633028030395508 2.62034773826599121 -0.387144088745117188
-0.489640712738037109 2.46670627593994141 -0.501036107540130615
0.497150987386703491 2.4346764087677002 -0.532479286193847656
-1.94661843776702881 2.87866783142089844 -0.712587237358093262
-0.660772800445556641 2.4983069896697998 -0.530736148357391357
-0.187976464629173279 2.48836088180541992 -0.513834178447723389
-0.287718147039413452 3.10291218757629395 -0.222779691219329834
0.0693172663450241089 2.78303384780883789 -0.382709801197052002
-0.0512782782316207886 2.70191287994384766 0.179372668266296387
-0.123336322605609894 2.49874114990234375 -0.515038430690765381
0.794827163219451904 2.52901315689086914 -0.47231823205947876
0.552842378616333008 2.55148458480834961 -0.568937540054321289
-0.220134764909744263 2.39313173294067383 -0.50452888011932373
0.937045753002166748 2.46841621398925781 -0.509253501892089844
-0.833983421325683594 2.43738818168640137 -0.689502358436584473
1.76713252067565918 3.01667690277099609 -0.315770804882049561
1.61926710605621338 3.25309014320373535 -0.680191874504089355
0.870066463947296143 2.58100724220275879 -0.486081719398498535
2.31950092315673828 2.99085044860839844 -0.803530454635620117
-1.05795955657958984 2.31252574920654297 -0.372938334941864014
1.29638087749481201 2.55647087097167969 -0.499154418706893921
0.531491875648498535 2.42478179931640625 -0.430519044399261475
-0.274694323539733887 2.45360088348388672 -0.447281718254089355
1.99280726909637451 3.41490077972412109 -0.620898246765136719
-0.349012374877929688 2.27834606170654297 -0.396931827068328857
0.436987102031707764 1.99226999282836914 -0.0818197727203369141
2.44737863540649414 3.65435695648193359 -0.570516228675842285
2.27252316474914551 3.38350248336791992 -0.269968926906585693
2.39567041397094727 3.20601201057434082 -0.622765660285949707
2.10642552375793457 3.23131418228149414 -0.542369067668914795
-0.241459429264068604 2.52545452117919922 -0.518190443515777588
1.0074845552444458 2.89959168434143066 -0.64879000186920166
-0.703770220279693604 2.3079991340637207 -0.351958543062210083
-0.310228615999221802 2.44988751411437988 -0.454153478145599365
-1.00451123714447021 2.53255867958068848 -0.652376830577850342
-2.15488743782043457 1.50787663459777832 -0.899514257907867432
0.776031076908111572 2.55998373031616211 -0.474862545728683472
-0.778258144855499268 2.94340777397155762 -0.23252713680267334
0.637607038021087646 2.4831089973449707 -0.430274516344070435
0.880660414695739746 2.51404714584350586 -0.640405535697937012
-1.34557509422302246 2.51174211502075195 -0.64744257926940918
-1.22297966480255127 2.83380341529846191 -0.191162407398223877
0.0175102204084396362 2.56873416900634766 -0.453043848276138306
1.35769534111022949 2.37609767913818359 -0.408891141414642334
0.254772335290908813 2.40066242218017578 -0.467687487602233887
2.0959160327911377 3.55574274063110352 -0.642844557762145996
0.498228907585144043 2.51861286163330078 -0.457620590925216675
0.197676122188568115 1.24496626853942871 -0.571889936923980713
-1.44692707061767578 2.7517392635345459 -0.19734489917755127
-1.05888688564300537 2.62697434425354004 -0.285628557205200195
-0.386080801486968994 2.38374185562133789 -0.476357340812683105
0.223216027021408081 2.49125337600708008 -0.415745973587036133
0.0352566242218017578 2.4551701545715332 -0.433727443218231201
-0.438783437013626099 2.62531137466430664 -0.435691297054290771
-0.898515641689300537 3.07894325256347656 -0.608205139636993408
-2.22158360481262207 3.1333613395690918 -0.614233911037445068
1.56760144233703613 0.0159692764282226562 -0.321677565574645996
1.1268618106842041 2.77263784408569336 -0.233487725257873535
1.68434393405914307 3.22092008590698242 -0.631598711013793945
2.71538233757019043 2.3664093017578125 2.15834164619445801
0.73827052116394043 0.506127357482910156 -0.121360301971435547
-0.301795095205307007 2.4962611198425293 -0.426275074481964111
0.0613728128373622894 2.46097993850708008 -0.472126662731170654
-0.547320961952209473 2.18851065635681152 -0.150231122970581055
-0.194899097084999084 1.15775847434997559 -0.632319033145904541
-1.13578760623931885 2.70201635360717773 -0.644734859466552734
0.142300039529800415 2.84055948257446289 0.126387298107147217
-1.90149760246276855 2.57811641693115234 -0.358098328113555908
-1.20792186260223389 2.72537708282470703 -0.650443315505981445
2.61286830902099609 2.96396350860595703 -0.734936952590942383
-1.42451381683349609 2.22620368003845215 -0.612344026565551758
-0.38954433798789978 1.18497586250305176 -0.584275007247924805
0.708638250827789307 2.60909152030944824 -0.465130388736724854
1.52328932285308838 2.83310270309448242 -0.371808946132659912
-0.392413020133972168 2.63988900184631348 -0.532617092132568359
-1.94049370288848877 2.89204120635986328 -0.599344789981842041
0.35292428731918335 2.42717432975769043 -0.527783811092376709
-0.35274621844291687 2.9700934886932373 0.0137997865676879883
2.2659146785736084 3.51592445373535156 -0.560440182685852051
0.763237535953521729 2.53136825561523438 -0.518713593482971191
0.72098076343536377 2.44936108589172363 -0.578283369541168213
0.260038912296295166 3.17720580101013184 -0.383754968643188477
0.349432677030563354 2.42414498329162598 -0.470223784446716309
0.0469135791063308716 2.54064607620239258 -0.407885909080505371
0.722948431968688965 2.57204723358154297 -0.582051873207092285
-0.890659093856811523 2.44984793663024902 -0.671862959861755371
-2.18431186676025391 2.9814612865447998 -0.53073042631149292
-2.16793608665466309 3.03475856781005859 -0.500527620315551758
-0.223602995276451111 2.58051490783691406 -0.427725434303283691
0.0473614633083343506 2.48555183410644531 -0.547308921813964844
1.5455925464630127 3.1062159538269043 -0.4162636399269104
2.16903901100158691 2.27041912078857422 -0.384743452072143555
0.252801954746246338 2.59814643859863281 -0.569393396377563477
-0.629879891872406006 2.58553194999694824 -0.602488994598388672
0.173014804720878601 2.49119687080383301 -0.476946651935577393
0.867630541324615479 2.94924259185791016 -0.0563939809799194336
0.0671671032905578613 1.10109567642211914 -0.643350601196289062
-2.03175759315490723 3.15761804580688477 -0.599394023418426514
-1.49181687831878662 3.04990696907043457 -0.236655652523040771
2.25150132179260254 2.79975557327270508 -0.555659234523773193
0.380008161067962646 2.53384923934936523 -0.343453586101531982
-0.025365632027387619 2.43510293960571289 -0.476457655429840088
1.58355772495269775 2.99254560470581055 -0.574698567390441895
1.09886884689331055 2.54642772674560547 -0.542051017284393311
-0.0685807988047599792 2.49237418174743652 -0.544430315494537354
-0.954445362091064453 2.51640820503234863 -0.676611900329589844
1.18218040466308594 3.07957696914672852 -0.349975645542144775
0.983445107936859131 2.50859713554382324 -0.491482734680175781
0.956088244915008545 2.50172233581542969 -0.457105517387390137
-1.99158525466918945 2.6119849681854248 -0.723690211772918701
1.43895113468170166 2.50312995910644531 -0.241149663925170898
-1.57030832767486572 2.08489465713500977 -0.38085561990737915
-1.13360583782196045 2.68909406661987305 -0.422250092029571533
-1.28422510623931885 2.66607952117919922 -0.455108851194381714
-0.00683901971206068993 2.4999241828918457 -0.447748541831970215
-1.71194934844970703 3.0360872745513916 -0.153988897800445557
-2.06206226348876953 2.98195195198059082 -0.430674344301223755
-0.149689212441444397 2.92178559303283691 -0.354128539562225342
0.639597654342651367 2.2893373966217041 -0.504689335823059082
0.689167380332946777 2.5962519645690918 -0.414196938276290894
