ply
format ascii 1.0
element vertex 256
comment vertices
property float x
property float y
property float z
end_header
1.36701083183288574 3.46878957748413086 0.0744152069091796875
-2.15230655670166016 6.30318784713745117 1.64678621292114258
-2.69213557243347168 4.22198820114135742 -0.649159550666809082
2.32603836059570312 3.2135772705078125 2.64965462684631348
-0.371172726154327393 0.307204753160476685 -0.529636740684509277
-0.690482378005981445 5.15784358978271484 0.419132769107818604
-0.737907588481903076 3.26719760894775391 -0.740649938583374023
1.47761476039886475 3.22851872444152832 -0.728502988815307617
0.723759770393371582 4.91240119934082031 -0.734223842620849609
-0.806166768074035645 2.94172358512878418 2.05026388168334961
0.360454767942428589 7.11586093902587891 2.15863037109375
-0.945621192455291748 4.38283109664916992 -0.659854292869567871
-2.14249396324157715 3.0565028190612793 -0.179434895515441895
-1.74460732936859131 1.05068159103393555 -1.36258244514465332
0.471774548292160034 3.45559525489807129 -0.446496456861495972
1.57060456275939941 1.03668212890625 0.242461264133453369
-1.40530872344970703 2.90642881393432617 2.74246478080749512
1.49773836135864258 2.26326274871826172 -0.37408447265625
-3.66721534729003906 3.77824735641479492 2.2430877685546875
1.48998069763183594 6.58531570434570312 1.40207839012145996
0.276260912418365479 3.43822479248046875 -0.754876017570495605
-1.72312295436859131 4.42856597900390625 -0.717589139938354492
1.34927940368652344 5.81933498382568359 1.86600017547607422
0.296168535947799683 5.05659008026123047 -0.477459937334060669
-0.435997128486633301 -1.12229299545288086 1.4538877010345459
-0.7959250807762146 3.05919075012207031 -0.753054916858673096
-3.75772571563720703 2.26419591903686523 -1.52457964420318604
1.07435214519500732 3.16948986053466797 -0.337663471698760986
-0.9881172776222229 5.28832674026489258 -0.226320669054985046
-1.85646331310272217 4.54692506790161133 -0.361474841833114624
-0.880413413047790527 5.85140180587768555 1.49107122421264648
-0.565918982028961182 3.45621609687805176 -0.502065539360046387
-0.366761237382888794 3.31919145584106445 -0.542195320129394531
0.151908203959465027 3.74870157241821289 -0.312880873680114746
1.29799342155456543 3.38000750541687012 -0.598712146282196045
-0.477675408124923706 4.85461616516113281 -0.446936666965484619
-1.71214008331298828 4.90493869781494141 -0.746367573738098145
0.401257216930389404 2.04709529876708984 0.932054638862609863
0.408834248781204224 5.14970731735229492 1.6878514289855957
-0.266263812780380249 6.53317832946777344 1.33580493927001953
0.568759560585021973 3.39191627502441406 -0.549376249313354492
-1.40243852138519287 4.26938104629516602 -0.033631742000579834
-0.793655693531036377 0.887325882911682129 -0.259519368410110474
2.36543893814086914 -0.684554100036621094 2.38298964500427246
1.77069425582885742 1.85859286785125732 -0.608392119407653809
-1.78282177448272705 4.32046842575073242 -0.618287205696105957
0.311921179294586182 1.27103090286254883 -0.157867193222045898
1.15977704524993896 7.06768512725830078 2.16852474212646484
0.010547935962677002 4.35996913909912109 2.29170656204223633
1.83824729919433594 2.8612360954284668 -0.521993160247802734
-0.0871917009353637695 5.89529895782470703 1.78103518486022949
1.38174700736999512 3.44379472732543945 -0.25170019268989563
-1.25589561462402344 3.53921079635620117 -0.732738018035888672
0.798699319362640381 3.29378366470336914 -0.717000126838684082
-0.150691226124763489 3.48629331588745117 -0.468412965536117554
-1.02716529369354248 3.38052916526794434 -0.761353433132171631
0.680284202098846436 5.76879596710205078 1.67463779449462891
-0.337454915046691895 4.85691356658935547 -0.470000773668289185
-1.43336200714111328 3.65415620803833008 -0.768404126167297363
0.825035274028778076 3.73781609535217285 -0.399635434150695801
3.00541591644287109 -0.792650699615478516 1.14064812660217285
-1.6739809513092041 5.81229686737060547 1.2025303840637207
-0.369034856557846069 3.1182103157043457 -0.740934669971466064
-2.41593480110168457 4.74279880523681641 -0.213564813137054443
-1.23483312129974365 4.79832935333251953 -0.428399354219436646
1.74731075763702393 3.24201011657714844 -0.333782374858856201
-0.76409834623336792 3.34944725036621094 -0.607973217964172363
0.870589315891265869 3.46325325965881348 -0.480381995439529419
0.560866713523864746 4.16303825378417969 -0.293404817581176758
1.12174773216247559 5.69320344924926758 2.1047818660736084
-0.305206209421157837 7.06422710418701172 2.05269742012023926
-0.243061095476150513 5.03919553756713867 -0.182394981384277344
2.62442207336425781 0.626768112182617188 0.172390341758728027
-0.906948745250701904 5.27096652984619141 0.0594536662101745605
-0.617799699306488037 0.803713083267211914 -0.521790087223052979
0.487747132778167725 3.80943775177001953 0.965192556381225586
1.37124264240264893 3.53734064102172852 -0.722772836685180664
0.959269225597381592 3.53451776504516602 -0.372515678405761719
1.17248368263244629 2.78779840469360352 -0.322038531303405762
-1.29632568359375 4.44582462310791016 -0.723747730255126953
0.105946242809295654 3.20691466331481934 -0.548916935920715332
1.0506291389465332 3.4888453483581543 -0.549299657344818115
1.01989495754241943 3.2939152717590332 -0.389214634895324707
3.64119720458984375 -0.492294073104858398 1.12498259544372559
-0.521070420742034912 5.14294958114624023 -0.471658468246459961
-2.01708054542541504 4.83888864517211914 -0.602615714073181152
-1.82464337348937988 4.18896102905273438 -0.153951048851013184
-0.793866097927093506 6.43752050399780273 1.1546177864074707
-0.383925408124923706 0.744971871376037598 -0.209169268608093262
-0.0389089211821556091 3.43152761459350586 -0.444622457027435303
-1.46677124500274658 4.40851116180419922 -0.569764614105224609
-1.70668601989746094 3.09706616401672363 -0.379724860191345215
0.593853116035461426 4.73302316665649414 -0.534726738929748535
-1.15183758735656738 3.49619436264038086 -0.0814108848571777344
1.58761870861053467 2.14774703979492188 -0.529926896095275879
-2.17479348182678223 3.12718725204467773 2.25972366333007812
3.22811460494995117 2.17230367660522461 2.49406194686889648
-2.01250004768371582 5.16412544250488281 1.99156451225280762
-1.23655283451080322 5.99074077606201172 1.10288763046264648
0.730308055877685547 3.39117312431335449 -0.525485754013061523
1.50571930408477783 2.74875950813293457 -0.373495876789093018
-1.73682725429534912 4.77770757675170898 -0.596170544624328613
-0.940787374973297119 3.36346340179443359 -0.645962834358215332
-1.93993687629699707 4.40575647354125977 -0.754922628402709961
0.76791846752166748 3.36063122749328613 -0.75363922119140625
-0.92171865701675415 4.74049139022827148 -0.55438232421875
1.55837118625640869 7.20199918746948242 2.02042102813720703
2.38406777381896973 0.630124092102050781 2.41098523139953613
-0.596635222434997559 3.31161355972290039 -0.572142899036407471
0.188459411263465881 4.87864971160888672 -0.139926671981811523
-0.797635853290557861 3.13830113410949707 -0.737127304077148438
-2.55320501327514648 4.76664924621582031 2.5408625602722168
0.772169232368469238 7.34449100494384766 2.20598959922790527
-1.24193227291107178 4.26126718521118164 -0.245167374610900879
0.394423544406890869 3.1917421817779541 -0.72761225700378418
1.4509575366973877 3.39735627174377441 -0.565345346927642822
0.285292625427246094 3.37448596954345703 -0.493894517421722412
2.84924077987670898 0.955877780914306641 0.691914498805999756
0.746722221374511719 4.37134027481079102 -0.502439558506011963
-0.131656467914581299 4.9619903564453125 1.42879796028137207
0.336725950241088867 0.825236320495605469 -0.0666445493698120117
-2.79096817970275879 4.49288797378540039 -0.348038196563720703
1.59493851661682129 1.92184805870056152 -0.331063985824584961
-2.29007363319396973 3.89893269538879395 -0.0489665865898132324
-1.04311060905456543 3.42927694320678711 -0.746258854866027832
1.69849836826324463 3.44678759574890137 -0.547164678573608398
0.773149073123931885 4.71054172515869141 1.67094659805297852
0.315397828817367554 4.89857912063598633 1.23949694633483887
1.06005990505218506 6.68932723999023438 2.11818814277648926
1.47271847724914551 6.8585357666015625 2.14459490776062012
-1.26274192333221436 4.39022302627563477 -0.649030923843383789
-0.0906764417886734009 3.32558488845825195 -0.48055565357208252
-0.257072955369949341 3.1673128604888916 -0.5881614089012146
0.437837481498718262 3.34617948532104492 -0.454629629850387573
0.743086755275726318 6.95453071594238281 2.13610601425170898
0.692737400531768799 4.60146427154541016 -0.533346295356750488
-1.12446033954620361 3.27836036682128906 -0.747968316078186035
-0.525819242000579834 0.743394017219543457 -0.322846055030822754
-2.2134089469909668 4.80342721939086914 -0.335093557834625244
0.790965378284454346 6.04931163787841797 2.14410877227783203
1.61263918876647949 0.35056614875793457 0.553895533084869385
1.51493525505065918 3.11290478706359863 -0.331048637628555298
-0.692282557487487793 6.37648487091064453 1.60934925079345703
-0.0198118407279253006 3.22656011581420898 -0.737595081329345703
-1.38096833229064941 4.17708492279052734 -0.736478209495544434
2.50002574920654297 0.321742057800292969 0.701802313327789307
-0.983630776405334473 3.06756973266601562 -0.730677008628845215
1.09352695941925049 3.32511186599731445 -0.738003849983215332
-0.293549776077270508 3.73322296142578125 -0.301933884620666504
0.0220401789993047714 7.09893035888671875 2.24636483192443848
0.1114920973777771 2.19827556610107422 -0.531868457794189453
-0.535115242004394531 5.19272708892822266 -0.140918552875518799
-0.0733383595943450928 3.40284323692321777 -0.757526755332946777
-0.438577651977539062 2.97754478454589844 -0.749588370323181152
-1.3118366003036499 6.2273411750793457 1.7369532585144043
0.855710744857788086 4.14340019226074219 -0.621070742607116699
-1.52870273590087891 2.92949056625366211 -0.529439806938171387
-0.483001619577407837 3.46863842010498047 -0.486837774515151978
1.13524270057678223 3.06284046173095703 -0.28890460729598999
1.3509899377822876 3.3820490837097168 -0.213174521923065186
-0.422672033309936523 3.38610696792602539 -0.552900552749633789
-0.726812541484832764 5.24454164505004883 -0.11384814977645874
-0.435868412256240845 6.24629497528076172 1.87519288063049316
-2.10783529281616211 4.51896858215332031 -0.148440450429916382
0.947902679443359375 3.42795419692993164 -0.278346478939056396
-0.836701393127441406 5.12045669555664062 -0.332073122262954712
0.159042701125144958 3.50594902038574219 -0.470703989267349243
-0.0264949649572372437 7.39130830764770508 2.07387971878051758
1.68883216381072998 2.96068859100341797 -0.255824685096740723
0.343349993228912354 5.986602783203125 1.81192231178283691
0.995897114276885986 3.36159205436706543 -0.524992644786834717
0.743114888668060303 3.45131254196166992 -0.5477486252784729
0.808075904846191406 3.47267556190490723 -0.49560961127281189
-0.951668441295623779 4.69643020629882812 0.00470709800720214844
-1.87192225456237793 5.44537639617919922 1.06433367729187012
1.87565863132476807 2.96116495132446289 -0.474061131477355957
0.937461316585540771 5.26068401336669922 1.60969066619873047
0.44460335373878479 3.30657339096069336 -0.546101987361907959
1.6369699239730835 2.20190906524658203 -0.458972543478012085
-1.88174736499786377 3.98922467231750488 0.0541268587112426758
-0.207060813903808594 2.44306039810180664 2.11619710922241211
0.241534963250160217 3.32521915435791016 -0.494085341691970825
-0.58095020055770874 5.14578390121459961 -0.271031677722930908
1.11784756183624268 3.44297218322753906 -0.722913563251495361
-1.38369762897491455 4.04022550582885742 -0.724456787109375
-2.41821885108947754 4.68435859680175781 -0.571803092956542969
1.05704212188720703 3.07268953323364258 -0.280597865581512451
-0.138652265071868896 4.59531354904174805 -0.166463583707809448
2.55734896659851074 -0.549542665481567383 0.84805530309677124
0.48958936333656311 4.50626850128173828 -0.469128191471099854
0.444603025913238525 4.01891517639160156 -0.326226115226745605
-0.886470675468444824 3.26213359832763672 -0.585511207580566406
-0.609885632991790771 4.28996944427490234 1.35955810546875
0.0366646498441696167 4.91576147079467773 -0.438855290412902832
1.79623115062713623 2.30940842628479004 -0.409435093402862549
2.02661895751953125 0.277984619140625 0.372566819190979004
-0.662545382976531982 3.0574338436126709 -0.739448308944702148
-1.39150857925415039 4.64864015579223633 -0.615922927856445312
-1.03782272338867188 5.00578975677490234 -0.359202563762664795
1.04757404327392578 2.69058752059936523 -0.469033658504486084
-1.61436617374420166 4.41672945022583008 -0.739704728126525879
-1.57992219924926758 5.44574451446533203 1.29946494102478027
-0.769353210926055908 3.41543316841125488 -0.757908821105957031
-0.0583347678184509277 2.4632415771484375 -0.0952454805374145508
0.971580266952514648 3.28771758079528809 -0.487507939338684082
-1.70519614219665527 4.50072193145751953 -0.525285422801971436
-1.41399157047271729 3.58710241317749023 -0.762503981590270996
-1.41438615322113037 4.11629152297973633 0.0276867151260375977
-0.650584697723388672 5.2992100715637207 -0.300223261117935181
0.480799078941345215 4.81679487228393555 -0.579863667488098145
-1.40834879875183105 4.23959064483642578 -0.733199656009674072
-0.507348001003265381 5.60854530334472656 0.305748820304870605
-1.63530182838439941 3.00269317626953125 -0.746230244636535645
3.32090282440185547 -0.0383715629577636719 1.2134244441986084
1.16007006168365479 4.24674129486083984 1.32670736312866211
-0.246446818113327026 4.95480680465698242 -0.359012186527252197
-0.761255800724029541 3.32463574409484863 -0.650814235210418701
1.89716887474060059 0.874412059783935547 -0.156224727630615234
-0.24551023542881012 3.39413690567016602 -0.475464165210723877
0.143321245908737183 3.28556299209594727 -0.479205012321472168
1.32916438579559326 -0.572893857955932617 2.2468266487121582
-1.53528141975402832 4.36404705047607422 -0.593931198120117188
1.24678933620452881 2.96589756011962891 -0.171542525291442871
-1.16055238246917725 4.67338466644287109 -0.0136911273002624512
0.457566201686859131 3.50125026702880859 -0.465996503829956055
-0.071604214608669281 3.31633520126342773 -0.526174426078796387
2.23436832427978516 -0.605200529098510742 0.69744408130645752
0.839604854583740234 3.00855922698974609 -0.900771141052246094
-1.5747826099395752 4.41512489318847656 -0.735116004943847656
-0.507963836193084717 3.2276759147644043 -0.588536381721496582
0.0163827408105134964 4.71227455139160156 -0.0603320598602294922
0.267651557922363281 4.1521754264831543 1.22591876983642578
-1.55691719055175781 4.19503498077392578 0.0677606463432312012
0.836911141872406006 3.45797824859619141 -0.532589912414550781
-0.0449294410645961761 3.18614101409912109 -0.585339069366455078
-0.661087870597839355 0.785509705543518066 -0.22372029721736908
0.623365342617034912 4.66901206970214844 -0.402311980724334717
0.0715999007225036621 1.59883594512939453 -0.0759148597717285156
0.234332025051116943 3.32196497917175293 -0.584560036659240723
-1.62574052810668945 3.93521356582641602 0.0184780359268188477
0.696924030780792236 4.70814990997314453 -0.565367519855499268
0.850522816181182861 4.11256217956542969 -0.378210455179214478
-0.349494814872741699 5.45700168609619141 1.60135889053344727
1.12654566764831543 2.34475064277648926 -0.521889567375183105
-0.387725830078125 0.679967164993286133 -0.238508611917495728
1.24696040153503418 3.28098654747009277 -0.616898536682128906
-1.48130011558532715 6.21069908142089844 1.19764828681945801
1.14120495319366455 6.10755109786987305 2.1417088508605957
0.653574526309967041 3.50350379943847656 -0.462138831615447998
-0.696263372898101807 5.49128866195678711 1.23873662948608398
-0.561048686504364014 5.97560739517211914 1.55305004119873047
-0.324508398771286011 7.4395294189453125 2.03349924087524414
-1.20354902744293213 4.07355499267578125 -0.0792093276977539062
0.47554469108581543 7.03240680694580078 2.21353554725646973
-0.779909133911132812 4.89518308639526367 -0.0483960509300231934
1.99206399917602539 0.824807643890380859 1.25482487678527832
