ply
format ascii 1.0
element vertex 256
comment vertices
property float x
property float y
property float z
end_header
-1.84487509727478027 5.22612857818603516 0.474428832530975342
1.5312570333480835 2.17344212532043457 -0.613509774208068848
-1.94926798343658447 3.11287260055541992 -0.583670973777770996
1.17273736000061035 -0.681941032409667969 1.39556586742401123
-2.36823248863220215 3.60583686828613281 2.27939486503601074
-0.259673833847045898 3.72576904296875 -0.603296637535095215
-3.08087301254272461 4.80115890502929688 -0.340452313423156738
-0.460394948720932007 2.42082619667053223 -0.44024658203125
1.61206710338592529 1.58371496200561523 -0.265177428722381592
-1.82184886932373047 5.87199878692626953 -0.510636568069458008
0.283189386129379272 2.696319580078125 -0.428490549325942993
-0.70227503776550293 0.360019207000732422 1.67213344573974609
-1.21053409576416016 3.75400352478027344 -0.420392453670501709
-2.92162513732910156 1.0091710090637207 2.45042085647583008
-2.43424272537231445 6.78549432754516602 1.24926280975341797
-1.11226737499237061 4.17273950576782227 -0.787552595138549805
-1.32063019275665283 2.71891212463378906 -0.614159464836120605
-0.18849867582321167 3.65981101989746094 -0.308706402778625488
-2.3003547191619873 5.45325517654418945 -0.479572266340255737
0.583118200302124023 2.48194980621337891 -0.444406121969223022
0.859225869178771973 2.10779213905334473 -0.391505420207977295
-0.673676609992980957 2.75148105621337891 -0.370622396469116211
-2.21077299118041992 0.921522140502929688 2.51701235771179199
1.31157922744750977 2.37929844856262207 -0.560942173004150391
-1.02150952816009521 4.62444448471069336 0.0899730920791625977
-0.029645504429936409 2.74747824668884277 -0.370096206665039062
3.12536287307739258 -1.81079769134521484 0.584563314914703369
-1.54973685741424561 5.5243372917175293 -0.22620999813079834
-1.57013392448425293 2.51592445373535156 2.69592022895812988
0.43267136812210083 -0.193943977355957031 0.842155396938323975
-2.82999348640441895 5.5090789794921875 0.18510138988494873
0.126152083277702332 2.50085711479187012 -0.507100820541381836
0.361028790473937988 3.25647234916687012 -0.230990409851074219
0.782427489757537842 2.59589099884033203 -0.66678917407989502
-2.36056208610534668 5.72259426116943359 0.342857658863067627
-0.652605831623077393 2.5927424430847168 -0.674286603927612305
-1.35361683368682861 3.0011441707611084 -0.602527976036071777
-1.09832632541656494 5.3698735237121582 -0.511628270149230957
0.042295452207326889 2.61578679084777832 -0.349759966135025024
0.917127788066864014 2.52774286270141602 -0.472093939781188965
-0.418627142906188965 4.07346343994140625 -0.500252246856689453
-1.63916552066802979 3.21374750137329102 -0.609188973903656006
-0.563050568103790283 4.66260433197021484 0.283895492553710938
-2.07725763320922852 3.28463363647460938 0.869862377643585205
1.37999999523162842 2.2693173885345459 -0.558638572692871094
-2.62618899345397949 5.31677389144897461 -0.436616599559783936
1.26669561862945557 2.20357632637023926 -0.441170483827590942
-0.891221225261688232 2.55852103233337402 -0.472540438175201416
-1.8549036979675293 5.68778562545776367 -0.542949020862579346
1.33030188083648682 2.45150470733642578 -0.646930515766143799
0.680281221866607666 2.67660140991210938 -0.436539649963378906
-2.2945554256439209 5.12716579437255859 -0.227402240037918091
-2.02306628227233887 6.43171787261962891 1.21791744232177734
-1.64294660091400146 3.03896045684814453 -0.64487910270690918
1.57851219177246094 2.10550045967102051 -0.386305689811706543
0.127724438905715942 3.17608761787414551 -0.65758281946182251
0.285730600357055664 0.205247879028320312 -0.596350908279418945
-2.26260709762573242 3.19090414047241211 -0.0989414453506469727
0.0304680392146110535 2.44795680046081543 -0.434219330549240112
0.533095777034759521 2.53785991668701172 -0.384815096855163574
-2.19859123229980469 5.51762866973876953 -0.416650116443634033
-0.275502771139144897 2.63618373870849609 -0.417889595031738281
-2.00171351432800293 5.39481878280639648 -0.144603908061981201
1.53853297233581543 1.08252859115600586 1.38767719268798828
0.0488625243306159973 3.33941030502319336 -0.312472641468048096
1.08430194854736328 2.50971627235412598 -0.550774455070495605
-1.2053225040435791 5.10131502151489258 -0.224801242351531982
-0.186839908361434937 0.939074516296386719 -0.497141599655151367
-0.717764019966125488 3.43540763854980469 -0.579854071140289307
1.22601592540740967 2.12521266937255859 -0.337340414524078369
-0.412197321653366089 2.58305454254150391 -0.401866942644119263
-1.5795748233795166 4.58946609497070312 0.591470718383789062
0.00149468565359711647 2.79950046539306641 -0.519529104232788086
-1.460152268409729 5.08948326110839844 -0.0719012022018432617
-2.66982316970825195 5.68973970413208008 0.183368206024169922
-0.097377970814704895 3.31740188598632812 -0.534593880176544189
-1.77519440650939941 3.14840602874755859 -0.633067667484283447
-3.52443170547485352 3.15960550308227539 -0.306586205959320068
-0.68432164192199707 4.15289688110351562 -0.495791733264923096
-0.193659707903862 2.50686740875244141 -0.470492839813232422
-3.43431806564331055 4.06428861618041992 1.84000527858734131
0.424828916788101196 2.74279141426086426 -0.563791155815124512
-2.06180095672607422 3.12384033203125 -0.601839661598205566
-1.11471903324127197 2.68989801406860352 -0.708805263042449951
0.506066024303436279 2.48298835754394531 -0.436138272285461426
0.933742940425872803 1.02932453155517578 0.801961123943328857
-2.80240964889526367 5.54850006103515625 0.304723978042602539
-1.32799422740936279 5.88965129852294922 -0.243177905678749084
-4.47430801391601562 2.44391393661499023 1.45122933387756348
1.33363771438598633 -1.00088286399841309 0.68065410852432251
-2.64181804656982422 5.20989990234375 -0.0018272101879119873
-1.77534389495849609 2.93054413795471191 -0.601034402847290039
-3.16089129447937012 5.11640596389770508 0.0229609310626983643
-2.2426910400390625 2.47085857391357422 0.976876199245452881
-1.16099154949188232 2.62187480926513672 -0.503696799278259277
-1.17950141429901123 5.74339771270751953 -0.262731194496154785
1.39674139022827148 2.38336324691772461 -0.581567764282226562
0.627797365188598633 1.90022218227386475 -0.73977893590927124
0.125291168689727783 1.39226770401000977 -0.281675577163696289
-0.914119184017181396 2.6093742847442627 -0.619931817054748535
-0.393294751644134521 -0.893729209899902344 1.13367843627929688
-1.32889318466186523 3.18058538436889648 -0.613529801368713379
-0.733540892601013184 4.52775382995605469 0.0921230316162109375
-1.55781936645507812 3.02056765556335449 -0.575128376483917236
1.17206382751464844 2.47748947143554688 -0.662901997566223145
1.23251461982727051 2.33452606201171875 -0.546279847621917725
0.791757822036743164 2.63705873489379883 -0.507452070713043213
-0.0717661604285240173 2.34250402450561523 -0.458524107933044434
-0.202789142727851868 3.68037843704223633 -0.357780933380126953
-0.50894087553024292 1.13231325149536133 -0.439466238021850586
-0.485151886940002441 2.48130297660827637 -0.467467159032821655
-1.94156062602996826 5.59253501892089844 -0.65788644552230835
-0.449656099081039429 4.25170516967773438 -0.153030931949615479
0.0925095677375793457 3.35960197448730469 -0.366717159748077393
-2.8570091724395752 3.99029541015625 -0.0798978805541992188
-2.32146835327148438 5.73820877075195312 -0.296183556318283081
-2.35900044441223145 5.22669887542724609 -0.291787385940551758
0.167050763964653015 3.07087993621826172 -0.42226719856262207
0.310618072748184204 2.72507691383361816 -0.391461312770843506
1.01685881614685059 1.95449507236480713 -0.492541849613189697
-1.39958369731903076 2.97388315200805664 -0.467756032943725586
0.283449232578277588 2.41212844848632812 -0.468142658472061157
0.973776161670684814 2.23352575302124023 -0.349240481853485107
0.20420624315738678 2.44080209732055664 -0.518028080463409424
-0.293937742710113525 2.54877710342407227 -0.393424898386001587
0.905651330947875977 2.51912021636962891 -0.480932950973510742
0.294780939817428589 2.79997444152832031 -0.272195041179656982
-1.78833436965942383 6.22965335845947266 0.888452708721160889
1.37351584434509277 2.3306434154510498 -0.561451077461242676
-1.77775681018829346 3.20381808280944824 -0.585633277893066406
2.00229501724243164 -0.852151632308959961 1.05228102207183838
-1.48683047294616699 5.06924819946289062 0.351702570915222168
-1.92339587211608887 5.85599756240844727 -0.356487542390823364
1.51603531837463379 2.1450660228729248 -0.467586904764175415
0.383542805910110474 2.54762077331542969 -0.444806069135665894
1.1450577974319458 2.32966518402099609 -0.46935427188873291
-2.91171073913574219 5.24509477615356445 -0.0404635965824127197
-2.08920812606811523 5.16622829437255859 0.0829019546508789062
-1.23359405994415283 5.07097339630126953 0.208110690116882324
0.650136172771453857 2.46747350692749023 -0.521579444408416748
-0.701973140239715576 2.61246776580810547 -0.469862401485443115
1.46554529666900635 2.10506486892700195 -0.476010501384735107
0.595670044422149658 2.59080314636230469 -0.42380407452583313
-0.632068455219268799 2.61532258987426758 -0.409751981496810913
1.07909512519836426 2.03975582122802734 -0.324000954627990723
-2.84821605682373047 4.68115234375 -0.629990339279174805
-0.328410565853118896 3.65487003326416016 -0.472083240747451782
0.972112298011779785 2.42578506469726562 -0.498279958963394165
-1.79538333415985107 5.45362377166748047 0.00144946575164794922
0.752228021621704102 2.29165911674499512 -0.377947896718978882
-2.71196699142456055 5.40587663650512695 0.204541265964508057
1.57616984844207764 2.27844619750976562 -0.525057494640350342
-1.5229339599609375 2.53345489501953125 0.080021977424621582
-2.10817837715148926 5.22002792358398438 -0.639365196228027344
-1.64112353324890137 2.85738515853881836 -0.023469090461730957
-0.824841916561126709 2.55142354965209961 -0.432665169239044189
-0.0264200717210769653 2.70157861709594727 -0.410674363374710083
-2.08394932746887207 5.40963220596313477 -0.641076803207397461
-2.22497200965881348 6.68494033813476562 1.25069069862365723
-1.66706109046936035 5.78176975250244141 -0.604468941688537598
-0.824986159801483154 0.0678868293762207031 1.88399648666381836
1.26773285865783691 2.32274007797241211 -0.233061850070953369
-0.302579045295715332 2.44102811813354492 -0.427038073539733887
-0.300746440887451172 3.81425142288208008 -0.049695134162902832
0.525878548622131348 1.6484370231628418 1.61258816719055176
0.0045080939307808876 2.67684054374694824 -0.402193903923034668
-1.61023783683776855 3.0608365535736084 -0.614557743072509766
3.11414766311645508 -1.53742265701293945 0.826929271221160889
-2.50706219673156738 4.84898853302001953 -0.179401993751525879
-1.19305765628814697 5.3550715446472168 -0.387695223093032837
-0.0795980542898178101 2.52220296859741211 -0.401196151971817017
0.276371389627456665 2.4967193603515625 -0.459362536668777466
1.25945496559143066 2.22099542617797852 -0.63584434986114502
1.40553569793701172 2.12833952903747559 -0.412046313285827637
-1.89939641952514648 5.43749475479125977 1.03495049476623535
0.36358189582824707 2.84427428245544434 -0.391343832015991211
0.734397411346435547 2.5910804271697998 -0.459145128726959229
1.51213574409484863 1.90652871131896973 -0.468488752841949463
-0.424112915992736816 4.05293464660644531 -0.372606575489044189
0.0466841794550418854 2.41635274887084961 -0.48338627815246582
0.312331080436706543 2.24508237838745117 -0.427785038948059082
0.633304953575134277 2.41287374496459961 -0.68084418773651123
-0.790780127048492432 0.638215065002441406 1.51383030414581299
1.3839036226272583 2.23297333717346191 -0.434754252433776855
-0.874059379100799561 2.46882295608520508 1.06429481506347656
-1.41626465320587158 5.1591639518737793 -0.225345075130462646
0.505438268184661865 2.84631729125976562 -0.24782407283782959
-1.76014924049377441 5.1742701530456543 -0.325483500957489014
-2.6369328498840332 4.83769798278808594 0.177564322948455811
1.86255288124084473 -0.298330307006835938 0.828764855861663818
-1.12859094142913818 2.68768477439880371 -0.624845325946807861
-2.13242983818054199 5.44734287261962891 -0.43980097770690918
-0.0137542905285954475 2.92437028884887695 -0.244066148996353149
-2.37915802001953125 3.92336654663085938 -0.0705686807632446289
1.12517678737640381 1.3403632640838623 -0.408276200294494629
-0.0648134052753448486 3.42194795608520508 -0.584200739860534668
-2.2761378288269043 5.21124982833862305 0.0726069211959838867
1.26897382736206055 2.376953125 -0.610577583312988281
0.288763552904129028 3.02055621147155762 -0.508285284042358398
-1.64122414588928223 6.05285882949829102 0.447409689426422119
0.664123713970184326 2.27882957458496094 -0.349151730537414551
-2.52945303916931152 5.66056919097900391 -0.20911705493927002
1.41720890998840332 1.77878904342651367 -0.0909173488616943359
-0.0240456201136112213 2.95124292373657227 -0.477453351020812988
-0.0623506568372249603 3.73712539672851562 -0.273959517478942871
1.05838298797607422 2.42862606048583984 -0.693949341773986816
0.202266454696655273 3.45118284225463867 -0.329172849655151367
-0.929658472537994385 6.39547395706176758 -0.0613743066787719727
-0.953047990798950195 2.74747753143310547 -0.430167794227600098
-3.05646538734436035 4.34540796279907227 -0.117904484272003174
-1.82068228721618652 3.19228005409240723 -0.576906800270080566
1.71846508979797363 0.932853221893310547 1.44579911231994629
0.795705139636993408 1.80368399620056152 -0.548585355281829834
-2.45936417579650879 5.29165506362915039 -0.134370684623718262
-1.16018962860107422 5.32108211517333984 -0.405034661293029785
-0.890965640544891357 4.51498222351074219 -4.02331352233886719e-05
0.93641972541809082 2.68569087982177734 -0.497796297073364258
-0.291914224624633789 2.33673477172851562 -0.497735083103179932
-1.05943238735198975 2.59086751937866211 -0.480573207139968872
-2.12364315986633301 5.5461115837097168 -0.309856534004211426
-2.70988917350769043 5.38150119781494141 -0.156555205583572388
-0.92271655797958374 2.49505901336669922 -0.659457921981811523
-0.475606471300125122 2.58810901641845703 -0.360757797956466675
0.476290315389633179 2.73443961143493652 -0.405184686183929443
-1.15621554851531982 4.58766555786132812 -0.178655385971069336
0.328795671463012695 2.42223310470581055 -0.577291607856750488
-1.60774993896484375 3.01152181625366211 -0.593916594982147217
0.14011344313621521 2.35756063461303711 -0.436008691787719727
1.08121192455291748 2.50971531867980957 -0.516786456108093262
0.659100949764251709 2.56189441680908203 -0.468214452266693115
2.05811262130737305 0.041446685791015625 1.2795264720916748
-1.2104262113571167 4.86464738845825195 -0.611814498901367188
-1.44948208332061768 3.10056042671203613 -0.596400022506713867
-1.85657799243927002 3.05606675148010254 -0.607995510101318359
-0.467086523771286011 2.5849764347076416 -0.452509284019470215
0.0365577936172485352 1.32781124114990234 2.02434349060058594
-0.217833265662193298 3.45067286491394043 -0.357157498598098755
1.05208384990692139 0.475759983062744141 1.44176220893859863
1.38980698585510254 2.22071409225463867 -0.469197690486907959
-0.744003057479858398 4.9180455207824707 0.276014626026153564
-1.66532230377197266 5.78076076507568359 -0.582419693470001221
0.470154672861099243 2.52087306976318359 -0.44079551100730896
-2.38573598861694336 3.44024085998535156 -0.087904810905456543
-2.64149808883666992 5.27969026565551758 -0.07757568359375
0.0894466042518615723 0.408894777297973633 0.203434586524963379
-0.206876620650291443 2.54474782943725586 -0.356515049934387207
-0.5677071213722229 2.45485234260559082 -0.45884406566619873
1.22389662265777588 1.84219694137573242 -0.389135777950286865
1.42737412452697754 2.17810225486755371 -0.531898319721221924
-0.851150631904602051 7.36566925048828125 0.00495928525924682617
1.56251180171966553 2.24593019485473633 -0.675127089023590088
-0.71639639139175415 2.60251712799072266 -0.439147055149078369
0.161071941256523132 2.55984115600585938 -0.365218251943588257
-1.19727039337158203 2.46227073669433594 -0.601481139659881592
0.985911369323730469 0.918338775634765625 0.758446395397186279
0.398198425769805908 -0.349305391311645508 -0.245703577995300293
