ply
format ascii 1.0
element vertex 15
comment vertices
property float x
property float y
property float z
end_header
-0.121106579899787903 2.85413217544555664 -0.396356791257858276
-1.69517481327056885 3.61256504058837891 -0.641172826290130615
-0.0369626618921756744 3.00952410697937012 -0.505434095859527588
-1.7920602560043335 3.45679545402526855 -0.516963183879852295
-0.169808045029640198 2.9813997745513916 -0.405560225248336792
-0.348090469837188721 2.86576199531555176 -0.467237919569015503
-0.333440631628036499 2.96222066879272461 -0.324643433094024658
-0.415935039520263672 2.88957905769348145 -0.429223686456680298
-0.428677558898925781 2.8458106517791748 -0.380674064159393311
-0.289115816354751587 2.82321548461914062 -0.386538535356521606
-1.9661940336227417 3.61987686157226562 -0.645049870014190674
-0.0644183829426765442 2.92158412933349609 -0.355125844478607178
-0.159022971987724304 3.01093459129333496 -0.43261343240737915
-0.446903735399246216 2.87885332107543945 -0.416917532682418823
-0.270065724849700928 2.80220127105712891 -0.464624583721160889
