ply
format ascii 1.0
element vertex 256
comment vertices
property float x
property float y
property float z
end_header
0.556832730770111084 3.29276299476623535 -0.823601067066192627
1.67078375816345215 6.59620428085327148 -0.320976376533508301
-1.08079099655151367 2.40809750556945801 -0.647941350936889648
-2.19180870056152344 3.4172670841217041 -0.164919197559356689
2.81917524337768555 6.37580108642578125 -0.767025649547576904
1.44451379776000977 3.11148262023925781 -0.764894247055053711
2.78041315078735352 5.74537754058837891 -0.276203572750091553
-1.59846973419189453 3.20984172821044922 -0.616307616233825684
-1.35651397705078125 0.830343723297119141 -0.57166290283203125
2.12793993949890137 5.61325454711914062 -0.755867898464202881
-0.0056557096540927887 2.769256591796875 -0.39352107048034668
1.657509446144104 7.79145622253417969 -0.428410142660140991
1.97567462921142578 3.62918591499328613 -0.816267251968383789
3.29332399368286133 2.80929136276245117 2.99904251098632812
-0.787418484687805176 3.01050853729248047 -0.386951029300689697
0.239131823182106018 2.22675657272338867 -0.713245630264282227
2.01347208023071289 7.81632375717163086 0.0564043521881103516
0.708581626415252686 3.53545427322387695 -0.646038174629211426
1.75360071659088135 7.23958873748779297 -0.660339236259460449
-2.25106048583984375 3.2842404842376709 -0.64391714334487915
2.84731054306030273 4.91610145568847656 -0.440295755863189697
-0.960648477077484131 2.92598891258239746 -0.463774770498275757
1.61120986938476562 5.32400274276733398 -0.71037214994430542
-1.24578845500946045 2.94120931625366211 -0.375015676021575928
-1.49019908905029297 2.92959022521972656 -0.694099247455596924
-0.674586176872253418 2.88290047645568848 -0.496044278144836426
0.797362267971038818 2.87048625946044922 -0.609395861625671387
1.34109389781951904 3.84618568420410156 -0.757442235946655273
2.39070725440979004 7.59798336029052734 -0.520520448684692383
0.0941142737865447998 2.67562437057495117 -0.536886870861053467
1.65942668914794922 5.31717157363891602 -0.736368298530578613
2.18618392944335938 4.86993408203125 -0.303429275751113892
-0.119818545877933502 2.86868929862976074 -0.39302411675453186
1.78312361240386963 6.69399499893188477 0.0506738424301147461
-1.69462502002716064 3.55274772644042969 -0.373873651027679443
-1.39631879329681396 3.36086106300354004 -0.579801559448242188
-0.414932340383529663 2.28297948837280273 -0.704974472522735596
1.7525475025177002 7.34898900985717773 -0.390858829021453857
2.83830118179321289 4.25781726837158203 -0.789783179759979248
3.54841446876525879 0.889449596405029297 -0.392999529838562012
2.21785616874694824 4.83726930618286133 -0.567897677421569824
-2.22963356971740723 3.33885598182678223 -0.625567734241485596
1.50714612007141113 7.41134023666381836 -0.672743022441864014
-0.0283155646175146103 2.71444225311279297 -0.499566227197647095
0.865728676319122314 2.39966297149658203 -0.735850632190704346
-0.723499298095703125 1.1018061637878418 -0.863128066062927246
2.30691146850585938 3.74517536163330078 -0.787959873676300049
1.34091866016387939 3.18942785263061523 -0.784208059310913086
2.23289704322814941 6.82554817199707031 -0.720183670520782471
-0.562644362449645996 2.77134013175964355 -0.434897691011428833
-1.69388675689697266 3.62712216377258301 -0.637840151786804199
0.448869884014129639 3.06388568878173828 -0.571144461631774902
-0.704360663890838623 2.84038019180297852 -0.297208786010742188
-1.32085216045379639 2.86078882217407227 -0.460440248250961304
-2.27457880973815918 3.28379106521606445 -0.709149956703186035
-0.95651543140411377 2.76420116424560547 -0.642424523830413818
1.92309904098510742 2.27578306198120117 -0.780413925647735596
2.23844552040100098 7.21274900436401367 -0.556041896343231201
0.41214415431022644 2.91416573524475098 -0.50732344388961792
-2.23613572120666504 2.89882040023803711 -0.467967331409454346
0.654802799224853516 2.2832646369934082 -0.677009463310241699
-0.0356746315956115723 3.02408123016357422 -0.502101421356201172
2.08616232872009277 7.9750518798828125 0.427738487720489502
-0.279625028371810913 2.29417896270751953 -0.698072373867034912
-1.69361293315887451 2.56657242774963379 -0.350940585136413574
-1.0720292329788208 2.91429376602172852 -0.509624361991882324
2.2464747428894043 5.64422178268432617 -0.130503267049789429
1.64549338817596436 5.39479351043701172 -0.732630014419555664
-1.71827149391174316 2.86605215072631836 -0.636654078960418701
-2.13771700859069824 0.824771642684936523 -0.86209261417388916
-0.521361410617828369 2.77538418769836426 -0.451461702585220337
-1.7907721996307373 3.47135257720947266 -0.513630509376525879
0.211125358939170837 3.49510765075683594 -0.394171476364135742
3.07978034019470215 4.69379234313964844 -0.542876005172729492
0.329205989837646484 2.84710478782653809 -0.474072515964508057
1.59992778301239014 3.52131414413452148 -0.750741720199584961
2.02533960342407227 7.22854328155517578 -0.574352860450744629
-1.23676192760467529 2.9601142406463623 -0.492806971073150635
-2.12218570709228516 3.41365170478820801 -0.553578019142150879
-0.168520018458366394 2.9959568977355957 -0.402227550745010376
2.62301468849182129 4.99498891830444336 -0.325458645820617676
-1.80206453800201416 3.22626280784606934 -0.453166276216506958
1.705657958984375 7.89036655426025391 0.239723563194274902
1.71645605564117432 7.30704975128173828 -0.393443912267684937
1.67612874507904053 5.19317245483398438 -0.741366386413574219
-0.346802443265914917 2.88031911849975586 -0.463905245065689087
2.48900485038757324 4.8642125129699707 -0.655019044876098633
0.558808207511901855 2.74996423721313477 -0.542988419532775879
0.0126628568395972252 2.26451897621154785 -0.676351547241210938
-0.68223869800567627 2.53433036804199219 -0.618096232414245605
1.73538470268249512 7.28312540054321289 -0.218011707067489624
1.64111566543579102 4.07929611206054688 -0.76059567928314209
1.97930383682250977 5.10554218292236328 -0.732361495494842529
-0.332152605056762695 2.97677779197692871 -0.321310758590698242
-1.33201420307159424 3.13967275619506836 -0.628546059131622314
1.77330362796783447 7.4246363639831543 0.30233001708984375
-0.414647012948989868 2.90413618087768555 -0.425891011953353882
1.61911880970001221 4.49060153961181641 -0.736162960529327393
0.400190919637680054 2.63733696937561035 -0.55219656229019165
-2.05857706069946289 2.95187664031982422 -0.685926556587219238
2.23329329490661621 6.41543245315551758 -0.735392749309539795
-1.18626260757446289 2.93128538131713867 -0.579906225204467773
2.34759426116943359 4.79270792007446289 -0.251751124858856201
-1.32992303371429443 2.8790287971496582 -0.607418417930603027
2.02115678787231445 5.11807727813720703 -0.759839892387390137
2.63453149795532227 6.72886323928833008 -0.717503726482391357
-0.355655878782272339 2.62576961517333984 -0.528195738792419434
-0.54221189022064209 2.93667888641357422 -0.395802289247512817
0.707055866718292236 2.35950946807861328 -0.818244993686676025
-1.91699278354644775 3.18806767463684082 -0.599628150463104248
1.87850666046142578 6.92387771606445312 0.494296133518218994
-0.198047816753387451 2.73888373374938965 -0.518553972244262695
1.69177913665771484 7.28910398483276367 -0.577945530414581299
-1.94745910167694092 3.20419096946716309 -0.602062582969665527
2.00495219230651855 7.61803770065307617 -0.237874776124954224
-1.0520254373550415 2.61020135879516602 -0.485989272594451904
0.282750844955444336 3.24515867233276367 -0.521120786666870117
1.06812131404876709 2.52359485626220703 -0.741976380348205566
0.0141550116240978241 2.65813493728637695 -0.532481789588928223
2.86005187034606934 4.85500764846801758 -0.591929256916046143
-0.840136885643005371 2.70696449279785156 -0.528276324272155762
-0.858541011810302734 2.82243585586547852 -0.392971336841583252
2.17063570022583008 4.86473417282104492 -0.352493971586227417
2.10365414619445801 3.4439091682434082 -0.757909119129180908
1.24199330806732178 2.75014305114746094 -0.745856165885925293
-1.1068122386932373 2.99787139892578125 -0.629488110542297363
2.38515663146972656 7.2979435920715332 -0.61734771728515625
-1.36016404628753662 2.03226900100708008 -0.809088945388793945
1.62443840503692627 7.86031246185302734 -0.538354158401489258
1.72066223621368408 7.62885379791259766 -0.455947846174240112
-0.76068425178527832 3.06982135772705078 -0.451820075511932373
0.511725008487701416 2.3955376148223877 -0.735626935958862305
2.5189816951751709 2.5218348503112793 -1.41260898113250732
0.385149180889129639 2.86271905899047852 -0.499430298805236816
-1.47319483757019043 3.04315948486328125 -0.465944588184356689
1.23066389560699463 1.47398042678833008 -0.761000156402587891
2.3187558650970459 5.01222896575927734 -0.223133623600006104
-0.904609382152557373 2.97444534301757812 -0.314293265342712402
0.231083199381828308 2.93652844429016113 -0.40876924991607666
-1.98255383968353271 3.47984051704406738 -0.601463794708251953
-1.37977004051208496 2.87460136413574219 -0.622304677963256836
2.53494095802307129 4.81160640716552734 -0.437258332967758179
2.96453499794006348 4.72582483291625977 -0.456848561763763428
1.89256727695465088 7.81969356536865234 0.365466415882110596
2.15817117691040039 4.89446544647216797 -0.692238152027130127
1.65560615062713623 7.82359743118286133 -0.561149358749389648
-1.51639556884765625 3.10546040534973145 -0.611354529857635498
0.648238778114318848 3.15220737457275391 -0.723288536071777344
-0.857561767101287842 2.82791399955749512 -0.498066127300262451
-0.602005064487457275 3.24681305885314941 -0.370124876499176025
-1.70315194129943848 3.28568649291992188 -0.594554305076599121
0.332298755645751953 2.25998449325561523 -0.687911510467529297
-0.242545872926712036 2.73839855194091797 -0.460151791572570801
-2.27004122734069824 3.22724390029907227 -0.516337215900421143
-0.814494848251342773 2.79986476898193359 -0.445247650146484375
1.31497383117675781 3.66739344596862793 -0.74973529577255249
2.05545234680175781 7.22040557861328125 -0.378844141960144043
1.75440347194671631 7.342376708984375 0.0358717143535614014
0.636040806770324707 2.96374917030334473 -0.52465522289276123
-2.19426369667053223 1.77112627029418945 -0.89599299430847168
-1.66226089000701904 3.19552874565124512 -0.663145542144775391
-2.30169081687927246 3.46210002899169922 -0.649978458881378174
-0.897492885589599609 2.71581268310546875 -0.659105956554412842
-0.204398497939109802 2.24384331703186035 -0.677904844284057617
0.109593749046325684 2.91237592697143555 -0.449993342161178589
2.52759027481079102 5.46587848663330078 -0.251481503248214722
1.95296823978424072 4.97342300415039062 -0.76635432243347168
0.473908454179763794 3.26508307456970215 -0.464822828769683838
-1.39586246013641357 3.52954339981079102 -0.613279581069946289
1.81600379943847656 8.06066989898681641 0.48992842435836792
1.9544987678527832 3.5513148307800293 -0.766533374786376953
1.65576839447021484 7.88434743881225586 0.256336748600006104
-0.427389532327651978 2.86036777496337891 -0.377341389656066895
-0.47065088152885437 1.65377461910247803 -0.736541628837585449
1.64038920402526855 3.97449636459350586 -0.769341588020324707
-0.367864698171615601 2.75691509246826172 -0.513182997703552246
-0.561935305595397949 2.77533721923828125 -0.474901437759399414
-0.287827789783477783 2.83777260780334473 -0.38320586085319519
0.134580150246620178 3.03335237503051758 -0.383581340312957764
-1.50768649578094482 3.12979626655578613 -0.434047818183898926
0.676875948905944824 2.32306671142578125 -0.703082501888275146
1.73454844951629639 7.27230024337768555 -0.620734274387359619
-2.07574605941772461 3.44030451774597168 -0.507209420204162598
-1.0487816333770752 2.83354353904724121 -0.481914103031158447
2.11178708076477051 7.29806184768676758 -0.641982972621917725
-1.57910895347595215 3.23478841781616211 -0.231702744960784912
-1.96490597724914551 3.63443398475646973 -0.641717195510864258
0.110112018883228302 2.75733089447021484 -0.432325989007949829
-0.0606842935085296631 2.78365063667297363 -0.504818558692932129
-1.09985184669494629 2.73158407211303711 -0.284924924373626709
2.62902426719665527 4.8542485237121582 -0.324269264936447144
-0.747832894325256348 2.88064360618591309 -0.406950831413269043
-0.0631303489208221436 2.9361412525177002 -0.351793169975280762
0.00716094020754098892 2.29366588592529297 -0.711732566356658936
1.62503552436828613 3.66399860382080078 -0.883471131324768066
0.0466587096452713013 2.5249481201171875 -0.598559021949768066
0.518270909786224365 2.82323431968688965 -0.569920063018798828
1.34457159042358398 3.85874414443969727 -0.751978158950805664
2.19699931144714355 5.57216739654541016 -0.298183858394622803
1.89881765842437744 5.43327569961547852 -0.754794478416442871
0.209404125809669495 2.91410303115844727 -0.499445855617523193
-2.24903297424316406 3.53329825401306152 -0.65831291675567627
0.0694971755146980286 2.68748712539672852 -0.473483115434646606
2.20542430877685547 5.80631494522094727 -0.143411159515380859
-1.31539952754974365 2.8492896556854248 -0.612333893775939941
2.30257987976074219 5.18398189544677734 -0.769855380058288574
-1.6447683572769165 3.18282651901245117 -0.629739165306091309
-0.1577349454164505 3.02549171447753906 -0.429280757904052734
-1.91403305530548096 3.36829853057861328 -0.269635677337646484
-0.600733339786529541 2.64926433563232422 -0.544250547885894775
2.53989839553833008 3.8895564079284668 -0.820177733898162842
0.455586135387420654 2.89847469329833984 -0.342438995838165283
0.262070119380950928 2.75062084197998047 -0.449683845043182373
-1.61353278160095215 3.01033878326416016 -0.717175722122192383
-1.67679893970489502 3.6493527889251709 -0.348437190055847168
-1.28391027450561523 2.90182876586914062 -0.614559531211853027
2.16316676139831543 4.86237144470214844 -0.532866835594177246
0.20890362560749054 2.80477595329284668 -0.540279090404510498
1.72251033782958984 6.34579706192016602 -0.72693026065826416
1.8942103385925293 4.19383430480957031 -0.744733929634094238
2.14431357383728027 7.49630594253540039 -0.517539262771606445
-0.901992380619049072 2.83618354797363281 -0.519321680068969727
-2.0993499755859375 3.32179355621337891 -0.627693533897399902
1.69244349002838135 7.70482873916625977 -0.461324453353881836
1.70931863784790039 7.16329526901245117 0.117447376251220703
-0.523770689964294434 2.70914983749389648 -0.519933938980102539
0.335382342338562012 2.58905649185180664 -0.495466083288192749
-2.21039628982543945 3.36009860038757324 -0.601350307464599609
-1.53759241104125977 3.16589450836181641 -0.461757838726043701
4.51599359512329102 -0.0890212059020996094 0.849495053291320801
-1.56978011131286621 2.76277065277099609 -0.722432374954223633
2.2283937931060791 4.87537527084350586 -0.694599270820617676
0.61038970947265625 2.84318280220031738 -0.570131897926330566
-1.79436850547790527 3.32260537147521973 -0.337822705507278442
1.79520022869110107 7.74818944931030273 -0.0765641331672668457
1.69231986999511719 7.69933652877807617 -0.57967674732208252
1.87343120574951172 5.33056879043579102 -0.722359359264373779
-2.08120894432067871 3.37099242210388184 -0.684575259685516357
-0.965218901634216309 2.85899257659912109 -0.562648296356201172
-2.26663494110107422 2.96023273468017578 -0.612343490123748779
1.78653907775878906 7.24221611022949219 -0.369433343410491943
1.38490200042724609 3.39003300666809082 -0.776192903518676758
-0.549497783184051514 2.75067567825317383 -0.53540724515914917
-1.15213680267333984 2.73036575317382812 -0.641503036022186279
-0.821939647197723389 1.93229329586029053 -0.668387055397033691
2.61823225021362305 4.86144590377807617 -0.632860541343688965
1.99829566478729248 7.22560310363769531 -0.656615495681762695
-0.445615708827972412 2.89341044425964355 -0.413584858179092407
2.00214314460754395 5.32761096954345703 -0.745667576789855957
1.80795931816101074 7.67358303070068359 0.218465149402618408
-2.03930830955505371 3.37315702438354492 -0.442805498838424683
-0.225611075758934021 3.40893101692199707 -0.410828351974487305
0.0363919921219348907 2.24519443511962891 -0.689405381679534912
2.7177269458770752 4.92875432968139648 -0.39786076545715332
-0.268777698278427124 2.81675839424133301 -0.461291909217834473
1.63128101825714111 7.68660545349121094 -0.59559553861618042
