ply
format ascii 1.0
element vertex 38
comment vertices
property float x
property float y
property float z
end_header
1.34160423278808594 3.23912930488586426 -0.886395394802093506
-0.509464144706726074 2.49501633644104004 -0.579945504665374756
1.40621519088745117 2.90211701393127441 -0.739941954612731934
-0.640075385570526123 2.5848701000213623 -0.587173104286193848
-0.622542321681976318 2.41347575187683105 -0.545109272003173828
-0.386638879776000977 2.30176138877868652 -0.5743255615234375
-0.618818283081054688 2.58836150169372559 -0.373016715049743652
-0.825315415859222412 2.56138014793395996 -0.599138498306274414
1.41482830047607422 2.97751259803771973 -0.793104827404022217
1.44269073009490967 2.97801399230957031 -0.733791351318359375
-0.380058258771896362 2.53363537788391113 -0.591469466686248779
1.20522558689117432 3.04593539237976074 -0.843340218067169189
-0.291474282741546631 2.49605774879455566 -0.568958580493927002
-0.325261205434799194 2.60427284240722656 -0.551438510417938232
-0.549624919891357422 2.54613280296325684 -0.661348640918731689
1.25797915458679199 2.9417273998260498 -0.643240094184875488
1.19482541084289551 2.89274954795837402 -0.736074507236480713
-0.680816829204559326 2.38073563575744629 -0.560017526149749756
-0.343696773052215576 2.43941569328308105 -0.599351227283477783
-0.683672606945037842 2.55725860595703125 -0.581263303756713867
-0.562171399593353271 2.47322750091552734 -0.558220088481903076
1.16985666751861572 2.83708024024963379 -0.813517510890960693
-0.629916369915008545 2.54934453964233398 -0.246750116348266602
-0.600098252296447754 2.39937949180603027 -0.572591841220855713
-0.769443094730377197 2.57946968078613281 -0.560907661914825439
1.10413765907287598 3.11561465263366699 -0.828889071941375732
-0.543989658355712891 2.58355212211608887 -0.325316041707992554
-0.289182454347610474 2.51844215393066406 -0.58202749490737915
1.1844407320022583 2.9079582691192627 -0.748788356781005859
1.19370889663696289 2.96696877479553223 -0.735028326511383057
1.36990821361541748 2.9961545467376709 -0.634315431118011475
1.41501986980438232 3.09677815437316895 -0.829589188098907471
1.39838910102844238 2.88900327682495117 -0.711542785167694092
-0.476232200860977173 2.57742619514465332 -0.592831909656524658
-0.558362066745758057 2.27816343307495117 -0.56736522912979126
-0.42611202597618103 2.34187674522399902 -0.586960673332214355
1.41352605819702148 2.88412117958068848 -0.774711906909942627
-0.317779779434204102 2.5166923999786377 -0.334250897169113159
