ply
format ascii 1.0
element vertex 202
comment vertices
property float x
property float y
property float z
end_header
0.555544674396514893 3.27820587158203125 -0.826933741569519043
1.66949570178985596 6.58164739608764648 -0.324309051036834717
-1.08207905292510986 2.39354038238525391 -0.651274025440216064
-2.19309663772583008 3.4027099609375 -0.168251872062683105
2.81788730621337891 6.36124420166015625 -0.77035832405090332
1.44322574138641357 3.09692549705505371 -0.768226921558380127
2.77912521362304688 5.73082065582275391 -0.279536247253417969
-1.35780203342437744 0.815786659717559814 -0.574995577335357666
2.12665200233459473 5.59869766235351562 -0.759200572967529297
1.65622138977050781 7.77689933776855469 -0.431742817163467407
1.97438657283782959 3.61462879180908203 -0.819599926471710205
3.29203605651855469 2.79473423957824707 2.99570989608764648
0.237843796610832214 2.21219944953918457 -0.716578304767608643
2.01218414306640625 7.80176687240600586 0.053071681410074234
0.707293570041656494 3.52089715003967285 -0.649370849132537842
1.75231266021728516 7.22503185272216797 -0.663671910762786865
-2.25234842300415039 3.2696833610534668 -0.647249817848205566
2.84602260589599609 4.90154457092285156 -0.443628430366516113
-0.961936533451080322 2.91143178939819336 -0.467107445001602173
1.60992181301116943 5.30944585800170898 -0.713704824447631836
-1.24707651138305664 2.92665219306945801 -0.378348350524902344
-1.49148714542388916 2.91503310203552246 -0.69743192195892334
0.796074211597442627 2.85592913627624512 -0.612728536128997803
1.33980584144592285 3.83162856101989746 -0.760774910449981689
2.3894193172454834 7.58342647552490234 -0.523853123188018799
1.65813863277435303 5.30261468887329102 -0.739700973033905029
2.18489599227905273 4.855377197265625 -0.306761950254440308
-0.121106579899787903 2.85413217544555664 -0.396356791257858276
1.78183555603027344 6.67943811416625977 0.0473411716520786285
-0.416220366954803467 2.26842236518859863 -0.708307147026062012
1.751259446144104 7.33443212509155273 -0.394191503524780273
2.83701324462890625 4.24326038360595703 -0.793115854263305664
3.54712653160095215 0.874892532825469971 -0.396332204341888428
2.2165682315826416 4.82271242141723633 -0.57123035192489624
-2.23092150688171387 3.32429885864257812 -0.628900408744812012
1.50585806369781494 7.39678335189819336 -0.67607569694519043
0.864440619945526123 2.38510584831237793 -0.739183306694030762
-0.724787354469299316 1.0872490406036377 -0.866460740566253662
2.30562353134155273 3.73061823844909668 -0.791292548179626465
1.3396306037902832 3.17487072944641113 -0.787540733814239502
2.23160910606384277 6.81099128723144531 -0.723516345024108887
-1.69517481327056885 3.61256504058837891 -0.641172826290130615
0.447581857442855835 3.04932856559753418 -0.574477136135101318
-1.32214021682739258 2.84623169898986816 -0.46377292275428772
-2.27586674690246582 3.26923394203186035 -0.712482631206512451
-0.957803487777709961 2.74964404106140137 -0.645757198333740234
1.92181098461151123 2.26122593879699707 -0.783746600151062012
2.23715758323669434 7.19819211959838867 -0.559374570846557617
0.410856127738952637 2.89960861206054688 -0.510656118392944336
-2.23742365837097168 2.88426327705383301 -0.471300005912780762
0.653514742851257324 2.2687075138092041 -0.680342137813568115
-0.0369626618921756744 3.00952410697937012 -0.505434095859527588
2.08487439155578613 7.9604949951171875 0.424405813217163086
-0.280913054943084717 2.27962183952331543 -0.701405048370361328
-1.6949009895324707 2.55201530456542969 -0.35427325963973999
-1.07331728935241699 2.89973664283752441 -0.51295703649520874
2.24518680572509766 5.62966489791870117 -0.133835941553115845
1.64420533180236816 5.38023662567138672 -0.73596268892288208
-1.71955955028533936 2.85149502754211426 -0.639986753463745117
-2.13900494575500488 0.810214579105377197 -0.865425288677215576
-1.7920602560043335 3.45679545402526855 -0.516963183879852295
0.209837332367897034 3.48055052757263184 -0.397504150867462158
3.07849240303039551 4.67923545837402344 -0.546208679676055908
0.327917963266372681 2.83254766464233398 -0.477405190467834473
1.59863972663879395 3.50675702095031738 -0.754074394702911377
2.02405166625976562 7.21398639678955078 -0.577685534954071045
-1.23804998397827148 2.9455571174621582 -0.496139645576477051
-0.169808045029640198 2.9813997745513916 -0.405560225248336792
2.62172675132751465 4.98043203353881836 -0.328791320323944092
1.70436990261077881 7.87580966949462891 0.236390888690948486
1.71516799926757812 7.29249286651611328 -0.396776586771011353
1.67484068870544434 5.17861557006835938 -0.744699060916900635
-0.348090469837188721 2.86576199531555176 -0.467237919569015503
2.4877169132232666 4.8496556282043457 -0.658351719379425049
0.557520151138305664 2.73540711402893066 -0.546321094036102295
0.0113748246803879738 2.24996185302734375 -0.679684221744537354
-0.683526754379272461 2.51977324485778809 -0.621428906917572021
1.73409664630889893 7.26856851577758789 -0.22134438157081604
1.63982760906219482 4.06473922729492188 -0.763928353786468506
1.97801578044891357 5.09098529815673828 -0.735694169998168945
-0.333440631628036499 2.96222066879272461 -0.324643433094024658
-1.33330225944519043 3.12511563301086426 -0.63187873363494873
1.77201557159423828 7.4100794792175293 0.298997342586517334
-0.415935039520263672 2.88957905769348145 -0.429223686456680298
1.61783075332641602 4.47604465484619141 -0.739495635032653809
0.39890289306640625 2.62277984619140625 -0.555529236793518066
-2.05986499786376953 2.93731951713562012 -0.689259231090545654
2.23200535774230957 6.40087556838989258 -0.738725423812866211
-1.18755066394805908 2.91672825813293457 -0.583238899707794189
2.34630632400512695 4.77815103530883789 -0.255083799362182617
-1.33121109008789062 2.8644716739654541 -0.610751092433929443
2.01986885070800781 5.10352039337158203 -0.763172566890716553
2.63324356079101562 6.71430635452270508 -0.720836400985717773
0.705767810344696045 2.34495234489440918 -0.821577668190002441
1.87721860408782959 6.90932083129882812 0.490963459014892578
1.69049108028411865 7.27454710006713867 -0.581278204917907715
2.00366425514221191 7.60348081588745117 -0.24120745062828064
-1.0533134937286377 2.59564423561096191 -0.48932194709777832
1.0668332576751709 2.50903773307800293 -0.745309054851531982
2.8587639331817627 4.84045076370239258 -0.595261931419372559
-0.841424942016601562 2.69240736961364746 -0.531608998775482178
-0.859829068183898926 2.80787873268127441 -0.396304011344909668
2.16934776306152344 4.85017728805541992 -0.355826646089553833
2.10236620903015137 3.4293520450592041 -0.761241793632507324
1.24070525169372559 2.73558592796325684 -0.749188840389251709
-1.1081002950668335 2.98331427574157715 -0.632820785045623779
2.38386869430541992 7.2833867073059082 -0.620680391788482666
-1.36145210266113281 2.01771187782287598 -0.812421619892120361
1.62315034866333008 7.84575557708740234 -0.541686832904815674
1.71937417984008789 7.61429691314697266 -0.459280520677566528
0.510436952114105225 2.38098049163818359 -0.738959610462188721
2.51769375801086426 2.5072777271270752 -1.41594159603118896
0.383861154317855835 2.84816193580627441 -0.502762973308563232
-1.47448289394378662 3.02860236167907715 -0.469277262687683105
1.22937583923339844 1.45942330360412598 -0.764332830905914307
2.31746792793273926 4.99767208099365234 -0.22646629810333252
-0.905897438526153564 2.95988821983337402 -0.317625939846038818
-1.38105809688568115 2.86004424095153809 -0.625637352466583252
2.53365302085876465 4.79704952239990234 -0.440591007471084595
2.96324706077575684 4.71126794815063477 -0.460181236267089844
1.89127922058105469 7.80513668060302734 0.36213374137878418
2.15688323974609375 4.87990856170654297 -0.695570826530456543
1.65431809425354004 7.80904054641723633 -0.564482033252716064
0.646950721740722656 3.1376502513885498 -0.72662121057510376
-0.858849823474884033 2.81335687637329102 -0.501398801803588867
0.331010729074478149 2.24542737007141113 -0.691244184970855713
-2.27132916450500488 3.21268677711486816 -0.519669890403747559
-0.815782904624938965 2.78530764579772949 -0.448580324649810791
1.31368577480316162 3.65283632278442383 -0.753067970275878906
2.05416440963745117 7.20584869384765625 -0.382176816463470459
1.75311541557312012 7.32781982421875 0.0325390435755252838
0.634752750396728516 2.94919204711914062 -0.527987897396087646
-2.19555163383483887 1.75656914710998535 -0.899325668811798096
-2.3029787540435791 3.44754290580749512 -0.65331113338470459
-0.898780941963195801 2.70125555992126465 -0.662438631057739258
-0.205686524510383606 2.22928619384765625 -0.681237518787384033
2.52630233764648438 5.45132160186767578 -0.254814177751541138
1.95168018341064453 4.95886611938476562 -0.769686996936798096
0.47262042760848999 3.25052595138549805 -0.468155503273010254
1.81471574306488037 8.04611301422119141 0.486595749855041504
1.95321071147918701 3.5367577075958252 -0.769866049289703369
1.65448033809661865 7.86979055404663086 0.253004074096679688
-0.428677558898925781 2.8458106517791748 -0.380674064159393311
-0.471938908100128174 1.63921749591827393 -0.739874303340911865
1.63910114765167236 3.95993924140930176 -0.772674262523651123
-0.289115816354751587 2.82321548461914062 -0.386538535356521606
-1.50897455215454102 3.11523914337158203 -0.437380492687225342
0.675587892532348633 2.30850958824157715 -0.706415176391601562
1.7332603931427002 7.25774335861206055 -0.624066948890686035
-1.05006968975067139 2.81898641586303711 -0.485246777534484863
2.11049914360046387 7.28350496292114258 -0.645315647125244141
-1.58039700984954834 3.22023129463195801 -0.235035419464111328
-1.9661940336227417 3.61987686157226562 -0.645049870014190674
-1.10113990306854248 2.71702694892883301 -0.288257598876953125
2.62773633003234863 4.8396916389465332 -0.32760193943977356
-0.0644183829426765442 2.92158412933349609 -0.355125844478607178
0.00587290851399302483 2.27910876274108887 -0.715065240859985352
1.62374746799468994 3.64944148063659668 -0.886803805828094482
0.0453706793487071991 2.5103909969329834 -0.601891696453094482
0.516982853412628174 2.80867719650268555 -0.573252737522125244
1.34328353404998779 3.84418702125549316 -0.75531083345413208
2.19571137428283691 5.55761051177978516 -0.301516532897949219
1.89752960205078125 5.41871881484985352 -0.758127152919769287
2.20413637161254883 5.79175806045532227 -0.146743834018707275
-1.31668758392333984 2.8347325325012207 -0.615666568279266357
2.30129194259643555 5.16942501068115234 -0.77318805456161499
-0.159022971987724304 3.01093459129333496 -0.43261343240737915
2.53861045837402344 3.8749992847442627 -0.823510408401489258
0.454298108816146851 2.88391757011413574 -0.345771670341491699
0.260782092809677124 2.73606371879577637 -0.453016519546508789
-1.61482083797454834 2.99578166007995605 -0.720508396625518799
-1.28519833087921143 2.88727164268493652 -0.617892205715179443
2.16187882423400879 4.84781455993652344 -0.536199510097503662
1.72122228145599365 6.33124017715454102 -0.730262935161590576
1.89292228221893311 4.17927742004394531 -0.748066604137420654
2.14302563667297363 7.48174905776977539 -0.520871937274932861
-0.903280436992645264 2.82162642478942871 -0.522654354572296143
1.69115543365478516 7.69027185440063477 -0.464657127857208252
1.7080305814743042 7.14873838424682617 0.114114701747894287
0.334094315767288208 2.57449936866760254 -0.498798757791519165
4.51470565795898438 -0.103578276932239532 0.846162378787994385
-1.5710681676864624 2.74821352958679199 -0.725765049457550049
2.22710585594177246 4.86081838607788086 -0.697931945323944092
0.609101653099060059 2.82862567901611328 -0.573464572429656982
1.79391217231750488 7.73363256454467773 -0.0798968076705932617
1.691031813621521 7.68477964401245117 -0.583009421825408936
1.87214314937591553 5.31601190567016602 -0.725692033767700195
-0.9665069580078125 2.84443545341491699 -0.565980970859527588
-2.26792287826538086 2.94567561149597168 -0.615676164627075195
1.78525102138519287 7.22765922546386719 -0.372766017913818359
1.3836139440536499 3.37547588348388672 -0.779525578022003174
-1.15342485904693604 2.71580862998962402 -0.644835710525512695
-0.82322770357131958 1.91773617267608643 -0.671719729900360107
2.61694431304931641 4.84688901901245117 -0.636193215847015381
1.99700760841369629 7.21104621887207031 -0.659948170185089111
-0.446903735399246216 2.87885332107543945 -0.416917532682418823
2.0008552074432373 5.31305408477783203 -0.749000251293182373
1.80667126178741455 7.65902614593505859 0.215132474899291992
0.0351039618253707886 2.2306373119354248 -0.692738056182861328
2.71643900871276855 4.91419744491577148 -0.401193439960479736
-0.270065724849700928 2.80220127105712891 -0.464624583721160889
1.62999296188354492 7.67204856872558594 -0.598928213119506836
