ply
format ascii 1.0
element vertex 7
comment vertices
property float x
property float y
property float z
end_header
2.42584824562072754 4.55654048919677734 -0.636624157428741455
1.22623157501220703 4.18214702606201172 -0.302569389343261719
1.00607156753540039 4.18106317520141602 -0.544475972652435303
-0.945728003978729248 1.98562955856323242 -0.292320907115936279
0.806244790554046631 4.09555959701538086 -0.343834728002548218
1.04994237422943115 4.12291669845581055 -0.39159083366394043
2.51744413375854492 4.74356698989868164 -0.570779919624328613
