ply
format ascii 1.0
element vertex 256
comment vertices
property float x
property float y
property float z
end_header
-0.872260808944702148 3.28505825996398926 -0.805726051330566406
2.8192284107208252 6.82881832122802734 1.32428121566772461
-2.19229888916015625 3.57822585105895996 1.82333731651306152
2.11310482025146484 3.7700798511505127 -0.150711596012115479
-3.06239032745361328 2.29421734809875488 -0.992292821407318115
0.046784866601228714 5.66119909286499023 1.64316749572753906
-0.421666175127029419 3.17104029655456543 -0.653690636157989502
1.59502041339874268 2.12549901008605957 -0.889615058898925781
2.95328879356384277 4.03171825408935547 -1.86486470699310303
-2.59249043464660645 3.88506007194519043 -0.629720211029052734
3.31634283065795898 1.17672467231750488 2.48285007476806641
-0.602385044097900391 6.50737237930297852 0.953481614589691162
1.08160638809204102 7.64610671997070312 2.01027250289916992
2.50992751121520996 4.76683712005615234 -0.889022290706634521
-2.74338436126708984 3.48409438133239746 1.89531683921813965
0.52080613374710083 2.5388181209564209 -0.404849231243133545
-1.20866584777832031 2.52403664588928223 -0.445897519588470459
0.211025819182395935 3.26951146125793457 -0.636045157909393311
-1.82865226268768311 3.21990585327148438 -0.730279147624969482
1.12782764434814453 3.78577184677124023 -0.818052053451538086
2.94201827049255371 5.01862573623657227 1.12781739234924316
-1.71971797943115234 3.98024559020996094 -0.579762578010559082
1.60771644115447998 5.13665342330932617 1.25691819190979004
-0.553689479827880859 3.36730504035949707 2.40648579597473145
-0.866974234580993652 3.16780638694763184 -0.601640403270721436
2.43447470664978027 3.76125144958496094 -0.704255282878875732
0.0840687602758407593 7.42013263702392578 2.03122806549072266
-1.0800471305847168 3.23443102836608887 2.07099294662475586
0.650338113307952881 3.26317477226257324 -0.821250081062316895
1.1316370964050293 3.95207977294921875 -0.552817046642303467
0.10500694066286087 4.49994802474975586 -0.251181542873382568
1.6328284740447998 4.13724088668823242 -0.855073451995849609
2.31716156005859375 7.08712434768676758 2.00461935997009277
-0.358319878578186035 3.70548582077026367 -0.281004667282104492
0.236176520586013794 3.62627339363098145 -0.827349841594696045
-0.597739458084106445 3.18121576309204102 -0.602659404277801514
-2.61756110191345215 3.74326562881469727 -0.527668535709381104
-1.14570319652557373 2.89104437828063965 2.21088838577270508
-0.704328238964080811 5.749755859375 1.4994804859161377
-1.90681755542755127 3.97743463516235352 -0.476059556007385254
0.780107557773590088 6.64499759674072266 2.05483007431030273
0.891836464405059814 4.12571954727172852 -0.85175633430480957
1.09859907627105713 1.08254504203796387 0.177722036838531494
0.408523708581924438 3.14001154899597168 -0.529905021190643311
-1.07424938678741455 3.43015384674072266 -0.441520869731903076
-0.183479592204093933 3.24225616455078125 -0.79093700647354126
-1.9666365385055542 4.00985479354858398 -0.696020543575286865
-0.139814764261245728 3.24585366249084473 -0.601163268089294434
-1.4915696382522583 3.5505220890045166 -0.724653184413909912
1.74650537967681885 3.9344933032989502 -0.633413076400756836
2.06047368049621582 7.73946619033813477 1.96768689155578613
-1.212310791015625 3.52907180786132812 -0.722374141216278076
-1.09398150444030762 6.5718231201171875 1.54540109634399414
3.47857022285461426 4.56984090805053711 -0.676160812377929688
2.69151711463928223 2.84478306770324707 -0.0733031630516052246
1.79234409332275391 3.96674323081970215 -0.808803379535675049
0.295274853706359863 3.04976534843444824 -0.639118731021881104
0.558386743068695068 3.26549792289733887 -0.741250276565551758
2.1618349552154541 3.76700401306152344 -0.847301602363586426
1.64751183986663818 7.32311058044433594 2.09911584854125977
-3.34682464599609375 1.38596749305725098 0.0120441345497965813
0.503235161304473877 7.47883272171020508 1.74133539199829102
2.29141831398010254 5.06062984466552734 1.19033408164978027
0.274990946054458618 3.73749709129333496 -0.275184571743011475
1.64427196979522705 4.01005220413208008 -0.815165340900421143
-1.03680193424224854 3.3327786922454834 -0.607830226421356201
0.61205589771270752 4.58567428588867188 2.06482076644897461
2.40675950050354004 3.88291621208190918 -0.8237723708152771
-0.509033918380737305 6.65688896179199219 1.67631316184997559
1.07683968544006348 3.95302081108093262 -0.758004128932952881
-1.09202003479003906 3.07728934288024902 -0.605159223079681396
-0.37496793270111084 3.27808380126953125 -0.59855574369430542
-2.18242740631103516 4.09321260452270508 -0.673527777194976807
-0.0851981788873672485 5.24908161163330078 1.14766550064086914
-0.0461733527481555939 6.49582672119140625 1.29306530952453613
-0.666286110877990723 3.37551617622375488 -0.627951741218566895
-2.54794645309448242 4.08141326904296875 -0.616721391677856445
0.946314036846160889 4.10079765319824219 -0.57102590799331665
0.79069143533706665 4.71272945404052734 1.15281295776367188
-2.45813703536987305 4.02691078186035156 -0.592535257339477539
1.75275933742523193 3.54848742485046387 -0.571248471736907959
-0.173727452754974365 3.19751596450805664 -0.320542007684707642
1.02753198146820068 3.8329460620880127 -0.831927120685577393
0.615886807441711426 7.27306461334228516 2.03946852684020996
-0.0244072098284959793 2.45437264442443848 -0.560187160968780518
1.47995626926422119 7.88725423812866211 2.05550050735473633
1.95935165882110596 2.4674527645111084 -0.510075390338897705
0.965846657752990723 3.49092793464660645 -0.38094174861907959
2.18535947799682617 4.01860475540161133 -0.86775815486907959
0.404304146766662598 4.30802154541015625 1.10437297821044922
-0.87692570686340332 3.58346676826477051 -0.371663331985473633
-3.60524320602416992 4.77447700500488281 1.65080070495605469
-1.72191941738128662 3.39315390586853027 -0.0272889714688062668
0.644392192363739014 3.64006257057189941 -0.689613640308380127
-2.11203122138977051 4.05179977416992188 -0.574751198291778564
1.25065433979034424 6.95373678207397461 2.03480410575866699
-0.933387100696563721 3.20573663711547852 -0.536404073238372803
-1.43938267230987549 3.2154228687286377 -0.581039965152740479
0.235869690775871277 3.21854948997497559 -0.669077694416046143
1.59621763229370117 3.98718428611755371 -0.760959148406982422
1.4711308479309082 4.25139665603637695 -0.856943249702453613
-0.685657083988189697 3.11360311508178711 -0.771367728710174561
-0.204443782567977905 3.13416409492492676 -0.626350224018096924
-1.70962345600128174 4.05546236038208008 -0.704562485218048096
1.62545013427734375 3.64937233924865723 -0.250433683395385742
-0.0420906282961368561 0.679112732410430908 0.77280724048614502
2.70587563514709473 7.13480138778686523 2.02028894424438477
-0.417056888341903687 3.24325108528137207 2.14930844306945801
1.91724741458892822 6.91333150863647461 2.04484319686889648
-1.96134388446807861 4.07554101943969727 -0.655928611755371094
2.5768430233001709 2.01291155815124512 2.0071861743927002
-1.13256478309631348 5.58945035934448242 1.29376959800720215
1.25499498844146729 3.36053204536437988 1.90593123435974121
-1.46380925178527832 3.71247506141662598 -0.74441152811050415
-0.630988180637359619 3.07995295524597168 -0.508303701877593994
0.222961008548736572 3.08666157722473145 -0.677781283855438232
2.56952738761901855 3.80170488357543945 -0.151216268539428711
2.18627643585205078 3.93896484375 -0.741510927677154541
1.29966819286346436 4.07945680618286133 -0.606202781200408936
0.332596510648727417 6.11529445648193359 1.76475811004638672
-2.16766810417175293 4.08401393890380859 -0.724756538867950439
1.13676559925079346 5.60907077789306641 1.6391298770904541
1.38727891445159912 3.95120477676391602 -0.8097342848777771
0.716889142990112305 3.49079656600952148 -0.572459816932678223
0.011951974593102932 3.22405171394348145 -0.641051113605499268
-1.61721134185791016 3.57911133766174316 -0.601506054401397705
-0.442233681678771973 3.35637307167053223 -0.805831015110015869
2.07795548439025879 4.77292823791503906 -0.865591883659362793
0.803421676158905029 3.96297860145568848 -0.835440158843994141
0.210800513625144958 3.17540979385375977 -0.706557154655456543
-3.39109897613525391 5.10436820983886719 1.49412155151367188
-1.2816239595413208 3.31403160095214844 -0.760966122150421143
-2.94535112380981445 4.02340602874755859 -0.42359614372253418
-1.85190737247467041 3.53174567222595215 -0.720993340015411377
0.979009032249450684 5.47502899169921875 2.34328746795654297
-0.915703892707824707 3.0906376838684082 -0.521759688854217529
-0.302887171506881714 3.15086913108825684 -0.653197824954986572
1.95592808723449707 3.9142763614654541 -0.855805695056915283
1.53246498107910156 3.83456206321716309 -0.612796962261199951
-0.592302262783050537 3.01865005493164062 -0.611491680145263672
0.459031283855438232 3.12912297248840332 -0.589992344379425049
-0.466223061084747314 3.22579050064086914 -0.590586245059967041
1.25153434276580811 4.02132511138916016 -0.849594593048095703
1.28680765628814697 3.94932866096496582 -0.841495990753173828
2.06122732162475586 3.93517494201660156 -0.725369155406951904
-1.07823836803436279 3.08127570152282715 -0.758566081523895264
0.311234831809997559 6.9192500114440918 1.98903727531433105
-1.72442162036895752 3.53368997573852539 -0.750028908252716064
-1.6174919605255127 5.59499263763427734 1.11970639228820801
-1.31492841243743896 3.49080681800842285 -0.576128244400024414
1.85276317596435547 4.09621715545654297 -0.872185885906219482
2.31945157051086426 3.71788191795349121 0.051082853227853775
-1.3815997838973999 3.78122806549072266 -0.281493604183197021
-2.26055192947387695 3.93456315994262695 -0.648855030536651611
-1.33675062656402588 3.33233761787414551 -0.624438822269439697
0.77895742654800415 3.81961798667907715 -0.5737190842628479
-2.45061397552490234 3.04201626777648926 -0.485040724277496338
0.505788028240203857 3.17124629020690918 -0.677623450756072998
0.583976566791534424 3.65949654579162598 -0.365793824195861816
2.29838395118713379 7.39761161804199219 1.95640742778778076
1.8091580867767334 4.03944778442382812 -0.416387945413589478
-3.51038455963134766 4.4274296760559082 1.44510698318481445
0.000158787122927606106 3.83986806869506836 -0.0929748415946960449
0.553305983543395996 3.07278084754943848 -0.672617137432098389
-2.85126733779907227 5.28481912612915039 1.34497356414794922
-0.0588236525654792786 3.20234107971191406 -0.57092583179473877
0.0133297452703118324 3.17015671730041504 -0.595753371715545654
2.38958024978637695 7.28706932067871094 1.67547440528869629
1.19947731494903564 3.81124520301818848 -0.851183235645294189
-0.939078867435455322 3.34711337089538574 -0.602772057056427002
-0.31685483455657959 6.72633838653564453 1.87124419212341309
0.917041897773742676 7.15589046478271484 2.06299328804016113
1.57443296909332275 3.61371922492980957 -0.74726790189743042
1.78654909133911133 2.42712092399597168 -0.842589020729064941
1.7998201847076416 7.76646041870117188 2.04707956314086914
-0.946107625961303711 3.19014286994934082 -0.558676660060882568
-0.645895004272460938 3.11711287498474121 -0.492285490036010742
0.359647661447525024 7.44876527786254883 1.97778654098510742
0.135513737797737122 3.06107354164123535 -0.461493402719497681
0.331975102424621582 3.52497744560241699 -0.642452836036682129
1.19801640510559082 7.43058490753173828 2.09713554382324219
1.29977452754974365 3.54146885871887207 -0.425938725471496582
2.37407588958740234 6.99399948120117188 1.99514007568359375
0.576099872589111328 3.6434171199798584 -0.770017564296722412
-2.10183525085449219 3.71872472763061523 -0.264984548091888428
1.88245391845703125 3.9900357723236084 -0.860425412654876709
1.98328197002410889 7.37731599807739258 2.05316162109375
-3.41697835922241211 3.70480895042419434 1.77897191047668457
1.57861328125 6.93446779251098633 2.03333210945129395
-1.33722424507141113 3.83939337730407715 -0.5056113600730896
0.737909913063049316 4.34891462326049805 1.10341763496398926
1.27681827545166016 3.95704388618469238 -0.648497581481933594
1.01321220397949219 3.91705560684204102 -0.526509642601013184
-0.710847795009613037 3.26431465148925781 -0.660278260707855225
-2.16357088088989258 3.91459870338439941 -0.48581463098526001
-1.55028307437896729 3.67125535011291504 2.49755525588989258
-0.37193983793258667 7.14950323104858398 1.77109813690185547
1.40062451362609863 3.96251344680786133 -0.855458199977874756
-1.68415772914886475 3.94531798362731934 -0.712555587291717529
0.303348392248153687 3.89299130439758301 0.113494336605072021
0.708598494529724121 3.35037827491760254 -0.836176693439483643
1.98735570907592773 4.72387313842773438 0.835880458354949951
-1.35874378681182861 5.82126760482788086 1.1463935375213623
0.875427544116973877 3.8120887279510498 -0.494973599910736084
1.28334808349609375 2.54416728019714355 -0.842662394046783447
-0.696787476539611816 3.22310853004455566 -0.58327716588973999
0.997582376003265381 4.03926610946655273 -0.56120765209197998
-0.901711046695709229 2.79158139228820801 -0.324543774127960205
2.63039875030517578 5.25336503982543945 1.34415292739868164
-0.876017868518829346 3.27348423004150391 -0.615966260433197021
-0.937739074230194092 4.81347560882568359 1.21518707275390625
1.50233352184295654 0.743973076343536377 0.29672706127166748
-1.36058676242828369 3.53347229957580566 -0.738205254077911377
2.20285439491271973 3.86656522750854492 -0.601884007453918457
-2.71576356887817383 4.01692342758178711 -0.575112760066986084
-0.867521822452545166 3.00193381309509277 -0.67041248083114624
0.52209395170211792 3.4156806468963623 -0.736445903778076172
0.403741627931594849 3.44371151924133301 -0.515788853168487549
2.08845973014831543 3.86706972122192383 -0.820200622081756592
-0.170445546507835388 3.08653140068054199 -0.591260910034179688
0.686719834804534912 3.61889362335205078 -0.582184016704559326
0.691257953643798828 2.88061904907226562 -0.576674699783325195
0.960700154304504395 3.51663374900817871 -0.831373512744903564
0.966384053230285645 7.48042106628417969 1.83137011528015137
1.65331935882568359 3.95488762855529785 -0.840170562267303467
-2.41452264785766602 3.94128108024597168 -0.5541573166847229
0.54798656702041626 4.93926620483398438 1.24992918968200684
0.646205902099609375 7.49358654022216797 1.93269050121307373
-0.286927908658981323 3.13435149192810059 -0.601375043392181396
1.32519805431365967 4.01176691055297852 -0.741081416606903076
2.59925079345703125 7.11985349655151367 1.64246153831481934
2.58034729957580566 6.79102087020874023 1.74861979484558105
1.34659826755523682 6.59896659851074219 1.96635651588439941
-1.95508098602294922 4.02480840682983398 -0.579441726207733154
-0.0665757507085800171 3.11424160003662109 -0.67279738187789917
1.67744016647338867 3.5898444652557373 -0.209863722324371338
-0.98637014627456665 6.68387413024902344 1.72115612030029297
-1.54154646396636963 3.22624826431274414 -0.759031116962432861
0.834665596485137939 3.74676823616027832 -0.830227792263031006
-0.022535005584359169 3.64205741882324219 -0.297319531440734863
-1.86162316799163818 3.93300199508666992 -0.657565295696258545
1.39003324508666992 3.8456878662109375 -0.434693574905395508
1.56529378890991211 4.00672435760498047 -0.604101955890655518
-0.373494178056716919 3.13275384902954102 -0.639671146869659424
-0.304287940263748169 3.00344634056091309 -0.202136695384979248
2.27050328254699707 3.9043581485748291 -0.870531022548675537
-0.106368549168109894 3.28796935081481934 -0.599082708358764648
0.148568674921989441 3.29123067855834961 -0.666161477565765381
1.09546911716461182 3.95704984664916992 -0.832058906555175781
1.13451743125915527 3.98705744743347168 -0.560588657855987549
1.51382625102996826 7.73905372619628906 2.08751678466796875
1.16182458400726318 4.030242919921875 -0.845238626003265381
0.61547321081161499 7.00080299377441406 2.04833126068115234
-0.608533620834350586 3.4413597583770752 -0.352102339267730713
-0.358038783073425293 3.0913550853729248 -0.399178087711334229
-0.489826709032058716 3.22474431991577148 -0.60173112154006958
