ply
format ascii 1.0
element vertex 13
comment vertices
property float x
property float y
property float z
end_header
0.47048652172088623 3.44103813171386719 -0.449829131364822388
0.274972885847091675 3.42366766929626465 -0.758208692073822021
0.567471504211425781 3.37735915184020996 -0.552708923816680908
0.104658208787441254 3.19235754013061523 -0.552249610424041748
0.393135517835617065 3.17718505859375 -0.730944931507110596
0.28400459885597229 3.35992884635925293 -0.497227191925048828
0.436549454927444458 3.33162236213684082 -0.457962304353713989
0.157754674553871155 3.49139189720153809 -0.474036663770675659
0.443315327167510986 3.29201626777648926 -0.549434661865234375
0.240246936678886414 3.31066203117370605 -0.497418016195297241
0.142033219337463379 3.27100586891174316 -0.482537686824798584
0.456278175115585327 3.48669314384460449 -0.469329178333282471
0.23304399847984314 3.30740785598754883 -0.587892711162567139
