ply
format ascii 1.0
element vertex 187
comment vertices
property float x
property float y
property float z
end_header
0.514628291130065918 2.42524862289428711 -0.640791952610015869
-0.0506396032869815826 2.67649722099304199 1.72789978981018066
4.12275409698486328 2.78559279441833496 0.752851784229278564
-2.30763912200927734 3.90524792671203613 0.0141569403931498528
1.81854104995727539 1.58556056022644043 -0.221365392208099365
0.700421273708343506 -0.206724584102630615 0.557108640670776367
2.86475229263305664 4.68467092514038086 -0.352738738059997559
3.14539241790771484 2.05377984046936035 1.9749445915222168
2.33426594734191895 2.86925363540649414 -0.802917540073394775
-1.25510513782501221 2.43900728225708008 -0.593664050102233887
0.429441243410110474 1.89482855796813965 -0.515656054019927979
0.750121891498565674 2.59125041961669922 -0.34197649359703064
-0.645556867122650146 5.22449254989624023 2.16969394683837891
0.367237627506256104 2.5439908504486084 -0.6501503586769104
1.34160423278808594 3.23912930488586426 -0.886395394802093506
-1.20018243789672852 2.89130496978759766 -0.404543459415435791
2.14157319068908691 5.47644567489624023 -0.780897796154022217
-2.20040392875671387 3.09430098533630371 -0.799013316631317139
4.0216069221496582 2.08637595176696777 1.73139786720275879
-0.509464144706726074 2.49501633644104004 -0.579945504665374756
-2.2318415641784668 2.97511982917785645 -0.280371814966201782
1.40621519088745117 2.90211701393127441 -0.739941954612731934
-1.2977367639541626 2.55957818031311035 -0.549822211265563965
0.560048282146453857 2.59903383255004883 -0.811487197875976562
1.05561578273773193 1.60378706455230713 -0.41511458158493042
2.38015484809875488 1.48505854606628418 0.533651769161224365
-1.49874246120452881 2.8744499683380127 -0.553345620632171631
1.15179383754730225 2.63852572441101074 -0.360831141471862793
-1.98934924602508545 0.822831690311431885 0.796125173568725586
2.01372385025024414 2.86555242538452148 -0.911443173885345459
1.54450333118438721 -0.951629579067230225 1.72452020645141602
-1.66823697090148926 2.23229098320007324 -0.540650546550750732
-2.16299891471862793 3.48334360122680664 -0.646814286708831787
0.168142631649971008 2.45365524291992188 -0.164910197257995605
-0.640075385570526123 2.5848701000213623 -0.587173104286193848
-1.80076265335083008 3.40276575088500977 -0.476287424564361572
0.440708369016647339 2.60077500343322754 -0.56148761510848999
2.03449058532714844 3.19957661628723145 -0.180265843868255615
0.185926586389541626 2.95163083076477051 3.07726645469665527
0.344003140926361084 2.49398303031921387 -0.620292603969573975
1.33290278911590576 4.32308244705200195 0.0439841188490390778
2.84497690200805664 2.1790621280670166 2.48491168022155762
-0.622542321681976318 2.41347575187683105 -0.545109272003173828
0.718946337699890137 2.73678970336914062 -0.762416839599609375
0.19346696138381958 2.23880863189697266 -0.640179812908172607
0.287665605545043945 2.40071320533752441 -0.350501388311386108
-0.296063750982284546 4.57842159271240234 1.3888556957244873
2.20449066162109375 2.83209109306335449 -0.575680792331695557
-2.37627577781677246 3.8579254150390625 -0.333657443523406982
-1.70405721664428711 2.62624716758728027 -0.732852637767791748
-0.386638879776000977 2.30176138877868652 -0.5743255615234375
0.651175379753112793 2.77177309989929199 -0.198261559009552002
-0.618818283081054688 2.58836150169372559 -0.373016715049743652
-1.93898391723632812 3.92688870429992676 -0.381646007299423218
-0.825315415859222412 2.56138014793395996 -0.599138498306274414
1.41482830047607422 2.97751259803771973 -0.793104827404022217
0.696145534515380859 2.90392160415649414 -0.827810585498809814
0.764321684837341309 2.82726025581359863 -0.612053573131561279
-1.15241694450378418 2.53066897392272949 -0.592445909976959229
2.54107332229614258 4.53988838195800781 -0.475776463747024536
0.327416777610778809 2.45362544059753418 -0.641436278820037842
-1.27189695835113525 3.24113297462463379 -0.186124026775360107
1.43993449211120605 3.08818697929382324 0.324218511581420898
0.544509768486022949 2.48572373390197754 -0.790025413036346436
-1.24486494064331055 2.63100433349609375 -0.528207600116729736
-1.44756996631622314 2.80312800407409668 -0.354381680488586426
-1.97210073471069336 3.80393624305725098 0.0277334470301866531
-1.84876561164855957 3.07942819595336914 -0.752866089344024658
2.07100343704223633 2.81205201148986816 -0.616586446762084961
1.44269073009490967 2.97801399230957031 -0.733791351318359375
-0.818642616271972656 0.903660595417022705 0.12282794713973999
-0.380058258771896362 2.53363537788391113 -0.591469466686248779
1.13237333297729492 3.10333609580993652 -0.0764169692993164062
1.97050905227661133 2.86700081825256348 -0.7966727614402771
-2.17341995239257812 3.76803755760192871 -0.166753023862838745
1.20522558689117432 3.04593539237976074 -0.843340218067169189
0.270352989435195923 2.54738497734069824 -0.572258174419403076
0.689810454845428467 2.60782599449157715 -0.693353533744812012
-1.53680288791656494 3.38403606414794922 -0.413792610168457031
-0.291474282741546631 2.49605774879455566 -0.568958580493927002
0.600861310958862305 2.59367752075195312 -0.675053060054779053
0.125141099095344543 2.44532608985900879 -0.532146334648132324
1.75098609924316406 3.44744372367858887 0.262510120868682861
2.15523743629455566 2.9610896110534668 -0.937501728534698486
1.73404276371002197 2.95937800407409668 -0.448527246713638306
3.10514688491821289 4.18791818618774414 -0.594308435916900635
2.16571927070617676 2.95726990699768066 -0.565340340137481689
2.42964673042297363 5.89630842208862305 -0.204755246639251709
-0.325261205434799194 2.60427284240722656 -0.551438510417938232
-0.549624919891357422 2.54613280296325684 -0.661348640918731689
0.177235826849937439 2.31224560737609863 -0.723444998264312744
1.25797915458679199 2.9417273998260498 -0.643240094184875488
0.48062625527381897 2.39512419700622559 -0.353628337383270264
0.258563429117202759 2.40936684608459473 -0.607864975929260254
0.646351516246795654 -0.545336425304412842 0.89198458194732666
1.19482541084289551 2.89274954795837402 -0.736074507236480713
1.90946149826049805 2.82705545425415039 -0.693525612354278564
0.474749237298965454 2.39805436134338379 -0.615937769412994385
0.35762256383895874 2.5020911693572998 -0.205053627490997314
0.731208205223083496 2.70712089538574219 -0.646429121494293213
0.381705343723297119 2.71366190910339355 2.65561318397521973
-0.680816829204559326 2.38073563575744629 -0.560017526149749756
-0.343696773052215576 2.43941569328308105 -0.599351227283477783
0.609542429447174072 2.87891507148742676 -0.809368431568145752
0.570189356803894043 2.28959035873413086 -0.438831835985183716
-1.53808951377868652 2.87688803672790527 -0.663433372974395752
-1.21963095664978027 2.40694570541381836 -0.549370288848876953
-1.70980143547058105 2.93764948844909668 -0.584119021892547607
0.863939821720123291 2.67627644538879395 -0.365056991577148438
0.809002518653869629 2.65639925003051758 -0.739140450954437256
0.0529729016125202179 2.30557084083557129 -0.638128340244293213
-0.683672606945037842 2.55725860595703125 -0.581263303756713867
0.790738105773925781 1.61670958995819092 -0.545696079730987549
-0.562171399593353271 2.47322750091552734 -0.558220088481903076
2.9644923210144043 3.34761595726013184 -1.05603408813476562
0.262883037328720093 2.2290337085723877 -0.349490642547607422
0.939467191696166992 2.40176987648010254 -0.393725216388702393
1.16985666751861572 2.83708024024963379 -0.813517510890960693
-1.65038788318634033 4.12727880477905273 2.437042236328125
-1.96275269985198975 3.80237650871276855 -0.266420960426330566
-0.629916369915008545 2.54934453964233398 -0.246750116348266602
-0.600098252296447754 2.39937949180603027 -0.572591841220855713
0.258881926536560059 2.55553627014160156 -0.693581581115722656
-0.769443094730377197 2.57946968078613281 -0.560907661914825439
-2.16457080841064453 3.82283186912536621 -0.366063594818115234
-2.74663281440734863 1.28513765335083008 0.249353170394897461
0.572141468524932861 2.55266976356506348 -0.706895649433135986
0.185674130916595459 2.44564533233642578 -0.625494837760925293
-2.14764571189880371 3.48043417930603027 -0.157320797443389893
1.10413765907287598 3.11561465263366699 -0.828889071941375732
0.512720942497253418 2.47672700881958008 -0.560396134853363037
0.309244453907012939 2.37469029426574707 -0.667422831058502197
2.46669626235961914 -0.983680903911590576 0.793614625930786133
0.934779345989227295 2.3715817928314209 -0.263417065143585205
-0.00494602788239717484 2.51137852668762207 -0.114558815956115723
-0.543989658355712891 2.58355212211608887 -0.325316041707992554
0.703444719314575195 2.72185873985290527 -0.798142731189727783
1.25762665271759033 2.50892233848571777 -0.456507682800292969
-1.19291818141937256 2.55542492866516113 -0.592458784580230713
0.668377280235290527 2.78201031684875488 -0.519774198532104492
2.05116701126098633 2.8926844596862793 -0.909481406211853027
-0.289182454347610474 2.51844215393066406 -0.58202749490737915
-0.652612566947937012 1.15274262428283691 0.00831216853111982346
-1.74297690391540527 3.47691154479980469 -0.100862801074981689
2.86166858673095703 4.58724546432495117 -0.464361488819122314
-1.11011457443237305 3.32426619529724121 -0.225892722606658936
-1.56904315948486328 2.87203216552734375 -0.643370985984802246
-2.39791226387023926 1.74880647659301758 0.032059255987405777
1.3520200252532959 3.22610569000244141 0.165494561195373535
0.140701264142990112 2.41182637214660645 -0.622072577476501465
-1.72756552696228027 3.14413261413574219 -0.648908495903015137
-2.11120295524597168 4.02295303344726562 0.013876977376639843
1.1844407320022583 2.9079582691192627 -0.748788356781005859
0.0558874532580375671 2.38653779029846191 -0.583842277526855469
1.19370889663696289 2.96696877479553223 -0.735028326511383057
0.152460545301437378 2.40405583381652832 -0.596884608268737793
2.05797672271728516 2.8643958568572998 -0.693593025207519531
1.64394104480743408 3.01617121696472168 0.291011333465576172
1.88337886333465576 2.9048774242401123 -0.536837756633758545
1.20239245891571045 2.80120730400085449 0.0931438207626342773
-2.01992130279541016 3.77927160263061523 -0.516819775104522705
-1.28601205348968506 2.63697218894958496 -0.454046159982681274
0.114768318831920624 2.38035941123962402 -0.366787195205688477
1.36990821361541748 2.9961545467376709 -0.634315431118011475
1.41501986980438232 3.09677815437316895 -0.829589188098907471
0.326488912105560303 2.52042412757873535 -0.54645538330078125
1.93329715728759766 3.41146326065063477 0.264293253421783447
-1.35258197784423828 2.53460025787353516 -0.578032553195953369
2.6053473949432373 5.1261138916015625 -0.234077125787734985
1.49606442451477051 2.94796299934387207 2.01519155502319336
1.39838910102844238 2.88900327682495117 -0.711542785167694092
-1.37833523750305176 2.80219078063964844 -0.458095312118530273
-0.476232200860977173 2.57742619514465332 -0.592831909656524658
-0.558362066745758057 2.27816343307495117 -0.56736522912979126
-0.42611202597618103 2.34187674522399902 -0.586960673332214355
-2.35317826271057129 3.95333576202392578 -0.39870879054069519
-1.51806390285491943 2.85808515548706055 -0.418320536613464355
0.468442440032958984 2.37188339233398438 -0.613784730434417725
-1.81578588485717773 3.61179471015930176 -0.20471799373626709
1.41352605819702148 2.88412117958068848 -0.774711906909942627
-1.33492612838745117 3.19781923294067383 -0.335160970687866211
2.85604953765869141 5.60846614837646484 -0.602372109889984131
-0.317779779434204102 2.5166923999786377 -0.334250897169113159
0.491308540105819702 2.33907985687255859 -0.337489783763885498
-2.39151597023010254 3.87869429588317871 -0.134806305170059204
1.95354950428009033 -0.937882363796234131 1.25388431549072266
-1.97020590305328369 0.817103445529937744 0.0399950183928012848
