ply
format ascii 1.0
element vertex 18
comment vertices
property float x
property float y
property float z
end_header
0.281901359558105469 2.6817624568939209 -0.431823223829269409
-0.0309335365891456604 2.73292112350463867 -0.373428881168365479
0.124864049255847931 2.48629999160766602 -0.510433495044708252
0.0410074219107627869 2.60122966766357422 -0.35309264063835144
0.0291800070554018021 2.43339967727661133 -0.437552005052566528
-0.073054194450378418 2.32794690132141113 -0.46185678243637085
0.3093300461769104 2.71051979064941406 -0.394793987274169922
0.282161206007003784 2.39757132530212402 -0.471475332975387573
0.202918216586112976 2.42624497413635254 -0.52136075496673584
0.38225477933883667 2.53306365013122559 -0.44813874363899231
-0.0277081038802862167 2.68702149391174316 -0.414007037878036499
0.00322006223723292351 2.66228342056274414 -0.405526578426361084
-0.0808860883116722107 2.50764584541320801 -0.404528826475143433
0.275083363056182861 2.4821622371673584 -0.462695211172103882
0.0453961491584777832 2.40179562568664551 -0.486718952655792236
0.327507644891738892 2.40767598152160645 -0.580624282360076904
0.138825416564941406 2.34300351142883301 -0.439341366291046143
0.159783914685249329 2.54528403282165527 -0.368550926446914673
