ply
format ascii 1.0
element vertex 230
comment vertices
property float x
property float y
property float z
end_header
-0.390364736318588257 3.54016280174255371 -0.233076632022857666
5.13006877899169922 3.60889077186584473 1.38245987892150879
-2.90026473999023438 1.98848652839660645 0.844459176063537598
-0.0636768043041229248 7.60808706283569336 1.8437495231628418
1.6984565258026123 3.39017701148986816 -0.8689536452293396
1.88070404529571533 1.78214001655578613 1.51952695846557617
-1.14293444156646729 1.6693415641784668 -1.00938773155212402
-2.28456473350524902 0.605025112628936768 -0.578798770904541016
-2.24899554252624512 5.26190757751464844 0.921241939067840576
2.17636489868164062 4.92948150634765625 -0.782590746879577637
2.10406088829040527 6.91309785842895508 1.94770669937133789
-1.66620707511901855 3.43163847923278809 -1.09108400344848633
-1.75787878036499023 3.23470139503479004 1.85004448890686035
-0.0751955732703208923 3.34401822090148926 -0.797405064105987549
-2.05798912048339844 3.53361821174621582 -0.597459495067596436
-1.81915116310119629 1.75247609615325928 -0.469536364078521729
4.5243525505065918 2.0634009838104248 2.79430031776428223
-0.844906270503997803 5.28312206268310547 1.20364594459533691
-0.934583067893981934 3.53796529769897461 -0.602872371673583984
1.63977730274200439 3.39774250984191895 -0.389521539211273193
0.835541367530822754 6.9105224609375 2.04639577865600586
1.6831585168838501 4.05004024505615234 0.466142117977142334
2.52886343002319336 4.18169307708740234 2.74905014038085938
0.190196067094802856 3.33310222625732422 -0.537715256214141846
2.29328274726867676 4.61218929290771484 -0.512392580509185791
-1.82601583003997803 1.02069258689880371 -0.732474923133850098
-2.11365652084350586 3.56257009506225586 -0.221311315894126892
-1.06116354465484619 3.62776398658752441 -0.788674712181091309
1.04837489128112793 6.57202243804931641 1.19994211196899414
-1.54161739349365234 6.73166799545288086 1.55637788772583008
1.25417220592498779 3.6660921573638916 -0.711132168769836426
-0.156492635607719421 3.11670064926147461 -0.790863335132598877
1.93212461471557617 0.0149672552943229675 -0.00513010937720537186
0.160935297608375549 3.22434234619140625 -0.798236668109893799
-1.19038569927215576 3.42635703086853027 -0.00172263127751648426
0.021962067112326622 6.30657434463500977 1.72918295860290527
1.04456543922424316 3.43504118919372559 -0.516773521900177002
1.74506044387817383 3.27739787101745605 -0.128403723239898682
1.95697760581970215 4.49342679977416992 -0.463546454906463623
0.131541997194290161 5.47576618194580078 1.50774741172790527
-0.768133938312530518 7.42747068405151367 1.99829387664794922
-1.64281630516052246 3.41042923927307129 -0.422668308019638062
-0.661152124404907227 3.55288529396057129 -0.495603650808334351
1.47329151630401611 6.12448406219482422 1.85792970657348633
-0.68310546875 3.71307659149169922 -0.632912576198577881
-0.310388475656509399 3.5555269718170166 -0.672588586807250977
-1.55351698398590088 5.38957595825195312 1.34255361557006836
0.114425741136074066 2.14344191551208496 2.61045956611633301
-0.502205133438110352 3.80097675323486328 -0.782364308834075928
2.3634638786315918 4.89870452880859375 1.0369415283203125
1.40122687816619873 7.11571073532104492 1.9942779541015625
0.23058338463306427 7.21508598327636719 2.05829858779907227
-0.892697513103485107 2.30485129356384277 -0.260388076305389404
-3.62384128570556641 2.98446249961853027 3.08692359924316406
3.25310921669006348 1.75067687034606934 2.65256738662719727
0.69749903678894043 4.86939859390258789 1.22999310493469238
1.81106936931610107 3.42073488235473633 -0.509512722492218018
-1.46842277050018311 3.47769784927368164 -0.25369793176651001
-1.69918656349182129 2.44711136817932129 -0.792867064476013184
-0.498470962047576904 4.65682125091552734 0.97418135404586792
0.796381831169128418 3.29267978668212891 -0.554750800132751465
-0.33128395676612854 3.47270536422729492 -0.547585725784301758
-1.63971865177154541 3.2701570987701416 -0.0615974031388759613
1.68088710308074951 4.28661346435546875 -0.482639223337173462
3.70081996917724609 0.978751480579376221 2.3538212776184082
-0.346348166465759277 3.3907465934753418 -0.805499732494354248
-0.11669834703207016 3.04026365280151367 -0.450580716133117676
2.32762575149536133 4.61151695251464844 -0.652565598487854004
-1.25374412536621094 3.60948443412780762 -0.600163519382476807
-0.36204981803894043 7.11219215393066406 2.03965425491333008
-1.31506788730621338 2.83832907676696777 -0.753482520580291748
1.50040102005004883 3.52985358238220215 -0.423314958810806274
1.75752770900726318 4.39529228210449219 -0.785843372344970703
0.935772716999053955 3.39234328269958496 -0.540601074695587158
0.753326594829559326 7.40019941329956055 2.06615376472473145
2.43782734870910645 0.408709824085235596 -0.0564675889909267426
1.09798288345336914 3.78822517395019531 -0.854490339756011963
1.56847012042999268 0.38443070650100708 2.90997934341430664
2.29770469665527344 4.47336006164550781 0.1993522047996521
0.849281013011932373 3.28424715995788574 -0.53069227933883667
1.28240668773651123 4.63469266891479492 2.74543404579162598
-1.38540554046630859 3.1148531436920166 0.145265519618988037
0.18332710862159729 3.2144019603729248 -0.618253767490386963
-0.663941860198974609 3.38165807723999023 -0.777808964252471924
-2.09759807586669922 3.53651857376098633 -0.442952871322631836
-2.10921907424926758 3.51311802864074707 0.125278472900390625
-0.0714968591928482056 3.14512085914611816 -0.660139143466949463
0.5266571044921875 3.33458638191223145 -0.567965865135192871
0.787773370742797852 3.3382875919342041 -0.519794285297393799
2.22829055786132812 7.22559499740600586 1.73420476913452148
-0.967407405376434326 3.45190668106079102 -0.434033781290054321
-1.1098475456237793 7.13118457794189453 2.05539774894714355
0.125468537211418152 3.34259343147277832 -0.78796696662902832
1.87286162376403809 4.59687566757202148 -0.651326000690460205
0.467751890420913696 7.22418498992919922 1.67508745193481445
-0.295070648193359375 3.12757587432861328 -0.564384639263153076
0.0803162455558776855 3.45406270027160645 -0.458481729030609131
0.169414132833480835 3.36569857597351074 -0.811384618282318115
-0.747758209705352783 3.34433555603027344 -0.187338054180145264
-1.95315921306610107 6.79527854919433594 1.72242641448974609
0.119326092302799225 3.26595950126647949 -0.610391795635223389
-1.00382018089294434 3.84628391265869141 -0.792552590370178223
-0.337358295917510986 3.65032696723937988 -0.753930151462554932
1.41712021827697754 3.37167048454284668 -0.474347829818725586
1.43474256992340088 3.76849722862243652 -0.586677849292755127
1.93495666980743408 5.71146965026855469 0.785610198974609375
0.744923591613769531 3.22850608825683594 -0.513621330261230469
-1.47301006317138672 3.56106042861938477 -0.779573261737823486
1.92131972312927246 4.97540807723999023 1.14323711395263672
1.35336422920227051 2.95276761054992676 -0.662786781787872314
-1.79925811290740967 3.47643518447875977 -0.131802141666412354
-1.29664301872253418 3.53825068473815918 -0.457686364650726318
-1.66033017635345459 3.44261002540588379 -0.528544902801513672
0.575232148170471191 3.37317299842834473 -0.588132679462432861
1.84225571155548096 7.21952962875366211 1.75168991088867188
0.809267282485961914 3.11852169036865234 -0.614954352378845215
-0.302413403987884521 7.38429450988769531 2.00079345703125
0.584080815315246582 3.3418424129486084 -0.518123626708984375
-1.39208471775054932 3.9968726634979248 1.8455052375793457
1.95910835266113281 4.44297266006469727 -0.347389757633209229
0.0511316284537315369 3.3766474723815918 -0.591237008571624756
-0.901145040988922119 3.76377367973327637 -0.77420496940612793
-1.62713134288787842 3.52838730812072754 -0.0213702898472547531
-0.649613261222839355 3.44677972793579102 -0.617868304252624512
2.50469017028808594 6.94670534133911133 1.97657442092895508
-1.4482043981552124 1.94076919555664062 0.0442525781691074371
0.406613945960998535 6.95435190200805664 2.06472873687744141
2.02261447906494141 4.13573408126831055 -0.569056332111358643
0.207644134759902954 2.41529488563537598 1.9320371150970459
-0.451414763927459717 3.46972560882568359 -0.797764122486114502
1.26062321662902832 6.79077053070068359 2.02564239501953125
1.75673937797546387 6.87727642059326172 2.06480884552001953
1.08864283561706543 5.10719394683837891 1.35262823104858398
-1.83812165260314941 3.4950263500213623 -0.374217748641967773
-1.55009734630584717 7.08880615234375 1.97454690933227539
-2.5888831615447998 6.17545890808105469 1.38708257675170898
0.693543076515197754 2.69932818412780762 0.638984620571136475
-0.405327260494232178 3.14026498794555664 -0.43139183521270752
-0.665542542934417725 3.58378362655639648 -0.791813015937805176
-1.16472244262695312 7.33160686492919922 1.98680686950683594
1.45339059829711914 4.63149738311767578 1.0192866325378418
-1.2806694507598877 3.56798768043518066 -0.509623706340789795
-0.523769795894622803 7.63665485382080078 1.97115325927734375
-0.210474610328674316 3.24117493629455566 -0.786874890327453613
0.199361234903335571 4.75842714309692383 1.29884719848632812
2.4826502799987793 6.68709754943847656 1.92457842826843262
-0.449114769697189331 3.66504859924316406 -0.486146152019500732
-0.95857161283493042 3.69981694221496582 -0.612576186656951904
0.862711548805236816 3.51395630836486816 -0.692497551441192627
-0.235061019659042358 3.19989132881164551 -0.778740227222442627
-0.904621124267578125 2.96841835975646973 2.13500332832336426
1.82526910305023193 4.61587858200073242 -0.71862107515335083
-0.738895416259765625 7.13440656661987305 2.05168271064758301
1.04800152778625488 4.39584922790527344 1.11600303649902344
1.6309208869934082 3.68654608726501465 -0.580006778240203857
-0.936009824275970459 3.37324786186218262 -0.0296006780117750168
-0.181635916233062744 5.01279830932617188 1.3012387752532959
-1.85982024669647217 3.79170608520507812 -0.601211488246917725
-0.627385258674621582 3.6676185131072998 -0.544373273849487305
0.0457700416445732117 6.98973751068115234 1.99414980411529541
1.49836385250091553 4.11441373825073242 -0.788058757781982422
-0.668783843517303467 3.74283599853515625 -0.801555097103118896
0.652372658252716064 5.63446235656738281 1.53845334053039551
-1.47320032119750977 3.40542864799499512 -0.160105645656585693
-2.40189766883850098 1.81462836265563965 0.241393864154815674
-1.8394620418548584 3.32753944396972656 -0.758790910243988037
-1.37607181072235107 3.5299217700958252 -0.790935039520263672
1.06907081604003906 7.04340696334838867 2.03939008712768555
-0.810218334197998047 1.276542067527771 -0.763809680938720703
1.62677955627441406 4.26295804977416992 -0.376917243003845215
-1.22402119636535645 5.8573918342590332 1.58633923530578613
1.31562173366546631 1.82331538200378418 1.47888469696044922
0.830578207969665527 3.37735915184020996 -0.520131886005401611
0.316911041736602783 6.64623355865478516 1.88906288146972656
0.171790778636932373 3.3416450023651123 -0.792828738689422607
-0.130226492881774902 3.30064487457275391 -0.56399458646774292
-1.62857520580291748 3.50062704086303711 -0.487567335367202759
-0.402675509452819824 3.64693236351013184 -0.692016005516052246
2.29577136039733887 4.77440690994262695 -0.661931633949279785
1.3694537878036499 3.81802153587341309 -0.497916221618652344
1.52273309230804443 3.49423980712890625 -0.473490893840789795
0.563033580780029297 7.12333202362060547 2.03576874732971191
-0.157397866249084473 3.42366623878479004 -0.803960800170898438
0.85501563549041748 3.34232115745544434 -0.544326364994049072
1.53386962413787842 3.33116531372070312 -0.558704912662506104
-1.53980278968811035 3.45620560646057129 -0.00587564427405595779
-2.1084597110748291 3.91136622428894043 -0.0147392721846699715
2.29217982292175293 4.499420166015625 -0.29257887601852417
-1.18312716484069824 3.53002834320068359 -0.49107775092124939
2.0307929515838623 3.18438816070556641 -0.144632399082183838
-0.0424555204808712006 3.3155066967010498 -0.79639965295791626
-0.680114328861236572 3.18866443634033203 -0.11238783597946167
-1.84004676342010498 5.46657133102416992 1.24815082550048828
-0.946761548519134521 6.95884609222412109 1.5247807502746582
-2.98960208892822266 4.69254684448242188 2.02676630020141602
0.155432596802711487 3.13960576057434082 -0.368652909994125366
-1.11985719203948975 3.41473507881164551 -0.839125335216522217
-0.000491409678943455219 3.32960176467895508 -0.615487754344940186
-1.07437980175018311 3.79208588600158691 -0.777577757835388184
0.158738553524017334 2.42357587814331055 -0.868655622005462646
1.60609221458435059 4.25050640106201172 -0.628405749797821045
2.06781816482543945 6.45349693298339844 1.96321630477905273
1.73270869255065918 4.30544376373291016 -0.648529112339019775
-0.379671365022659302 3.01477980613708496 -0.448339283466339111
0.287184059619903564 7.53749275207519531 2.00728869438171387
1.37285912036895752 4.30207347869873047 0.918147504329681396
-1.45904326438903809 3.53188538551330566 -0.550019919872283936
-1.19763600826263428 3.51770710945129395 -0.675690233707427979
-0.0700380429625511169 7.25090885162353516 2.03201079368591309
-0.0268923696130514145 3.15790390968322754 -0.550234079360961914
-0.207027271389961243 3.42882966995239258 -0.435409426689147949
2.00017786026000977 4.57011032104492188 -0.537149786949157715
1.07197284698486328 3.3233180046081543 -0.589285194873809814
1.32946169376373291 0.875452816486358643 -0.117890059947967529
-1.84515857696533203 3.43658351898193359 -0.128643333911895752
-0.987897276878356934 3.66490602493286133 -0.619527459144592285
-0.440616190433502197 3.37261700630187988 -0.784605741500854492
-1.8168560266494751 3.51882052421569824 -0.261742353439331055
0.620306253433227539 3.42458724975585938 -0.515601575374603271
1.80821657180786133 7.23310470581054688 1.99529719352722168
0.0923549607396125793 3.42597174644470215 -0.596285462379455566
-2.10722088813781738 3.5155184268951416 -0.330727130174636841
0.538481593132019043 3.34564900398254395 -0.507184147834777832
-0.566027939319610596 5.38366270065307617 1.28432607650756836
-1.84912073612213135 3.48975443840026855 0.171703457832336426
2.42132973670959473 0.835215866565704346 3.30730104446411133
-0.00861162785440683365 3.22439360618591309 -0.786102890968322754
-0.323035508394241333 3.6302950382232666 -0.721284091472625732
1.88188731670379639 4.40101099014282227 -0.608139872550964355
0.640160501003265381 3.27313494682312012 -0.506550788879394531
