ply
format ascii 1.0
element vertex 34
comment vertices
property float x
property float y
property float z
end_header
-1.40652942657470703 3.15311789512634277 -0.453342229127883911
0.27040630578994751 2.55583620071411133 -0.415637403726577759
0.497324466705322266 2.53174948692321777 -0.417117774486541748
0.179356470704078674 2.4741673469543457 -0.414596498012542725
0.373905658721923828 2.52884221076965332 -0.488937705755233765
0.257895320653915405 2.67894721031188965 -0.567443192005157471
0.254634290933609009 2.58663105964660645 -0.424246877431869507
0.0102933328598737717 2.41851210594177246 -0.4781838059425354
0.231611967086791992 2.44542336463928223 -0.574081003665924072
0.254241675138473511 2.67690253257751465 -0.614149749279022217
0.0205933470278978348 2.55431294441223145 -0.541744530200958252
0.538740038871765137 2.55388617515563965 -0.454133331775665283
0.137293070554733276 2.38328099250793457 -0.501768946647644043
0.170121088624000549 2.44617056846618652 -0.495698481798171997
-1.25810050964355469 3.04005074501037598 -0.48124578595161438
0.199754610657691956 2.35775351524353027 -0.520839095115661621
0.308052897453308105 2.43564748764038086 -0.47911834716796875
0.531162500381469727 2.54635357856750488 -0.492099910974502563
0.0680292323231697083 2.76847672462463379 -0.386042475700378418
1.61797904968261719 3.23853302001953125 -0.683524549007415771
0.0162221882492303848 2.55417704582214355 -0.456376522779464722
0.25348430871963501 2.38610529899597168 -0.471020162105560303
0.496940881013870239 2.50405573844909668 -0.460953265428543091
0.221928000450134277 2.47669625282287598 -0.419078648090362549
0.0339685939252376556 2.4406130313873291 -0.437060117721557617
0.0600847825407981873 2.44642281532287598 -0.47545933723449707
0.351636260747909546 2.41261720657348633 -0.531116485595703125
0.348144650459289551 2.40958786010742188 -0.473556458950042725
0.0456255488097667694 2.52608895301818848 -0.411218583583831787
0.0460734330117702484 2.47099471092224121 -0.55064159631729126
0.251513928174972534 2.58358931541442871 -0.572726070880889893
0.171726778149604797 2.47663974761962891 -0.480279326438903809
0.378720134496688843 2.51929211616516113 -0.346786260604858398
-0.00812705140560865402 2.4853670597076416 -0.451081216335296631
