ply
format ascii 1.0
element vertex 256
comment vertices
property float x
property float y
property float z
end_header
0.515916347503662109 2.43980574607849121 -0.637459278106689453
-0.0493515729904174805 2.69105434417724609 1.7312324047088623
4.12404203414916992 2.80014991760253906 0.75618445873260498
-2.3063511848449707 3.91980504989624023 0.0174896121025085449
1.81982910633087158 1.60011768341064453 -0.218032717704772949
0.701709330081939697 -0.192167520523071289 0.560441315174102783
2.86604022979736328 4.69922780990600586 -0.349406063556671143
-0.963386476039886475 2.41140604019165039 -0.542348980903625488
3.14668035507202148 2.06833696365356445 1.97827720642089844
2.33555388450622559 2.88381075859069824 -0.799584865570068359
-1.25381708145141602 2.45356440544128418 -0.590331375598907471
0.430729269981384277 1.90938568115234375 -0.512323379516601562
0.751409947872161865 2.60580754280090332 -0.338643819093704224
-0.644268810749053955 5.23904943466186523 2.17302656173706055
0.368525654077529907 2.5585479736328125 -0.646817684173583984
1.34289228916168213 3.25368642807006836 -0.88306272029876709
-1.19889438152313232 2.90586209297180176 -0.401210784912109375
2.14286112785339355 5.49100255966186523 -0.777565121650695801
-2.19911599159240723 3.10885810852050781 -0.795680642127990723
4.02289485931396484 2.10093307495117188 1.73473048210144043
-0.508176088333129883 2.50957345962524414 -0.57661283016204834
1.75087487697601318 2.90546321868896484 -0.733672738075256348
-0.200805619359016418 2.43702602386474609 -0.588452339172363281
0.73910057544708252 2.91984844207763672 -0.840437352657318115
-2.23055362701416016 2.98967695236206055 -0.277039140462875366
1.40750324726104736 2.91667413711547852 -0.736609280109405518
1.03575074672698975 2.89541029930114746 -0.687604784965515137
-0.219087228178977966 2.36168050765991211 -0.582108497619628906
-1.29644870758056641 2.57413530349731445 -0.546489536762237549
0.561336338520050049 2.61359095573425293 -0.808154523372650146
1.05690383911132812 1.61834418773651123 -0.411781907081604004
2.38144278526306152 1.49961566925048828 0.536984443664550781
-0.422724813222885132 2.53279256820678711 -0.147329032421112061
-1.49745440483093262 2.8890070915222168 -0.550012946128845215
1.15308189392089844 2.65308284759521484 -0.357498466968536377
-0.0703610405325889587 2.41849255561828613 -0.617189526557922363
-1.98806118965148926 0.837388753890991211 0.799457848072052002
2.01501178741455078 2.88010954856872559 -0.908110499382019043
1.5457913875579834 -0.937072515487670898 1.72785282135009766
-1.66694891452789307 2.24684810638427734 -0.537317872047424316
-2.16171097755432129 3.49790072441101074 -0.643481612205505371
1.44635689258575439 2.96355438232421875 -0.401725113391876221
0.169430658221244812 2.46821236610412598 -0.161577522754669189
-0.638787329196929932 2.59942722320556641 -0.583840429782867432
-1.79947459697723389 3.41732287406921387 -0.472954750061035156
0.976751506328582764 2.9825439453125 -0.759009480476379395
0.441996395587921143 2.61533212661743164 -0.558154940605163574
2.03577852249145508 3.21413373947143555 -0.176933169364929199
1.82599449157714844 2.9491734504699707 -0.625789821147918701
-0.0521554797887802124 2.54461979866027832 -0.610718250274658203
0.18721461296081543 2.96618795394897461 3.08059906959533691
0.345291167497634888 2.50854015350341797 -0.616959929466247559
1.33419084548950195 4.33763933181762695 0.0473167896270751953
2.84626483917236328 2.1936192512512207 2.48824429512023926
-0.621254265308380127 2.42803287506103516 -0.541776597499847412
1.85017037391662598 2.95573973655700684 -0.821246862411499023
0.720234394073486328 2.75134682655334473 -0.759084165096282959
0.194754987955093384 2.25336575508117676 -0.636847138404846191
0.288953632116317749 2.41527032852172852 -0.347168713808059692
-0.294775724411010742 4.59297847747802734 1.39218831062316895
1.17648696899414062 2.88089156150817871 -0.609153807163238525
2.20577859878540039 2.84664821624755859 -0.572348117828369141
-2.37498784065246582 3.8724825382232666 -0.330324769020080566
-1.70276916027069092 2.64080429077148438 -0.729519963264465332
-0.947526872158050537 2.44834709167480469 -0.615325808525085449
-0.385350853204727173 2.31631851196289062 -0.570992887020111084
0.652463436126708984 2.78633022308349609 -0.194928884506225586
-0.617530226707458496 2.60291862487792969 -0.369684040546417236
0.957746684551239014 2.89979028701782227 -0.807395100593566895
-1.93769586086273193 3.94144582748413086 -0.378313332796096802
-0.0574471913278102875 2.48047256469726562 -0.590187609195709229
0.964415788650512695 2.84095978736877441 -0.795473814010620117
1.4969404935836792 2.81644654273986816 -0.575764298439025879
-0.824027359485626221 2.57593727111816406 -0.595805823802947998
-1.12622976303100586 2.51626276969909668 -0.453852593898773193
1.41611635684967041 2.99206972122192383 -0.789772152900695801
0.697433590888977051 2.91847872734069824 -0.824477910995483398
0.7656097412109375 2.84181737899780273 -0.608720898628234863
-1.15112888813018799 2.54522609710693359 -0.589113235473632812
2.54236125946044922 4.55444526672363281 -0.47244378924369812
-0.627293765544891357 2.25678777694702148 -0.624615967273712158
0.328704804182052612 2.46818256378173828 -0.638103604316711426
-0.887474894523620605 2.51937150955200195 -0.57976233959197998
-1.27060890197753906 3.25569009780883789 -0.182791352272033691
-0.790541708469390869 2.62672209739685059 -0.282695084810256958
1.44122254848480225 3.10274410247802734 0.327551186084747314
0.545797824859619141 2.50028085708618164 -0.78669273853302002
-1.24357688426971436 2.64556145668029785 -0.52487492561340332
-0.225261688232421875 2.39545941352844238 -0.369357526302337646
-1.44628190994262695 2.81768512725830078 -0.35104900598526001
-1.97081267833709717 3.81849336624145508 0.0310661196708679199
-1.84747755527496338 3.09398531913757324 -0.749533414840698242
2.07229137420654297 2.82660913467407227 -0.613253772258758545
-0.0851033031940460205 2.47618603706359863 -0.318323045969009399
1.44397878646850586 2.99257111549377441 -0.730458676815032959
1.62340843677520752 3.05958461761474609 -0.865530967712402344
-0.817354559898376465 0.918217658996582031 0.126160621643066406
-0.378770232200622559 2.54819250106811523 -0.588136792182922363
1.13366138935089111 3.11789321899414062 -0.0730842947959899902
0.926878392696380615 2.94525766372680664 -0.824612259864807129
1.97179710865020752 2.88155794143676758 -0.793340086936950684
-2.17213201522827148 3.78259468078613281 -0.163420349359512329
1.20651364326477051 3.06049251556396484 -0.840007543563842773
0.271641016006469727 2.56194210052490234 -0.56892549991607666
0.691098511219024658 2.62238311767578125 -0.690020859241485596
-1.53551483154296875 3.39859318733215332 -0.410459935665130615
-0.290186256170272827 2.51061487197875977 -0.565625905990600586
0.602149367332458496 2.60823464393615723 -0.671720385551452637
0.126429125666618347 2.45988321304321289 -0.528813660144805908
1.75227415561676025 3.46200084686279297 0.265842795372009277
-0.891487956047058105 2.73134541511535645 -0.237676084041595459
2.1565253734588623 2.9756467342376709 -0.93416905403137207
1.17136991024017334 2.8089749813079834 -0.654881298542022705
1.73533082008361816 2.97393512725830078 -0.44519457221031189
0.954847037792205811 3.09517621994018555 -0.848060727119445801
3.10643482208251953 4.20247507095336914 -0.590975761413574219
2.1670072078704834 2.97182703018188477 -0.562007665634155273
2.43093466758728027 5.91086530685424805 -0.201422572135925293
-0.323973178863525391 2.61882996559143066 -0.548105835914611816
-0.54833686351776123 2.56068992614746094 -0.658015966415405273
-0.984874606132507324 2.51633214950561523 -0.593748390674591064
0.178523853421211243 2.32680273056030273 -0.720112323760986328
1.25926721096038818 2.95628452301025391 -0.639907419681549072
0.481914281845092773 2.40968132019042969 -0.350295662879943848
0.259851455688476562 2.42392396926879883 -0.604532301425933838
0.647639572620391846 -0.530779361724853516 0.895317256450653076
1.16190075874328613 3.06515336036682129 -0.395394265651702881
-0.115717522799968719 2.31965041160583496 -0.620823085308074951
1.1961134672164917 2.90730667114257812 -0.732741832733154297
0.0489627346396446228 2.59901618957519531 -0.63374030590057373
-0.901936471462249756 2.41483259201049805 -0.589680075645446777
1.91074955463409424 2.84161257743835449 -0.690192937850952148
0.476037263870239258 2.41261148452758789 -0.612605094909667969
0.358910590410232544 2.51664829254150391 -0.201720952987670898
0.732496261596679688 2.72167801856994629 -0.643096446990966797
0.382993370294570923 2.72821903228759766 2.65894579887390137
1.67885184288024902 3.17480230331420898 -0.706281661987304688
-0.679528772830963135 2.39529275894165039 -0.55668485164642334
-0.0532212294638156891 2.3680880069732666 -0.339341342449188232
0.919217467308044434 2.62164688110351562 -0.798387646675109863
-0.342408746480941772 2.45397281646728516 -0.596018552780151367
0.00439682789146900177 2.36934208869934082 -0.552606701850891113
0.610830485820770264 2.89347219467163086 -0.806035757064819336
0.571477413177490234 2.30414748191833496 -0.4354991614818573
-1.53680145740509033 2.89144515991210938 -0.660100698471069336
-1.21834290027618408 2.42150282859802246 -0.546037614345550537
1.60087907314300537 2.82585954666137695 -0.738133549690246582
-1.70851337909698486 2.95220661163330078 -0.580786347389221191
0.865227878093719482 2.69083356857299805 -0.361724317073822021
1.87488305568695068 3.04832649230957031 -0.88707202672958374
0.81029057502746582 2.67095637321472168 -0.73580777645111084
1.60461115837097168 2.92485475540161133 -0.792396008968353271
0.0542609319090843201 2.32012796401977539 -0.634795665740966797
-0.68238455057144165 2.57181572914123535 -0.577930629253387451
0.792026162147521973 1.63126671314239502 -0.542363405227661133
1.24106156826019287 2.74927663803100586 -0.501249372959136963
1.54494142532348633 2.9864811897277832 -0.672725081443786621
1.4409644603729248 2.95410060882568359 -0.599983096122741699
-0.921852707862854004 2.22824430465698242 -0.264648318290710449
1.02174389362335205 3.04374265670776367 -0.637316405773162842
-0.56088334321975708 2.48778462409973145 -0.55488741397857666
2.96578025817871094 3.36217308044433594 -1.05270147323608398
-0.869792044162750244 2.50632834434509277 -0.561899781227111816
0.920268714427947998 2.90496826171875 -0.548348784446716309
0.942384660243988037 3.00869894027709961 -0.820958435535430908
0.264171063899993896 2.2435908317565918 -0.346157968044281006
-1.08293676376342773 2.50764989852905273 -0.594223141670227051
0.940755248069763184 2.41632699966430664 -0.390392541885375977
0.845728456974029541 2.72679710388183594 -0.824292540550231934
1.17114472389221191 2.85163736343383789 -0.810184836387634277
-1.64909982681274414 4.14183568954467773 2.44037485122680664
-0.0767985433340072632 2.38190484046936035 -0.566061675548553467
-1.96146464347839355 3.81693363189697266 -0.26308828592300415
-0.628628313541412354 2.56390166282653809 -0.243417441844940186
-0.384298354387283325 2.24928402900695801 -0.626198768615722656
-0.598810195922851562 2.41393661499023438 -0.569259166717529297
0.260169953107833862 2.57009339332580566 -0.69024890661239624
-0.768155038356781006 2.59402680397033691 -0.557574987411499023
-1.0644456148147583 2.6712644100189209 -0.3320179283618927
-2.16328287124633789 3.83738899230957031 -0.362730920314788818
-2.74534487724304199 1.29969477653503418 0.252685844898223877
0.573429524898529053 2.56722688674926758 -0.70356297492980957
0.186962157487869263 2.46020245552062988 -0.622162163257598877
1.43569350242614746 2.86263871192932129 -0.574896812438964844
-2.14635777473449707 3.49499130249023438 -0.153988122940063477
-0.120135456323623657 2.47567915916442871 -0.622995436191558838
1.10542571544647217 3.13017177581787109 -0.825556397438049316
0.514008998870849609 2.49128413200378418 -0.557063460350036621
0.310532480478286743 2.38924741744995117 -0.664090156555175781
2.46798419952392578 -0.96912384033203125 0.796947300434112549
0.936067402362823486 2.386138916015625 -0.260084390640258789
-0.00365799618884921074 2.52593564987182617 -0.111226141452789307
-0.542701601982116699 2.59810924530029297 -0.321983367204666138
0.704732775688171387 2.73641586303710938 -0.794810056686401367
1.25891470909118652 2.52347946166992188 -0.453175008296966553
-1.19163012504577637 2.56998205184936523 -0.589126110076904297
0.669665336608886719 2.79656744003295898 -0.516441524028778076
0.720618784427642822 2.93496799468994141 -0.8096466064453125
2.05245494842529297 2.9072415828704834 -0.906148731708526611
-0.401011347770690918 2.10794591903686523 -0.305229663848876953
-1.10481274127960205 2.4111933708190918 -0.539265036582946777
-0.28789442777633667 2.53299927711486816 -0.578694820404052734
-0.65132451057434082 1.16729974746704102 0.0116448402404785156
-1.74168884754180908 3.49146866798400879 -0.0975301265716552734
2.86295652389526367 4.60180234909057617 -0.461028814315795898
-1.10882651805877686 3.33882331848144531 -0.22256004810333252
-1.56775510311126709 2.88658928871154785 -0.64003831148147583
-0.834157884120941162 2.35264158248901367 -0.620694816112518311
-2.39662432670593262 1.76336359977722168 0.0353919267654418945
1.35330808162689209 3.24066281318664551 0.168827235698699951
-0.796204090118408203 2.35562562942504883 -0.601222395896911621
0.141989290714263916 2.42638349533081055 -0.618739902973175049
-1.72627747058868408 3.15868973731994629 -0.645575821399688721
-2.10991501808166504 4.03750991821289062 0.0172096490859985352
1.18572878837585449 2.9225153923034668 -0.745455682277679443
1.68054711818695068 3.0202336311340332 -0.803447604179382324
-1.06759214401245117 2.51442289352416992 -0.58082735538482666
0.0571754835546016693 2.40109491348266602 -0.580509603023529053
1.19499695301055908 2.98152589797973633 -0.731695652008056641
0.153748571872711182 2.41861295700073242 -0.593551933765411377
2.0592646598815918 2.87895298004150391 -0.690260350704193115
1.64522910118103027 3.03072834014892578 0.294344007968902588
1.88466691970825195 2.91943454742431641 -0.533505082130432129
-1.08667325973510742 2.50811004638671875 -0.568182587623596191
-0.440666347742080688 2.49619531631469727 -0.234888195991516113
1.20368051528930664 2.81576442718505859 0.0964764952659606934
-2.01863336563110352 3.79382872581481934 -0.513487100601196289
-1.28472399711608887 2.65152931213378906 -0.450713485479354858
0.116056352853775024 2.39491653442382812 -0.363454520702362061
1.37119626998901367 3.010711669921875 -0.630982756614685059
1.41630792617797852 3.11133527755737305 -0.826256513595581055
0.327776938676834106 2.53498125076293945 -0.543122708797454834
0.946388304233551025 2.98227882385253906 -0.806100428104400635
1.93458521366119385 3.42602038383483887 0.267625927925109863
-1.35129392147064209 2.54915738105773926 -0.574699878692626953
2.60663533210754395 5.1406707763671875 -0.230744451284408569
1.4973524808883667 2.96252012252807617 2.018524169921875
1.39967715740203857 2.90356040000915527 -0.708210110664367676
-1.37704718112945557 2.81674790382385254 -0.454762637615203857
-0.474944174289703369 2.59198331832885742 -0.589499235153198242
-0.557074010372161865 2.29272055625915527 -0.564032554626464844
-0.424823999404907227 2.35643386840820312 -0.583627998828887939
-2.35189032554626465 3.96789288520812988 -0.395376116037368774
-1.51677584648132324 2.87264227867126465 -0.414987862110137939
0.469730466604232788 2.38644051551818848 -0.610452055931091309
-1.81449782848358154 3.62635183334350586 -0.201385319232940674
1.41481411457061768 2.89867830276489258 -0.771379232406616211
-1.33363807201385498 3.21237635612487793 -0.331828296184539795
2.85733747482299805 5.62302303314208984 -0.599039435386657715
-0.316491752862930298 2.5312495231628418 -0.330918222665786743
0.492596566677093506 2.3536369800567627 -0.334157109260559082
1.7046668529510498 2.82945942878723145 -0.595415174961090088
-2.3902280330657959 3.89325141906738281 -0.131473630666732788
-0.00788559392094612122 2.35854148864746094 -0.571068406105041504
1.95483756065368652 -0.923325300216674805 1.2572169303894043
-1.9689178466796875 0.83166050910949707 0.0433276891708374023
