ply
format ascii 1.0
element vertex 256
comment vertices
property float x
property float y
property float z
end_header
-0.652152895927429199 2.20741057395935059 -0.816872715950012207
4.70396518707275391 3.6514892578125 2.81643414497375488
3.23380374908447266 4.44655179977416992 -0.803244829177856445
-1.48813176155090332 2.07267570495605469 2.14469814300537109
-0.119988963007926941 4.56192255020141602 -0.719797670841217041
1.87353014945983887 3.81678056716918945 2.04115772247314453
2.50298094749450684 1.43762493133544922 0.119167447090148926
1.76141214370727539 3.04494094848632812 -0.676515519618988037
-1.24446582794189453 2.0767214298248291 0.198655426502227783
2.20315384864807129 2.56834888458251953 3.16090941429138184
-1.43497145175933838 4.5623927116394043 -0.387300670146942139
1.4446876049041748 4.01553201675415039 -0.519434213638305664
0.213223680853843689 5.03259086608886719 -0.416947543621063232
-0.782394111156463623 0.223317146301269531 -0.863901495933532715
-0.706361234188079834 3.4218904972076416 -0.554154396057128906
3.2574455738067627 4.76844310760498047 -0.295351505279541016
0.863155245780944824 2.4271388053894043 -0.903003334999084473
2.39727616310119629 3.38735628128051758 -0.782351911067962646
3.38833761215209961 3.72114467620849609 1.88523769378662109
0.427797168493270874 2.71315693855285645 -0.65157085657119751
-1.05685436725616455 4.61382436752319336 0.343898594379425049
-0.617701590061187744 4.71081256866455078 1.55187106132507324
0.680144667625427246 3.16845798492431641 1.83669328689575195
-0.679786980152130127 4.39733123779296875 -0.470875203609466553
2.42713618278503418 4.57109737396240234 -0.633291482925415039
2.23076105117797852 2.27293729782104492 -0.821601450443267822
-3.37256908416748047 3.39101862907409668 0.860642790794372559
-0.464373260736465454 5.18826389312744141 -0.38142886757850647
-0.126182064414024353 2.79470372200012207 -0.846358776092529297
1.22751963138580322 4.19670391082763672 -0.299236714839935303
-0.821008861064910889 2.34706950187683105 -0.359609305858612061
0.440432459115982056 4.53674840927124023 -0.621018469333648682
1.06486225128173828 3.67976951599121094 -0.642666935920715332
-0.718464255332946777 5.35528373718261719 0.236497104167938232
-0.894359290599822998 1.85947966575622559 -0.57170712947845459
2.54320359230041504 1.06891298294067383 0.41160506010055542
-0.0420844703912734985 3.56124734878540039 -0.727228939533233643
4.35071468353271484 2.51138782501220703 2.04371261596679688
1.93249833583831787 3.68482494354248047 2.89257025718688965
2.77455639839172363 3.45708799362182617 -0.337559700012207031
-0.82529449462890625 5.07458353042602539 -0.656811416149139404
2.29605674743652344 4.38192510604858398 -0.192876577377319336
-0.917512834072113037 3.16558933258056641 -0.364099413156509399
-0.973402976989746094 3.21323966979980469 -0.679521381855010986
3.23078060150146484 4.89255094528198242 -0.637940287590026855
1.30025410652160645 1.48277425765991211 0.817555606365203857
1.07440459728240967 2.62403297424316406 -0.864110469818115234
0.113569915294647217 2.64405488967895508 -0.770020008087158203
1.5728379487991333 2.36339831352233887 -0.80578005313873291
-0.945410609245300293 5.05869245529174805 -0.0763917267322540283
0.320908069610595703 4.07375717163085938 -0.668551445007324219
0.339956164360046387 2.57784056663513184 -0.808016955852508545
0.0791010260581970215 3.66013097763061523 1.64371442794799805
0.235732272267341614 4.64745521545410156 -0.601491570472717285
-1.09222292900085449 3.67731046676635742 0.560619771480560303
-1.04161083698272705 4.17582082748413086 -0.321736276149749756
1.79789936542510986 4.14864730834960938 -0.356116622686386108
2.54372668266296387 3.53043842315673828 2.42594718933105469
1.00735962390899658 4.19562005996704102 -0.541143298149108887
-0.595554172992706299 4.39168596267700195 -0.621537685394287109
-0.944439947605133057 2.00018668174743652 -0.288988232612609863
0.707845687866210938 2.811767578125 2.6634521484375
2.45621562004089355 3.90822029113769531 -0.733168601989746094
-0.333528220653533936 3.97309732437133789 -0.742923974990844727
3.71587085723876953 5.09669971466064453 -0.765058040618896484
-0.849021613597869873 1.71939432621002197 -0.925589561462402344
1.36898219585418701 5.56890487670898438 1.12849712371826172
-0.381103307008743286 5.23074865341186523 -0.498235344886779785
-0.851441144943237305 3.16817426681518555 -0.58599555492401123
0.915112912654876709 4.3355555534362793 -0.591114401817321777
1.29780733585357666 4.63542556762695312 -0.13147735595703125
-0.959064900875091553 4.58782625198364258 -0.00305408239364624023
2.09055328369140625 2.90604972839355469 -0.766944050788879395
1.66008150577545166 3.78615856170654297 -0.696427822113037109
-0.0504502691328525543 4.41174983978271484 -0.638939142227172852
-0.846892893314361572 2.00905227661132812 -0.738006353378295898
2.75682306289672852 4.75999593734741211 -0.493660688400268555
-0.987330019474029541 3.67023038864135742 -0.162029623985290527
1.70128905773162842 2.95686554908752441 -0.757439136505126953
-1.36122548580169678 5.39974308013916016 0.193498015403747559
-0.290324568748474121 5.14129734039306641 -0.70602107048034668
1.76134943962097168 4.68447208404541016 -0.290481448173522949
0.740953981876373291 4.72448062896728516 -0.290159225463867188
0.451978415250778198 4.29426908493041992 -0.402318090200424194
-0.0149829825386404991 2.9123237133026123 -0.672654151916503906
-0.170622602105140686 2.95011377334594727 -0.757761597633361816
-0.820647478103637695 2.49841213226318359 -0.267826437950134277
-0.905553519725799561 2.63844633102416992 -0.117569267749786377
-0.949228107929229736 2.06538271903991699 -0.538950622081756592
-0.48407977819442749 4.16705226898193359 -0.706767380237579346
2.80252981185913086 4.78300952911376953 -0.303040742874145508
2.74460625648498535 3.78964662551879883 -0.769923865795135498
4.12946891784667969 3.72579002380371094 2.67475557327270508
-0.640187859535217285 3.51185798645019531 -0.572771787643432617
-0.641925334930419922 1.98529708385467529 -0.737405598163604736
0.0070847710594534874 5.04614543914794922 -0.60298621654510498
-0.549577057361602783 4.02611827850341797 -0.0470395088195800781
-0.680157601833343506 5.05526304244995117 0.226663053035736084
0.975365340709686279 2.6040034294128418 -0.707519650459289551
2.3471381664276123 3.73755002021789551 -0.366885483264923096
1.99184811115264893 3.98913717269897461 -0.723161697387695312
-0.233692839741706848 5.16400432586669922 -0.303083539009094238
2.31665444374084473 4.09422922134399414 -0.232606172561645508
-0.530068337917327881 3.39138507843017578 -0.716625869274139404
-0.853605270385742188 5.22413206100463867 -0.345824539661407471
0.368183374404907227 4.63412332534790039 -0.282056331634521484
0.402548551559448242 2.58570456504821777 -0.86850661039352417
-0.687624812126159668 5.33488845825195312 1.81569194793701172
0.882507681846618652 3.82648277282714844 2.50511980056762695
1.41545665264129639 2.62635469436645508 -0.768386900424957275
-0.323930263519287109 2.82947349548339844 -0.758206844329833984
-0.830130219459533691 2.17995262145996094 -0.51705479621887207
1.24860060214996338 2.5965421199798584 -0.855045437812805176
-0.0403356179594993591 4.05510663986206055 -0.718793690204620361
-0.810957908630371094 2.503753662109375 -0.263807237148284912
-0.548627078533172607 3.64747476577758789 -0.740194499492645264
0.641569972038269043 2.62491226196289062 -0.829213798046112061
-1.7432938814163208 5.36790657043457031 -0.0353215634822845459
2.23902726173400879 4.30597114562988281 -0.447234034538269043
3.935943603515625 2.41398429870605469 2.19903802871704102
0.807532846927642822 4.11011648178100586 -0.340502053499221802
0.770216286182403564 2.64417529106140137 -0.839155197143554688
-0.9882546067237854 3.93884396553039551 0.164598405361175537
1.36315774917602539 4.1398472785949707 -0.410287141799926758
-0.48540419340133667 4.80084848403930664 -0.699856817722320557
1.02850544452667236 4.25517940521240234 -0.547982692718505859
3.16697263717651367 4.91998434066772461 -0.386997044086456299
-0.597837269306182861 4.43581914901733398 -0.533021330833435059
-0.986503422260284424 5.09154224395751953 0.278655469417572021
-0.713136136531829834 4.20584583282470703 -0.299249351024627686
-0.795672237873077393 3.35777711868286133 -0.586534380912780762
-1.06253266334533691 4.10841989517211914 -0.428586810827255249
3.23472166061401367 5.1439361572265625 -0.611195862293243408
2.82976841926574707 4.86792373657226562 -0.559692561626434326
-0.650084793567657471 4.88507223129272461 -0.614647269248962402
0.0974091142416000366 2.65692520141601562 -0.779996335506439209
0.23433348536491394 2.67241334915161133 -0.752882421016693115
-1.09089875221252441 5.84401082992553711 0.848678171634674072
3.18585586547851562 4.378570556640625 -0.229598641395568848
-0.38216593861579895 4.09516716003417969 -0.707308292388916016
0.0349944829940795898 3.1988527774810791 -0.673030674457550049
-0.95673525333404541 3.15438556671142578 -0.588051438331604004
0.64524000883102417 3.40296053886413574 -0.731536865234375
-0.901089072227478027 1.84621930122375488 -0.82349085807800293
-0.748399317264556885 3.24877667427062988 -0.617451012134552002
-1.03490269184112549 4.99937677383422852 0.235395908355712891
1.58356261253356934 4.04122686386108398 -0.355070263147354126
-0.790841162204742432 2.64666652679443359 -0.278562068939208984
-0.699895620346069336 3.65635323524475098 -0.707591414451599121
0.322197884321212769 4.64021873474121094 -0.566494941711425781
-0.14674551784992218 4.92534351348876953 -0.606486678123474121
-1.02243149280548096 3.56445550918579102 0.418721556663513184
0.630224227905273438 3.48845863342285156 2.63500094413757324
-0.61024099588394165 3.65238285064697266 -0.612731993198394775
2.93177461624145508 3.50628662109375 2.42024588584899902
1.89022135734558105 2.14765119552612305 -0.810297071933746338
1.10638976097106934 5.86309146881103516 1.15514302253723145
-0.0728576183319091797 4.91920042037963867 -0.702870190143585205
1.79567933082580566 4.05430459976196289 -0.550950050354003906
1.96171092987060547 2.65786361694335938 -0.778989434242248535
1.97194421291351318 4.23841238021850586 -0.336504846811294556
-0.0717700272798538208 2.72773480415344238 -0.751159906387329102
2.44670796394348145 4.4680027961730957 -0.585866153240203857
-1.04139423370361328 3.37052059173583984 0.0322234630584716797
1.0778052806854248 4.66540908813476562 -0.218200027942657471
-0.577114760875701904 5.29523372650146484 -0.272319912910461426
-0.272842288017272949 3.36441946029663086 2.41334271430969238
-0.727337777614593506 5.08606052398681641 -0.146470576524734497
1.42359721660614014 2.55505990982055664 -0.860845565795898438
-1.03441393375396729 3.04008769989013672 -0.186212301254272461
1.07366180419921875 2.62066340446472168 -0.757291734218597412
1.63037431240081787 4.33905982971191406 -0.299198389053344727
-0.367759346961975098 4.45860004425048828 2.33865213394165039
2.07865309715270996 4.4315948486328125 -0.286461710929870605
-0.146738499402999878 3.24113655090332031 -0.734838426113128662
1.56390750408172607 4.10944128036499023 -0.530187547206878662
1.31561422348022461 2.65494370460510254 -0.65950775146484375
1.34499216079711914 3.06471896171569824 -0.738392114639282227
-0.835001468658447266 1.93942165374755859 -0.418544113636016846
-0.657408654689788818 2.22136902809143066 -1.03808236122131348
0.0409419722855091095 4.80837297439575195 -0.298501789569854736
-0.233935996890068054 2.84718990325927734 -0.761091113090515137
1.43715143203735352 4.70108938217163086 -0.257149100303649902
-0.90511012077331543 1.68004655838012695 -0.776175618171691895
0.671482324600219727 5.65451335906982422 0.892404556274414062
-0.795936405658721924 2.03770256042480469 -0.437071859836578369
-0.0406361930072307587 4.15182590484619141 -0.612869441509246826
0.112015485763549805 3.06908726692199707 -0.774158000946044922
1.73802793025970459 3.03096294403076172 -0.716078281402587891
-0.965354025363922119 5.11845874786376953 0.435290753841400146
-0.334548205137252808 2.64150333404541016 -0.747179150581359863
-0.897854864597320557 1.99418783187866211 -0.77265465259552002
0.622725367546081543 4.5410618782043457 -0.535475075244903564
0.477290421724319458 4.47769021987915039 -0.399734586477279663
-1.90919137001037598 2.68917942047119141 0.556210219860076904
1.4736400842666626 3.72725963592529297 -0.550958693027496338
1.18925344944000244 2.55133581161499023 -0.849280297756195068
1.90851390361785889 3.10861730575561523 3.05940437316894531
-1.4301220178604126 4.714630126953125 -0.133761048316955566
-0.301836878061294556 3.76090240478515625 -0.586058735847473145
2.96566915512084961 3.20571756362915039 2.72073984146118164
1.03457725048065186 1.91456747055053711 -0.248430609703063965
-0.93919980525970459 3.19401836395263672 -0.641586899757385254
2.5007326602935791 4.50333499908447266 -0.223958432674407959
2.89239859580993652 4.66347169876098633 -0.139210700988769531
-0.0758859291672706604 5.10638236999511719 -0.558910608291625977
0.770233511924743652 4.30890703201293945 -0.609048962593078613
0.712172627449035645 2.6733238697052002 -0.727362334728240967
0.851017892360687256 4.69495201110839844 -0.161320328712463379
-0.512063264846801758 5.25160980224609375 -0.0809586048126220703
-0.853119373321533203 2.49008679389953613 -0.339956164360046387
-1.21627140045166016 3.35110592842102051 0.575384140014648438
1.08995342254638672 2.678955078125 -0.834021449089050293
-0.419912666082382202 4.46709489822387695 -0.710651695728302002
1.19737017154693604 4.24327754974365234 -0.538466453552246094
0.402719438076019287 2.99756717681884766 2.67789340019226074
1.05123043060302734 4.13747358322143555 -0.388258159160614014
-0.864819765090942383 2.43983149528503418 -0.349422544240951538
3.07857584953308105 2.82038164138793945 2.18783235549926758
2.22672891616821289 4.57944202423095703 -0.645052671432495117
0.254545420408248901 4.77880716323852539 -0.551817059516906738
0.0854943618178367615 2.89798069000244141 -0.785984933376312256
-0.463633954524993896 2.35096597671508789 -0.746478378772735596
-0.614951789379119873 3.61893033981323242 -0.616252422332763672
0.241056621074676514 4.9792633056640625 -0.51399993896484375
-0.0830212980508804321 2.57367706298828125 2.8411860466003418
3.61650729179382324 2.53872013092041016 3.24342966079711914
-0.81486213207244873 2.2316443920135498 -0.321615993976593018
2.51873207092285156 4.75812387466430664 -0.567447245121002197
-0.532874703407287598 5.05342197418212891 -0.744544625282287598
-0.287399828433990479 5.14435243606567383 -0.450782060623168945
0.693554043769836426 2.69642043113708496 -0.858013510704040527
-0.520730912685394287 4.459320068359375 -0.517729997634887695
-0.848695933818817139 5.50059747695922852 0.601523339748382568
0.430119216442108154 2.62670040130615234 -0.763669490814208984
-1.3484947681427002 5.10120391845703125 -0.129507839679718018
1.67095744609832764 1.32051563262939453 0.0704971551895141602
0.451179265975952148 5.02611160278320312 -0.320766746997833252
2.01091647148132324 3.91818785667419434 -0.468103528022766113
-0.756261169910430908 3.37233614921569824 -0.549187302589416504
-1.65959644317626953 5.63891220092773438 0.278199911117553711
0.587925374507904053 2.61291360855102539 -0.834393501281738281
-0.83939051628112793 -0.398533463478088379 -1.43574023246765137
-0.817974686622619629 4.20746374130249023 -0.480271577835083008
3.15721273422241211 1.1860198974609375 0.289694845676422119
2.51140165328979492 4.60741806030273438 -0.313054680824279785
0.401406168937683105 2.84688949584960938 -0.782475590705871582
2.15611672401428223 4.52205038070678711 -0.65665745735168457
0.734535753726959229 4.20194435119628906 -0.404770165681838989
0.520752787590026855 2.61789131164550781 -0.85782092809677124
-0.728742718696594238 5.01938295364379883 -0.0216505527496337891
1.59541773796081543 2.44080615043640137 -0.827378273010253906
-1.23218357563018799 4.87690067291259766 0.255771279335021973
-0.751525044441223145 2.21227622032165527 -0.736590385437011719
-0.700522720813751221 3.65187668800354004 -0.566187858581542969
-0.85003584623336792 2.20917057991027832 -0.562010347843170166
