ply
format ascii 1.0
element vertex 17
comment vertices
property float x
property float y
property float z
end_header
1.04456543922424316 3.43504118919372559 -0.516773521900177002
0.796381831169128418 3.29267978668212891 -0.554750800132751465
0.935772716999053955 3.39234328269958496 -0.540601074695587158
0.849281013011932373 3.28424715995788574 -0.53069227933883667
0.5266571044921875 3.33458638191223145 -0.567965865135192871
0.787773370742797852 3.3382875919342041 -0.519794285297393799
0.744923591613769531 3.22850608825683594 -0.513621330261230469
0.575232148170471191 3.37317299842834473 -0.588132679462432861
0.809267282485961914 3.11852169036865234 -0.614954352378845215
0.584080815315246582 3.3418424129486084 -0.518123626708984375
0.862711548805236816 3.51395630836486816 -0.692497551441192627
0.830578207969665527 3.37735915184020996 -0.520131886005401611
0.85501563549041748 3.34232115745544434 -0.544326364994049072
1.07197284698486328 3.3233180046081543 -0.589285194873809814
0.620306253433227539 3.42458724975585938 -0.515601575374603271
0.538481593132019043 3.34564900398254395 -0.507184147834777832
0.640160501003265381 3.27313494682312012 -0.506550788879394531
