ply
format ascii 1.0
element vertex 256
comment vertices
property float x
property float y
property float z
end_header
-0.870972752571105957 3.29961538314819336 -0.80239337682723999
2.82051634788513184 6.84337520599365234 1.32761383056640625
-2.19101095199584961 3.59278297424316406 1.82666993141174316
2.11439275741577148 3.7846369743347168 -0.147378921508789062
-3.06110239028930664 2.30877447128295898 -0.988960146903991699
0.0480728968977928162 5.67575597763061523 1.6465001106262207
-0.420378148555755615 3.18559741973876953 -0.650357961654663086
1.59630846977233887 2.14005613327026367 -0.886282384395599365
2.95457673072814941 4.04627513885498047 -1.86153209209442139
-2.5912024974822998 3.89961719512939453 -0.626387536525726318
3.31763076782226562 1.19128179550170898 2.48618268966674805
-0.601096987724304199 6.52192926406860352 0.956814289093017578
1.08289444446563721 7.66066360473632812 2.01360511779785156
2.5112154483795166 4.78139400482177734 -0.885689616203308105
-2.7420964241027832 3.49865150451660156 1.89864945411682129
0.522094190120697021 2.553375244140625 -0.401516556739807129
-1.20737779140472412 2.53859376907348633 -0.442564845085144043
0.212313845753669739 3.28406858444213867 -0.632712483406066895
-1.82736420631408691 3.23446297645568848 -0.726946473121643066
1.12911570072174072 3.80032896995544434 -0.81471937894821167
2.94330620765686035 5.03318262100219727 1.1311500072479248
-1.71842992305755615 3.99480271339416504 -0.576429903507232666
1.60900449752807617 5.15121030807495117 1.26025080680847168
-0.552401423454284668 3.38186216354370117 2.40981841087341309
-0.865686178207397461 3.18236351013183594 -0.59830772876739502
2.43576264381408691 3.77580857276916504 -0.700922608375549316
0.0853567942976951599 7.43468952178955078 2.0345606803894043
-1.07875907421112061 3.24898815155029297 2.0743255615234375
0.651626169681549072 3.27773189544677734 -0.817917406558990479
1.13292515277862549 3.96663689613342285 -0.549484372138977051
0.106294974684715271 4.51450490951538086 -0.247848868370056152
1.634116530418396 4.15179777145385742 -0.851740777492523193
2.31844949722290039 7.10168123245239258 2.00795197486877441
-0.357031852006912231 3.72004294395446777 -0.277671992778778076
0.237464547157287598 3.64083051681518555 -0.824017167091369629
-0.596451401710510254 3.19577288627624512 -0.599326729774475098
-2.61627316474914551 3.75782275199890137 -0.524335861206054688
-1.14441514015197754 2.90560150146484375 2.21422100067138672
-0.703040182590484619 5.764312744140625 1.50281310081481934
-1.90552949905395508 3.99199175834655762 -0.472726881504058838
0.781395614147186279 6.65955448150634766 2.05816268920898438
0.893124520778656006 4.14027643203735352 -0.848423659801483154
1.09988713264465332 1.09710216522216797 0.18105471134185791
0.409811735153198242 3.15456867218017578 -0.526572346687316895
-1.07296133041381836 3.44471096992492676 -0.43818819522857666
-0.182191565632820129 3.25681328773498535 -0.787604331970214844
-1.96534848213195801 4.02441167831420898 -0.692687869071960449
-0.138526737689971924 3.26041078567504883 -0.597830593585968018
-1.49028158187866211 3.5650792121887207 -0.721320509910583496
1.74779343605041504 3.9490504264831543 -0.63008040189743042
2.06176161766052246 7.75402307510375977 1.97101950645446777
-1.21102273464202881 3.54362893104553223 -0.71904146671295166
-1.09269344806671143 6.5863800048828125 1.54873371124267578
3.4798581600189209 4.58439779281616211 -0.672828137874603271
2.69280505180358887 2.85934019088745117 -0.0699704885482788086
1.7936321496963501 3.98130035400390625 -0.805470705032348633
0.296562880277633667 3.06432247161865234 -0.635786056518554688
0.55967479944229126 3.28005504608154297 -0.737917602062225342
2.16312289237976074 3.78156113624572754 -0.84396892786026001
1.64879989624023438 7.33766746520996094 2.10244846343994141
-3.34553670883178711 1.40052461624145508 0.0153768062591552734
0.504523217678070068 7.49338960647583008 1.74466800689697266
2.29270625114440918 5.07518672943115234 1.19366669654846191
0.276278972625732422 3.75205421447753906 -0.271851897239685059
1.64556002616882324 4.02460908889770508 -0.811832666397094727
-1.03551387786865234 3.3473358154296875 -0.604497551918029785
0.613343954086303711 4.60023117065429688 2.06815338134765625
2.40804743766784668 3.89747333526611328 -0.820439696311950684
-0.507745862007141113 6.67144584655761719 1.67964577674865723
1.07812774181365967 3.96757793426513672 -0.754671454429626465
-1.09073197841644287 3.09184646606445312 -0.60182654857635498
-0.373679906129837036 3.29264092445373535 -0.595223069190979004
-2.18113946914672852 4.10776948928833008 -0.670195102691650391
-0.0839101448655128479 5.26363849639892578 1.15099811553955078
-0.0448853224515914917 6.51038360595703125 1.29639792442321777
-0.664998054504394531 3.39007329940795898 -0.624619066715240479
-2.54665851593017578 4.09597015380859375 -0.613388717174530029
0.94760209321975708 4.11535453796386719 -0.567693233489990234
0.791979491710662842 4.72728633880615234 1.15614557266235352
-2.45684909820556641 4.04146766662597656 -0.589202582836151123
1.75404739379882812 3.56304454803466797 -0.567915797233581543
-0.172439426183700562 3.21207308769226074 -0.317209333181381226
1.02882003784179688 3.8475031852722168 -0.828594446182250977
0.617174863815307617 7.28762149810791016 2.0428011417388916
-0.0231191776692867279 2.46892976760864258 -0.556854486465454102
1.48124432563781738 7.90181112289428711 2.05883312225341797
1.96063971519470215 2.4820098876953125 -0.506742715835571289
0.967134714126586914 3.50548505783081055 -0.377609074115753174
2.18664741516113281 4.03316164016723633 -0.864425480365753174
0.405592173337936401 4.32257843017578125 1.10770559310913086
-0.875637650489807129 3.59802389144897461 -0.368330657482147217
-3.60395526885986328 4.78903388977050781 1.65413331985473633
-1.72063136100769043 3.40771102905273438 -0.023956298828125
0.645680248737335205 3.65461969375610352 -0.686280965805053711
-2.11074328422546387 4.06635665893554688 -0.571418523788452148
1.25194239616394043 6.96829366683959961 2.03813672065734863
-0.932099044322967529 3.22029376029968262 -0.533071398735046387
-1.4380946159362793 3.2299799919128418 -0.577707290649414062
0.237157717347145081 3.23310661315917969 -0.665745019912719727
1.59750568866729736 4.00174140930175781 -0.757626473903656006
1.47241890430450439 4.26595354080200195 -0.853610575199127197
-0.684369027614593506 3.12816023826599121 -0.768035054206848145
-0.203155755996704102 3.14872121810913086 -0.623017549514770508
-1.70833539962768555 4.07001924514770508 -0.70122981071472168
1.62673819065093994 3.66392946243286133 -0.247101008892059326
-0.0408025979995727539 0.693669795989990234 0.776139914989471436
2.70716357231140137 7.14935827255249023 2.02362155914306641
-0.415768861770629883 3.25780820846557617 2.15264105796813965
1.91853547096252441 6.92788839340209961 2.04817581176757812
-1.96005582809448242 4.09009790420532227 -0.652595937252044678
2.57813096046447754 2.02746868133544922 2.01051878929138184
-1.13127672672271729 5.60400724411010742 1.29710221290588379
1.25628304481506348 3.37508916854858398 1.90926384925842285
-1.46252119541168213 3.72703218460083008 -0.741078853607177734
-0.629700124263763428 3.09451007843017578 -0.504971027374267578
0.224249035120010376 3.10121870040893555 -0.674448609352111816
2.5708153247833252 3.81626200675964355 -0.147883594036102295
2.18756437301635742 3.9535219669342041 -0.738178253173828125
1.30095624923706055 4.09401369094848633 -0.60287010669708252
0.333884537220001221 6.12985134124755859 1.76809072494506836
-2.16638016700744629 4.09857082366943359 -0.721423864364624023
1.13805365562438965 5.62362766265869141 1.64246249198913574
1.38856697082519531 3.96576189994812012 -0.806401610374450684
0.718177199363708496 3.50535368919372559 -0.569127142429351807
0.0132400067523121834 3.23860883712768555 -0.637718439102172852
-1.61592328548431396 3.59366846084594727 -0.598173379898071289
-0.440945655107498169 3.37093019485473633 -0.802498340606689453
2.07924342155456543 4.78748512268066406 -0.862259209156036377
0.804709732532501221 3.97753572463989258 -0.832107484340667725
0.212088540196418762 3.18996691703796387 -0.703224480152130127
-3.38981103897094727 5.11892509460449219 1.49745416641235352
-1.28033590316772461 3.32858872413635254 -0.757633447647094727
-2.94406318664550781 4.03796291351318359 -0.420263469219207764
-1.85061931610107422 3.54630279541015625 -0.717660665512084961
0.980297088623046875 5.48958587646484375 2.34662008285522461
-0.914415836334228516 3.1051948070526123 -0.518427014350891113
-0.30159914493560791 3.16542625427246094 -0.649865150451660156
1.95721614360809326 3.9288334846496582 -0.852473020553588867
1.53375303745269775 3.84911918640136719 -0.609464287757873535
-0.591014206409454346 3.03320717811584473 -0.608159005641937256
0.460319310426712036 3.14368009567260742 -0.586659669876098633
-0.464935034513473511 3.24034762382507324 -0.587253570556640625
1.2528223991394043 4.03588199615478516 -0.846261918544769287
1.28809571266174316 3.96388578414916992 -0.838163316249847412
2.0625152587890625 3.94973206520080566 -0.722036480903625488
-1.0769503116607666 3.09583282470703125 -0.755233407020568848
0.312522858381271362 6.9338068962097168 1.9923698902130127
-1.72313356399536133 3.54824709892272949 -0.746696233749389648
-1.6162039041519165 5.60954952239990234 1.12303900718688965
-1.31364035606384277 3.50536394119262695 -0.572795569896697998
1.85405123233795166 4.11077404022216797 -0.868853211402893066
2.3207395076751709 3.73243904113769531 0.0544155240058898926
-1.38031172752380371 3.79578518867492676 -0.278160929679870605
-2.25926399230957031 3.94912028312683105 -0.645522356033325195
-1.33546257019042969 3.34689474105834961 -0.621106147766113281
0.780245482921600342 3.83417510986328125 -0.570386409759521484
-2.4493260383605957 3.05657339096069336 -0.481708049774169922
0.507076084613800049 3.18580341339111328 -0.674290776252746582
0.585264623165130615 3.67405366897583008 -0.3624611496925354
2.29967188835144043 7.41216850280761719 1.9597400426864624
1.81044614315032959 4.05400466918945312 -0.413055270910263062
-3.50909662246704102 4.4419865608215332 1.44843959808349609
0.00144681893289089203 3.85442519187927246 -0.0896421670913696289
0.554594039916992188 3.08733797073364258 -0.669284462928771973
-2.84997940063476562 5.29937601089477539 1.34830617904663086
-0.0575356222689151764 3.21689820289611816 -0.567593157291412354
0.0146177774295210838 3.18471384048461914 -0.592420697212219238
2.39086818695068359 7.30162620544433594 1.67880702018737793
1.20076537132263184 3.82580232620239258 -0.847850561141967773
-0.937790811061859131 3.36167049407958984 -0.599439382553100586
-0.315566807985305786 6.74089527130126953 1.87457680702209473
0.918329954147338867 7.17044734954833984 2.06632590293884277
1.57572102546691895 3.62827634811401367 -0.743935227394104004
1.78783714771270752 2.44167804718017578 -0.839256346225738525
1.80110824108123779 7.78101730346679688 2.05041217803955078
-0.94481956958770752 3.20469999313354492 -0.555343985557556152
-0.644606947898864746 3.13166999816894531 -0.488952815532684326
0.360935688018798828 7.46332216262817383 1.98111915588378906
0.136801764369010925 3.07563066482543945 -0.458160728216171265
0.333263128995895386 3.53953456878662109 -0.639120161533355713
1.19930446147918701 7.44514179229736328 2.10046815872192383
1.30106258392333984 3.55602598190307617 -0.422606050968170166
2.37536382675170898 7.00855636596679688 1.99847269058227539
0.57738792896270752 3.6579742431640625 -0.766684889793395996
-2.10054731369018555 3.73328185081481934 -0.261651873588562012
1.88374197483062744 4.0045928955078125 -0.857092738151550293
1.98457002639770508 7.39187288284301758 2.05649423599243164
-3.41569042205810547 3.71936607360839844 1.78230452537536621
1.57990133762359619 6.94902467727661133 2.03666472434997559
-1.33593618869781494 3.85395050048828125 -0.502278685569763184
0.739197969436645508 4.36347150802612305 1.1067502498626709
1.27810633182525635 3.97160100936889648 -0.645164906978607178
1.01450026035308838 3.93161273002624512 -0.523176968097686768
-0.709559738636016846 3.27887177467346191 -0.656945586204528809
-2.16228294372558594 3.92915582656860352 -0.482481956481933594
-1.54899501800537109 3.68581247329711914 2.50088787078857422
-0.370651811361312866 7.16406011581420898 1.77443075180053711
1.40191256999969482 3.97707056999206543 -0.85212552547454834
-1.68286967277526855 3.95987510681152344 -0.709222912788391113
0.30463641881942749 3.90754842758178711 0.116827011108398438
0.709886550903320312 3.36493539810180664 -0.832844018936157227
1.98864376544952393 4.73843002319335938 0.839213132858276367
-1.35745573043823242 5.83582448959350586 1.14972615242004395
0.876715600490570068 3.82664585113525391 -0.491640925407409668
1.28463613986968994 2.55872440338134766 -0.839329719543457031
-0.695499420166015625 3.23766565322875977 -0.579944491386413574
0.998870432376861572 4.05382299423217773 -0.557874977588653564
-0.900422990322113037 2.80613851547241211 -0.321211099624633789
2.63168668746948242 5.26792192459106445 1.34748554229736328
-0.874729812145233154 3.28804135322570801 -0.612633585929870605
-0.9364510178565979 4.82803249359130859 1.21851968765258789
1.50362157821655273 0.758530139923095703 0.300059735774993896
-1.3592987060546875 3.54802942276000977 -0.734872579574584961
2.20414233207702637 3.88112235069274902 -0.598551332950592041
-2.71447563171386719 4.03148031234741211 -0.571780085563659668
-0.866233766078948975 3.01649093627929688 -0.667079806327819824
0.523382008075714111 3.43023777008056641 -0.733113229274749756
0.405029654502868652 3.45826864242553711 -0.512456178665161133
2.08974766731262207 3.88162684440612793 -0.816867947578430176
-0.169157519936561584 3.10108852386474609 -0.587928235530853271
0.688007891178131104 3.63345074653625488 -0.57885134220123291
0.69254601001739502 2.89517617225646973 -0.573342025279998779
0.961988210678100586 3.53119087219238281 -0.828040838241577148
0.967672109603881836 7.49497795104980469 1.83470273017883301
1.65460741519927979 3.96944475173950195 -0.836837887763977051
-2.41323471069335938 3.95583820343017578 -0.550824642181396484
0.549274623394012451 4.95382308959960938 1.25326180458068848
0.647493958473205566 7.50814342498779297 1.93602311611175537
-0.28563988208770752 3.14890861511230469 -0.59804236888885498
1.32648611068725586 4.02632379531860352 -0.73774874210357666
2.60053873062133789 7.13441038131713867 1.64579415321350098
2.5816352367401123 6.80557775497436523 1.7519524097442627
1.34788632392883301 6.61352348327636719 1.96968913078308105
-1.95379292964935303 4.03936529159545898 -0.576109051704406738
-0.0652877166867256165 3.1287987232208252 -0.669464707374572754
1.67872822284698486 3.60440158843994141 -0.206531047821044922
-0.985082089900970459 6.69843101501464844 1.72448873519897461
-1.54025840759277344 3.24080538749694824 -0.755698442459106445
0.835953652858734131 3.76132535934448242 -0.82689511775970459
-0.0212469734251499176 3.65661454200744629 -0.293986856937408447
-1.86033511161804199 3.94755911827087402 -0.654232621192932129
1.39132130146026611 3.8602449893951416 -0.431360900402069092
1.5665818452835083 4.02128124237060547 -0.600769281387329102
-0.372206151485443115 3.14731097221374512 -0.636338472366333008
-0.302999913692474365 3.01800346374511719 -0.198804020881652832
2.27179121971130371 3.9189152717590332 -0.867198348045349121
-0.105080515146255493 3.30252647399902344 -0.595750033855438232
0.149856701493263245 3.30578780174255371 -0.662828803062438965
1.09675717353820801 3.97160696983337402 -0.828726232051849365
1.13580548763275146 4.00161457061767578 -0.557255983352661133
1.51511430740356445 7.75361061096191406 2.09084939956665039
1.16311264038085938 4.0447998046875 -0.841905951499938965
0.616761267185211182 7.01535987854003906 2.05166387557983398
-0.607245564460754395 3.4559168815612793 -0.348769664764404297
-0.356750756502151489 3.10591220855712891 -0.395845413208007812
-0.488538682460784912 3.23930144309997559 -0.598398447036743164
