ply
format ascii 1.0
element vertex 73
comment vertices
property float x
property float y
property float z
end_header
0.241096034646034241 3.45292806625366211 -0.664867222309112549
0.281499594449996948 3.39862298965454102 -0.522517621517181396
0.271128684282302856 3.35560297966003418 -0.603471994400024414
0.24668961763381958 3.40525460243225098 -0.497501850128173828
0.272277116775512695 3.39438104629516602 -0.548994004726409912
0.262959957122802734 3.38726711273193359 -0.576742947101593018
-1.52893924713134766 4.63411378860473633 -0.766991078853607178
0.272547453641891479 3.3870091438293457 -0.536952495574951172
2.08488106727600098 2.81323552131652832 -0.526088416576385498
0.273550748825073242 3.31626033782958984 -0.276182562112808228
0.265249252319335938 3.40034675598144531 -0.597834348678588867
0.270665168762207031 3.4270479679107666 -0.567416787147521973
0.264697015285491943 3.38720417022705078 -0.68357086181640625
-1.44888877868652344 4.44472789764404297 -0.509740889072418213
0.263914316892623901 3.41165757179260254 -0.597544431686401367
0.267696261405944824 3.42501258850097656 -0.577927350997924805
0.242134109139442444 3.41833591461181641 -0.598031997680664062
0.269468307495117188 3.39772725105285645 -0.575845718383789062
0.275342345237731934 3.38823437690734863 -0.538672745227813721
0.276359319686889648 3.36537384986877441 -0.5200042724609375
0.293085664510726929 3.40547037124633789 -0.520000994205474854
-1.48685634136199951 4.49657487869262695 -0.675473153591156006
0.272770792245864868 3.39178681373596191 -0.540390968322753906
0.246729254722595215 3.4380030632019043 -0.572793066501617432
0.241114750504493713 3.40638995170593262 -0.609589993953704834
0.262845814228057861 3.3906097412109375 -0.621498405933380127
0.204849138855934143 3.35775518417358398 -0.670038461685180664
0.262973994016647339 3.4007561206817627 -0.614917755126953125
0.269134700298309326 3.39548850059509277 -0.569271445274353027
0.27521282434463501 3.39136099815368652 -0.534820973873138428
0.20680728554725647 3.47122788429260254 -0.690235614776611328
2.04342937469482422 2.79599881172180176 -0.525519967079162598
-1.40997600555419922 4.61990594863891602 -0.727629125118255615
0.269744008779525757 3.39774465560913086 -0.557387709617614746
0.264910012483596802 3.39464521408081055 -0.604820430278778076
0.279491424560546875 3.4308168888092041 -0.566551268100738525
0.232451796531677246 3.32219862937927246 -0.420496523380279541
0.272392153739929199 3.41176533699035645 -0.665061473846435547
0.264272391796112061 3.35042500495910645 -0.588895738124847412
0.266794413328170776 3.34274578094482422 -0.678383231163024902
0.23840726912021637 3.29844951629638672 -0.590092837810516357
0.267540305852890015 3.4238739013671875 -0.582296252250671387
0.229204669594764709 3.43738341331481934 -0.30021589994430542
0.272052377462387085 3.39678263664245605 -0.561481595039367676
0.290651023387908936 3.3991541862487793 -0.309224963188171387
0.277069568634033203 3.39820051193237305 -0.536009013652801514
0.276771247386932373 3.39170718193054199 -0.532104015350341797
0.258875578641891479 3.36969113349914551 -0.533874690532684326
0.27523040771484375 3.39291763305664062 -0.539625883102416992
2.10670256614685059 2.66577053070068359 -0.505780994892120361
0.265929758548736572 3.37982082366943359 -0.515315055847167969
0.271801292896270752 3.39450907707214355 -0.550043344497680664
0.276769459247589111 3.40052008628845215 -0.620728194713592529
0.267291933298110962 3.41125655174255371 -0.58980947732925415
0.237546801567077637 3.20791888236999512 -0.715420365333557129
-1.48011398315429688 4.53877687454223633 -0.687003195285797119
-1.50178956985473633 4.58227920532226562 -0.709175050258636475
0.244737714529037476 3.43847131729125977 -0.636856734752655029
0.280629336833953857 3.39604902267456055 -0.534124553203582764
-1.4437636137008667 4.60191154479980469 -0.730391383171081543
0.254575759172439575 3.42218422889709473 -0.547873616218566895
0.275421828031539917 3.42171335220336914 -0.552261114120483398
0.268983304500579834 3.4259183406829834 -0.557271599769592285
-1.48034298419952393 4.59545469284057617 -0.731509089469909668
0.27723124623298645 3.39126992225646973 -0.524204432964324951
0.267587482929229736 3.39240336418151855 -0.586740970611572266
-1.46613514423370361 4.35958671569824219 -0.684973180294036865
0.264001548290252686 3.40176892280578613 -0.62117314338684082
0.278823673725128174 3.39681196212768555 -0.523218154907226562
0.273885965347290039 3.39137101173400879 -0.596378684043884277
0.267742156982421875 3.39657020568847656 -0.567600071430206299
0.264690995216369629 3.38481020927429199 -0.600238263607025146
0.266625344753265381 3.43795275688171387 -0.60641402006149292
