ply
format ascii 1.0
element vertex 231
comment vertices
property float x
property float y
property float z
end_header
0.241286203265190125 4.02991437911987305 -0.747322678565979004
0.0344249904155731201 6.33897256851196289 5.71744632720947266
-2.2897946834564209 1.73804616928100586 -0.6866111159324646
-2.3461761474609375 3.4160456657409668 0.458656728267669678
3.47518348693847656 6.79987812042236328 -0.894243240356445312
2.24551153182983398 1.77470302581787109 -0.713244974613189697
5.28289079666137695 0.372022867202758789 -1.30425667762756348
-1.80242717266082764 3.57860255241394043 -0.718103587627410889
-0.464660406112670898 3.70223855972290039 1.01062369346618652
2.99012374877929688 4.90672063827514648 -0.67839127779006958
-0.234587088227272034 2.94837379455566406 -0.515940427780151367
1.92851459980010986 7.9067378044128418 -0.604546606540679932
2.50309205055236816 3.8824923038482666 -0.740710735321044922
1.35630655288696289 5.70770120620727539 2.86736345291137695
-0.25830376148223877 2.89029240608215332 -0.478248834609985352
0.239541172981262207 1.92399489879608154 -0.71757042407989502
1.73916816711425781 7.62361574172973633 0.0666856765747070312
2.08037376403808594 -1.3715057373046875 -1.19824731349945068
1.80710995197296143 7.35959577560424805 -0.619618415832519531
3.66161870956420898 4.4178156852722168 -0.567429065704345703
-0.237954646348953247 2.93880605697631836 -0.496473848819732666
1.08152389526367188 6.03624343872070312 -0.938399970531463623
-2.3784489631652832 2.19964146614074707 -0.537810266017913818
-0.236810386180877686 2.94236922264099121 -0.495069533586502075
-0.2388811856508255 2.93698954582214355 -0.507234036922454834
-0.131314113736152649 3.5982058048248291 -0.730703949928283691
2.58889484405517578 7.44025516510009766 -0.335385113954544067
-0.232385396957397461 2.9425208568572998 -0.540775179862976074
0.952403008937835693 3.83630132675170898 -0.737955927848815918
3.0682978630065918 5.08596944808959961 -0.363090574741363525
-0.199714213609695435 2.93190097808837891 -0.461827069520950317
3.53029489517211914 4.77897930145263672 -0.133671939373016357
-1.28364670276641846 3.47674322128295898 -0.677093148231506348
0.174973621964454651 2.0886833667755127 -0.743542969226837158
1.60120940208435059 7.44834709167480469 -0.121724307537078857
3.15369558334350586 4.3152618408203125 -0.713592886924743652
1.14162468910217285 2.12352752685546875 5.29232931137084961
2.39649105072021484 4.05473136901855469 -0.832343161106109619
-2.35154867172241211 3.32878780364990234 -0.549742639064788818
0.982892096042633057 7.49181032180786133 -0.650488615036010742
0.109827429056167603 2.11971473693847656 -0.770904242992401123
1.63226377964019775 0.0868022441864013672 -0.640051066875457764
2.93931365013122559 3.44188570976257324 -0.80891120433807373
2.12955260276794434 7.5336613655090332 -0.606222689151763916
-0.235205858945846558 2.94144296646118164 -0.53791964054107666
-1.76910865306854248 3.59803414344787598 -0.741361737251281738
-0.217992514371871948 3.18782186508178711 -0.535651028156280518
-0.250053584575653076 2.9358980655670166 -0.385960698127746582
-0.273529171943664551 2.94228243827819824 -0.42125663161277771
2.43714690208435059 3.21779656410217285 -0.747829973697662354
2.39621829986572266 7.46218109130859375 -0.339037716388702393
-0.238823607563972473 2.93544626235961914 -0.510543346405029297
-2.35490608215332031 3.24234628677368164 -0.405054390430450439
0.141775891184806824 2.07473373413085938 -0.753982484340667725
-0.199813008308410645 2.93592143058776855 -0.531221628189086914
1.65395474433898926 6.43293523788452148 0.174951255321502686
0.13107578456401825 2.22536349296569824 -0.658582508563995361
-1.88191676139831543 3.51168680191040039 0.875997722148895264
-0.248312577605247498 2.93826127052307129 -0.527550876140594482
1.87684392929077148 4.48195314407348633 -0.41559678316116333
0.744126558303833008 4.93014144897460938 -0.726490974426269531
-2.13913083076477051 2.77143597602844238 -0.606222987174987793
-0.996476352214813232 3.64644455909729004 0.958527684211730957
-0.243003934621810913 2.94967246055603027 -0.511617183685302734
-1.82806932926177979 3.57213735580444336 -0.670350313186645508
-1.02144932746887207 0.922180891036987305 -1.21672272682189941
4.05987167358398438 1.49504923820495605 -0.834502518177032471
-0.20304696261882782 2.9282219409942627 -0.515471100807189941
2.09828567504882812 2.71181845664978027 -0.726042568683624268
1.92783021926879883 7.37373828887939453 -0.431698739528656006
-0.263164341449737549 2.93395042419433594 -0.531787991523742676
-0.228979617357254028 2.93563532829284668 -0.525422632694244385
3.37031149864196777 5.1474604606628418 -0.716991961002349854
-1.77875685691833496 3.48011255264282227 -0.248209208250045776
1.38709878921508789 7.52393722534179688 0.2632485032081604
1.70096766948699951 7.44843196868896484 -0.164251774549484253
0.801064908504486084 5.35737133026123047 -0.71574324369430542
-0.228657126426696777 2.93727588653564453 -0.530901193618774414
2.98732328414916992 4.64326715469360352 -0.739293813705444336
-0.234816044569015503 2.93822073936462402 -0.513325214385986328
0.124426648020744324 1.97462308406829834 -0.768334507942199707
0.0939120948314666748 2.22855257987976074 -0.624065935611724854
1.86112880706787109 7.55164384841918945 0.0790107771754264832
0.989722609519958496 4.35540676116943359 -0.780185163021087646
2.96015787124633789 5.76116657257080078 -0.702527463436126709
-0.231491342186927795 3.05871367454528809 -0.376891046762466431
-1.71082711219787598 3.6205742359161377 -0.743356585502624512
1.89410650730133057 7.4606022834777832 0.196054309606552124
-0.243787020444869995 2.94946813583374023 -0.482865244150161743
0.429752379655838013 4.77032947540283203 -0.737227559089660645
-0.215308099985122681 2.9381110668182373 -0.470916479825973511
-2.1504371166229248 3.46383285522460938 -0.408822298049926758
2.24243545532226562 6.81189870834350586 -0.796919107437133789
-0.27272486686706543 2.92432641983032227 -0.533171355724334717
3.21812582015991211 4.73859119415283203 -0.586946845054626465
-1.7496260404586792 2.59650754928588867 -0.560823917388916016
2.57433843612670898 4.06397438049316406 -0.741145431995391846
2.92961812019348145 7.35613632202148438 -0.729342460632324219
0.105106182396411896 2.33355045318603516 -0.572755575180053711
-0.238482266664505005 2.93768525123596191 -0.49959254264831543
1.04561305046081543 3.48285818099975586 0.590433299541473389
-1.75857448577880859 3.5776679515838623 -0.75583726167678833
2.09231686592102051 3.86090874671936035 0.0545740127563476562
-0.210415095090866089 2.94194960594177246 -0.521958351135253906
1.54667901992797852 7.58193588256835938 -0.42689061164855957
1.7757871150970459 7.58243799209594727 0.0622066929936408997
-0.253957748413085938 2.93824243545532227 -0.411862432956695557
-0.211753278970718384 2.93814826011657715 -0.520912408828735352
0.0432143360376358032 2.28755617141723633 -0.692261636257171631
-0.177920371294021606 3.90717864036560059 0.788602769374847412
3.81725049018859863 4.06363582611083984 -0.776004314422607422
-0.244481518864631653 2.93671703338623047 -0.512196123600006104
-0.251264721155166626 2.94762110710144043 -0.50274193286895752
2.79147505760192871 5.45970821380615234 -0.583324193954467773
2.73122882843017578 3.27077770233154297 -0.781797170639038086
0.0257879570126533508 2.45849037170410156 -0.696262121200561523
2.40906882286071777 7.51356792449951172 -0.389853119850158691
-1.53308045864105225 3.57825422286987305 0.872558712959289551
1.35286402702331543 8.21131706237792969 -0.358069777488708496
1.66978836059570312 7.74827671051025391 -0.286477446556091309
-0.231412142515182495 2.93450284004211426 -0.534119188785552979
0.0967524051666259766 2.27246475219726562 -0.695012271404266357
4.00188541412353516 1.93622279167175293 -0.832357823848724365
-0.232068821787834167 2.94109058380126953 -0.540492653846740723
-1.04272258281707764 2.83956336975097656 -0.559265553951263428
0.212829440832138062 2.04198789596557617 -0.782663524150848389
3.12389802932739258 4.80524206161499023 -0.585364222526550293
-0.232656866312026978 2.92858290672302246 -0.456603705883026123
-1.76162421703338623 3.60980772972106934 -0.738615632057189941
3.25680065155029297 2.3050239086151123 -0.926704525947570801
4.33089065551757812 4.3591313362121582 -0.682916224002838135
1.77555763721466064 7.48088312149047852 0.148804441094398499
2.9524228572845459 5.01102352142333984 -0.629949450492858887
1.91100418567657471 7.94777727127075195 -0.501952230930328369
-1.75618314743041992 3.60209560394287109 -0.743149459362030029
0.88110649585723877 3.14266109466552734 -0.705819129943847656
-0.246632933616638184 2.93890261650085449 -0.545629143714904785
0.00735658407211303711 1.38959383964538574 -0.544879317283630371
0.425123810768127441 1.65738391876220703 -0.787339627742767334
-0.228480756282806396 2.9391627311706543 -0.554556608200073242
-2.41198563575744629 3.34086513519287109 -0.220191270112991333
-0.254471659660339355 2.93873429298400879 -0.485926419496536255
-0.116659641265869141 3.79345417022705078 -0.76317298412322998
1.62938070297241211 7.38527393341064453 -0.214698702096939087
1.53813266754150391 7.77887821197509766 0.0749512016773223877
0.611944258213043213 1.12600255012512207 -0.739330768585205078
-2.54588699340820312 3.35837507247924805 -0.240586638450622559
-1.75729024410247803 3.60207486152648926 -0.749712169170379639
0.162435829639434814 2.15363550186157227 -0.665196061134338379
-0.236886978149414062 2.94119381904602051 -0.510149180889129639
2.44714021682739258 4.45048332214355469 -0.309695661067962646
2.22150135040283203 3.23838591575622559 -0.786383211612701416
-0.37504202127456665 1.34376740455627441 -0.639286279678344727
-1.72980737686157227 3.62466526031494141 -0.731072664260864258
1.76846122741699219 7.3747410774230957 0.532308578491210938
2.57436084747314453 3.71881699562072754 -0.75984269380569458
1.72681987285614014 7.80617666244506836 0.0194337368011474609
-0.232274651527404785 2.93202877044677734 -0.460196465253829956
0.173202082514762878 2.13554573059082031 -0.66123121976852417
1.36203455924987793 3.8795619010925293 -0.699081897735595703
-0.210880264639854431 2.93507909774780273 -0.544479966163635254
-0.237374886870384216 2.94215106964111328 -0.502480387687683105
-0.166858404874801636 2.93316888809204102 -0.461386054754257202
0.0955756530165672302 2.12724041938781738 -0.715600311756134033
1.90663397312164307 7.43631172180175781 -0.430621981620788574
-0.244544327259063721 2.94286251068115234 -0.473002761602401733
1.98952877521514893 7.33172988891601562 -0.432015657424926758
-1.78317606449127197 3.61176252365112305 0.171887174248695374
-1.75577867031097412 3.60134506225585938 -0.742497444152832031
-0.239470869302749634 2.94372010231018066 -0.537078022956848145
-0.233637586236000061 2.94339370727539062 -0.521783232688903809
-1.49562621116638184 2.55352687835693359 0.178891420364379883
4.38818931579589844 4.06240749359130859 -0.908206343650817871
-0.249897226691246033 2.94417309761047363 -0.493090957403182983
-0.21199914813041687 3.15922260284423828 -0.459714293479919434
0.117587067186832428 2.20765566825866699 -0.670852363109588623
0.946438491344451904 4.66022777557373047 -0.687765359878540039
0.136253789067268372 2.07231020927429199 -0.7049102783203125
-0.219115853309631348 2.93599796295166016 -0.505758166313171387
2.33762407302856445 4.62977838516235352 -0.0509012937545776367
1.94199597835540771 5.03717803955078125 -0.660222351551055908
-0.2046232670545578 2.92607593536376953 -0.552286148071289062
-0.205619439482688904 2.93802785873413086 -0.513833165168762207
2.55221056938171387 3.35313057899475098 -0.0110732913017272949
3.19814848899841309 4.54544639587402344 -0.731075525283813477
-1.77314722537994385 3.58832740783691406 -0.750475466251373291
-0.196709319949150085 2.91982364654541016 -0.484357893466949463
-1.99037694931030273 3.40106344223022461 0.0656467676162719727
-0.00920571386814117432 2.30445981025695801 -0.582809507846832275
3.2795107364654541 3.53097915649414062 -0.818350315093994141
-0.550650894641876221 0.72185826301574707 -1.44260096549987793
-0.218618780374526978 2.93711137771606445 -0.515000462532043457
-1.79091918468475342 3.55363082885742188 -0.601885437965393066
-0.877462625503540039 3.00447821617126465 -0.578922808170318604
3.04050898551940918 5.66185903549194336 -0.522765576839447021
-0.188179925084114075 2.92193937301635742 -0.515773296356201172
1.32119250297546387 6.13626003265380859 -0.611565113067626953
2.53976154327392578 4.05431413650512695 -0.730222582817077637
2.01436805725097656 7.40807008743286133 -0.311733603477478027
-0.256062150001525879 2.94748306274414062 -0.499603360891342163
1.56443405151367188 7.73743200302124023 -0.449009448289871216
1.92128431797027588 7.3745875358581543 0.15978357195854187
-0.239431887865066528 2.94933962821960449 -0.510154366493225098
-0.221078798174858093 2.94007611274719238 -0.555628120899200439
-2.28964996337890625 3.41004419326782227 -0.575384378433227539
-1.76054739952087402 3.60093808174133301 -0.671313762664794922
1.70095884799957275 2.95394158363342285 2.0129702091217041
-2.0726311206817627 2.49688267707824707 -0.60211646556854248
2.72667980194091797 4.67624139785766602 -0.717372417449951172
-0.23702239990234375 2.9378211498260498 -0.518548309803009033
1.5150597095489502 7.91974639892578125 -0.0254166722297668457
2.24539947509765625 7.70982885360717773 -0.476984918117523193
1.98429644107818604 5.94586753845214844 -0.85914003849029541
-1.86013388633728027 3.54576778411865234 -0.720639824867248535
-0.23277631402015686 2.93963742256164551 -0.515592336654663086
-2.39072155952453613 3.2364647388458252 -0.38011634349822998
1.64377260208129883 7.28857755661010742 -0.0918867886066436768
0.435604661703109741 4.11720085144042969 -0.769558727741241455
-1.33030819892883301 2.81145930290222168 -0.577278017997741699
-0.0520611181855201721 2.64619159698486328 -0.594343841075897217
3.16912245750427246 4.1096043586730957 -0.803980648517608643
1.89485955238342285 7.34944725036621094 -0.654167473316192627
-0.236128360033035278 2.93927192687988281 -0.511217474937438965
2.45354175567626953 5.77493858337402344 -0.764714837074279785
1.51181697845458984 7.40843296051025391 0.0122669190168380737
-2.0431520938873291 3.44019913673400879 -0.246596530079841614
-0.565126776695251465 3.27799034118652344 0.341735303401947021
0.132172301411628723 2.12538480758666992 -0.651424825191497803
3.2046043872833252 4.15024042129516602 -0.411374479532241821
-0.240633130073547363 2.9473268985748291 -0.501691639423370361
1.23177182674407959 7.86150026321411133 -0.608614683151245117
