ply
format ascii 1.0
element vertex 256
comment vertices
property float x
property float y
property float z
end_header
0.368134886026382446 4.02212905883789062 -0.646619975566864014
-0.203162074089050293 6.16421985626220703 6.80144786834716797
-1.80609416961669922 1.95879983901977539 -0.680406093597412109
-2.3230443000793457 3.48938274383544922 0.512055635452270508
2.82901573181152344 6.91941261291503906 -0.850794076919555664
1.73068606853485107 1.93629419803619385 -0.682459533214569092
3.44652962684631348 4.04538679122924805 -0.127037763595581055
-1.83581805229187012 3.42816734313964844 -0.731238126754760742
-0.496710896492004395 3.93884015083312988 0.926895976066589355
2.89409279823303223 4.85906696319580078 -0.702456295490264893
-0.227997630834579468 2.88814282417297363 -0.525148987770080566
1.87400317192077637 7.7648320198059082 -0.593874096870422363
2.22970294952392578 3.91078948974609375 -0.764781653881072998
1.13439452648162842 5.63360118865966797 3.89007091522216797
-0.21288764476776123 3.03776645660400391 -0.463263094425201416
0.228090107440948486 1.88134455680847168 -0.667575478553771973
1.82525157928466797 7.58237028121948242 0.12486228346824646
0.807872474193572998 4.02683305740356445 0.329242020845413208
1.85974442958831787 7.31198215484619141 -0.614853978157043457
-1.98316419124603271 3.44924449920654297 -0.561686396598815918
3.23038434982299805 4.58260583877563477 -0.495416253805160522
-0.252134323120117188 2.96940302848815918 -0.472319960594177246
1.41982114315032959 6.01485395431518555 -0.880529999732971191
-0.496078014373779297 3.28008484840393066 -0.0854974985122680664
-2.07901954650878906 2.32315993309020996 -0.56796729564666748
-0.243945807218551636 2.83033347129821777 -0.480617314577102661
-0.25325852632522583 2.80555009841918945 -0.510985851287841797
0.0551825761795043945 3.56477046012878418 -0.740485429763793945
2.24085354804992676 7.43579769134521484 -0.232549399137496948
-0.196768283843994141 2.95366907119750977 -0.570479393005371094
0.988619744777679443 3.89124011993408203 -0.74404144287109375
2.94920539855957031 5.14896345138549805 -0.0946644693613052368
-0.112891331315040588 2.83948159217834473 -0.404994219541549683
2.29505300521850586 6.86872243881225586 0.527598321437835693
-1.7601628303527832 3.70328521728515625 -0.258102595806121826
-1.12385797500610352 3.44887590408325195 -0.664410650730133057
0.186312288045883179 2.09611344337463379 -0.708163857460021973
1.85873401165008545 7.46387195587158203 -0.0855195671319961548
2.98741292953491211 4.4543609619140625 -0.708218634128570557
0.908134102821350098 1.95776748657226562 6.37885236740112305
2.6416475772857666 4.88487672805786133 -0.452213585376739502
-2.31823420524597168 3.32399797439575195 -0.519886136054992676
1.43379437923431396 7.49401235580444336 -0.620141267776489258
-0.0739705339074134827 2.79442811012268066 -0.595817685127258301
0.0470041632652282715 2.10929346084594727 -0.76766514778137207
0.239108085632324219 3.47349834442138672 0.321053087711334229
2.83919668197631836 3.59175229072570801 -0.856868267059326172
-0.0964555740356445312 3.5109565258026123 -0.696493029594421387
2.15248394012451172 7.46518945693969727 -0.608574986457824707
-0.275726079940795898 2.90891480445861816 -0.566459536552429199
-1.77506983280181885 3.61094307899475098 -0.748273968696594238
-0.180972188711166382 3.31763315200805664 -0.442719817161560059
-0.246102184057235718 2.99413728713989258 -0.279522716999053955
-0.349803030490875244 2.97807025909423828 -0.341418951749801636
-1.89431214332580566 3.24217319488525391 -0.564565062522888184
-0.301901280879974365 2.7620241641998291 -0.605666160583496094
2.31430268287658691 3.34955978393554688 -0.78956305980682373
2.18184828758239746 7.44603776931762695 -0.256779283285140991
-0.19363325834274292 3.00397348403930664 -0.50443500280380249
-2.34172821044921875 3.25656938552856445 -0.337208330631256104
0.0926126837730407715 2.0496375560760498 -0.734541237354278564
-0.0843537226319313049 3.00623154640197754 -0.55669856071472168
1.861336350440979 7.19356584548950195 0.609525442123413086
0.0724297165870666504 2.22002625465393066 -0.625848591327667236
-1.93771970272064209 3.6351311206817627 0.792482733726501465
-0.31997448205947876 2.94713783264160156 -0.543998599052429199
2.41478681564331055 4.86272144317626953 -0.0377725660800933838
1.10902607440948486 4.81635570526123047 -0.706471562385559082
-2.00955033302307129 2.7883296012878418 -0.638508200645446777
-1.03722500801086426 3.87742924690246582 0.888718247413635254
-0.261588782072067261 2.88624143600463867 -0.517379283905029297
-1.89885938167572021 3.5976707935333252 -0.511710643768310547
-0.027307555079460144 4.08111953735351562 0.0185655951499938965
3.30520200729370117 4.7126011848449707 -0.00242507457733154297
-0.0848227143287658691 2.9140770435333252 -0.511915922164916992
1.78037679195404053 2.7283623218536377 -0.70758509635925293
1.93073272705078125 7.32279253005981445 -0.38259550929069519
-0.35094153881072998 2.87431788444519043 -0.553822517395019531
-2.18037176132202148 3.38962292671203613 -0.612769603729248047
-0.239850699901580811 3.00181412696838379 -0.545185089111328125
3.07675027847290039 5.27541828155517578 -0.386750578880310059
-1.76278471946716309 3.46892690658569336 -0.107478350400924683
1.63646507263183594 7.53189802169799805 0.494080305099487305
1.89711999893188477 7.43137264251708984 -0.137510299682617188
1.27102160453796387 5.71301937103271484 -0.660063266754150391
-0.245797410607337952 2.99931430816650391 -0.554736018180847168
2.90873527526855469 4.66739654541015625 -0.743931293487548828
-0.147839188575744629 2.94829154014587402 -0.514406442642211914
0.0209789760410785675 1.94234943389892578 -0.74710381031036377
-0.0123791098594665527 2.23824644088745117 -0.566672801971435547
1.97755563259124756 7.49007654190063477 0.111751362681388855
1.22183239459991455 4.30875778198242188 -0.798756241798400879
2.47268438339233398 5.89137458801269531 -0.703424811363220215
-0.24043428897857666 3.16672134399414062 -0.252452194690704346
-1.58590841293334961 3.59821009635925293 -0.805711150169372559
2.04148769378662109 7.40743112564086914 0.29725039005279541
-0.235785931348800659 2.91427850723266602 -0.442842930555343628
0.791162192821502686 4.64549827575683594 -0.728266358375549316
-0.160015493631362915 2.85630702972412109 -0.421840757131576538
-2.14638924598693848 3.50448989868164062 -0.28005373477935791
2.32781529426574707 6.87778329849243164 -0.780242681503295898
-0.399854540824890137 2.94022345542907715 -0.5531005859375
3.0839238166809082 4.98798561096191406 -0.35706174373626709
-1.60169768333435059 2.60694003105163574 -0.576108217239379883
2.45445394515991211 4.36702346801757812 -0.74725794792175293
2.4160916805267334 7.46039962768554688 -0.688783407211303711
0.0332968533039093018 2.32566165924072266 -0.513794600963592529
-0.26745903491973877 2.97028660774230957 -0.479954570531845093
0.786536872386932373 3.83113622665405273 0.809960126876831055
-1.83607137203216553 3.56317758560180664 -0.804331660270690918
1.69892024993896484 6.55996322631835938 1.177398681640625
-0.174316912889480591 2.85550284385681152 -0.5362587571144104
1.75616204738616943 7.44602012634277344 -0.393887519836425781
-2.00460290908813477 3.30502414703369141 -0.701057791709899902
1.86174643039703369 7.55258274078369141 0.0853773057460784912
-0.286585748195648193 3.00002384185791016 -0.319024741649627686
-0.11238861083984375 3.01805686950683594 -0.530528068542480469
-0.0348602533340454102 2.2994377613067627 -0.702549934387207031
-0.223927229642868042 4.17544937133789062 0.777160048484802246
3.25140070915222168 4.47118425369262695 -0.63620460033416748
-0.2840920090675354 2.81336259841918945 -0.521062672138214111
-0.292396664619445801 2.88622045516967773 -0.497290968894958496
2.86619257926940918 5.36785316467285156 -0.417600750923156738
2.62365937232971191 3.45991158485412598 -0.82690882682800293
-0.0721833705902099609 2.45917630195617676 -0.70313417911529541
-0.410367488861083984 2.89760851860046387 -0.601810932159423828
2.20290851593017578 7.47420120239257812 -0.331828415393829346
-1.56521940231323242 3.73048210144042969 0.817655980587005615
1.70274615287780762 8.01775550842285156 -0.210932061076164246
1.88534283638000488 7.63526535034179688 -0.243150383234024048
-0.271683365106582642 3.00982332229614258 -0.559252798557281494
0.0224229097366333008 2.29678249359130859 -0.68385612964630127
3.09310269355773926 3.90021038055419922 -0.269279122352600098
-0.245755046606063843 2.96176052093505859 -0.570610702037811279
-1.20251238346099854 3.34527230262756348 -0.25317847728729248
0.274419307708740234 2.02641916275024414 -0.77202606201171875
2.92354941368103027 4.93073749542236328 -0.330245614051818848
-0.582528173923492432 3.39454364776611328 -0.171518802642822266
-0.160628750920295715 2.96058845520019531 -0.386160850524902344
-1.81623578071594238 3.62908816337585449 -0.672667622566223145
-0.43043816089630127 2.8923945426940918 -0.60070502758026123
2.91567087173461914 4.64007759094238281 -0.381386399269104004
3.50327587127685547 4.81130743026733398 -0.476022541522979736
1.79942846298217773 7.42221307754516602 0.19801020622253418
2.86646056175231934 4.96264886856079102 -0.626245319843292236
1.86516547203063965 7.78767824172973633 -0.448387950658798218
-1.77880668640136719 3.55880951881408691 -0.674584925174713135
0.425264149904251099 3.65313959121704102 -0.449384450912475586
-0.302431285381317139 2.88030600547790527 -0.57809072732925415
-0.694940149784088135 4.14698934555053711 0.377816200256347656
-1.82922911643981934 3.58139753341674805 -0.259406834840774536
0.340712934732437134 1.6791834831237793 -0.789042353630065918
-0.256480872631072998 2.93265748023986816 -0.593780040740966797
-2.3384406566619873 3.4183955192565918 -0.159380555152893066
-0.304023504257202148 2.9195554256439209 -0.449331998825073242
0.088769078254699707 3.74944972991943359 -0.720904946327209473
1.89783549308776855 7.35245656967163086 -0.1865110844373703
1.73077225685119629 7.70937538146972656 0.171088039875030518
0.367384880781173706 3.43504667282104492 -0.238313376903533936
-2.43444466590881348 3.45372486114501953 -0.205108314752578735
-1.78094446659088135 3.54915952682495117 -0.69184190034866333
-2.10656166076660156 3.46281599998474121 -0.592453598976135254
-0.31611710786819458 2.66320180892944336 -0.621808171272277832
0.149072363972663879 2.16511654853820801 -0.619351327419281006
-0.195902138948440552 2.97532200813293457 -0.50623786449432373
2.69596743583679199 4.81203031539916992 -0.0119425952434539795
1.89095449447631836 3.47026872634887695 -0.804285883903503418
0.353626847267150879 4.26901769638061523 0.429738283157348633
-1.64728951454162598 3.6357877254486084 -0.762552559375762939
1.87189126014709473 7.42573356628417969 0.667420923709869385
2.23651599884033203 3.82650661468505859 -0.784205794334411621
1.8671867847442627 7.75784206390380859 0.0751839280128479004
-0.175374805927276611 2.94399833679199219 -0.395499527454376221
0.175927996635437012 2.13925862312316895 -0.606606245040893555
1.42064619064331055 3.91812229156494141 -0.696959376335144043
-0.187560528516769409 2.78893566131591797 -0.568611860275268555
-0.16585010290145874 2.9128720760345459 -0.569355309009552002
-0.243678420782089233 2.95194530487060547 -0.489568501710891724
-0.0368700176477432251 2.97895288467407227 -0.408489346504211426
-1.78152823448181152 3.55003213882446289 -0.248803555965423584
-0.00530213117599487305 2.14379763603210449 -0.705742835998535156
1.87370753288269043 7.35211324691772461 -0.384662091732025146
-1.9591672420501709 3.39136576652526855 -0.460762739181518555
-0.252441465854644775 2.95152640342712402 -0.414983272552490234
2.00696969032287598 7.28095579147338867 -0.41200333833694458
-1.76526319980621338 3.70771217346191406 0.278773248195648193
-1.76151573657989502 3.56185746192932129 -0.67350083589553833
-0.265181064605712891 2.92251944541931152 -0.563569128513336182
-0.237906992435455322 2.94846320152282715 -0.539063930511474609
-1.1419835090637207 3.89141488075256348 0.53259122371673584
3.5173194408416748 4.74266290664672852 -0.640003561973571777
-0.297203987836837769 2.9181821346282959 -0.470006614923477173
-0.151588514447212219 3.29083085060119629 -0.335877418518066406
0.0480827018618583679 2.20731687545776367 -0.644897818565368652
1.10701406002044678 4.56966304779052734 -0.729462742805480957
0.0802978575229644775 2.05266380310058594 -0.656172394752502441
-0.114247798919677734 2.91059780120849609 -0.500502288341522217
0.0702112913131713867 3.25114679336547852 -0.704001665115356445
2.55293846130371094 4.66606664657592773 0.0999307632446289062
1.9996718168258667 5.06528854370117188 -0.682415246963500977
-0.0896013975143432617 2.90388226509094238 -0.582944393157958984
-1.99142909049987793 3.19932675361633301 -0.611862361431121826
-0.163216352462768555 2.83080363273620605 -0.520026862621307373
2.25799846649169922 4.29879570007324219 0.268581002950668335
-0.656364738941192627 2.73547863960266113 -0.564748167991638184
3.03401970863342285 4.61479091644287109 -0.749140620231628418
-1.80304217338562012 3.56587004661560059 -0.787775695323944092
-0.0631941556930541992 2.93235111236572266 -0.45870518684387207
-1.96718943119049072 3.51205158233642578 0.20671236515045166
-0.158520638942718506 2.29342412948608398 -0.544542849063873291
3.00336933135986328 3.78476071357727051 -0.835912227630615234
0.107025623321533203 3.98550152778625488 -0.193758010864257812
-0.125942796468734741 2.89533233642578125 -0.520987510681152344
-1.88429903984069824 3.15365934371948242 -0.716344535350799561
-1.74857687950134277 3.58737969398498535 -0.418978571891784668
-0.852659404277801514 2.91445827484130859 -0.58318018913269043
2.85447573661804199 5.53489780426025391 -0.505520820617675781
-0.0702338963747024536 2.86380124092102051 -0.516905903816223145
1.53463268280029297 6.26705646514892578 -0.635890007019042969
2.13393449783325195 4.10106325149536133 -0.740866780281066895
2.02094173431396484 7.35589599609375 -0.26772761344909668
-0.300540745258331299 2.87330722808837891 -0.489921212196350098
-1.9228670597076416 3.52031326293945312 -0.462873011827468872
1.79415702819824219 7.61464500427246094 -0.413637876510620117
2.02387785911560059 7.30919647216796875 0.2554779052734375
-0.2462177574634552 2.88564467430114746 -0.512426614761352539
-0.19522508978843689 2.95110726356506348 -0.594713747501373291
-2.26677083969116211 3.42979764938354492 -0.532928943634033203
-1.76364231109619141 3.60772132873535156 -0.506414055824279785
1.47852492332458496 2.8729548454284668 3.0502321720123291
-1.89520227909088135 2.50692009925842285 -0.624148249626159668
2.69348526000976562 4.70652103424072266 -0.723634123802185059
-0.147608518600463867 2.96169614791870117 -0.526741564273834229
-1.79558825492858887 3.57965564727783203 -0.189823299646377563
1.79313158988952637 7.79377412796020508 0.0963043570518493652
2.09423661231994629 7.60154628753662109 -0.435210824012756348
1.9152069091796875 5.90117216110229492 -0.865670442581176758
-1.96233844757080078 3.50089764595031738 -0.702817916870117188
-0.244217038154602051 2.97419881820678711 -0.521509885787963867
-2.3609774112701416 3.31674575805664062 -0.317672848701477051
1.90063416957855225 7.35693120956420898 -0.0520203709602355957
0.513175308704376221 4.07059478759765625 -0.752551138401031494
-0.22125476598739624 2.77585792541503906 -0.480942130088806152
-1.20664763450622559 2.70172524452209473 -0.6177520751953125
-0.0487463474273681641 2.54216885566711426 -0.604276418685913086
2.92234992980957031 4.78407478332519531 -0.571124076843261719
1.90393376350402832 7.29080963134765625 -0.629743099212646484
-0.258522272109985352 2.96579098701477051 -0.510346531867980957
2.12407875061035156 5.87012100219726562 -0.706880807876586914
1.77183294296264648 7.40192079544067383 0.0920386910438537598
-2.06575107574462891 3.4846184253692627 -0.108326047658920288
-0.285877704620361328 4.19510984420776367 0.577563583850860596
0.0702295601367950439 2.12827205657958984 -0.586084902286529541
3.01439142227172852 4.85804462432861328 -0.0916375219821929932
-0.246756762266159058 2.92082977294921875 -0.489425152540206909
1.60881185531616211 7.76179170608520508 -0.600991368293762207
