ply
format ascii 1.0
element vertex 256
comment vertices
property float x
property float y
property float z
end_header
-0.474238187074661255 4.15232229232788086 0.669231891632080078
3.23574161529541016 6.84556484222412109 5.01718902587890625
-5.29135513305664062 5.31142711639404297 4.07693004608154297
-0.694024205207824707 7.42023420333862305 2.03109312057495117
0.852618396282196045 3.54756069183349609 -0.8131103515625
2.62441015243530273 4.24485397338867188 0.504044651985168457
-1.71937131881713867 1.91914045810699463 -0.861255526542663574
-3.60565781593322754 3.53535556793212891 1.84678041934967041
-2.22515320777893066 6.81384563446044922 2.31486129760742188
2.22203660011291504 4.85450410842895508 -0.72390902042388916
2.08041882514953613 6.92070150375366211 2.23932075500488281
-3.66297006607055664 6.19883060455322266 2.98311591148376465
0.452684342861175537 6.00394344329833984 2.1348111629486084
0.941249489784240723 3.22367143630981445 -0.788350462913513184
-1.43727588653564453 3.55164790153503418 -0.526877284049987793
0.656323671340942383 3.73784279823303223 -0.00169748067855834961
0.832669615745544434 3.35327696800231934 -0.549684762954711914
-2.10275435447692871 3.46256351470947266 1.06315350532531738
4.17829990386962891 5.89819049835205078 1.62984275817871094
0.950698673725128174 3.39321780204772949 -0.575387775897979736
-0.878313362598419189 6.83696365356445312 2.30892395973205566
-0.930832147598266602 3.66969060897827148 -0.635270178318023682
1.25165534019470215 3.41768097877502441 -0.342090845108032227
0.926436007022857666 6.85144901275634766 2.29961776733398438
1.71407949924468994 5.83084344863891602 2.05243420600891113
3.21985197067260742 7.58752584457397461 1.73581027984619141
0.887793779373168945 3.48086118698120117 -0.516155421733856201
2.17711901664733887 4.73256206512451172 0.159918248653411865
-4.53019237518310547 4.25394248962402344 3.15632462501525879
-1.62532830238342285 3.55482196807861328 -0.370634615421295166
-0.775440990924835205 3.52988219261169434 -0.763744473457336426
1.41433513164520264 7.25873947143554688 1.46637225151062012
-1.64976513385772705 6.91354990005493164 1.70739924907684326
1.16013991832733154 3.46912145614624023 -0.651157855987548828
0.043653532862663269 3.30510759353637695 -0.743813991546630859
0.863448441028594971 3.27784204483032227 -0.588497042655944824
0.244413435459136963 4.27183771133422852 1.02164375782012939
0.823292970657348633 3.22323060035705566 -0.773687005043029785
0.752496838569641113 3.28069186210632324 -0.754940390586853027
-1.0634911060333252 3.45859861373901367 0.00435459613800048828
0.25774681568145752 6.69310092926025391 2.22812962532043457
0.874361336231231689 3.38440513610839844 -0.552028536796569824
1.54174578189849854 4.73923969268798828 0.939404964447021484
1.7843163013458252 4.66504621505737305 -0.482315242290496826
2.08933353424072266 7.16370296478271484 1.7193446159362793
-0.894412517547607422 7.35163688659667969 2.20943999290466309
-1.0426781177520752 3.5924525260925293 -0.569964826107025146
-0.951880097389221191 3.65654611587524414 -0.315557926893234253
1.58160257339477539 6.59567642211914062 2.34848356246948242
-0.877514302730560303 3.71246695518493652 -0.652486860752105713
1.00526511669158936 3.42216873168945312 -0.239573478698730469
0.746064543724060059 3.41885948181152344 -0.585658013820648193
-1.52486550807952881 7.0893549919128418 2.25311708450317383
1.07786703109741211 5.60036325454711914 2.16391158103942871
-1.06180489063262939 2.92101860046386719 -0.859396696090698242
2.49140024185180664 6.51087427139282227 2.27191805839538574
1.43076086044311523 7.3509526252746582 2.2663569450378418
0.401041507720947266 6.89330673217773438 2.2143547534942627
-1.14802539348602295 3.88327789306640625 1.09595930576324463
-2.89507603645324707 6.4041600227355957 1.27365326881408691
3.99659538269042969 6.11999273300170898 1.90571284294128418
0.864929437637329102 6.30679750442504883 2.20509481430053711
0.937354981899261475 3.39343357086181641 -0.608449816703796387
-1.16474997997283936 3.52054858207702637 -0.313449591398239136
-1.82135105133056641 3.08594393730163574 -0.719271600246429443
-0.476425290107727051 6.419158935546875 2.25147771835327148
0.94290459156036377 3.44244885444641113 -0.583174347877502441
-0.72328495979309082 3.72242450714111328 -0.572807788848876953
-1.4334721565246582 3.61444687843322754 0.0434458255767822266
0.947556853294372559 3.40811252593994141 -0.644992947578430176
1.82432568073272705 4.55468559265136719 -0.0637612044811248779
1.8770366907119751 5.49384546279907227 2.04170346260070801
-0.0979202687740325928 3.28923940658569336 -0.75127410888671875
0.913438558578491211 3.5381016731262207 -0.295386016368865967
2.10603547096252441 4.88266992568969727 -0.426906764507293701
-1.14996719360351562 3.63378620147705078 -0.652360975742340088
-0.365378856658935547 6.89387130737304688 2.28238129615783691
-1.71322894096374512 2.17393684387207031 -0.851700782775878906
0.886108338832855225 3.27448773384094238 -0.679708182811737061
1.02831017971038818 3.44546866416931152 -0.516749918460845947
1.82930994033813477 4.59354496002197266 -0.764451026916503906
1.10795068740844727 3.43361282348632812 -0.4797629714012146
0.929801702499389648 7.30605792999267578 2.27587389945983887
0.711966753005981445 4.20774459838867188 0.51759570837020874
1.07687723636627197 3.96241474151611328 -0.814518332481384277
1.84947109222412109 3.76838350296020508 2.77766585350036621
2.1624448299407959 4.74146509170532227 1.03135502338409424
0.904618382453918457 3.31165766716003418 -0.601235568523406982
1.64250707626342773 7.51491069793701172 2.74367904663085938
-1.36156940460205078 3.67765188217163086 1.04882979393005371
0.888595163822174072 3.21794891357421875 -0.57334434986114502
-1.17795014381408691 2.42996716499328613 -0.858588218688964844
-1.71650075912475586 3.41490077972412109 -0.499160200357437134
-0.0218996293842792511 3.7544257640838623 0.773123621940612793
-2.1310577392578125 3.5184173583984375 0.257327139377593994
0.921902358531951904 3.23421812057495117 -0.647447466850280762
0.873178243637084961 3.42767810821533203 -0.613272607326507568
0.883309006690979004 3.33057212829589844 -0.580509305000305176
2.5587620735168457 7.06508016586303711 1.78033006191253662
-1.13869452476501465 3.52631807327270508 -0.361968427896499634
-1.13553690910339355 7.04030799865722656 2.25492477416992188
0.809472203254699707 3.32651996612548828 -0.755179762840270996
2.00063228607177734 4.62818241119384766 -0.565416932106018066
0.413670539855957031 7.24204301834106445 1.70517277717590332
0.914501667022705078 3.53673624992370605 -0.496203362941741943
0.889404833316802979 3.85657858848571777 0.121362209320068359
0.961221575736999512 3.25188493728637695 -0.799278497695922852
-1.14459359645843506 3.70606732368469238 -0.0756276249885559082
-1.94467687606811523 7.08999919891357422 2.27646207809448242
0.900740146636962891 3.33473825454711914 -0.604858636856079102
-1.08884656429290771 3.51450562477111816 -0.545694351196289062
0.731610417366027832 3.32831382751464844 -0.617112338542938232
0.876946628093719482 3.32971382141113281 -0.597623646259307861
1.01636028289794922 3.33727860450744629 -0.720206081867218018
0.864660799503326416 3.80610370635986328 -0.405170202255249023
1.804770827293396 4.54104471206665039 1.05526185035705566
0.958059728145599365 3.46686029434204102 -0.605352401733398438
0.747107028961181641 3.98125958442687988 0.111051797866821289
-0.992074966430664062 3.45346474647521973 -0.63334202766418457
2.07850170135498047 6.50630855560302734 2.23462653160095215
1.10454237461090088 4.66365861892700195 0.94519352912902832
-0.918725311756134033 3.61880660057067871 -0.21016305685043335
-1.07184839248657227 3.57178640365600586 -0.598271310329437256
-0.98858940601348877 3.60668277740478516 -0.561275005340576172
0.86387324333190918 3.35643386840820312 -0.57225877046585083
2.11198115348815918 7.3804473876953125 1.91237151622772217
0.775483250617980957 3.23958683013916016 -0.648338496685028076
-0.160321325063705444 7.12876319885253906 2.18425750732421875
1.02531492710113525 3.4046788215637207 -0.507098555564880371
-0.198458030819892883 6.09385108947753906 2.14943599700927734
1.72761893272399902 4.97521448135375977 0.427798986434936523
0.886174917221069336 3.32782578468322754 -0.601656436920166016
-1.31251418590545654 2.62097930908203125 -0.875748038291931152
-1.20049488544464111 3.62366676330566406 0.363209128379821777
-0.769937396049499512 3.75132012367248535 -0.585044205188751221
2.68650484085083008 7.12839937210083008 2.23376846313476562
-0.782180070877075195 4.06408214569091797 0.949140310287475586
0.504830062389373779 6.66081142425537109 2.22262477874755859
1.87130236625671387 4.65188407897949219 -0.303227156400680542
1.34196436405181885 5.52547073364257812 2.0568385124206543
-0.794054806232452393 3.67763185501098633 -0.836700797080993652
1.20632171630859375 7.10009956359863281 2.32307553291320801
1.89504194259643555 6.90275955200195312 2.29366493225097656
1.09962832927703857 6.46492815017700195 2.34081244468688965
-1.04886555671691895 3.59895014762878418 -0.516689658164978027
-1.55082893371582031 6.98197126388549805 2.20488786697387695
-2.34702730178833008 6.80220651626586914 1.45714569091796875
2.46706533432006836 4.48998641967773438 1.03890883922576904
-0.732524633407592773 3.49619722366333008 -0.427181422710418701
-1.04074645042419434 2.99583196640014648 -0.77582705020904541
-1.46834743022918701 7.09117317199707031 2.08567714691162109
1.5470881462097168 6.15744686126708984 2.1398015022277832
-1.10580611228942871 3.59046602249145508 -0.579628586769104004
-0.64455115795135498 7.20649003982543945 1.64869141578674316
0.570884346961975098 3.1836090087890625 -0.715960562229156494
0.391486167907714844 6.24535942077636719 2.2044377326965332
2.39558005332946777 7.00180625915527344 1.99422979354858398
0.856306314468383789 3.32677030563354492 -0.49827808141708374
-0.569568157196044922 3.89946413040161133 -0.249864041805267334
-0.938095450401306152 3.67768287658691406 -0.624754369258880615
1.08359396457672119 3.44240736961364746 -0.607794821262359619
-0.517523467540740967 3.41501474380493164 -0.733688235282897949
0.812719523906707764 5.81028652191162109 2.1335902214050293
0.220114737749099731 4.38304519653320312 0.506054401397705078
0.932247161865234375 3.37796378135681152 -0.53448331356048584
1.77193689346313477 4.71135377883911133 -0.76428532600402832
-0.750984132289886475 7.01780223846435547 2.25235891342163086
1.02416348457336426 3.38884091377258301 -0.611997008323669434
1.07753396034240723 5.84642744064331055 2.19422674179077148
1.69438505172729492 4.35106515884399414 -0.557513773441314697
-1.11267709732055664 3.77166318893432617 0.417529195547103882
0.0809618383646011353 6.46293258666992188 2.18697714805603027
-0.980891942977905273 3.75274658203125 -0.632167160511016846
-0.822890996932983398 3.68331289291381836 -0.571474909782409668
0.18273104727268219 6.82195091247558594 2.31272745132446289
1.5193181037902832 4.78252029418945312 -0.769216179847717285
-1.28240072727203369 3.39140057563781738 -0.651600182056427002
0.81989133358001709 6.59672689437866211 2.30514883995056152
0.811539173126220703 3.26358842849731445 -0.604969024658203125
-1.06560730934143066 3.64634466171264648 -0.0387480258941650391
-4.57306003570556641 5.86524486541748047 0.440149247646331787
-1.12680768966674805 3.45268487930297852 -0.626920580863952637
0.806444644927978516 3.32354259490966797 -0.754764914512634277
-1.3743901252746582 3.50954437255859375 -0.779258489608764648
1.10861432552337646 6.97792959213256836 2.29745864868164062
-1.45156383514404297 1.88736546039581299 -0.888020992279052734
1.46775031089782715 4.99727344512939453 0.56919252872467041
-1.24953663349151611 6.93119001388549805 2.35461950302124023
1.95383810997009277 4.70195913314819336 1.64207220077514648
0.861052811145782471 3.4895017147064209 -0.218495398759841919
0.427959144115447998 6.48567485809326172 2.35365676879882812
0.828416883945465088 3.32081341743469238 -0.776171326637268066
0.886585831642150879 3.34461259841918945 -0.579981029033660889
-0.998195469379425049 3.59416937828063965 -0.51516425609588623
0.863470673561096191 3.30740714073181152 -0.591110765933990479
-0.739589333534240723 3.79783439636230469 -0.710184752941131592
2.07917404174804688 4.93186521530151367 -0.561151206493377686
1.27039229869842529 3.7608494758605957 -0.215468049049377441
0.919716477394104004 3.40728020668029785 -0.618156909942626953
0.677279472351074219 6.86826705932617188 2.25540924072265625
0.870749473571777344 3.27331066131591797 -0.660318076610565186
0.847673177719116211 3.26258587837219238 -0.74753880500793457
0.929727315902709961 3.42483663558959961 -0.601924657821655273
0.925859451293945312 3.34126949310302734 -0.622212111949920654
-1.10839223861694336 3.67648148536682129 -0.146786689758300781
-1.51790738105773926 3.8686981201171875 -0.182426214218139648
0.849324584007263184 3.2650449275970459 -0.763388514518737793
2.29586291313171387 4.78329706192016602 0.659748673439025879
-1.00260484218597412 3.68602275848388672 -0.420626193284988403
1.86647915840148926 4.79709577560424805 0.898120760917663574
0.76611626148223877 3.24878740310668945 -0.700585365295410156
-0.878313660621643066 4.15170478820800781 0.610230445861816406
-1.6663895845413208 6.94402027130126953 2.12132501602172852
-1.62682592868804932 6.98339557647705078 2.07996869087219238
-1.80623459815979004 6.74673128128051758 2.19238615036010742
1.01476681232452393 3.48348307609558105 -0.231386274099349976
-1.53223323822021484 2.31796884536743164 -0.873763561248779297
0.868465721607208252 3.22279596328735352 -0.619614720344543457
-1.10801362991333008 2.9324336051940918 -0.834603488445281982
0.1626872718334198 4.14944028854370117 0.835715949535369873
0.886142134666442871 3.38480830192565918 -0.665102064609527588
1.44519579410552979 4.30643224716186523 -0.53567194938659668
2.01316070556640625 6.9605555534362793 2.29419040679931641
1.99509942531585693 4.54076623916625977 -0.3646392822265625
0.715651988983154297 3.44209384918212891 -0.323067933320999146
0.223250865936279297 7.43794393539428711 2.21895194053649902
1.39523899555206299 5.86934709548950195 2.0726773738861084
-0.96431124210357666 3.64050722122192383 -0.60745161771774292
-1.05446755886077881 3.57415628433227539 -0.511106193065643311
-0.0706440582871437073 6.99177455902099609 2.2203218936920166
0.940934479236602783 3.50439834594726562 -0.529055953025817871
0.130729600787162781 4.09175586700439453 0.0367475152015686035
0.972281098365783691 3.4002680778503418 -0.592680096626281738
1.83660125732421875 4.76087808609008789 -0.0310966968536376953
0.991412937641143799 3.36378860473632812 -0.592393159866333008
0.521164059638977051 4.38744688034057617 1.02506613731384277
0.818783879280090332 3.47629451751708984 -0.308185040950775146
-1.10670709609985352 3.70528149604797363 0.176121443510055542
-1.07634532451629639 3.72456693649291992 -0.496903151273727417
-0.876084685325622559 2.42352128028869629 -0.857500672340393066
-0.947754204273223877 3.70986533164978027 -0.339283406734466553
0.918135285377502441 3.32905459403991699 -0.546173989772796631
1.84116101264953613 7.27210855484008789 2.17369937896728516
0.837882518768310547 3.27841973304748535 -0.528033077716827393
1.14088106155395508 3.4657893180847168 -0.538047432899475098
0.857658982276916504 3.2981715202331543 -0.570086061954498291
-1.14934897422790527 3.60249018669128418 -0.466157436370849609
0.890272676944732666 3.3634495735168457 -0.56602632999420166
-0.365078777074813843 6.66722726821899414 2.26722860336303711
-1.86638593673706055 3.65495109558105469 0.395048916339874268
0.944392383098602295 3.36585116386413574 -0.553995788097381592
2.57297849655151367 4.24000740051269531 1.21874666213989258
0.671025574207305908 3.18890857696533203 -0.691616415977478027
-0.753119587898254395 3.70394110679626465 -0.739154994487762451
1.808388352394104 4.51613903045654297 -0.671791434288024902
1.06070148944854736 3.36400437355041504 -0.451049149036407471
