ply
format ascii 1.0
element vertex 256
comment vertices
property float x
property float y
property float z
end_header
-2.22510766983032227 6.26274681091308594 1.12915289402008057
1.61359500885009766 2.25846171379089355 -0.620295882225036621
-1.83222949504852295 3.10860371589660645 -0.579352021217346191
0.434467166662216187 3.08994913101196289 2.39616513252258301
-4.62237358093261719 6.24833393096923828 7.48006248474121094
-0.313279569149017334 4.49175453186035156 -0.421017110347747803
-3.03624320030212402 4.78153467178344727 -0.0997940748929977417
0.104710012674331665 2.42463493347167969 -0.547218918800354004
1.86777842044830322 2.4149169921875 0.154605984687805176
-1.96207618713378906 5.44470453262329102 -0.396797835826873779
0.112714707851409912 2.65558600425720215 -0.473355710506439209
-0.423485904932022095 4.25459146499633789 2.11022114753723145
-1.21568620204925537 7.00771665573120117 0.0400051474571228027
-2.29451322555541992 4.57328176498413086 0.506410777568817139
-3.77611827850341797 5.50389289855957031 6.48210000991821289
-1.06951963901519775 5.36494016647338867 -0.119603559374809265
-1.68140745162963867 2.17578339576721191 -0.600221633911132812
-0.236745074391365051 4.34268331527709961 0.758820176124572754
-2.49633669853210449 5.41936302185058594 -0.0245990157127380371
0.120432913303375244 2.44135689735412598 -0.491772890090942383
-0.176777005195617676 2.68900084495544434 -0.0681308507919311523
0.0672385692596435547 2.56343674659729004 -0.487519234418869019
-2.58925247192382812 3.8089747428894043 6.83870553970336914
0.120408773422241211 2.4914247989654541 -0.483270108699798584
-0.618381619453430176 5.65682458877563477 1.07091569900512695
-0.312330663204193115 3.17976903915405273 -0.319661498069763184
1.93135833740234375 2.56201338768005371 0.293127894401550293
-1.35849273204803467 6.01589202880859375 0.38979572057723999
-2.60709857940673828 4.99379205703735352 4.83063077926635742
0.0621224045753479004 3.76806998252868652 1.59907734394073486
-2.76374554634094238 5.17748498916625977 0.322997301816940308
0.222231477499008179 2.50890326499938965 -0.583940267562866211
0.624649107456207275 3.81901860237121582 0.49364277720451355
0.179847657680511475 2.4769139289855957 -0.600493729114532471
-2.59489822387695312 5.521148681640625 1.0518944263458252
0.117707610130310059 2.54150080680847168 -0.615771830081939697
-0.554837584495544434 2.91866517066955566 -0.566978633403778076
-0.888263523578643799 6.21167421340942383 0.00402300059795379639
0.16037769615650177 2.5296940803527832 -0.506546139717102051
0.0416130423545837402 2.62045168876647949 -0.424876391887664795
-0.57836461067199707 4.50095033645629883 -0.00399485230445861816
-1.64766669273376465 3.17536687850952148 -0.614799082279205322
-0.406890273094177246 5.12997817993164062 0.972279846668243408
-1.33710908889770508 6.41298818588256836 1.02062749862670898
1.47980451583862305 2.16110515594482422 -0.631183207035064697
-2.45578265190124512 4.61177968978881836 -0.384518265724182129
-0.0106005668640136719 2.65809798240661621 -0.0840782225131988525
0.118957996368408203 2.44014906883239746 -0.553588807582855225
-2.60691237449645996 5.46252059936523438 0.0269394814968109131
0.892267704010009766 2.54600429534912109 -0.475706517696380615
0.0899488329887390137 2.48116898536682129 -0.486992239952087402
-2.38432025909423828 4.98586845397949219 0.069734424352645874
-1.59279370307922363 6.19408273696899414 1.11547553539276123
-1.72345578670501709 3.05040168762207031 -0.6893463134765625
1.56517314910888672 1.99566185474395752 -0.195268228650093079
-0.223357483744621277 3.61083030700683594 -0.541653156280517578
0.743132054805755615 3.19349861145019531 1.00852751731872559
-0.659925460815429688 5.46419095993041992 0.886745452880859375
0.11739465594291687 2.47727274894714355 -0.553715229034423828
-0.364190280437469482 2.75868368148803711 -0.218009352684020996
-2.08997297286987305 4.79271650314331055 -0.365536332130432129
0.0557096004486083984 2.60513949394226074 -0.437950432300567627
-2.2987823486328125 5.88470268249511719 0.698884248733520508
-0.106187343597412109 4.87585783004760742 0.657269001007080078
-0.0847649574279785156 3.70017528533935547 -0.0489680171012878418
0.10610586404800415 2.48660659790039062 -0.509683549404144287
-0.799798488616943359 5.27438068389892578 0.382297724485397339
0.618302345275878906 3.62564659118652344 0.682912111282348633
-0.758404016494750977 4.50051975250244141 -0.533082962036132812
1.23763859272003174 2.73215126991271973 0.247363269329071045
0.054320216178894043 2.52202868461608887 -0.536074399948120117
-1.01558709144592285 5.88145828247070312 1.05156910419464111
-0.114554733037948608 2.76961636543273926 -0.53274226188659668
-1.02487778663635254 6.31643581390380859 0.922170639038085938
-2.65894174575805664 5.57524394989013672 0.788988113403320312
-0.111791551113128662 3.97216224670410156 -0.268927514553070068
-1.70945870876312256 3.14770245552062988 -0.608151435852050781
-3.07781720161437988 5.02349376678466797 0.629078149795532227
-0.626251816749572754 4.89851474761962891 -0.11734442412853241
0.17158275842666626 2.45316123962402344 -0.56561589241027832
-3.54132747650146484 4.81860637664794922 7.12734413146972656
-0.188717514276504517 2.70373296737670898 -0.322974503040313721
-1.79061996936798096 3.13696551322937012 -0.623705506324768066
-0.804863691329956055 2.53275966644287109 -0.644289016723632812
0.171222984790802002 2.53281068801879883 -0.491289973258972168
0.246535301208496094 4.41313457489013672 1.04248952865600586
-4.41069507598876953 5.41501903533935547 7.97301387786865234
-1.24869394302368164 4.97550392150878906 -0.0403836518526077271
-2.77889084815979004 5.29303503036499023 1.37544167041778564
1.68793463706970215 2.53838682174682617 1.05054688453674316
-2.67495965957641602 5.19436407089233398 0.0779663324356079102
-1.92171180248260498 2.95389866828918457 -0.522031307220458984
-3.14207243919372559 4.77050018310546875 0.10558435320854187
-2.42595672607421875 5.66573476791381836 1.41147291660308838
-0.00229132175445556641 2.55586791038513184 -0.520598888397216797
-1.03836297988891602 6.10769319534301758 0.370712310075759888
0.155722618103027344 2.62696385383605957 -0.509837925434112549
0.691508948802947998 3.4896852970123291 0.551586031913757324
-0.0984310954809188843 4.30223321914672852 1.10177624225616455
0.0954718589782714844 2.56490278244018555 -0.56628262996673584
0.0087919384241104126 3.18887424468994141 2.74913930892944336
-0.741789281368255615 2.88782310485839844 -0.613469600677490234
-0.722188770771026611 4.40895652770996094 0.391938209533691406
-1.87685942649841309 3.0070033073425293 -0.60298079252243042
1.14722692966461182 2.39901304244995117 -0.644811391830444336
1.51453089714050293 2.28789496421813965 -0.497735381126403809
0.0854880809783935547 2.43846511840820312 -0.531269550323486328
0.196242421865463257 2.44185590744018555 -0.55600428581237793
-0.0719071701169013977 4.07304477691650391 0.0586019158363342285
0.841809988021850586 3.21227335929870605 0.774039149284362793
0.123043924570083618 2.44342494010925293 -0.537552177906036377
-2.55448436737060547 5.88893938064575195 0.581795990467071533
-0.298286348581314087 4.93456029891967773 0.395022690296173096
0.214278459548950195 4.05665826797485352 0.703770697116851807
-2.78991794586181641 5.18129682540893555 0.712321341037750244
-2.43326425552368164 4.70642614364624023 -0.366085857152938843
-2.46866226196289062 5.52669239044189453 0.496969789266586304
-0.246020212769508362 3.99950361251831055 -0.293245077133178711
0.160145491361618042 2.5978543758392334 -0.462338626384735107
-0.0900186300277709961 2.51166486740112305 -0.285442352294921875
-0.18678969144821167 5.23250532150268555 1.0440666675567627
0.117706507444381714 2.54748106002807617 -0.565083444118499756
0.915405690670013428 3.2549889087677002 0.558328628540039062
1.59442424774169922e-06 2.58379220962524414 -0.495623290538787842
0.0888679623603820801 2.60986781120300293 -0.435924053192138672
0.0938544273376464844 2.49883460998535156 -0.438063204288482666
-0.265953868627548218 2.99908971786499023 -0.13132166862487793
-1.70019435882568359 6.3134160041809082 1.3880077600479126
1.55685520172119141 2.24712061882019043 -0.687084317207336426
-1.75930511951446533 2.99987697601318359 -0.607458949089050293
0.571226596832275391 2.76345205307006836 2.21557760238647461
-1.31380581855773926 5.61168479919433594 1.14272761344909668
-2.27458405494689941 5.43587875366210938 -0.111721813678741455
0.881490528583526611 2.42576861381530762 -0.0411784350872039795
0.118511557579040527 2.49835753440856934 -0.532409489154815674
0.0609568357467651367 2.54771137237548828 -0.347905248403549194
-2.97729039192199707 5.08211421966552734 -0.0658943355083465576
-2.37270879745483398 5.80340051651000977 1.00547552108764648
-0.948009133338928223 5.30726099014282227 0.95969700813293457
-0.0747230648994445801 2.5962371826171875 -0.438840150833129883
0.153152108192443848 2.4508965015411377 -0.553536534309387207
0.637198865413665771 2.4792168140411377 -0.287700563669204712
0.0687317848205566406 2.59763145446777344 -0.486855596303939819
0.201103389263153076 2.44392728805541992 -0.581702947616577148
0.280813694000244141 2.94363141059875488 0.0691358447074890137
-2.568145751953125 4.48436832427978516 -0.4434814453125
-0.346351593732833862 4.43413448333740234 -0.221203386783599854
0.0881935954093933105 2.37082076072692871 -0.467384934425354004
-2.06931161880493164 6.19813680648803711 0.973936200141906738
-0.0612607002258300781 2.59380888938903809 -0.288992196321487427
-2.69052529335021973 5.28497219085693359 0.670397520065307617
1.69197022914886475 2.32553482055664062 -0.439320266246795654
0.183766007423400879 5.03147315979003906 1.27546453475952148
-1.9549182653427124 5.09062004089355469 -0.340131074190139771
-0.292581260204315186 5.35557222366333008 0.882980227470397949
0.10593569278717041 2.5003354549407959 -0.533652782440185547
0.127567529678344727 2.64002227783203125 -0.454278409481048584
-2.61498880386352539 4.79810190200805664 -0.292434543371200562
-2.61874771118164062 6.28004837036132812 2.53540515899658203
-1.61075460910797119 6.01007413864135742 0.383554846048355103
-0.48359072208404541 3.8547208309173584 3.05922365188598633
0.199611783027648926 2.19240784645080566 -0.161857455968856812
0.175003856420516968 2.47669410705566406 -0.574110627174377441
-0.0551952719688415527 5.02080440521240234 0.919801115989685059
-0.823784589767456055 5.13154363632202148 1.13217043876647949
0.117009066045284271 2.59871053695678711 -0.523382782936096191
-1.76280677318572998 3.03533339500427246 -0.61478722095489502
0.979722082614898682 2.98470926284790039 0.867445468902587891
-2.40146780014038086 5.07391548156738281 0.226163744926452637
-1.17203903198242188 5.00026416778564453 0.0174606144428253174
0.131142154335975647 2.49481630325317383 -0.516807198524475098
0.127686560153961182 2.4609832763671875 -0.564488589763641357
1.50676369667053223 2.25028729438781738 -0.662741601467132568
1.23536121845245361 2.59824061393737793 0.0302580595016479492
-1.74722659587860107 5.86730861663818359 1.40821194648742676
-0.25210532546043396 2.82522678375244141 -0.320127725601196289
0.0355457067489624023 2.42572379112243652 -0.483171373605728149
1.26222467422485352 2.24564313888549805 -0.12710946798324585
-1.04856765270233154 4.3885035514831543 0.0958052873611450195
0.21836245059967041 2.48795080184936523 -0.520432651042938232
0.540798068046569824 3.34068727493286133 0.738365292549133301
0.255976736545562744 2.48684072494506836 -0.587749719619750977
-1.14708232879638672 3.97861051559448242 3.87933063507080078
1.62517797946929932 2.21393871307373047 -0.442924171686172485
-1.35928988456726074 5.43410015106201172 1.4185868501663208
-1.19565153121948242 6.17817401885986328 0.51574099063873291
0.360534548759460449 3.06522393226623535 0.106943249702453613
-2.13880658149719238 6.19281816482543945 0.678743183612823486
-2.77292203903198242 5.25243043899536133 0.800127267837524414
0.85244441032409668 3.58115935325622559 0.454565286636352539
-0.0600092411041259766 2.59342741966247559 -0.599354863166809082
-2.29534482955932617 5.64516162872314453 0.371533483266830444
-0.244727268815040588 3.99607086181640625 -0.175884097814559937
-2.57107639312744141 5.48180961608886719 1.33467972278594971
1.31517493724822998 2.89772272109985352 0.837652504444122314
-0.106474533677101135 3.97777891159057617 -0.457715511322021484
-2.57514786720275879 5.69615459442138672 0.725129485130310059
0.164584040641784668 2.51877284049987793 -0.492340087890625
-0.473668575286865234 3.12782526016235352 -0.354102015495300293
-1.71542501449584961 6.48675107955932617 1.06650722026824951
-0.170615971088409424 2.80898213386535645 -0.115905702114105225
-2.55105495452880859 5.11468935012817383 -0.105918988585472107
1.43804693222045898 2.6448371410369873 0.279978811740875244
-0.178813129663467407 3.95086216926574707 -0.427347183227539062
-0.146516352891921997 3.88830709457397461 0.181086897850036621
0.849142372608184814 2.35062026977539062 -0.623633742332458496
-0.140985041856765747 3.6027987003326416 0.128703117370605469
-0.84392249584197998 6.38263273239135742 0.591041922569274902
0.097240149974822998 2.53725552558898926 -0.506443440914154053
-3.06750702857971191 5.03214883804321289 0.313055038452148438
-1.77929556369781494 3.03841948509216309 -0.601020634174346924
0.0640456676483154297 4.68925046920776367 0.700302243232727051
0.897189199924468994 3.3880770206451416 0.473045051097869873
-2.54512667655944824 5.00437736511230469 -0.0398789495229721069
-0.937163472175598145 5.71682929992675781 0.246352821588516235
-0.596982955932617188 4.40964841842651367 0.654086887836456299
0.138377666473388672 2.46451616287231445 -0.516712307929992676
0.13418540358543396 2.43509578704833984 -0.552774727344512939
0.066753387451171875 2.50112485885620117 -0.527176856994628906
-2.26217103004455566 4.94066047668457031 -0.300736129283905029
-2.79736971855163574 5.09520053863525391 -0.0893691033124923706
0.0310176610946655273 2.48058652877807617 -0.635719656944274902
0.0174316763877868652 2.57365703582763672 -0.480598866939544678
0.122806966304779053 2.58612251281738281 -0.488467514514923096
-0.886264145374298096 5.50195598602294922 0.87061619758605957
0.137762218713760376 2.51009082794189453 -0.578221559524536133
-1.91166532039642334 2.98963069915771484 -0.548092246055603027
0.125143319368362427 2.41175532341003418 -0.549680650234222412
0.0931492447853088379 2.42194819450378418 -0.473885595798492432
0.0780974030494689941 2.41958475112915039 -0.515273988246917725
0.678647398948669434 3.84556770324707031 0.76720041036605835
-1.17608308792114258 5.30175399780273438 -0.0982362255454063416
-1.76776218414306641 3.04006862640380859 -0.585541248321533203
-1.75053143501281738 3.10820245742797852 -0.668587386608123779
0.104731082916259766 2.65464663505554199 -0.388555765151977539
-1.21178984642028809 4.25594282150268555 3.0434870719909668
-0.18143114447593689 4.22407007217407227 -0.130527138710021973
0.266181826591491699 4.30765247344970703 0.998564958572387695
1.32599246501922607 2.24342584609985352 -0.343730062246322632
-0.673487842082977295 5.10393095016479492 0.941971004009246826
-1.73364806175231934 6.30842161178588867 0.152766570448875427
0.110842287540435791 2.50197172164916992 -0.562982916831970215
-0.957097768783569336 5.51597404479980469 1.08721518516540527
-2.56486749649047852 5.31860780715942383 0.384338289499282837
1.11267948150634766 3.1068108081817627 0.72302478551864624
0.123599588871002197 2.54928469657897949 -0.475811600685119629
0.117519080638885498 2.46035647392272949 -0.599726974964141846
0.200581669807434082 2.47712588310241699 -0.0276515483856201172
1.59828865528106689 2.24533224105834961 -0.521207034587860107
-0.825427472591400146 6.72841835021972656 0.585770726203918457
1.60742461681365967 2.26927042007446289 -0.589883983135223389
0.140365242958068848 2.51746129989624023 -0.585939228534698486
0.0953089073300361633 2.54615426063537598 -0.536027789115905762
-0.812208116054534912 2.40401148796081543 -0.548103570938110352
0.393071115016937256 4.17358636856079102 1.01733899116516113
1.57958686351776123 2.69047904014587402 1.19251275062561035
