ply
format ascii 1.0
element vertex 57
comment vertices
property float x
property float y
property float z
end_header
0.893261492252349854 3.41541767120361328 -0.582785964012145996
0.923401534557342529 3.43766641616821289 -0.60223764181137085
0.932287156581878662 3.40534496307373047 -0.557685971260070801
0.90325462818145752 3.42515730857849121 -0.594577670097351074
0.866020083427429199 3.38489460945129395 -0.694168925285339355
0.869039237499237061 3.39184665679931641 -0.685312271118164062
0.901315271854400635 3.42080998420715332 -0.585474193096160889
0.905174612998962402 3.38948893547058105 -0.601209521293640137
0.920898258686065674 3.43826913833618164 -0.6144065260887146
0.936621308326721191 3.43544840812683105 -0.595581889152526855
0.925654828548431396 3.44063687324523926 -0.629351794719696045
0.910764336585998535 3.4278714656829834 -0.635443150997161865
0.922508060932159424 3.42545080184936523 -0.55074697732925415
0.909817278385162354 3.42614054679870605 -0.598126769065856934
0.913857221603393555 3.40886139869689941 -0.582544207572937012
0.926522970199584961 3.41918611526489258 -0.616815745830535889
0.912021279335021973 3.43134856224060059 -0.620372533798217773
0.902076840400695801 3.42619562149047852 -0.59160161018371582
0.884181737899780273 3.42507243156433105 -0.677537381649017334
0.928634881973266602 3.41234230995178223 -0.565943121910095215
0.911419928073883057 3.43128204345703125 -0.601034343242645264
0.889854669570922852 3.38888120651245117 -0.606303751468658447
0.901397049427032471 3.42605257034301758 -0.59807741641998291
0.936105430126190186 3.43539667129516602 -0.598361730575561523
0.896719574928283691 3.4228515625 -0.590723276138305664
0.877340018749237061 3.4002983570098877 -0.618842720985412598
0.928678452968597412 3.43035888671875 -0.543202519416809082
0.904214560985565186 3.42661118507385254 -0.599247753620147705
0.885867536067962646 3.42584443092346191 -0.561136722564697266
0.918580412864685059 3.43627333641052246 -0.571538090705871582
0.946737945079803467 3.43192338943481445 -0.587695837020874023
0.88308030366897583 3.41646265983581543 -0.59972536563873291
0.88334357738494873 3.4245297908782959 -0.677182495594024658
0.906757831573486328 3.42092561721801758 -0.69449317455291748
0.902856528759002686 3.42554211616516113 -0.592480182647705078
0.896688640117645264 3.42608952522277832 -0.594195961952209473
0.918120086193084717 3.43759727478027344 -0.61898726224899292
0.906940996646881104 3.4267120361328125 -0.625263869762420654
0.906396448612213135 3.41894960403442383 -0.679342210292816162
0.922273337841033936 3.43838953971862793 -0.614095091819763184
0.915866672992706299 3.43243241310119629 -0.618063509464263916
0.90666121244430542 3.41981315612792969 -0.687780618667602539
0.88206106424331665 3.40690445899963379 -0.655204534530639648
0.903024017810821533 3.4127960205078125 -0.603252887725830078
0.909002423286437988 3.43434667587280273 -0.636385083198547363
0.80117720365524292 3.3793942928314209 -0.440743982791900635
0.924847126007080078 3.41791415214538574 -0.566601037979125977
0.931953012943267822 3.4386904239654541 -0.608456075191497803
0.94315636157989502 3.43327069282531738 -0.597101449966430664
0.895607352256774902 3.37418556213378906 -0.432084619998931885
0.913383185863494873 3.43179464340209961 -0.576104640960693359
0.892655253410339355 3.41948175430297852 -0.569463551044464111
0.893816888332366943 3.42542719841003418 -0.585746407508850098
0.903090238571166992 3.42504239082336426 -0.589110732078552246
0.922600746154785156 3.43393874168395996 -0.58056640625
0.814142227172851562 3.31666731834411621 -0.623231887817382812
0.95102083683013916 3.4231562614440918 -0.504513680934906006
