ply
format ascii 1.0
element vertex 256
comment vertices
property float x
property float y
property float z
end_header
-0.588101029396057129 3.24250507354736328 0.583335638046264648
3.46210122108459473 6.94558906555175781 3.97201251983642578
-5.0613245964050293 5.42394304275512695 3.02929162979125977
-0.54353177547454834 7.01521587371826172 1.62402212619781494
0.932722806930541992 3.49640202522277832 -0.751304745674133301
3.35662603378295898 3.20068597793579102 0.146616876125335693
-2.12361431121826172 1.5364227294921875 -0.828635692596435547
-3.39102458953857422 3.56689572334289551 0.896469712257385254
-2.7310175895690918 3.66158723831176758 1.63155221939086914
2.49215269088745117 4.89016628265380859 -0.851555109024047852
1.93887710571289062 6.28228092193603516 2.20695137977600098
-3.43460917472839355 6.30579233169555664 1.93492329120635986
0.688402056694030762 5.42839479446411133 2.01855134963989258
0.928607821464538574 3.3995814323425293 -0.702502965927124023
-1.26812994480133057 3.59460616111755371 -0.646843135356903076
-0.270341396331787109 1.49708914756774902 -0.693885147571563721
0.893261492252349854 3.41541767120361328 -0.582785964012145996
-2.08365869522094727 3.33755302429199219 1.12864220142364502
4.78362274169921875 5.28064203262329102 1.41767644882202148
0.923401534557342529 3.43766641616821289 -0.60223764181137085
-1.14630496501922607 5.41334199905395508 2.25293254852294922
-0.932829558849334717 3.64289164543151855 -0.655786693096160889
1.16316413879394531 3.40922069549560547 -0.405591785907745361
1.01514434814453125 6.64479398727416992 2.37071895599365234
1.89764344692230225 5.7956085205078125 2.0363624095916748
3.88227748870849609 6.91213703155517578 1.51443946361541748
0.932287156581878662 3.40534496307373047 -0.557685971260070801
2.73559117317199707 2.71548557281494141 -0.555841267108917236
-4.30176115036010742 4.35953426361083984 2.11139154434204102
-2.31475734710693359 3.2071845531463623 -0.558993041515350342
-0.826729178428649902 3.66631889343261719 -0.689173996448516846
2.06208610534667969 6.54851675033569336 1.23348605632781982
-1.2222895622253418 6.3777775764465332 1.52591073513031006
1.02043807506561279 3.46614718437194824 -0.630561351776123047
0.173550024628639221 3.29473757743835449 -0.726456224918365479
0.90325462818145752 3.42515730857849121 -0.594577670097351074
0.224148690700531006 4.09611225128173828 1.10088467597961426
0.866020083427429199 3.38489460945129395 -0.694168925285339355
0.869039237499237061 3.39184665679931641 -0.685312271118164062
-1.0276716947555542 2.80973482131958008 -0.242847323417663574
0.228281378746032715 6.43548917770385742 2.24904108047485352
0.901315271854400635 3.42080998420715332 -0.585474193096160889
1.46779608726501465 4.63772916793823242 0.91657489538192749
1.79928827285766602 4.60850667953491211 -0.669074535369873047
2.86587953567504883 4.57576560974121094 1.04136157035827637
-0.846653640270233154 7.16576671600341797 2.00880002975463867
-1.01240241527557373 3.62154769897460938 -0.664457321166992188
-0.977289080619812012 3.64742588996887207 -0.499260306358337402
1.74578046798706055 6.35922813415527344 2.37872123718261719
-0.924658000469207764 3.66038131713867188 -0.660502731800079346
1.04511857032775879 3.42225384712219238 -0.357381820678710938
0.905174612998962402 3.38948893547058105 -0.601209521293640137
-1.44458472728729248 7.1053624153137207 2.07096529006958008
0.731445670127868652 5.5480499267578125 2.12324261665344238
-1.14891242980957031 2.89898777008056641 -0.857931196689605713
2.79488611221313477 4.11936140060424805 1.93747043609619141
1.6889873743057251 6.40593481063842773 2.09958195686340332
0.413753867149353027 6.34274816513061523 2.10570859909057617
-1.10952448844909668 3.6743474006652832 1.20037400722503662
-2.51888227462768555 5.60182809829711914 1.06032466888427734
4.63515329360961914 5.65932941436767578 1.73387587070465088
0.751867830753326416 6.0346369743347168 2.17152857780456543
0.920898258686065674 3.43826913833618164 -0.6144065260887146
-1.17021012306213379 3.54595828056335449 -0.498890817165374756
-2.33644771575927734 2.95517754554748535 -0.76866602897644043
-0.726957619190216064 5.75689792633056641 2.29403257369995117
0.936621308326721191 3.43544840812683105 -0.595581889152526855
-0.806886613368988037 3.71530652046203613 -0.667606711387634277
-1.63730108737945557 2.81122779846191406 -0.348819255828857422
0.925654828548431396 3.44063687324523926 -0.629351794719696045
1.64835667610168457 3.68083524703979492 -0.431940048933029175
1.92785656452178955 5.39484167098999023 2.02565217018127441
-0.0813447386026382446 3.35140514373779297 -0.729511439800262451
0.982218146324157715 3.40305113792419434 -0.405246734619140625
2.24225497245788574 4.85797214508056641 -0.580382585525512695
-1.02882170677185059 3.5946495532989502 -0.662610292434692383
-0.581335604190826416 6.19007968902587891 2.3112790584564209
-1.92742621898651123 2.05587053298950195 -0.83496403694152832
0.910764336585998535 3.4278714656829834 -0.635443150997161865
0.922508060932159424 3.42545080184936523 -0.55074697732925415
1.82403039932250977 4.55313253402709961 -0.827823281288146973
0.968640804290771484 3.41950798034667969 -0.521762847900390625
0.569806933403015137 6.02663183212280273 1.9907386302947998
0.560258686542510986 2.2897648811340332 -0.209558606147766113
1.05510902404785156 3.82927322387695312 -0.820905029773712158
1.95736551284790039 3.76032423973083496 1.93139183521270752
2.13626384735107422 4.66933822631835938 1.0433051586151123
0.909817278385162354 3.42614054679870605 -0.598126769065856934
1.64864194393157959 7.45655012130737305 2.11935591697692871
-1.32771313190460205 3.50571966171264648 1.16768348217010498
0.913857221603393555 3.40886139869689941 -0.582544207572937012
-1.29218971729278564 2.42875266075134277 -0.882704555988311768
-2.27029061317443848 2.94091486930847168 -0.614113032817840576
-0.0075364578515291214 3.45799851417541504 0.814738750457763672
-3.27988934516906738 0.520475864410400391 -0.759741723537445068
0.926522970199584961 3.41918611526489258 -0.616815745830535889
0.912021279335021973 3.43134856224060059 -0.620372533798217773
0.902076840400695801 3.42619562149047852 -0.59160161018371582
3.48643684387207031 5.08572769165039062 1.06038820743560791
-1.16412127017974854 3.55563783645629883 -0.557210862636566162
-1.22693383693695068 6.43449163436889648 2.30835127830505371
0.884181737899780273 3.42507243156433105 -0.677537381649017334
1.91249263286590576 4.60441207885742188 -0.738177061080932617
1.00365710258483887 6.55204629898071289 1.48458743095397949
0.928634881973266602 3.41234230995178223 -0.565943121910095215
1.14634525775909424 1.87617242336273193 -0.526289939880371094
0.934615433216094971 3.40568304061889648 -0.709567904472351074
-1.13690471649169922 3.63699507713317871 -0.166720539331436157
-1.89350497722625732 6.3277735710144043 1.97882235050201416
0.911419928073883057 3.43128204345703125 -0.601034343242645264
-1.0869516134262085 3.59584331512451172 -0.667393505573272705
0.889854669570922852 3.38888120651245117 -0.606303751468658447
0.901397049427032471 3.42605257034301758 -0.59807741641998291
0.948306679725646973 3.42934560775756836 -0.658012747764587402
0.867854952812194824 3.67959451675415039 -0.533888399600982666
1.89574456214904785 4.33145999908447266 0.996287822723388672
0.936105430126190186 3.43539667129516602 -0.598361730575561523
0.441078633069992065 2.42306041717529297 -0.507236003875732422
-0.994021236896514893 3.60961389541625977 -0.680893361568450928
2.18339395523071289 4.92961835861206055 2.07769322395324707
1.10303354263305664 4.49132919311523438 0.969274640083312988
-1.0059816837310791 3.65392851829528809 -0.342023134231567383
-1.020591139793396 3.60737013816833496 -0.682498931884765625
-0.959232687950134277 3.63287138938903809 -0.651923060417175293
0.896719574928283691 3.4228515625 -0.590723276138305664
2.32802200317382812 6.76734161376953125 1.41985940933227539
0.877340018749237061 3.4002983570098877 -0.618842720985412598
-0.0637720078229904175 6.27352285385131836 1.8827364444732666
0.928678452968597412 3.43035888671875 -0.543202519416809082
-0.585206806659698486 4.25482368469238281 1.77177023887634277
1.42785739898681641 4.90015459060668945 0.169145137071609497
0.904214560985565186 3.42661118507385254 -0.599247753620147705
-1.39051914215087891 2.57086038589477539 -0.881405115127563477
-1.21944570541381836 3.5184776782989502 0.236651942133903503
-0.823933720588684082 3.71065640449523926 -0.662601172924041748
3.56563138961791992 5.18088769912719727 1.74435091018676758
-0.73980790376663208 3.86016607284545898 1.06112849712371826
0.481851816177368164 6.08606481552124023 2.16317009925842285
1.8559572696685791 4.64926576614379883 -0.458264440298080444
1.41300487518310547 5.25979089736938477 1.98150742053985596
-0.834389328956604004 3.6549839973449707 -0.704751253128051758
1.20841109752655029 6.60567474365234375 2.34403276443481445
1.82982635498046875 6.57867097854614258 2.33845973014831543
1.04919993877410889 6.3176732063293457 2.43689894676208496
-1.02004706859588623 3.61710596084594727 -0.660220980644226074
-1.49369311332702637 6.88456630706787109 2.01363849639892578
-1.72572040557861328 6.34764862060546875 1.25346171855926514
3.23894190788269043 3.21351933479309082 0.623000264167785645
-0.791927099227905273 3.57486653327941895 -0.585610270500183105
-1.11062312126159668 2.96538114547729492 -0.794597744941711426
-1.35011446475982666 6.96738481521606445 1.82143616676330566
1.50337386131286621 5.59010839462280273 1.94442903995513916
-1.04087257385253906 3.60231328010559082 -0.66770094633102417
-0.153756856918334961 6.64694690704345703 1.45443320274353027
0.711304366588592529 3.15941619873046875 -0.703697383403778076
0.346887201070785522 6.27765274047851562 2.23136019706726074
2.52984142303466797 5.36155033111572266 1.70894932746887207
0.885867536067962646 3.42584443092346191 -0.561136722564697266
-1.04208946228027344 3.27043342590332031 -0.578237414360046387
-0.932906746864318848 3.64376688003540039 -0.65534895658493042
0.953966379165649414 3.41611552238464355 -0.583849489688873291
-0.556892931461334229 3.45767593383789062 -0.720839262008666992
0.440796375274658203 5.74678134918212891 2.08662557601928711
0.153869450092315674 4.25459527969360352 0.399949312210083008
0.918580412864685059 3.43627333641052246 -0.571538090705871582
1.78726673126220703 4.62856101989746094 -0.823307812213897705
-0.869192004203796387 6.04635763168334961 2.1911163330078125
0.946737945079803467 3.43192338943481445 -0.587695837020874023
1.06273889541625977 5.90920877456665039 2.18754744529724121
1.73151803016662598 4.42320394515991211 -0.724547743797302246
-1.09684884548187256 3.65792322158813477 0.302036821842193604
0.0699761062860488892 6.23242330551147461 2.1263270378112793
-0.935547471046447754 3.64226508140563965 -0.658995509147644043
-0.928859114646911621 3.67118954658508301 -0.659435033798217773
0.0784992501139640808 6.38928890228271484 2.26874756813049316
1.44004940986633301 4.75157642364501953 -0.781615018844604492
-1.18498504161834717 3.5598142147064209 -0.67084348201751709
0.898943006992340088 6.09577751159667969 2.34644508361816406
0.88308030366897583 3.41646265983581543 -0.59972536563873291
-1.08517253398895264 3.60862898826599121 -0.111465200781822205
-4.30285024642944336 4.99753284454345703 0.180706053972244263
-1.09426069259643555 3.58706974983215332 -0.685048401355743408
0.88334357738494873 3.4245297908782959 -0.677182495594024658
-1.23680329322814941 3.56287884712219238 -0.74437105655670166
1.11971521377563477 6.47638511657714844 2.36219692230224609
-1.58623039722442627 1.80294632911682129 -0.875697910785675049
1.24638509750366211 4.75598573684692383 0.33459240198135376
-1.33105123043060303 6.55769014358520508 2.36097836494445801
1.94058418273925781 4.56430673599243164 1.62735939025878906
0.881622076034545898 3.42915582656860352 -0.346681416034698486
0.351989924907684326 6.38269519805908203 2.36477303504943848
0.906757831573486328 3.42092561721801758 -0.69449317455291748
0.902856528759002686 3.42554211616516113 -0.592480182647705078
-0.985125601291656494 3.62387824058532715 -0.64702528715133667
0.896688640117645264 3.42608952522277832 -0.594195961952209473
-0.785775244235992432 3.72504401206970215 -0.692028820514678955
2.02316761016845703 4.97415065765380859 -0.731884121894836426
1.60392439365386963 2.84812021255493164 -0.525275349617004395
0.918120086193084717 3.43759727478027344 -0.61898726224899292
0.703568100929260254 6.58145666122436523 2.27057456970214844
0.906940996646881104 3.4267120361328125 -0.625263869762420654
0.906396448612213135 3.41894960403442383 -0.679342210292816162
0.922273337841033936 3.43838953971862793 -0.614095091819763184
0.915866672992706299 3.43243241310119629 -0.618063509464263916
-1.10763847827911377 3.66753864288330078 -0.230164438486099243
-2.53361177444458008 1.78033828735351562 -0.953846216201782227
0.90666121244430542 3.41981315612792969 -0.687780618667602539
2.71145296096801758 3.21606016159057617 0.0944602489471435547
-0.984235703945159912 3.63956141471862793 -0.6008186936378479
1.81373906135559082 4.73363399505615234 0.841513991355895996
0.88206106424331665 3.40690445899963379 -0.655204534530639648
-0.947348892688751221 3.79088234901428223 0.645657539367675781
-1.69867444038391113 6.548309326171875 1.83385396003723145
-1.63212966918945312 6.41801643371582031 1.68418693542480469
-2.46440672874450684 4.44243526458740234 1.88290441036224365
1.04024553298950195 3.45123791694641113 -0.361537635326385498
-1.60471498966217041 2.27731204032897949 -0.8785400390625
0.903024017810821533 3.4127960205078125 -0.603252887725830078
-1.19340014457702637 2.90929698944091797 -0.839164614677429199
0.139142483472824097 3.96753168106079102 0.956440269947052002
0.909002423286437988 3.43434667587280273 -0.636385083198547363
1.01397299766540527 4.14358854293823242 -0.757852017879486084
1.93042862415313721 6.59331083297729492 2.32065296173095703
1.98777055740356445 4.48427248001098633 -0.490643441677093506
0.80117720365524292 3.3793942928314209 -0.440743982791900635
1.28300285339355469 5.91731405258178711 1.68913531303405762
1.53061378002166748 5.89569759368896484 2.0728764533996582
-0.941529631614685059 3.63880729675292969 -0.652650237083435059
-1.02624297142028809 3.6109316349029541 -0.660629093647003174
0.00393093377351760864 6.20438385009765625 2.08620977401733398
0.924847126007080078 3.41791415214538574 -0.566601037979125977
0.403771817684173584 0.705452203750610352 -1.10228323936462402
0.931953012943267822 3.4386904239654541 -0.608456075191497803
1.56530582904815674 4.42101097106933594 -0.401565998792648315
0.94315636157989502 3.43327069282531738 -0.597101449966430664
0.527748823165893555 4.17333412170410156 1.08324110507965088
0.895607352256774902 3.37418556213378906 -0.432084619998931885
-1.12530779838562012 3.64642453193664551 0.0669338107109069824
-1.01790940761566162 3.63983297348022461 -0.636381685733795166
-0.932511270046234131 2.24930214881896973 -0.838007748126983643
-0.96935582160949707 3.67730808258056641 -0.539101123809814453
0.913383185863494873 3.43179464340209961 -0.576104640960693359
1.9620281457901001 6.53532314300537109 2.14753937721252441
0.892655253410339355 3.41948175430297852 -0.569463551044464111
0.982350289821624756 3.45481348037719727 -0.569483518600463867
0.893816888332366943 3.42542719841003418 -0.585746407508850098
-1.10552000999450684 3.60992932319641113 -0.62288665771484375
0.903090238571166992 3.42504239082336426 -0.589110732078552246
-0.523485720157623291 6.05439996719360352 2.26094317436218262
-2.12140059471130371 2.21026921272277832 -0.25978010892868042
0.922600746154785156 3.43393874168395996 -0.58056640625
4.02515935897827148 1.0151059627532959 0.212431073188781738
0.814142227172851562 3.31666731834411621 -0.623231887817382812
-0.812912106513977051 3.68319797515869141 -0.679758071899414062
1.7725297212600708 4.51430225372314453 -0.787901163101196289
0.95102083683013916 3.4231562614440918 -0.504513680934906006
