ply
format ascii 1.0
element vertex 256
comment vertices
property float x
property float y
property float z
end_header
1.21896910667419434 3.5476529598236084 0.570165574550628662
-2.14811992645263672 7.19205951690673828 3.7457880973815918
-2.2180027961730957 4.32135677337646484 -0.569049954414367676
2.37441754341125488 6.94591903686523438 1.98531889915466309
-0.40908360481262207 0.688989996910095215 -0.388039261102676392
-0.792539894580841064 5.15441322326660156 0.998190045356750488
0.20086902379989624 3.44054460525512695 -0.734162569046020508
1.6077040433883667 2.52532863616943359 -0.806922435760498047
0.669290840625762939 4.35658121109008789 -0.403560459613800049
1.19747781753540039 5.45234107971191406 2.27831196784973145
0.408309638500213623 7.19882345199584961 2.24364185333251953
-1.2258756160736084 4.7650761604309082 -0.768675327301025391
-2.23198962211608887 4.73444414138793945 0.727286100387573242
-2.19658041000366211 2.41826415061950684 0.392328351736068726
0.303887128829956055 3.41069412231445312 -0.495733261108398438
1.40341269969940186 4.44573831558227539 0.250028669834136963
-0.455033630132675171 6.33258962631225586 2.38687372207641602
1.845924973487854 2.21064329147338867 -0.325508385896682739
-1.63755810260772705 6.87882375717163086 2.25324225425720215
1.01749062538146973 6.95038747787475586 3.01529288291931152
0.225495085120201111 3.21098423004150391 -0.619203925132751465
-1.91541874408721924 4.07492876052856445 -0.680981040000915527
1.58548069000244141 6.49057817459106445 2.2484891414642334
0.195694029331207275 4.95675992965698242 0.0839996039867401123
0.0400182008743286133 1.74564647674560547 7.04629611968994141
-1.37451744079589844 1.59571683406829834 -0.609118044376373291
-3.58002567291259766 5.29823207855224609 0.0143172740936279297
0.025429844856262207 3.54862356185913086 -0.267874419689178467
-0.825491547584533691 5.26790475845336914 -0.199621483683586121
-1.96954751014709473 4.62506246566772461 -0.264153510332107544
-0.930561363697052002 7.18845462799072266 2.29761147499084473
0.164889395236968994 3.53893661499023438 -0.49646797776222229
0.229735344648361206 3.38536834716796875 -0.543285071849822998
-0.133268833160400391 4.76656389236450195 -0.315687000751495361
0.19748532772064209 3.26522016525268555 -0.58428490161895752
-0.635325372219085693 5.21263360977172852 -0.356011539697647095
-1.57509231567382812 4.64139509201049805 -0.73404848575592041
-0.731218636035919189 4.61941623687744141 1.55796384811401367
0.649777829647064209 6.16082143783569336 2.1999809741973877
-0.119831651449203491 7.65249156951904297 1.91104435920715332
0.202174335718154907 3.35509634017944336 -0.521624326705932617
-1.43657827377319336 4.44906425476074219 0.032727658748626709
-0.999833106994628906 0.426736295223236084 -0.354855626821517944
0.807594776153564453 1.58108663558959961 5.05861759185791016
1.98610079288482666 3.47929167747497559 0.21466219425201416
-1.88404989242553711 4.46951723098754883 -0.72755056619644165
0.935532212257385254 4.14417362213134766 0.789368391036987305
0.959040462970733643 7.08835601806640625 2.4341590404510498
0.584434032440185547 7.44784736633300781 2.00957226753234863
2.03148031234741211 2.75310158729553223 -0.473150938749313354
0.0120941177010536194 6.89648818969726562 2.4759979248046875
0.311167240142822266 3.29755544662475586 -0.204571694135665894
-1.6974102258682251 2.25042486190795898 -0.766967594623565674
0.252465486526489258 3.33956074714660645 -0.623841047286987305
0.266772806644439697 3.49297976493835449 -0.576672136783599854
-0.109476625919342041 3.5301668643951416 -0.637529253959655762
0.819367349147796631 6.72781848907470703 2.41119670867919922
-0.621558070182800293 5.39770793914794922 -0.154337435960769653
-1.60414958000183105 3.34329533576965332 -0.681227684020996094
0.996753215789794922 3.9696803092956543 -0.138384357094764709
2.14692878723144531 2.34920239448547363 0.675829887390136719
-1.54890096187591553 7.19997549057006836 2.38564658164978027
0.185597270727157593 3.28680086135864258 -0.74553680419921875
-1.79916501045227051 4.54621171951293945 -0.196845650672912598
-1.36612844467163086 4.49078035354614258 -0.417216569185256958
2.04442286491394043 2.66928935050964355 -0.236284062266349792
0.265042126178741455 3.39208412170410156 -0.626484274864196777
0.290204703807830811 3.46362543106079102 -0.592392325401306152
0.932474792003631592 5.49601507186889648 0.780452251434326172
1.3452153205871582 6.01022577285766602 2.1939690113067627
-0.230255722999572754 7.28733396530151367 2.28310918807983398
-0.589985907077789307 5.49703598022460938 0.606956720352172852
0.419195413589477539 4.15066242218017578 2.30389761924743652
-0.705012202262878418 5.2621002197265625 0.183307230472564697
-0.52131122350692749 0.74738001823425293 -0.579671144485473633
0.625860154628753662 5.65331411361694336 2.19192242622375488
0.096955418586730957 3.37563037872314453 -0.625353217124938965
1.04761981964111328 4.72191286087036133 0.382115632295608521
0.142327070236206055 3.8109595775604248 0.181006401777267456
-1.09352207183837891 4.28237247467041016 -0.744773924350738525
0.30205187201499939 3.31772232055664062 -0.584418654441833496
0.195544242858886719 3.38836765289306641 -0.528598368167877197
0.324171900749206543 3.27935099601745605 -0.482127010822296143
1.12422585487365723 3.45124244689941406 1.34230637550354004
-0.806550145149230957 5.18555974960327148 -0.487367331981658936
-1.67300069332122803 4.49171972274780273 -0.601427316665649414
-1.56332540512084961 4.4559636116027832 -0.0349749922752380371
-0.595344901084899902 7.44385528564453125 1.64046394824981689
-0.421886295080184937 0.721721947193145752 -0.188867390155792236
0.301665157079696655 3.49325227737426758 -0.494104474782943726
-1.46137213706970215 4.37752819061279297 -0.607287585735321045
-2.04340314865112305 4.81757688522338867 1.07676589488983154
0.00564181804656982422 4.86527204513549805 -0.168204605579376221
-1.45047092437744141 5.00569915771484375 1.15783393383026123
1.77604067325592041 2.06833505630493164 -0.565406084060668945
0.105278633534908295 5.87459850311279297 2.27871537208557129
2.79138088226318359 6.11854648590087891 1.79999804496765137
-1.37009119987487793 7.0203394889831543 2.3487241268157959
-1.24141645431518555 7.46294784545898438 2.43236112594604492
0.243005037307739258 3.34795188903808594 -0.525280892848968506
0.838014662265777588 3.82393741607666016 0.0554562211036682129
-1.83408546447753906 4.69625377655029297 -0.610428452491760254
0.113230109214782715 3.4844973087310791 -0.58075416088104248
-1.75903820991516113 4.49033164978027344 -0.740525007247924805
0.0842207074165344238 3.32709646224975586 -0.643362820148468018
-1.0248875617980957 4.84334659576416016 -0.607879281044006348
1.69429147243499756 7.43692684173583984 2.55515909194946289
-0.0246437788009643555 3.01072502136230469 5.20318222045898438
0.161549150943756104 3.30455279350280762 -0.672496497631072998
-0.329649269580841064 5.62848186492919922 0.679494142532348633
0.0193283557891845703 3.34275579452514648 -0.705381631851196289
-0.741423964500427246 6.73811960220336914 2.37703084945678711
0.971227049827575684 7.65174102783203125 2.46582150459289551
-1.50628769397735596 3.99513626098632812 0.0160218775272369385
0.249630361795425415 3.31821489334106445 -0.653167366981506348
0.288968563079833984 3.30498766899108887 -0.571405529975891113
0.248364835977554321 3.37244796752929688 -0.516628742218017578
0.603746891021728516 4.54132843017578125 1.59185171127319336
0.881495833396911621 4.98704814910888672 0.134540021419525146
-0.012994423508644104 6.40925121307373047 2.40190029144287109
1.60972952842712402 3.12668800354003906 1.13886630535125732
-2.55337738990783691 4.39379739761352539 -0.255061894655227661
1.75447142124176025 3.58133959770202637 0.390784382820129395
-1.97591495513916016 4.47705650329589844 0.245461881160736084
0.06031036376953125 3.45991420745849609 -0.745253324508666992
1.98407387733459473 2.74995303153991699 -0.451166868209838867
0.92052847146987915 5.92015552520751953 2.15516161918640137
0.499276429414749146 6.43695783615112305 2.43799185752868652
1.12492501735687256 6.61243200302124023 2.37209939956665039
1.48168885707855225 6.73286724090576172 2.34161496162414551
-1.34455668926239014 4.62821197509765625 -0.721204400062561035
0.239096134901046753 3.38403725624084473 -0.557388067245483398
0.223078757524490356 3.31139802932739258 -0.636439621448516846
0.314801990985870361 3.48432397842407227 -0.573548853397369385
0.728478670120239258 6.82611513137817383 2.4052884578704834
0.343809664249420166 4.07983016967773438 -0.30572172999382019
0.0181767940521240234 3.2267913818359375 -0.730937957763671875
-0.463733017444610596 0.728007495403289795 -0.282194197177886963
-1.76855254173278809 4.50328254699707031 -0.259934574365615845
0.981405377388000488 6.22896337509155273 2.3153986930847168
1.05583930015563965 3.46934032440185547 0.804614722728729248
0.245230674743652344 3.20598793029785156 -0.327739089727401733
-0.667436957359313965 7.45021247863769531 2.42494368553161621
0.291216462850570679 3.34071159362792969 -0.740968227386474609
-1.02937567234039307 3.76512432098388672 -0.665728926658630371
0.330880105495452881 3.23257684707641602 3.33770465850830078
-1.41252362728118896 2.94437718391418457 -0.724104046821594238
0.164809465408325195 3.2257540225982666 -0.59685748815536499
-0.851086735725402832 4.47288703918457031 0.625134885311126709
0.0724896565079689026 7.08304405212402344 2.37426400184631348
0.989790081977844238 4.48588943481445312 0.884130418300628662
-0.766091763973236084 5.34625959396362305 0.0382021069526672363
0.304093003273010254 3.18230915069580078 -0.746703982353210449
0.0929572582244873047 3.15487241744995117 -0.598866760730743408
-1.35617315769195557 7.25914287567138672 2.26451563835144043
0.827302455902099609 4.06933736801147461 -0.31477627158164978
-1.75112998485565186 2.83758044242858887 -0.461220085620880127
0.262311786413192749 3.46332645416259766 -0.600817024707794189
0.234578907489776611 3.47968649864196777 -0.240066289901733398
0.558656811714172363 3.44889974594116211 0.184155285358428955
0.172185033559799194 3.41099214553833008 -0.57225722074508667
-0.716627538204193115 5.3082733154296875 -0.149815142154693604
-0.264448553323745728 6.95721292495727539 2.48504304885864258
-1.69484567642211914 4.53663778305053711 -0.0511719584465026855
0.341724932193756104 3.44248390197753906 -0.255074560642242432
-1.04651093482971191 5.12499523162841797 -0.322275042533874512
0.277193278074264526 3.41991257667541504 -0.520188868045806885
0.116908088326454163 7.49218130111694336 2.44441580772399902
1.10920310020446777 3.2399139404296875 -0.0553320646286010742
0.430612266063690186 6.87703800201416016 2.54425048828125
0.316842198371887207 3.32769894599914551 -0.511239051818847656
0.271405160427093506 3.3291172981262207 -0.489644765853881836
0.290284216403961182 3.3535313606262207 -0.524153828620910645
-0.896369814872741699 5.24283838272094727 0.492252647876739502
-1.90159749984741211 6.95137977600097656 2.36942839622497559
2.09460282325744629 2.57537150382995605 -0.45477217435836792
1.13038516044616699 6.65056085586547852 2.44319581985473633
0.162742644548416138 3.31296586990356445 -0.486258417367935181
1.82334160804748535 2.17821359634399414 -0.463971257209777832
-1.94166707992553711 4.83528661727905273 0.343435049057006836
1.57610940933227539 5.35663461685180664 2.30987024307250977
0.28022390604019165 3.3464350700378418 -0.541486978530883789
-0.803048253059387207 5.3209528923034668 -0.278889775276184082
0.29193490743637085 3.32541990280151367 -0.667723596096038818
-1.08284640312194824 3.83504986763000488 -0.665453612804412842
-1.95632004737854004 4.4318242073059082 -0.548460662364959717
-0.0763061046600341797 3.68634271621704102 -0.0584132075309753418
-0.0635742247104644775 4.80295848846435547 -0.176900297403335571
1.83119642734527588 2.78324484825134277 0.95222771167755127
0.569252431392669678 5.28641510009765625 0.174687355756759644
1.08048665523529053 4.99477243423461914 0.690003275871276855
0.204818844795227051 3.41743898391723633 -0.618153810501098633
-0.06020345538854599 6.15860939025878906 2.3582308292388916
-0.398813784122467041 5.37564706802368164 0.0951206684112548828
1.9149545431137085 2.30695319175720215 -0.106910228729248047
1.72661280632019043 3.29929614067077637 0.520548760890960693
0.140395939350128174 3.09720730781555176 -0.736175179481506348
-1.45202219486236572 4.4701085090637207 -0.619910478591918945
-0.646370053291320801 5.19378137588500977 -0.127975523471832275
1.18178343772888184 4.34856939315795898 0.588827848434448242
-1.47728776931762695 4.55525636672973633 -0.756253838539123535
-1.4701918363571167 7.24142122268676758 2.17940473556518555
0.156456351280212402 3.4066765308380127 -0.689836859703063965
1.20130634307861328 4.84973049163818359 0.938820838928222656
0.332786440849304199 3.37391757965087891 -0.516669273376464844
-1.69252324104309082 4.41061305999755859 -0.6250649094581604
-1.81151938438415527 2.53805446624755859 -0.706532597541809082
-1.71686685085296631 4.96261358261108398 0.97619253396987915
-0.938019633293151855 4.97493362426757812 -0.437101513147354126
0.549736201763153076 4.90768146514892578 -0.133958697319030762
-1.41586112976074219 4.62112569808959961 -0.756942510604858398
-0.887944281101226807 5.35666179656982422 0.638413190841674805
-2.20906710624694824 3.67281579971313477 -0.641642272472381592
0.0904613137245178223 2.9779210090637207 5.01589250564575195
1.40688109397888184 5.76453924179077148 2.16794157028198242
-0.585520327091217041 5.43082094192504883 0.15862196683883667
0.140879452228546143 3.46542787551879883 -0.541657567024230957
0.456809759140014648 4.66863059997558594 1.09044086933135986
0.277458935976028442 3.49463319778442383 -0.550824165344238281
0.220759361982345581 3.51438689231872559 -0.569552958011627197
0.663471341133117676 2.367950439453125 4.7675623893737793
-1.43660902976989746 4.60570907592773438 -0.734822511672973633
1.39616560935974121 3.78530287742614746 0.542294323444366455
-0.96474301815032959 4.72873544692993164 0.0539329051971435547
0.216740697622299194 3.41913986206054688 -0.501901209354400635
0.198217123746871948 3.33577466011047363 -0.609228134155273438
2.08110404014587402 3.20331501960754395 0.563423752784729004
1.14702248573303223 4.79339313507080078 0.571561872959136963
-1.42084026336669922 4.29940700531005859 -0.722516655921936035
0.206371665000915527 3.33561468124389648 -0.669500112533569336
-0.350324332714080811 5.68956756591796875 1.00677275657653809
0.325171142816543579 5.9171147346496582 2.19857120513916016
-1.34351062774658203 4.06825542449951172 -0.055537879467010498
0.232114255428314209 3.44697666168212891 -0.499549180269241333
0.278703689575195312 3.26220369338989258 -0.616517484188079834
-0.596779882907867432 0.711941957473754883 -0.00231266021728515625
0.646469175815582275 4.97561073303222656 0.0958160161972045898
1.02843606472015381 4.1197056770324707 0.41890329122543335
0.261384516954421997 3.33935403823852539 -0.57018810510635376
-1.41165626049041748 4.98948431015014648 0.18798673152923584
0.191354095935821533 4.90426349639892578 -0.21553020179271698
0.432434052228927612 4.87579631805419922 -0.0335846245288848877
-0.29708591103553772 6.81380653381347656 2.42775654792785645
0.85693734884262085 4.40667057037353516 0.450859785079956055
-0.375253438949584961 0.763567805290222168 -0.253389835357666016
0.178591251373291016 3.27690625190734863 -0.62943422794342041
-1.15466403961181641 7.20365762710571289 2.05321788787841797
1.36287546157836914 6.48600673675537109 2.31098008155822754
0.33110654354095459 3.45258116722106934 -0.637682616710662842
-0.770816981792449951 7.00052642822265625 2.39972662925720215
-0.484875679016113281 7.05971050262451172 2.21905755996704102
-0.248670294880867004 7.6326141357421875 2.41857624053955078
-1.4317631721496582 5.01790380477905273 0.532047688961029053
0.472007811069488525 6.88542270660400391 2.43840670585632324
-0.821180939674377441 5.23367786407470703 0.31834101676940918
0.472512125968933105 4.10488510131835938 2.3551487922668457
