ply
format ascii 1.0
element vertex 79
comment vertices
property float x
property float y
property float z
end_header
-0.115881763398647308 3.0586705207824707 -0.816985368728637695
-0.224702820181846619 3.21384453773498535 -0.564541757106781006
-0.224907770752906799 3.22344040870666504 -0.626336336135864258
1.01060163974761963 4.02202796936035156 -0.8719482421875
-1.75223255157470703 4.0635371208190918 -0.718274533748626709
-0.243963688611984253 3.20843791961669922 -0.5845489501953125
-0.227233856916427612 3.20590591430664062 -0.624894618988037109
-0.21819855272769928 3.24857521057128906 -0.704091668128967285
-0.220631912350654602 3.20937919616699219 -0.567911803722381592
-0.20351564884185791 3.31056690216064453 -0.340433686971664429
-0.220823824405670166 3.21833467483520508 -0.706214487552642822
-0.225104227662086487 3.23050546646118164 -0.643471896648406982
-0.21755567193031311 3.22471046447753906 -0.649879753589630127
-0.223763808608055115 3.22849130630493164 -0.624105751514434814
-0.239913135766983032 3.24395489692687988 -0.591132938861846924
1.00721120834350586 4.01978397369384766 -0.896456778049468994
-0.209993824362754822 3.19808530807495117 -0.662029743194580078
-0.223240524530410767 3.21888041496276855 -0.627021908760070801
-0.220135867595672607 3.22456717491149902 -0.581665337085723877
1.14529097080230713 4.00137090682983398 -0.645336151123046875
-0.123130843043327332 3.19593334197998047 -0.43712887167930603
-0.234630018472671509 3.31459760665893555 -0.758470714092254639
-0.190145969390869141 3.24796795845031738 -0.598253905773162842
-0.252217382192611694 3.20250701904296875 -0.644728720188140869
-0.285369962453842163 3.19477057456970215 -0.654745280742645264
-0.224061951041221619 3.22149944305419922 -0.627875983715057373
-0.220977887511253357 3.21329808235168457 -0.725006818771362305
-0.228462293744087219 3.21921706199645996 -0.654970884323120117
-1.68552899360656738 4.04385662078857422 -0.779251456260681152
-0.226647615432739258 3.2066185474395752 -0.51291424036026001
-0.227752313017845154 3.2123408317565918 -0.689993143081665039
1.03662741184234619 4.03647089004516602 -0.793495714664459229
-0.211104974150657654 3.1942589282989502 -0.549495995044708252
-0.231371909379959106 3.23662209510803223 -0.712565124034881592
1.02361595630645752 4.03820943832397461 -0.921679496765136719
-0.224344164133071899 3.21782469749450684 -0.615603923797607422
-0.211017996072769165 3.19741296768188477 -0.528608441352844238
-0.224967822432518005 3.22049570083618164 -0.586600542068481445
-0.225510731339454651 3.22331070899963379 -0.663422584533691406
-0.224079996347427368 3.22016215324401855 -0.63700103759765625
-0.230176359415054321 3.2149965763092041 -0.612698912620544434
1.05013573169708252 3.9999089241027832 -0.925056874752044678
1.09431266784667969 4.03849649429321289 -0.898354053497314453
-0.243331775069236755 3.19867324829101562 -0.748727679252624512
-1.58880317211151123 4.04977798461914062 -0.750585734844207764
-0.179381951689720154 3.46403193473815918 -0.546455085277557373
-0.224976465106010437 3.22770023345947266 -0.639665067195892334
-0.249943375587463379 3.20564961433410645 -0.685861885547637939
-0.229200452566146851 3.21155858039855957 -0.64708024263381958
-0.208032906055450439 3.22075939178466797 -0.66968846321105957
-0.222703292965888977 3.22454643249511719 -0.657398641109466553
-0.204965651035308838 3.1930696964263916 -0.624921917915344238
-0.177386239171028137 3.16184544563293457 -0.540310323238372803
-0.213208526372909546 3.20874762535095215 -0.612084329128265381
-0.275090605020523071 3.35610747337341309 -0.65915524959564209
-0.216990694403648376 3.20200729370117188 -0.562234282493591309
1.17635607719421387 4.05502080917358398 -0.906124472618103027
-1.57857358455657959 4.05059576034545898 -0.788261950016021729
-0.332796186208724976 3.1712653636932373 -0.748496413230895996
-0.219725906848907471 3.21116209030151367 -0.627169668674468994
1.03381776809692383 4.04156112670898438 -0.827744841575622559
-0.249576464295387268 3.20243120193481445 -0.588308811187744141
-0.29990839958190918 3.22054481506347656 -0.714769601821899414
-0.218992963433265686 3.18492650985717773 -0.670686960220336914
-0.216906875371932983 3.23040962219238281 -0.589934587478637695
0.0151658877730369568 3.14264154434204102 -0.410069763660430908
-0.207188934087753296 3.19561314582824707 -0.582724869251251221
-0.215819254517555237 3.21463513374328613 -0.573453366756439209
-0.231821417808532715 3.22615289688110352 -0.554097473621368408
-0.256546974182128906 3.24357318878173828 -0.775593280792236328
-0.229021027684211731 3.21814441680908203 -0.674930334091186523
-0.216442257165908813 3.23027729988098145 -0.649481654167175293
-0.2391958087682724 3.20720267295837402 -0.707711160182952881
-1.71204674243927002 4.03137969970703125 -0.749777376651763916
-0.228388220071792603 3.21384835243225098 -0.655434846878051758
-0.224708423018455505 3.22201800346374512 -0.626737296581268311
-0.21660187840461731 3.22995591163635254 -0.607773542404174805
1.03625547885894775 4.03904581069946289 -0.924618422985076904
-0.225423052906990051 3.22411274909973145 -0.607289135456085205
