ply
format ascii 1.0
element vertex 208
comment vertices
property float x
property float y
property float z
end_header
0.245911970734596252 2.47033882141113281 -0.406977176666259766
1.4421238899230957 6.0914454460144043 2.7319328784942627
2.31647324562072754 3.45167040824890137 -0.850721538066864014
-0.0612742453813552856 1.0798417329788208 -0.728429317474365234
3.39946222305297852 1.02392327785491943 -0.0519154667854309082
-2.98996353149414062 2.40133929252624512 0.420067459344863892
0.325111299753189087 2.47611117362976074 -0.500669300556182861
-0.302055716514587402 2.5095212459564209 -0.535430014133453369
1.22480225563049316 2.28275203704833984 0.0825933516025543213
-1.37076175212860107 3.25998234748840332 -0.433691591024398804
-0.997313082218170166 2.94835996627807617 0.875306606292724609
0.316019594669342041 2.47090339660644531 -0.465414762496948242
0.310478150844573975 2.46469640731811523 -0.507877945899963379
0.327201336622238159 2.46447443962097168 -0.54287189245223999
3.36206364631652832 2.93496060371398926 -0.645616650581359863
0.306942939758300781 2.45598697662353516 -0.417863368988037109
-1.43122363090515137 3.13792681694030762 -0.348194330930709839
0.29020729660987854 2.47765374183654785 -0.475531101226806641
1.44672596454620361 3.23640656471252441 -0.0886982977390289307
0.0165641792118549347 3.34430217742919922 0.799042165279388428
0.228288322687149048 2.48663592338562012 -0.502013325691223145
1.07669997215270996 3.13004255294799805 -0.73615497350692749
0.32146531343460083 2.47500467300415039 -0.49449235200881958
0.329185366630554199 2.47414445877075195 -0.506926655769348145
-2.06940364837646484 2.15801286697387695 -0.61432194709777832
-1.3595421314239502 3.09882211685180664 1.00159645080566406
-0.288946270942687988 2.68575572967529297 -0.446513652801513672
1.93163013458251953 1.7081761360168457 0.35393369197845459
-1.30329740047454834 3.24630546569824219 -0.426272034645080566
0.322769075632095337 2.47718334197998047 -0.545096993446350098
0.318087756633758545 2.46296119689941406 -0.481549918651580811
0.338740766048431396 2.47352933883666992 -0.530551373958587646
-1.90438210964202881 2.21438479423522949 -0.596686124801635742
0.314352333545684814 2.45413017272949219 -0.451320290565490723
0.317563354969024658 2.47484159469604492 -0.481162399053573608
2.4718019962310791 2.7558901309967041 -0.059534221887588501
-0.0709633603692054749 1.32577347755432129 -0.716468214988708496
0.877012789249420166 3.44779753684997559 0.70771181583404541
0.320658624172210693 2.46032309532165527 -0.385350018739700317
0.323575258255004883 2.46190786361694336 -0.523758471012115479
0.294054210186004639 2.46763443946838379 -0.464252442121505737
2.09311199188232422 3.60786676406860352 -0.731487691402435303
0.329017758369445801 2.47570085525512695 -0.513795614242553711
-2.26578092575073242 1.7211531400680542 -0.579718112945556641
-4.41935157775878906 1.18932771682739258 -0.940276443958282471
0.310873299837112427 2.47047972679138184 -0.46432831883430481
0.432043582201004028 1.4840165376663208 0.0350913405418395996
0.380592793226242065 3.27753877639770508 0.78829503059387207
1.02409613132476807 1.1899491548538208 -0.635650515556335449
0.323587119579315186 2.47046017646789551 -0.486716717481613159
-1.18443655967712402 3.17638683319091797 0.647149145603179932
0.659639537334442139 2.77177882194519043 0.287993788719177246
0.225592121481895447 2.47357034683227539 -0.384682625532150269
0.310234695672988892 2.46795058250427246 -0.485676109790802002
1.73358690738677979 3.27870535850524902 1.00636541843414307
0.329220205545425415 2.46260929107666016 -0.5373382568359375
2.25763869285583496 1.82125210762023926 -0.867094755172729492
0.327766865491867065 2.48885345458984375 -0.589505255222320557
-1.43430256843566895 3.11768054962158203 -0.403760641813278198
0.0347109474241733551 2.02104735374450684 -0.600587129592895508
-1.76195240020751953 2.99698066711425781 0.450866132974624634
-1.379050612449646 3.13620519638061523 -0.369210124015808105
0.330984950065612793 2.47936511039733887 -0.582378983497619629
0.327765613794326782 2.47107076644897461 -0.49041217565536499
0.318138360977172852 2.48413634300231934 -0.515992105007171631
0.328338980674743652 2.4710545539855957 -0.492061614990234375
3.36315298080444336 2.53264212608337402 -0.896140813827514648
0.310076445341110229 2.46846389770507812 -0.477606087923049927
0.313954770565032959 2.46118474006652832 -0.508296072483062744
-0.550503909587860107 3.11571455001831055 0.835744082927703857
0.318020403385162354 2.47574639320373535 -0.487729072570800781
0.314105480909347534 2.48719954490661621 -0.502204358577728271
0.29642912745475769 2.49066305160522461 -0.480254471302032471
0.322194397449493408 2.48297691345214844 -0.539492547512054443
1.47739863395690918 3.23470020294189453 -0.107390731573104858
-1.33446133136749268 3.15687918663024902 -0.43608856201171875
0.321560591459274292 2.46436929702758789 -0.533917725086212158
1.09783041477203369 0.589397192001342773 -0.763094604015350342
1.1012498140335083 2.54211831092834473 0.722936511039733887
1.37354099750518799 2.88901686668395996 0.412199139595031738
-0.0443457178771495819 1.06187629699707031 -0.697277545928955078
0.265600025653839111 2.47213912010192871 -0.468480706214904785
0.305809378623962402 2.46180987358093262 -0.424451649188995361
1.34629917144775391 3.36162281036376953 -0.783176839351654053
0.327946215867996216 2.47230315208435059 -0.501572966575622559
1.47084355354309082 3.44309449195861816 -0.208457469940185547
-1.16032719612121582 2.14003992080688477 0.623985469341278076
0.318382978439331055 2.46512246131896973 -0.458156228065490723
0.300974130630493164 2.46530914306640625 -0.467832982540130615
0.546782910823822021 1.2287445068359375 -0.669090032577514648
-0.816344618797302246 2.36672353744506836 -0.438318878412246704
-2.28110551834106445 1.40512824058532715 0.258456200361251831
-0.188024759292602539 -0.0542171001434326172 -0.563460588455200195
0.3290671706199646 2.4699699878692627 -0.54603278636932373
-1.95373523235321045 2.40289902687072754 -0.563411474227905273
-1.8900301456451416 2.31957817077636719 -0.569046974182128906
-1.60426867008209229 2.61650276184082031 -0.573205411434173584
0.483361870050430298 3.3203432559967041 0.811167597770690918
-2.1752922534942627 -0.649750471115112305 -1.05544364452362061
0.318367451429367065 2.47066140174865723 -0.499850720167160034
0.310014039278030396 2.48186111450195312 -0.502365231513977051
0.249392211437225342 2.4881281852722168 -0.467466622591018677
1.93963563442230225 2.2582552433013916 -0.538001418113708496
1.62435519695281982 3.32030010223388672 -0.348418384790420532
2.22999691963195801 2.71527385711669922 0.500367283821105957
0.275287151336669922 2.46626973152160645 -0.482302546501159668
0.306561708450317383 2.46188688278198242 -0.415950536727905273
0.21050792932510376 2.43197131156921387 -0.426092803478240967
0.316617608070373535 2.47282218933105469 -0.484818458557128906
-0.367073893547058105 2.9887082576751709 0.212614655494689941
-0.330045610666275024 2.19219398498535156 -0.485225468873977661
0.0584317296743392944 3.02590250968933105 0.953184783458709717
0.303528577089309692 2.47505092620849609 -0.477538824081420898
0.322629302740097046 2.45340752601623535 -0.485783755779266357
0.331523746252059937 2.47480154037475586 -0.519121050834655762
0.31413114070892334 2.46961641311645508 -0.488568544387817383
0.325780510902404785 2.45332241058349609 -0.470144599676132202
-0.630055606365203857 2.84802794456481934 -0.576030075550079346
1.50494945049285889 3.42722988128662109 0.0275307595729827881
-0.140955626964569092 -1.16671156883239746 -1.03140497207641602
-1.34802711009979248 3.21136641502380371 -0.357278734445571899
1.31892526149749756 2.83680152893066406 -0.582987189292907715
0.324609309434890747 2.48037314414978027 -0.524247705936431885
0.30542457103729248 2.46550393104553223 -0.468325823545455933
0.221674874424934387 2.45948123931884766 -0.381995797157287598
0.42047157883644104 3.22335433959960938 1.12885189056396484
2.85436201095581055 3.03032660484313965 -0.850015878677368164
3.43586516380310059 1.63935494422912598 -0.312850624322891235
3.24442958831787109 2.79234552383422852 -0.648567914962768555
2.54715609550476074 2.66049718856811523 -0.610574543476104736
0.26367563009262085 2.46305584907531738 -0.441075623035430908
0.26490706205368042 2.52095913887023926 -0.241296693682670593
0.304377883672714233 2.46384382247924805 -0.463647633790969849
-2.95418477058410645 2.11153173446655273 0.0860351920127868652
0.331267803907394409 2.46923375129699707 -0.496386855840682983
-0.841351687908172607 3.31193852424621582 0.933966517448425293
0.32556489109992981 2.47719645500183105 -0.525471270084381104
0.33014369010925293 2.47771310806274414 -0.541642546653747559
-1.31012296676635742 2.56837320327758789 -0.550136685371398926
-1.28793990612030029 3.15919375419616699 0.562328755855560303
0.316870927810668945 2.4663083553314209 -0.471023470163345337
0.328023254871368408 2.47376704216003418 -0.504741072654724121
0.0611772090196609497 1.05473887920379639 -0.689936578273773193
-1.36775350570678711 3.08167243003845215 0.00435686111450195312
-1.42865955829620361 1.32158851623535156 -0.336292386054992676
0.19260038435459137 2.45570540428161621 -0.407494962215423584
0.309775471687316895 2.47068285942077637 -0.500924885272979736
0.268368184566497803 2.47031545639038086 -0.462015777826309204
0.32288011908531189 2.47380328178405762 -0.483936220407485962
-0.435954540967941284 2.87078213691711426 -0.548082053661346436
-3.36361932754516602 0.285669565200805664 -1.24538373947143555
1.75824058055877686 2.98557472229003906 1.04504644870758057
1.18579161167144775 3.26051974296569824 1.02492380142211914
0.889194190502166748 5.96764183044433594 3.82723808288574219
2.00357174873352051 3.20253205299377441 1.20445525646209717
0.30069771409034729 2.4669036865234375 -0.501385033130645752
0.343328982591629028 2.45630002021789551 -0.373158037662506104
-0.575577080249786377 3.27839064598083496 1.18217325210571289
-0.0833398401737213135 1.08150207996368408 -0.690233051776885986
-1.63156223297119141 2.15831708908081055 -0.576930820941925049
0.0775513947010040283 3.217620849609375 0.954729199409484863
-2.1236872673034668 3.33061718940734863 0.813083469867706299
-0.335703462362289429 2.58406710624694824 -0.568446934223175049
3.15279722213745117 2.68112564086914062 -0.979729115962982178
-2.10538578033447266 1.84161031246185303 -0.619298219680786133
-0.225466161966323853 1.05661392211914062 -0.694029867649078369
0.330713063478469849 2.47210884094238281 -0.495903879404067993
1.42852067947387695 3.20330572128295898 0.287682235240936279
0.314724564552307129 2.46575689315795898 -0.466745078563690186
0.325932443141937256 2.46556210517883301 -0.545378744602203369
-0.294380247592926025 3.29521894454956055 1.07270407676696777
2.15679693222045898 2.94418764114379883 -0.753862500190734863
0.316554754972457886 2.47760176658630371 -0.556342959403991699
0.318061262369155884 2.46526026725769043 -0.53536909818649292
0.100557833909988403 3.09537792205810547 -0.225209295749664307
0.310636520385742188 2.45484519004821777 -0.418215751647949219
0.308279991149902344 2.46869468688964844 -0.496888458728790283
0.319971472024917603 2.45675754547119141 -0.496949315071105957
-1.52537786960601807 3.2191164493560791 -0.389557093381881714
0.316478848457336426 2.47412443161010742 -0.501853108406066895
0.332816749811172485 2.47827553749084473 -0.524022042751312256
2.49581146240234375 2.85396838188171387 0.951187312602996826
0.335196524858474731 2.47264647483825684 -0.519273102283477783
0.196812048554420471 2.44422459602355957 -0.446370422840118408
0.313974738121032715 2.45464539527893066 -0.446960210800170898
0.715844273567199707 3.34419989585876465 1.04128682613372803
-0.0629520192742347717 1.0781475305557251 -0.730047643184661865
-1.4419252872467041 3.25588202476501465 -0.407058656215667725
2.27312350273132324 3.17655277252197266 -0.533125996589660645
0.329550862312316895 2.47072696685791016 -0.496856331825256348
0.310793936252593994 2.46874737739562988 -0.491890609264373779
1.55218994617462158 3.32194375991821289 -0.30228850245475769
0.345943033695220947 2.47222232818603516 -0.499388575553894043
0.303331315517425537 2.47168874740600586 -0.532698154449462891
-0.546324372291564941 2.87889242172241211 -0.555466175079345703
1.11145377159118652 2.88812589645385742 0.0395508110523223877
0.321664214134216309 2.46369171142578125 -0.529307246208190918
0.312824666500091553 2.45913434028625488 -0.508014082908630371
-1.70985639095306396 2.4802861213684082 -0.561123788356781006
1.52380788326263428 3.24390816688537598 1.06391000747680664
-1.53358662128448486 3.12575745582580566 0.968167543411254883
-1.46697723865509033 3.18953037261962891 -0.353888243436813354
0.29786345362663269 2.46035909652709961 -0.41133415699005127
-1.43779265880584717 3.25748896598815918 -0.257132291793823242
-1.38814902305603027 3.1567986011505127 -0.46205437183380127
-1.40897488594055176 1.47904324531555176 -0.713645577430725098
0.306619942188262939 2.46279501914978027 -0.412710130214691162
0.331561774015426636 2.4749608039855957 -0.507648944854736328
