ply
format ascii 1.0
element vertex 80
comment vertices
property float x
property float y
property float z
end_header
1.56650519371032715 2.24982690811157227 -0.668734908103942871
0.0898235514760017395 2.53395199775695801 -0.53480994701385498
0.103528141975402832 2.55468368530273438 -0.484241217374801636
0.0936178863048553467 2.5382387638092041 -0.504841804504394531
0.103282272815704346 2.54071903228759766 -0.495171546936035156
0.0984333083033561707 2.54459166526794434 -0.499075502157211304
0.0999109596014022827 2.54970836639404297 -0.557784736156463623
0.0975356549024581909 2.54816007614135742 -0.566410958766937256
0.0965600013732910156 2.55002880096435547 -0.573094427585601807
0.101706027984619141 2.55290746688842773 -0.514271795749664307
0.100488439202308655 2.54491233825683594 -0.460223495960235596
1.50916671752929688 2.227142333984375 -0.684756100177764893
0.0918672904372215271 2.53748989105224609 -0.539082050323486328
0.0942996591329574585 2.53899359703063965 -0.498905032873153687
0.0947284474968910217 2.54265117645263672 -0.538723647594451904
0.102340206503868103 2.54441404342651367 -0.467215955257415771
0.0957016721367835999 2.54218578338623047 -0.513593196868896484
0.096461758017539978 2.53601622581481934 -0.523600637912750244
-0.0385098755359649658 2.62140417098999023 -0.486747056245803833
0.0986070632934570312 2.54602479934692383 -0.54822540283203125
-0.0955234915018081665 2.61378049850463867 -0.363329172134399414
0.102848291397094727 2.55306529998779297 -0.505494773387908936
0.0933542698621749878 2.53165793418884277 -0.509941220283508301
0.102140933275222778 2.55641841888427734 -0.508050084114074707
0.0990106910467147827 2.5455927848815918 -0.543771445751190186
1.53081381320953369 2.24820089340209961 -0.622832775115966797
0.0896487608551979065 2.53352141380310059 -0.523921489715576172
0.10798916220664978 2.5460970401763916 -0.543552041053771973
0.0925204157829284668 2.53827977180480957 -0.530814468860626221
0.10013185441493988 2.55125808715820312 -0.484768867492675781
0.0272785574197769165 2.54772067070007324 -0.360817134380340576
0.100222930312156677 2.54717206954956055 -0.544815003871917725
0.0944383591413497925 2.53627848625183105 -0.495260566473007202
0.105177327990531921 2.54726624488830566 -0.469173669815063477
0.0994781553745269775 2.54274106025695801 -0.471383571624755859
1.53387200832366943 2.24334549903869629 -0.697942674160003662
0.096719495952129364 2.54489564895629883 -0.526849865913391113
0.099043235182762146 2.54289007186889648 -0.424038738012313843
0.07057170569896698 2.54089736938476562 -0.450467288494110107
0.0957052931189537048 2.54334068298339844 -0.541116595268249512
0.102951183915138245 2.54440045356750488 -0.493651896715164185
0.111308649182319641 2.54532623291015625 -0.556231200695037842
0.0904623270034790039 2.52601432800292969 -0.490504205226898193
0.0438133031129837036 2.55428385734558105 -0.354931056499481201
1.65681362152099609 2.28203153610229492 -0.57693171501159668
0.0958946496248245239 2.54348206520080566 -0.526642739772796631
0.105044692754745483 2.55424690246582031 -0.477631241083145142
0.0988635420799255371 2.54895305633544922 -0.552689671516418457
0.10128176212310791 2.54708647727966309 -0.518043756484985352
0.0979199260473251343 2.5464479923248291 -0.519537687301635742
0.0942598730325698853 2.54144454002380371 -0.545366525650024414
1.51569795608520508 2.24952268600463867 -0.699175536632537842
0.0880678147077560425 2.52708578109741211 -0.492580443620681763
0.10571705549955368 2.54907798767089844 -0.524775445461273193
0.111737146973609924 2.52945280075073242 -0.558023989200592041
1.58428061008453369 2.21285438537597656 -0.576989412307739258
0.0702317804098129272 2.54018092155456543 -0.554383635520935059
-0.125658318400382996 4.0094451904296875 -0.586695194244384766
0.105187691748142242 2.55284237861633301 -0.506910264492034912
-0.143473535776138306 3.98102092742919922 -0.576945602893829346
0.100554369390010834 2.54456377029418945 -0.509899735450744629
0.0962049663066864014 2.54386234283447266 -0.520596444606781006
0.0928755328059196472 2.53886914253234863 -0.539711892604827881
0.0941924899816513062 2.5381464958190918 -0.51964724063873291
0.0868594348430633545 2.53638982772827148 -0.57676166296005249
0.0980798676609992981 2.5366673469543457 -0.487774372100830078
0.106610104441642761 2.54920196533203125 -0.49817165732383728
0.0980644524097442627 2.5486900806427002 -0.553348422050476074
0.0910733044147491455 2.53471708297729492 -0.538065552711486816
0.0913812220096588135 2.5330510139465332 -0.492519885301589966
0.0890630334615707397 2.53112363815307617 -0.514749467372894287
0.105543658137321472 2.55647802352905273 -0.445423603057861328
1.46115779876708984 2.25363564491271973 -0.508512735366821289
0.0955325588583946228 2.54426097869873047 -0.542857825756072998
0.104348957538604736 2.54964041709899902 -0.492186427116394043
0.0929204374551773071 2.54099678993225098 -0.563520908355712891
1.56265044212341309 2.23577737808227539 -0.620954811573028564
1.5675661563873291 2.25112295150756836 -0.65882408618927002
0.0984564721584320068 2.54970622062683105 -0.557839930057525635
0.100084006786346436 2.5438532829284668 -0.526867330074310303
