ply
format ascii 1.0
element vertex 256
comment vertices
property float x
property float y
property float z
end_header
-0.0637919306755065918 2.99217319488525391 -0.86486506462097168
2.99665570259094238 7.87733554840087891 2.22299551963806152
-4.18601417541503906 6.93859767913818359 5.81021308898925781
2.37468886375427246 3.74465441703796387 -0.123354852199554443
-4.02279233932495117 3.66391921043395996 2.67248725891113281
0.266609430313110352 6.27652215957641602 2.22289466857910156
-0.21350550651550293 3.18621540069580078 -0.522428631782531738
2.03081202507019043 3.24953055381774902 -0.903526782989501953
3.22731471061706543 5.70265340805053711 -0.58202826976776123
-2.42501020431518555 4.15175104141235352 -0.509878039360046387
2.17542409896850586 5.42605924606323242 2.24311208724975586
-0.558707535266876221 7.5144805908203125 1.81092500686645508
1.01689231395721436 7.45746374130249023 2.21374917030334473
2.25869059562683105 3.89142227172851562 -0.826545834541320801
-1.56519687175750732 7.01168155670166016 2.12680745124816895
0.402556777000427246 3.69138216972351074 0.384504318237304688
-1.40421521663665771 4.41228675842285156 0.523611605167388916
-0.223991408944129944 3.19637274742126465 -0.636244058609008789
-1.50671768188476562 3.29820084571838379 -0.727539420127868652
0.914971351623535156 3.94783759117126465 -0.715192675590515137
3.10992288589477539 6.49378204345703125 2.05769729614257812
-1.72825062274932861 4.03819656372070312 -0.602546393871307373
1.74672782421112061 6.63645219802856445 2.24733328819274902
-2.6846320629119873 6.8790130615234375 4.25439071655273438
-0.303019344806671143 3.18974733352661133 -0.557944774627685547
2.29115200042724609 3.87801361083984375 -0.635548293590545654
0.0287303254008293152 7.34096622467041016 2.37690281867980957
0.97799217700958252 5.78214597702026367 2.0626068115234375
-0.524369895458221436 2.91007685661315918 -0.878720402717590332
1.12084054946899414 3.96038389205932617 -0.184704095125198364
0.137514472007751465 4.7067418098449707 -0.163634598255157471
1.53417277336120605 3.99443507194519043 -0.870870828628540039
2.35503578186035156 6.98483610153198242 2.06275701522827148
-0.350829452276229858 4.15625858306884766 0.491185903549194336
0.195861399173736572 3.65474796295166016 -0.703845858573913574
-0.215973645448684692 3.12928581237792969 -0.639640390872955322
-2.68610572814941406 3.81651544570922852 -0.38280951976776123
-2.18825531005859375 6.89372920989990234 1.72038054466247559
-0.679975569248199463 7.2294459342956543 2.1674957275390625
-1.84568953514099121 4.14081287384033203 0.272675305604934692
0.829602539539337158 6.61165475845336914 2.39573383331298828
-0.191228091716766357 3.22856450080871582 -0.757603764533996582
1.61089706420898438 4.23527431488037109 0.307689428329467773
-0.167724877595901489 3.1844029426574707 -0.534664392471313477
-0.221259355545043945 3.3426814079284668 -0.220855236053466797
-0.196824550628662109 3.12553119659423828 -0.763891458511352539
-1.75977587699890137 4.05404090881347656 -0.736793994903564453
-0.178825259208679199 3.26565766334533691 -0.662016153335571289
-1.33689939975738525 3.00907325744628906 -0.80972599983215332
2.18532085418701172 4.04665851593017578 -0.412522494792938232
2.15800213813781738 7.43277168273925781 2.20789933204650879
-1.28364777565002441 3.96506142616271973 -0.781132400035858154
-0.957419514656066895 7.460845947265625 2.35964608192443848
3.37284564971923828 5.87889671325683594 0.050873875617980957
2.62503623962402344 4.0009312629699707 0.889004647731781006
1.98623514175415039 3.90997838973999023 -0.835751891136169434
-0.198197990655899048 3.15192937850952148 -0.675357460975646973
-0.203073084354400635 3.27641940116882324 -0.630049288272857666
2.75189781188964844 2.95047736167907715 -0.777649044990539551
1.86216104030609131 7.03491401672363281 2.0941464900970459
-2.73529553413391113 4.3728184700012207 0.713113486766815186
0.358129650354385376 7.52616691589355469 2.01800537109375
2.45094561576843262 6.59430122375488281 2.15363669395446777
0.0318346619606018066 3.77523899078369141 -0.0252699851989746094
1.68703198432922363 4.07540178298950195 -0.742214083671569824
-0.279118001461029053 3.31900644302368164 -0.575684726238250732
3.01503229141235352 7.3112187385559082 2.1337127685546875
2.31720161437988281 3.82002544403076172 -0.764985740184783936
-0.611337482929229736 7.48103952407836914 2.22419524192810059
1.06575691699981689 4.00424480438232422 -0.79696202278137207
-0.174328029155731201 3.03925299644470215 -0.695491790771484375
-0.219361782073974609 3.17635774612426758 -0.639096200466156006
-2.16843748092651367 4.05396080017089844 -0.704763412475585938
0.0217879042029380798 6.85176181793212891 2.35201501846313477
0.0621757283806800842 7.48654985427856445 2.16918325424194336
-0.245936959981918335 3.22928977012634277 -0.552686810493469238
-2.20609807968139648 3.86983251571655273 -0.604912519454956055
1.19131481647491455 3.972259521484375 -0.495969295501708984
0.816700518131256104 6.18175172805786133 2.19938015937805176
-2.66027235984802246 4.31424474716186523 0.248187899589538574
2.05693817138671875 3.98723506927490234 -0.26943594217300415
-0.026172444224357605 3.21372509002685547 -0.357640892267227173
-0.283189892768859863 3.37401747703552246 -0.80870211124420166
0.582498550415039062 7.32134342193603516 2.33098983764648438
-0.0713531523942947388 3.68187761306762695 0.479880750179290771
1.90570664405822754 7.62368392944335938 1.9085381031036377
2.01995658874511719 4.19412803649902344 0.94978785514831543
0.836385130882263184 4.22102499008178711 0.738067328929901123
2.30433416366577148 3.82310390472412109 -0.763817489147186279
0.407537281513214111 6.02210617065429688 2.06365847587585449
-1.00855076313018799 4.33957338333129883 0.720083892345428467
-1.76472878456115723 6.93994140625 2.05458879470825195
-1.8418886661529541 4.29144144058227539 1.01750373840332031
-0.0848307013511657715 3.3313908576965332 -0.593189120292663574
-1.98072195053100586 3.93995356559753418 -0.369593203067779541
1.45468533039093018 7.03893089294433594 2.2465817928314209
-0.326021552085876465 3.14500808715820312 -0.664279520511627197
-0.427847027778625488 3.14422130584716797 -0.684206366539001465
-0.249069973826408386 3.21010279655456543 -0.638945341110229492
1.62676417827606201 3.95892977714538574 -0.648808956146240234
1.57230401039123535 3.73057293891906738 -0.883314907550811768
-0.188414543867111206 3.11400103569030762 -0.791491091251373291
-0.303363561630249023 3.24310207366943359 -0.675591588020324707
-1.72888445854187012 4.0249171257019043 -0.737158119678497314
2.13435769081115723 4.2223668098449707 0.377441823482513428
-0.665771305561065674 4.33807134628295898 0.41039121150970459
2.71542811393737793 6.93748998641967773 1.96775436401367188
1.28996527194976807 6.09355974197387695 2.12246155738830566
2.01852655410766602 6.75053262710571289 2.0672757625579834
-1.77460217475891113 4.05073308944702148 -0.738698899745941162
2.03796195983886719 5.87587642669677734 2.0970771312713623
-1.07123184204101562 7.32557344436645508 2.14757442474365234
2.80817174911499023 6.10511159896850586 2.0432746410369873
-1.64388632774353027 4.07489728927612305 -0.800614535808563232
-0.191414862871170044 3.24146747589111328 -0.422906279563903809
-0.226260796189308167 3.1160895824432373 -0.735832691192626953
2.6629643440246582 3.88600015640258789 -0.0788713693618774414
2.23004245758056641 4.05431079864501953 -0.523031830787658691
1.09056031703948975 4.04883766174316406 -0.607053518295288086
0.448961704969406128 6.62453079223632812 2.31237220764160156
-2.07392549514770508 3.97436070442199707 -0.696729421615600586
1.14454281330108643 6.46175384521484375 2.28870844841003418
1.11449766159057617 3.77940821647644043 -0.787826418876647949
-0.0468438267707824707 3.47067141532897949 -0.313262283802032471
-0.134914085268974304 3.16213440895080566 -0.496395468711853027
-1.76690101623535156 4.17557954788208008 -0.232442855834960938
-0.275570124387741089 3.23937606811523438 -0.763292431831359863
1.76008772850036621 4.05234050750732422 -0.807858169078826904
1.07496964931488037 4.01340770721435547 -0.877084791660308838
-0.187241420149803162 3.18844151496887207 -0.620317578315734863
-1.36159896850585938 7.30113601684570312 1.69429564476013184
-0.410544753074645996 2.74721550941467285 -0.824002742767333984
-3.12388372421264648 3.84181046485900879 0.140960186719894409
-1.292336106300354 3.53129386901855469 -0.663389861583709717
3.27173161506652832 7.70624494552612305 2.29245400428771973
-0.0983310937881469727 3.23017072677612305 -0.447604358196258545
-0.166318625211715698 3.23473739624023438 -0.569408655166625977
1.96516358852386475 4.015411376953125 -0.781685352325439453
1.88931107521057129 3.9639277458190918 -0.340410798788070679
-0.228086709976196289 3.15393972396850586 -0.693055152893066406
-0.225538760423660278 3.18122529983520508 -0.65220034122467041
-0.253804445266723633 3.18196249008178711 -0.615017592906951904
1.02877306938171387 3.7823793888092041 -0.889080047607421875
1.21639657020568848 3.96236658096313477 -0.824410915374755859
2.2260439395904541 3.93634867668151855 -0.694901227951049805
-0.287728607654571533 3.04495692253112793 -0.818495273590087891
0.331967771053314209 6.97168827056884766 2.38839221000671387
-2.35451149940490723 2.93644094467163086 -0.783964991569519043
-1.63037872314453125 7.20055627822875977 2.32723355293273926
-1.58494925498962402 4.03753662109375 -0.459519118070602417
2.06330323219299316 3.82142019271850586 -0.849845647811889648
2.4499516487121582 4.44935417175292969 0.62873542308807373
-1.54241526126861572 4.40511322021484375 0.382799386978149414
-2.04518818855285645 4.01756763458251953 -0.587145388126373291
-1.52067995071411133 4.10973072052001953 -0.69749748706817627
-0.0815873146057128906 3.59827780723571777 -0.476205587387084961
-2.54291749000549316 4.19966983795166016 0.235157251358032227
-0.197608828544616699 3.22671294212341309 -0.65565037727355957
0.421090453863143921 4.29453611373901367 0.475613623857498169
2.30662369728088379 7.25245094299316406 2.16064214706420898
2.1840510368347168 3.86178064346313477 -0.413321256637573242
-2.05550789833068848 6.92643594741821289 1.97815799713134766
-0.150006920099258423 4.14052057266235352 0.461273998022079468
-0.296078503131866455 3.12054538726806641 -0.723905682563781738
-0.892141401767730713 7.37573528289794922 1.58342981338500977
-0.243222594261169434 3.15588760375976562 -0.667987942695617676
-0.152454391121864319 3.14674592018127441 -0.706913352012634277
2.57787632942199707 7.77520751953125 2.27859807014465332
0.193712472915649414 3.24556231498718262 -0.791644811630249023
-0.25586467981338501 3.22372674942016602 -0.679918289184570312
-0.330866247415542603 7.20390415191650391 2.30288267135620117
1.01273024082183838 7.00357580184936523 2.20460939407348633
1.9037398099899292 3.87295675277709961 -0.699451565742492676
2.28347945213317871 3.42340254783630371 -0.878985345363616943
2.01776504516601562 7.14255857467651367 2.18721437454223633
-0.145019590854644775 3.0948033332824707 -0.642191231250762939
-0.128605425357818604 3.27084922790527344 -0.152865469455718994
0.235304355621337891 7.52202272415161133 2.32162857055664062
-0.0420413762331008911 3.13153266906738281 -0.460180968046188354
-0.123032659292221069 3.17774271965026855 -0.624400973320007324
1.5589834451675415 7.33981227874755859 2.08188819885253906
1.28081941604614258 4.25758218765258789 0.7088623046875
2.5429534912109375 6.85621976852416992 2.03717279434204102
-0.285576999187469482 3.52603006362915039 -0.682640910148620605
-2.08162164688110352 4.19597387313842773 0.711626172065734863
1.87770223617553711 3.99845027923583984 -0.849933981895446777
2.09366178512573242 7.00637674331665039 2.20221185684204102
-1.78702211380004883 6.97002315521240234 2.24907755851745605
1.76544857025146484 6.92295408248901367 2.30389070510864258
-1.65447211265563965 4.33001852035522461 0.0509118437767028809
0.657768905162811279 6.03550481796264648 2.11241269111633301
1.03013360500335693 3.97482061386108398 -0.522827088832855225
0.81808847188949585 3.78046178817749023 -0.346387386322021484
-0.175279736518859863 3.15268039703369141 -0.527882874011993408
-1.76611757278442383 3.85653972625732422 -0.103702068328857422
-2.0847618579864502 7.41655778884887695 2.02965474128723145
-0.53279489278793335 7.50899171829223633 2.34085583686828613
1.32848262786865234 4.02533292770385742 -0.830893397331237793
-1.56023669242858887 4.03666257858276367 -0.853653013706207275
0.328057587146759033 4.29210138320922852 0.72307819128036499
-0.448636293411254883 3.08854579925537109 -0.80671536922454834
2.21958661079406738 6.49675750732421875 2.19466876983642578
-1.25810432434082031 7.30901432037353516 2.10412740707397461
0.593257308006286621 4.2425389289855957 0.141512364149093628
1.27725303173065186 2.80040764808654785 -0.826541423797607422
-0.203222781419754028 3.14983201026916504 -0.641817688941955566
1.08054375648498535 4.05030679702758789 -0.643713295459747314
-0.822307705879211426 3.97098922729492188 0.742645323276519775
2.64663600921630859 6.55911874771118164 1.95878326892852783
-0.28605353832244873 3.13839602470397949 -0.570646047592163086
-0.650890111923217773 6.90032482147216797 2.15755295753479004
1.29628348350524902 3.79079246520996094 0.736134767532348633
-0.433022677898406982 3.13544321060180664 -0.759102821350097656
2.29393243789672852 3.95874404907226562 -0.520604074001312256
-2.67967009544372559 3.92274570465087891 -0.186861395835876465
-0.197810351848602295 3.01020097732543945 -0.707601249217987061
-0.199342966079711914 3.26314783096313477 -0.571633636951446533
0.0789236128330230713 3.2263035774230957 -0.33599323034286499
1.9553062915802002 3.95066285133361816 -0.778361380100250244
-0.124979913234710693 3.14496421813964844 -0.570735454559326172
-0.120995819568634033 3.25080966949462891 -0.537839651107788086
-0.275373101234436035 3.27081942558288574 -0.486863017082214355
-0.294597029685974121 3.1682281494140625 -0.851927876472473145
0.971443772315979004 7.62303256988525391 2.13120937347412109
1.84927928447723389 3.96289730072021484 -0.781429290771484375
-2.53219270706176758 3.96975040435791016 -0.241429686546325684
0.459657073020935059 6.39497566223144531 2.28752255439758301
0.505248606204986572 7.64443778991699219 2.31802487373352051
-0.236281007528305054 3.13718652725219727 -0.710258007049560547
1.43760740756988525 4.00390195846557617 -0.771377861499786377
2.55994868278503418 7.46741390228271484 2.09746813774108887
2.55477070808410645 7.12433815002441406 2.0291140079498291
1.52557694911956787 6.8147435188293457 2.30983304977416992
-1.93366861343383789 4.00433921813964844 -0.558156967163085938
-0.196889638900756836 3.17073440551757812 -0.672995805740356445
1.92599058151245117 4.26991796493530273 1.00304651260375977
-1.01457774639129639 7.36536073684692383 2.17234277725219727
-0.695717573165893555 3.15152645111083984 -0.72152411937713623
-0.237933218479156494 3.04717731475830078 -0.766595304012298584
0.0504373200237751007 3.68019819259643555 -0.0599198341369628906
-1.66545248031616211 4.00030994415283203 -0.680344343185424805
1.47466409206390381 4.21615314483642578 0.0883711278438568115
1.89147603511810303 4.04774332046508789 -0.54729616641998291
-0.266901344060897827 3.19028902053833008 -0.678114056587219238
-0.251386135816574097 3.92254781723022461 0.744913458824157715
2.10144138336181641 3.93406224250793457 -0.717915177345275879
-0.235400035977363586 3.19618868827819824 -0.637449562549591064
-0.164577975869178772 3.23605918884277344 -0.611482501029968262
1.11246681213378906 4.02111482620239258 -0.889590978622436523
1.09724926948547363 3.99969887733459473 -0.535824179649353027
1.75441908836364746 7.30327844619750977 2.24831724166870117
0.226882517337799072 3.27147722244262695 -0.804237842559814453
0.516051292419433594 7.01704597473144531 2.38095831871032715
-0.745877265930175781 4.32931280136108398 0.863982200622558594
-0.0744738578796386719 3.26904821395874023 -0.216241538524627686
-0.23822319507598877 3.22349262237548828 -0.600419521331787109
