ply
format ascii 1.0
element vertex 85
comment vertices
property float x
property float y
property float z
end_header
-1.80242717266082764 3.57860255241394043 -0.718103587627410889
-0.234587088227272034 2.94837379455566406 -0.515940427780151367
-0.25830376148223877 2.89029240608215332 -0.478248834609985352
-1.91115832328796387 3.52608370780944824 -0.645040392875671387
-0.237954646348953247 2.93880605697631836 -0.496473848819732666
-0.236810386180877686 2.94236922264099121 -0.495069533586502075
-0.2388811856508255 2.93698954582214355 -0.507234036922454834
-0.232385396957397461 2.9425208568572998 -0.540775179862976074
-0.199714213609695435 2.93190097808837891 -0.461827069520950317
-0.174989044666290283 2.92326021194458008 -0.559410035610198975
-0.235205858945846558 2.94144296646118164 -0.53791964054107666
-1.76910865306854248 3.59803414344787598 -0.741361737251281738
-0.250053584575653076 2.9358980655670166 -0.385960698127746582
-0.273529171943664551 2.94228243827819824 -0.42125663161277771
-0.25226205587387085 2.91531491279602051 -0.565576553344726562
-0.238823607563972473 2.93544626235961914 -0.510543346405029297
-0.199813008308410645 2.93592143058776855 -0.531221628189086914
-0.248312577605247498 2.93826127052307129 -0.527550876140594482
-0.243003934621810913 2.94967246055603027 -0.511617183685302734
-1.82806932926177979 3.57213735580444336 -0.670350313186645508
-0.20304696261882782 2.9282219409942627 -0.515471100807189941
-0.263164341449737549 2.93395042419433594 -0.531787991523742676
-2.12262248992919922 3.48073506355285645 -0.642704963684082031
-0.228979617357254028 2.93563532829284668 -0.525422632694244385
-0.228657126426696777 2.93727588653564453 -0.530901193618774414
-0.234816044569015503 2.93822073936462402 -0.513325214385986328
-0.231491342186927795 3.05871367454528809 -0.376891046762466431
-1.71082711219787598 3.6205742359161377 -0.743356585502624512
-0.243787020444869995 2.94946813583374023 -0.482865244150161743
-0.215308099985122681 2.9381110668182373 -0.470916479825973511
-0.27272486686706543 2.92432641983032227 -0.533171355724334717
-0.238482266664505005 2.93768525123596191 -0.49959254264831543
-1.75857448577880859 3.5776679515838623 -0.75583726167678833
-0.210415095090866089 2.94194960594177246 -0.521958351135253906
-1.91639471054077148 3.44422125816345215 -0.695895373821258545
-0.253957748413085938 2.93824243545532227 -0.411862432956695557
-0.211753278970718384 2.93814826011657715 -0.520912408828735352
-0.244481518864631653 2.93671703338623047 -0.512196123600006104
-0.251264721155166626 2.94762110710144043 -0.50274193286895752
-0.285978227853775024 2.92809891700744629 -0.562415421009063721
-0.231412142515182495 2.93450284004211426 -0.534119188785552979
-0.232068821787834167 2.94109058380126953 -0.540492653846740723
-0.232656866312026978 2.92858290672302246 -0.456603705883026123
-1.76162421703338623 3.60980772972106934 -0.738615632057189941
-0.303603380918502808 2.93068313598632812 -0.557330489158630371
-1.75618314743041992 3.60209560394287109 -0.743149459362030029
-0.246632933616638184 2.93890261650085449 -0.545629143714904785
-0.228480756282806396 2.9391627311706543 -0.554556608200073242
-0.254471659660339355 2.93873429298400879 -0.485926419496536255
-1.75729024410247803 3.60207486152648926 -0.749712169170379639
-2.02590131759643555 3.50878620147705078 -0.634017765522003174
-0.295583426952362061 2.83870768547058105 -0.582018196582794189
-0.236886978149414062 2.94119381904602051 -0.510149180889129639
-1.72980737686157227 3.62466526031494141 -0.731072664260864258
-0.232274651527404785 2.93202877044677734 -0.460196465253829956
-0.204823002219200134 2.92593646049499512 -0.540192902088165283
-0.210880264639854431 2.93507909774780273 -0.544479966163635254
-0.237374886870384216 2.94215106964111328 -0.502480387687683105
-0.166858404874801636 2.93316888809204102 -0.461386054754257202
-1.91290688514709473 3.49632096290588379 -0.579960346221923828
-0.244544327259063721 2.94286251068115234 -0.473002761602401733
-1.75577867031097412 3.60134506225585938 -0.742497444152832031
-0.239470869302749634 2.94372010231018066 -0.537078022956848145
-0.233637586236000061 2.94339370727539062 -0.521783232688903809
-0.249897226691246033 2.94417309761047363 -0.493090957403182983
-0.219115853309631348 2.93599796295166016 -0.505758166313171387
-0.2046232670545578 2.92607593536376953 -0.552286148071289062
-0.205619439482688904 2.93802785873413086 -0.513833165168762207
-1.77314722537994385 3.58832740783691406 -0.750475466251373291
-0.196709319949150085 2.91982364654541016 -0.484357893466949463
-0.218618780374526978 2.93711137771606445 -0.515000462532043457
-1.79091918468475342 3.55363082885742188 -0.601885437965393066
-0.188179925084114075 2.92193937301635742 -0.515773296356201172
-0.256062150001525879 2.94748306274414062 -0.499603360891342163
-1.84805178642272949 3.55032873153686523 -0.609031438827514648
-0.239431887865066528 2.94933962821960449 -0.510154366493225098
-0.221078798174858093 2.94007611274719238 -0.555628120899200439
-1.76054739952087402 3.60093808174133301 -0.671313762664794922
-0.23702239990234375 2.9378211498260498 -0.518548309803009033
-1.86013388633728027 3.54576778411865234 -0.720639824867248535
-0.23277631402015686 2.93963742256164551 -0.515592336654663086
-0.228049486875534058 2.93359851837158203 -0.494105786085128784
-0.0520611181855201721 2.64619159698486328 -0.594343841075897217
-0.236128360033035278 2.93927192687988281 -0.511217474937438965
-0.240633130073547363 2.9473268985748291 -0.501691639423370361
