ply
format ascii 1.0
element vertex 201
comment vertices
property float x
property float y
property float z
end_header
-0.513531029224395752 2.45518779754638672 -0.632694423198699951
-1.3488161563873291 6.47014236450195312 3.50056982040405273
3.45815730094909668 4.84377861022949219 0.15787196159362793
-2.94533991813659668 3.16804337501525879 -0.623642802238464355
3.58887672424316406 -0.560991764068603516 -0.472884178161621094
-0.120459705591201782 3.2702338695526123 0.835010766983032227
3.07792901992797852 4.34935569763183594 -0.505455553531646729
-0.596891641616821289 2.53143095970153809 -0.688418865203857422
2.49787998199462891 5.62245655059814453 1.28798973560333252
2.12646126747131348 2.77312922477722168 -0.770031094551086426
-0.609858036041259766 2.57759594917297363 -0.590804755687713623
0.137124031782150269 0.617113590240478516 -0.57046198844909668
1.40637779235839844 6.52608060836791992 1.59304165840148926
-0.530638515949249268 2.46622395515441895 -0.68405991792678833
1.57086813449859619 5.97075891494750977 0.332013458013534546
-1.89961123466491699 3.73940706253051758 -0.793960690498352051
3.24061226844787598 5.37632083892822266 1.43197381496429443
-0.58442223072052002 2.54719972610473633 -0.664777100086212158
-0.582016289234161377 2.549713134765625 -0.650201499462127686
-2.38708686828613281 3.49426460266113281 -0.0842018947005271912
1.39405333995819092 2.94875931739807129 -0.847962081432342529
1.98778712749481201 2.81128835678100586 -0.600929319858551025
-0.636051476001739502 2.57050371170043945 -0.668382823467254639
1.56138134002685547 2.16750049591064453 0.565035700798034668
1.26047217845916748 1.9644010066986084 -0.912505686283111572
-0.547152400016784668 2.48422122001647949 -0.664835333824157715
-0.985859811305999756 1.44720160961151123 -0.111773550510406494
-0.400946468114852905 3.25940513610839844 1.21276021003723145
-1.57607841491699219 1.57055294513702393 -0.516319930553436279
-2.30751490592956543 3.66042780876159668 -0.74173206090927124
1.5042036771774292 3.03785157203674316 0.110970467329025269
-0.632083296775817871 0.230742454528808594 -0.403220295906066895
-0.588155210018157959 2.56514954566955566 -0.636363089084625244
-2.29685401916503906 2.10090541839599609 -0.585141658782958984
1.20263195037841797 2.95941638946533203 -0.887302756309509277
-0.567751049995422363 2.50412678718566895 -0.603314399719238281
2.26773715019226074 1.88972890377044678 -0.209085702896118164
-0.583110988140106201 2.53396391868591309 -0.654077470302581787
-0.152460694313049316 6.01452541351318359 1.80304181575775146
-0.488129377365112305 2.4723515510559082 -0.597683906555175781
3.06259727478027344 2.98374462127685547 -0.444645285606384277
1.42507565021514893 5.42297077178955078 1.80754268169403076
-0.589593589305877686 2.54565095901489258 -0.706496775150299072
-0.49151378870010376 2.5680694580078125 -0.663480818271636963
-0.498934447765350342 2.47715210914611816 -0.668429970741271973
-0.600868284702301025 2.63512444496154785 -0.391002655029296875
2.31003499031066895 5.26604747772216797 1.46423172950744629
2.10267853736877441 2.9569697380065918 -0.398193597793579102
3.0629119873046875 2.86553502082824707 -0.405030757188796997
-2.29690933227539062 3.76025581359863281 -0.629041671752929688
-1.83274853229522705 3.73160600662231445 -0.872476041316986084
-0.626602768898010254 2.57435870170593262 -0.650953173637390137
-0.566377878189086914 2.52237153053283691 -0.670519113540649414
0.837617337703704834 3.06495499610900879 0.991872847080230713
-0.577141702175140381 3.74738883972167969 0.829958319664001465
0.93985593318939209 2.33565974235534668 -0.807112038135528564
-2.02710056304931641 3.28949308395385742 -0.570474028587341309
-0.571746587753295898 2.51886200904846191 -0.633634448051452637
1.2011183500289917 2.96737241744995117 -0.887832820415496826
-0.621629059314727783 2.55344367027282715 -0.614132285118103027
-0.663646876811981201 2.53746795654296875 -0.510091066360473633
1.27963030338287354 2.96372103691101074 -0.88896256685256958
-0.0187565907835960388 2.61922121047973633 -0.84133458137512207
-0.645306766033172607 2.53564667701721191 -0.650428116321563721
1.94027400016784668 4.14417648315429688 -0.603417515754699707
-0.573955416679382324 2.51530265808105469 -0.68397367000579834
-0.617636382579803467 2.54907059669494629 -0.688916385173797607
-1.36659038066864014 3.72148633003234863 0.891194760799407959
1.53822684288024902 2.97140645980834961 0.988442599773406982
-0.664473474025726318 2.56343340873718262 -0.530910789966583252
-0.404291599988937378 2.17714905738830566 -0.143053174018859863
-2.29977703094482422 3.56450462341308594 0.103954285383224487
-1.25873446464538574 2.65674614906311035 -0.667262434959411621
1.67679429054260254 3.11509203910827637 -0.369547843933105469
-0.477395594120025635 2.41211366653442383 -0.334212034940719604
1.44665873050689697 2.93696212768554688 -0.852227509021759033
0.30746304988861084 2.39414834976196289 0.758929133415222168
-0.57665562629699707 2.54959702491760254 -0.664311528205871582
1.29998397827148438 3.10555124282836914 0.681324660778045654
-2.34927582740783691 3.67328262329101562 -0.164228469133377075
1.19469964504241943 2.96676278114318848 -0.913054108619689941
-0.584853887557983398 2.53613734245300293 -0.61780017614364624
-0.534034788608551025 2.4825599193572998 -0.627909302711486816
-2.32809638977050781 2.75888895988464355 -0.620809972286224365
-0.577693402767181396 2.53748774528503418 -0.702923297882080078
-0.552882671356201172 2.50105905532836914 -0.717155873775482178
-0.577300846576690674 2.53118658065795898 -0.65415036678314209
1.9267582893371582 2.85377240180969238 0.598993182182312012
1.87333965301513672 2.87516093254089355 -0.897132396697998047
1.13482105731964111 2.9802243709564209 -0.856053650379180908
1.57849955558776855 3.17605423927307129 -0.129021883010864258
1.41759908199310303 2.92429757118225098 -0.840828061103820801
2.87269949913024902 4.95204639434814453 0.0859217271208763123
2.30199337005615234 2.94650650024414062 -0.660169720649719238
2.44855666160583496 5.69629287719726562 0.189259052276611328
-0.576844930648803711 2.54982495307922363 -0.685836851596832275
-0.621539115905761719 2.55280852317810059 -0.618639051914215088
-0.651011466979980469 2.60474467277526855 -0.590941369533538818
-0.550478577613830566 2.48268508911132812 -0.693954885005950928
-1.40102291107177734 0.486159801483154297 -0.600801706314086914
-0.520166575908660889 2.49638080596923828 -0.627577841281890869
-0.902366936206817627 1.7536393404006958 0.00547805428504943848
1.24776089191436768 2.6058046817779541 -0.333507806062698364
1.21217608451843262 2.95902633666992188 -0.874659955501556396
-0.570683598518371582 2.52881050109863281 -0.660048186779022217
-0.589738249778747559 2.53956198692321777 -0.681809663772583008
-0.50142514705657959 2.47921276092529297 -0.63415062427520752
0.389942348003387451 3.2337956428527832 1.04141843318939209
-1.24029934406280518 6.2161259651184082 1.89342164993286133
1.85073506832122803 3.23510265350341797 -0.088982507586479187
-0.606876850128173828 2.5304722785949707 -0.687926232814788818
-0.570892333984375 2.5277717113494873 -0.697640657424926758
-0.545605599880218506 2.48254609107971191 -0.659303367137908936
-1.81659817695617676 3.73531532287597656 -0.835288941860198975
-0.6247139573097229 2.55393743515014648 -0.606296896934509277
-1.60065209865570068 2.11987876892089844 -0.609130859375
1.25483059883117676 3.09823346138000488 0.732124388217926025
1.20357644557952881 2.96111941337585449 -0.887253522872924805
-0.498663008213043213 2.47986078262329102 -0.672913432121276855
-0.559279918670654297 2.56831836700439453 -0.682776868343353271
1.07318544387817383 2.76494574546813965 0.0971840769052505493
1.51852846145629883 3.1925053596496582 -0.159441456198692322
-0.930640518665313721 3.62672519683837891 0.88000941276550293
2.21848106384277344 3.19848489761352539 -0.512828290462493896
-0.575304925441741943 2.53513622283935547 -0.702971041202545166
2.79534506797790527 1.25575137138366699 -1.02139520645141602
-0.581239283084869385 2.53306102752685547 -0.669584095478057861
1.99208211898803711 2.93220424652099609 -0.372223973274230957
1.19113850593566895 2.96204972267150879 -0.922678947448730469
-0.913268685340881348 2.09766578674316406 -0.371044635772705078
0.758541882038116455 2.76935505867004395 -0.827991247177124023
1.20148277282714844 2.96955156326293945 -0.875976204872131348
0.437780022621154785 6.1645660400390625 1.60007023811340332
-0.581660211086273193 2.54863166809082031 -0.645063519477844238
-2.14795732498168945 3.49995541572570801 -0.363312989473342896
-0.560465991497039795 2.49825263023376465 -0.675290584564208984
-0.591866135597229004 2.5500636100769043 -0.650701642036437988
-0.54554450511932373 2.4992213249206543 -0.651578724384307861
-0.5710906982421875 2.54884719848632812 -0.665099442005157471
-2.34580135345458984 3.68266463279724121 -0.667186319828033447
-0.451700210571289062 2.05512881278991699 -0.0595965683460235596
-0.537440478801727295 2.47870349884033203 -0.647714018821716309
-0.570567965507507324 2.5071556568145752 -0.648000836372375488
-2.31878542900085449 3.46467137336730957 -0.139218881726264954
-0.583997964859008789 2.54810976982116699 -0.646130144596099854
-0.563946425914764404 2.50450873374938965 -0.617022514343261719
-0.527607142925262451 2.47514867782592773 -0.693785130977630615
-1.0645301342010498 3.33287310600280762 2.08380031585693359
0.966563999652862549 3.06520795822143555 1.00819075107574463
0.023435637354850769 2.13552379608154297 0.137210369110107422
-0.712476134300231934 2.63733315467834473 -0.56227952241897583
-0.46863400936126709 2.48597526550292969 -0.55557405948638916
-0.450671643018722534 3.65513300895690918 0.983923137187957764
-0.601316154003143311 2.53698062896728516 -0.671035826206207275
-0.587088227272033691 2.54105806350708008 -0.648661673069000244
0.993669390678405762 1.0048525333404541 0.354240894317626953
-2.23909735679626465 3.31777381896972656 0.170984670519828796
2.43557572364807129 5.18966865539550781 -0.0791459530591964722
-0.654071629047393799 -0.244104862213134766 -0.7612038254737854
-0.626586258411407471 2.56048750877380371 -0.579003989696502686
-1.63049042224884033 3.58726406097412109 0.968063235282897949
1.4656827449798584 2.99862265586853027 0.675201296806335449
-0.583360671997070312 2.52472829818725586 -0.671974599361419678
-0.497235357761383057 2.4754641056060791 -0.674375712871551514
-1.60266375541687012 2.03789687156677246 -0.645001590251922607
-2.45986342430114746 3.75864410400390625 -0.148691475391387939
1.22550678253173828 2.95589256286621094 -0.859243690967559814
-0.62965548038482666 2.5464484691619873 -0.675264537334442139
-0.57404625415802002 2.52059745788574219 -0.623977720737457275
1.20905673503875732 2.96548986434936523 -0.89973604679107666
-0.518268764019012451 2.47464823722839355 -0.585447847843170166
1.61726164817810059 2.96253681182861328 0.887828707695007324
1.63762187957763672 3.15150046348571777 -0.26723712682723999
-0.866281509399414062 -0.207899332046508789 -0.647364795207977295
1.28045928478240967 2.98890137672424316 0.948261022567749023
-1.89524447917938232 3.49908733367919922 -0.758237361907958984
-0.652352213859558105 2.53682661056518555 -0.54322350025177002
1.34889495372772217 2.95347380638122559 -0.876755416393280029
-0.575411677360534668 2.50980854034423828 -0.61284637451171875
2.64245843887329102 2.21231794357299805 0.231877356767654419
-0.607403218746185303 2.55118179321289062 -0.63279646635055542
2.24103593826293945 5.25770330429077148 -0.168195709586143494
2.27758455276489258 6.46458244323730469 1.89823746681213379
1.28629481792449951 2.96190094947814941 -0.867624521255493164
-0.765993773937225342 2.56633949279785156 -0.425253510475158691
-0.586350679397583008 2.55984115600585938 -0.638955593109130859
-0.598154723644256592 2.52530622482299805 -0.673150241374969482
-0.498174518346786499 2.47931718826293945 -0.673231005668640137
-2.23802304267883301 3.76787996292114258 -0.681432604789733887
-1.70066452026367188 3.79692196846008301 0.717763781547546387
-0.523153543472290039 2.49887871742248535 -0.654218733310699463
-1.85161471366882324 2.89396929740905762 -0.393308252096176147
1.3780287504196167 2.95468044281005859 -0.828790605068206787
-1.19992184638977051 1.73239803314208984 -0.598316788673400879
2.84603452682495117 4.99567651748657227 -0.075672447681427002
-0.574500203132629395 2.51065826416015625 -0.292661219835281372
-0.947533309459686279 2.22933316230773926 -0.300241827964782715
-2.34868597984313965 3.75585293769836426 -0.268309712409973145
-0.583410441875457764 2.55464839935302734 -0.634887039661407471
-0.658450067043304443 3.35078263282775879 1.0200047492980957
-0.793874680995941162 3.5400080680847168 1.14306056499481201
