ply
format ascii 1.0
element vertex 246
comment vertices
property float x
property float y
property float z
end_header
-2.20883870124816895 6.03467178344726562 1.09062790870666504
1.56650519371032715 2.24982690811157227 -0.668734908103942871
-1.81144320964813232 3.07776260375976562 -0.585757672786712646
0.547703325748443604 3.05727529525756836 1.53078126907348633
-4.38873910903930664 6.39738655090332031 6.40298700332641602
-0.415059417486190796 4.55313682556152344 -0.511564731597900391
-3.68283939361572266 3.69646358489990234 -0.292047023773193359
0.0898235514760017395 2.53395199775695801 -0.53480994701385498
2.48552036285400391 1.54760146141052246 -0.305806338787078857
-1.63879799842834473 5.23767185211181641 -0.416822463274002075
0.103528141975402832 2.55468368530273438 -0.484241217374801636
-0.454660594463348389 4.14614343643188477 1.4591299295425415
-0.651617109775543213 6.47417640686035156 -0.147100403904914856
-1.80754268169403076 3.79606723785400391 0.299446284770965576
-3.5417633056640625 5.66145753860473633 5.40154647827148438
-0.339851260185241699 4.86415815353393555 -0.342266172170639038
-1.99589860439300537 2.00780248641967773 -0.587070941925048828
-0.303022652864456177 3.5462641716003418 0.58586585521697998
-2.61613702774047852 5.3523554801940918 -0.126368865370750427
0.0936178863048553467 2.5382387638092041 -0.504841804504394531
0.103282272815704346 2.54071903228759766 -0.495171546936035156
-2.35567951202392578 3.96127414703369141 5.75974369049072266
0.0984333083033561707 2.54459166526794434 -0.499075502157211304
-0.0291569828987121582 5.36440801620483398 1.03665292263031006
-0.403520941734313965 3.01148796081542969 -0.425867199897766113
2.73923349380493164 1.90912175178527832 -0.188919156789779663
-1.40494930744171143 5.34497833251953125 0.212349534034729004
-2.37785243988037109 5.10528326034545898 3.78189516067504883
-0.306826233863830566 3.334747314453125 1.06460714340209961
-2.87227916717529297 5.1033320426940918 0.158272102475166321
0.0999109596014022827 2.54970836639404297 -0.557784736156463623
0.943513691425323486 2.85279440879821777 0.0860399007797241211
0.0975356549024581909 2.54816007614135742 -0.566410958766937256
-2.60835742950439453 5.35774135589599609 1.1197580099105835
0.0965600013732910156 2.55002880096435547 -0.573094427585601807
-0.537231028079986572 2.94697904586791992 -0.586931288242340088
-0.0135366320610046387 5.45926856994628906 -0.517106294631958008
0.101706027984619141 2.55290746688842773 -0.514271795749664307
0.100488439202308655 2.54491233825683594 -0.460223495960235596
-0.868226289749145508 3.75302600860595703 -0.280394613742828369
-1.75606441497802734 3.12067031860351562 -0.610553622245788574
-0.404308348894119263 4.96176242828369141 0.961411714553833008
-1.27837836742401123 6.13628101348876953 1.00243592262268066
1.50916671752929688 2.227142333984375 -0.684756100177764893
-2.35928606986999512 3.92559146881103516 -0.503258585929870605
0.0918672904372215271 2.53748989105224609 -0.539082050323486328
-2.69945859909057617 5.38663816452026367 -0.114697590470314026
1.03350579738616943 2.57887148857116699 -0.626012623310089111
0.0942996591329574585 2.53899359703063965 -0.498905032873153687
-2.32555532455444336 4.68885612487792969 0.0135912448167800903
-1.65291345119476318 5.95715808868408203 1.05773246288299561
-1.80318963527679443 3.07020878791809082 -0.625369369983673096
1.70713126659393311 1.50324451923370361 -0.353048145771026611
-0.24539262056350708 3.54678750038146973 -0.654614388942718506
0.87932133674621582 3.04260396957397461 1.04625391960144043
-0.259876370429992676 5.19983911514282227 0.821770608425140381
0.0947284474968910217 2.54265117645263672 -0.538723647594451904
-1.8471837043762207 3.87957096099853516 -0.552330136299133301
0.102340206503868103 2.54441404342651367 -0.467215955257415771
-2.26073098182678223 5.65535068511962891 0.737733304500579834
0.0586890131235122681 4.48193931579589844 0.488615751266479492
-0.26812472939491272 1.99920153617858887 -0.410526007413864136
0.0957016721367835999 2.54218578338623047 -0.513593196868896484
-0.378995388746261597 1.40066957473754883 -0.422608941793441772
0.760123074054718018 3.2685692310333252 0.655421972274780273
-0.821467995643615723 4.44197225570678711 -0.569379627704620361
0.926036357879638672 2.57189440727233887 -0.135025948286056519
0.096461758017539978 2.53601622581481934 -0.523600637912750244
-0.756972789764404297 5.44409275054931641 0.934517741203308105
-0.955959200859069824 5.99693775177001953 0.887560427188873291
-2.6681983470916748 5.4445953369140625 0.819379627704620361
-0.0995171517133712769 4.06580495834350586 -0.409420609474182129
-1.78115057945251465 3.08847737312316895 -0.601153790950775146
-3.24913311004638672 4.53356075286865234 0.406348109245300293
-0.58166271448135376 5.05737924575805664 -0.339847266674041748
0.0986070632934570312 2.54602479934692383 -0.54822540283203125
-3.30615019798278809 4.98431825637817383 6.04380130767822266
-1.80163693428039551 3.09221768379211426 -0.613252878189086914
-1.04764914512634277 2.55162882804870605 -0.629601597785949707
0.102848291397094727 2.55306529998779297 -0.505494773387908936
0.335968822240829468 4.10751008987426758 0.926558375358581543
-4.1745152473449707 5.58761739730834961 6.88985776901245117
-1.18928158283233643 2.64744281768798828 -0.404583990573883057
-2.76388335227966309 5.14828872680664062 1.44404375553131104
1.69717085361480713 2.22964763641357422 0.938905596733093262
-2.84693503379821777 5.18410158157348633 -0.00460231304168701172
-1.91382277011871338 2.94764852523803711 -0.547172129154205322
-3.71502184867858887 3.7205655574798584 0.00403890013694763184
-2.40146732330322266 5.48609733581542969 1.47072708606719971
0.0933542698621749878 2.53165793418884277 -0.509941220283508301
-0.978988707065582275 5.56678915023803711 0.146291151642799377
0.102140933275222778 2.55641841888427734 -0.508050084114074707
0.805764079093933105 2.97127199172973633 0.459803104400634766
-0.0381329506635665894 4.05001020431518555 1.09224140644073486
0.0990106910467147827 2.5455927848815918 -0.543771445751190186
0.160858601331710815 3.17977309226989746 1.83605384826660156
-0.737250208854675293 2.93198418617248535 -0.602881848812103271
-1.40134644508361816 2.22172403335571289 -0.0032176971435546875
-1.85221409797668457 3.02041196823120117 -0.591281116008758545
1.38174247741699219 2.3394620418548584 -0.652882516384124756
1.53081381320953369 2.24820089340209961 -0.622832775115966797
0.0896487608551979065 2.53352141380310059 -0.523921489715576172
0.10798916220664978 2.5460970401763916 -0.543552041053771973
0.238638132810592651 3.43709659576416016 -0.21971893310546875
0.905382394790649414 3.04597020149230957 0.760779023170471191
0.0925204157829284668 2.53827977180480957 -0.530814468860626221
-2.63542604446411133 5.63054656982421875 0.589741110801696777
0.215551584959030151 1.89139366149902344 -0.290420353412628174
0.240442410111427307 3.60288095474243164 0.552793383598327637
-2.77303194999694824 5.11265707015991211 0.629482507705688477
-2.36730051040649414 4.53609466552734375 -0.42805558443069458
-2.46394658088684082 5.46820163726806641 0.485169440507888794
-0.174023166298866272 4.05930662155151367 -0.430633664131164551
0.10013185441493988 2.55125808715820312 -0.484768867492675781
0.0272785574197769165 2.54772067070007324 -0.360817134380340576
-0.0900375917553901672 4.84306907653808594 0.990266382694244385
0.100222930312156677 2.54717206954956055 -0.544815003871917725
0.827526092529296875 2.39864802360534668 0.311394989490509033
0.0944383591413497925 2.53627848625183105 -0.495260566473007202
0.105177327990531921 2.54726624488830566 -0.469173669815063477
0.0994781553745269775 2.54274106025695801 -0.471383571624755859
-0.37294459342956543 2.74569845199584961 -0.293650150299072266
-1.60323929786682129 6.1000676155090332 1.32127737998962402
1.53387200832366943 2.24334549903869629 -0.697942674160003662
-1.8030390739440918 3.04248905181884766 -0.594396352767944336
0.658574461936950684 2.73147416114807129 1.38798558712005615
-1.0788872241973877 4.82816743850708008 0.723171830177307129
-2.13987088203430176 4.81622076034545898 -0.450305789709091187
0.768972992897033691 1.42461240291595459 -0.46888461709022522
0.096719495952129364 2.54489564895629883 -0.526849865913391113
0.099043235182762146 2.54289007186889648 -0.424038738012313843
-3.07830405235290527 5.07039356231689453 -0.137306958436965942
-2.40555381774902344 5.61044979095458984 1.05805909633636475
-0.775189876556396484 5.10522794723510742 0.959019660949707031
0.07057170569896698 2.54089736938476562 -0.450467288494110107
0.0957052931189537048 2.54334068298339844 -0.541116595268249512
0.102951183915138245 2.54440045356750488 -0.493651896715164185
0.111308649182319641 2.54532623291015625 -0.556231200695037842
-0.60380929708480835 0.833434581756591797 -0.507529795169830322
-2.89995813369750977 2.6174924373626709 -0.652869820594787598
-0.495104074478149414 4.45716476440429688 -0.350005388259887695
0.0904623270034790039 2.52601432800292969 -0.490504205226898193
-2.08975863456726074 5.94862461090087891 0.949376940727233887
0.0438133031129837036 2.55428385734558105 -0.354931056499481201
-2.72785353660583496 5.19006109237670898 0.655227541923522949
1.65681362152099609 2.28203153610229492 -0.57693171501159668
0.909886598587036133 4.06336784362792969 0.925844669342041016
-1.58609104156494141 4.36684322357177734 -0.473157256841659546
-0.282967150211334229 5.18312263488769531 0.834682345390319824
0.0958946496248245239 2.54348206520080566 -0.526642739772796631
0.105044692754745483 2.55424690246582031 -0.477631241083145142
-2.9146728515625 3.98714351654052734 -0.482343912124633789
-2.53480029106140137 6.23678207397460938 1.707489013671875
-1.52593100070953369 5.1571812629699707 -0.0555712282657623291
-0.306864440441131592 3.85298490524291992 2.12239432334899902
0.0988635420799255371 2.54895305633544922 -0.552689671516418457
0.0201187431812286377 3.9587244987487793 0.653575658798217773
-0.735574722290039062 4.97898435592651367 1.1374363899230957
0.10128176212310791 2.54708647727966309 -0.518043756484985352
-1.80029451847076416 3.05603146553039551 -0.6015167236328125
1.19100618362426758 2.79784846305847168 0.858903825283050537
-2.44213366508483887 5.02183914184570312 0.23911990225315094
-0.72055363655090332 2.79570651054382324 -0.402271419763565063
0.0979199260473251343 2.5464479923248291 -0.519537687301635742
0.0942598730325698853 2.54144454002380371 -0.545366525650024414
1.51569795608520508 2.24952268600463867 -0.699175536632537842
0.829345166683197021 1.93358230590820312 -0.370380878448486328
-1.25770688056945801 2.72594928741455078 0.364953756332397461
0.0880678147077560425 2.52708578109741211 -0.492580443620681763
1.31080520153045654 2.08786892890930176 -0.277173042297363281
-2.03432464599609375 1.87552738189697266 -0.527354955673217773
0.10571705549955368 2.54907798767089844 -0.524775445461273193
0.71156013011932373 2.54425191879272461 0.584745168685913086
0.111737146973609924 2.52945280075073242 -0.558023989200592041
-0.93065178394317627 4.03399658203125 2.86836385726928711
1.58428061008453369 2.21285438537597656 -0.576989412307739258
-0.820649683475494385 4.28706645965576172 1.06577789783477783
-1.30551683902740479 5.88552618026733398 0.428027510643005371
-0.577182769775390625 1.11103451251983643 -0.4564475417137146
-2.29461956024169922 5.93182373046875 0.600731730461120605
-2.75153684616088867 5.16578483581542969 0.810854494571685791
1.10965943336486816 3.01199746131896973 0.252653390169143677
0.0702317804098129272 2.54018092155456543 -0.554383635520935059
-2.38858723640441895 5.29749727249145508 0.394363045692443848
-0.211810052394866943 4.02710914611816406 -0.321978390216827393
-2.57872295379638672 5.30803918838500977 1.38091325759887695
1.30055677890777588 2.5863497257232666 0.706579208374023438
-0.125658318400382996 4.0094451904296875 -0.586695194244384766
-2.56349277496337891 5.52460575103759766 0.775206148624420166
0.105187691748142242 2.55284237861633301 -0.506910264492034912
-0.692970514297485352 2.83199667930603027 -0.460602045059204102
-1.79112732410430908 6.32539463043212891 0.943225204944610596
-2.56539058685302734 5.10143661499023438 -0.112750820815563202
1.51125597953796387 2.12906455993652344 -0.103441745042800903
-0.143473535776138306 3.98102092742919922 -0.576945602893829346
-0.262733936309814453 3.2513272762298584 -0.094201505184173584
1.00011086463928223 2.34616661071777344 -0.680821776390075684
-0.77703249454498291 1.1925349235534668 -0.456077277660369873
-0.327510416507720947 5.78362894058227539 0.351467788219451904
0.100554369390010834 2.54456377029418945 -0.509899735450744629
-3.44697189331054688 4.36844682693481445 0.0502087175846099854
-1.80244457721710205 3.05511021614074707 -0.594619452953338623
0.251989930868148804 3.25835180282592773 0.244305223226547241
0.882739365100860596 2.35799574851989746 0.212663948535919189
-2.61719179153442383 4.80728769302368164 -0.0875334516167640686
0.258464217185974121 3.33889126777648926 -0.333956688642501831
-0.350745797157287598 1.53420639038085938 0.16766047477722168
0.0962049663066864014 2.54386234283447266 -0.520596444606781006
0.0928755328059196472 2.53886914253234863 -0.539711892604827881
0.0941924899816513062 2.5381464958190918 -0.51964724063873291
-2.25816893577575684 4.58065366744995117 -0.404181808233261108
-3.16227364540100098 4.91727113723754883 -0.19572293758392334
0.0868594348430633545 2.53638982772827148 -0.57676166296005249
0.0980798676609992981 2.5366673469543457 -0.487774372100830078
0.106610104441642761 2.54920196533203125 -0.49817165732383728
-0.691303253173828125 5.19960975646972656 0.857766568660736084
0.0980644524097442627 2.5486900806427002 -0.553348422050476074
-1.89686298370361328 2.97754955291748047 -0.563527107238769531
0.0910733044147491455 2.53471708297729492 -0.538065552711486816
0.0913812220096588135 2.5330510139465332 -0.492519885301589966
0.0890630334615707397 2.53112363815307617 -0.514749467372894287
0.898691058158874512 3.51498317718505859 0.626524686813354492
-0.858479976654052734 4.3520817756652832 -0.306302368640899658
-1.79741930961608887 3.05618500709533691 -0.587503910064697266
-1.80343842506408691 3.08522439002990723 -0.627466976642608643
0.105543658137321472 2.55647802352905273 -0.445423603057861328
-1.04249870777130127 4.24327373504638672 2.10883712768554688
-0.184403419494628906 4.23516941070556641 -0.246527552604675293
0.246334865689277649 4.08661699295043945 0.97703850269317627
1.46115779876708984 2.25363564491271973 -0.508512735366821289
-0.511574447154998779 4.93565654754638672 0.911489486694335938
-0.970952212810516357 5.06702470779418945 -0.118698671460151672
0.0955325588583946228 2.54426097869873047 -0.542857825756072998
-0.862610995769500732 5.17795085906982422 1.08465802669525146
-2.67387557029724121 5.36351156234741211 0.327864408493041992
1.168174147605896 2.93118548393249512 0.669967591762542725
0.104348957538604736 2.54964041709899902 -0.492186427116394043
0.0929204374551773071 2.54099678993225098 -0.563520908355712891
1.56265044212341309 2.23577737808227539 -0.620954811573028564
-0.489031761884689331 6.15451717376708984 0.151693135499954224
1.5675661563873291 2.25112295150756836 -0.65882408618927002
0.0984564721584320068 2.54970622062683105 -0.557839930057525635
0.100084006786346436 2.5438532829284668 -0.526867330074310303
-1.09825539588928223 2.31659698486328125 -0.547204136848449707
0.359790176153182983 3.98617815971374512 0.996687173843383789
1.58721756935119629 2.54291057586669922 1.18868386745452881
