ply
format ascii 1.0
element vertex 114
comment vertices
property float x
property float y
property float z
end_header
-0.513531029224395752 2.45518779754638672 -0.632694423198699951
-0.596891641616821289 2.53143095970153809 -0.688418865203857422
-0.609858036041259766 2.57759594917297363 -0.590804755687713623
-0.530638515949249268 2.46622395515441895 -0.68405991792678833
1.46793878078460693 2.88414692878723145 -0.900043725967407227
-1.89961123466491699 3.73940706253051758 -0.793960690498352051
-0.58442223072052002 2.54719972610473633 -0.664777100086212158
-0.582016289234161377 2.549713134765625 -0.650201499462127686
-0.48985704779624939 2.57169580459594727 -0.689436852931976318
1.39405333995819092 2.94875931739807129 -0.847962081432342529
-0.490242302417755127 2.46996378898620605 -0.670781254768371582
-0.636051476001739502 2.57050371170043945 -0.668382823467254639
-0.493174463510513306 2.47266221046447754 -0.710110068321228027
-0.927162349224090576 2.66289472579956055 -0.486229598522186279
-0.547152400016784668 2.48422122001647949 -0.664835333824157715
-0.588155210018157959 2.56514954566955566 -0.636363089084625244
1.20263195037841797 2.95941638946533203 -0.887302756309509277
-0.567751049995422363 2.50412678718566895 -0.603314399719238281
-0.583110988140106201 2.53396391868591309 -0.654077470302581787
-0.488129377365112305 2.4723515510559082 -0.597683906555175781
-0.589593589305877686 2.54565095901489258 -0.706496775150299072
-0.49151378870010376 2.5680694580078125 -0.663480818271636963
-0.498934447765350342 2.47715210914611816 -0.668429970741271973
-0.600868284702301025 2.63512444496154785 -0.391002655029296875
-1.83274853229522705 3.73160600662231445 -0.872476041316986084
-0.626602768898010254 2.57435870170593262 -0.650953173637390137
-0.566377878189086914 2.52237153053283691 -0.670519113540649414
-0.571746587753295898 2.51886200904846191 -0.633634448051452637
1.2011183500289917 2.96737241744995117 -0.887832820415496826
-0.621629059314727783 2.55344367027282715 -0.614132285118103027
-0.663646876811981201 2.53746795654296875 -0.510091066360473633
1.27963030338287354 2.96372103691101074 -0.88896256685256958
-0.645306766033172607 2.53564667701721191 -0.650428116321563721
-0.573955416679382324 2.51530265808105469 -0.68397367000579834
-0.490700721740722656 2.46379756927490234 -0.670028090476989746
-0.617636382579803467 2.54907059669494629 -0.688916385173797607
-0.460669279098510742 2.35828709602355957 -0.701437711715698242
-0.664473474025726318 2.56343340873718262 -0.530910789966583252
1.44665873050689697 2.93696212768554688 -0.852227509021759033
-0.57665562629699707 2.54959702491760254 -0.664311528205871582
1.18664181232452393 2.92238807678222656 -0.870592474937438965
1.19469964504241943 2.96676278114318848 -0.913054108619689941
-0.584853887557983398 2.53613734245300293 -0.61780017614364624
-0.534034788608551025 2.4825599193572998 -0.627909302711486816
-0.577693402767181396 2.53748774528503418 -0.702923297882080078
-0.552882671356201172 2.50105905532836914 -0.717155873775482178
-0.577300846576690674 2.53118658065795898 -0.65415036678314209
1.13482105731964111 2.9802243709564209 -0.856053650379180908
1.41759908199310303 2.92429757118225098 -0.840828061103820801
-0.576844930648803711 2.54982495307922363 -0.685836851596832275
-0.621539115905761719 2.55280852317810059 -0.618639051914215088
-0.651011466979980469 2.60474467277526855 -0.590941369533538818
-0.550478577613830566 2.48268508911132812 -0.693954885005950928
1.2440941333770752 3.04262423515319824 -0.667647182941436768
-0.520166575908660889 2.49638080596923828 -0.627577841281890869
-0.498703360557556152 2.46719241142272949 -0.682699143886566162
1.21217608451843262 2.95902633666992188 -0.874659955501556396
-0.570683598518371582 2.52881050109863281 -0.660048186779022217
-0.589738249778747559 2.53956198692321777 -0.681809663772583008
-0.50142514705657959 2.47921276092529297 -0.63415062427520752
-0.573806822299957275 2.7430574893951416 -0.634431183338165283
-0.606876850128173828 2.5304722785949707 -0.687926232814788818
-0.570892333984375 2.5277717113494873 -0.697640657424926758
-0.545605599880218506 2.48254609107971191 -0.659303367137908936
-0.461877942085266113 2.43622303009033203 -0.726350307464599609
-1.81659817695617676 3.73531532287597656 -0.835288941860198975
-0.6247139573097229 2.55393743515014648 -0.606296896934509277
1.20357644557952881 2.96111941337585449 -0.887253522872924805
-0.498663008213043213 2.47986078262329102 -0.672913432121276855
-0.559279918670654297 2.56831836700439453 -0.682776868343353271
-0.575304925441741943 2.53513622283935547 -0.702971041202545166
-0.581239283084869385 2.53306102752685547 -0.669584095478057861
1.19113850593566895 2.96204972267150879 -0.922678947448730469
-0.814993143081665039 2.59961152076721191 -0.558842122554779053
1.20148277282714844 2.96955156326293945 -0.875976204872131348
-0.581660211086273193 2.54863166809082031 -0.645063519477844238
-0.560465991497039795 2.49825263023376465 -0.675290584564208984
-0.591866135597229004 2.5500636100769043 -0.650701642036437988
-0.54554450511932373 2.4992213249206543 -0.651578724384307861
-0.5710906982421875 2.54884719848632812 -0.665099442005157471
-0.70861285924911499 2.56883740425109863 -0.353553295135498047
-0.537440478801727295 2.47870349884033203 -0.647714018821716309
-0.570567965507507324 2.5071556568145752 -0.648000836372375488
-0.583997964859008789 2.54810976982116699 -0.646130144596099854
1.09204673767089844 2.90580105781555176 -0.882635712623596191
-0.563946425914764404 2.50450873374938965 -0.617022514343261719
-0.527607142925262451 2.47514867782592773 -0.693785130977630615
-0.462987661361694336 2.44098997116088867 -0.69726330041885376
-0.712476134300231934 2.63733315467834473 -0.56227952241897583
-0.46863400936126709 2.48597526550292969 -0.55557405948638916
-0.433336079120635986 2.53691959381103516 -0.698869884014129639
-0.601316154003143311 2.53698062896728516 -0.671035826206207275
-0.587088227272033691 2.54105806350708008 -0.648661673069000244
-0.626586258411407471 2.56048750877380371 -0.579003989696502686
-0.583360671997070312 2.52472829818725586 -0.671974599361419678
-0.497235357761383057 2.4754641056060791 -0.674375712871551514
1.22550678253173828 2.95589256286621094 -0.859243690967559814
-0.62965548038482666 2.5464484691619873 -0.675264537334442139
-0.57404625415802002 2.52059745788574219 -0.623977720737457275
1.20905673503875732 2.96548986434936523 -0.89973604679107666
-0.518268764019012451 2.47464823722839355 -0.585447847843170166
-0.700939714908599854 2.55376124382019043 -0.709193050861358643
-0.652352213859558105 2.53682661056518555 -0.54322350025177002
1.34889495372772217 2.95347380638122559 -0.876755416393280029
-0.575411677360534668 2.50980854034423828 -0.61284637451171875
-0.607403218746185303 2.55118179321289062 -0.63279646635055542
1.28629481792449951 2.96190094947814941 -0.867624521255493164
-0.765993773937225342 2.56633949279785156 -0.425253510475158691
-0.586350679397583008 2.55984115600585938 -0.638955593109130859
-0.598154723644256592 2.52530622482299805 -0.673150241374969482
-0.498174518346786499 2.47931718826293945 -0.673231005668640137
-0.523153543472290039 2.49887871742248535 -0.654218733310699463
1.3780287504196167 2.95468044281005859 -0.828790605068206787
-0.583410441875457764 2.55464839935302734 -0.634887039661407471
