ply
format ascii 1.0
element vertex 219
comment vertices
property float x
property float y
property float z
end_header
3.68008589744567871 6.89495468139648438 1.76011800765991211
-3.95535731315612793 7.05622625350952148 4.75857353210449219
2.48584532737731934 3.419769287109375 -0.267869383096694946
-3.80326223373413086 3.71858501434326172 1.68927836418151855
0.0889635682106018066 6.12093448638916016 2.24509453773498535
-0.224702820181846619 3.21384453773498535 -0.564541757106781006
2.44719147682189941 3.01892518997192383 -0.880087971687316895
3.56852436065673828 5.221282958984375 -0.724500298500061035
-2.67509746551513672 4.1325688362121582 -0.569384276866912842
2.51143312454223633 5.13915538787841797 2.14699292182922363
-0.85630333423614502 7.26932859420776367 1.62111282348632812
1.6512749195098877 5.73190402984619141 1.70353662967681885
2.18366050720214844 3.92303729057312012 -0.851803421974182129
-1.12644064426422119 6.35875844955444336 1.85769009590148926
1.57552051544189453 2.07445669174194336 -0.12186819314956665
-1.39243209362030029 4.37903976440429688 0.494135469198226929
-0.224907770752906799 3.22344040870666504 -0.626336336135864258
-1.77976870536804199 3.25504350662231445 -0.706795990467071533
1.01060163974761963 4.02202796936035156 -0.8719482421875
3.54273080825805664 5.10991668701171875 1.67064642906188965
-1.75223255157470703 4.0635371208190918 -0.718274533748626709
1.86514747142791748 5.93654632568359375 2.23345851898193359
-2.46855425834655762 6.92339181900024414 3.26510334014892578
-0.243963688611984253 3.20843791961669922 -0.5845489501953125
2.27420997619628906 3.91063880920410156 -0.705360054969787598
-0.148309469223022461 6.54398059844970703 2.2913517951965332
0.959396958351135254 5.87570333480834961 2.01407909393310547
1.1592174768447876 3.84767580032348633 -0.465670764446258545
0.591413557529449463 4.5197906494140625 -0.383368909358978271
2.35941886901855469 6.91411542892456055 2.12863492965698242
-0.285869777202606201 4.08260536193847656 0.520128548145294189
0.154807597398757935 3.61547136306762695 -0.764832615852355957
-0.227233856916427612 3.20590591430664062 -0.624894618988037109
-2.52403402328491211 2.36365365982055664 -0.740398168563842773
-1.92757058143615723 6.15011119842529297 1.50834143161773682
-1.06315755844116211 6.59632778167724609 2.07310104370117188
-1.62944352626800537 3.88354969024658203 0.162159726023674011
0.803706765174865723 6.36028957366943359 2.43628716468811035
-0.21819855272769928 3.24857521057128906 -0.704091668128967285
2.19817590713500977 2.13206744194030762 -0.41335827112197876
-0.220631912350654602 3.20937919616699219 -0.567911803722381592
-0.220823824405670166 3.21833467483520508 -0.706214487552642822
-1.76120388507843018 4.03355836868286133 -0.772314190864562988
-0.225104227662086487 3.23050546646118164 -0.643471896648406982
-1.55895590782165527 2.93390798568725586 -0.811441361904144287
2.16562533378601074 3.96712851524353027 -0.456175386905670166
2.36219954490661621 7.1619563102722168 1.84539270401000977
-1.11778461933135986 7.25187110900878906 2.24233698844909668
3.8162078857421875 5.17681121826171875 -0.140547141432762146
2.68280816078186035 3.68576407432556152 0.995267748832702637
1.95876383781433105 3.94835662841796875 -0.865949451923370361
-0.21755567193031311 3.22471046447753906 -0.649879753589630127
-0.223763808608055115 3.22849130630493164 -0.624105751514434814
3.4349672794342041 2.65865778923034668 -0.795520305633544922
1.73512661457061768 6.14363527297973633 1.92657160758972168
-2.64053869247436523 4.2916865348815918 0.735148251056671143
0.130432233214378357 5.60866260528564453 1.20306396484375
2.36667084693908691 6.55612611770629883 2.2255244255065918
0.121740154922008514 3.01152706146240234 -0.419218003749847412
1.8136063814163208 4.01580572128295898 -0.800800979137420654
-0.239913135766983032 3.24395489692687988 -0.591132938861846924
3.5161900520324707 4.71318435668945312 1.63484275341033936
2.34982728958129883 3.85076737403869629 -0.813298165798187256
-0.637063801288604736 7.30887842178344727 2.08797836303710938
1.00721120834350586 4.01978397369384766 -0.896456778049468994
-0.209993824362754822 3.19808530807495117 -0.662029743194580078
-0.223240524530410767 3.21888041496276855 -0.627021908760070801
-0.00758491083979606628 6.34556341171264648 2.3672330379486084
-0.0404869541525840759 6.21029281616210938 1.85833942890167236
-0.220135867595672607 3.22456717491149902 -0.581665337085723877
-2.19073629379272461 3.97344183921813965 -0.743802487850189209
0.767827987670898438 5.90117406845092773 2.13492369651794434
-2.6929929256439209 4.19970607757568359 0.163149178028106689
2.07891154289245605 3.93020844459533691 -0.347725987434387207
-0.123130843043327332 3.19593334197998047 -0.43712887167930603
0.6517905592918396 6.43132543563842773 2.19565176963806152
0.492612302303314209 2.68221902847290039 0.0548065602779388428
2.9712369441986084 6.18672037124633789 1.39790785312652588
2.0788419246673584 3.99017500877380371 1.03838038444519043
0.831654250621795654 4.10320281982421875 0.792969226837158203
2.26813554763793945 3.85617971420288086 -0.831068694591522217
0.182450398802757263 5.84484195709228516 2.0982365608215332
-0.996177494525909424 4.24869394302368164 0.742189645767211914
-2.11182975769042969 5.89699268341064453 1.72746682167053223
-1.85159707069396973 4.17700004577636719 1.13092887401580811
-0.190145969390869141 3.24796795845031738 -0.598253905773162842
1.53252911567687988 6.35120296478271484 2.19666790962219238
-0.252217382192611694 3.20250701904296875 -0.644728720188140869
-0.224061951041221619 3.22149944305419922 -0.627875983715057373
1.75773203372955322 3.98259687423706055 -0.788587868213653564
-0.228462293744087219 3.21921706199645996 -0.654970884323120117
-1.7427135705947876 4.04152774810791016 -0.761130988597869873
2.77603602409362793 2.90270495414733887 -0.162558674812316895
-0.632192552089691162 3.99246883392333984 0.31960567831993103
2.84085631370544434 6.93286228179931641 1.99455702304840088
1.55492842197418213 5.48280572891235352 1.91680347919464111
2.07577657699584961 5.31125736236572266 1.90340507030487061
-1.76736938953399658 4.03337574005126953 -0.773973464965820312
2.10337543487548828 5.79979372024536133 2.04310107231140137
-1.41448318958282471 7.11754655838012695 2.05019283294677734
2.61565065383911133 5.00698232650756836 1.77621364593505859
-1.68552899360656738 4.04385662078857422 -0.779251456260681152
-0.226647615432739258 3.2066185474395752 -0.51291424036026001
-0.227752313017845154 3.2123408317565918 -0.689993143081665039
3.04888439178466797 3.32852005958557129 -0.288968831300735474
2.17151427268981934 3.97772860527038574 -0.632846593856811523
0.440125793218612671 6.49968862533569336 2.37552642822265625
1.17005705833435059 6.46286153793334961 2.32017064094543457
1.07253694534301758 3.95157194137573242 -0.895004034042358398
-0.211104974150657654 3.1942589282989502 -0.549495995044708252
1.85391807556152344 4.00003576278686523 -0.833442032337188721
1.02361595630645752 4.03820943832397461 -0.921679496765136719
-0.224344164133071899 3.21782469749450684 -0.615603923797607422
-0.877466857433319092 6.82653331756591797 1.52077674865722656
-3.5855109691619873 1.26014900207519531 -0.902878165245056152
-1.32350921630859375 3.53841233253479004 -0.687868118286132812
4.35488271713256836 5.58940982818603516 1.79224729537963867
-0.211017996072769165 3.19741296768188477 -0.528608441352844238
-0.224967822432518005 3.22049570083618164 -0.586600542068481445
1.91290426254272461 3.96500515937805176 -0.83405458927154541
1.97368288040161133 3.96234345436096191 -0.407666236162185669
-0.225510731339454651 3.22331070899963379 -0.663422584533691406
-0.224079996347427368 3.22016215324401855 -0.63700103759765625
-0.230176359415054321 3.2149965763092041 -0.612698912620544434
1.05013573169708252 3.9999089241027832 -0.925056874752044678
1.09431266784667969 4.03849649429321289 -0.898354053497314453
2.16022992134094238 3.93274426460266113 -0.79655689001083374
0.410626828670501709 6.53976202011108398 2.39600491523742676
-2.71395564079284668 2.79295992851257324 -0.742926418781280518
-1.68308281898498535 6.99891948699951172 2.15324282646179199
-1.60411477088928223 4.0793309211730957 -0.620836794376373291
2.02157998085021973 3.92077732086181641 -0.873751819133758545
2.71000838279724121 3.24346923828125 0.510301291942596436
-1.58302485942840576 4.35987615585327148 0.312744319438934326
-1.58880317211151123 4.04977798461914062 -0.750585734844207764
-2.56954002380371094 3.72680282592773438 0.0860275030136108398
-0.224976465106010437 3.22770023345947266 -0.639665067195892334
0.451371908187866211 4.20318365097045898 0.49027898907661438
2.43483757972717285 7.00854396820068359 1.96467316150665283
2.1728665828704834 3.8680269718170166 -0.487088501453399658
-1.34386146068572998 6.48000764846801758 1.74501395225524902
-0.140571638941764832 4.07267141342163086 0.46938091516494751
-0.249943375587463379 3.20564961433410645 -0.685861885547637939
-0.294400215148925781 6.96628284454345703 1.40986979007720947
-0.229200452566146851 3.21155858039855957 -0.64708024263381958
-0.208032906055450439 3.22075939178466797 -0.66968846321105957
3.69370269775390625 6.68183708190917969 1.83618664741516113
-0.222703292965888977 3.22454643249511719 -0.657398641109466553
-0.428032815456390381 6.30634260177612305 2.22949624061584473
0.956575334072113037 5.17374944686889648 1.84674501419067383
1.90428173542022705 3.96419858932495117 -0.805504083633422852
2.54938626289367676 3.27722764015197754 -0.871032118797302246
1.90204572677612305 6.70811700820922852 2.07505178451538086
-0.204965651035308838 3.1930696964263916 -0.624921917915344238
0.299795299768447876 6.83442211151123047 2.13406729698181152
-0.177386239171028137 3.16184544563293457 -0.540310323238372803
-0.213208526372909546 3.20874762535095215 -0.612084329128265381
1.9600062370300293 5.88942337036132812 1.59605598449707031
1.31648051738739014 3.96518063545227051 0.759946107864379883
2.5128474235534668 6.85064458847045898 2.11967301368713379
-2.0763704776763916 4.07849025726318359 0.744945347309112549
1.88722288608551025 3.95755958557128906 -0.847676634788513184
2.05346775054931641 6.83122014999389648 2.2100226879119873
-2.32301735877990723 6.35783481597900391 2.05206179618835449
1.70761311054229736 6.68437719345092773 2.36957621574401855
-2.29781723022460938 3.98403787612915039 -0.288799077272415161
0.623511910438537598 5.88466882705688477 2.14187884330749512
0.926187574863433838 3.49433279037475586 -0.68712848424911499
-0.216990694403648376 3.20200729370117188 -0.562234282493591309
-1.80919253826141357 1.20119452476501465 -0.604996860027313232
-1.69348907470703125 6.68464040756225586 1.77354061603546143
-0.442665070295333862 7.41231060028076172 2.32579159736633301
1.17635607719421387 4.05502080917358398 -0.906124472618103027
-1.57857358455657959 4.05059576034545898 -0.788261950016021729
0.445436030626296997 4.14597415924072266 0.820179164409637451
2.05934405326843262 5.78439664840698242 2.13217544555664062
-1.89509749412536621 6.80568027496337891 1.88042628765106201
0.470803439617156982 4.10797119140625 -0.0757763683795928955
1.43262767791748047 2.56209278106689453 -0.807114303112030029
-0.219725906848907471 3.21116209030151367 -0.627169668674468994
-0.685962915420532227 3.20162510871887207 0.70825725793838501
2.91416120529174805 5.17785882949829102 1.71467316150665283
-0.249576464295387268 3.20243120193481445 -0.588308811187744141
-1.02689766883850098 4.78513383865356445 1.95583879947662354
1.29548311233520508 3.42960405349731445 0.794584989547729492
2.25855159759521484 3.9267730712890625 -0.622552752494812012
-3.09546613693237305 2.43600583076477051 -0.551431119441986084
-0.218992963433265686 3.18492650985717773 -0.670686960220336914
-0.216906875371932983 3.23040962219238281 -0.589934587478637695
1.9179842472076416 3.95963311195373535 -0.835580825805664062
-0.207188934087753296 3.19561314582824707 -0.582724869251251221
-0.215819254517555237 3.21463513374328613 -0.573453366756439209
-0.231821417808532715 3.22615289688110352 -0.554097473621368408
1.28015279769897461 6.12116670608520508 1.44388997554779053
1.87139475345611572 3.97550678253173828 -0.832931995391845703
-2.21085190773010254 2.7104189395904541 -0.625715374946594238
0.427297115325927734 6.35512733459472656 2.34852313995361328
0.720850884914398193 7.02191448211669922 2.06608152389526367
-0.229021027684211731 3.21814441680908203 -0.674930334091186523
2.74480199813842773 6.89454174041748047 1.73653316497802734
2.66595911979675293 7.12320613861083984 2.03675556182861328
1.50599038600921631 6.37721014022827148 2.36345767974853516
-0.216442257165908813 3.23027729988098145 -0.649481654167175293
2.00356554985046387 4.08916425704956055 1.08952116966247559
-1.27203702926635742 7.25579023361206055 2.10569953918457031
0.0292653404176235199 2.95812249183654785 -0.395905137062072754
-1.71204674243927002 4.03137969970703125 -0.749777376651763916
2.13669872283935547 2.08384275436401367 -0.687112569808959961
1.89156818389892578 3.99558782577514648 -0.707964897155761719
-0.228388220071792603 3.21384835243225098 -0.655434846878051758
-0.208398193120956421 3.85714459419250488 0.823871731758117676
2.01504278182983398 3.9293978214263916 -0.833070456981658936
-0.224708423018455505 3.22201800346374512 -0.626737296581268311
-0.21660187840461731 3.22995591163635254 -0.607773542404174805
1.03625547885894775 4.03904581069946289 -0.924618422985076904
1.97311818599700928 6.43677902221679688 1.91872811317443848
0.651291549205780029 6.52601718902587891 2.34580183029174805
-0.739444434642791748 4.15502071380615234 0.94334036111831665
-0.225423052906990051 3.22411274909973145 -0.607289135456085205
