ply
format ascii 1.0
element vertex 96
comment vertices
property float x
property float y
property float z
end_header
0.245911970734596252 2.47033882141113281 -0.406977176666259766
0.325111299753189087 2.47611117362976074 -0.500669300556182861
0.316019594669342041 2.47090339660644531 -0.465414762496948242
0.156849175691604614 2.51882433891296387 -0.541628181934356689
0.310478150844573975 2.46469640731811523 -0.507877945899963379
0.327201336622238159 2.46447443962097168 -0.54287189245223999
0.306942939758300781 2.45598697662353516 -0.417863368988037109
0.29020729660987854 2.47765374183654785 -0.475531101226806641
0.228288322687149048 2.48663592338562012 -0.502013325691223145
0.32146531343460083 2.47500467300415039 -0.49449235200881958
0.329185366630554199 2.47414445877075195 -0.506926655769348145
0.322769075632095337 2.47718334197998047 -0.545096993446350098
0.318087756633758545 2.46296119689941406 -0.481549918651580811
0.338740766048431396 2.47352933883666992 -0.530551373958587646
0.314352333545684814 2.45413017272949219 -0.451320290565490723
0.317563354969024658 2.47484159469604492 -0.481162399053573608
0.320658624172210693 2.46032309532165527 -0.385350018739700317
0.323575258255004883 2.46190786361694336 -0.523758471012115479
0.294054210186004639 2.46763443946838379 -0.464252442121505737
0.329017758369445801 2.47570085525512695 -0.513795614242553711
0.310873299837112427 2.47047972679138184 -0.46432831883430481
0.323587119579315186 2.47046017646789551 -0.486716717481613159
0.225592121481895447 2.47357034683227539 -0.384682625532150269
0.310234695672988892 2.46795058250427246 -0.485676109790802002
0.124513261020183563 2.58296346664428711 -0.558051168918609619
0.329220205545425415 2.46260929107666016 -0.5373382568359375
0.327766865491867065 2.48885345458984375 -0.589505255222320557
0.330984950065612793 2.47936511039733887 -0.582378983497619629
0.327765613794326782 2.47107076644897461 -0.49041217565536499
0.318138360977172852 2.48413634300231934 -0.515992105007171631
0.328338980674743652 2.4710545539855957 -0.492061614990234375
0.310076445341110229 2.46846389770507812 -0.477606087923049927
0.313954770565032959 2.46118474006652832 -0.508296072483062744
0.318020403385162354 2.47574639320373535 -0.487729072570800781
0.314105480909347534 2.48719954490661621 -0.502204358577728271
0.29642912745475769 2.49066305160522461 -0.480254471302032471
0.322194397449493408 2.48297691345214844 -0.539492547512054443
0.321560591459274292 2.46436929702758789 -0.533917725086212158
0.265600025653839111 2.47213912010192871 -0.468480706214904785
0.305809378623962402 2.46180987358093262 -0.424451649188995361
0.327946215867996216 2.47230315208435059 -0.501572966575622559
0.318382978439331055 2.46512246131896973 -0.458156228065490723
0.300974130630493164 2.46530914306640625 -0.467832982540130615
0.3290671706199646 2.4699699878692627 -0.54603278636932373
0.318367451429367065 2.47066140174865723 -0.499850720167160034
0.310014039278030396 2.48186111450195312 -0.502365231513977051
0.249392211437225342 2.4881281852722168 -0.467466622591018677
0.275287151336669922 2.46626973152160645 -0.482302546501159668
0.306561708450317383 2.46188688278198242 -0.415950536727905273
0.21050792932510376 2.43197131156921387 -0.426092803478240967
0.316617608070373535 2.47282218933105469 -0.484818458557128906
0.303528577089309692 2.47505092620849609 -0.477538824081420898
0.322629302740097046 2.45340752601623535 -0.485783755779266357
0.331523746252059937 2.47480154037475586 -0.519121050834655762
0.31413114070892334 2.46961641311645508 -0.488568544387817383
0.325780510902404785 2.45332241058349609 -0.470144599676132202
0.324609309434890747 2.48037314414978027 -0.524247705936431885
0.30542457103729248 2.46550393104553223 -0.468325823545455933
0.221674874424934387 2.45948123931884766 -0.381995797157287598
0.26367563009262085 2.46305584907531738 -0.441075623035430908
0.304377883672714233 2.46384382247924805 -0.463647633790969849
0.331267803907394409 2.46923375129699707 -0.496386855840682983
0.32556489109992981 2.47719645500183105 -0.525471270084381104
0.33014369010925293 2.47771310806274414 -0.541642546653747559
0.316870927810668945 2.4663083553314209 -0.471023470163345337
0.218871861696243286 2.31586790084838867 -0.486680060625076294
0.328023254871368408 2.47376704216003418 -0.504741072654724121
0.19260038435459137 2.45570540428161621 -0.407494962215423584
0.309775471687316895 2.47068285942077637 -0.500924885272979736
0.268368184566497803 2.47031545639038086 -0.462015777826309204
0.32288011908531189 2.47380328178405762 -0.483936220407485962
0.30069771409034729 2.4669036865234375 -0.501385033130645752
0.343328982591629028 2.45630002021789551 -0.373158037662506104
0.330713063478469849 2.47210884094238281 -0.495903879404067993
0.314724564552307129 2.46575689315795898 -0.466745078563690186
0.325932443141937256 2.46556210517883301 -0.545378744602203369
0.316554754972457886 2.47760176658630371 -0.556342959403991699
0.318061262369155884 2.46526026725769043 -0.53536909818649292
0.310636520385742188 2.45484519004821777 -0.418215751647949219
0.308279991149902344 2.46869468688964844 -0.496888458728790283
0.319971472024917603 2.45675754547119141 -0.496949315071105957
0.0487860888242721558 2.54756069183349609 -0.522435367107391357
0.316478848457336426 2.47412443161010742 -0.501853108406066895
0.332816749811172485 2.47827553749084473 -0.524022042751312256
0.335196524858474731 2.47264647483825684 -0.519273102283477783
0.196812048554420471 2.44422459602355957 -0.446370422840118408
0.313974738121032715 2.45464539527893066 -0.446960210800170898
0.329550862312316895 2.47072696685791016 -0.496856331825256348
0.310793936252593994 2.46874737739562988 -0.491890609264373779
0.345943033695220947 2.47222232818603516 -0.499388575553894043
0.303331315517425537 2.47168874740600586 -0.532698154449462891
0.321664214134216309 2.46369171142578125 -0.529307246208190918
0.312824666500091553 2.45913434028625488 -0.508014082908630371
0.29786345362663269 2.46035909652709961 -0.41133415699005127
0.306619942188262939 2.46279501914978027 -0.412710130214691162
0.331561774015426636 2.4749608039855957 -0.507648944854736328
