ply
format ascii 1.0
element vertex 256
comment vertices
property float x
property float y
property float z
end_header
0.987363994121551514 3.21571207046508789 0.284948408603668213
-1.98209381103515625 7.20776748657226562 2.83329677581787109
-2.37795734405517578 4.25626850128173828 -0.625937104225158691
2.83263015747070312 6.3282017707824707 1.76514971256256104
-0.375430852174758911 0.651300489902496338 -0.325270712375640869
-0.891723990440368652 5.11480379104614258 0.98792564868927002
0.241096034646034241 3.45292806625366211 -0.664867222309112549
1.96835935115814209 2.43423342704772949 -0.806509852409362793
1.05047094821929932 4.31947851181030273 -0.468666881322860718
1.26803362369537354 4.3345947265625 2.05259180068969727
0.753629863262176514 6.10435914993286133 1.80341911315917969
-1.33588075637817383 4.73943233489990234 -0.763275861740112305
-2.50235939025878906 3.72908353805541992 0.567180156707763672
-2.27016043663024902 2.28376364707946777 -0.1737956702709198
0.281499594449996948 3.39862298965454102 -0.522517621517181396
2.07631111145019531 2.99100971221923828 -0.188136368989944458
-0.645566582679748535 6.20332527160644531 2.33560538291931152
1.86659955978393555 2.120574951171875 -0.408084869384765625
-1.7580721378326416 4.96843528747558594 1.82703220844268799
1.04492783546447754 6.90143346786499023 2.31502819061279297
0.271128684282302856 3.35560297966003418 -0.603471994400024414
-2.32449865341186523 4.07375907897949219 -0.691382169723510742
2.47293949127197266 2.9996488094329834 1.53496718406677246
-0.782495021820068359 3.82294273376464844 -0.297975450754165649
0.273765802383422852 1.91346001625061035 5.96037721633911133
-1.79746365547180176 1.10115480422973633 -0.623367130756378174
-4.01563405990600586 4.82066679000854492 -0.471749693155288696
0.107518814504146576 3.53701496124267578 -0.347455382347106934
-0.840025544166564941 5.22616910934448242 -0.253351390361785889
-2.02837181091308594 4.61896085739135742 -0.31678539514541626
-0.915706038475036621 6.8114161491394043 1.95472896099090576
0.24668961763381958 3.40525460243225098 -0.497501850128173828
0.272277116775512695 3.39438104629516602 -0.548994004726409912
-0.286931455135345459 4.69798183441162109 -0.340394973754882812
0.262959957122802734 3.38726711273193359 -0.576742947101593018
-0.694101095199584961 5.22221851348876953 -0.391767710447311401
-1.52893924713134766 4.63411378860473633 -0.766991078853607178
-0.716400623321533203 4.52800083160400391 0.870140373706817627
0.640100061893463135 6.02904462814331055 2.10952091217041016
0.54574131965637207 7.02077913284301758 1.68490445613861084
0.272547453641891479 3.3870091438293457 -0.536952495574951172
-1.5594482421875 4.08072185516357422 -0.192615285515785217
-1.11761760711669922 -0.23566436767578125 -0.481892287731170654
1.03903734683990479 1.71193850040435791 3.98867416381835938
2.66898536682128906 1.95983326435089111 -0.458545207977294922
-1.89722728729248047 4.49105548858642578 -0.765916407108306885
0.678789973258972168 3.79711174964904785 0.633246123790740967
0.995161533355712891 6.25669479370117188 2.12957644462585449
1.26883578300476074 6.85997772216796875 1.72465419769287109
2.08488106727600098 2.81323552131652832 -0.526088416576385498
-0.144651085138320923 6.14442157745361328 2.48525571823120117
0.273550748825073242 3.31626033782958984 -0.276182562112808228
-1.91830861568450928 2.16022777557373047 -0.749417781829833984
0.265249252319335938 3.40034675598144531 -0.597834348678588867
0.270665168762207031 3.4270479679107666 -0.567416787147521973
0.0413274914026260376 3.52385830879211426 -0.62801969051361084
0.548784852027893066 5.69252395629882812 2.32896780967712402
-0.681485116481781006 5.31483221054077148 -0.175618395209312439
-1.7339637279510498 3.24951696395874023 -0.653901576995849609
1.54040098190307617 3.51934194564819336 -0.343153774738311768
3.66492938995361328 -0.217882394790649414 -0.222984731197357178
-2.14860439300537109 6.43994855880737305 2.14329934120178223
0.264697015285491943 3.38720417022705078 -0.68357086181640625
-1.86757338047027588 4.53076791763305664 -0.288960039615631104
-1.44888877868652344 4.44472789764404297 -0.509740889072418213
2.10360097885131836 2.68480753898620605 -0.360904574394226074
0.263914316892623901 3.41165757179260254 -0.597544431686401367
0.267696261405944824 3.42501258850097656 -0.577927350997924805
1.52484941482543945 4.40738391876220703 0.406386673450469971
1.68227076530456543 5.70397424697875977 2.05993437767028809
-0.399938821792602539 6.18021106719970703 1.82242250442504883
-0.62831878662109375 5.34839153289794922 0.587516367435455322
0.580794572830200195 4.16951894760131836 1.3935856819152832
-0.831417560577392578 5.14372873306274414 0.0413682907819747925
-0.531032443046569824 0.786010682582855225 -0.577183306217193604
0.929789483547210693 3.01183390617370605 1.76463818550109863
0.242134109139442444 3.41833591461181641 -0.598031997680664062
0.637638688087463379 2.73805713653564453 -0.282672911882400513
-0.837512075901031494 2.35125827789306641 -0.267364799976348877
-0.750884413719177246 4.2531285285949707 -0.73814469575881958
0.269468307495117188 3.39772725105285645 -0.575845718383789062
0.275342345237731934 3.38823437690734863 -0.538672745227813721
0.276359319686889648 3.36537384986877441 -0.5200042724609375
0.664275288581848145 2.82931852340698242 0.818376064300537109
-0.796528637409210205 5.19886493682861328 -0.51571190357208252
-1.66030263900756836 4.52022790908813477 -0.674354672431945801
-1.70920455455780029 4.19550895690917969 -0.249629110097885132
-0.0666869282722473145 6.99971151351928711 1.47496128082275391
-0.413669288158416748 0.684396147727966309 -0.182538479566574097
0.293085664510726929 3.40547037124633789 -0.520000994205474854
-1.48685634136199951 4.49657487869262695 -0.675473153591156006
-2.02358365058898926 4.56439208984375 1.15699374675750732
-0.0676225349307060242 4.84667015075683594 -0.220931455492973328
-1.40558624267578125 4.76044464111328125 1.25552475452423096
1.80705869197845459 2.05176925659179688 -0.569402217864990234
-0.454145461320877075 5.25993108749389648 2.22248506546020508
3.2060234546661377 5.36251020431518555 1.60040915012359619
-1.68330502510070801 5.54727649688720703 2.10458564758300781
-1.23130810260772705 7.36939382553100586 2.23334121704101562
0.272770792245864868 3.39178681373596191 -0.540390968322753906
0.508907020092010498 1.80880236625671387 -0.61419832706451416
-1.80792021751403809 4.61098575592041016 -0.715695381164550781
0.246729254722595215 3.4380030632019043 -0.572793066501617432
-1.78206002712249756 4.52583408355712891 -0.734334051609039307
0.241114750504493713 3.40638995170593262 -0.609589993953704834
-1.11782419681549072 4.82400369644165039 -0.769636094570159912
2.78147363662719727 5.05637931823730469 1.90985167026519775
0.209961250424385071 3.17343235015869141 4.12808895111083984
0.262845814228057861 3.3906097412109375 -0.621498405933380127
-0.373037189245223999 5.50235843658447266 0.68952643871307373
0.204849138855934143 3.35775518417358398 -0.670038461685180664
-0.90982353687286377 5.26854276657104492 2.12826418876647949
1.62275528907775879 5.57358264923095703 2.06066322326660156
-2.11114096641540527 1.98043489456176758 -0.429870188236236572
0.262973994016647339 3.4007561206817627 -0.614917755126953125
0.269134700298309326 3.39548850059509277 -0.569271445274353027
0.27521282434463501 3.39136099815368652 -0.534820973873138428
0.62190091609954834 4.45737504959106445 0.921402573585510254
1.26515161991119385 3.35166525840759277 -0.611869215965270996
0.033030632883310318 6.1333918571472168 2.29993700981140137
1.6796034574508667 2.88117742538452148 0.85782545804977417
-2.9093475341796875 4.3241581916809082 -0.316885977983474731
1.67671942710876465 2.48332405090332031 -0.142084062099456787
-2.45318078994750977 3.36136960983276367 -0.014402240514755249
0.20680728554725647 3.47122788429260254 -0.690235614776611328
2.04342937469482422 2.79599881172180176 -0.525519967079162598
0.885039925575256348 5.14270782470703125 2.03208112716674805
0.290791302919387817 5.879669189453125 2.38686800003051758
1.09589719772338867 5.7279205322265625 2.2302854061126709
1.84456586837768555 5.21760940551757812 2.01569938659667969
-1.40997600555419922 4.61990594863891602 -0.727629125118255615
0.269744008779525757 3.39774465560913086 -0.557387709617614746
0.264910012483596802 3.39464521408081055 -0.604820430278778076
0.279491424560546875 3.4308168888092041 -0.566551268100738525
0.550923407077789307 6.19916343688964844 2.41652631759643555
-0.241856575012207031 2.72506475448608398 -0.540460169315338135
0.174024492502212524 3.26378464698791504 -0.732425510883331299
-0.453632622957229614 0.711208164691925049 -0.242116615176200867
-1.83496356010437012 4.49419689178466797 -0.361324906349182129
1.28210783004760742 5.86484479904174805 2.20885682106018066
0.970830798149108887 3.29645800590515137 0.53962552547454834
0.232451796531677246 3.32219862937927246 -0.420496523380279541
-1.1358180046081543 6.70700931549072266 2.09444665908813477
0.272392153739929199 3.41176533699035645 -0.665061473846435547
-0.913118183612823486 3.83865785598754883 -0.677051126956939697
0.557730138301849365 3.31626582145690918 2.33202505111694336
-1.56509923934936523 2.97679781913757324 -0.702718913555145264
0.264272391796112061 3.35042500495910645 -0.588895738124847412
-0.864315390586853027 0.407474517822265625 -0.484036624431610107
0.15761074423789978 6.43673896789550781 2.22147130966186523
0.96070021390914917 4.29837751388549805 0.78867805004119873
-0.786525189876556396 5.28758335113525391 -0.00394896417856216431
0.266794413328170776 3.34274578094482422 -0.678383231163024902
0.23840726912021637 3.29844951629638672 -0.590092837810516357
-1.49071812629699707 6.90111923217773438 2.0330197811126709
1.51689958572387695 3.36914277076721191 -0.531731128692626953
-1.77339744567871094 2.85349607467651367 -0.498720109462738037
0.267540305852890015 3.4238739013671875 -0.582296252250671387
0.229204669594764709 3.43738341331481934 -0.30021589994430542
-0.793061375617980957 0.129354715347290039 -0.727446973323822021
0.272052377462387085 3.39678263664245605 -0.561481595039367676
-0.746968865394592285 5.26338672637939453 -0.193891897797584534
-0.350680053234100342 6.53799009323120117 2.4819490909576416
-1.81072151660919189 4.52078390121459961 -0.180129930377006531
0.290651023387908936 3.3991541862487793 -0.309224963188171387
-1.15977334976196289 5.16618776321411133 -0.382003933191299438
0.277069568634033203 3.39820051193237305 -0.536009013652801514
0.11266753077507019 6.56014347076416016 2.13713455200195312
1.32063758373260498 2.87269997596740723 -0.28585362434387207
0.421587228775024414 6.35349369049072266 2.5323486328125
0.276771247386932373 3.39170718193054199 -0.532104015350341797
0.258875578641891479 3.36969113349914551 -0.533874690532684326
0.27523040771484375 3.39291763305664062 -0.539625883102416992
-0.970995604991912842 5.20923376083374023 0.391505241394042969
-2.53260564804077148 5.45817375183105469 1.92838919162750244
2.10670256614685059 2.66577053070068359 -0.505780994892120361
1.02807426452636719 5.68475103378295898 2.3304600715637207
0.265929758548736572 3.37982082366943359 -0.515315055847167969
1.85915231704711914 2.15896105766296387 -0.498328208923339844
-2.04393792152404785 3.67997646331787109 -0.0332365036010742188
1.7354278564453125 3.84431767463684082 1.91584277153015137
0.271801292896270752 3.39450907707214355 -0.550043344497680664
-0.808739244937896729 5.24856281280517578 -0.317890942096710205
0.276769459247589111 3.40052008628845215 -0.620728194713592529
-1.11544597148895264 3.90951061248779297 -0.661838352680206299
-1.93267357349395752 4.46828889846801758 -0.704124689102172852
-0.466582357883453369 3.68151974678039551 -0.22767309844493866
-0.1909140944480896 4.76767969131469727 -0.227544829249382019
2.04892587661743164 2.65461111068725586 0.588388919830322266
1.67942976951599121 1.55549287796020508 -0.767477989196777344
1.25731074810028076 3.90151596069335938 0.24890899658203125
0.267291933298110962 3.41125655174255371 -0.58980947732925415
-0.362188011407852173 4.93432474136352539 2.21603012084960938
-0.53770911693572998 5.01215028762817383 -0.210345447063446045
2.01304364204406738 2.17118215560913086 -0.222237259149551392
1.81262862682342529 2.57553243637084961 0.0247901976108551025
0.237546801567077637 3.20791888236999512 -0.715420365333557129
-1.48011398315429688 4.53877687454223633 -0.687003195285797119
-0.669147014617919922 5.19908761978149414 -0.191155046224594116
1.16391396522521973 3.22289204597473145 0.199797868728637695
-1.50178956985473633 4.58227920532226562 -0.709175050258636475
-1.85504436492919922 6.62984848022460938 1.82507848739624023
0.244737714529037476 3.43847131729125977 -0.636856734752655029
1.52451622486114502 4.36482954025268555 0.748082518577575684
0.280629336833953857 3.39604902267456055 -0.534124553203582764
-1.69303345680236816 4.47398138046264648 -0.667069971561431885
-2.00825071334838867 2.5090031623840332 -0.694593906402587891
-1.75189971923828125 4.5202336311340332 1.03653264045715332
-0.867152810096740723 4.9660954475402832 -0.517442524433135986
0.433376580476760864 3.31687164306640625 -0.594930410385131836
-1.4437636137008667 4.60191154479980469 -0.730391383171081543
-0.904408037662506104 5.25858688354492188 0.59333038330078125
-2.73354673385620117 3.50177860260009766 -0.660112977027893066
0.322169780731201172 3.10728645324707031 3.94765663146972656
1.85650849342346191 4.85461139678955078 1.88490700721740723
-0.640443742275238037 5.27750253677368164 0.0295453965663909912
0.254575759172439575 3.42218422889709473 -0.547873616218566895
0.539685428142547607 3.65170145034790039 0.613459169864654541
0.275421828031539917 3.42171335220336914 -0.552261114120483398
0.268983304500579834 3.4259183406829834 -0.557271599769592285
0.891794860363006592 2.48097491264343262 3.70640230178833008
-1.48034298419952393 4.59545469284057617 -0.731509089469909668
1.24426472187042236 3.82652568817138672 0.367458611726760864
-1.58666729927062988 0.80296635627746582 -0.715172648429870605
0.27723124623298645 3.39126992225646973 -0.524204432964324951
0.267587482929229736 3.39240336418151855 -0.586740970611572266
2.60529041290283203 2.27727627754211426 0.0139837265014648438
1.14690935611724854 4.24584293365478516 0.324394345283508301
-1.46613514423370361 4.35958671569824219 -0.684973180294036865
0.264001548290252686 3.40176892280578613 -0.62117314338684082
-0.379011660814285278 5.60140848159790039 0.964369773864746094
0.148875787854194641 5.47725343704223633 2.14500904083251953
-1.60625410079956055 1.99449372291564941 -0.497718185186386108
0.278823673725128174 3.39681196212768555 -0.523218154907226562
0.273885965347290039 3.39137101173400879 -0.596378684043884277
-0.628087639808654785 0.667484581470489502 -0.0531513281166553497
0.203992068767547607 4.29085016250610352 -0.260502517223358154
0.653166055679321289 3.11360502243041992 -0.122350633144378662
0.267742156982421875 3.39657020568847656 -0.567600071430206299
-0.913191854953765869 3.60557699203491211 -0.12162250280380249
0.0811360403895378113 4.88785314559936523 -0.257434695959091187
-0.260551542043685913 3.30780935287475586 -0.456703245639801025
-0.626717209815979004 6.0645298957824707 2.35046935081481934
0.184969902038574219 3.40053224563598633 -0.085505068302154541
-0.366959869861602783 0.693193197250366211 -0.209499865770339966
0.264690995216369629 3.38481020927429199 -0.600238263607025146
-1.09926438331604004 5.77266836166381836 1.53228700160980225
1.41803669929504395 4.15824985504150391 1.88781952857971191
0.266625344753265381 3.43795275688171387 -0.60641402006149292
-0.700671255588531494 6.3281092643737793 2.27585911750793457
-0.504515945911407471 4.72121334075927734 1.65305900573730469
-0.175786346197128296 7.17806148529052734 2.09309577941894531
-1.33737421035766602 3.30290460586547852 0.292499005794525146
0.565737783908843994 6.31784725189208984 2.39665532112121582
-0.952075660228729248 4.8295292854309082 0.101124659180641174
0.631040692329406738 4.10463762283325195 1.44482827186584473
