ply
format ascii 1.0
element vertex 256
comment vertices
property float x
property float y
property float z
end_header
-0.381653308868408203 2.46274709701538086 -0.649284660816192627
-1.56893396377563477 6.40615272521972656 4.50202608108520508
3.23307228088378906 6.63424491882324219 0.764187514781951904
-2.46509122848510742 3.54710721969604492 -0.350955486297607422
2.31371617317199707 2.06244993209838867 0.359301507472991943
-0.33008769154548645 3.5134577751159668 0.719367563724517822
2.7694242000579834 4.90386581420898438 -0.290222704410552979
-0.588363289833068848 2.41626405715942383 -0.721922874450683594
1.92973995208740234 6.29181098937988281 1.49555563926696777
2.07890844345092773 2.80933189392089844 -0.645897328853607178
-0.678991377353668213 2.61681723594665527 -0.596628665924072266
-0.0282863080501556396 2.30724000930786133 -0.372753024101257324
-0.212993144989013672 2.97488546371459961 0.0445126593112945557
0.760848045349121094 6.94371509552001953 1.82002079486846924
-0.492079079151153564 2.34776568412780762 -0.716756463050842285
1.43321526050567627 2.68380308151245117 -0.92128455638885498
-0.745264172554016113 2.69150209426879883 -0.120682060718536377
1.70705413818359375 6.96570491790771484 0.777335047721862793
-2.05541396141052246 3.73024511337280273 -0.73144841194152832
2.77684950828552246 6.03485298156738281 1.62296843528747559
-0.589841902256011963 2.54189634323120117 -0.69277036190032959
1.55839884281158447 3.12189698219299316 -0.331398427486419678
-0.563256263732910156 2.56767606735229492 -0.65941619873046875
-0.39103013277053833 2.72354269027709961 -0.734418809413909912
-2.28520631790161133 3.53820395469665527 -0.0793924927711486816
1.46938884258270264 2.87591981887817383 -0.812684535980224609
2.00110459327697754 2.88821721076965332 -0.492491662502288818
-0.40040963888168335 2.36325645446777344 -0.704258382320404053
-0.730916798114776611 2.56917715072631836 -0.719238758087158203
-0.415351510047912598 2.36712074279785156 -0.766261100769042969
1.25155949592590332 2.67309927940368652 0.658653199672698975
2.28243470191955566 4.50726509094238281 0.0883950591087341309
-0.553924679756164551 2.54885244369506836 -0.123639464378356934
-1.00451850891113281 2.66914653778076172 -0.485540330410003662
1.27765440940856934 2.82738232612609863 -0.384408473968505859
-0.444178342819213867 2.43149065971374512 -0.69709169864654541
-0.75136876106262207 3.16911959648132324 0.42780148983001709
1.77614641189575195 2.78755807876586914 -0.887520313262939453
-0.447312235832214355 3.30545163154602051 1.93378698825836182
-2.04853630065917969 3.49143052101135254 0.28931504487991333
-2.20722341537475586 3.63947725296020508 -0.720088720321655273
1.45507001876831055 3.19493865966796875 0.233665615320205688
-0.414924263954162598 2.90453052520751953 0.233146429061889648
-0.631130516529083252 2.63663816452026367 -0.634144127368927002
-1.90937113761901855 3.55759334564208984 -0.194453120231628418
1.25220263004302979 2.97747993469238281 -0.893618941307067871
-0.452276676893234253 2.47439050674438477 -0.558822274208068848
1.86809635162353516 3.08814692497253418 0.23961639404296875
1.55221068859100342 2.98450946807861328 -0.606938362121582031
-0.499737441539764404 2.52161026000976562 -0.662373125553131104
-0.370540916919708252 6.94065046310424805 2.20475482940673828
-0.410360783338546753 2.39975595474243164 -0.563708364963531494
2.4964897632598877 6.59131002426147461 0.507710874080657959
1.87344026565551758 6.29236936569213867 2.28111791610717773
-0.595691859722137451 2.51719856262207031 -0.762556612491607666
1.70138323307037354 2.95773482322692871 -0.848511755466461182
-0.407728612422943115 2.72517609596252441 -0.690454363822937012
-0.426162123680114746 2.37358617782592773 -0.699377238750457764
-0.603995025157928467 2.62326240539550781 -0.31235852837562561
1.52345943450927734 6.49364280700683594 2.07254862785339355
2.02593851089477539 3.00826835632324219 -0.307675540447235107
2.40757274627685547 3.01172447204589844 -0.311952948570251465
-2.2434077262878418 3.69797158241271973 -0.477373659610748291
-1.85945034027099609 3.68525123596191406 -0.869409680366516113
-0.704118192195892334 2.58213210105895996 -0.693070948123931885
-0.474577516317367554 2.44758105278015137 -0.699103236198425293
0.692556023597717285 3.3943789005279541 0.911848127841949463
-0.604751169681549072 3.87638020515441895 0.77214360237121582
0.860944569110870361 2.401397705078125 -0.758784890174865723
-1.89424228668212891 3.34181427955627441 -0.457538872957229614
-0.461366742849349976 2.48413324356079102 -0.622702836990356445
1.22232627868652344 3.01004624366760254 -0.861067295074462891
1.5551600456237793 2.83523416519165039 -0.547986805438995361
-0.728495419025421143 2.55416297912597656 -0.637186884880065918
-0.69579237699508667 2.42371654510498047 -0.47217559814453125
1.38105487823486328 2.96290445327758789 -0.930871486663818359
0.052489936351776123 2.64562511444091797 -0.848702967166900635
-0.320474386215209961 2.8515770435333252 -0.381701618432998657
-0.685360908508300781 2.42017459869384766 -0.65816962718963623
2.54596734046936035 4.92413330078125 -0.377429157495498657
-0.525745093822479248 2.39500308036804199 -0.712613105773925781
-0.40379631519317627 2.34839868545532227 -0.700850188732147217
-0.686659932136535645 2.50977683067321777 -0.730941653251647949
-1.3753349781036377 3.93672800064086914 0.832692801952362061
-0.684108257293701172 2.51993370056152344 -0.233579963445663452
1.48736000061035156 3.09807920455932617 0.960917890071868896
-0.397720992565155029 2.22478032112121582 -0.751958370208740234
-0.677715659141540527 2.51196479797363281 -0.481695234775543213
-0.325821787118911743 3.71781706809997559 0.314283430576324463
-0.742517828941345215 2.6114964485168457 -0.27678382396697998
-2.08515048027038574 3.75374698638916016 0.420661598443984985
-1.25814712047576904 2.87902522087097168 -0.591761231422424316
1.71329271793365479 3.10011696815490723 -0.306570649147033691
-0.496611118316650391 2.50214338302612305 -0.263006836175918579
1.55266308784484863 3.02374839782714844 -0.784204542636871338
1.68937945365905762 2.87507200241088867 -0.956404566764831543
0.150048434734344482 3.25082039833068848 0.735468685626983643
-0.627655863761901855 2.5900576114654541 -0.696145772933959961
1.16795825958251953 3.27190732955932617 0.629134654998779297
1.14171361923217773 2.69106936454772949 -0.889652073383331299
1.68398416042327881 2.94734859466552734 -0.777021586894989014
-2.250885009765625 3.73646807670593262 -0.158780306577682495
1.21628797054290771 3.03681659698486328 -0.917114019393920898
-0.493566602468490601 2.55892348289489746 -0.590154290199279785
-0.387186825275421143 2.51654481887817383 -0.631345808506011963
-1.7721484899520874 4.0637059211730957 0.144766271114349365
-0.512216567993164062 2.49317407608032227 -0.754506468772888184
-0.433400571346282959 2.49463462829589844 -0.786708354949951172
-0.5296974778175354 2.44942140579223633 -0.652318775653839111
1.91355419158935547 3.13425445556640625 0.639250338077545166
-0.570486783981323242 2.67350435256958008 -0.0260381102561950684
1.95414018630981445 2.82716202735900879 -0.829075276851654053
1.06035852432250977 2.9380345344543457 -0.736971020698547363
1.55073952674865723 3.16455650329589844 -0.141274064779281616
1.53118634223937988 2.96845388412475586 -0.784498512744903564
2.91039180755615234 5.08411979675292969 0.158363714814186096
2.18519830703735352 2.99542427062988281 -0.568312287330627441
2.46365904808044434 7.24196958541870117 0.739524602890014648
-0.584118962287902832 2.57666683197021484 -0.73002159595489502
-0.724369406700134277 2.54366779327392578 -0.642775774002075195
-0.710845947265625 2.63530850410461426 -0.608060121536254883
-0.510645627975463867 2.36332535743713379 -0.729272544384002686
1.33495032787322998 3.07503390312194824 -0.524884819984436035
-0.387266665697097778 3.24960613250732422 0.337206035852432251
-0.412051469087600708 2.43498945236206055 -0.613366365432739258
-0.663628220558166504 3.56248593330383301 0.488761305809020996
1.2581939697265625 3.12190771102905273 0.0320197045803070068
-0.387506097555160522 2.4069061279296875 -0.728823721408843994
1.29995393753051758 2.98412370681762695 -0.86456531286239624
-0.502626955509185791 2.45367693901062012 -0.677765786647796631
-0.577813267707824707 2.47991371154785156 -0.719530582427978516
1.44470846652984619 2.99281740188598633 -0.458487540483474731
-0.42662888765335083 2.41333770751953125 -0.639412462711334229
0.260987311601638794 3.51396965980529785 0.952656388282775879
-0.399372398853302002 2.84641647338867188 -0.607221841812133789
-0.811239719390869141 6.66917133331298828 2.40782546997070312
1.82047343254089355 3.33982229232788086 -0.0414768457412719727
-0.616139590740203857 2.41012835502624512 -0.721688747406005859
-0.366504460573196411 2.91011452674865723 -0.155295968055725098
1.42446327209472656 2.66965699195861816 -0.560243725776672363
-0.466860115528106689 2.48654270172119141 -0.745788931846618652
-0.433464556932449341 2.43946528434753418 -0.690139710903167725
-0.307350218296051025 2.35095071792602539 -0.797248721122741699
-0.613348543643951416 2.83386564254760742 -0.218638420104980469
-1.82818841934204102 3.69902396202087402 -0.699540019035339355
-0.732211947441101074 2.55367755889892578 -0.625871658325195312
1.71873807907104492 2.94381499290466309 -0.77055966854095459
-1.44645929336547852 2.86784982681274414 -0.415867924690246582
1.11692273616790771 3.31846022605895996 0.67834627628326416
1.76552450656890869 2.8987734317779541 -0.930743277072906494
1.25824999809265137 2.99429965019226074 -0.89272385835647583
1.6179584264755249 2.88523197174072266 -0.912870883941650391
-0.424465447664260864 2.39705228805541992 -0.707805037498474121
-0.604646205902099609 2.61933207511901855 -0.725930094718933105
1.02384436130523682 3.28900861740112305 0.316045939922332764
1.13356733322143555 2.83656716346740723 -0.453243613243103027
1.73695707321166992 3.01361846923828125 -0.492200970649719238
1.46877193450927734 3.20227622985839844 -0.157380044460296631
-0.989185452461242676 3.83073782920837402 0.796022891998291016
2.11122846603393555 3.17234158515930176 -0.438044220209121704
-0.504165530204772949 2.48323655128479004 -0.754583597183227539
2.4845728874206543 4.49089288711547852 0.0523412823677062988
-0.54668581485748291 2.44962763786315918 -0.688827991485595703
1.98097503185272217 2.97693014144897461 -0.280382692813873291
1.18575811386108398 3.00666594505310059 -0.983456432819366455
-0.779942512512207031 2.96017670631408691 0.0376999080181121826
-0.87931358814239502 2.58281421661376953 -0.602283120155334473
1.33596372604370117 2.79681968688964844 -0.413460075855255127
0.690590143203735352 2.81693291664123535 -0.771628916263580322
1.23641490936279297 3.04713869094848633 -0.822595894336700439
0.343389838933944702 6.84823083877563477 1.79414331912994385
-0.585432946681976318 2.61193728446960449 -0.655233860015869141
-2.0744481086730957 3.51965427398681641 -0.325582683086395264
-0.581951737403869629 2.73632574081420898 -0.0675120949745178223
-0.509552657604217529 2.38827037811279297 -0.704749882221221924
-0.62166297435760498 2.55284023284912109 -0.666280388832092285
-0.482740014791488647 2.39578962326049805 -0.661549150943756104
-0.607701659202575684 2.58882308006286621 -0.695462346076965332
-0.760619521141052246 2.57622098922729492 -0.299711138010025024
-2.23842263221740723 3.68163394927978516 -0.519421219825744629
-1.2266085147857666 3.40370488166809082 0.316118538379669189
-0.393335342407226562 2.47496485710144043 -0.672622859477996826
-0.444152176380157471 2.46362924575805664 -0.657407701015472412
1.45842158794403076 3.01219415664672852 -0.47166973352432251
-2.23989200592041016 3.50314569473266602 -0.108753114938735962
-0.556022286415100098 2.54016470909118652 -0.64753413200378418
1.08233201503753662 2.68157148361206055 -0.823801994323730469
-0.422034382820129395 2.50399994850158691 -0.594059228897094727
-0.486867249011993408 2.3650970458984375 -0.734560608863830566
-1.28009903430938721 3.29000639915466309 3.04093122482299805
0.869902074337005615 3.30814647674560547 0.922681272029876709
-0.0659029185771942139 3.5188133716583252 0.461350470781326294
-0.652872025966644287 2.52693891525268555 -0.239516228437423706
-0.333013713359832764 2.34421181678771973 -0.754204869270324707
1.24616420269012451 2.95731353759765625 -0.448749333620071411
-0.774007797241210938 2.69608211517333984 -0.59012073278427124
-0.347723484039306641 2.56747007369995117 -0.521612405776977539
-0.331778585910797119 2.68115019798278809 -0.744418799877166748
1.82587194442749023 2.85064005851745605 -0.923945009708404541
-0.548904895782470703 3.8345792293548584 0.913514912128448486
-0.605344057083129883 2.42730212211608887 -0.693933963775634766
-0.523211836814880371 2.54067015647888184 -0.651210010051727295
0.723471879959106445 2.98517847061157227 0.658810019493103027
-1.95027649402618408 3.88590359687805176 0.415089190006256104
2.65051627159118652 5.07699394226074219 0.0157091319561004639
-1.17100346088409424 3.74878382682800293 0.323768675327301025
-0.799679815769195557 2.793212890625 -0.16772085428237915
-0.725198030471801758 2.5645296573638916 -0.58444523811340332
-1.67587137222290039 3.80067563056945801 0.886219143867492676
1.3226398229598999 3.1761627197265625 0.601749122142791748
-0.550784111022949219 2.40869522094726562 -0.693511486053466797
-0.403355598449707031 2.40544033050537109 -0.713854610919952393
-1.47137391567230225 2.84034395217895508 -0.460287928581237793
-2.23739433288574219 3.88748049736022949 0.144012421369552612
1.32911419868469238 2.93114876747131348 -0.829450607299804688
1.76353991031646729 2.93189525604248047 -0.880711913108825684
-0.69781339168548584 2.47957730293273926 -0.70635986328125
-0.468111276626586914 2.48893094062805176 -0.602825284004211426
1.24731910228729248 3.00473928451538086 -0.902758121490478516
-0.414370179176330566 2.43844032287597656 -0.566262543201446533
1.65968036651611328 2.98942112922668457 -0.446611732244491577
1.5868295431137085 3.0626218318939209 0.820600032806396484
1.65508472919464111 3.16634202003479004 -0.256090134382247925
-0.758575677871704102 2.48797774314880371 -0.772745609283447266
-0.478535950183868408 3.56634521484375 0.200127959251403809
1.1686784029006958 3.17325091361999512 0.876651883125305176
-1.8945612907409668 3.38896989822387695 -0.605387508869171143
-0.684027552604675293 2.4758458137512207 -0.49052467942237854
-0.555542111396789551 2.57819700241088867 -0.214390277862548828
1.56934082508087158 3.03746247291564941 -0.600177288055419922
1.44073832035064697 2.91806578636169434 -0.899628996849060059
-0.47661176323890686 2.47844767570495605 -0.574736714363098145
1.74320697784423828 2.91835165023803711 -0.747177720069885254
2.12226605415344238 3.10536313056945801 0.555991709232330322
-0.656329512596130371 2.52730441093444824 -0.618948996067047119
2.56519103050231934 5.1158905029296875 -0.0661536604166030884
1.64938032627105713 6.57084941864013672 2.25864100456237793
1.39322018623352051 2.93915247917175293 -0.880586802959442139
-0.75919651985168457 2.5296173095703125 -0.374754518270492554
-0.658156394958496094 2.57642412185668945 -0.648712754249572754
-0.589140117168426514 2.40432548522949219 -0.695435643196105957
-0.425035357475280762 2.39011812210083008 -0.707758128643035889
-2.16147518157958984 3.78110027313232422 -0.531968116760253906
-1.73310470581054688 3.99495840072631836 0.681431412696838379
-0.429548054933547974 2.42492198944091797 -0.671893715858459473
-1.9276357889175415 3.80894374847412109 0.0880218148231506348
1.46564292907714844 2.96874904632568359 -0.779658675193786621
-1.52034664154052734 4.0602569580078125 0.217608779668807983
2.79327058792114258 7.27157974243164062 0.763149440288543701
-0.615232467651367188 2.51614141464233398 -0.236721783876419067
-0.719001531600952148 3.08739256858825684 0.0816035568714141846
1.68843221664428711 2.88248205184936523 -0.570044159889221191
-2.34624195098876953 3.72369861602783203 -0.228706389665603638
-0.580830514430999756 2.57091569900512695 -0.626916706562042236
-0.5194968581199646 3.52280831336975098 1.57267475128173828
-0.858555436134338379 3.67270112037658691 1.02394950389862061
