ply
format ascii 1.0
element vertex 102
comment vertices
property float x
property float y
property float z
end_header
0.932722806930541992 3.49640202522277832 -0.751304745674133301
0.928607821464538574 3.3995814323425293 -0.702502965927124023
0.893261492252349854 3.41541767120361328 -0.582785964012145996
0.923401534557342529 3.43766641616821289 -0.60223764181137085
-0.932829558849334717 3.64289164543151855 -0.655786693096160889
1.16316413879394531 3.40922069549560547 -0.405591785907745361
0.932287156581878662 3.40534496307373047 -0.557685971260070801
-0.826729178428649902 3.66631889343261719 -0.689173996448516846
1.02043807506561279 3.46614718437194824 -0.630561351776123047
0.90325462818145752 3.42515730857849121 -0.594577670097351074
0.866020083427429199 3.38489460945129395 -0.694168925285339355
0.869039237499237061 3.39184665679931641 -0.685312271118164062
0.901315271854400635 3.42080998420715332 -0.585474193096160889
1.79928827285766602 4.60850667953491211 -0.669074535369873047
-1.01240241527557373 3.62154769897460938 -0.664457321166992188
-0.977289080619812012 3.64742588996887207 -0.499260306358337402
-0.924658000469207764 3.66038131713867188 -0.660502731800079346
1.04511857032775879 3.42225384712219238 -0.357381820678710938
0.905174612998962402 3.38948893547058105 -0.601209521293640137
0.920898258686065674 3.43826913833618164 -0.6144065260887146
0.936621308326721191 3.43544840812683105 -0.595581889152526855
-0.806886613368988037 3.71530652046203613 -0.667606711387634277
0.925654828548431396 3.44063687324523926 -0.629351794719696045
0.982218146324157715 3.40305113792419434 -0.405246734619140625
-1.02882170677185059 3.5946495532989502 -0.662610292434692383
0.910764336585998535 3.4278714656829834 -0.635443150997161865
0.922508060932159424 3.42545080184936523 -0.55074697732925415
1.82403039932250977 4.55313253402709961 -0.827823281288146973
0.968640804290771484 3.41950798034667969 -0.521762847900390625
0.909817278385162354 3.42614054679870605 -0.598126769065856934
0.913857221603393555 3.40886139869689941 -0.582544207572937012
0.926522970199584961 3.41918611526489258 -0.616815745830535889
0.912021279335021973 3.43134856224060059 -0.620372533798217773
0.902076840400695801 3.42619562149047852 -0.59160161018371582
0.884181737899780273 3.42507243156433105 -0.677537381649017334
1.91249263286590576 4.60441207885742188 -0.738177061080932617
0.928634881973266602 3.41234230995178223 -0.565943121910095215
0.934615433216094971 3.40568304061889648 -0.709567904472351074
0.911419928073883057 3.43128204345703125 -0.601034343242645264
-1.0869516134262085 3.59584331512451172 -0.667393505573272705
0.889854669570922852 3.38888120651245117 -0.606303751468658447
0.901397049427032471 3.42605257034301758 -0.59807741641998291
0.948306679725646973 3.42934560775756836 -0.658012747764587402
0.936105430126190186 3.43539667129516602 -0.598361730575561523
-0.994021236896514893 3.60961389541625977 -0.680893361568450928
-1.020591139793396 3.60737013816833496 -0.682498931884765625
-0.959232687950134277 3.63287138938903809 -0.651923060417175293
0.896719574928283691 3.4228515625 -0.590723276138305664
0.877340018749237061 3.4002983570098877 -0.618842720985412598
0.928678452968597412 3.43035888671875 -0.543202519416809082
0.904214560985565186 3.42661118507385254 -0.599247753620147705
-0.823933720588684082 3.71065640449523926 -0.662601172924041748
-0.834389328956604004 3.6549839973449707 -0.704751253128051758
-1.02004706859588623 3.61710596084594727 -0.660220980644226074
-0.791927099227905273 3.57486653327941895 -0.585610270500183105
-1.04087257385253906 3.60231328010559082 -0.66770094633102417
0.885867536067962646 3.42584443092346191 -0.561136722564697266
-0.932906746864318848 3.64376688003540039 -0.65534895658493042
0.953966379165649414 3.41611552238464355 -0.583849489688873291
0.918580412864685059 3.43627333641052246 -0.571538090705871582
1.78726673126220703 4.62856101989746094 -0.823307812213897705
0.946737945079803467 3.43192338943481445 -0.587695837020874023
-0.935547471046447754 3.64226508140563965 -0.658995509147644043
-0.928859114646911621 3.67118954658508301 -0.659435033798217773
0.88308030366897583 3.41646265983581543 -0.59972536563873291
0.88334357738494873 3.4245297908782959 -0.677182495594024658
0.906757831573486328 3.42092561721801758 -0.69449317455291748
0.902856528759002686 3.42554211616516113 -0.592480182647705078
-0.985125601291656494 3.62387824058532715 -0.64702528715133667
0.896688640117645264 3.42608952522277832 -0.594195961952209473
-0.785775244235992432 3.72504401206970215 -0.692028820514678955
0.918120086193084717 3.43759727478027344 -0.61898726224899292
0.906940996646881104 3.4267120361328125 -0.625263869762420654
0.906396448612213135 3.41894960403442383 -0.679342210292816162
0.922273337841033936 3.43838953971862793 -0.614095091819763184
0.915866672992706299 3.43243241310119629 -0.618063509464263916
0.90666121244430542 3.41981315612792969 -0.687780618667602539
-0.984235703945159912 3.63956141471862793 -0.6008186936378479
0.88206106424331665 3.40690445899963379 -0.655204534530639648
1.04024553298950195 3.45123791694641113 -0.361537635326385498
0.903024017810821533 3.4127960205078125 -0.603252887725830078
0.909002423286437988 3.43434667587280273 -0.636385083198547363
0.80117720365524292 3.3793942928314209 -0.440743982791900635
-0.941529631614685059 3.63880729675292969 -0.652650237083435059
-1.02624297142028809 3.6109316349029541 -0.660629093647003174
0.924847126007080078 3.41791415214538574 -0.566601037979125977
0.931953012943267822 3.4386904239654541 -0.608456075191497803
0.94315636157989502 3.43327069282531738 -0.597101449966430664
0.895607352256774902 3.37418556213378906 -0.432084619998931885
-1.01790940761566162 3.63983297348022461 -0.636381685733795166
-0.96935582160949707 3.67730808258056641 -0.539101123809814453
0.913383185863494873 3.43179464340209961 -0.576104640960693359
0.892655253410339355 3.41948175430297852 -0.569463551044464111
0.982350289821624756 3.45481348037719727 -0.569483518600463867
0.893816888332366943 3.42542719841003418 -0.585746407508850098
-1.10552000999450684 3.60992932319641113 -0.62288665771484375
0.903090238571166992 3.42504239082336426 -0.589110732078552246
0.922600746154785156 3.43393874168395996 -0.58056640625
0.814142227172851562 3.31666731834411621 -0.623231887817382812
-0.812912106513977051 3.68319797515869141 -0.679758071899414062
1.7725297212600708 4.51430225372314453 -0.787901163101196289
0.95102083683013916 3.4231562614440918 -0.504513680934906006
