ply
format ascii 1.0
element vertex 256
comment vertices
property float x
property float y
property float z
end_header
0.118333905935287476 2.53311347961425781 -0.324738860130310059
1.26996195316314697 6.10158538818359375 3.65115189552307129
2.25201821327209473 3.52039027214050293 -0.802391886711120605
-0.119832530617713928 1.1327584981918335 -0.723857462406158447
2.57891654968261719 2.6765134334564209 0.552017629146575928
-1.63970804214477539 2.80700349807739258 -0.474155724048614502
-2.63709497451782227 3.12280893325805664 0.60616147518157959
0.33506542444229126 2.50839924812316895 -0.49984857439994812
-0.355306506156921387 2.52297353744506836 -0.521386265754699707
1.64374947547912598 3.4013218879699707 -0.548251569271087646
0.608626365661621094 3.02031826972961426 0.522607743740081787
-1.36330604553222656 3.34735321998596191 -0.427264988422393799
-0.9671630859375 3.13334202766418457 0.776710093021392822
0.220995187759399414 2.53422427177429199 -0.431834787130355835
-0.0187080502510070801 2.57327389717102051 -0.590239405632019043
0.333975821733474731 2.44044852256774902 -0.517282009124755859
0.378284096717834473 2.56021356582641602 -0.55174565315246582
2.61838698387145996 3.48338174819946289 -0.290179073810577393
0.325336307287216187 2.53257656097412109 -0.322076261043548584
-1.42645430564880371 3.10917139053344727 -0.293555259704589844
-1.1352989673614502 2.82892560958862305 -0.519563436508178711
0.236839085817337036 2.45060205459594727 -0.453917205333709717
-1.08172166347503662 3.08520793914794922 -0.173448830842971802
1.45633316040039062 3.38786602020263672 0.151740968227386475
0.0378170907497406006 3.4591829776763916 0.770009517669677734
1.98802506923675537 3.21881866455078125 -0.660849928855895996
0.0482307970523834229 2.55981183052062988 -0.553525567054748535
1.04173374176025391 3.1290595531463623 -0.647790372371673584
0.222947686910629272 2.54077911376953125 -0.490751534700393677
-1.21511554718017578 2.78548479080200195 -0.339824169874191284
0.262999504804611206 2.51311326026916504 -0.512726306915283203
-1.78882026672363281 2.25402712821960449 -0.63739776611328125
-1.47410285472869873 3.41965389251708984 0.92099463939666748
-0.3386726975440979 2.69901847839355469 -0.390043646097183228
1.7003103494644165 2.8951420783996582 0.65484851598739624
-1.24089741706848145 3.2949988842010498 -0.398136436939239502
0.265246987342834473 2.47731828689575195 -0.575273096561431885
0.340088337659835815 2.50348997116088867 -0.465406507253646851
0.432866692543029785 2.58646392822265625 -0.5334511399269104
-1.70162069797515869 2.28185534477233887 -0.620473504066467285
0.342601954936981201 2.56515693664550781 -0.38209831714630127
1.647186279296875 3.48231101036071777 -0.291648924350738525
-0.949193894863128662 3.24060368537902832 -0.34991753101348877
0.272274523973464966 2.49894094467163086 -0.453989982604980469
2.3764491081237793 3.52000284194946289 0.325647145509719849
-0.0572506189346313477 3.31053781509399414 0.091579139232635498
0.893943667411804199 3.62123608589172363 0.680399060249328613
0.401976495981216431 2.58506441116333008 -0.277634739875793457
1.61184704303741455 3.36409807205200195 -0.34458807110786438
-1.3065866231918335 2.93005871772766113 -0.622916221618652344
0.383899033069610596 2.52286100387573242 -0.528225898742675781
0.174033313989639282 2.52095985412597656 -0.438951075077056885
2.19748878479003906 3.80888533592224121 -0.697516560554504395
0.334541022777557373 2.53389120101928711 -0.516254246234893799
-1.96170759201049805 1.88717246055603027 -0.598307013511657715
-2.52277851104736328 3.57745647430419922 0.0489138960838317871
-0.295409739017486572 2.5698692798614502 -0.585810244083404541
0.209909379482269287 2.53197050094604492 -0.431438922882080078
-0.174232631921768188 3.17872452735900879 0.63734745979309082
0.377210259437561035 3.39516115188598633 0.707804381847381592
1.18343555927276611 3.33402013778686523 -0.733641386032104492
1.78272402286529541 3.23490476608276367 -0.717232644557952881
1.02085030078887939 2.56250238418579102 -0.297035098075866699
0.246339380741119385 2.51108074188232422 -0.479058682918548584
-1.2092214822769165 3.68696951866149902 0.641044795513153076
0.306883066892623901 3.01695728302001953 0.481460928916931152
0.196388959884643555 2.39065647125244141 -0.30537945032119751
0.207980990409851074 2.50872087478637695 -0.47913709282875061
1.70735454559326172 3.49905014038085938 0.958794653415679932
0.012132108211517334 2.76398682594299316 -0.60737234354019165
0.365903615951538086 2.56863737106323242 -0.540394246578216553
2.27681231498718262 3.05200815200805664 -0.624605059623718262
0.334868729114532471 2.54334545135498047 -0.633568346500396729
-1.42439699172973633 3.09312868118286133 -0.377216696739196777
-1.03772079944610596 3.12133216857910156 0.0140244960784912109
0.0465900003910064697 2.02781081199645996 -0.593610048294067383
-1.76663219928741455 3.61954522132873535 0.629701733589172363
-1.39104104042053223 3.11140847206115723 -0.302770853042602539
0.316530227661132812 2.55646634101867676 -0.620570361614227295
0.30084526538848877 2.53136515617370605 -0.470937669277191162
2.12743973731994629 3.4281010627746582 -0.76029282808303833
0.319895952939987183 2.47353839874267578 -0.528382539749145508
0.257365524768829346 2.56288814544677734 -0.466825753450393677
2.6667628288269043 3.29141736030578613 -0.635091543197631836
0.32674407958984375 2.46197414398193359 -0.466495156288146973
-0.841236889362335205 3.22786164283752441 -0.540327489376068115
-1.76580333709716797 3.04234671592712402 -0.403294503688812256
0.366648852825164795 2.46547174453735352 -0.516235172748565674
-0.637272834777832031 3.68938732147216797 0.797979116439819336
-0.114630043506622314 2.56699967384338379 -0.611693859100341797
0.267855912446975708 2.5013432502746582 -0.468672990798950195
0.201538890600204468 2.57888627052307129 -0.504518628120422363
0.165304183959960938 2.59365367889404297 -0.472260236740112305
-1.24536466598510742 2.86038351058959961 -0.295768231153488159
0.450132250785827637 2.52364635467529297 -0.559957146644592285
-0.225830435752868652 2.88267064094543457 -0.486633896827697754
-0.877383112907409668 3.09218382835388184 -0.536525130271911621
1.65432882308959961 3.48321056365966797 -0.555621623992919922
-1.82610464096069336 3.31468558311462402 -0.417289435863494873
1.47859251499176025 3.36094522476196289 0.122933685779571533
0.262641310691833496 2.81205224990844727 -0.189937829971313477
-1.28018832206726074 3.12469029426574707 -0.383776426315307617
0.373284369707107544 2.51344680786132812 -0.547690033912658691
0.488227188587188721 3.3377230167388916 0.0475283265113830566
1.1266024112701416 2.99909138679504395 0.719632983207702637
1.51509809494018555 3.42691421508789062 0.642281174659729004
-0.0542296990752220154 1.0989762544631958 -0.665471076965332031
1.41841745376586914 3.22654128074645996 -0.28460395336151123
0.111006677150726318 2.53376197814941406 -0.463676661252975464
0.358624398708343506 2.50981903076171875 -0.33947908878326416
1.34627676010131836 3.38123059272766113 -0.69455409049987793
0.242090731859207153 2.52674388885498047 -0.502242922782897949
1.51328539848327637 3.49371480941772461 -0.055689007043838501
-1.45148396492004395 2.96654748916625977 0.713400542736053467
-1.28261208534240723 2.97675871849060059 -0.318826526403427124
0.268589764833450317 2.5647282600402832 -0.391318619251251221
0.188437819480895996 2.51252055168151855 -0.445008456707000732
0.425258427858352661 1.29420387744903564 -0.615931510925292969
-0.806219875812530518 2.46393871307373047 -0.4126625657081604
-2.10715937614440918 3.00969505310058594 0.651753842830657959
-0.803228378295898438 3.48462390899658203 0.433745115995407104
-1.27334535121917725 2.94748377799987793 -0.370224267244338989
0.298103868961334229 2.48408317565917969 -0.576976478099822998
-1.76257014274597168 2.50875377655029297 -0.576816856861114502
1.6082921028137207 3.30558967590332031 -0.433002710342407227
-1.7109677791595459 2.4122161865234375 -0.573320448398590088
1.13799095153808594 3.33066892623901367 -0.567319393157958984
-1.54575693607330322 2.64000892639160156 -0.604451656341552734
0.510458946228027344 3.43611359596252441 0.735240638256072998
-1.82201969623565674 3.2451019287109375 0.0306189060211181641
0.228289574384689331 2.50862836837768555 -0.502475619316101074
0.280735582113265991 2.46194219589233398 -0.505857884883880615
0.0848062634468078613 2.56461620330810547 -0.466347157955169678
2.18377590179443359 3.4079890251159668 -0.0781092047691345215
-1.38516926765441895 2.95720148086547852 -0.516380846500396729
1.66202652454376221 3.28727555274963379 -0.174863308668136597
2.18364953994750977 3.50217413902282715 0.714307427406311035
0.132117807865142822 2.50853753089904785 -0.483308374881744385
0.375707000494003296 2.51177334785461426 -0.324510008096694946
-1.32411813735961914 2.77889013290405273 -0.509584665298461914
0.114131271839141846 2.35083818435668945 -0.402795225381851196
0.24971461296081543 2.51655364036560059 -0.45783311128616333
-0.26875990629196167 3.71190595626831055 0.555040121078491211
-0.0701507553458213806 3.59218215942382812 0.206095069646835327
0.0353689379990100861 3.16434454917907715 0.864395260810852051
0.252406001091003418 2.47623872756958008 -0.451571047306060791
0.391458243131637573 2.51637649536132812 -0.467215210199356079
0.335785716772079468 2.55392885208129883 -0.520705819129943848
0.225895404815673828 2.50040054321289062 -0.484304636716842651
0.422515630722045898 2.54764103889465332 -0.428208708763122559
-0.669291138648986816 2.79098629951477051 -0.587178528308868408
1.64973747730255127 3.61053967475891113 0.323873460292816162
1.5495535135269165 3.34720063209533691 -0.428249657154083252
0.572684168815612793 3.03291678428649902 0.0387031435966491699
1.95895767211914062 3.39843535423278809 -0.852856755256652832
-1.25753629207611084 3.25923871994018555 -0.322380244731903076
1.29840266704559326 3.01883554458618164 -0.389714181423187256
0.313085168600082397 2.5083320140838623 -0.537056863307952881
0.213717907667160034 2.49100065231323242 -0.447479724884033203
1.87963879108428955 3.35262084007263184 -0.686828196048736572
0.101522594690322876 2.48422694206237793 -0.320003926753997803
0.433803141117095947 3.31790828704833984 1.06419694423675537
2.51226997375488281 3.32809615135192871 -0.695494592189788818
2.60464000701904297 3.43631529808044434 0.33207365870475769
2.59255647659301758 3.48341822624206543 -0.253578603267669678
2.35816311836242676 3.30581021308898926 -0.336686611175537109
0.125909507274627686 2.5220179557800293 -0.403171300888061523
0.759701967239379883 2.68545126914978027 -0.257719963788986206
0.233631551265716553 2.65632057189941406 -0.116401940584182739
0.200116932392120361 2.50410342216491699 -0.435188174247741699
-0.140791058540344238 2.55169224739074707 -0.548615574836730957
-2.43110227584838867 3.5727081298828125 0.538758635520935059
0.325202494859695435 2.54640793800354004 -0.482006192207336426
-0.921561717987060547 3.6824181079864502 0.875047087669372559
0.292853623628616333 2.4627373218536377 -0.547132611274719238
0.345165371894836426 2.52134966850280762 -0.56267547607421875
-1.28146696090698242 2.63193869590759277 -0.565780043601989746
-1.32053470611572266 3.59777116775512695 0.587631404399871826
0.229037627577781677 2.50969266891479492 -0.447008103132247925
1.63593149185180664 3.26390814781188965 -0.35018312931060791
0.238582640886306763 2.17913413047790527 -0.47670707106590271
1.83384096622467041 3.35946083068847656 -0.568120360374450684
0.310407042503356934 2.52681541442871094 -0.50114971399307251
0.141616523265838623 1.10856735706329346 -0.668757259845733643
-1.24230027198791504 3.68469095230102539 0.26438140869140625
-1.23395466804504395 3.42130136489868164 0.244079232215881348
0.00518143177032470703 2.43292808532714844 -0.399956703186035156
0.191880643367767334 2.52466726303100586 -0.504338979721069336
0.19711950421333313 2.4286046028137207 -0.425162792205810547
0.312267571687698364 2.50543546676635742 -0.463546901941299438
-0.484946966171264648 2.874237060546875 -0.531189858913421631
-2.37816405296325684 3.55252790451049805 -0.174717605113983154
1.72294306755065918 3.25510597229003906 0.953304409980773926
1.15062427520751953 3.48365426063537598 0.946395397186279297
1.8054126501083374 3.43360352516174316 -0.63983076810836792
0.664570271968841553 5.88062906265258789 4.85572242736816406
1.95279455184936523 3.41321468353271484 1.12001824378967285
0.17276686429977417 2.50922799110412598 -0.507429122924804688
0.447259694337844849 2.46563553810119629 -0.259152710437774658
-0.656246840953826904 3.55565714836120605 1.0933840274810791
-0.165390253067016602 1.11396574974060059 -0.659803390502929688
-1.47937726974487305 2.24570202827453613 -0.599393963813781738
0.0683114081621170044 3.36162042617797852 0.878805577754974365
-2.18994450569152832 3.58781623840332031 0.811567962169647217
-0.390436708927154541 2.59161829948425293 -0.564271807670593262
2.59754180908203125 3.27937602996826172 -0.837300777435302734
-1.86472451686859131 1.96064746379852295 -0.636305689811706543
-0.318041741847991943 1.09761083126068115 -0.661368966102600098
0.255115598440170288 2.54082655906677246 -0.491531252861022949
1.55676960945129395 3.54900336265563965 0.529588222503662109
0.226701557636260986 2.50588440895080566 -0.438637584447860718
-1.31505084037780762 2.94677019119262695 -0.291341304779052734
0.395662307739257812 2.56057238578796387 -0.556240200996398926
-0.377272963523864746 3.50088620185852051 0.961441338062286377
2.18909668922424316 3.22879123687744141 -0.619994282722473145
0.336551964282989502 2.46966314315795898 -0.593421816825866699
0.366069406270980835 2.49557781219482422 -0.553507626056671143
0.0858503878116607666 3.78836441040039062 0.272067457437515259
0.352651685476303101 2.56043839454650879 -0.319928348064422607
0.196084767580032349 2.50992655754089355 -0.498640000820159912
0.384071379899978638 2.49954366683959961 -0.491672486066818237
-0.0993008613586425781 2.66029000282287598 -0.548105895519256592
-1.29923844337463379 2.98201799392700195 -0.365430593490600586
-1.60014772415161133 3.28925156593322754 -0.382220566272735596
0.251749098300933838 2.480194091796875 -0.509036481380462646
0.293327659368515015 2.59631133079528809 -0.523102462291717529
1.52650165557861328 3.46458554267883301 -0.27839362621307373
2.46873927116394043 3.35625267028808594 1.04492473602294922
0.340352535247802734 2.59502649307250977 -0.516034245491027832
0.0324744582176208496 2.42974090576171875 -0.448068022727966309
0.361606299877166748 2.5663299560546875 -0.374681413173675537
0.696963906288146973 3.52102541923522949 0.987235605716705322
-0.123600266873836517 1.1301044225692749 -0.726410269737243652
-1.46396780014038086 3.33751821517944336 -0.408065974712371826
-1.25049924850463867 3.0774388313293457 -0.164725601673126221
2.25106930732727051 3.49710822105407715 -0.219206690788269043
0.265222787857055664 2.56058621406555176 -0.47847399115562439
0.203005284070968628 2.5134739875793457 -0.489416748285293579
1.56219971179962158 3.31950283050537109 -0.144456207752227783
0.449978351593017578 2.59889030456542969 -0.476518958806991577
0.178880617022514343 2.50917816162109375 -0.555055081844329834
-0.587226510047912598 2.83916616439819336 -0.553451180458068848
1.26621699333190918 3.45511627197265625 0.436957478523254395
0.428997457027435303 2.5118720531463623 -0.54127049446105957
0.38160395622253418 2.4418642520904541 -0.519891023635864258
-1.59639203548431396 2.55112814903259277 -0.571927070617675781
1.49976944923400879 3.4560389518737793 1.00573348999023438
-1.63499510288238525 3.45285630226135254 0.898257970809936523
-1.05137491226196289 2.88481807708740234 -0.187378823757171631
-1.50581884384155273 3.2203974723815918 -0.351675629615783691
0.248291909694671631 2.53626918792724609 -0.307956099510192871
-1.40009629726409912 3.26677751541137695 -0.13367617130279541
-1.35132312774658203 3.16604375839233398 -0.462722063064575195
-0.2486611008644104 3.65370917320251465 0.120397388935089111
0.376223474740982056 2.46457409858703613 -0.328080415725708008
0.2517985999584198 2.54724526405334473 -0.510720491409301758
