ply
format ascii 1.0
element vertex 256
comment vertices
property float x
property float y
property float z
end_header
-1.14382195472717285 1.80159246921539307 -0.661707222461700439
4.03642845153808594 7.34256505966186523 1.65735507011413574
2.89972496032714844 4.8166050910949707 -0.71872246265411377
-2.52930068969726562 3.26661849021911621 7.22627449035644531
0.311270833015441895 4.25241994857788086 -0.699688315391540527
0.740768611431121826 7.73562765121459961 1.69099760055541992
1.87869739532470703 4.91798639297485352 0.34807664155960083
0.944851458072662354 3.61090564727783203 -0.679512619972229004
-1.17623519897460938 3.19290399551391602 0.47157585620880127
1.97982132434844971 6.90429401397705078 2.20091462135314941
-1.43300294876098633 5.11949062347412109 -0.24123227596282959
0.971672296524047852 3.93207359313964844 -0.609889030456542969
0.0898084044456481934 5.38154077529907227 -0.0737195611000061035
-0.87629467248916626 2.00263810157775879 -0.184482038021087646
-1.16150021553039551 3.63425016403198242 -0.634842753410339355
3.10161805152893066 4.82667827606201172 -0.0611567497253417969
0.754806637763977051 2.54988741874694824 -0.899760544300079346
1.52099418640136719 3.92492055892944336 -0.694584012031555176
2.45448017120361328 7.32058095932006836 1.81509852409362793
1.00728011131286621 3.50610160827636719 -0.542204141616821289
-1.23743200302124023 4.66102504730224609 0.434168219566345215
0.722162246704101562 7.30012321472167969 2.19578385353088379
-0.231927603483200073 7.0967864990234375 1.55816185474395752
-0.797395944595336914 4.37790441513061523 -0.502594828605651855
2.39343929290771484 4.68529319763183594 -0.509902536869049072
2.38034439086914062 2.79435062408447266 -0.735014617443084717
-3.0428156852722168 3.85553956031799316 5.38792228698730469
-0.893646180629730225 4.64870738983154297 -0.596950888633728027
0.461460739374160767 2.83415961265563965 -0.740335226058959961
1.18594932556152344 4.22947263717651367 -0.199477553367614746
-0.93399810791015625 2.21841788291931152 -0.453714311122894287
1.28919613361358643 4.42870235443115234 -0.562517285346984863
0.973337054252624512 3.99590826034545898 -0.483560383319854736
-0.784301161766052246 5.36570453643798828 0.51461493968963623
-1.0518181324005127 1.78764688968658447 -0.55337899923324585
0.466580063104629517 5.29452037811279297 1.07274520397186279
1.05931425094604492 3.51287126541137695 -0.649214327335357666
2.99281930923461914 6.8488154411315918 2.26107478141784668
1.58615028858184814 8.08285808563232422 2.44354438781738281
2.88672232627868652 4.94722700119018555 1.13044631481170654
-1.09938883781433105 4.96115970611572266 -0.614749908447265625
2.46316623687744141 4.78626823425292969 0.0382564961910247803
-1.06489300727844238 3.09328269958496094 -0.324981480836868286
-1.2193598747253418 3.41783332824707031 -0.599973678588867188
2.66339826583862305 4.54706621170043945 -0.536308884620666504
0.140042304992675781 5.25227975845336914 0.523062527179718018
0.876171410083770752 2.54533505439758301 -0.719077765941619873
0.778751254081726074 2.1159977912902832 -0.853089094161987305
0.869596660137176514 2.51928400993347168 -0.890914082527160645
-0.957274734973907471 4.97282505035400391 0.12826944887638092
1.03713417053222656 4.05792856216430664 -0.456941545009613037
0.838619649410247803 2.62713265419006348 -0.787253916263580322
-1.23471057415008545 7.40698146820068359 3.82104086875915527
0.981727421283721924 4.59138631820678711 -0.392559409141540527
-1.10438275337219238 3.67373847961425781 0.620308399200439453
-1.01371347904205322 4.10648536682128906 -0.264909058809280396
0.942058563232421875 4.25747346878051758 -0.409268319606781006
2.48844790458679199 7.3250422477722168 2.23662734031677246
1.12332391738891602 4.13236904144287109 -0.487036317586898804
-0.813525676727294922 4.17486238479614258 -0.590249598026275635
-1.28646624088287354 2.06760787963867188 0.187703549861907959
0.352767914533615112 6.89654445648193359 2.26126289367675781
2.42093515396118164 4.86191463470458984 -0.71199345588684082
0.437363237142562866 3.74866604804992676 -0.6878509521484375
3.70069551467895508 5.13326501846313477 -0.551108360290527344
-0.987491905689239502 1.48170566558837891 -0.638234138488769531
1.44271194934844971 7.28229618072509766 2.11036539077758789
-0.407930433750152588 5.19123363494873047 -0.223242223262786865
-0.981641471385955811 3.30166912078857422 -0.606459140777587891
1.19296681880950928 4.19529819488525391 -0.512556612491607666
1.21173858642578125 5.2259669303894043 0.859254002571105957
-1.02786970138549805 4.07724714279174805 0.0691589415073394775
0.764999985694885254 3.7781827449798584 -0.714287042617797852
1.00481438636779785 3.9209437370300293 -0.489452630281448364
0.550752460956573486 4.29248619079589844 -0.630085229873657227
-1.06137025356292725 2.02225542068481445 -0.388548702001571655
2.63515424728393555 4.74285411834716797 -0.332450747489929199
-0.984289228916168213 5.10127878189086914 0.89132845401763916
0.975890278816223145 3.4877619743347168 -0.694411754608154297
-1.46188938617706299 5.36994600296020508 0.424442172050476074
0.198409616947174072 4.7236175537109375 -0.473933428525924683
1.40640342235565186 5.01437997817993164 0.072238922119140625
1.00670719146728516 4.28955554962158203 -0.107000410556793213
1.09259402751922607 4.31087493896484375 -0.432758510112762451
0.747312843799591064 3.13576340675354004 -0.687740802764892578
0.524168848991394043 2.57523918151855469 -0.771658480167388916
-0.956995308399200439 2.08556032180786133 -0.292875587940216064
-0.94514620304107666 2.9516756534576416 -0.0714930891990661621
-0.975436270236968994 2.14495134353637695 -0.466216921806335449
-0.520976901054382324 4.28610324859619141 -0.636076927185058594
2.9022679328918457 4.96094131469726562 0.393720537424087524
2.53215742111206055 4.36784601211547852 -0.68695676326751709
3.26190638542175293 7.5131988525390625 1.63980889320373535
-0.935860991477966309 3.60355448722839355 -0.559076070785522461
-1.24467039108276367 2.59795331954956055 -0.714835286140441895
1.01190662384033203 4.25489187240600586 -0.456497311592102051
-0.257062166929244995 5.23070526123046875 0.548641026020050049
-0.805921196937561035 5.04705286026000977 0.283747613430023193
1.0431143045425415 3.63523340225219727 -0.482616811990737915
2.57284760475158691 4.56545352935791016 -0.249877244234085083
0.932057857513427734 4.14974689483642578 -0.5012778639793396
-0.373994708061218262 5.54213285446166992 0.582250773906707764
2.32647109031677246 5.07466888427734375 0.962407290935516357
-1.09168434143066406 4.03716325759887695 -0.673061490058898926
-1.00566792488098145 5.20058679580688477 -0.18861214816570282
0.292014658451080322 5.50796699523925781 0.882592916488647461
0.794391274452209473 2.44554471969604492 -0.884904325008392334
1.32524788379669189 7.82885265350341797 1.81451821327209473
1.40623581409454346 7.60527515411376953 2.4384310245513916
0.951998710632324219 3.52208924293518066 -0.573545694351196289
-0.301818549633026123 1.9312901496887207 -0.752153396606445312
-1.0767751932144165 2.14207720756530762 -0.473224788904190063
0.762355506420135498 2.58006715774536133 -0.81239628791809082
0.649992763996124268 4.38115739822387695 -0.6984100341796875
-0.912251114845275879 2.26364755630493164 -0.257687270641326904
-0.710833370685577393 3.66271567344665527 -0.68560492992401123
0.884222626686096191 3.011016845703125 -0.678094744682312012
-1.84220468997955322 5.44416618347167969 -0.0439795851707458496
1.82203936576843262 4.11742496490478516 -0.293718814849853516
2.45063495635986328 6.77212667465209961 2.19791078567504883
1.11279118061065674 4.22260379791259766 -0.341318100690841675
0.811946511268615723 2.57414507865905762 -0.775195479393005371
-1.0955585241317749 4.17761611938476562 0.202130317687988281
1.14545309543609619 4.13566684722900391 -0.43523097038269043
-0.7480316162109375 4.38038539886474609 -0.686893701553344727
1.13448667526245117 4.13087368011474609 -0.483673632144927979
2.8518073558807373 4.96435832977294922 -0.386404544115066528
-0.814282596111297607 4.33771562576293945 -0.548456549644470215
-0.822381019592285156 5.04346752166748047 0.348880559206008911
-1.00009095668792725 4.11893749237060547 -0.392317593097686768
-1.03076720237731934 3.39440035820007324 -0.589680075645446777
-1.02703678607940674 4.12259531021118164 -0.374083220958709717
2.62011337280273438 4.64612579345703125 -0.556628286838531494
2.83174920082092285 4.84335756301879883 -0.575157761573791504
-0.968524634838104248 5.12320041656494141 -0.335367202758789062
0.854496121406555176 2.6557304859161377 -0.775065064430236816
0.833651542663574219 2.65113997459411621 -0.750913918018341064
-1.6469264030456543 4.88018417358398438 1.42960810661315918
3.35978841781616211 4.92009258270263672 0.528414249420166016
-0.57373964786529541 4.18346118927001953 -0.688335061073303223
0.648939609527587891 3.20769357681274414 -0.598471999168395996
-0.955572903156280518 3.24033403396606445 -0.601404666900634766
0.993530750274658203 3.92726564407348633 -0.50285041332244873
-1.08166563510894775 1.84052515029907227 -0.542193889617919922
-0.966606020927429199 3.33442902565002441 -0.5744171142578125
-1.04833221435546875 4.95026254653930664 0.367225825786590576
1.00557065010070801 4.25221538543701172 -0.27472493052482605
-0.862625598907470703 2.04491972923278809 -0.251116275787353516
-0.864585280418395996 4.01689577102661133 -0.752692103385925293
1.33017802238464355 4.39194107055664062 -0.489075422286987305
0.492588400840759277 4.73058652877807617 -0.445988833904266357
-1.03415596485137939 3.42746305465698242 0.473183542490005493
-0.797303199768066406 7.35109806060791016 3.01926636695861816
-0.923447132110595703 3.71873021125793457 -0.596852481365203857
1.8759608268737793 7.9932551383972168 2.34438824653625488
0.772390484809875488 2.74139046669006348 -0.725519776344299316
1.15464293956756592 7.45276737213134766 2.1589658260345459
0.640360593795776367 4.43946027755737305 -0.589104533195495605
0.890686213970184326 4.06302833557128906 -0.693002462387084961
0.85680234432220459 3.56169223785400391 -0.778649210929870605
1.2187124490737915 4.43336772918701172 -0.175199180841445923
0.815699875354766846 3.36735153198242188 -0.726155996322631836
2.57294249534606934 4.602630615234375 -0.50516277551651001
-1.09663844108581543 4.69519138336181641 1.08677899837493896
1.15701103210449219 4.45163917541503906 -0.0613318681716918945
-0.937240958213806152 5.19147396087646484 -0.486865580081939697
1.02881050109863281 7.26563644409179688 2.13463640213012695
-0.922968804836273193 5.14682340621948242 0.117178022861480713
0.758102834224700928 2.64078617095947266 -0.843212485313415527
-1.00456428527832031 3.08553814888000488 -0.177419602870941162
0.93144679069519043 3.56026268005371094 -0.544307291507720947
1.46953260898590088 5.31209278106689453 0.931390821933746338
1.98558449745178223 7.23804759979248047 2.15646004676818848
2.16702938079833984 4.9285125732421875 0.447781592607498169
0.534692585468292236 3.80959963798522949 -0.688101053237915039
1.00187134742736816 4.18757963180541992 -0.54412376880645752
0.918626070022583008 3.56724882125854492 -0.538683772087097168
0.967029094696044922 3.95937442779541016 -0.491016149520874023
-0.874160110950469971 1.90542352199554443 -0.493386745452880859
-0.940926432609558105 1.63885128498077393 -0.706023037433624268
0.0172069147229194641 5.53279876708984375 0.805130660533905029
0.314853370189666748 2.27899503707885742 -0.771445751190185547
1.29302299022674561 4.7592158317565918 -0.0229943990707397461
-1.0514371395111084 1.64909708499908447 -0.444027543067932129
0.911844491958618164 7.33862400054931641 2.23988461494445801
-1.0294259786605835 2.06839394569396973 -0.455342411994934082
1.12961280345916748 3.90193080902099609 -0.613247394561767578
0.836952745914459229 3.16386079788208008 -0.660378813743591309
0.908384740352630615 3.71658205986022949 -0.595619857311248779
-1.03560924530029297 5.36086893081665039 0.724991917610168457
-0.021388322114944458 2.89199566841125488 -0.681862831115722656
-1.1070786714553833 1.97146511077880859 -0.504977583885192871
1.18944859504699707 4.23976755142211914 -0.448217451572418213
1.09056448936462402 4.21266078948974609 -0.28958931565284729
-1.26733338832855225 4.54931211471557617 0.789854168891906738
1.02078008651733398 4.0342254638671875 -0.604580938816070557
0.750821173191070557 2.59257245063781738 -0.809341371059417725
2.421783447265625 7.09952831268310547 2.18667840957641602
-1.07500290870666504 4.99562168121337891 0.043019711971282959
-0.408057242631912231 5.43404293060302734 0.961179137229919434
2.27775096893310547 7.48665666580200195 2.4324188232421875
0.980697989463806152 5.28806829452514648 0.543734908103942871
-1.08645665645599365 3.29196929931640625 -0.577131807804107666
2.53036665916442871 4.9332280158996582 0.415546715259552002
2.78662824630737305 4.94933271408081055 0.0568759143352508545
0.0104039236903190613 5.37446451187133789 -0.146276235580444336
1.09496831893920898 4.12242507934570312 -0.585177004337310791
0.968002080917358398 3.61021614074707031 -0.541179299354553223
0.744896650314331055 5.3412470817565918 0.802111148834228516
-0.655971050262451172 5.44154739379882812 0.40459558367729187
-0.949210703372955322 2.02043724060058594 -0.383162498474121094
-1.11829018592834473 3.49669098854064941 0.45605933666229248
0.69858241081237793 2.63827991485595703 -0.843631505966186523
-0.317293107509613037 4.1548609733581543 -0.679078221321105957
1.05561959743499756 4.09160184860229492 -0.544668138027191162
0.488614737987518311 7.17928218841552734 2.26130509376525879
1.15977692604064941 4.15360260009765625 -0.38439643383026123
-1.02282702922821045 2.12427806854248047 -0.450440496206283569
2.74975180625915527 7.41613006591796875 2.45751833915710449
2.53555393218994141 4.87353801727294922 -0.674121260643005371
0.835137367248535156 4.72576141357421875 -0.43200257420539856
0.773353099822998047 2.29546713829040527 -0.869719982147216797
-1.07918822765350342 2.43220806121826172 -0.731551051139831543
-1.0465853214263916 3.66888141632080078 -0.610500097274780273
0.86335521936416626 4.30672931671142578 -0.373087316751480103
0.127187803387641907 6.97116613388061523 1.75792825222015381
2.69944953918457031 7.07315444946289062 2.35210108757019043
-0.88246619701385498 2.43402862548828125 -0.3184681236743927
2.59825658798217773 4.5434722900390625 -0.467324525117874146
-0.698873162269592285 4.75959873199462891 -0.583441257476806641
-0.170296847820281982 4.82989597320556641 -0.655196845531463623
0.78636467456817627 2.58973336219787598 -0.883505582809448242
-0.746726632118225098 4.3729248046875 -0.517454147338867188
-0.720588266849517822 5.01830101013183594 0.602975785732269287
0.957254469394683838 3.42938828468322754 -0.533385753631591797
-1.29287922382354736 5.23398828506469727 0.0110460221767425537
0.412770330905914307 5.30163478851318359 0.288224875926971436
0.756182551383972168 5.05462455749511719 -0.0229557156562805176
1.02937006950378418 4.17339611053466797 -0.461061775684356689
-1.00610876083374023 3.43030333518981934 -0.575277805328369141
-1.63640737533569336 4.94979095458984375 0.277927905321121216
0.758110582828521729 2.58942985534667969 -0.719568789005279541
-0.909396052360534668 2.08492660522460938 -0.328741937875747681
-1.02498793601989746 4.06552839279174805 -0.45593792200088501
1.48614561557769775 4.96366262435913086 0.352507293224334717
2.8681941032409668 4.38887977600097656 -0.198657870292663574
0.891922712326049805 2.24982166290283203 -0.907800555229187012
1.18151021003723145 4.21167373657226562 -0.468205094337463379
1.10330212116241455 4.1859135627746582 -0.457987487316131592
0.760315299034118652 2.63081693649291992 -0.817656219005584717
-0.845743298530578613 4.98409938812255859 0.166349828243255615
0.70884549617767334 2.77715682983398438 -0.795684933662414551
-1.18529021739959717 4.84859180450439453 0.496754169464111328
-1.09592270851135254 2.02927064895629883 -0.646750390529632568
-0.987867355346679688 3.67618942260742188 -0.589481711387634277
-1.00177001953125 2.0560905933380127 -0.446696698665618896
