ply
format ascii 1.0
element vertex 27
comment vertices
property float x
property float y
property float z
end_header
-0.889953851699829102 1.9728623628616333 -0.277793347835540771
2.41805028915405273 4.78481578826904297 -0.688395142555236816
1.19052541255950928 4.19652175903320312 -0.293580174446105957
1.04181694984436035 4.07149600982666016 -0.483017444610595703
1.04126894474029541 4.17085409164428711 -0.440593600273132324
1.0922703742980957 4.07045078277587891 -0.505240797996520996
2.41578388214111328 4.86470460891723633 -0.762262344360351562
-1.14728653430938721 1.99636673927307129 -0.428933531045913696
0.975774943828582764 4.21601676940917969 -0.254222631454467773
1.08778893947601318 4.23481321334838867 -0.475717157125473022
-1.01379632949829102 2.10125422477722168 -0.373577535152435303
1.06894052028656006 4.14639854431152344 -0.468492418527603149
1.01934325695037842 4.09316253662109375 -0.499905288219451904
1.10684096813201904 4.20040416717529297 -0.419990479946136475
1.12142336368560791 4.11332225799560547 -0.46459120512008667
1.09757184982299805 4.06741189956665039 -0.503116786479949951
1.04214274883270264 4.21305322647094727 -0.363445580005645752
-0.898617982864379883 2.06630992889404297 -0.338700056076049805
1.1551433801651001 4.20019626617431641 -0.480512350797653198
1.0982060432434082 4.1946873664855957 -0.387590259313583374
-1.03132939338684082 2.03780889511108398 -0.43006974458694458
1.11841559410095215 4.12279796600341797 -0.437616974115371704
2.46730661392211914 4.88051795959472656 -0.740516006946563721
0.890592634677886963 4.25332355499267578 -0.464979678392410278
1.05043911933898926 4.08018684387207031 -0.482882320880889893
1.16360962390899658 4.19704437255859375 -0.495118170976638794
1.10927689075469971 4.12810039520263672 -0.476459980010986328
