ply
format ascii 1.0
element vertex 40
comment vertices
property float x
property float y
property float z
end_header
1.01754891872406006 4.02598905563354492 -0.565697431564331055
1.0000375509262085 3.56003856658935547 -0.563873112201690674
1.24874448776245117 4.34563779830932617 -0.592836320400238037
1.0347830057144165 4.05351924896240234 -0.487506747245788574
1.04181694984436035 4.07149600982666016 -0.483017444610595703
1.04126894474029541 4.17085409164428711 -0.440593600273132324
1.0922703742980957 4.07045078277587891 -0.505240797996520996
2.41578388214111328 4.86470460891723633 -0.762262344360351562
1.14278650283813477 4.15364408493041992 -0.507752060890197754
1.04349696636199951 4.00348758697509766 -0.495573312044143677
1.08778893947601318 4.23481321334838867 -0.475717157125473022
1.06894052028656006 4.14639854431152344 -0.468492418527603149
1.05708849430084229 3.73994755744934082 -0.488814622163772583
1.01934325695037842 4.09316253662109375 -0.499905288219451904
1.10684096813201904 4.20040416717529297 -0.419990479946136475
1.12142336368560791 4.11332225799560547 -0.46459120512008667
1.09757184982299805 4.06741189956665039 -0.503116786479949951
-1.00325095653533936 3.42836785316467285 -0.644724369049072266
-0.968081295490264893 3.27425861358642578 -0.645277321338653564
1.0398334264755249 4.00495195388793945 -0.500366389751434326
1.04214274883270264 4.21305322647094727 -0.363445580005645752
-0.898617982864379883 2.06630992889404297 -0.338700056076049805
1.28566467761993408 4.31159353256225586 -0.540778040885925293
0.988743245601654053 4.07112646102905273 -0.628061532974243164
1.05690348148345947 4.0948948860168457 -0.529187619686126709
1.02329158782958984 4.03373241424560547 -0.492558956146240234
1.10980439186096191 4.00693845748901367 -0.578470528125762939
0.983012139797210693 3.85961437225341797 -0.561417996883392334
1.1551433801651001 4.20019626617431641 -0.480512350797653198
1.0982060432434082 4.1946873664855957 -0.387590259313583374
1.05934655666351318 4.05259418487548828 -0.571067392826080322
-1.03132498264312744 3.31971168518066406 -0.641210317611694336
1.07987880706787109 4.08539485931396484 -0.565418362617492676
0.973395228385925293 3.64486074447631836 -0.569011569023132324
1.06211996078491211 4.08293294906616211 -0.540246427059173584
1.11841559410095215 4.12279796600341797 -0.437616974115371704
2.46730661392211914 4.88051795959472656 -0.740516006946563721
1.05043911933898926 4.08018684387207031 -0.482882320880889893
1.16360962390899658 4.19704437255859375 -0.495118170976638794
1.10927689075469971 4.12810039520263672 -0.476459980010986328
