# 3ds Max Wavefront OBJ Exporter v0.97b - (c)2007 guruware
# File Created: 01.10.2020 13:35:20

mtllib rangement.mtl

#
# object Box001
#

v  -14.1391 0.0000 38.5203
v  -14.1391 0.0000 -5.4797
v  27.8609 0.0000 -5.4797
v  27.8609 0.0000 38.5203
v  -14.1391 140.0000 38.5203
v  27.8609 140.0000 38.5203
v  27.8609 140.0000 -5.4797
v  -14.1391 140.0000 -5.4797
v  25.8609 37.0000 -1.4797
v  25.8609 68.0000 -1.4797
v  -12.1391 68.0000 -1.4797
v  -12.1391 37.0000 -1.4797
v  27.8609 105.0000 38.5203
v  27.8609 70.0000 38.5203
v  27.8609 35.0000 38.5203
v  -14.1391 35.0000 38.5203
v  -14.1391 70.0000 38.5203
v  -14.1391 105.0000 38.5203
v  25.8609 107.0000 -1.4797
v  25.8609 138.0000 -1.4797
v  -12.1391 138.0000 -1.4797
v  -12.1391 107.0000 -1.4797
v  25.8609 72.0000 -1.4797
v  25.8609 103.0000 -1.4797
v  -12.1391 103.0000 -1.4797
v  -12.1391 72.0000 -1.4797
v  -12.1391 33.0000 -1.4797
v  -12.1391 2.0000 -1.4797
v  25.8609 2.0000 -1.4797
v  25.8609 33.0000 -1.4797
v  25.8609 68.0000 38.5203
v  25.8609 37.0000 38.5203
v  -12.1391 68.0000 38.5203
v  -12.1391 37.0000 38.5203
v  25.8609 138.0000 38.5203
v  25.8609 107.0000 38.5203
v  -12.1391 138.0000 38.5203
v  -12.1391 107.0000 38.5203
v  25.8609 103.0000 38.5203
v  25.8609 72.0000 38.5203
v  -12.1391 103.0000 38.5203
v  -12.1391 72.0000 38.5203
v  -12.1391 2.0000 38.5203
v  -12.1391 33.0000 38.5203
v  25.8609 2.0000 38.5203
v  25.8609 33.0000 38.5203
# 46 vertices

vn -0.5774 -0.5774 0.5774
vn -0.5774 -0.5774 -0.5774
vn 0.5774 -0.5774 -0.5774
vn 0.5774 -0.5774 0.5774
vn -0.5774 0.5774 0.5774
vn 0.5774 0.5774 0.5774
vn 0.5774 0.5774 -0.5774
vn -0.5774 0.5774 -0.5774
vn 0.7071 0.0000 0.7071
vn -0.7071 0.0000 0.7071
vn -0.3015 -0.3015 0.9045
vn -0.3015 0.3015 0.9045
vn 0.3015 -0.3015 0.9045
vn 0.3015 0.3015 0.9045
# 14 vertex normals

vt 1.0000 0.0000 0.0000
vt 1.0000 1.0000 0.0000
vt 0.0000 1.0000 0.0000
vt 0.0000 0.0000 0.0000
vt 1.0000 0.2500 0.0000
vt 1.0000 0.5000 0.0000
vt 0.0000 0.5000 0.0000
vt 0.0000 0.2500 0.0000
vt 0.0000 0.7500 0.0000
vt 1.0000 0.7500 0.0000
# 10 texture coords

o Box001
g Box001
usemtl wire_135059008
s 2
f 1/1/1 2/2/2 3/3/3 4/4/4 
s 4
f 5/4/5 6/1/6 7/2/7 8/3/8 
s 8
f 9/5/5 10/6/1 11/7/4 12/8/6 
s 16
f 4/4/4 3/1/3 7/2/7 6/3/6 13/9/9 14/7/9 15/8/9 
s 32
f 3/4/3 2/1/2 8/2/8 7/3/7 
s 64
f 2/4/2 1/1/1 16/5/10 17/6/10 18/10/10 5/2/5 8/3/8 
s 8
f 19/10/5 20/2/1 21/3/4 22/9/6 
f 23/6/5 24/10/1 25/9/4 26/7/6 
f 27/8/4 28/4/6 29/1/5 30/5/1 
s off
f 15/5/9 14/6/9 31/6/11 32/5/12 
f 14/6/9 17/7/10 33/7/13 31/6/11 
f 17/7/10 16/8/10 34/8/14 33/7/13 
f 16/8/10 15/5/9 32/5/12 34/8/14 
f 13/10/9 6/2/6 35/2/11 36/10/12 
f 6/2/6 5/3/5 37/3/13 35/2/11 
f 5/3/5 18/9/10 38/9/14 37/3/13 
f 18/9/10 13/10/9 36/10/12 38/9/14 
f 14/6/9 13/10/9 39/10/11 40/6/12 
f 13/10/9 18/9/10 41/9/13 39/10/11 
f 18/9/10 17/7/10 42/7/14 41/9/13 
f 17/7/10 14/6/9 40/6/12 42/7/14 
f 16/8/10 1/4/1 43/4/14 44/8/13 
f 1/4/1 4/1/4 45/1/12 43/4/14 
f 4/1/4 15/5/9 46/5/11 45/1/12 
f 15/5/9 16/8/10 44/8/13 46/5/11 
f 32/5/12 31/6/11 10/6/1 9/5/5 
f 31/6/11 33/7/13 11/7/4 10/6/1 
f 33/7/13 34/8/14 12/8/6 11/7/4 
f 34/8/14 32/5/12 9/5/5 12/8/6 
f 36/10/12 35/2/11 20/2/1 19/10/5 
f 35/2/11 37/3/13 21/3/4 20/2/1 
f 37/3/13 38/9/14 22/9/6 21/3/4 
f 38/9/14 36/10/12 19/10/5 22/9/6 
f 40/6/12 39/10/11 24/10/1 23/6/5 
f 39/10/11 41/9/13 25/9/4 24/10/1 
f 41/9/13 42/7/14 26/7/6 25/9/4 
f 42/7/14 40/6/12 23/6/5 26/7/6 
f 44/8/13 43/4/14 28/4/6 27/8/4 
f 43/4/14 45/1/12 29/1/5 28/4/6 
f 45/1/12 46/5/11 30/5/1 29/1/5 
f 46/5/11 44/8/13 27/8/4 30/5/1 
# 41 polygons

#
# object Box003
#

v  -0.6391 133.1876 50.3810
v  -0.6391 133.7676 50.3810
v  14.3609 133.7676 50.3810
v  14.3609 133.1876 50.3810
v  -0.6391 133.1876 51.8810
v  14.3609 133.1876 51.8810
v  14.3609 133.7676 51.8810
v  -0.6391 133.7676 51.8810
v  -0.6391 132.9776 50.5910
v  14.3609 132.9776 50.5910
v  14.3609 132.9776 51.6710
v  -0.6391 132.9776 51.6710
v  14.3609 133.9776 50.5910
v  14.3609 133.9776 51.6710
v  -0.6391 133.9776 50.5910
v  -0.6391 133.9776 51.6710
# 16 vertices

vn -0.6303 -0.2971 -0.7173
vn -0.6303 0.2971 -0.7173
vn 0.6303 0.2971 -0.7173
vn 0.6303 -0.2971 -0.7173
vn -0.6303 -0.2971 0.7173
vn 0.6303 -0.2971 0.7173
vn 0.6303 0.2971 0.7173
vn -0.6303 0.2971 0.7173
vn -0.6303 -0.7173 -0.2971
vn 0.6303 -0.7173 -0.2971
vn 0.6303 -0.7173 0.2971
vn -0.6303 -0.7173 0.2971
vn 0.6303 0.7173 -0.2971
vn 0.6303 0.7173 0.2971
vn -0.6303 0.7173 -0.2971
vn -0.6303 0.7173 0.2971
# 16 vertex normals

vt 1.0000 0.2100 0.0000
vt 1.0000 0.7900 0.0000
vt 0.0000 0.7900 0.0000
vt 0.0000 0.2100 0.0000
vt 0.0000 0.1400 0.0000
vt 1.0000 0.1400 0.0000
vt 1.0000 0.8600 0.0000
vt 0.0000 0.8600 0.0000
vt 0.2100 0.0000 0.0000
vt 0.7900 0.0000 0.0000
vt 0.7900 1.0000 0.0000
vt 0.2100 1.0000 0.0000
vt 1.0000 0.1848 0.0000
vt 0.0000 0.1848 0.0000
vt -0.0000 0.8152 0.0000
vt 1.0000 0.8152 0.0000
# 16 texture coords

o Box003
g Box003
usemtl wire_214228153
s 1
f 47/11/15 48/12/16 49/13/17 50/14/18 
f 51/14/19 52/11/20 53/12/21 54/13/22 
f 55/15/23 56/16/24 57/17/25 58/18/26 
s 2
f 56/15/24 50/19/18 49/20/17 59/16/27 60/17/28 53/21/21 52/22/20 57/18/25 
s 1
f 59/15/27 61/16/29 62/17/30 60/18/28 
s 2
f 61/15/29 48/19/16 47/20/15 55/16/23 58/17/26 51/21/19 54/22/22 62/18/30 
s 4
f 48/23/16 61/16/29 59/15/27 49/24/17 
f 50/23/18 56/16/24 55/15/23 47/24/15 
f 51/25/19 58/18/26 57/17/25 52/26/20 
f 53/25/21 60/18/28 62/17/30 54/26/22 
# 10 polygons

#
# object Box002
#

v  -12.1391 107.0000 49.3697
v  25.8609 107.0000 49.3697
v  25.8609 130.0000 49.3697
v  -12.1391 130.0000 49.3697
v  -12.1391 107.0000 9.3697
v  -12.1391 130.0000 9.3697
v  25.8609 130.0000 9.3697
v  25.8609 107.0000 9.3697
v  24.8609 110.0000 48.3697
v  24.8609 110.0000 10.3697
v  -11.1391 110.0000 10.3697
v  -11.1391 110.0000 48.3697
v  24.8609 130.0000 48.3697
v  -11.1391 130.0000 48.3697
v  24.8609 130.0000 10.3697
v  -11.1391 130.0000 10.3697
v  25.8609 138.0000 50.3697
v  -12.1391 138.0000 50.3697
v  -12.1391 107.0000 50.3697
v  25.8609 107.0000 50.3697
v  -12.1391 138.0000 49.3697
v  25.8609 138.0000 49.3697
# 22 vertices

vn -0.5774 -0.5774 0.5774
vn 0.5774 -0.5774 0.5774
vn 0.5774 0.5774 0.5774
vn -0.5774 0.5774 0.5774
vn -0.5774 -0.5774 -0.5774
vn -0.5774 0.5774 -0.5774
vn 0.5774 0.5774 -0.5774
vn 0.5774 -0.5774 -0.5774
vn -0.3015 0.9045 -0.3015
vn 0.3015 0.9045 -0.3015
vn -0.3015 0.9045 0.3015
vn 0.3015 0.9045 0.3015
# 12 vertex normals

vt 1.0000 0.0000 0.0000
vt 0.0000 0.0000 0.0000
vt 0.0000 1.0000 0.0000
vt 1.0000 1.0000 0.0000
vt 19.0000 15.5000 1.0000
vt -19.0000 15.5000 1.0000
vt -19.0000 -15.5000 1.0000
vt 19.0000 -15.5000 1.0000
vt -19.0000 -15.5000 0.0000
vt -19.0000 15.5000 -0.0000
vt 19.0000 15.5000 -0.0000
vt 19.0000 -15.5000 0.0000
# 12 texture coords

o Box002
g Box002
usemtl wire_006135006
s 2
f 63/27/31 64/28/32 65/29/33 66/30/34 
s 4
f 67/28/35 68/29/36 69/30/37 70/27/38 
s 8
f 63/28/31 67/29/35 70/30/38 64/27/32 
s 16
f 64/28/32 70/29/38 69/30/37 65/27/33 
s 32
f 71/28/36 72/29/34 73/30/33 74/27/37 
s 64
f 66/28/34 68/29/36 67/30/35 63/27/31 
s off
f 66/27/34 65/28/33 75/28/39 76/27/40 
f 65/28/33 69/29/37 77/29/41 75/28/39 
f 69/29/37 68/30/36 78/30/42 77/29/41 
f 68/30/36 66/27/34 76/27/40 78/30/42 
f 76/27/40 75/28/39 71/28/36 74/27/37 
f 75/28/39 77/29/41 72/29/34 71/28/36 
f 77/29/41 78/30/42 73/30/33 72/29/34 
f 78/30/42 76/27/40 74/27/37 73/30/33 
s 1
f 79/31/33 80/32/34 81/33/31 82/34/32 
f 63/35/35 83/36/36 84/37/37 64/38/38 
s 2
f 80/32/34 79/31/33 84/37/37 83/36/36 
s 4
f 81/33/31 80/32/34 83/36/36 63/35/35 
s 2
f 82/34/32 81/33/31 63/35/35 64/38/38 
s 4
f 79/31/33 82/34/32 64/38/38 84/37/37 
# 20 polygons

#
# object Box004
#

v  -12.1392 72.0000 37.5203
v  25.8608 72.0000 37.5203
v  25.8608 95.0000 37.5203
v  -12.1392 95.0000 37.5203
v  -12.1392 72.0000 -2.4797
v  -12.1392 95.0000 -2.4797
v  25.8608 95.0000 -2.4797
v  25.8608 72.0000 -2.4797
v  24.8608 75.0000 36.5203
v  24.8608 75.0000 -1.4797
v  -11.1392 75.0000 -1.4797
v  -11.1392 75.0000 36.5203
v  24.8608 95.0000 36.5203
v  -11.1392 95.0000 36.5203
v  24.8608 95.0000 -1.4797
v  -11.1392 95.0000 -1.4797
v  25.8608 103.0000 38.5203
v  -12.1392 103.0000 38.5203
v  -12.1392 72.0000 38.5203
v  25.8608 72.0000 38.5203
v  -12.1392 103.0000 37.5203
v  25.8608 103.0000 37.5203
# 22 vertices

vn -0.5774 -0.5774 0.5774
vn 0.5774 -0.5774 0.5774
vn 0.5774 0.5774 0.5774
vn -0.5774 0.5774 0.5774
vn -0.5774 -0.5774 -0.5774
vn -0.5774 0.5774 -0.5774
vn 0.5774 0.5774 -0.5774
vn 0.5774 -0.5774 -0.5774
vn -0.3015 0.9045 -0.3015
vn 0.3015 0.9045 -0.3015
vn -0.3015 0.9045 0.3015
vn 0.3015 0.9045 0.3015
# 12 vertex normals

vt 1.0000 0.0000 0.0000
vt 0.0000 0.0000 0.0000
vt 0.0000 1.0000 0.0000
vt 1.0000 1.0000 0.0000
vt 19.0000 15.5000 1.0000
vt -19.0000 15.5000 1.0000
vt -19.0000 -15.5000 1.0000
vt 19.0000 -15.5000 1.0000
vt -19.0000 -15.5000 0.0000
vt -19.0000 15.5000 -0.0000
vt 19.0000 15.5000 -0.0000
vt 19.0000 -15.5000 0.0000
# 12 texture coords

o Box004
g Box004
usemtl wire_006135006
s 2
f 85/39/43 86/40/44 87/41/45 88/42/46 
s 4
f 89/40/47 90/41/48 91/42/49 92/39/50 
s 8
f 85/40/43 89/41/47 92/42/50 86/39/44 
s 16
f 86/40/44 92/41/50 91/42/49 87/39/45 
s 32
f 93/40/48 94/41/46 95/42/45 96/39/49 
s 64
f 88/40/46 90/41/48 89/42/47 85/39/43 
s off
f 88/39/46 87/40/45 97/40/51 98/39/52 
f 87/40/45 91/41/49 99/41/53 97/40/51 
f 91/41/49 90/42/48 100/42/54 99/41/53 
f 90/42/48 88/39/46 98/39/52 100/42/54 
f 98/39/52 97/40/51 93/40/48 96/39/49 
f 97/40/51 99/41/53 94/41/46 93/40/48 
f 99/41/53 100/42/54 95/42/45 94/41/46 
f 100/42/54 98/39/52 96/39/49 95/42/45 
s 1
f 101/43/45 102/44/46 103/45/43 104/46/44 
f 85/47/47 105/48/48 106/49/49 86/50/50 
s 2
f 102/44/46 101/43/45 106/49/49 105/48/48 
s 4
f 103/45/43 102/44/46 105/48/48 85/47/47 
s 2
f 104/46/44 103/45/43 85/47/47 86/50/50 
s 4
f 101/43/45 104/46/44 86/50/50 106/49/49 
# 20 polygons

#
# object Box005
#

v  -0.6392 98.1876 38.5316
v  -0.6392 98.7676 38.5316
v  14.3608 98.7676 38.5316
v  14.3608 98.1876 38.5316
v  -0.6392 98.1876 40.0316
v  14.3608 98.1876 40.0316
v  14.3608 98.7676 40.0316
v  -0.6392 98.7676 40.0316
v  -0.6392 97.9776 38.7416
v  14.3608 97.9776 38.7416
v  14.3608 97.9776 39.8216
v  -0.6392 97.9776 39.8216
v  14.3608 98.9776 38.7416
v  14.3608 98.9776 39.8216
v  -0.6392 98.9776 38.7416
v  -0.6392 98.9776 39.8216
# 16 vertices

vn -0.6303 -0.2971 -0.7173
vn -0.6303 0.2971 -0.7173
vn 0.6303 0.2971 -0.7173
vn 0.6303 -0.2971 -0.7173
vn -0.6303 -0.2971 0.7173
vn 0.6303 -0.2971 0.7173
vn 0.6303 0.2971 0.7173
vn -0.6303 0.2971 0.7173
vn -0.6303 -0.7173 -0.2971
vn 0.6303 -0.7173 -0.2971
vn 0.6303 -0.7173 0.2971
vn -0.6303 -0.7173 0.2971
vn 0.6303 0.7173 -0.2971
vn 0.6303 0.7173 0.2971
vn -0.6303 0.7173 -0.2971
vn -0.6303 0.7173 0.2971
# 16 vertex normals

vt 1.0000 0.2100 0.0000
vt 1.0000 0.7900 0.0000
vt 0.0000 0.7900 0.0000
vt 0.0000 0.2100 0.0000
vt 0.0000 0.1400 0.0000
vt 1.0000 0.1400 0.0000
vt 1.0000 0.8600 0.0000
vt 0.0000 0.8600 0.0000
vt 0.2100 0.0000 0.0000
vt 0.7900 0.0000 0.0000
vt 0.7900 1.0000 0.0000
vt 0.2100 1.0000 0.0000
vt 1.0000 0.1848 0.0000
vt 0.0000 0.1848 0.0000
vt -0.0000 0.8152 0.0000
vt 1.0000 0.8152 0.0000
# 16 texture coords

o Box005
g Box005
usemtl wire_214228153
s 1
f 107/51/55 108/52/56 109/53/57 110/54/58 
f 111/54/59 112/51/60 113/52/61 114/53/62 
f 115/55/63 116/56/64 117/57/65 118/58/66 
s 2
f 116/55/64 110/59/58 109/60/57 119/56/67 120/57/68 113/61/61 112/62/60 117/58/65 
s 1
f 119/55/67 121/56/69 122/57/70 120/58/68 
s 2
f 121/55/69 108/59/56 107/60/55 115/56/63 118/57/66 111/61/59 114/62/62 122/58/70 
s 4
f 108/63/56 121/56/69 119/55/67 109/64/57 
f 110/63/58 116/56/64 115/55/63 107/64/55 
f 111/65/59 118/58/66 117/57/65 112/66/60 
f 113/65/61 120/58/68 122/57/70 114/66/62 
# 10 polygons

#
# object Box006
#

v  -12.1391 37.0000 37.5203
v  25.8609 37.0000 37.5203
v  25.8609 60.0000 37.5203
v  -12.1391 60.0000 37.5203
v  -12.1391 37.0000 -2.4797
v  -12.1391 60.0000 -2.4797
v  25.8609 60.0000 -2.4797
v  25.8609 37.0000 -2.4797
v  24.8609 40.0000 36.5203
v  24.8609 40.0000 -1.4797
v  -11.1391 40.0000 -1.4797
v  -11.1391 40.0000 36.5203
v  24.8609 60.0000 36.5203
v  -11.1391 60.0000 36.5203
v  24.8609 60.0000 -1.4797
v  -11.1391 60.0000 -1.4797
v  25.8609 68.0000 38.5203
v  -12.1391 68.0000 38.5203
v  -12.1391 37.0000 38.5203
v  25.8609 37.0000 38.5203
v  -12.1391 68.0000 37.5203
v  25.8609 68.0000 37.5203
# 22 vertices

vn -0.5774 -0.5774 0.5774
vn 0.5774 -0.5774 0.5774
vn 0.5774 0.5774 0.5774
vn -0.5774 0.5774 0.5774
vn -0.5774 -0.5774 -0.5774
vn -0.5774 0.5774 -0.5774
vn 0.5774 0.5774 -0.5774
vn 0.5774 -0.5774 -0.5774
vn -0.3015 0.9045 -0.3015
vn 0.3015 0.9045 -0.3015
vn -0.3015 0.9045 0.3015
vn 0.3015 0.9045 0.3015
# 12 vertex normals

vt 1.0000 0.0000 0.0000
vt 0.0000 0.0000 0.0000
vt 0.0000 1.0000 0.0000
vt 1.0000 1.0000 0.0000
vt 19.0000 15.5000 1.0000
vt -19.0000 15.5000 1.0000
vt -19.0000 -15.5000 1.0000
vt 19.0000 -15.5000 1.0000
vt -19.0000 -15.5000 0.0000
vt -19.0000 15.5000 -0.0000
vt 19.0000 15.5000 -0.0000
vt 19.0000 -15.5000 0.0000
# 12 texture coords

o Box006
g Box006
usemtl wire_006135006
s 2
f 123/67/71 124/68/72 125/69/73 126/70/74 
s 4
f 127/68/75 128/69/76 129/70/77 130/67/78 
s 8
f 123/68/71 127/69/75 130/70/78 124/67/72 
s 16
f 124/68/72 130/69/78 129/70/77 125/67/73 
s 32
f 131/68/76 132/69/74 133/70/73 134/67/77 
s 64
f 126/68/74 128/69/76 127/70/75 123/67/71 
s off
f 126/67/74 125/68/73 135/68/79 136/67/80 
f 125/68/73 129/69/77 137/69/81 135/68/79 
f 129/69/77 128/70/76 138/70/82 137/69/81 
f 128/70/76 126/67/74 136/67/80 138/70/82 
f 136/67/80 135/68/79 131/68/76 134/67/77 
f 135/68/79 137/69/81 132/69/74 131/68/76 
f 137/69/81 138/70/82 133/70/73 132/69/74 
f 138/70/82 136/67/80 134/67/77 133/70/73 
s 1
f 139/71/73 140/72/74 141/73/71 142/74/72 
f 123/75/75 143/76/76 144/77/77 124/78/78 
s 2
f 140/72/74 139/71/73 144/77/77 143/76/76 
s 4
f 141/73/71 140/72/74 143/76/76 123/75/75 
s 2
f 142/74/72 141/73/71 123/75/75 124/78/78 
s 4
f 139/71/73 142/74/72 124/78/78 144/77/77 
# 20 polygons

#
# object Box007
#

v  -0.6391 63.1876 38.5316
v  -0.6391 63.7676 38.5316
v  14.3609 63.7676 38.5316
v  14.3609 63.1876 38.5316
v  -0.6391 63.1876 40.0316
v  14.3609 63.1876 40.0316
v  14.3609 63.7676 40.0316
v  -0.6391 63.7676 40.0316
v  -0.6391 62.9776 38.7416
v  14.3609 62.9776 38.7416
v  14.3609 62.9776 39.8216
v  -0.6391 62.9776 39.8216
v  14.3609 63.9776 38.7416
v  14.3609 63.9776 39.8216
v  -0.6391 63.9776 38.7416
v  -0.6391 63.9776 39.8216
# 16 vertices

vn -0.6303 -0.2971 -0.7173
vn -0.6303 0.2971 -0.7173
vn 0.6303 0.2971 -0.7173
vn 0.6303 -0.2971 -0.7173
vn -0.6303 -0.2971 0.7173
vn 0.6303 -0.2971 0.7173
vn 0.6303 0.2971 0.7173
vn -0.6303 0.2971 0.7173
vn -0.6303 -0.7173 -0.2971
vn 0.6303 -0.7173 -0.2971
vn 0.6303 -0.7173 0.2971
vn -0.6303 -0.7173 0.2971
vn 0.6303 0.7173 -0.2971
vn 0.6303 0.7173 0.2971
vn -0.6303 0.7173 -0.2971
vn -0.6303 0.7173 0.2971
# 16 vertex normals

vt 1.0000 0.2100 0.0000
vt 1.0000 0.7900 0.0000
vt 0.0000 0.7900 0.0000
vt 0.0000 0.2100 0.0000
vt 0.0000 0.1400 0.0000
vt 1.0000 0.1400 0.0000
vt 1.0000 0.8600 0.0000
vt 0.0000 0.8600 0.0000
vt 0.2100 0.0000 0.0000
vt 0.7900 0.0000 0.0000
vt 0.7900 1.0000 0.0000
vt 0.2100 1.0000 0.0000
vt 1.0000 0.1848 0.0000
vt 0.0000 0.1848 0.0000
vt -0.0000 0.8152 0.0000
vt 1.0000 0.8152 0.0000
# 16 texture coords

o Box007
g Box007
usemtl wire_214228153
s 1
f 145/79/83 146/80/84 147/81/85 148/82/86 
f 149/82/87 150/79/88 151/80/89 152/81/90 
f 153/83/91 154/84/92 155/85/93 156/86/94 
s 2
f 154/83/92 148/87/86 147/88/85 157/84/95 158/85/96 151/89/89 150/90/88 155/86/93 
s 1
f 157/83/95 159/84/97 160/85/98 158/86/96 
s 2
f 159/83/97 146/87/84 145/88/83 153/84/91 156/85/94 149/89/87 152/90/90 160/86/98 
s 4
f 146/91/84 159/84/97 157/83/95 147/92/85 
f 148/91/86 154/84/92 153/83/91 145/92/83 
f 149/93/87 156/86/94 155/85/93 150/94/88 
f 151/93/89 158/86/96 160/85/98 152/94/90 
# 10 polygons

#
# object Box008
#

v  -12.1391 2.0000 37.5203
v  25.8609 2.0000 37.5203
v  25.8609 25.0000 37.5203
v  -12.1391 25.0000 37.5203
v  -12.1391 2.0000 -2.4797
v  -12.1391 25.0000 -2.4797
v  25.8609 25.0000 -2.4797
v  25.8609 2.0000 -2.4797
v  24.8609 5.0000 36.5203
v  24.8609 5.0000 -1.4797
v  -11.1391 5.0000 -1.4797
v  -11.1391 5.0000 36.5203
v  24.8609 25.0000 36.5203
v  -11.1391 25.0000 36.5203
v  24.8609 25.0000 -1.4797
v  -11.1391 25.0000 -1.4797
v  25.8609 33.0000 38.5203
v  -12.1391 33.0000 38.5203
v  -12.1391 2.0000 38.5203
v  25.8609 2.0000 38.5203
v  -12.1391 33.0000 37.5203
v  25.8609 33.0000 37.5203
# 22 vertices

vn -0.5774 -0.5774 0.5774
vn 0.5774 -0.5774 0.5774
vn 0.5774 0.5774 0.5774
vn -0.5774 0.5774 0.5774
vn -0.5774 -0.5774 -0.5774
vn -0.5774 0.5774 -0.5774
vn 0.5774 0.5774 -0.5774
vn 0.5774 -0.5774 -0.5774
vn -0.3015 0.9045 -0.3015
vn 0.3015 0.9045 -0.3015
vn -0.3015 0.9045 0.3015
vn 0.3015 0.9045 0.3015
# 12 vertex normals

vt 1.0000 0.0000 0.0000
vt 0.0000 0.0000 0.0000
vt 0.0000 1.0000 0.0000
vt 1.0000 1.0000 0.0000
vt 19.0000 15.5000 1.0000
vt -19.0000 15.5000 1.0000
vt -19.0000 -15.5000 1.0000
vt 19.0000 -15.5000 1.0000
vt -19.0000 -15.5000 0.0000
vt -19.0000 15.5000 -0.0000
vt 19.0000 15.5000 -0.0000
vt 19.0000 -15.5000 0.0000
# 12 texture coords

o Box008
g Box008
usemtl wire_006135006
s 2
f 161/95/99 162/96/100 163/97/101 164/98/102 
s 4
f 165/96/103 166/97/104 167/98/105 168/95/106 
s 8
f 161/96/99 165/97/103 168/98/106 162/95/100 
s 16
f 162/96/100 168/97/106 167/98/105 163/95/101 
s 32
f 169/96/104 170/97/102 171/98/101 172/95/105 
s 64
f 164/96/102 166/97/104 165/98/103 161/95/99 
s off
f 164/95/102 163/96/101 173/96/107 174/95/108 
f 163/96/101 167/97/105 175/97/109 173/96/107 
f 167/97/105 166/98/104 176/98/110 175/97/109 
f 166/98/104 164/95/102 174/95/108 176/98/110 
f 174/95/108 173/96/107 169/96/104 172/95/105 
f 173/96/107 175/97/109 170/97/102 169/96/104 
f 175/97/109 176/98/110 171/98/101 170/97/102 
f 176/98/110 174/95/108 172/95/105 171/98/101 
s 1
f 177/99/101 178/100/102 179/101/99 180/102/100 
f 161/103/103 181/104/104 182/105/105 162/106/106 
s 2
f 178/100/102 177/99/101 182/105/105 181/104/104 
s 4
f 179/101/99 178/100/102 181/104/104 161/103/103 
s 2
f 180/102/100 179/101/99 161/103/103 162/106/106 
s 4
f 177/99/101 180/102/100 162/106/106 182/105/105 
# 20 polygons

#
# object Box009
#

v  -0.6391 28.1876 38.5316
v  -0.6391 28.7676 38.5316
v  14.3609 28.7676 38.5316
v  14.3609 28.1876 38.5316
v  -0.6391 28.1876 40.0316
v  14.3609 28.1876 40.0316
v  14.3609 28.7676 40.0316
v  -0.6391 28.7676 40.0316
v  -0.6391 27.9776 38.7416
v  14.3609 27.9776 38.7416
v  14.3609 27.9776 39.8216
v  -0.6391 27.9776 39.8216
v  14.3609 28.9776 38.7416
v  14.3609 28.9776 39.8216
v  -0.6391 28.9776 38.7416
v  -0.6391 28.9776 39.8216
# 16 vertices

vn -0.6303 -0.2971 -0.7173
vn -0.6303 0.2971 -0.7173
vn 0.6303 0.2971 -0.7173
vn 0.6303 -0.2971 -0.7173
vn -0.6303 -0.2971 0.7173
vn 0.6303 -0.2971 0.7173
vn 0.6303 0.2971 0.7173
vn -0.6303 0.2971 0.7173
vn -0.6303 -0.7173 -0.2971
vn 0.6303 -0.7173 -0.2971
vn 0.6303 -0.7173 0.2971
vn -0.6303 -0.7173 0.2971
vn 0.6303 0.7173 -0.2971
vn 0.6303 0.7173 0.2971
vn -0.6303 0.7173 -0.2971
vn -0.6303 0.7173 0.2971
# 16 vertex normals

vt 1.0000 0.2100 0.0000
vt 1.0000 0.7900 0.0000
vt 0.0000 0.7900 0.0000
vt 0.0000 0.2100 0.0000
vt 0.0000 0.1400 0.0000
vt 1.0000 0.1400 0.0000
vt 1.0000 0.8600 0.0000
vt 0.0000 0.8600 0.0000
vt 0.2100 0.0000 0.0000
vt 0.7900 0.0000 0.0000
vt 0.7900 1.0000 0.0000
vt 0.2100 1.0000 0.0000
vt 1.0000 0.1848 0.0000
vt 0.0000 0.1848 0.0000
vt -0.0000 0.8152 0.0000
vt 1.0000 0.8152 0.0000
# 16 texture coords

o Box009
g Box009
usemtl wire_214228153
s 1
f 183/107/111 184/108/112 185/109/113 186/110/114 
f 187/110/115 188/107/116 189/108/117 190/109/118 
f 191/111/119 192/112/120 193/113/121 194/114/122 
s 2
f 192/111/120 186/115/114 185/116/113 195/112/123 196/113/124 189/117/117 188/118/116 193/114/121 
s 1
f 195/111/123 197/112/125 198/113/126 196/114/124 
s 2
f 197/111/125 184/115/112 183/116/111 191/112/119 194/113/122 187/117/115 190/118/118 198/114/126 
s 4
f 184/119/112 197/112/125 195/111/123 185/120/113 
f 186/119/114 192/112/120 191/111/119 183/120/111 
f 187/121/115 194/114/122 193/113/121 188/122/116 
f 189/121/117 196/114/124 198/113/126 190/122/118 
# 10 polygons

