ply
format ascii 1.0
element vertex 48
comment vertices
property float x
property float y
property float z
end_header
-0.051374875009059906 2.48967194557189941 -0.570642471313476562
0.225064545869827271 2.65993165969848633 -0.493515670299530029
-0.0605450049042701721 2.51605224609375 -0.551136136054992676
0.0943620577454566956 2.54715538024902344 -0.55607306957244873
0.0835661888122558594 2.49527239799499512 -0.487875878810882568
-0.0648863315582275391 2.47654199600219727 -0.593684136867523193
-0.0484715923666954041 2.49721384048461914 -0.582028627395629883
-0.0269113518297672272 2.54414534568786621 -0.568848371505737305
0.179343104362487793 2.50800347328186035 -0.527834057807922363
-0.0249677356332540512 2.48859715461730957 -0.524248957633972168
0.0328068360686302185 2.61887526512145996 -0.503279626369476318
0.270343005657196045 2.6439671516418457 -0.593187928199768066
0.0267682000994682312 2.67996811866760254 -0.464163839817047119
0.115816980600357056 2.74609041213989258 -0.424677580595016479
0.311248570680618286 2.63197708129882812 -0.514741122722625732
0.0316525176167488098 2.61548137664794922 -0.550296545028686523
-0.125363022089004517 2.53247547149658203 -0.534450531005859375
0.0815458968281745911 2.38994789123535156 -0.588663935661315918
0.223476454615592957 2.58690881729125977 -0.518449723720550537
0.192432612180709839 2.52689051628112793 -0.495559215545654297
-0.0974413156509399414 2.45704436302185059 -0.555788576602935791
-0.0290554091334342957 2.54831719398498535 -0.511050701141357422
0.125210091471672058 2.54496002197265625 -0.553987324237823486
0.0497486144304275513 2.74108076095581055 -0.50756382942199707
0.105733320116996765 2.51684260368347168 -0.519833564758300781
-0.00563348457217216492 2.48472285270690918 -0.584600150585174561
0.183026090264320374 2.62597250938415527 -0.504329681396484375
0.157165959477424622 2.3703155517578125 -0.567434191703796387
0.123295754194259644 2.61969947814941406 -0.464060306549072266
0.071318015456199646 2.40359759330749512 -0.211950808763504028
0.128770366311073303 2.40113186836242676 -0.521158039569854736
0.00501254387199878693 2.65221881866455078 -0.505735576152801514
0.0449272915720939636 2.5356907844543457 -0.560106158256530762
0.0613557957112789154 2.52153182029724121 -0.580254554748535156
-0.133524894714355469 2.63531160354614258 -0.351329386234283447
0.0366214923560619354 2.65004253387451172 -0.468256920576095581
0.0261363349854946136 2.38075733184814453 -0.612525582313537598
0.0956805646419525146 2.51998662948608398 -0.532123327255249023
-0.0246920324862003326 2.46099996566772461 -0.529866516590118408
-0.0836449116468429565 2.5599205493927002 -0.567239046096801758
0.220599114894866943 2.65213871002197266 -0.546653330326080322
0.157340109348297119 2.66071200370788574 -0.515864074230194092
-0.0521191395819187164 2.54672789573669434 -0.51001429557800293
-0.0296203605830669403 2.49028468132019043 -0.591103434562683105
-0.0136517845094203949 2.46461248397827148 -0.623137235641479492
-0.0469376817345619202 2.41411447525024414 -0.60196155309677124
0.0329074673354625702 2.46893215179443359 -0.523378849029541016
-0.0955057442188262939 2.5233147144317627 -0.55134129524230957
