ply
format ascii 1.0
element vertex 71
comment vertices
property float x
property float y
property float z
end_header
-0.240436956286430359 2.95480608940124512 -0.734481155872344971
-0.167766645550727844 3.09623265266418457 -0.762208819389343262
-1.50461578369140625 3.96083331108093262 -0.706071257591247559
-0.704051494598388672 3.10639238357543945 -0.682290792465209961
-0.0470721349120140076 2.93257880210876465 -0.802229881286621094
1.23865532875061035 3.98154020309448242 -0.879227101802825928
-0.686566293239593506 3.2030785083770752 -0.631145119667053223
-0.377200603485107422 3.09527945518493652 -0.589690029621124268
-0.149421393871307373 3.02500391006469727 -0.738221228122711182
-1.91046571731567383 4.05727481842041016 -0.833483695983886719
-0.173369333148002625 3.03865218162536621 -0.724899947643280029
-1.66233193874359131 3.87470793724060059 -0.754078269004821777
-0.366746574640274048 2.90459084510803223 -0.664756715297698975
0.0769513994455337524 3.04018115997314453 -0.77332007884979248
0.989488482475280762 3.92608499526977539 -0.88039785623550415
-0.552964568138122559 3.04493808746337891 -0.76241767406463623
-0.55646592378616333 3.20437479019165039 -0.711360037326812744
-1.8962395191192627 3.95184755325317383 -0.769538521766662598
-0.465174436569213867 3.28916525840759277 -0.689027130603790283
0.261716395616531372 3.20956850051879883 -0.757968902587890625
-0.656612932682037354 3.14294767379760742 -0.654214680194854736
-0.707651972770690918 3.16868114471435547 -0.642122864723205566
-0.0654345080256462097 3.11586403846740723 -0.717114031314849854
1.19476222991943359 3.76856160163879395 -0.83278048038482666
-0.690760612487792969 3.08083224296569824 -0.718563556671142578
-0.279263347387313843 3.02041459083557129 -0.696391165256500244
-1.3480079174041748 4.03026628494262695 -0.846459865570068359
-1.92617583274841309 3.96776103973388672 -0.777062296867370605
-1.47285997867584229 3.93276381492614746 -0.836412250995635986
-0.259760260581970215 2.80637717247009277 -0.730511963367462158
1.13506674766540527 3.85528278350830078 -0.847723245620727539
0.0917278602719306946 3.10660934448242188 -0.736352026462554932
1.18396294116973877 3.86700320243835449 -0.826492965221405029
0.0941343903541564941 3.04757523536682129 -0.736024916172027588
-0.213473498821258545 3.13794088363647461 -0.536771714687347412
-0.352137923240661621 3.10787391662597656 -0.643387079238891602
-0.592531561851501465 3.03065109252929688 -0.645860671997070312
-0.193809986114501953 3.01316475868225098 -0.707241714000701904
-0.621197819709777832 3.12490415573120117 -0.653267979621887207
1.23496043682098389 3.86350512504577637 -0.922645330429077148
-0.651920497417449951 3.13956999778747559 -0.708563506603240967
0.172345146536827087 3.17309331893920898 -0.783481359481811523
-0.170931190252304077 3.18873453140258789 -0.758344411849975586
-0.379920005798339844 3.11935305595397949 -0.581451177597045898
-0.382206827402114868 3.12743091583251953 -0.699899137020111084
-0.409934848546981812 3.21984529495239258 -0.688426554203033447
-0.474409937858581543 3.13266706466674805 -0.66025465726852417
1.20081949234008789 3.83496308326721191 -0.859809577465057373
-1.40921807289123535 3.9853513240814209 -0.910378932952880859
-0.00981679186224937439 2.90332651138305664 -0.8223685622215271
-0.610803127288818359 3.20386767387390137 -0.738968014717102051
1.03364288806915283 3.88641715049743652 -0.815057098865509033
-0.578384995460510254 3.18272209167480469 -0.664328277111053467
-0.864699482917785645 3.00625514984130859 -0.803666114807128906
-0.585880815982818604 3.04512500762939453 -0.706234991550445557
-0.123905479907989502 3.22600245475769043 -0.731465518474578857
1.76607418060302734 3.81299042701721191 -0.729587972164154053
-0.0793419256806373596 3.09058403968811035 -0.626821517944335938
0.155771031975746155 3.0859677791595459 -0.673501729965209961
1.56892848014831543 3.9397273063659668 -0.787465095520019531
-0.569806218147277832 3.14181900024414062 -0.612160623073577881
1.0438847541809082 3.97181487083435059 -0.811141073703765869
-0.0771786272525787354 2.94540023803710938 -0.740542054176330566
0.319183319807052612 2.9639441967010498 -0.82813185453414917
-1.59610271453857422 3.89605188369750977 -0.800312221050262451
-0.48644062876701355 3.02560830116271973 -0.668017745018005371
-0.236201062798500061 3.17926406860351562 -0.757129371166229248
-0.195237204432487488 3.07021284103393555 -0.693278729915618896
0.983584880828857422 3.97825193405151367 -0.845959126949310303
1.16992902755737305 3.83443737030029297 -0.796196639537811279
-0.412567287683486938 3.09910416603088379 -0.71604454517364502
