ply
format ascii 1.0
element vertex 256
comment vertices
property float x
property float y
property float z
end_header
-0.773622751235961914 2.59591293334960938 -0.759600400924682617
2.79737710952758789 7.94407510757446289 2.00634765625
-1.47343361377716064 6.48464775085449219 3.22562170028686523
2.05615472793579102 3.82589364051818848 0.282358556985855103
-2.97185897827148438 4.53600502014160156 0.786499142646789551
0.113401733338832855 6.28518867492675781 2.25150370597839355
-0.240436956286430359 2.95480608940124512 -0.734481155872344971
1.42742300033569336 2.85622978210449219 -1.6245572566986084
3.42063713073730469 6.19852018356323242 -0.609456896781921387
-2.65738534927368164 4.03542900085449219 -0.791321337223052979
2.5938575267791748 4.83225536346435547 2.46445393562316895
-0.571261227130889893 8.03864479064941406 2.17065167427062988
1.09827423095703125 7.76158237457275391 2.42514967918395996
2.54572868347167969 4.07911109924316406 -0.842420816421508789
-1.52652418613433838 6.86153316497802734 2.21655964851379395
1.32330870628356934 4.07583713531494141 2.38641476631164551
-0.58671039342880249 4.17170095443725586 2.14257955551147461
-0.167766645550727844 3.09623265266418457 -0.762208819389343262
-1.84541141986846924 3.01689004898071289 -0.775949597358703613
0.890815019607543945 3.98523855209350586 -0.578624069690704346
2.86514115333557129 6.46312570571899414 2.04419231414794922
-1.50461578369140625 3.96083331108093262 -0.706071257591247559
1.6546255350112915 6.70369434356689453 2.48373627662658691
-1.61061978340148926 7.8518986701965332 2.27766084671020508
-0.704051494598388672 3.10639238357543945 -0.682290792465209961
2.17957687377929688 3.75533127784729004 -0.786250174045562744
0.0666909217834472656 7.30207347869873047 2.36556172370910645
1.01023924350738525 5.62673759460449219 1.98076260089874268
-0.0470721349120140076 2.93257880210876465 -0.802229881286621094
1.06502342224121094 3.81838512420654297 -0.302001684904098511
0.0686186105012893677 5.00065994262695312 -0.120229825377464294
1.23865532875061035 3.98154020309448242 -0.879227101802825928
2.31637740135192871 7.24581050872802734 2.02950263023376465
-0.135597646236419678 4.376068115234375 1.18228495121002197
0.303754687309265137 3.32590007781982422 -0.929063737392425537
-0.686566293239593506 3.2030785083770752 -0.631145119667053223
-2.56621313095092773 3.71562814712524414 -0.497804850339889526
-2.02242112159729004 6.91868066787719727 2.29683709144592285
-0.708100438117980957 6.82225513458251953 2.48082470893859863
-1.77546977996826172 3.86748671531677246 0.221607208251953125
0.85879826545715332 6.91130161285400391 2.59075641632080078
0.416205704212188721 3.17760443687438965 -0.798953235149383545
2.58277201652526855 3.71559000015258789 2.43413996696472168
-0.377200603485107422 3.09527945518493652 -0.589690029621124268
-0.792406558990478516 3.90765070915222168 -0.251894772052764893
-0.149421393871307373 3.02500391006469727 -0.738221228122711182
-1.91046571731567383 4.05727481842041016 -0.833483695983886719
-0.173369333148002625 3.03865218162536621 -0.724899947643280029
-1.35391318798065186 2.91168093681335449 -0.740389108657836914
1.99156808853149414 3.96259546279907227 -0.48997768759727478
2.06841635704040527 7.89360713958740234 2.16120123863220215
-1.66233193874359131 3.87470793724060059 -0.754078269004821777
-1.0398482084274292 7.49596500396728516 2.14913749694824219
3.55485725402832031 6.21947002410888672 0.40290340781211853
2.51460528373718262 4.30041646957397461 0.805187344551086426
1.78822362422943115 3.734222412109375 -0.771946191787719727
-0.366746574640274048 2.90459084510803223 -0.664756715297698975
0.0769513994455337524 3.04018115997314453 -0.77332007884979248
2.41142439842224121 3.33154082298278809 -0.816937029361724854
1.72584378719329834 7.44154596328735352 2.29871773719787598
-2.07082343101501465 4.60022068023681641 1.60278987884521484
0.526324093341827393 7.83550834655761719 2.30305647850036621
2.29562497138977051 6.73842144012451172 2.40114951133728027
0.205157577991485596 4.14217185974121094 0.254789412021636963
1.59537613391876221 3.99717497825622559 -0.836807310581207275
-1.22664082050323486 3.08700752258300781 -0.571343660354614258
2.86414933204650879 7.43717479705810547 2.02151131629943848
2.25921106338500977 3.75315499305725098 -0.748675286769866943
-0.47843441367149353 7.35673713684082031 2.39602375030517578
0.989488482475280762 3.92608499526977539 -0.88039785623550415
-0.552964568138122559 3.04493808746337891 -0.76241767406463623
-0.55646592378616333 3.20437479019165039 -0.711360037326812744
-1.8962395191192627 3.95184755325317383 -0.769538521766662598
-0.0919412523508071899 6.7281031608581543 2.41852593421936035
0.0455123856663703918 7.82735347747802734 2.32351303100585938
-0.465174436569213867 3.28916525840759277 -0.689027130603790283
-2.2466733455657959 4.11371135711669922 -0.692594468593597412
1.62477004528045654 3.59027647972106934 -0.657185733318328857
0.786859631538391113 6.17366504669189453 2.1835625171661377
-2.47335290908813477 4.30231571197509766 0.131170302629470825
2.00249457359313965 4.08895206451416016 -0.139881357550621033
-0.00356957502663135529 3.2054741382598877 -0.31753772497177124
0.379467517137527466 3.06094861030578613 -0.895314455032348633
0.645466744899749756 7.46969175338745117 2.50882959365844727
0.519383370876312256 4.49105119705200195 2.19601988792419434
1.47013163566589355 7.91007614135742188 2.37742447853088379
2.13926124572753906 4.64688491821289062 1.64483296871185303
1.04929685592651367 4.62096929550170898 1.23249137401580811
2.00372743606567383 3.8539726734161377 -0.841899275779724121
0.440248817205429077 5.8963775634765625 2.05315971374511719
-0.76898038387298584 4.4586482048034668 0.998428225517272949
-1.63476550579071045 7.49141407012939453 2.1914207935333252
-1.5782310962677002 4.7014923095703125 1.39215385913848877
0.261716395616531372 3.20956850051879883 -0.757968902587890625
-2.16218447685241699 3.99819755554199219 -0.66310417652130127
1.25231266021728516 7.07050609588623047 2.5561070442199707
-0.656612932682037354 3.14294767379760742 -0.654214680194854736
-0.707651972770690918 3.16868114471435547 -0.642122864723205566
-0.0654345080256462097 3.11586403846740723 -0.717114031314849854
1.19476222991943359 3.76856160163879395 -0.83278048038482666
1.46268260478973389 3.45646810531616211 -0.893298685550689697
-0.690760612487792969 3.08083224296569824 -0.718563556671142578
-0.279263347387313843 3.02041459083557129 -0.696391165256500244
-1.3480079174041748 4.03026628494262695 -0.846459865570068359
1.6195831298828125 3.88177728652954102 0.0946332216262817383
0.21961483359336853 4.05628776550292969 2.56599330902099609
2.5646522045135498 6.87195110321044922 2.11708950996398926
1.25003588199615479 6.20221757888793945 2.2702784538269043
1.87907421588897705 6.93661737442016602 2.41735935211181641
-1.92617583274841309 3.96776103973388672 -0.777062296867370605
1.97441947460174561 5.79681301116943359 2.03411173820495605
-1.03877055644989014 7.09615755081176758 2.29495930671691895
2.74646258354187012 6.08012771606445312 2.0415494441986084
-1.47285997867584229 3.93276381492614746 -0.836412250995635986
-0.521389901638031006 2.80281996726989746 -0.406806379556655884
-0.259760260581970215 2.80637717247009277 -0.730511963367462158
2.37183094024658203 3.88040566444396973 0.357942849397659302
2.16566228866577148 4.07238960266113281 -0.711779594421386719
0.905169963836669922 3.74669790267944336 -0.717899084091186523
0.345964580774307251 6.68347263336181641 2.46594786643981934
-2.16864991188049316 3.8497769832611084 -0.779700219631195068
1.09701311588287354 6.55385065078735352 2.42473793029785156
1.13506674766540527 3.85528278350830078 -0.847723245620727539
0.282819777727127075 3.80498409271240234 -0.3249988853931427
0.0917278602719306946 3.10660934448242188 -0.736352026462554932
-1.56102609634399414 4.25127744674682617 0.0939942300319671631
-0.463694840669631958 2.8074791431427002 -0.675395965576171875
2.09645819664001465 4.18068361282348633 -0.807796895503997803
1.18396294116973877 3.86700320243835449 -0.826492965221405029
0.0941343903541564941 3.04757523536682129 -0.736024916172027588
-1.37377715110778809 7.862701416015625 1.98218405246734619
-1.10393166542053223 2.78823041915893555 -0.800556063652038574
-2.92139172554016113 4.2335209846496582 0.330400317907333374
-1.98296809196472168 3.44956135749816895 -0.724649310111999512
3.0845026969909668 7.75453758239746094 2.09139657020568848
-0.213473498821258545 3.13794088363647461 -0.536771714687347412
-0.352137923240661621 3.10787391662597656 -0.643387079238891602
2.01464486122131348 3.86351442337036133 -0.828123152256011963
1.26026010513305664 3.57834124565124512 -0.358705341815948486
-0.592531561851501465 3.03065109252929688 -0.645860671997070312
-0.193809986114501953 3.01316475868225098 -0.707241714000701904
-0.621197819709777832 3.12490415573120117 -0.653267979621887207
0.688832223415374756 3.68379521369934082 -0.888383686542510986
1.23496043682098389 3.86350512504577637 -0.922645330429077148
2.2685091495513916 3.84024953842163086 -0.761115849018096924
-0.651920497417449951 3.13956999778747559 -0.708563506603240967
0.350645780563354492 7.01424312591552734 2.6051633358001709
-1.64400005340576172 2.71383976936340332 -0.921564698219299316
-1.67801260948181152 7.10290718078613281 2.19956588745117188
-1.39722156524658203 3.80168819427490234 -0.662218570709228516
1.94002282619476318 3.59797787666320801 -0.91034233570098877
2.29064822196960449 4.22473812103271484 0.670450985431671143
-1.50097787380218506 4.2024388313293457 0.38218197226524353
-2.09628009796142578 4.02218246459960938 -0.734046816825866699
-1.56077969074249268 3.16679525375366211 -0.717437386512756348
0.930684387683868408 3.02422070503234863 -0.604854583740234375
-2.37926197052001953 4.54051828384399414 0.95605391263961792
0.172345146536827087 3.17309331893920898 -0.783481359481811523
0.528927862644195557 4.41172218322753906 0.73983001708984375
2.23808407783508301 7.51050996780395508 2.18017292022705078
2.0220191478729248 3.97743678092956543 -0.590490460395812988
-2.07044768333435059 7.08052396774291992 2.0726923942565918
-0.00319968163967132568 4.48217868804931641 1.23858809471130371
-0.226887941360473633 2.64701199531555176 -0.750265061855316162
-1.09602034091949463 7.89326047897338867 2.07381415367126465
-0.170931190252304077 3.18873453140258789 -0.758344411849975586
-0.379920005798339844 3.11935305595397949 -0.581451177597045898
2.39258122444152832 7.97327327728271484 2.15942668914794922
1.25651264190673828 3.04992365837097168 -0.817607522010803223
-1.00224030017852783 2.99193692207336426 -0.701513409614562988
-0.25406154990196228 7.15869760513305664 2.53205513954162598
0.975019335746765137 7.14641237258911133 2.50411677360534668
1.66054749488830566 3.60011863708496094 -0.775474488735198975
1.9087597131729126 3.15897774696350098 -0.833983302116394043
1.8557593822479248 7.66306114196777344 2.31520581245422363
-0.382206827402114868 3.12743091583251953 -0.699899137020111084
-0.78537440299987793 4.00557088851928711 0.00867685675621032715
0.349569737911224365 7.65262031555175781 2.31784701347351074
0.400127768516540527 3.03996706008911133 -0.512982666492462158
-0.409934848546981812 3.21984529495239258 -0.688426554203033447
1.25732421875 7.44175195693969727 2.54472732543945312
1.33526885509490967 4.54651689529418945 1.19283878803253174
2.4180757999420166 6.91928386688232422 2.16942667961120605
0.232812732458114624 3.40350461006164551 -0.739999234676361084
-1.88291609287261963 4.47047758102416992 0.5999717116355896
1.78334903717041016 3.87453007698059082 -0.819442987442016602
2.03179454803466797 7.40159845352172852 2.20378255844116211
-1.87125504016876221 6.84244585037231445 2.12487006187438965
1.61677265167236328 7.02870368957519531 2.51822113990783691
-1.3912498950958252 4.08759498596191406 0.257227540016174316
0.77526402473449707 5.87520551681518555 2.07542204856872559
0.949984133243560791 3.65255451202392578 -0.770011663436889648
1.17673110961914062 3.50008463859558105 -0.64937824010848999
-0.474409937858581543 3.13266706466674805 -0.66025465726852417
-2.28466629981994629 4.14140558242797852 -0.0356822535395622253
-1.90486526489257812 7.65652561187744141 2.00927972793579102
-0.403817892074584961 7.68635988235473633 2.27594280242919922
1.20081949234008789 3.83496308326721191 -0.859809577465057373
-1.40921807289123535 3.9853513240814209 -0.910378932952880859
0.399991989135742188 4.56653833389282227 1.24836945533752441
-0.00981679186224937439 2.90332651138305664 -0.8223685622215271
2.07676577568054199 6.71420192718505859 2.57703185081481934
-1.39640128612518311 7.27900505065917969 2.2007756233215332
0.711542427539825439 4.2214970588684082 0.300118505954742432
1.01057124137878418 2.66178297996520996 -1.03094398975372314
-0.610803127288818359 3.20386767387390137 -0.738968014717102051
1.03364288806915283 3.88641715049743652 -0.815057098865509033
-0.627969682216644287 4.44774389266967773 2.16879653930664062
2.58043408393859863 6.70613193511962891 2.13001918792724609
-0.578384995460510254 3.18272209167480469 -0.664328277111053467
-0.591629147529602051 6.6815333366394043 2.48751425743103027
1.76969027519226074 4.21286535263061523 2.37004733085632324
-0.864699482917785645 3.00625514984130859 -0.803666114807128906
2.06344509124755859 3.63717365264892578 -0.792414665222167969
-2.81443405151367188 4.15122079849243164 -0.159946650266647339
-0.585880815982818604 3.04512500762939453 -0.706234991550445557
-0.123905479907989502 3.22600245475769043 -0.731465518474578857
0.319173634052276611 3.6780555248260498 -0.339801669120788574
1.76607418060302734 3.81299042701721191 -0.729587972164154053
-0.0793419256806373596 3.09058403968811035 -0.626821517944335938
0.155771031975746155 3.0859677791595459 -0.673501729965209961
0.291649222373962402 2.89400744438171387 -0.591014325618743896
0.799677491188049316 2.89431262016296387 -0.831959187984466553
0.943808972835540771 7.86301517486572266 2.36797070503234863
1.56892848014831543 3.9397273063659668 -0.787465095520019531
-2.5109245777130127 4.138580322265625 -0.263151377439498901
0.552538812160491943 6.55673313140869141 2.46648502349853516
0.62713092565536499 7.72907686233520508 2.28342437744140625
-0.569806218147277832 3.14181900024414062 -0.612160623073577881
1.0438847541809082 3.97181487083435059 -0.811141073703765869
2.76607966423034668 7.89526653289794922 2.10549259185791016
2.59233331680297852 7.43245458602905273 2.02872848510742188
1.44596517086029053 6.84739923477172852 2.4522707462310791
-1.91227388381958008 3.9254918098449707 -0.667608261108398438
-0.0771786272525787354 2.94540023803710938 -0.740542054176330566
1.73535311222076416 4.63463258743286133 1.14807331562042236
-0.854110479354858398 7.20742893218994141 2.23115253448486328
-1.09089648723602295 3.02373218536376953 -0.790351271629333496
0.319183319807052612 2.9639441967010498 -0.82813185453414917
0.101745449006557465 3.95769047737121582 0.0856094062328338623
-1.59610271453857422 3.89605188369750977 -0.800312221050262451
1.40106296539306641 3.98465323448181152 0.0435921400785446167
1.47602558135986328 3.79176163673400879 -0.735720574855804443
-0.48644062876701355 3.02560830116271973 -0.668017745018005371
-0.0741312950849533081 4.71200037002563477 1.82600498199462891
2.14408302307128906 3.92773914337158203 -0.844200193881988525
-0.236201062798500061 3.17926406860351562 -0.757129371166229248
-0.195237204432487488 3.07021284103393555 -0.693278729915618896
0.983584880828857422 3.97825193405151367 -0.845959126949310303
1.16992902755737305 3.83443737030029297 -0.796196639537811279
1.62618136405944824 7.81474447250366211 2.3459625244140625
1.23294389247894287 3.26439070701599121 -0.819665908813476562
0.715270519256591797 7.07289409637451172 2.59177494049072266
-0.511401832103729248 4.64857006072998047 1.5038609504699707
-0.501804232597351074 3.95847678184509277 -0.112692847847938538
-0.412567287683486938 3.09910416603088379 -0.71604454517364502
