ply
format ascii 1.0
element vertex 36
comment vertices
property float x
property float y
property float z
end_header
0.831477940082550049 3.30537009239196777 -0.583285152912139893
0.682962298393249512 3.2726902961730957 -0.561726152896881104
0.969690620899200439 3.2887728214263916 -0.62739109992980957
0.82699209451675415 3.46210861206054688 -0.552820920944213867
0.883196830749511719 3.26691770553588867 -0.656021952629089355
0.900066733360290527 3.43723320960998535 -0.682400047779083252
1.00175416469573975 3.26365041732788086 -0.600350618362426758
0.933885693550109863 3.4001920223236084 -0.678218364715576172
0.871297836303710938 3.20633935928344727 -0.664642393589019775
0.953893423080444336 3.39008831977844238 -0.661481022834777832
0.731312751770019531 3.35198426246643066 -0.670501291751861572
0.697891116142272949 3.20972514152526855 -0.676200568675994873
0.67846977710723877 3.42989563941955566 -0.563427150249481201
0.772796809673309326 3.27706456184387207 -0.711282312870025635
0.831225872039794922 3.27422285079956055 -0.631960272789001465
0.67045295238494873 3.31297779083251953 -0.584952354431152344
0.880581557750701904 3.38497400283813477 -0.709580004215240479
0.670535922050476074 3.26092863082885742 -0.527973711490631104
0.954983115196228027 3.26678133010864258 -0.659824550151824951
1.00988268852233887 3.27976822853088379 -0.709126532077789307
0.937349915504455566 3.3246006965637207 -0.662552714347839355
0.822599232196807861 3.3806610107421875 -0.644305825233459473
0.926556229591369629 3.49439024925231934 -0.630550026893615723
0.84529721736907959 3.26508855819702148 -0.660074174404144287
0.632824301719665527 3.33511996269226074 -0.647145211696624756
0.818099319934844971 3.3685615062713623 -0.629272997379302979
0.779715955257415771 3.28037667274475098 -0.64911264181137085
0.919838488101959229 3.28279256820678711 -0.688865065574645996
0.820967018604278564 3.37063121795654297 -0.563643097877502441
0.839660763740539551 3.1999666690826416 -0.506316244602203369
0.94242095947265625 3.34306216239929199 -0.708429813385009766
0.639990746974945068 3.21736717224121094 -0.68454974889755249
1.0507504940032959 3.22836565971374512 -0.529453694820404053
0.895219027996063232 3.29359626770019531 -0.637477517127990723
0.61973649263381958 3.23584961891174316 -0.656020045280456543
0.697339415550231934 3.18958115577697754 -0.468035995960235596
