ply
format ascii 1.0
element vertex 32
comment vertices
property float x
property float y
property float z
end_header
-0.167766645550727844 3.09623265266418457 -0.762208819389343262
-1.50461578369140625 3.96083331108093262 -0.706071257591247559
1.23865532875061035 3.98154020309448242 -0.879227101802825928
-0.377200603485107422 3.09527945518493652 -0.589690029621124268
-0.149421393871307373 3.02500391006469727 -0.738221228122711182
-0.173369333148002625 3.03865218162536621 -0.724899947643280029
-1.66233193874359131 3.87470793724060059 -0.754078269004821777
0.989488482475280762 3.92608499526977539 -0.88039785623550415
-0.0654345080256462097 3.11586403846740723 -0.717114031314849854
-0.279263347387313843 3.02041459083557129 -0.696391165256500244
-1.3480079174041748 4.03026628494262695 -0.846459865570068359
-1.47285997867584229 3.93276381492614746 -0.836412250995635986
1.13506674766540527 3.85528278350830078 -0.847723245620727539
1.18396294116973877 3.86700320243835449 -0.826492965221405029
-0.213473498821258545 3.13794088363647461 -0.536771714687347412
-0.352137923240661621 3.10787391662597656 -0.643387079238891602
-0.193809986114501953 3.01316475868225098 -0.707241714000701904
1.23496043682098389 3.86350512504577637 -0.922645330429077148
-0.170931190252304077 3.18873453140258789 -0.758344411849975586
-0.379920005798339844 3.11935305595397949 -0.581451177597045898
-0.382206827402114868 3.12743091583251953 -0.699899137020111084
-0.409934848546981812 3.21984529495239258 -0.688426554203033447
1.20081949234008789 3.83496308326721191 -0.859809577465057373
-1.40921807289123535 3.9853513240814209 -0.910378932952880859
1.03364288806915283 3.88641715049743652 -0.815057098865509033
-0.123905479907989502 3.22600245475769043 -0.731465518474578857
-0.0793419256806373596 3.09058403968811035 -0.626821517944335938
1.0438847541809082 3.97181487083435059 -0.811141073703765869
-1.59610271453857422 3.89605188369750977 -0.800312221050262451
-0.236201062798500061 3.17926406860351562 -0.757129371166229248
-0.195237204432487488 3.07021284103393555 -0.693278729915618896
0.983584880828857422 3.97825193405151367 -0.845959126949310303
