ply
format ascii 1.0
element vertex 99
comment vertices
property float x
property float y
property float z
end_header
-0.322723388671875 2.45038843154907227 -0.685294806957244873
-0.384777724742889404 2.27378034591674805 -0.653378844261169434
-0.973994016647338867 2.48681974411010742 -0.648953557014465332
1.10629463195800781 2.8415224552154541 -0.907929718494415283
-0.611450672149658203 2.35562539100646973 -0.693019330501556396
-0.157677561044692993 2.45427632331848145 -0.68143463134765625
0.472743034362792969 2.97567129135131836 -0.887958765029907227
1.35809195041656494 2.74872922897338867 -0.849190235137939453
-0.341468483209609985 2.06612801551818848 -0.60813140869140625
-0.775670528411865234 2.36667132377624512 -0.74573749303817749
-0.540754139423370361 2.29098939895629883 -0.684806942939758301
-0.78542095422744751 2.48390889167785645 -0.766304910182952881
1.28769576549530029 2.92017555236816406 -0.849709868431091309
-0.402260422706604004 2.5792543888092041 -0.526830732822418213
-0.0411775186657905579 2.46275830268859863 -0.69794541597366333
-0.325846076011657715 2.29549098014831543 -0.713393807411193848
-0.667180001735687256 2.30464458465576172 -0.696147739887237549
1.08945226669311523 2.70269155502319336 -0.772449970245361328
-0.451956719160079956 2.28221297264099121 -0.670770764350891113
-0.819155097007751465 2.32862973213195801 -0.734040975570678711
-0.404229938983917236 2.32598400115966797 -0.628354132175445557
-0.205135256052017212 2.41968655586242676 -0.712777197360992432
1.08348762989044189 2.90682625770568848 -0.88424384593963623
-1.00125253200531006 2.50351810455322266 -0.73773193359375
1.46394801139831543 2.96982955932617188 -0.851307451725006104
0.889001965522766113 2.84630489349365234 -0.882887125015258789
-0.826592445373535156 2.27314853668212891 -0.683929085731506348
-0.267575681209564209 2.19088459014892578 -0.603587508201599121
-0.586300551891326904 2.2789759635925293 -0.730199754238128662
-0.874488532543182373 2.39110231399536133 -0.745062947273254395
-1.14280557632446289 2.36618852615356445 -0.597290098667144775
1.45290160179138184 2.89179468154907227 -0.714356899261474609
-0.417633146047592163 2.39816427230834961 -0.703599333763122559
1.55158305168151855 2.75693774223327637 -0.759420871734619141
1.16944277286529541 2.94171571731567383 -0.949615240097045898
-0.327990680932998657 2.52864980697631836 -0.568613767623901367
-0.17609444260597229 2.60669422149658203 -0.697569966316223145
-0.39909052848815918 2.35562252998352051 -0.729822218418121338
0.455138355493545532 2.80598092079162598 -0.748858153820037842
1.20573616027832031 2.78542232513427734 -0.752593755722045898
0.977518677711486816 2.93654775619506836 -0.815708816051483154
-0.38261064887046814 2.61297464370727539 -0.652734577655792236
-0.816134452819824219 2.45775508880615234 -0.74490666389465332
-1.00114953517913818 2.47565484046936035 -0.736990749835968018
-0.616785168647766113 2.08912158012390137 -0.754713535308837891
-0.311378002166748047 2.37030863761901855 -0.693247556686401367
-0.614990770816802979 2.2291414737701416 -0.619856953620910645
1.43813765048980713 2.95282554626464844 -0.854330122470855713
-0.451059490442276001 2.4250023365020752 -0.729458332061767578
-0.392293095588684082 2.26568722724914551 -0.730385959148406982
-0.358074426651000977 2.37087130546569824 -0.668182253837585449
-0.325858592987060547 2.31454682350158691 -0.630902886390686035
1.46801447868347168 2.74118852615356445 -0.706311881542205811
-0.441843658685684204 2.28909397125244141 -0.661904454231262207
-0.667597353458404541 2.26190996170043945 -0.64053952693939209
-0.98426741361618042 2.26109695434570312 -0.776224374771118164
1.53904414176940918 2.73486685752868652 -0.739418447017669678
1.03377103805541992 2.73115944862365723 -0.863002359867095947
-0.580820322036743164 2.17785477638244629 -0.722655653953552246
-0.748809158802032471 2.43244600296020508 -0.673292398452758789
-0.668061614036560059 2.34218478202819824 -0.708417713642120361
-0.672880589962005615 2.30792427062988281 -0.696625828742980957
1.5230100154876709 2.9458472728729248 -0.919756591320037842
-1.0283515453338623 2.37525582313537598 -0.652038633823394775
0.797056198120117188 2.96767902374267578 -0.870338082313537598
1.37709176540374756 2.87459945678710938 -0.764850139617919922
-0.0444742590188980103 2.45964384078979492 -0.694871068000793457
-0.215652599930763245 2.2420494556427002 -0.625986337661743164
-0.787034034729003906 2.49956750869750977 -0.742588996887207031
-0.425548255443572998 2.30954670906066895 -0.739414036273956299
-0.877028822898864746 2.4182589054107666 -0.732436716556549072
-0.164240971207618713 2.63271570205688477 -0.751753866672515869
-0.250915616750717163 2.36932229995727539 -0.664568483829498291
-0.170242875814437866 2.42767715454101562 -0.680342376232147217
-0.29982033371925354 2.56231069564819336 -0.606859326362609863
-0.991447865962982178 2.51040816307067871 -0.70064014196395874
-0.184836998581886292 2.57116317749023438 -0.548408567905426025
0.617804229259490967 2.97392606735229492 -0.808376133441925049
-0.481634289026260376 2.26099252700805664 -0.666601598262786865
-0.371633470058441162 2.35949301719665527 -0.722267746925354004
-0.976632654666900635 2.46844124794006348 -0.757192254066467285
-0.34106871485710144 2.24730849266052246 -0.611217141151428223
-0.56878972053527832 2.25861334800720215 -0.688262820243835449
1.29140782356262207 2.87836480140686035 -0.857684850692749023
-0.85233151912689209 2.3309931755065918 -0.706292986869812012
-0.0504748709499835968 2.43320298194885254 -0.67770230770111084
1.27457833290100098 2.94685578346252441 -0.880880951881408691
-0.195098027586936951 2.36631512641906738 -0.755971074104309082
-0.902169883251190186 2.30448770523071289 -0.792916417121887207
1.23684060573577881 2.94028639793395996 -0.928426444530487061
-0.327353984117507935 2.50936555862426758 -0.584980785846710205
-1.077004075050354 2.35711407661437988 -0.695494413375854492
1.34047079086303711 2.85201787948608398 -0.877124905586242676
-0.588166892528533936 2.51302909851074219 -0.672430813312530518
-0.194874852895736694 2.30126500129699707 -0.61461484432220459
-0.212174013257026672 2.2080838680267334 -0.62747955322265625
-0.295391738414764404 2.38330173492431641 -0.650106072425842285
1.14431285858154297 2.78808927536010742 -0.796063840389251709
0.00182262808084487915 2.3528134822845459 -0.645652234554290771
