ply
format ascii 1.0
element vertex 39
comment vertices
property float x
property float y
property float z
end_header
1.61923158168792725 3.32474040985107422 -0.736917495727539062
-1.50029253959655762 3.17785477638244629 -0.331205964088439941
0.354289263486862183 2.4692378044128418 -0.665785133838653564
0.164515569806098938 2.3374783992767334 -0.582911789417266846
0.173842370510101318 2.35084962844848633 -0.587999522686004639
0.301550745964050293 2.39692831039428711 -0.631204664707183838
0.220882818102836609 2.36027240753173828 -0.465852499008178711
0.246531307697296143 2.42674040794372559 -0.458838373422622681
0.200130820274353027 2.43082857131958008 -0.610186398029327393
0.140947014093399048 2.36492800712585449 -0.615599751472473145
0.0717814266681671143 2.48055362701416016 -0.588386356830596924
0.166279301047325134 2.42283797264099121 -0.657332360744476318
0.413103401660919189 2.51443195343017578 -0.673075675964355469
0.358062177896499634 2.51708030700683594 -0.606993496417999268
0.235475942492485046 2.52003073692321777 -0.525116324424743652
0.23776678740978241 2.43191790580749512 -0.635059118270874023
0.0961745232343673706 2.37978816032409668 -0.597063958644866943
0.331319987773895264 2.51882624626159668 -0.426144838333129883
0.254802018404006958 2.41946244239807129 -0.512942910194396973
0.178610846400260925 2.34016776084899902 -0.570756912231445312
1.57863235473632812 3.43398857116699219 -0.713392376899719238
0.172587454319000244 2.42363286018371582 -0.626012742519378662
0.100524656474590302 2.65836906433105469 -0.412570595741271973
0.281250417232513428 2.53959846496582031 -0.350979626178741455
0.095671139657497406 2.39882826805114746 -0.621367096900939941
0.170944705605506897 2.35865378379821777 -0.552008092403411865
0.24051983654499054 2.41230463981628418 -0.604770660400390625
0.15745227038860321 2.41381382942199707 -0.621477842330932617
0.0830010101199150085 2.40186977386474609 -0.588527500629425049
0.448719263076782227 2.65023279190063477 -0.503238916397094727
0.225323259830474854 2.49502778053283691 -0.562232553958892822
0.264280617237091064 2.4436335563659668 -0.665522933006286621
0.277930974960327148 2.48183131217956543 -0.671345114707946777
0.368263483047485352 2.42703485488891602 -0.633246243000030518
0.163093045353889465 2.31633639335632324 -0.313219696283340454
0.254725158214569092 2.48876237869262695 -0.520131170749664307
0.272644370794296265 2.36206865310668945 -0.572517752647399902
-1.35895407199859619 3.11217999458312988 -0.299812793731689453
0.284559100866317749 2.48866105079650879 -0.259406805038452148
