ply
format ascii 1.0
element vertex 185
comment vertices
property float x
property float y
property float z
end_header
0.516700446605682373 3.32066941261291504 -0.720245659351348877
1.67291760444641113 8.00551986694335938 0.726921737194061279
-0.928041517734527588 1.89210474491119385 -0.769890725612640381
-2.08423590660095215 3.71556782722473145 -0.0335797965526580811
2.72639942169189453 6.49872732162475586 -0.86431729793548584
1.54535233974456787 2.09883499145507812 -0.820348441600799561
2.85666179656982422 4.70241498947143555 -0.193611323833465576
0.454575091600418091 3.59376311302185059 1.73610603809356689
2.30731868743896484 4.94867515563964844 -0.719077348709106445
1.8621671199798584 7.60163497924804688 -0.658948302268981934
2.12752699851989746 3.57979774475097656 -1.4114224910736084
2.10562467575073242 6.93270540237426758 1.26123440265655518
0.305418312549591064 1.84473240375518799 -0.761077344417572021
1.86485850811004639 7.23967742919921875 0.246722206473350525
0.243815124034881592 4.03017282485961914 -0.196686670184135437
1.77838540077209473 7.23566198348999023 -0.751676678657531738
-1.66561830043792725 3.47436332702636719 -0.682819366455078125
2.96947193145751953 4.71428155899047852 -0.662222743034362793
1.60162866115570068 5.57921743392944336 -1.06930708885192871
-1.21362578868865967 3.3778386116027832 -0.2103424072265625
-1.44083642959594727 2.60696077346801758 -0.753679096698760986
1.22117626667022705 2.80025696754455566 -0.716149687767028809
2.51624822616577148 7.29588794708251953 -0.646177768707275391
1.72268426418304443 4.16152334213256836 -0.768904030323028564
2.44238519668579102 4.89765405654907227 -0.273993879556655884
1.63353145122528076 7.57036066055297852 0.783990085124969482
-1.61999452114105225 3.72255587577819824 -0.574100792407989502
-1.83240687847137451 3.11488795280456543 -0.637932956218719482
-0.125779628753662109 1.93364202976226807 -0.868437111377716064
1.8094714879989624 7.28164291381835938 -0.463981449604034424
2.34367752075195312 4.76037740707397461 -0.793115019798278809
2.23793840408325195 4.79273843765258789 0.174900665879249573
2.37525582313537598 4.86940717697143555 -0.624579191207885742
1.22346067428588867 7.30974245071411133 -0.654310703277587891
0.149924471974372864 2.06367707252502441 -0.740453004837036133
0.328268051147460938 4.27594327926635742 0.434055507183074951
2.55826711654663086 4.35882186889648438 -0.764700174331665039
1.33847856521606445 3.45755577087402344 -0.700532436370849609
2.00966739654541016 7.17537784576416016 -0.798582553863525391
-1.77460205554962158 3.56594753265380859 -0.804773986339569092
-0.845930278301239014 2.60724925994873047 -0.559121847152709961
-2.2437589168548584 3.31891918182373047 -0.651639044284820557
2.10740303993225098 2.92058157920837402 -1.28762054443359375
2.28170609474182129 7.37243843078613281 -0.446477502584457397
-0.139555364847183228 2.89151501655578613 -0.662730813026428223
-2.05642509460449219 3.19198822975158691 -0.385469734668731689
0.241501778364181519 1.73305189609527588 -0.789810121059417725
2.06209874153137207 7.20437145233154297 0.606062591075897217
-0.187180951237678528 1.99528241157531738 -0.756506979465484619
-1.98984801769256592 3.75984716415405273 0.19428706169128418
2.34777688980102539 4.86826372146606445 -0.0699435919523239136
1.51023125648498535 4.66633129119873047 -0.693470180034637451
-1.74106156826019287 2.86053299903869629 -0.678900957107543945
-0.0087935030460357666 3.51647806167602539 1.63240420818328857
-1.82677125930786133 3.48747491836547852 -0.679167032241821289
-0.159125015139579773 3.60525751113891602 -0.0630487948656082153
3.25311160087585449 4.70884895324707031 -0.509432017803192139
1.66603946685791016 2.59860038757324219 -0.825874745845794678
2.33432173728942871 7.29802894592285156 -0.662151634693145752
-0.966852068901062012 2.66311502456665039 -0.596975803375244141
-0.269203662872314453 2.93407487869262695 -0.656257748603820801
2.77070474624633789 4.89730596542358398 -0.484047949314117432
1.62642121315002441 7.54453516006469727 0.648038864135742188
2.0343163013458252 7.4122157096862793 -0.609050571918487549
1.85614597797393799 5.13958930969238281 -0.748430252075195312
2.50644659996032715 4.99318313598632812 -0.742601633071899414
-0.0254086684435606003 1.97669398784637451 -0.80868762731552124
-0.0333730205893516541 2.12047743797302246 -0.715674877166748047
1.80778908729553223 7.1509251594543457 -0.0393376871943473816
1.77531921863555908 3.2431333065032959 -1.42683875560760498
2.03453803062438965 5.32172107696533203 -0.944715738296508789
-1.30210220813751221 2.89290452003479004 -0.56946033239364624
1.8997567892074585 7.23992633819580078 0.490971952676773071
1.74253606796264648 3.89607548713684082 -1.54333698749542236
-0.0403292402625083923 2.46225643157958984 -0.734435319900512695
2.17128086090087891 6.88556623458862305 -0.792158067226409912
2.48253655433654785 4.78418350219726562 -0.52201390266418457
-1.17931079864501953 2.28566241264343262 -0.705391764640808105
1.69624233245849609 4.56464385986328125 -0.754304230213165283
2.2488405704498291 7.02158641815185547 -0.859094023704528809
0.245649993419647217 2.08708691596984863 -0.753320932388305664
0.535195589065551758 4.40700626373291016 0.263172894716262817
-1.82723069190979004 3.53336143493652344 -0.713126480579376221
1.90884649753570557 7.17336702346801758 0.799392640590667725
1.78364109992980957 7.42064523696899414 -0.645482063293457031
2.11623263359069824 7.29252195358276367 -0.364473640918731689
-0.0425628498196601868 2.94606161117553711 -0.465099215507507324
-0.157326385378837585 2.88434696197509766 -0.622910857200622559
0.541027069091796875 2.1872861385345459 -0.698282599449157715
-0.0819722414016723633 4.26755380630493164 0.430190026760101318
2.67168283462524414 4.88582897186279297 -0.659832537174224854
-0.0862504616379737854 2.43048882484436035 -0.659046471118927002
2.52013969421386719 4.92763137817382812 -0.531206011772155762
2.26791977882385254 3.96721744537353516 -0.789409279823303223
0.724741637706756592 2.35162878036499023 -0.715784311294555664
-0.501141548156738281 2.72956991195678711 -0.840021789073944092
2.45282101631164551 7.34199905395507812 -0.789333522319793701
-1.0470048189163208 3.93175768852233887 0.927367746829986572
1.72637295722961426 7.71389436721801758 -0.72721785306930542
1.89467930793762207 7.47128486633300781 -0.617548942565917969
-0.370921313762664795 2.91523957252502441 -0.646457195281982422
0.186704859137535095 1.96743488311767578 -0.689994692802429199
2.50394225120544434 4.87038850784301758 0.00899812579154968262
-0.207642003893852234 2.84726715087890625 -0.610925614833831787
1.31964743137359619 1.97637534141540527 -0.800981700420379639
2.35073280334472656 4.88140869140625 -0.192450433969497681
-0.989469647407531738 3.69546055793762207 -0.136346682906150818
-1.66780805587768555 3.50269913673400879 -0.657352983951568604
-1.31848776340484619 2.40728068351745605 -0.629333138465881348
2.60375475883483887 4.90624237060546875 -0.584566235542297363
3.1507422924041748 4.5804753303527832 -0.597655951976776123
1.92717313766479492 7.20765209197998047 0.458786904811859131
2.22782564163208008 5.04981899261474609 -0.634824037551879883
1.47196674346923828 7.37341737747192383 -0.537922501564025879
-2.23264837265014648 3.21771955490112305 -0.606610655784606934
0.605662941932678223 3.55009746551513672 -0.591044425964355469
-0.365026682615280151 3.96918153762817383 0.829118788242340088
0.351553797721862793 1.96712315082550049 -0.78279578685760498
-2.19428682327270508 3.52198958396911621 -0.191069573163986206
1.27334153652191162 3.14386510848999023 -0.713651120662689209
1.9626694917678833 7.273956298828125 -0.6162872314453125
1.77031624317169189 7.21444082260131836 0.218931257724761963
-2.15742111206054688 3.38547849655151367 -0.194622248411178589
-1.76010394096374512 3.54438209533691406 -0.666574597358703613
-0.395678699016571045 2.01405429840087891 -0.704735398292541504
0.00571132265031337738 2.00577068328857422 -0.798621535301208496
2.53757977485656738 4.85927343368530273 -0.186315402388572693
2.11454319953918457 4.09928083419799805 -0.800192952156066895
0.356748133897781372 4.2812199592590332 0.0741297826170921326
1.9457852840423584 7.31958961486816406 0.703403294086456299
2.09866094589233398 3.22666597366333008 -1.41402685642242432
1.64385735988616943 7.79902076721191406 0.639776706695556641
-0.232205435633659363 1.99266040325164795 -0.799684464931488037
1.80463850498199463 2.88036513328552246 -0.875143170356750488
-0.00319497473537921906 1.9268420934677124 -0.744705140590667725
1.89780259132385254 7.28052568435668945 -0.698093593120574951
1.84552085399627686 7.46489810943603516 -0.630409955978393555
-2.01751422882080078 3.69840574264526367 -0.137699112296104431
-1.69910144805908203 3.5687410831451416 -0.749537646770477295
-0.836702048778533936 4.01385974884033203 0.701743185520172119
2.63700699806213379 4.85379362106323242 -0.572893500328063965
-0.0321784503757953644 1.94564783573150635 -0.74221336841583252
1.76342606544494629 3.51326489448547363 -1.46514987945556641
-0.0431851707398891449 2.10182070732116699 -0.825342059135437012
1.08504438400268555 2.58702588081359863 -0.738385915756225586
2.50878190994262695 4.94056797027587891 -0.170295253396034241
1.37114691734313965 4.62036037445068359 -0.725974559783935547
2.35089683532714844 4.72262859344482422 -0.0177657678723335266
-1.63662159442901611 2.48910236358642578 -0.807044565677642822
2.68007659912109375 5.00718402862548828 -0.829530119895935059
-1.773734450340271 3.45200443267822266 -0.704943418502807617
-1.95073783397674561 3.62255573272705078 -0.059034496545791626
0.0279770027846097946 2.0445406436920166 -0.836833357810974121
2.23938155174255371 4.70777750015258789 -0.779741942882537842
-0.757859766483306885 2.50404858589172363 -0.931923389434814453
2.43382692337036133 4.94562816619873047 -0.59754711389541626
1.91150617599487305 5.31451654434204102 -0.796469449996948242
1.95656454563140869 3.87394952774047852 -1.47253310680389404
2.03835129737854004 7.44151115417480469 -0.641869485378265381
1.87895417213439941 7.40462636947631836 -0.601224422454833984
1.6067502498626709 7.62640762329101562 0.677649199962615967
-0.205375716090202332 2.83319830894470215 -0.560861170291900635
-2.40587854385375977 2.82901334762573242 -0.50486987829208374
2.31556940078735352 4.72922801971435547 0.102329909801483154
-1.69992482662200928 2.43487191200256348 -0.709752738475799561
2.39928388595581055 4.89206981658935547 -0.710762858390808105
1.82195889949798584 7.22937297821044922 0.093747749924659729
1.4100196361541748 7.14885330200195312 -0.609196364879608154
1.87856042385101318 5.5646519660949707 -1.12801766395568848
-2.11898446083068848 3.25125622749328613 -0.363516509532928467
1.90885889530181885 7.23620128631591797 -0.577679753303527832
1.18448376655578613 3.56588387489318848 -0.715797781944274902
0.120607532560825348 2.46714544296264648 -0.710276246070861816
-0.886786222457885742 2.00790691375732422 -0.75822824239730835
-0.452287673950195312 2.19086456298828125 -0.726803064346313477
2.41700935363769531 5.03508329391479492 -0.608355104923248291
2.2704465389251709 7.36063385009765625 -0.735100388526916504
2.07156085968017578 5.35175561904907227 -0.788697957992553711
1.86938667297363281 7.23354387283325195 0.312389343976974487
-1.90095210075378418 3.62083745002746582 -0.173952937126159668
-0.198132693767547607 4.2047572135925293 0.449009090662002563
-0.203265458345413208 1.99343752861022949 -0.799976527690887451
2.76522088050842285 4.85464811325073242 -0.264581173658370972
-0.340245634317398071 2.8379359245300293 -0.604604482650756836
1.52068173885345459 7.42114353179931641 -0.652780115604400635
