ply
format ascii 1.0
element vertex 256
comment vertices
property float x
property float y
property float z
end_header
-0.634515643119812012 2.33319735527038574 -0.275972485542297363
2.68830156326293945 6.10212326049804688 2.87035131454467773
2.26613354682922363 3.53087234497070312 -1.00135445594787598
-0.103634931147098541 1.21823203563690186 -0.685339868068695068
1.92254650592803955 3.72989559173583984 0.52516782283782959
-2.07325553894042969 2.88653659820556641 -0.977200627326965332
-2.00782942771911621 3.58635139465332031 0.512259900569915771
0.589502096176147461 2.37936854362487793 -0.675459444522857666
-0.319774031639099121 2.57725238800048828 -0.609634041786193848
1.59475362300872803 3.2817683219909668 -0.612189829349517822
0.939863860607147217 3.82981491088867188 1.32530426979064941
-1.52962720394134521 3.12755417823791504 -0.275215059518814087
-0.368137717247009277 3.78372621536254883 1.77892684936523438
0.26428687572479248 2.32033848762512207 -0.564227640628814697
-0.38627094030380249 3.19088840484619141 -0.573376238346099854
0.141916871070861816 2.03790926933288574 -0.745138943195343018
0.380363911390304565 2.49857592582702637 -0.637543559074401855
2.304718017578125 3.72666692733764648 -0.183145537972450256
0.577394962310791016 3.35750532150268555 -0.328130900859832764
-2.06538510322570801 3.52255415916442871 -0.0901223719120025635
-1.2598494291305542 2.885284423828125 -0.658658087253570557
0.174071818590164185 2.3439483642578125 -0.549223065376281738
-1.13059139251708984 3.47646808624267578 -0.0384100377559661865
1.52763724327087402 3.3378143310546875 0.160232186317443848
-0.0129147414118051529 3.6210479736328125 0.516815006732940674
2.16042995452880859 3.84141111373901367 -0.689126908779144287
0.257577806711196899 1.59536254405975342 -0.667963504791259766
1.28425049781799316 2.55651354789733887 -0.506652712821960449
0.187098115682601929 2.36074972152709961 -0.555974125862121582
-1.3934859037399292 3.72931122779846191 0.238706454634666443
0.0826382040977478027 2.31133842468261719 -0.608814656734466553
-1.16149640083312988 2.09618568420410156 -0.638757169246673584
-1.29235243797302246 3.85736393928527832 0.663279891014099121
-0.696221113204956055 3.35389542579650879 -0.289101719856262207
1.65964150428771973 3.75719976425170898 1.45273983478546143
-2.11896061897277832 3.1646726131439209 -0.522344410419464111
0.0137383639812469482 2.50256109237670898 -0.558320403099060059
0.100752145051956177 2.23080825805664062 -0.590789318084716797
0.309596776962280273 2.42132830619812012 -0.613683462142944336
-1.63731813430786133 2.54610347747802734 -0.715965867042541504
0.243925124406814575 2.35798454284667969 -0.404806524515151978
1.60515713691711426 3.31691789627075195 -0.403950810432434082
-0.695018172264099121 2.84692907333374023 -0.310894668102264404
0.426640540361404419 2.16693115234375 -0.58886951208114624
2.04171419143676758 3.54094123840332031 0.134120047092437744
-0.787638962268829346 2.57514286041259766 0.00926125049591064453
0.981706798076629639 3.95711708068847656 0.730081319808959961
0.218758195638656616 2.79523873329162598 -0.188016712665557861
1.54941964149475098 3.21486830711364746 -0.469740360975265503
-1.80668699741363525 3.03006410598754883 -0.883421897888183594
0.14834970235824585 2.20945048332214355 -0.725378692150115967
0.275881141424179077 2.44800329208374023 -0.400704681873321533
2.06432890892028809 3.72768378257751465 -0.785223007202148438
0.406413674354553223 2.36410284042358398 -0.577473878860473633
-1.68357610702514648 2.36777257919311523 -0.602485597133636475
-2.17331457138061523 3.66715240478515625 0.325853824615478516
-0.421356439590454102 2.73630785942077637 -0.638357162475585938
0.226050972938537598 2.45876955986022949 -0.575876474380493164
-0.00160461664199829102 3.8680264949798584 1.76986026763916016
0.518467545509338379 3.54756665229797363 0.389852762222290039
1.14476704597473145 3.08851718902587891 -0.538674712181091309
1.86358332633972168 3.59142947196960449 -0.573119699954986572
1.10507321357727051 2.38734054565429688 -0.253670930862426758
0.151802569627761841 2.3779141902923584 -0.587628543376922607
-1.05781447887420654 3.57377004623413086 0.474774301052093506
0.289000391960144043 3.94152665138244629 1.15940475463867188
-0.31850278377532959 2.77138066291809082 -0.252671658992767334
0.0848855972290039062 2.51379013061523438 -0.548645257949829102
1.48810684680938721 3.54271817207336426 0.323231279850006104
-0.250614464282989502 2.25445914268493652 -0.644225597381591797
0.186804652214050293 2.44684004783630371 -0.636413991451263428
2.22507882118225098 3.68132281303405762 -0.44632759690284729
0.18203909695148468 2.30974006652832031 -0.569516777992248535
-1.53276336193084717 2.96239495277404785 -0.341326057910919189
-1.28427338600158691 3.68023419380187988 0.211557328701019287
0.285411685705184937 1.52361965179443359 -0.687941670417785645
-1.47705912590026855 3.57012152671813965 0.44992375373840332
-1.5523378849029541 2.81914401054382324 -0.217719525098800659
0.432338714599609375 2.56236410140991211 -0.64616018533706665
0.388938933610916138 2.54595518112182617 -0.569398164749145508
2.32565116882324219 3.72702336311340332 -0.715030193328857422
0.457514971494674683 2.29149341583251953 -0.58318638801574707
-0.0303863082081079483 2.30029773712158203 -0.523431241512298584
2.38248443603515625 3.76876664161682129 -0.456401348114013672
0.276128232479095459 2.55782890319824219 -0.48021465539932251
-0.884019732475280762 2.88818264007568359 -0.324049472808837891
-2.15090346336364746 3.16664314270019531 -0.60730445384979248
0.239502906799316406 2.24640011787414551 -0.581238389015197754
-0.578880727291107178 3.84535861015319824 0.812821626663208008
-1.13675045967102051 2.70905089378356934 -0.661624312400817871
0.269205987453460693 2.46287918090820312 -0.604758381843566895
0.0959261059761047363 2.39228916168212891 -0.563373148441314697
0.246179342269897461 2.30609321594238281 -0.596721947193145752
-1.66468644142150879 3.62203669548034668 0.0427491366863250732
0.157001614570617676 2.00523757934570312 -0.810595154762268066
-0.545339643955230713 3.15948820114135742 -0.406429946422576904
-0.84962993860244751 2.90884828567504883 -0.442328810691833496
1.93624758720397949 3.53416776657104492 -0.679099440574645996
-2.2901153564453125 3.1363520622253418 -0.48767620325088501
1.21878552436828613 3.37934064865112305 0.00857090950012207031
-0.704787373542785645 2.4900975227355957 -0.176713526248931885
-1.83158397674560547 3.14424610137939453 -0.339366436004638672
0.478541284799575806 2.25773525238037109 -0.619107604026794434
0.565823912620544434 3.40241432189941406 -0.104818046092987061
1.70630121231079102 3.54485011100769043 1.7718198299407959
1.42951607704162598 3.70565915107727051 0.328648686408996582
-0.119070477783679962 1.54111826419830322 -0.747251808643341064
1.54301154613494873 3.39313125610351562 -0.421644628047943115
-0.201037943363189697 2.34405088424682617 -0.561605393886566162
-0.33173060417175293 2.42456865310668945 -0.273335754871368408
1.46047425270080566 3.39354515075683594 -0.533288538455963135
0.165759742259979248 2.32499527931213379 -0.564477324485778809
1.5658801794052124 3.36896538734436035 -0.0888478457927703857
-0.970205008983612061 4.00270557403564453 1.37294280529022217
-1.55529332160949707 3.24513101577758789 -0.0531300008296966553
0.324469804763793945 2.55516719818115234 -0.352968215942382812
0.290487468242645264 2.43206501007080078 -0.462268531322479248
0.671301662921905518 1.86961770057678223 -0.690231204032897949
-1.02658343315124512 3.00797271728515625 -0.263245820999145508
-1.64290130138397217 3.75115656852722168 0.813053905963897705
-0.862221002578735352 3.51194000244140625 0.266363978385925293
-1.8784332275390625 3.19818854331970215 -0.641533315181732178
0.190651431679725647 2.34640932083129883 -0.535304725170135498
-0.721549570560455322 2.1969139575958252 -0.648804605007171631
1.56154274940490723 3.38503885269165039 -0.567728996276855469
-0.833806812763214111 2.76919126510620117 -0.551971614360809326
0.995675563812255859 2.93889403343200684 -0.446572244167327881
-1.35687744617462158 2.82000088691711426 -0.639726221561431885
0.611458659172058105 3.8463444709777832 0.606937766075134277
-1.86500239372253418 3.60328102111816406 0.377355456352233887
0.193047583103179932 2.44521379470825195 -0.599748969078063965
0.269729077816009521 2.33967828750610352 -0.601154625415802002
0.0718666315078735352 2.68288755416870117 -0.314083486795425415
2.23919773101806641 3.67724180221557617 -0.0114363729953765869
-1.36961138248443604 3.13023591041564941 -0.686367034912109375
1.6312563419342041 3.32556533813476562 -0.409392803907394409
1.71152973175048828 3.71936297416687012 0.29713517427444458
0.343919038772583008 1.94625771045684814 -0.631074488162994385
0.282789409160614014 2.57185816764831543 -0.297774285078048706
-1.60601401329040527 2.85924673080444336 -1.00870180130004883
-0.390444636344909668 3.05045795440673828 -0.348141223192214966
0.597650766372680664 2.09983730316162109 -0.716924190521240234
-0.262292534112930298 3.30315637588500977 0.325153529644012451
-0.274460822343826294 2.93312716484069824 -0.0430849790573120117
0.00888593867421150208 3.95810580253601074 1.0804450511932373
0.099657788872718811 2.41615724563598633 -0.589162886142730713
0.109439074993133545 2.15700697898864746 -0.676933050155639648
0.411467999219894409 2.38807487487792969 -0.598960578441619873
0.540895044803619385 2.23861265182495117 -0.542685270309448242
0.549332976341247559 2.67313599586486816 -0.396067380905151367
-0.525826692581176758 2.07872772216796875 -0.645115554332733154
1.55503368377685547 3.59501767158508301 0.2769661545753479
1.60069847106933594 3.20097208023071289 -0.529014229774475098
0.707080364227294922 3.8384552001953125 0.16219329833984375
2.34410762786865234 3.70143008232116699 -0.83591073751449585
-1.24549281597137451 2.89722609519958496 -0.324222683906555176
1.30018723011016846 2.66624307632446289 -0.506493568420410156
0.68903505802154541 2.13841009140014648 -0.597633004188537598
0.181919723749160767 2.36531996726989746 -0.513410329818725586
1.97997522354125977 3.80571770668029785 -0.476214230060577393
-0.750104606151580811 2.39891505241394043 -0.186428427696228027
0.43410646915435791 3.88222694396972656 0.852327585220336914
2.36248922348022461 3.75565814971923828 -0.64288562536239624
2.19864869117736816 3.51203823089599609 0.0738086700439453125
2.26619315147399902 3.65545248985290527 -0.352260619401931763
2.24671268463134766 3.52114295959472656 -0.327227532863616943
-0.243275240063667297 2.21003627777099609 -0.540718972682952881
0.912891864776611328 3.53975391387939453 -0.129670649766921997
-0.517147064208984375 2.79535484313964844 -0.119307130575180054
0.268417537212371826 2.43257260322570801 -0.572374105453491211
-0.354227244853973389 2.73142170906066895 -0.616997361183166504
-2.0565803050994873 3.5274040699005127 0.368596255779266357
0.469235599040985107 2.46997189521789551 -0.636531531810760498
-0.954969465732574463 3.759033203125 0.681430459022521973
-0.10421067476272583 2.2521204948425293 -0.587771713733673096
0.48071974515914917 2.344451904296875 -0.572926819324493408
-0.718279838562011719 2.67566871643066406 -0.655396699905395508
-1.21247959136962891 3.62253427505493164 0.470998644828796387
0.17472502589225769 2.43377971649169922 -0.594753623008728027
1.81073904037475586 3.00103139877319336 -0.437071442604064941
-0.0213432610034942627 2.15984964370727539 -0.686944544315338135
2.01038646697998047 3.76199030876159668 -0.706966698169708252
0.41021043062210083 2.33600139617919922 -0.611669003963470459
0.0472746789455413818 1.62920224666595459 -0.73256981372833252
-1.40524721145629883 3.70516252517700195 0.389487028121948242
-1.33338141441345215 3.21565151214599609 0.102990567684173584
-0.540335357189178467 2.59761953353881836 -0.266799986362457275
0.0811004191637039185 2.41659307479858398 -0.552467286586761475
-0.533369362354278564 2.02398443222045898 -0.635178565979003906
0.432146221399307251 2.68448328971862793 -0.435954689979553223
-0.604967057704925537 3.39145469665527344 -0.580415785312652588
-2.21872377395629883 3.57686138153076172 0.131357312202453613
1.66658377647399902 3.82653951644897461 1.08413779735565186
1.27114248275756836 4.00660371780395508 1.2240452766418457
1.72296690940856934 3.61821508407592773 -0.631326436996459961
2.54276823997497559 6.13842535018920898 2.8849482536315918
1.70791018009185791 3.74030208587646484 0.561418294906616211
0.417210280895233154 1.77556037902832031 -0.65553581714630127
-0.372929483652114868 2.4297478199005127 -0.182882785797119141
-0.0479950308799743652 3.75570940971374512 2.00057578086853027
-0.0990056842565536499 1.32616770267486572 -0.661515653133392334
-0.769705295562744141 2.55958986282348633 -0.606716394424438477
0.0552550628781318665 3.77921748161315918 0.717223823070526123
-2.03527617454528809 3.57443714141845703 0.486850976943969727
-0.727499544620513916 2.91028714179992676 -0.588021457195281982
2.41174793243408203 3.54053449630737305 -0.846270918846130371
-1.59818911552429199 2.42833662033081055 -0.664580106735229492
-0.0426954925060272217 1.238747239112854 -0.690349936485290527
0.442615777254104614 2.36269640922546387 -0.633187353610992432
1.65319442749023438 3.47378849983215332 0.217677295207977295
0.261172294616699219 2.52680850028991699 -0.521134436130523682
-1.51776659488677979 3.12261795997619629 -0.239707008004188538
0.304640501737594604 2.47478079795837402 -0.641355752944946289
-0.367496460676193237 3.88332056999206543 1.08794510364532471
2.20667457580566406 3.81874895095825195 -0.562566518783569336
0.31821906566619873 2.51210498809814453 -0.646477818489074707
0.39858633279800415 2.4521183967590332 -0.604163467884063721
0.338451296091079712 3.37376117706298828 0.143014848232269287
0.161748215556144714 2.364715576171875 -0.24251478910446167
0.0023244321346282959 2.3661649227142334 -0.52052229642868042
0.323362827301025391 2.21914863586425781 -0.654895484447479248
-0.397104382514953613 2.36151599884033203 -0.629570126533508301
-2.15426850318908691 3.10750293731689453 -0.3189888596534729
-2.1761934757232666 3.09671974182128906 -0.562245845794677734
0.29773324728012085 2.52073979377746582 -0.474707037210464478
0.000833563506603240967 2.51407361030578613 -0.619386017322540283
1.54405522346496582 3.41630053520202637 -0.451766908168792725
1.88667535781860352 3.66336917877197266 0.327891826629638672
0.213351666927337646 2.28424835205078125 -0.503518223762512207
-0.0507645606994628906 2.64485955238342285 -0.339302241802215576
-0.0701735019683837891 2.29300212860107422 -0.438768982887268066
0.939984381198883057 3.88793396949768066 0.878366172313690186
0.0317267179489135742 1.30222082138061523 -0.713186502456665039
-2.09169840812683105 3.29063034057617188 -0.537040174007415771
-1.36436748504638672 3.9192814826965332 0.284619629383087158
2.18342781066894531 3.63196611404418945 -0.0903921723365783691
0.617253482341766357 2.24764370918273926 -0.538947045803070068
0.304574429988861084 2.37956094741821289 -0.531605780124664307
1.39803886413574219 3.30062747001647949 -0.214092612266540527
0.569091379642486572 2.60342049598693848 -0.42500874400138855
-0.0268166884779930115 2.38614106178283691 -0.549425601959228516
-0.754859447479248047 2.18420052528381348 -0.620729923248291016
1.36957168579101562 3.62870049476623535 0.10477757453918457
0.202991187572479248 2.12875771522521973 -0.752659082412719727
0.474759757518768311 2.27420449256896973 -0.631727457046508789
-1.69316196441650391 3.0140376091003418 -1.01626467704772949
1.41984903812408447 3.8018949031829834 0.5216103196144104
-1.51717960834503174 3.67510271072387695 0.498766303062438965
-1.42711198329925537 3.58922934532165527 0.0903650522232055664
-1.39416313171386719 3.0757746696472168 -0.238489598035812378
-0.293370068073272705 2.36445426940917969 -0.277410387992858887
-1.64452588558197021 3.44730782508850098 0.410910189151763916
-2.16962122917175293 3.14423131942749023 -0.437674999237060547
-0.560028493404388428 2.66875934600830078 0.00404328107833862305
0.29861748218536377 2.54670524597167969 -0.207158565521240234
-0.000700414180755615234 2.24790859222412109 -0.646918296813964844
