ply
format ascii 1.0
element vertex 226
comment vertices
property float x
property float y
property float z
end_header
-1.77920734882354736 6.00520753860473633 1.31997859477996826
1.63890230655670166 2.2232978343963623 -0.720216095447540283
-1.78237652778625488 3.03951001167297363 -0.623670876026153564
2.14905667304992676 2.6557307243347168 2.40216803550720215
-1.41464531421661377 6.28612709045410156 3.4322664737701416
-0.362094312906265259 4.1603093147277832 -0.494451910257339478
-2.95916604995727539 5.14873409271240234 -0.153793454170227051
-0.051374875009059906 2.48967194557189941 -0.570642471313476562
1.33167111873626709 2.33176612854003906 -0.150320231914520264
-2.16888689994812012 6.05402946472167969 -0.515393495559692383
0.225064545869827271 2.65993165969848633 -0.493515670299530029
0.987230956554412842 3.94262862205505371 2.91353631019592285
-0.999923646450042725 6.86493206024169922 0.0755362957715988159
-2.9675133228302002 5.17281579971313477 1.11756837368011475
-2.15411972999572754 6.86789178848266602 2.01012563705444336
-1.17677640914916992 5.63180303573608398 -0.224502325057983398
-0.9979400634765625 2.64364123344421387 -0.559131920337677002
-0.367325395345687866 4.63886785507202148 0.710245609283447266
-2.27102160453796387 5.71622657775878906 0.038376934826374054
-0.0605450049042701721 2.51605224609375 -0.551136136054992676
0.321970522403717041 2.9353790283203125 0.0234874561429023743
0.0943620577454566956 2.54715538024902344 -0.55607306957244873
-0.0553031116724014282 4.87156057357788086 2.92747759819030762
0.0835661888122558594 2.49527239799499512 -0.487875878810882568
-0.788882851600646973 5.32872390747070312 1.30556368827819824
-0.253020644187927246 3.12765288352966309 -0.42127537727355957
1.50920712947845459 3.06133413314819336 1.35698282718658447
-1.58922672271728516 5.84964990615844727 0.12810082733631134
-0.911211967468261719 5.62954378128051758 2.38998699188232422
1.7610468864440918 3.0906982421875 2.58454513549804688
-2.89675354957580566 5.24150371551513672 0.330312132835388184
0.0716177523136138916 3.74596953392028809 0.506685018539428711
-0.0648863315582275391 2.47654199600219727 -0.593684136867523193
-2.3435065746307373 5.70287227630615234 0.872604727745056152
-0.0484715923666954041 2.49721384048461914 -0.582028627395629883
-2.13636350631713867 2.76710963249206543 -0.573886096477508545
-1.02649986743927002 6.3439478874206543 0.0469181463122367859
-0.0269113518297672272 2.54414534568786621 -0.568848371505737305
0.179343104362487793 2.50800347328186035 -0.527834057807922363
-0.49235844612121582 4.32973003387451172 -0.397893309593200684
-1.87509560585021973 3.29985427856445312 -0.59523773193359375
-0.517219007015228271 5.05027627944946289 1.33424460887908936
-1.14095818996429443 6.32616996765136719 0.345044791698455811
1.19208419322967529 2.30369877815246582 -0.698127806186676025
-2.62579202651977539 5.14146518707275391 -0.435389161109924316
-0.0249677356332540512 2.48859715461730957 -0.524248957633972168
-1.92342305183410645 5.93883228302001953 -0.200959756970405579
1.27879130840301514 2.6217191219329834 -0.635580241680145264
0.0328068360686302185 2.61887526512145996 -0.503279626369476318
-2.30894684791564941 5.19852542877197266 -0.0703603625297546387
-2.05414104461669922 6.48990821838378906 1.51308131217956543
-1.75891268253326416 3.08310437202453613 -0.678614556789398193
-0.211373478174209595 3.09367537498474121 -0.538995862007141113
0.978592813014984131 3.64282512664794922 1.17279243469238281
-1.12214982509613037 5.76505899429321289 1.78379666805267334
-2.08975958824157715 5.89343452453613281 -0.324672311544418335
-1.8617866039276123 5.92080497741699219 0.622286438941955566
-0.209213420748710632 5.1944580078125 2.51337289810180664
-0.637145519256591797 3.49230265617370605 -0.201692625880241394
0.270343005657196045 2.6439671516418457 -0.593187928199768066
-1.39881718158721924 5.32363080978393555 0.405207574367523193
0.618712842464447021 4.28601503372192383 1.68116152286529541
-0.732195913791656494 4.33616304397583008 -0.496722966432571411
0.957550883293151855 2.8275001049041748 0.0440177619457244873
-1.50667178630828857 6.09515714645385742 1.81895005702972412
0.0267682000994682312 2.67996811866760254 -0.464163839817047119
-1.44815301895141602 5.89180946350097656 1.19785177707672119
-2.7438960075378418 5.5472264289855957 0.822352230548858643
-0.168538480997085571 4.10513401031494141 -0.56640547513961792
-1.75685262680053711 3.20893049240112305 -0.593853175640106201
-3.09380602836608887 5.32750034332275391 0.38728564977645874
-0.664345204830169678 5.16061639785766602 -0.317112118005752563
-1.58014035224914551 6.22797870635986328 2.33139991760253906
0.115816980600357056 2.74609041213989258 -0.424677580595016479
-1.79771268367767334 3.26629137992858887 -0.60713803768157959
-0.700596868991851807 2.25246620178222656 -0.73103034496307373
0.532483220100402832 4.36980581283569336 2.12639379501342773
-2.08759832382202148 6.72643804550170898 2.39272809028625488
-1.20495009422302246 5.75978946685791016 -0.0710467547178268433
-2.47805213928222656 5.56822967529296875 1.69511139392852783
1.19661998748779297 2.71636152267456055 0.230628103017807007
-2.58547139167785645 5.20971584320068359 -0.0147477984428405762
-1.92559206485748291 3.03707551956176758 -0.642001986503601074
-3.14369440078735352 5.22446537017822266 0.163734585046768188
-2.04292201995849609 6.03749990463256836 1.74124443531036377
-1.08609926700592041 6.27696895599365234 0.10712917149066925
0.311248570680618286 2.63197708129882812 -0.514741122722625732
0.876341581344604492 3.45965957641601562 0.735159218311309814
0.115753643214702606 4.64100503921508789 1.56942713260650635
0.0316525176167488098 2.61548137664794922 -0.550296545028686523
2.22463226318359375 2.58952546119689941 2.42033982276916504
-0.774774432182312012 2.97385931015014648 -0.594390630722045898
-0.992025196552276611 4.89211177825927734 0.66355288028717041
-1.92841875553131104 3.07869148254394531 -0.622619569301605225
0.717455089092254639 2.3258521556854248 -0.66358494758605957
-0.125363022089004517 2.53247547149658203 -0.534450531005859375
-0.226677030324935913 3.8811042308807373 -0.219016298651695251
0.872040808200836182 3.94562387466430664 1.49134182929992676
0.0815458968281745911 2.38994789123535156 -0.588663935661315918
-2.22107529640197754 5.93408727645874023 0.200389876961708069
-0.828314363956451416 4.60656976699829102 0.518278121948242188
0.0790741667151451111 4.47702646255493164 0.927758872509002686
-2.78890490531921387 5.19217061996459961 0.655668973922729492
-2.26274013519287109 5.75868892669677734 -0.133333146572113037
-2.30696225166320801 5.70134210586547852 0.738206088542938232
-0.350661367177963257 3.34865021705627441 -0.418023794889450073
0.223476454615592957 2.58690881729125977 -0.518449723720550537
-0.62903064489364624 5.38743829727172852 1.67500817775726318
0.780244112014770508 3.15063786506652832 0.233415722846984863
0.192432612180709839 2.52689051628112793 -0.495559215545654297
-0.0974413156509399414 2.45704436302185059 -0.555788576602935791
-0.0290554091334342957 2.54831719398498535 -0.511050701141357422
-0.476015448570251465 3.07067489624023438 -0.271974265575408936
-1.7846144437789917 6.20049476623535156 1.67242264747619629
1.51338386535644531 2.30802679061889648 -0.753925740718841553
-1.85559892654418945 3.17990541458129883 -0.602508902549743652
1.95949101448059082 2.64259529113769531 2.02129149436950684
-1.40437841415405273 5.92268276214599609 1.40431356430053711
-2.06914687156677246 5.99132871627807617 -0.378317683935165405
0.125210091471672058 2.54496002197265625 -0.553987324237823486
0.0497486144304275513 2.74108076095581055 -0.50756382942199707
-2.9478764533996582 5.06409072875976562 -0.0985331907868385315
-1.94747281074523926 5.96086978912353516 1.2357175350189209
-0.97749793529510498 5.70322275161743164 1.49792647361755371
0.105733320116996765 2.51684260368347168 -0.519833564758300781
-0.00563348457217216492 2.48472285270690918 -0.584600150585174561
0.183026090264320374 2.62597250938415527 -0.504329681396484375
0.157165959477424622 2.3703155517578125 -0.567434191703796387
-2.73930668830871582 5.27240514755249023 -0.39283415675163269
-0.42727506160736084 3.87546968460083008 -0.47382807731628418
0.123295754194259644 2.61969947814941406 -0.464060306549072266
-1.77529406547546387 5.89195108413696289 0.914354026317596436
0.071318015456199646 2.40359759330749512 -0.211950808763504028
-2.63054060935974121 5.43147706985473633 0.799464821815490723
0.871531128883361816 2.5323798656463623 -0.517976760864257812
-0.180978968739509583 5.14866924285888672 2.21253466606140137
-2.08756065368652344 6.12495040893554688 -0.583716869354248047
-0.909070789813995361 5.569244384765625 1.71241676807403564
0.128770366311073303 2.40113186836242676 -0.521158039569854736
0.00501254387199878693 2.65221881866455078 -0.505735576152801514
-2.05644059181213379 6.04885053634643555 -0.114538624882698059
-2.22321367263793945 6.72381258010864258 1.53767561912536621
-1.65151405334472656 5.70717859268188477 -0.0454470813274383545
1.7015538215637207 3.25907611846923828 2.86785769462585449
0.0449272915720939636 2.5356907844543457 -0.560106158256530762
-0.191338434815406799 4.678009033203125 1.26825809478759766
-0.614597916603088379 5.79392719268798828 2.32817602157592773
0.0613557957112789154 2.52153182029724121 -0.580254554748535156
-1.75155127048492432 3.12662506103515625 -0.647732913494110107
1.67404508590698242 2.85125541687011719 1.51771771907806396
-2.31303238868713379 5.38995170593261719 0.077840067446231842
-1.19389200210571289 5.51572465896606445 -0.109180524945259094
0.974364340305328369 2.32886981964111328 -0.566030919551849365
0.786376357078552246 2.58216404914855957 -0.219305872917175293
-1.74496352672576904 6.56424188613891602 1.93815779685974121
-0.133524894714355469 2.63531160354614258 -0.351329386234283447
0.0366214923560619354 2.65004253387451172 -0.468256920576095581
0.936561405658721924 2.02710533142089844 -0.349004656076431274
-0.600212156772613525 4.48998832702636719 0.0754517614841461182
0.416977941989898682 4.07818746566772461 1.07342076301574707
0.0261363349854946136 2.38075733184814453 -0.612525582313537598
0.958933532238006592 4.03812551498413086 3.02090549468994141
0.976578056812286377 2.55797886848449707 -0.505721509456634521
-1.1089252233505249 6.0281834602355957 2.10641860961914062
-1.59936189651489258 5.89143133163452148 0.484481751918792725
0.235372871160507202 2.96439886093139648 0.103237941861152649
-1.81125164031982422 5.94786930084228516 0.561034202575683594
-2.65287256240844727 5.42426061630249023 0.90913701057434082
1.34339797496795654 3.41544461250305176 2.16012072563171387
-0.592649698257446289 2.57688713073730469 -0.60182952880859375
-1.96262788772583008 5.97831296920776367 0.345085620880126953
-0.299983084201812744 3.67171025276184082 -0.399174958467483521
-2.25062680244445801 5.73175382614135742 1.44166266918182373
1.00837516784667969 3.1185450553894043 0.338989496231079102
-0.0780168622732162476 4.06028032302856445 -0.616769254207611084
-2.29486489295959473 5.75474977493286133 0.758686840534210205
1.85975146293640137 2.47486042976379395 -0.570433855056762695
-0.370102405548095703 3.02137184143066406 -0.498493492603302002
-1.60099256038665771 5.9610295295715332 1.21917438507080078
-2.63264679908752441 5.45080804824829102 -0.234634444117546082
0.934188961982727051 2.51435732841491699 -0.0148631185293197632
-0.267803192138671875 3.2043144702911377 -0.496809095144271851
-0.555529356002807617 3.67009496688842773 0.165177375078201294
0.753568589687347412 2.280487060546875 -0.651280462741851807
-0.566765725612640381 3.48352193832397461 -0.066123373806476593
-0.956299543380737305 6.30213403701782227 0.120736896991729736
0.0956805646419525146 2.51998662948608398 -0.532123327255249023
-3.12851858139038086 5.27318525314331055 0.262354224920272827
-1.80373251438140869 3.16750574111938477 -0.610937178134918213
0.157768607139587402 4.8774566650390625 2.53557753562927246
0.778382778167724609 3.31769728660583496 0.397825241088867188
-2.47466826438903809 5.30748987197875977 -0.0405344069004058838
-1.04614448547363281 6.22693300247192383 0.0167830139398574829
-1.11748707294464111 4.76987075805664062 0.655605971813201904
-0.0246920324862003326 2.46099996566772461 -0.529866516590118408
-2.18820929527282715 5.94057703018188477 -0.244623005390167236
-2.71529603004455566 5.20882940292358398 -0.310483574867248535
-0.0836449116468429565 2.5599205493927002 -0.567239046096801758
0.220599114894866943 2.65213871002197266 -0.546653330326080322
-1.19600784778594971 5.27478694915771484 0.785722792148590088
-1.83092713356018066 3.07367324829101562 -0.684902429580688477
0.157340109348297119 2.66071200370788574 -0.515864074230194092
-0.0521191395819187164 2.54672789573669434 -0.51001429557800293
1.50171279907226562 3.28959870338439941 2.20032215118408203
-1.19327628612518311 5.64580774307250977 -0.307547241449356079
-1.92081856727600098 3.07598495483398438 -0.565406918525695801
-1.84850358963012695 3.12116169929504395 -0.595981717109680176
-0.0296203605830669403 2.49028468132019043 -0.591103434562683105
0.1137285977602005 4.77243185043334961 2.8697359561920166
-0.349387705326080322 4.15279150009155273 -0.441871225833892822
1.56437122821807861 3.36941838264465332 2.59913086891174316
-0.675453543663024902 4.99988317489624023 1.22224724292755127
-1.72703254222869873 5.79788351058959961 -0.172765031456947327
-0.0136517845094203949 2.46461248397827148 -0.623137235641479492
-1.31682717800140381 5.91256809234619141 1.7893834114074707
-2.63899922370910645 5.29725837707519531 0.405495315790176392
1.19248056411743164 3.59850096702575684 1.59705674648284912
-0.0469376817345619202 2.41411447525024414 -0.60196155309677124
1.29620516300201416 2.38873672485351562 -0.661553502082824707
-0.951647043228149414 6.64503765106201172 0.128374665975570679
1.72221624851226807 2.35251593589782715 -0.611911892890930176
0.0329074673354625702 2.46893215179443359 -0.523378849029541016
-0.0955057442188262939 2.5233147144317627 -0.55134129524230957
-0.948325634002685547 2.23508358001708984 -0.592082440853118896
0.694829881191253662 4.13474225997924805 2.1835932731628418
1.19167590141296387 3.04267430305480957 0.378177613019943237
