ply
format ascii 1.0
element vertex 81
comment vertices
property float x
property float y
property float z
end_header
-0.099985957145690918 1.15469241142272949 -0.719924807548522949
0.574334561824798584 2.34879922866821289 -0.717257380485534668
0.245102003216743469 2.31198215484619141 -0.596545159816741943
0.175151005387306213 2.02047109603881836 -0.761866450309753418
0.354289263486862183 2.4692378044128418 -0.665785133838653564
0.164515569806098938 2.3374783992767334 -0.582911789417266846
0.173842370510101318 2.35084962844848633 -0.587999522686004639
0.086371004581451416 2.3117220401763916 -0.634210586547851562
0.0130631420761346817 2.47515320777893066 -0.583675622940063477
0.109558694064617157 2.24690461158752441 -0.621612191200256348
0.301550745964050293 2.39692831039428711 -0.631204664707183838
0.220882818102836609 2.36027240753173828 -0.465852499008178711
0.46023443341255188 2.18209624290466309 -0.632396459579467773
0.160443156957626343 2.21650052070617676 -0.751234829425811768
0.246531307697296143 2.42674040794372559 -0.458838373422622681
0.383011311292648315 2.3525855541229248 -0.609537959098815918
0.200130820274353027 2.43082857131958008 -0.610186398029327393
0.140947014093399048 2.36492800712585449 -0.615599751472473145
0.0717814266681671143 2.48055362701416016 -0.588386356830596924
-0.229606673121452332 2.23881077766418457 -0.666823744773864746
0.166279301047325134 2.42283797264099121 -0.657332360744476318
0.180487960577011108 2.30426168441772461 -0.598693668842315674
0.413103401660919189 2.51443195343017578 -0.673075675964355469
0.358062177896499634 2.51708030700683594 -0.606993496417999268
0.452145427465438843 2.28575444221496582 -0.626573860645294189
-0.010190153494477272 2.32417726516723633 -0.555310666561126709
0.235475942492485046 2.52003073692321777 -0.525116324424743652
0.233753740787506104 2.25808572769165039 -0.618853271007537842
0.23776678740978241 2.43191790580749512 -0.635059118270874023
0.0961745232343673706 2.37978816032409668 -0.597063958644866943
0.227943271398544312 2.29911589622497559 -0.624495923519134521
0.501798272132873535 2.24816441535949707 -0.65991365909576416
-0.0775748193264007568 1.37116920948028564 -0.745646417140960693
-0.191963225603103638 2.33522272109985352 -0.588915646076202393
0.159291461110115051 2.3204958438873291 -0.596760094165802002
0.331319987773895264 2.51882624626159668 -0.426144838333129883
0.254802018404006958 2.41946244239807129 -0.512942910194396973
0.178610846400260925 2.34016776084899902 -0.570756912231445312
0.172587454319000244 2.42363286018371582 -0.626012742519378662
0.245930582284927368 2.32738161087036133 -0.628342032432556152
0.281250417232513428 2.53959846496582031 -0.350979626178741455
0.631534337997436523 2.11958146095275879 -0.730379879474639893
0.095671139657497406 2.39882826805114746 -0.621367096900939941
0.142142996191978455 2.17368412017822266 -0.702079892158508301
0.385195791721343994 2.37260675430297852 -0.628781378269195557
0.55416029691696167 2.24244070053100586 -0.600894451141357422
0.558661341667175293 2.65428590774536133 -0.442745804786682129
0.719821512699127197 2.16128444671630859 -0.639423370361328125
0.170944705605506897 2.35865378379821777 -0.552008092403411865
-0.23363552987575531 2.22458863258361816 -0.572530567646026611
0.24051983654499054 2.41230463981628418 -0.604770660400390625
0.450143128633499146 2.43649578094482422 -0.668970286846160889
-0.089948505163192749 2.25972843170166016 -0.62056887149810791
0.479337602853775024 2.33109211921691895 -0.613280653953552246
0.15745227038860321 2.41381382942199707 -0.621477842330932617
-0.000878740102052688599 2.15388202667236328 -0.70239567756652832
0.388264864683151245 2.32420778274536133 -0.640361547470092773
0.0830010101199150085 2.40186977386474609 -0.588527500629425049
0.448719263076782227 2.65023279190063477 -0.503238916397094727
-0.0633126050233840942 1.23209547996520996 -0.701951563358306885
-0.0452549606561660767 1.16494393348693848 -0.725558280944824219
0.420548498630523682 2.3444521427154541 -0.665415823459625244
0.225323259830474854 2.49502778053283691 -0.562232553958892822
0.264280617237091064 2.4436335563659668 -0.665522933006286621
0.277930974960327148 2.48183131217956543 -0.671345114707946777
0.368263483047485352 2.42703485488891602 -0.633246243000030518
0.163093045353889465 2.31633639335632324 -0.313219696283340454
0.025148298591375351 2.3650205135345459 -0.557249784469604492
0.31650841236114502 2.22504663467407227 -0.687204301357269287
0.254725158214569092 2.48876237869262695 -0.520131170749664307
3.50866466760635376e-05 2.48238205909729004 -0.635922670364379883
0.207823961973190308 2.28808712959289551 -0.54416203498840332
-0.0544028021395206451 2.329803466796875 -0.478241413831710815
0.00527296029031276703 1.21437680721282959 -0.734975636005401611
0.618787646293640137 2.24898099899291992 -0.596251010894775391
0.272644370794296265 2.36206865310668945 -0.572517752647399902
0.581735670566558838 2.56948471069335938 -0.488927900791168213
-0.0354652740061283112 2.3880155086517334 -0.574937522411346436
0.223284125328063965 2.15579414367675781 -0.774163007736206055
0.485282182693481445 2.26255989074707031 -0.659530162811279297
0.0147790536284446716 2.26456403732299805 -0.661445558071136475
