ply
format ascii 1.0
element vertex 256
comment vertices
property float x
property float y
property float z
end_header
-0.313216269016265869 2.48752212524414062 -0.664614677429199219
0.234341025352478027 6.40883541107177734 2.79697728157043457
3.99700713157653809 6.1186981201171875 1.43811798095703125
-2.39824676513671875 4.04114627838134766 0.28529125452041626
1.79326260089874268 3.72309565544128418 0.891290426254272461
-0.308884173631668091 3.99968528747558594 1.22412633895874023
2.90289402008056641 5.00678825378417969 -0.146298915147781372
-0.384963810443878174 2.26583361625671387 -0.643846213817596436
2.26708173751831055 6.35789108276367188 2.41453790664672852
1.77681112289428711 2.82383322715759277 -0.754137217998504639
-0.990673184394836426 2.54113292694091797 -0.604768097400665283
0.48122328519821167 1.92672109603881836 -0.241983413696289062
0.318163216114044189 3.05068492889404297 0.0685778558254241943
0.763851523399353027 6.70500612258911133 2.42217731475830078
-0.819359898567199707 2.0125429630279541 -0.788203835487365723
1.09575963020324707 2.86078047752380371 -0.858986437320709229
-0.957958757877349854 2.51936697959899902 -0.00389373302459716797
2.16309833526611328 7.32979965209960938 0.596166908740997314
-2.05116391181945801 3.82666897773742676 -0.544109463691711426
3.76978969573974609 5.7519078254699707 2.83860206604003906
-0.616175353527069092 2.35224366188049316 -0.702072739601135254
1.58829832077026367 3.09641337394714355 -0.156637459993362427
-0.121375352144241333 2.4715113639831543 -0.649441301822662354
0.438434004783630371 3.01516866683959961 -0.882986843585968018
-2.19967341423034668 3.49769926071166992 -0.0341475903987884521
1.34303593635559082 2.74327182769775391 -0.772017359733581543
1.5852348804473877 3.10194563865661621 -0.518306255340576172
-0.365186572074890137 2.06997179985046387 -0.595039546489715576
-0.791105985641479492 2.37710976600646973 -0.744252979755401611
0.070304572582244873 2.34025144577026367 -0.797362446784973145
1.01206314563751221 3.89034032821655273 1.36011123657226562
2.90533661842346191 4.9658665657043457 0.39559638500213623
-0.733443260192871094 2.36550045013427734 -0.0418133139610290527
-1.88062691688537598 2.67166495323181152 -0.482850879430770874
1.01527440547943115 2.67431807518005371 -0.247599110007286072
-0.524764418601989746 2.26703453063964844 -0.700652480125427246
-0.982742369174957275 4.26909685134887695 1.34114587306976318
1.70117700099945068 2.81807851791381836 -0.940256774425506592
0.542393505573272705 3.90306949615478516 1.23775744438171387
-1.74189567565917969 4.22553157806396484 1.04610919952392578
-2.10960650444030762 3.32564306259155273 -0.581952750682830811
1.46977448463439941 3.42226648330688477 0.518567204475402832
-0.0670064389705657959 3.27620029449462891 0.220580637454986572
-0.758456170558929443 2.54938793182373047 -0.734690606594085693
-2.01568984985351562 3.79265093803405762 -0.0542525649070739746
1.25240445137023926 2.94198799133300781 -0.767729580402374268
-0.404731839895248413 2.5978240966796875 -0.487904936075210571
1.63481974601745605 3.46688365936279297 0.315722942352294922
1.6719820499420166 2.8735051155090332 -0.542915165424346924
-0.0282064527273178101 2.49522495269775391 -0.639122903347015381
0.4797038733959198 6.63649272918701172 2.48498630523681641
-0.32314571738243103 2.30676794052124023 -0.706875145435333252
2.63420486450195312 7.18454694747924805 0.647710800170898438
2.72804951667785645 6.27849531173706055 2.46489167213439941
-0.67373126745223999 2.29437875747680664 -0.68471604585647583
1.77200639247894287 2.97069740295410156 -0.85423576831817627
1.06471943855285645 2.70644426345825195 -0.677597343921661377
-0.459403693675994873 2.26648950576782227 -0.670002400875091553
0.34741818904876709 2.42400336265563965 -0.128334015607833862
1.25873732566833496 6.55896472930908203 2.48199772834777832
1.55289661884307861 2.90195369720458984 -0.259682655334472656
2.11104321479797363 3.03163385391235352 -0.448763519525527954
-2.38252425193786621 3.95232748985290527 -0.278266847133636475
-1.74669599533081055 2.80329608917236328 -0.797157645225524902
-0.836439013481140137 2.33884525299072266 -0.727889716625213623
-0.404856890439987183 2.33757710456848145 -0.607776165008544922
0.71287769079208374 3.97516965866088867 0.840333700180053711
-0.548653364181518555 3.76083493232727051 0.638985157012939453
0.821600079536437988 2.23542284965515137 -0.827933132648468018
-1.99911999702453613 3.78302812576293945 -0.490326792001724243
-0.174097135663032532 2.4292445182800293 -0.699859440326690674
1.0777587890625 2.92579793930053711 -0.839151501655578613
1.47151100635528564 2.6114649772644043 -0.54336392879486084
-1.01947081089019775 2.55519747734069824 -0.697589576244354248
-1.26543200016021729 2.39137077331542969 -0.392874598503112793
1.43548929691314697 2.9538731575012207 -0.79484868049621582
0.858281135559082031 2.85699105262756348 -0.866751492023468018
0.482503890991210938 2.30360746383666992 -0.423425555229187012
-0.843390583992004395 2.26267528533935547 -0.667473971843719482
2.5669710636138916 5.1067967414855957 -0.0526300370693206787
-0.296924948692321777 2.14487123489379883 -0.598281681537628174
-0.593955814838409424 2.25079488754272461 -0.754150152206420898
-0.887154519557952881 2.41093134880065918 -0.727839231491088867
-1.25563144683837891 4.05391788482666016 0.742343902587890625
-1.09511387348175049 2.5280909538269043 -0.10206255316734314
1.45941829681396484 3.87490987777709961 0.765798807144165039
-0.0804176926612854004 2.17049837112426758 -0.83277660608291626
-1.14926719665527344 2.43698263168334961 -0.543905973434448242
-0.372333645820617676 3.42817473411560059 0.374133050441741943
-1.44416189193725586 2.60560417175292969 -0.326440036296844482
-2.07779526710510254 4.16621875762939453 0.307508945465087891
-1.89391040802001953 3.86784100532531738 -0.560262322425842285
1.983306884765625 3.21295452117919922 -0.00925076007843017578
-0.106110371649265289 2.47278690338134766 -0.146690815687179565
1.41830623149871826 2.90585494041442871 -0.630535304546356201
1.53852462768554688 2.91248822212219238 -0.93176347017288208
0.0228749960660934448 3.85737204551696777 1.03987622261047363
-0.414364159107208252 2.43285822868347168 -0.693016588687896729
1.20430505275726318 3.71522998809814453 0.747538387775421143
0.490122795104980469 2.62334275245666504 -0.835243105888366699
1.53654491901397705 2.76159405708312988 -0.684566259384155273
-2.33353400230407715 3.91109800338745117 -0.0225678980350494385
1.16681694984436035 2.96893644332885742 -0.9000588059425354
-0.3217640221118927 2.55145406723022461 -0.536065578460693359
-0.177468061447143555 2.68114519119262695 -0.660986065864562988
-1.68695402145385742 3.89357566833496094 0.240249156951904297
-0.393510162830352783 2.37173223495483398 -0.72920382022857666
0.444087177515029907 2.82481527328491211 -0.731337130069732666
0.316031157970428467 2.43961024284362793 -0.565044224262237549
1.41418540477752686 3.64161300659179688 0.581374168395996094
-0.685827076435089111 2.82916879653930664 0.029027104377746582
1.84640121459960938 2.92468643188476562 -0.927805066108703613
1.1717609167098999 2.80552148818969727 -0.622385680675506592
1.57440102100372314 3.35151505470275879 0.153772860765457153
0.977520108222961426 2.95295262336730957 -0.766062259674072266
3.00911593437194824 5.19318485260009766 -0.0933972001075744629
2.2789769172668457 2.91356778144836426 -0.690850555896759033
2.3808894157409668 7.29703378677368164 0.61603313684463501
-0.384254813194274902 2.65727019309997559 -0.638301610946655273
-0.827161073684692383 2.47993588447570801 -0.731853246688842773
-1.02123188972473145 2.52486300468444824 -0.695619642734527588
-0.649925589561462402 2.08604574203491211 -0.760056197643280029
1.2849801778793335 2.92535138130187988 -0.462152570486068726
0.314057737588882446 3.48542571067810059 0.309597790241241455
-0.302211552858352661 2.38912034034729004 -0.680273354053497314
-0.616775870323181152 4.16678428649902344 1.35993826389312744
1.21490895748138428 3.2438504695892334 0.332427799701690674
-0.634197711944580078 2.20833635330200195 -0.607454180717468262
1.41106986999511719 2.93405508995056152 -0.799202442169189453
-0.445115238428115845 2.45356535911560059 -0.730751454830169678
-0.399223685264587402 2.25875186920166016 -0.735644638538360596
1.71773040294647217 2.97668266296386719 -0.503040194511413574
-0.349582135677337646 2.39819526672363281 -0.651305615901947021
0.268178880214691162 3.74515938758850098 0.758881568908691406
0.229525923728942871 2.46338081359863281 -0.559447050094604492
0.460280030965805054 6.36758184432983398 2.68746566772460938
1.75280952453613281 3.37329363822937012 -0.00825744867324829102
-0.320793569087982178 2.3204340934753418 -0.612269103527069092
-0.155995085835456848 2.93808889389038086 -0.00778734683990478516
1.44036626815795898 2.75405120849609375 -0.611780285835266113
-0.446796208620071411 2.27521705627441406 -0.65740281343460083
-0.681432723999023438 2.24938726425170898 -0.617684066295623779
0.194908082485198975 2.48275375366210938 -0.845414340496063232
-0.0454519391059875488 2.34690642356872559 -0.232531160116195679
-2.04647326469421387 2.86636233329772949 -0.620380759239196777
-1.00508975982666016 2.27417612075805664 -0.729035139083862305
1.52569806575775146 2.73838210105895996 -0.673246264457702637
-1.92763495445251465 3.27706265449523926 -0.400378525257110596
0.975639820098876953 3.60651445388793945 0.542521774768829346
1.66952848434448242 2.9081120491027832 -0.938371002674102783
1.01915144920349121 2.7473151683807373 -0.795921683311462402
1.58844912052154541 2.79052925109863281 -0.793955206871032715
-0.604653060436248779 2.14292478561401367 -0.733056604862213135
-0.75043952465057373 2.44915246963500977 -0.65677720308303833
0.978030860424041748 4.0941767692565918 1.58990895748138428
1.1755974292755127 2.84180068969726562 -0.371502727270126343
1.48347020149230957 2.98641538619995117 -0.451830923557281494
1.49486255645751953 3.3857266902923584 0.110165655612945557
-0.768909335136413574 3.92197370529174805 0.876628100872039795
1.06532788276672363 2.66553020477294922 -0.463526785373687744
-0.677542746067047119 2.33854126930236816 -0.701231241226196289
2.87287616729736328 5.1405491828918457 0.0103216767311096191
-0.680044770240783691 2.29770040512084961 -0.685157835483551025
0.848534107208251953 2.66710281372070312 -0.21539616584777832
1.4822547435760498 2.93359684944152832 -0.861081063747406006
0.089651256799697876 3.00100350379943848 0.0522772073745727539
-1.05435383319854736 2.42191553115844727 -0.604642331600189209
1.20537233352661133 2.50308537483215332 -0.371779501438140869
0.775599479675292969 2.97140312194824219 -0.86706995964050293
1.34147930145263672 2.88318490982055664 -0.678422987461090088
0.541369199752807617 6.73580026626586914 2.41400504112243652
-0.0323378592729568481 2.4905397891998291 -0.635409653186798096
-1.96539211273193359 4.01499128341674805 -0.209679961204528809
-0.528009474277496338 2.6321260929107666 0.0150951743125915527
-0.224657610058784485 2.17740964889526367 -0.619249820709228516
-0.765913248062133789 2.56579232215881348 -0.710041522979736328
-0.430602937936782837 2.30946731567382812 -0.748692572116851807
-0.891431689262390137 2.45885992050170898 -0.698460936546325684
-1.17770588397979736 2.35337376594543457 -0.228548616170883179
-2.10255551338195801 3.96690750122070312 -0.390135884284973145
-1.1283867359161377 4.25907087326049805 1.40621352195739746
-0.17081063985824585 2.70689535140991211 -0.730878829956054688
-0.240926504135131836 2.3978884220123291 -0.636786580085754395
1.46845507621765137 2.81507158279418945 -0.416499882936477661
-2.2691795825958252 3.50270533561706543 -0.00391137599945068359
-0.143050134181976318 2.42216634750366211 -0.653520703315734863
0.828208029270172119 2.67436075210571289 -0.833052396774291992
-0.288695633411407471 2.60019016265869141 -0.582524418830871582
-0.726714551448822021 2.02699899673461914 -0.768271565437316895
0.368555635213851929 3.90001797676086426 1.83240139484405518
0.981733262538909912 3.8468165397644043 0.778514564037322998
-0.0136431679129600525 3.34450316429138184 0.4244384765625
-0.643859744071960449 2.5142064094543457 -0.127320200204849243
0.353523075580596924 2.30642342567443848 -0.808961689472198486
1.15597319602966309 2.69598007202148438 -0.297572910785675049
-1.00392067432403564 2.5726170539855957 -0.658540129661560059
-0.178238153457641602 2.61978054046630859 -0.477134078741073608
0.586504220962524414 2.99714493751525879 -0.777041077613830566
1.64844655990600586 2.79783082008361816 -0.871654510498046875
-0.394789278507232666 3.9555504322052002 0.824573874473571777
-0.501635849475860596 2.23569154739379883 -0.677014052867889404
-0.366392433643341064 2.37877535820007324 -0.717631995677947998
0.513490438461303711 3.89653253555297852 1.0099639892578125
-1.85972297191619873 3.95666170120239258 0.394977152347564697
2.8099822998046875 5.13275814056396484 -0.124568760395050049
-1.2555382251739502 3.52250766754150391 0.334224522113800049
-1.86554265022277832 3.02927732467651367 -0.19010460376739502
-0.994448602199554443 2.51864337921142578 -0.717995882034301758
-1.52607822418212891 4.16156244277954102 1.11164259910583496
1.46018755435943604 3.70942068099975586 0.692050278186798096
-0.350842773914337158 2.22878408432006836 -0.590714991092681885
-0.580460250377655029 2.2301487922668457 -0.708347141742706299
-2.10416507720947266 3.30398869514465332 -0.540688633918762207
-2.18482708930969238 4.02114677429199219 0.182241559028625488
1.26026058197021484 2.89067697525024414 -0.785570025444030762
1.83245420455932617 2.99551749229431152 -0.847409725189208984
-0.868819653987884521 2.33856725692749023 -0.696654140949249268
-0.043669968843460083 2.45139074325561523 -0.614728212356567383
1.24685406684875488 2.97061967849731445 -0.802744865417480469
-0.169536992907524109 2.35864996910095215 -0.759026646614074707
1.88916206359863281 3.06650161743164062 -0.288347542285919189
1.27477002143859863 3.79729199409484863 0.689184010028839111
1.75623059272766113 3.15670180320739746 0.0643423348665237427
-0.918756842613220215 2.32444882392883301 -0.781308472156524658
-0.363526284694671631 3.06204080581665039 0.224306404590606689
1.18639814853668213 3.81221342086791992 0.777703702449798584
-1.95632791519165039 3.95563578605651855 -0.486502230167388916
-1.26711463928222656 2.37605166435241699 -0.518184840679168701
0.148045599460601807 2.34998726844787598 -0.0662716031074523926
1.60906100273132324 2.95630407333374023 -0.497702181339263916
1.20717847347259521 2.96972298622131348 -0.86553800106048584
-0.318596333265304565 2.5392768383026123 -0.561644434928894043
1.59186887741088867 2.98743104934692383 -0.740978240966796875
1.7760007381439209 3.65191960334777832 0.591632723808288574
-1.10117292404174805 2.40589475631713867 -0.652134895324707031
2.66292285919189453 5.03587055206298828 -0.0946492105722427368
2.16205596923828125 6.57347297668457031 2.20200085639953613
1.3287961483001709 2.85008978843688965 -0.793442428112030029
-1.46285510063171387 2.4825282096862793 -0.438300907611846924
-0.554714858531951904 2.53281068801879883 -0.65696418285369873
-0.202109217643737793 2.23962116241455078 -0.588215827941894531
-0.226457938551902771 2.12206649780273438 -0.626472294330596924
-2.19011569023132324 3.99987173080444336 -0.423570960760116577
-1.65076220035552979 4.04053449630737305 0.549434185028076172
-0.288448244333267212 2.41658520698547363 -0.622825086116790771
-2.10382294654846191 3.90954756736755371 0.168046951293945312
1.11675333976745605 2.7971186637878418 -0.709909498691558838
-1.41788768768310547 3.67602276802062988 0.368075549602508545
2.89087152481079102 7.23263311386108398 0.621490061283111572
-0.517846584320068359 2.52327823638916016 -0.139597445726394653
0.0420662760734558105 3.00283527374267578 0.0195365548133850098
1.52515268325805664 2.69701242446899414 -0.568997383117675781
-2.5391535758972168 3.90237545967102051 -0.0605424940586090088
0.0232629124075174332 2.34096407890319824 -0.586396217346191406
0.301190555095672607 3.85382699966430664 1.30115020275115967
-0.801078438758850098 4.12444925308227539 1.22975659370422363
