ply
format ascii 1.0
element vertex 256
comment vertices
property float x
property float y
property float z
end_header
-0.576415061950683594 1.91992855072021484 -1.1379084587097168
4.48733234405517578 7.17593526840209961 2.81154918670654297
3.15592455863952637 4.91753339767456055 -0.852841496467590332
-0.72146451473236084 5.39710569381713867 1.61245429515838623
-0.182083487510681152 4.9044651985168457 -0.768963754177093506
1.01108574867248535 7.85631227493286133 2.71892905235290527
2.08020162582397461 5.72041606903076172 1.70548844337463379
1.52342486381530762 3.07372355461120605 -0.715782880783081055
-1.11040079593658447 3.44670009613037109 0.588003873825073242
1.79505264759063721 6.78702020645141602 2.11107444763183594
-1.57684946060180664 5.39582967758178711 0.0823376253247261047
1.44881737232208252 3.68837499618530273 -0.648105859756469727
0.0290534645318984985 5.16343879699707031 -0.146042108535766602
-0.921641230583190918 1.98990631103515625 -0.0583007931709289551
-0.947668194770812988 3.4662020206451416 -0.589089512825012207
3.01943802833557129 5.0139765739440918 0.0922046303749084473
0.678471863269805908 2.74843478202819824 -0.827289104461669922
2.29071521759033203 3.63275289535522461 -0.816727101802825928
3.24992704391479492 7.40295886993408203 2.891357421875
0.4448891282081604 2.94543552398681641 -0.653141915798187256
-0.927232742309570312 4.7067103385925293 0.630689918994903564
0.702468991279602051 7.05216789245605469 2.13111114501953125
-0.0771154463291168213 7.43082284927368164 2.38850092887878418
-0.688654124736785889 4.31543302536010742 -0.431421279907226562
2.42693662643432617 4.85779953002929688 -0.478587925434112549
2.43422722816467285 3.04417610168457031 -0.810472667217254639
-1.58842182159423828 5.62973642349243164 0.834828734397888184
-0.529363036155700684 5.31344985961914062 -0.607916593551635742
-0.206900119781494141 2.9571380615234375 -0.831307113170623779
1.02031826972961426 4.40689754486083984 -0.172620177268981934
-0.707668066024780273 2.16504168510437012 -0.36096307635307312
0.84315645694732666 4.0802617073059082 -0.673385739326477051
1.01861631870269775 3.42177891731262207 -0.628783583641052246
-0.67674410343170166 5.45712900161743164 0.565530836582183838
-0.650934278964996338 1.7238847017288208 -0.614462733268737793
2.34663128852844238 4.52647209167480469 2.75396633148193359
-0.187769755721092224 3.87316179275512695 -0.742983639240264893
3.35318183898925781 6.34284496307373047 2.54726052284240723
1.60272800922393799 8.15369892120361328 2.16175484657287598
2.76869702339172363 5.49542045593261719 0.824290573596954346
-0.757568120956420898 5.17687416076660156 -0.719237864017486572
2.13159441947937012 4.8930816650390625 0.0533808469772338867
-0.965491175651550293 2.99680471420288086 -0.329705208539962769
-1.140067458152771 3.19231820106506348 -1.07613968849182129
3.00379848480224609 4.88355827331542969 -0.618383347988128662
0.849221944808959961 5.29395866394042969 2.38102889060974121
0.734731793403625488 2.61657142639160156 -0.819407999515533447
0.18122410774230957 2.33210301399230957 -1.03277468681335449
1.4005887508392334 2.68802118301391602 -0.80299144983291626
-0.88682091236114502 4.98442649841308594 0.336477845907211304
0.930249571800231934 3.42805385589599609 -0.578560590744018555
0.764724493026733398 2.6587519645690918 -0.821300745010375977
0.611250758171081543 7.26824712753295898 3.08850193023681641
0.202184662222862244 5.01802206039428711 -0.491574585437774658
-1.32797873020172119 3.76949882507324219 0.608758628368377686
-1.07234668731689453 4.15063619613647461 -0.368875265121459961
1.39029669761657715 4.35947322845458984 -0.453596204519271851
2.59931468963623047 7.26142597198486328 2.11855959892272949
0.96506422758102417 4.06515312194824219 -0.478916823863983154
-0.615026593208312988 4.29711580276489258 -0.583962202072143555
-1.13569474220275879 2.14189505577087402 -0.0228803157806396484
0.222837716341018677 7.18695163726806641 2.2178807258605957
2.40750265121459961 4.61980295181274414 -0.686375200748443604
-0.383574575185775757 3.36845660209655762 -0.83560711145401001
3.68232488632202148 5.10178279876708984 -0.814906299114227295
-0.633894026279449463 1.63226485252380371 -0.869378447532653809
1.25846052169799805 7.11562681198120117 2.08466100692749023
-0.139202877879142761 5.61962318420410156 0.136612787842750549
-0.847446143627166748 3.23481655120849609 -0.624135971069335938
0.926921308040618896 3.99675536155700684 -0.51594012975692749
1.55288708209991455 5.70722007751464844 1.50820183753967285
-1.01504230499267578 4.29395198822021484 0.202327772974967957
2.16702890396118164 3.4703514575958252 -0.702481627464294434
1.45067644119262695 3.46432161331176758 -0.650109827518463135
-0.037720266729593277 4.1303563117980957 -0.507302403450012207
-0.87910163402557373 1.84331762790679932 -0.633081257343292236
2.68360233306884766 4.92635774612426758 -0.266932487487792969
-1.0616910457611084 5.2730712890625 0.754900276660919189
1.40082001686096191 3.03423762321472168 -0.699762701988220215
-1.57282209396362305 5.51286697387695312 0.286044716835021973
-0.558286309242248535 5.58379507064819336 -0.664173245429992676
1.52363646030426025 4.95913839340209961 0.158935964107513428
0.501651525497436523 5.08738088607788086 0.142084658145904541
1.16938066482543945 4.03643512725830078 -0.531698107719421387
0.229411035776138306 3.01113772392272949 -0.66378939151763916
-0.24403516948223114 2.68306207656860352 -1.11522209644317627
-0.868190944194793701 2.13448476791381836 -0.0624435171484947205
-1.00194358825683594 3.04761219024658203 0.0403810739517211914
-0.795642614364624023 1.92065286636352539 -0.285122156143188477
-0.583627402782440186 4.43904972076416016 -0.713919162750244141
2.67393779754638672 5.05074834823608398 0.430025637149810791
2.6727907657623291 4.06505870819091797 -0.856235325336456299
3.95493578910827637 7.40607595443725586 2.79277896881103516
-0.860010087490081787 3.4676971435546875 -0.583722531795501709
-0.387988090515136719 2.55977225303649902 -1.04233908653259277
-0.307355582714080811 4.86562871932983398 -0.476201444864273071
-0.604823708534240723 5.8152308464050293 0.992155134677886963
-0.856177628040313721 4.99745464324951172 0.199392378330230713
0.846375226974487305 2.93152761459350586 -0.688624322414398193
2.36308765411376953 4.67219877243041992 -0.190381705760955811
1.89050161838531494 4.20747184753417969 -0.720375895500183105
-0.163592308759689331 5.40819549560546875 0.435166895389556885
2.36376142501831055 5.49255943298339844 0.831103384494781494
-0.984476327896118164 3.54787969589233398 -0.794204115867614746
-0.916741430759429932 5.16553449630737305 0.00132784247398376465
0.670707225799560547 5.79990768432617188 1.64735066890716553
0.310547143220901489 2.61384344100952148 -0.851782321929931641
1.04200446605682373 8.1818695068359375 2.13265728950500488
1.2306983470916748 7.66012287139892578 2.11186504364013672
0.807527661323547363 2.81425929069519043 -0.660597860813140869
-0.132470309734344482 1.9422755241394043 -1.43504083156585693
-1.14554595947265625 2.09249353408813477 -0.725412189960479736
0.914772152900695801 2.66075801849365234 -0.786707460880279541
0.128078192472457886 4.42124271392822266 -0.721029222011566162
-0.879355430603027344 2.02679347991943359 -0.2473611980676651
-0.351162344217300415 3.12537884712219238 -0.99905085563659668
0.669265449047088623 2.82439470291137695 -0.735012710094451904
-1.71047568321228027 5.37621593475341797 0.0561219155788421631
2.02015972137451172 4.3107914924621582 -0.424107909202575684
2.43261861801147461 6.69859695434570312 2.00743579864501953
0.396320700645446777 4.05885124206542969 -0.289792507886886597
0.763658046722412109 2.76506519317626953 -0.732974529266357422
-1.13390851020812988 4.12556552886962891 0.452243924140930176
1.50744795799255371 4.03651618957519531 -0.414656579494476318
-0.386834263801574707 5.09602928161621094 -0.91676253080368042
1.07301521301269531 3.93782854080200195 -0.60553818941116333
2.92229461669921875 4.97679853439331055 -0.18611752986907959
-0.504129707813262939 4.35785150527954102 -0.485965728759765625
-0.942666888236999512 4.9604034423828125 0.481259465217590332
-0.825298786163330078 4.00644540786743164 -0.352254927158355713
-1.04916679859161377 3.39665341377258301 -0.637157559394836426
-1.02215898036956787 4.11904573440551758 -0.367982417345046997
3.13701057434082031 5.06478214263916016 -0.663982629776000977
2.75681567192077637 4.83723735809326172 -0.470582783222198486
-0.459459662437438965 5.24118709564208984 -0.604952573776245117
0.74107813835144043 2.6520392894744873 -0.761152088642120361
0.63410496711730957 2.71543693542480469 -0.765340745449066162
-0.929848074913024902 5.50773429870605469 1.06885218620300293
2.91656899452209473 5.09820699691772461 0.399444580078125
-0.319522678852081299 4.17491388320922852 -0.75436025857925415
0.216814324259757996 3.18393158912658691 -0.660331606864929199
-1.02505683898925781 3.12177848815917969 -0.597292423248291016
0.690489113330841064 3.18492698669433594 -0.676378130912780762
-1.13100433349609375 1.81169915199279785 -0.834951519966125488
-1.05392765998840332 3.15122103691101074 -0.60231482982635498
-0.951566338539123535 4.95533514022827148 0.397715568542480469
1.65629184246063232 4.46642017364501953 -0.237280577421188354
-1.06083261966705322 1.95007467269897461 -0.185710623860359192
-0.558680236339569092 3.45166563987731934 -0.87026524543762207
1.08188199996948242 4.50522708892822266 -0.495047539472579956
-0.191828072071075439 5.46937799453735352 -0.6028023362159729
-1.13024675846099854 3.51571011543273926 0.590255379676818848
0.348300725221633911 7.38907337188720703 2.72032570838928223
-0.564904928207397461 3.61198639869689941 -0.533123910427093506
1.8704293966293335 8.04569053649902344 2.08582091331481934
1.93930196762084961 2.71536612510681152 -0.856789052486419678
1.05730509757995605 7.33600234985351562 2.07696342468261719
-0.699500083923339844 5.07915353775024414 -0.77698063850402832
1.29148602485656738 3.81003093719482422 -0.574289500713348389
1.98027968406677246 2.84641933441162109 -0.786948919296264648
1.47453212738037109 4.37966537475585938 -0.273159891366958618
0.297926366329193115 3.41052651405334473 -0.734042823314666748
2.44788265228271484 4.75183296203613281 -0.555002987384796143
-1.21451020240783691 4.76391506195068359 0.714615762233734131
0.976813733577728271 4.95923709869384766 0.208198845386505127
-0.543758571147918701 5.28279447555541992 -0.30489802360534668
1.04048299789428711 7.05810165405273438 2.21132087707519531
-0.808313488960266113 5.21459579467773438 0.186078041791915894
1.05073428153991699 2.50068187713623047 -0.765107691287994385
-1.22218143939971924 3.04722046852111816 -0.115433573722839355
0.786952555179595947 3.08850431442260742 -0.745277225971221924
1.70781636238098145 5.64928388595581055 1.32742428779602051
1.85992085933685303 7.00072479248046875 2.000579833984375
1.96171152591705322 5.21236181259155273 0.476972341537475586
-0.0516954213380813599 3.78098940849304199 -0.775709927082061768
1.31960093975067139 3.94966864585876465 -0.62265479564666748
0.940696239471435547 2.95407509803771973 -0.683446347713470459
1.25938642024993896 3.10478830337524414 -0.68101966381072998
-0.806805431842803955 1.8570091724395752 -0.442403584718704224
-0.426233232021331787 1.84309208393096924 -1.0883793830871582
0.0336979255080223083 5.79336738586425781 0.864012956619262695
-0.0540676116943359375 2.0531458854675293 -1.45884025096893311
1.25701940059661865 5.01175785064697266 0.142944931983947754
-1.01137030124664307 1.6092449426651001 -0.73901444673538208
0.627617239952087402 7.27226638793945312 2.10601186752319336
-0.681692063808441162 1.96691405773162842 -0.24897274374961853
0.0160935446619987488 4.0548553466796875 -0.512193143367767334
0.538410961627960205 3.29412269592285156 -0.68154442310333252
1.50703632831573486 2.98995327949523926 -0.759256482124328613
-1.02054703235626221 5.35133647918701172 0.689009964466094971
-0.214272111654281616 2.52646780014038086 -1.37122797966003418
-1.25033378601074219 1.93497657775878906 -0.827300906181335449
1.14233064651489258 4.09418535232543945 -0.608159840106964111
0.565487980842590332 4.83310079574584961 -0.218887835741043091
-1.20871102809906006 4.70366048812866211 0.771237850189208984
1.4446110725402832 3.86931180953979492 -0.545132637023925781
0.824846029281616211 2.63766813278198242 -0.736033618450164795
2.44538307189941406 6.92453145980834961 2.21241593360900879
-1.50760984420776367 5.56783676147460938 0.566359400749206543
-0.337046325206756592 5.92746925354003906 0.969257473945617676
2.65283012390136719 7.22521305084228516 2.52747941017150879
2.29854011535644531 4.83799600601196289 2.57427477836608887
-1.04622507095336914 3.18520236015319824 -0.684175372123718262
2.48715329170227051 5.09351778030395508 0.388759732246398926
2.87827014923095703 5.29338836669921875 0.351683914661407471
-0.17396622896194458 5.32833337783813477 -0.0146124362945556641
0.496720016002655029 3.82117938995361328 -0.587993264198303223
0.421201229095458984 2.96969461441040039 -0.679997563362121582
1.00169014930725098 5.71750974655151367 1.2522737979888916
-0.64774632453918457 5.56929159164428711 0.269232332706451416
-1.19659852981567383 1.94944143295288086 -0.284452736377716064
-1.06158006191253662 3.58510565757751465 0.664739072322845459
0.821716725826263428 2.82557845115661621 -0.815922260284423828
-0.487704634666442871 4.77985334396362305 -0.766463041305541992
1.21759724617004395 3.89855241775512695 -0.586019277572631836
0.392004460096359253 7.15603303909301758 2.14219903945922852
0.938060879707336426 4.0366673469543457 -0.394198775291442871
-0.66713327169418335 1.86735236644744873 -0.507164239883422852
3.1380150318145752 7.10008335113525391 2.52948427200317383
2.29815936088562012 4.60177850723266602 -0.648875117301940918
0.327361881732940674 4.92346382141113281 -0.466190099716186523
-0.0192801207304000854 2.57683205604553223 -0.975286662578582764
-0.484822601079940796 2.05444049835205078 -1.2382197380065918
-0.884374320507049561 3.6612391471862793 -0.657943248748779297
0.0904169827699661255 4.87862968444824219 -0.385775178670883179
0.347117364406585693 7.02415657043457031 2.70119929313659668
2.85446977615356445 6.69609308242797852 2.41663193702697754
-0.78871995210647583 2.12958192825317383 -0.205161929130554199
2.41314554214477539 4.80978155136108398 -0.509088337421417236
-0.0512568950653076172 5.45364141464233398 -0.764942586421966553
-0.369684815406799316 5.50490617752075195 -0.332217097282409668
0.562951385974884033 2.78041887283325195 -0.8169059157371521
-0.603238403797149658 4.36417770385742188 -0.396584808826446533
-0.970356225967407227 5.467987060546875 0.794799745082855225
0.436021327972412109 2.74659109115600586 -0.74928051233291626
-1.57920670509338379 5.34563684463500977 0.105922222137451172
1.60866820812225342 4.86249971389770508 2.58821010589599609
0.624605655670166016 5.46326208114624023 0.369443058967590332
1.60853767395019531 4.53687095642089844 -0.482549846172332764
-0.902496337890625 3.40491938591003418 -0.499490529298782349
-1.5965423583984375 5.47279977798461914 0.286229312419891357
0.646093368530273438 2.77519488334655762 -0.705582976341247559
-0.584292173385620117 1.68929553031921387 -0.127523690462112427
-0.916664600372314453 4.04160928726196289 -0.445255577564239502
2.73062419891357422 4.93323802947998047 2.64634418487548828
2.45844817161560059 4.87078142166137695 -0.0678327083587646484
0.426337629556655884 2.58873367309570312 -0.927489221096038818
2.16003608703613281 4.72873449325561523 -0.524456620216369629
1.04067134857177734 4.09238624572753906 -0.437046259641647339
0.617338418960571289 2.89900588989257812 -0.755089998245239258
-0.794861376285552979 5.07301712036132812 0.202011927962303162
1.41446030139923096 2.45256662368774414 -0.8126792311668396
-1.05666661262512207 4.73248577117919922 0.643413364887237549
-1.13626444339752197 2.09025144577026367 -1.14367246627807617
-0.638812661170959473 3.44623756408691406 -0.584854662418365479
-0.804217517375946045 2.04971814155578613 -0.571030080318450928
