ply
format ascii 1.0
element vertex 79
comment vertices
property float x
property float y
property float z
end_header
-1.78237652778625488 3.03951001167297363 -0.623670876026153564
-0.051374875009059906 2.48967194557189941 -0.570642471313476562
0.225064545869827271 2.65993165969848633 -0.493515670299530029
-0.0605450049042701721 2.51605224609375 -0.551136136054992676
0.0943620577454566956 2.54715538024902344 -0.55607306957244873
0.0835661888122558594 2.49527239799499512 -0.487875878810882568
-0.267509132623672485 2.39970254898071289 -0.631106674671173096
-0.0648863315582275391 2.47654199600219727 -0.593684136867523193
-0.0484715923666954041 2.49721384048461914 -0.582028627395629883
-2.13636350631713867 2.76710963249206543 -0.573886096477508545
-0.0269113518297672272 2.54414534568786621 -0.568848371505737305
0.179343104362487793 2.50800347328186035 -0.527834057807922363
-1.87509560585021973 3.29985427856445312 -0.59523773193359375
-0.0249677356332540512 2.48859715461730957 -0.524248957633972168
0.0328068360686302185 2.61887526512145996 -0.503279626369476318
-1.75891268253326416 3.08310437202453613 -0.678614556789398193
-0.318076610565185547 2.53108930587768555 -0.545452773571014404
-0.0883705466985702515 2.54560708999633789 -0.603570222854614258
0.270343005657196045 2.6439671516418457 -0.593187928199768066
-0.156796887516975403 2.48436999320983887 -0.532973587512969971
0.0267682000994682312 2.67996811866760254 -0.464163839817047119
-1.75685262680053711 3.20893049240112305 -0.593853175640106201
-0.0984549969434738159 2.41094136238098145 -0.570743441581726074
0.115816980600357056 2.74609041213989258 -0.424677580595016479
-1.79771268367767334 3.26629137992858887 -0.60713803768157959
-0.242949068546295166 2.60767984390258789 -0.49687466025352478
-1.92559206485748291 3.03707551956176758 -0.642001986503601074
-0.152796685695648193 2.57799625396728516 -0.503663778305053711
0.311248570680618286 2.63197708129882812 -0.514741122722625732
0.0316525176167488098 2.61548137664794922 -0.550296545028686523
-1.92841875553131104 3.07869148254394531 -0.622619569301605225
0.261955320835113525 2.3489997386932373 -0.538400769233703613
-0.125363022089004517 2.53247547149658203 -0.534450531005859375
-0.181191921234130859 2.48596978187561035 -0.614570081233978271
0.0815458968281745911 2.38994789123535156 -0.588663935661315918
0.223476454615592957 2.58690881729125977 -0.518449723720550537
-0.243630394339561462 2.44003629684448242 -0.594214379787445068
0.192432612180709839 2.52689051628112793 -0.495559215545654297
-0.0974413156509399414 2.45704436302185059 -0.555788576602935791
-0.0290554091334342957 2.54831719398498535 -0.511050701141357422
-1.85559892654418945 3.17990541458129883 -0.602508902549743652
0.125210091471672058 2.54496002197265625 -0.553987324237823486
0.0497486144304275513 2.74108076095581055 -0.50756382942199707
0.105733320116996765 2.51684260368347168 -0.519833564758300781
-0.00563348457217216492 2.48472285270690918 -0.584600150585174561
0.183026090264320374 2.62597250938415527 -0.504329681396484375
0.157165959477424622 2.3703155517578125 -0.567434191703796387
0.123295754194259644 2.61969947814941406 -0.464060306549072266
0.128770366311073303 2.40113186836242676 -0.521158039569854736
0.00501254387199878693 2.65221881866455078 -0.505735576152801514
0.0449272915720939636 2.5356907844543457 -0.560106158256530762
0.0613557957112789154 2.52153182029724121 -0.580254554748535156
-1.75155127048492432 3.12662506103515625 -0.647732913494110107
-0.222234740853309631 2.47019624710083008 -0.524565815925598145
-0.141558051109313965 2.53327655792236328 -0.604787051677703857
-0.133524894714355469 2.63531160354614258 -0.351329386234283447
0.0366214923560619354 2.65004253387451172 -0.468256920576095581
-0.274607717990875244 2.42429876327514648 -0.583111703395843506
0.0261363349854946136 2.38075733184814453 -0.612525582313537598
0.0956805646419525146 2.51998662948608398 -0.532123327255249023
-1.80373251438140869 3.16750574111938477 -0.610937178134918213
-0.158074438571929932 2.5652616024017334 -0.554894030094146729
-0.10772956907749176 2.42692375183105469 -0.580230474472045898
-0.0246920324862003326 2.46099996566772461 -0.529866516590118408
-0.148570135235786438 2.44712471961975098 -0.603305816650390625
-0.0836449116468429565 2.5599205493927002 -0.567239046096801758
0.220599114894866943 2.65213871002197266 -0.546653330326080322
-0.212466910481452942 2.44176268577575684 -0.612202882766723633
-1.83092713356018066 3.07367324829101562 -0.684902429580688477
0.157340109348297119 2.66071200370788574 -0.515864074230194092
-0.0521191395819187164 2.54672789573669434 -0.51001429557800293
-1.92081856727600098 3.07598495483398438 -0.565406918525695801
-1.84850358963012695 3.12116169929504395 -0.595981717109680176
-0.0296203605830669403 2.49028468132019043 -0.591103434562683105
-0.0136517845094203949 2.46461248397827148 -0.623137235641479492
-0.210656732320785522 2.51729631423950195 -0.559411346912384033
-0.0469376817345619202 2.41411447525024414 -0.60196155309677124
0.0329074673354625702 2.46893215179443359 -0.523378849029541016
-0.0955057442188262939 2.5233147144317627 -0.55134129524230957
