ply
format ascii 1.0
element vertex 75
comment vertices
property float x
property float y
property float z
end_header
0.831477940082550049 3.30537009239196777 -0.583285152912139893
1.03645980358123779 3.28235197067260742 -0.690129876136779785
-0.959446907043457031 3.7528684139251709 -0.580690324306488037
0.682962298393249512 3.2726902961730957 -0.561726152896881104
1.17404794692993164 3.24817442893981934 -0.717715442180633545
0.969690620899200439 3.2887728214263916 -0.62739109992980957
0.802659869194030762 3.1750786304473877 -0.737846732139587402
1.07696759700775146 3.19265627861022949 -0.680049538612365723
-1.45781338214874268 3.47425007820129395 -0.520612955093383789
-0.766334831714630127 3.78907179832458496 -0.712941229343414307
0.82699209451675415 3.46210861206054688 -0.552820920944213867
0.883196830749511719 3.26691770553588867 -0.656021952629089355
0.900066733360290527 3.43723320960998535 -0.682400047779083252
-1.24764561653137207 3.56511330604553223 -0.57872617244720459
1.00175416469573975 3.26365041732788086 -0.600350618362426758
-1.30615437030792236 3.65585517883300781 -0.659468770027160645
0.830713570117950439 3.03717184066772461 -0.713006258010864258
0.933885693550109863 3.4001920223236084 -0.678218364715576172
1.24660682678222656 3.26701760292053223 -0.470167696475982666
1.03551411628723145 3.52206897735595703 -0.839927256107330322
0.49988892674446106 3.23261404037475586 -0.584849953651428223
0.871297836303710938 3.20633935928344727 -0.664642393589019775
0.953893423080444336 3.39008831977844238 -0.661481022834777832
0.731312751770019531 3.35198426246643066 -0.670501291751861572
0.697891116142272949 3.20972514152526855 -0.676200568675994873
0.67846977710723877 3.42989563941955566 -0.563427150249481201
0.772796809673309326 3.27706456184387207 -0.711282312870025635
0.831225872039794922 3.27422285079956055 -0.631960272789001465
-1.27845358848571777 3.67991399765014648 -0.752240419387817383
0.67045295238494873 3.31297779083251953 -0.584952354431152344
0.880581557750701904 3.38497400283813477 -0.709580004215240479
-1.15877854824066162 3.70727300643920898 -0.51918792724609375
-1.44489896297454834 3.45803141593933105 -0.634086906909942627
1.09583210945129395 3.17163801193237305 -0.673809170722961426
0.57348930835723877 3.16863489151000977 -0.600969016551971436
0.670535922050476074 3.26092863082885742 -0.527973711490631104
0.954983115196228027 3.26678133010864258 -0.659824550151824951
-0.832613170146942139 3.85319757461547852 -0.590382099151611328
-1.24355757236480713 3.7657465934753418 -0.539866447448730469
-1.21767663955688477 3.62156367301940918 -0.518399298191070557
0.435576915740966797 3.1914827823638916 -0.491601228713989258
-0.985859870910644531 3.70731925964355469 -0.505252599716186523
1.00988268852233887 3.27976822853088379 -0.709126532077789307
0.937349915504455566 3.3246006965637207 -0.662552714347839355
0.822599232196807861 3.3806610107421875 -0.644305825233459473
-0.762230992317199707 3.72834610939025879 -0.55991363525390625
0.992626786231994629 3.07014131546020508 -0.693072140216827393
0.592287838459014893 3.09295320510864258 -0.780344307422637939
0.926556229591369629 3.49439024925231934 -0.630550026893615723
-1.32066035270690918 3.60516929626464844 -0.506579041481018066
0.84529721736907959 3.26508855819702148 -0.660074174404144287
-0.99902188777923584 3.77409934997558594 -0.624563932418823242
0.632824301719665527 3.33511996269226074 -0.647145211696624756
1.02263331413269043 3.15756535530090332 -0.664789199829101562
0.818099319934844971 3.3685615062713623 -0.629272997379302979
0.779715955257415771 3.28037667274475098 -0.64911264181137085
0.650187492370605469 3.09439182281494141 -0.86238175630569458
-0.97857898473739624 3.58814692497253418 -0.506120502948760986
0.919838488101959229 3.28279256820678711 -0.688865065574645996
0.820967018604278564 3.37063121795654297 -0.563643097877502441
0.538454234600067139 3.18941783905029297 -0.543714642524719238
-1.2950512170791626 3.55818390846252441 -0.628527224063873291
-1.28512299060821533 3.55461502075195312 -0.703558743000030518
0.839660763740539551 3.1999666690826416 -0.506316244602203369
0.634382486343383789 3.26384687423706055 -0.774747312068939209
0.94242095947265625 3.34306216239929199 -0.708429813385009766
-1.01760351657867432 3.67489075660705566 -0.692904293537139893
0.639990746974945068 3.21736717224121094 -0.68454974889755249
0.972626268863677979 3.05953240394592285 -0.652314662933349609
1.0507504940032959 3.22836565971374512 -0.529453694820404053
0.895219027996063232 3.29359626770019531 -0.637477517127990723
0.61973649263381958 3.23584961891174316 -0.656020045280456543
1.04030489921569824 3.29332494735717773 -0.680607020854949951
-0.918137133121490479 3.77832484245300293 -0.730979859828948975
0.697339415550231934 3.18958115577697754 -0.468035995960235596
