ply
format ascii 1.0
element vertex 27
comment vertices
property float x
property float y
property float z
end_header
-0.322723388671875 2.45038843154907227 -0.685294806957244873
1.10629463195800781 2.8415224552154541 -0.907929718494415283
-0.611450672149658203 2.35562539100646973 -0.693019330501556396
1.28769576549530029 2.92017555236816406 -0.849709868431091309
-0.402260422706604004 2.5792543888092041 -0.526830732822418213
-0.404229938983917236 2.32598400115966797 -0.628354132175445557
1.08348762989044189 2.90682625770568848 -0.88424384593963623
1.46394801139831543 2.96982955932617188 -0.851307451725006104
1.45290160179138184 2.89179468154907227 -0.714356899261474609
1.56323015689849854 2.93267178535461426 -0.923409402370452881
-0.417633146047592163 2.39816427230834961 -0.703599333763122559
1.16944277286529541 2.94171571731567383 -0.949615240097045898
-0.327990680932998657 2.52864980697631836 -0.568613767623901367
-0.38261064887046814 2.61297464370727539 -0.652734577655792236
1.43813765048980713 2.95282554626464844 -0.854330122470855713
-0.451059490442276001 2.4250023365020752 -0.729458332061767578
-0.358074426651000977 2.37087130546569824 -0.668182253837585449
-0.748809158802032471 2.43244600296020508 -0.673292398452758789
1.5230100154876709 2.9458472728729248 -0.919756591320037842
1.37709176540374756 2.87459945678710938 -0.764850139617919922
-0.29982033371925354 2.56231069564819336 -0.606859326362609863
1.29140782356262207 2.87836480140686035 -0.857684850692749023
1.27457833290100098 2.94685578346252441 -0.880880951881408691
1.23684060573577881 2.94028639793395996 -0.928426444530487061
-0.327353984117507935 2.50936555862426758 -0.584980785846710205
1.34047079086303711 2.85201787948608398 -0.877124905586242676
-0.588166892528533936 2.51302909851074219 -0.672430813312530518
