ply
format ascii 1.0
element vertex 165
comment vertices
property float x
property float y
property float z
end_header
-0.322723388671875 2.45038843154907227 -0.685294806957244873
0.156145066022872925 6.2454686164855957 2.78971600532531738
3.90382480621337891 5.96326303482055664 1.42581117153167725
-2.38760209083557129 4.11765813827514648 0.252096414566040039
1.81972682476043701 3.56419491767883301 0.909300386905670166
-0.231556326150894165 3.95064187049865723 1.30520057678222656
2.9170076847076416 4.97470331192016602 -0.208966284990310669
2.22815990447998047 6.21201181411743164 2.37503337860107422
0.439102411270141602 1.80770981311798096 -0.292488753795623779
0.334388315677642822 2.97236490249633789 -0.0583224594593048096
0.769013047218322754 6.59303712844848633 2.36528992652893066
-0.800725102424621582 1.9608532190322876 -0.774029552936553955
1.10629463195800781 2.8415224552154541 -0.907929718494415283
-0.94849783182144165 2.41548895835876465 -0.0825061053037643433
2.22247815132141113 7.25547599792480469 0.63766711950302124
-2.02928781509399414 3.83408379554748535 -0.576403260231018066
3.68297719955444336 5.59691953659057617 2.81878304481506348
-0.611450672149658203 2.35562539100646973 -0.693019330501556396
1.59630012512207031 3.01846861839294434 -0.234826579689979553
0.472743034362792969 2.97567129135131836 -0.887958765029907227
-2.2182767391204834 3.54468274116516113 -0.0457787849009037018
0.0597018226981163025 2.34075617790222168 -0.854645788669586182
1.18887150287628174 3.77389311790466309 1.4303518533706665
2.92026996612548828 4.91487550735473633 0.254236280918121338
-1.87730324268341064 2.55960512161254883 -0.541946291923522949
1.02094554901123047 2.58849406242370605 -0.322918891906738281
-0.780690431594848633 4.15860366821289062 1.47809839248657227
0.65842890739440918 3.83764314651489258 1.3513103723526001
-1.59745824337005615 4.12539339065551758 1.23133182525634766
-2.11796808242797852 3.24482011795043945 -0.592589318752288818
1.50525760650634766 3.27144098281860352 0.476663291454315186
-0.0527115762233734131 3.16046953201293945 0.0872972160577774048
-2.05686140060424805 3.81917214393615723 -0.0965140461921691895
1.28769576549530029 2.92017555236816406 -0.849709868431091309
-0.402260422706604004 2.5792543888092041 -0.526830732822418213
1.6470181941986084 3.40318512916564941 0.299627065658569336
0.467756897211074829 6.5062408447265625 2.45909357070922852
2.68999838829040527 7.09129524230957031 0.656669318675994873
2.74163389205932617 6.18336248397827148 2.42498111724853516
0.373620927333831787 2.31216049194335938 -0.197525203227996826
1.24676144123077393 6.43644905090332031 2.43743491172790527
1.59534835815429688 2.83238744735717773 -0.364366531372070312
2.12526369094848633 2.94988679885864258 -0.541453361511230469
-2.35875034332275391 3.99263095855712891 -0.383823394775390625
-1.75951838493347168 2.65616989135742188 -0.827364027500152588
-0.404229938983917236 2.32598400115966797 -0.628354132175445557
0.820495247840881348 3.86379504203796387 0.944704592227935791
-0.501237213611602783 3.63582062721252441 0.65245741605758667
0.829138457775115967 2.11781954765319824 -0.81777656078338623
-1.98467934131622314 3.79641222953796387 -0.53749847412109375
1.08348762989044189 2.90682625770568848 -0.88424384593963623
-1.25903165340423584 2.27924180030822754 -0.452911883592605591
1.46394801139831543 2.96982955932617188 -0.851307451725006104
0.510738372802734375 2.18608379364013672 -0.483156144618988037
2.61478328704833984 5.01506662368774414 -0.0764632225036621094
-1.18043196201324463 3.87481689453125 0.865564942359924316
-1.09379816055297852 2.43386173248291016 -0.178603291511535645
1.50016164779663086 3.7683875560760498 0.81134951114654541
-0.104912281036376953 2.18393659591674805 -0.832929432392120361
-1.14280557632446289 2.36618852615356445 -0.597290098667144775
-0.317389935255050659 3.27277517318725586 0.251067996025085449
-1.43274891376495361 2.49976778030395508 -0.40529438853263855
-2.07697319984436035 4.24511194229125977 0.291124194860458374
-1.86563348770141602 3.87364816665649414 -0.605107307434082031
1.98142707347869873 3.15515780448913574 -0.0121806766837835312
1.45290160179138184 2.89179468154907227 -0.714356899261474609
1.56323015689849854 2.93267178535461426 -0.923409402370452881
0.143987476825714111 3.78671383857727051 1.13837146759033203
-0.417633146047592163 2.39816427230834961 -0.703599333763122559
1.25644195079803467 3.57330441474914551 0.849107980728149414
0.509573101997375488 2.60460853576660156 -0.831378817558288574
-2.29242634773254395 4.02977609634399414 -0.144736379384994507
1.16944277286529541 2.94171571731567383 -0.949615240097045898
-0.327990680932998657 2.52864980697631836 -0.568613767623901367
-1.6792069673538208 3.86726212501525879 0.240189507603645325
0.455138355493545532 2.80598092079162598 -0.748858153820037842
0.299169361591339111 2.37090778350830078 -0.63444054126739502
1.4148634672164917 3.5312492847442627 0.626098752021789551
-0.674783587455749512 2.65889310836791992 -0.0941404178738594055
1.57608985900878906 3.34474515914916992 0.134824797511100769
3.02501392364501953 5.18129920959472656 -0.139432862401008606
2.32965445518493652 2.71681427955627441 -0.787889540195465088
2.43163418769836426 7.18475008010864258 0.654922962188720703
-0.38261064887046814 2.61297464370727539 -0.652734577655792236
0.319248199462890625 3.35614132881164551 0.207770287990570068
-0.482948899269104004 4.03719234466552734 1.46571910381317139
1.22578489780426025 3.13709497451782227 0.261914044618606567
1.43813765048980713 2.95282554626464844 -0.854330122470855713
-0.451059490442276001 2.4250023365020752 -0.729458332061767578
-0.358074426651000977 2.37087130546569824 -0.668182253837585449
0.407175362110137939 3.59176802635192871 0.956004202365875244
0.232534110546112061 2.43108177185058594 -0.625828385353088379
0.399061083793640137 6.20478534698486328 2.65217304229736328
1.77827835083007812 3.32281208038330078 -0.0152946747839450836
-0.154847592115402222 2.78835749626159668 -0.122423127293586731
0.189357772469520569 2.45711016654968262 -0.86650693416595459
-0.0369736552238464355 2.2746729850769043 -0.277575194835662842
-2.07338643074035645 2.7808539867401123 -0.68111574649810791
-1.94029200077056885 3.21522974967956543 -0.448238790035247803
1.0310288667678833 3.51441526412963867 0.53467106819152832
-0.748809158802032471 2.43244600296020508 -0.673292398452758789
1.08994507789611816 3.9256751537322998 1.64052963256835938
1.48598718643188477 3.35341024398803711 0.11511944979429245
-0.648960709571838379 3.8637087345123291 1.00320041179656982
1.06328833103179932 2.64075255393981934 -0.59083867073059082
2.92951512336730957 5.08892631530761719 -0.0524425432085990906
0.854693114757537842 2.55488038063049316 -0.295749902725219727
1.5230100154876709 2.9458472728729248 -0.919756591320037842
0.091158352792263031 2.87450909614562988 -0.0980733782052993774
1.19683706760406494 2.41121363639831543 -0.478775471448898315
1.37709176540374756 2.87459945678710938 -0.764850139617919922
0.5303078293800354 6.61491155624389648 2.38037467002868652
-1.94616818428039551 4.05995607376098633 -0.270484566688537598
-1.16999256610870361 2.27708244323730469 -0.294863700866699219
-2.0609893798828125 3.97545647621154785 -0.458662748336791992
-0.931519985198974609 4.18099212646484375 1.45665442943572998
-2.29484915733337402 3.52565765380859375 -0.0138735119253396988
0.836802899837493896 2.66977357864379883 -0.846834659576416016
-0.29982033371925354 2.56231069564819336 -0.606859326362609863
-0.704270601272583008 1.97874355316162109 -0.763378798961639404
0.350179731845855713 3.7814643383026123 1.94410121440887451
1.04014813899993896 3.71210956573486328 0.909983038902282715
0.0395394228398799896 3.17095541954040527 0.278237283229827881
0.327997744083404541 2.2348330020904541 -0.81682896614074707
1.14125156402587891 2.66846728324890137 -0.421646982431411743
0.617804229259490967 2.97392606735229492 -0.808376133441925049
-0.356757104396820068 3.85413050651550293 1.03199398517608643
0.604864716529846191 3.80634284019470215 1.18442165851593018
-1.85506927967071533 3.97897601127624512 0.445074409246444702
2.84347748756408691 5.10450983047485352 -0.171351462602615356
-1.26568043231964111 3.43824148178100586 0.236813962459564209
-1.8580622673034668 2.89938688278198242 -0.277129769325256348
-1.39618301391601562 4.09366846084594727 1.31811428070068359
1.45560371875762939 3.58662748336791992 0.768154740333557129
-2.11775898933410645 3.22751784324645996 -0.555169165134429932
-2.17329001426696777 4.13428974151611328 0.112329877912998199
1.29140782356262207 2.87836480140686035 -0.857684850692749023
1.27457833290100098 2.94685578346252441 -0.880880951881408691
1.85351574420928955 3.0063483715057373 -0.357094466686248779
1.31551253795623779 3.66326284408569336 0.804184079170227051
1.75880610942840576 3.13456153869628906 0.0532727651298046112
-0.321322649717330933 2.89935064315795898 0.0539997220039367676
1.24163269996643066 3.65690898895263672 0.888320088386535645
-1.92889606952667236 3.9665217399597168 -0.545710563659667969
-1.26345217227935791 2.26672148704528809 -0.567490518093109131
0.16019025444984436 2.24936413764953613 -0.129773810505867004
1.23684060573577881 2.94028639793395996 -0.928426444530487061
-0.327353984117507935 2.50936555862426758 -0.584980785846710205
1.76034331321716309 3.60995340347290039 0.571109771728515625
-1.077004075050354 2.35711407661437988 -0.695494413375854492
2.69470596313476562 4.99937152862548828 -0.159735843539237976
2.18800997734069824 6.53209018707275391 2.10883522033691406
1.34047079086303711 2.85201787948608398 -0.877124905586242676
-1.45332193374633789 2.36733770370483398 -0.495348155498504639
-0.588166892528533936 2.51302909851074219 -0.672430813312530518
-2.14910364151000977 4.02165317535400391 -0.508666098117828369
-1.63625431060791016 4.01160573959350586 0.631366372108459473
-2.11210060119628906 4.0434107780456543 0.0963871777057647705
-1.42078280448913574 3.62173175811767578 0.304971128702163696
2.90528559684753418 7.12549257278442383 0.644402623176574707
0.0412792637944221497 2.87758684158325195 -0.11914101243019104
-2.53492259979248047 3.99247527122497559 -0.175775378942489624
0.00182262808084487915 2.3528134822845459 -0.645652234554290771
0.410109430551528931 3.8148338794708252 1.36596524715423584
-0.659736514091491699 4.10858154296875 1.36119604110717773
