ply
format ascii 1.0
element vertex 17
comment vertices
property float x
property float y
property float z
end_header
-1.66561830043792725 3.47436332702636719 -0.682819366455078125
-1.61999452114105225 3.72255587577819824 -0.574100792407989502
-1.77460205554962158 3.56594753265380859 -0.804773986339569092
-0.139555364847183228 2.89151501655578613 -0.662730813026428223
-1.82677125930786133 3.48747491836547852 -0.679167032241821289
-0.269203662872314453 2.93407487869262695 -0.656257748603820801
-1.82723069190979004 3.53336143493652344 -0.713126480579376221
-0.0425628498196601868 2.94606161117553711 -0.465099215507507324
-0.157326385378837585 2.88434696197509766 -0.622910857200622559
-0.370921313762664795 2.91523957252502441 -0.646457195281982422
-0.207642003893852234 2.84726715087890625 -0.610925614833831787
-1.66780805587768555 3.50269913673400879 -0.657352983951568604
-1.76010394096374512 3.54438209533691406 -0.666574597358703613
-1.69910144805908203 3.5687410831451416 -0.749537646770477295
-1.773734450340271 3.45200443267822266 -0.704943418502807617
-0.205375716090202332 2.83319830894470215 -0.560861170291900635
-0.340245634317398071 2.8379359245300293 -0.604604482650756836
