ply
format ascii 1.0
element vertex 256
comment vertices
property float x
property float y
property float z
end_header
0.539157748222351074 3.48066473007202148 -0.668889164924621582
1.66608762741088867 8.09333992004394531 0.823609650135040283
-0.94350588321685791 2.03769755363464355 -0.778230726718902588
-2.10525250434875488 3.80021214485168457 0.0998594164848327637
2.72101235389709473 6.55192947387695312 -0.928150296211242676
1.54022359848022461 2.21203374862670898 -0.822495341300964355
2.85403585433959961 4.77605772018432617 -0.0490732192993164062
-1.70531880855560303 3.16991376876831055 -0.683522880077362061
0.511662125587463379 3.77268767356872559 1.76536595821380615
2.33353543281555176 4.90192270278930664 -0.771908879280090332
-0.0849552303552627563 2.84243535995483398 -0.612813711166381836
1.88003134727478027 7.61766862869262695 -0.6123809814453125
2.11458992958068848 3.61210250854492188 -1.48074865341186523
2.13438248634338379 7.02947139739990234 1.34659266471862793
-0.427831113338470459 2.73280858993530273 -0.603336513042449951
0.326989322900772095 1.92715787887573242 -0.749344587326049805
1.900260329246521 7.20407581329345703 0.287463009357452393
0.24112391471862793 4.0957026481628418 -0.0496398806571960449
1.78802120685577393 7.21506214141845703 -0.753602266311645508
-1.6728973388671875 3.43715238571166992 -0.565222322940826416
2.97547292709350586 4.71605348587036133 -0.580133795738220215
-0.296654641628265381 2.82391047477722168 -0.621684730052947998
1.59746778011322021 5.64388370513916016 -1.13550376892089844
-1.2360990047454834 3.52057838439941406 -0.0656261444091796875
-1.40802228450775146 2.65875530242919922 -0.767804861068725586
-0.158655703067779541 2.73022246360778809 -0.6524696946144104
-0.105082154273986816 2.62923097610473633 -0.678690791130065918
1.2402350902557373 2.91171836853027344 -0.734206020832061768
2.52405905723571777 7.39636135101318359 -0.617667675018310547
-0.0610502734780311584 2.80745649337768555 -0.604320764541625977
1.73026919364929199 4.28937864303588867 -0.826579153537750244
2.46873641014099121 4.86881542205810547 -0.211234197020530701
-0.237463206052780151 2.70039939880371094 -0.348480731248855591
1.64749503135681152 7.52940893173217773 0.820292890071868896
-1.63076770305633545 3.7212374210357666 -0.453820526599884033
-1.83915042877197266 3.03442215919494629 -0.543274641036987305
-0.161136791110038757 1.95872688293457031 -0.887284278869628906
1.81038367748260498 7.24198484420776367 -0.433262467384338379
2.38942146301269531 4.72196054458618164 -0.843718171119689941
2.27938246726989746 4.83526372909545898 0.270413875579833984
2.41788172721862793 4.80242109298706055 -0.65993809700012207
-1.86305546760559082 3.21073174476623535 -0.527879416942596436
1.22965514659881592 7.35976505279541016 -0.736724734306335449
-0.142630696296691895 2.66542434692382812 -0.535238742828369141
0.15598064661026001 2.10364294052124023 -0.730352044105529785
0.268994688987731934 4.32518100738525391 0.568043112754821777
2.55478501319885254 4.50464582443237305 -0.818244814872741699
1.34548103809356689 3.56075024604797363 -0.75905001163482666
2.04052901268005371 7.17236471176147461 -0.866433262825012207
-0.538653194904327393 2.75251007080078125 -0.651317119598388672
-1.76547598838806152 3.54458332061767578 -0.754719734191894531
0.0618487298488616943 3.08848714828491211 -0.441014558076858521
-0.433365464210510254 2.96217536926269531 -0.198552191257476807
-0.861972212791442871 2.68101596832275391 -0.502987504005432129
-2.24303078651428223 3.30114603042602539 -0.595959961414337158
-0.351060032844543457 2.67976188659667969 -0.638425230979919434
2.07683801651000977 2.99266338348388672 -1.41908502578735352
2.28025579452514648 7.38327980041503906 -0.387378513813018799
-0.140941381454467773 2.92236733436584473 -0.635937392711639404
-2.10365080833435059 3.24174666404724121 -0.2783774733543396
0.274635255336761475 1.80359959602355957 -0.802742063999176025
-0.34201657772064209 2.75475835800170898 -0.613521814346313477
2.06561446189880371 7.15436649322509766 0.686616301536560059
-0.190383896231651306 2.04513144493103027 -0.749053478240966797
-2.01125574111938477 3.84806013107299805 0.298364579677581787
-0.348389804363250732 2.89584541320800781 -0.630328655242919922
2.37945866584777832 4.85729360580444336 0.0177694261074066162
1.53675174713134766 4.7888946533203125 -0.74558556079864502
-1.76438796520233154 2.83690309524536133 -0.670519471168518066
0.0555717945098876953 3.69865274429321289 1.64736831188201904
-0.516984999179840088 2.83159494400024414 -0.62217944860458374
-1.84151279926300049 3.44171810150146484 -0.596334457397460938
-0.144835934042930603 3.65541815757751465 0.0207009315490722656
3.23324918746948242 4.76548051834106445 -0.406091451644897461
-0.174236923456192017 2.80248212814331055 -0.713472485542297363
1.68591296672821045 2.65266752243041992 -0.900348544120788574
2.31412386894226074 7.32402849197387695 -0.590660333633422852
-0.973588526248931885 2.75612139701843262 -0.554112613201141357
-1.7966839075088501 3.27399420738220215 -0.646754801273345947
-0.2820301353931427 2.95288586616516113 -0.635529279708862305
2.76810860633850098 4.88733720779418945 -0.40830385684967041
-1.73646676540374756 3.23595094680786133 -0.381266087293624878
1.63612687587738037 7.52783441543579102 0.687547862529754639
2.04036831855773926 7.41794776916503906 -0.574380636215209961
1.8704606294631958 5.24318742752075195 -0.790051162242889404
-0.345047056674957275 2.9080498218536377 -0.651153445243835449
2.54783844947814941 4.9177703857421875 -0.801875591278076172
-0.253618717193603516 2.65724444389343262 -0.665912032127380371
-0.0388962738215923309 2.00465083122253418 -0.813906729221343994
-0.0278298854827880859 2.15296316146850586 -0.712338924407958984
1.85245442390441895 7.13070583343505859 -0.0457329303026199341
1.74849164485931396 3.25696277618408203 -1.5272371768951416
2.04808521270751953 5.39937782287597656 -1.02068853378295898
-0.529446065425872803 3.17435860633850098 -0.119830429553985596
-1.31353020668029785 2.97790837287902832 -0.543529927730560303
1.89547407627105713 7.20957565307617188 0.574706971645355225
-0.234736084938049316 2.62495803833007812 -0.592300117015838623
1.74518835544586182 3.87585115432739258 -1.5795130729675293
-0.0561179816722869873 2.47687482833862305 -0.73126375675201416
-1.66628217697143555 3.19594454765319824 -0.372573882341384888
2.1708066463470459 6.98186922073364258 -0.799878478050231934
-0.62157970666885376 2.79358506202697754 -0.616973876953125
2.49260592460632324 4.79199934005737305 -0.455064177513122559
-1.17071747779846191 2.42373847961425781 -0.691569089889526367
1.72658205032348633 4.70263957977294922 -0.798802614212036133
2.2591395378112793 7.07843732833862305 -0.888778269290924072
0.249567329883575439 2.13745450973510742 -0.751901507377624512
-0.55275881290435791 2.92469263076782227 -0.627316057682037354
0.493813991546630859 4.48490619659423828 0.368919253349304199
-1.83219277858734131 3.49615740776062012 -0.649803578853607178
1.91341197490692139 7.12093400955200195 0.891563117504119873
-0.31374591588973999 2.80033326148986816 -0.584594547748565674
1.80845725536346436 7.41991329193115234 -0.628379702568054199
-1.46771645545959473 3.11920714378356934 -0.694908618927001953
2.1258857250213623 7.28758382797241211 -0.292320102453231812
-0.0845189094543457031 2.980499267578125 -0.354117035865783691
-0.151725083589553833 2.89822149276733398 -0.588796734809875488
0.546007037162780762 2.27349114418029785 -0.688639163970947266
-0.138527423143386841 4.42098045349121094 0.478676021099090576
2.70028281211853027 4.84024620056152344 -0.697895944118499756
-0.105303049087524414 2.43788576126098633 -0.63856959342956543
-0.525187551975250244 2.78131198883056641 -0.59886777400970459
2.5289618968963623 4.90745735168457031 -0.496616780757904053
2.26725673675537109 4.11039257049560547 -0.834463417530059814
0.744485020637512207 2.43108248710632324 -0.720402002334594727
-0.52137225866317749 2.7467803955078125 -0.838671684265136719
2.46761131286621094 7.42197036743164062 -0.760099351406097412
-1.0741875171661377 4.06201505661010742 0.965890347957611084
1.73280322551727295 7.74410057067871094 -0.677486240863800049
1.91239631175994873 7.46841526031494141 -0.580808281898498535
-0.397679805755615234 2.93205022811889648 -0.620604395866394043
0.190610945224761963 2.01830792427062988 -0.676763296127319336
2.54154491424560547 4.86278533935546875 0.107647597789764404
-0.209011763334274292 2.85738515853881836 -0.576062440872192383
-1.54334926605224609 3.19381475448608398 -0.394135117530822754
1.31114387512207031 2.11796379089355469 -0.778923571109771729
2.38923001289367676 4.85597085952758789 -0.14349210262298584
-0.996614456176757812 3.77983212471008301 0.0100011229515075684
-0.442371010780334473 2.79496669769287109 -0.378571927547454834
-1.66442966461181641 3.47296380996704102 -0.542729318141937256
-1.29849207401275635 2.48499679565429688 -0.620875418186187744
2.62013983726501465 4.88186931610107422 -0.569142460823059082
3.12542510032653809 4.63256311416625977 -0.483410239219665527
1.92817413806915283 7.17687511444091797 0.54309844970703125
2.26235151290893555 5.05910491943359375 -0.712638616561889648
1.50328052043914795 7.45280694961547852 -0.598758220672607422
-2.21924352645874023 3.1687779426574707 -0.551798999309539795
0.605023562908172607 3.67075896263122559 -0.520292401313781738
-0.32629239559173584 2.75210714340209961 -0.611461460590362549
-0.381810009479522705 4.14809274673461914 0.880218625068664551
-1.89829659461975098 3.24882841110229492 -0.436395078897476196
0.364078134298324585 2.03726053237915039 -0.784927129745483398
-0.247484952211380005 2.80572772026062012 -0.699530482292175293
-2.21456122398376465 3.55419349670410156 -0.0906040668487548828
-0.621200919151306152 2.79379653930664062 -0.367588639259338379
1.26713657379150391 3.25603580474853516 -0.711794555187225342
1.97465407848358154 7.25590705871582031 -0.585243582725524902
1.79395854473114014 7.18812894821166992 0.258949756622314453
-0.111363887786865234 3.48706436157226562 -0.365241736173629761
-2.18571233749389648 3.41895031929016113 -0.0968190133571624756
-1.75372719764709473 3.52242255210876465 -0.56480783224105835
-2.0113527774810791 3.37025547027587891 -0.526160120964050293
-0.376917004585266113 2.0874330997467041 -0.708517670631408691
-0.00294417142868041992 2.04635357856750488 -0.787467360496520996
-0.0926436558365821838 2.8500821590423584 -0.654538631439208984
2.55967211723327637 4.8495941162109375 -0.0924191176891326904
2.11052799224853516 4.26957416534423828 -0.837473750114440918
0.341011881828308105 4.31189823150634766 0.181936740875244141
-1.66250002384185791 3.29590582847595215 -0.628989160060882568
1.93944478034973145 7.26922416687011719 0.787405550479888916
2.05527329444885254 3.28600406646728516 -1.52536857128143311
1.65147233009338379 7.7786712646484375 0.654427170753479004
-0.538010358810424805 2.92120099067687988 -0.353658556938171387
-0.247312530875205994 2.03374433517456055 -0.807769417762756348
1.82058119773864746 2.90989971160888672 -0.988985419273376465
-0.361974388360977173 2.74779295921325684 -0.533555805683135986
-0.514707684516906738 2.75604987144470215 -0.642936944961547852
-0.408608496189117432 2.8110654354095459 -0.584553718566894531
-0.293395698070526123 2.76139664649963379 -0.466121375560760498
-1.7356182336807251 3.57408475875854492 -0.369854092597961426
0.00164723396301269531 1.96702814102172852 -0.724443674087524414
1.92209506034851074 7.267120361328125 -0.689842939376831055
-1.60675990581512451 3.31241393089294434 -0.474037736654281616
-0.124408602714538574 2.75749444961547852 -0.575501084327697754
1.86316657066345215 7.4703826904296875 -0.598375022411346436
-2.03486752510070801 3.76184868812561035 -0.0110033154487609863
-1.69514608383178711 3.5424189567565918 -0.664835572242736816
-0.0365972816944122314 2.78836607933044434 -0.649931728839874268
-0.109843000769615173 2.85153961181640625 -0.596705019474029541
-0.857392013072967529 4.15439653396606445 0.761560261249542236
2.64385414123535156 4.85006904602050781 -0.528518259525299072
-0.442427635192871094 2.90631675720214844 -0.607751071453094482
-0.396740436553955078 3.10469341278076172 -0.0645922422409057617
-0.030764138326048851 1.9871068000793457 -0.722138524055480957
1.7501596212387085 3.52161097526550293 -1.54275298118591309
-0.0480794310569763184 2.13830399513244629 -0.833863377571105957
-0.33104020357131958 2.61044692993164062 -0.649517476558685303
1.10317707061767578 2.6877593994140625 -0.753147721290588379
2.53580188751220703 4.93530797958374023 -0.082671046257019043
1.39520144462585449 4.7439570426940918 -0.794974744319915771
-0.0690067708492279053 2.73048186302185059 -0.603894948959350586
-1.85376441478729248 3.38129043579101562 -0.698140144348144531
-0.0359607115387916565 2.8296053409576416 -0.564661264419555664
2.38446784019470215 4.73706865310668945 0.0909720063209533691
-1.58537840843200684 2.55357193946838379 -0.843892097473144531
2.72965431213378906 4.95965290069580078 -0.870727479457855225
-1.79133105278015137 3.39930558204650879 -0.645267009735107422
-0.38848540186882019 2.75035595893859863 -0.530903160572052002
-1.97198402881622314 3.72059512138366699 0.0825387835502624512
0.015515744686126709 2.08470320701599121 -0.836652457714080811
2.28094172477722168 4.70130586624145508 -0.830530047416687012
-0.250764161348342896 3.43888092041015625 -0.180343449115753174
-0.0793474018573760986 2.83185625076293945 -0.617443203926086426
-1.5470806360244751 3.07703351974487305 -0.665583312511444092
-1.71263623237609863 3.32374906539916992 -0.610978007316589355
-0.763839960098266602 2.58121395111083984 -0.94186246395111084
2.47606444358825684 4.87884187698364258 -0.642323791980743408
0.120486840605735779 2.87135195732116699 -0.497278094291687012
1.90656518936157227 5.3730931282043457 -0.847158193588256836
1.95355582237243652 3.85527396202087402 -1.54724812507629395
2.04858660697937012 7.44141054153442383 -0.613866806030273438
-0.297092020511627197 2.79788970947265625 -0.590437948703765869
-1.67461931705474854 3.39307641983032227 -0.460443705320358276
1.88860094547271729 7.40034198760986328 -0.571563065052032471
1.61667716503143311 7.60792207717895508 0.700173318386077881
-0.207040011882781982 2.83632183074951172 -0.515740156173706055
0.100401237607002258 2.82933664321899414 -0.684717357158660889
-1.95532059669494629 3.20923042297363281 -0.544362246990203857
-2.39787197113037109 2.8960564136505127 -0.460338056087493896
2.35229635238647461 4.76006889343261719 0.228153824806213379
-1.66125547885894775 2.55295491218566895 -0.726377606391906738
2.4360496997833252 4.83836174011230469 -0.758913576602935791
-0.272423207759857178 2.70770144462585449 -0.684120893478393555
-1.58125817775726318 3.52400708198547363 -0.30601915717124939
1.8481595516204834 7.18810510635375977 0.124654248356819153
1.41154718399047852 7.24190139770507812 -0.648793697357177734
1.86746025085449219 5.65687179565429688 -1.15322268009185791
-1.74129056930541992 3.28432369232177734 -0.737638592720031738
-0.357210457324981689 2.83253288269042969 -0.625585556030273438
-2.1445624828338623 3.30455279350280762 -0.254528999328613281
1.91797637939453125 7.21255397796630859 -0.551801621913909912
1.1977609395980835 3.67022991180419922 -0.776475965976715088
0.108458161354064941 2.44458270072937012 -0.694453239440917969
-0.89254385232925415 2.13924288749694824 -0.770249843597412109
-0.455987155437469482 2.26784849166870117 -0.730412125587463379
2.46180438995361328 4.97184848785400391 -0.661394596099853516
2.27954387664794922 7.38958835601806641 -0.705150127410888672
-0.49161142110824585 2.83026957511901855 -0.688588440418243408
2.08449649810791016 5.41271114349365234 -0.83833765983581543
1.89276003837585449 7.19824075698852539 0.371993780136108398
-1.91776371002197266 3.67137503623962402 -0.0292737782001495361
-0.242126196622848511 4.34856176376342773 0.52821505069732666
-0.210618734359741211 2.04259586334228516 -0.799324929714202881
2.79179239273071289 4.84083271026611328 -0.168791413307189941
-0.338508069515228271 2.85276985168457031 -0.577868282794952393
1.55143451690673828 7.48055362701416016 -0.675834119319915771
