ply
format ascii 1.0
element vertex 256
comment vertices
property float x
property float y
property float z
end_header
-0.430929481983184814 3.7242732048034668 0.222510099411010742
5.84656238555908203 6.69767332077026367 2.94090557098388672
-2.84653306007385254 5.26323080062866211 1.60433340072631836
-0.146744579076766968 7.84932422637939453 2.0346217155456543
1.32593011856079102 2.77902674674987793 -0.834935128688812256
2.12970900535583496 5.03885221481323242 1.12201333045959473
-1.09293413162231445 2.21233510971069336 -1.35073637962341309
-2.18448591232299805 3.99178218841552734 0.132676020264625549
-2.2856452465057373 7.12105274200439453 2.13099956512451172
2.13125300407409668 5.03159952163696289 -0.724381506443023682
2.10483098030090332 7.24453592300415039 2.02795791625976562
-2.01610851287841797 7.14132261276245117 -0.0711987167596817017
0.346366286277770996 5.99536752700805664 2.06178712844848633
-0.248051747679710388 3.57214879989624023 -0.860199153423309326
-1.98560559749603271 3.37646484375 -0.751558661460876465
0.933435916900634766 4.037689208984375 0.0721421241760253906
0.816674709320068359 3.29228091239929199 -0.552694916725158691
-1.96387624740600586 3.81380343437194824 0.857121288776397705
3.88006162643432617 6.15773773193359375 2.29737377166748047
1.06240189075469971 3.30705618858337402 -0.661446452140808105
-0.975925087928771973 7.04289388656616211 2.38159012794494629
-0.977456629276275635 3.72451305389404297 -0.550610482692718506
1.74137330055236816 2.84627485275268555 -0.345099091529846191
0.69745028018951416 7.19812631607055664 2.59091806411743164
1.58225107192993164 5.95278453826904297 2.00968837738037109
2.99112892150878906 7.86524534225463867 2.16686105728149414
0.665057539939880371 3.26794576644897461 -0.502948462963104248
1.93322181701660156 4.92911624908447266 0.166168332099914551
-2.81194019317626953 4.98725318908691406 0.208205372095108032
-1.72807919979095459 3.80421638488769531 -0.1495656818151474
-0.927753925323486328 3.21979832649230957 -0.836637258529663086
0.957413792610168457 8.03480052947998047 2.07731008529663086
-1.54656589031219482 7.62414121627807617 2.1328887939453125
1.21101844310760498 3.30183005332946777 -0.694285988807678223
0.0406746864318847656 2.65229511260986328 -0.860338866710662842
0.981839835643768311 3.27993917465209961 -0.584847092628479004
0.957477927207946777 4.382293701171875 2.03097629547119141
0.357783675193786621 3.02916765213012695 -0.716514050960540771
0.818749308586120605 3.15050339698791504 -0.738556981086730957
-1.05129361152648926 3.75049448013305664 0.392241775989532471
-0.123363345861434937 6.86883449554443359 2.2341313362121582
1.09308516979217529 3.20610618591308594 -0.641439735889434814
1.20025920867919922 5.06695127487182617 0.67506331205368042
1.87829303741455078 4.60810756683349609 -0.468347370624542236
1.7812199592590332 8.15152835845947266 2.05429458618164062
-0.886833488941192627 7.66308021545410156 1.99549973011016846
-1.46484243869781494 3.43813371658325195 -0.507399082183837891
-0.538561344146728516 3.72205662727355957 -0.279417067766189575
1.42188036441802979 6.81748104095458984 2.26087594032287598
-0.756267309188842773 3.75560927391052246 -0.713506221771240234
0.567196428775787354 3.04430818557739258 -0.218788206577301025
0.789182424545288086 3.49896669387817383 -0.505902647972106934
-1.65934514999389648 6.94738674163818359 2.20452880859375
0.870571136474609375 5.69645500183105469 2.06591343879699707
-0.258817851543426514 2.74468445777893066 -1.03313851356506348
2.24253964424133301 6.7523045539855957 2.18820309638977051
1.32201707363128662 7.50018644332885742 2.1475527286529541
0.174392715096473694 7.50230741500854492 2.22503757476806641
-1.01244699954986572 4.02441263198852539 0.911050558090209961
-2.86316585540771484 6.78410243988037109 2.05509853363037109
3.69133996963500977 6.12957668304443359 2.91330075263977051
0.654311120510101318 6.59496116638183594 2.13359880447387695
0.878596127033233643 3.25167608261108398 -0.645190238952636719
-1.09942531585693359 3.60485649108886719 -0.233733952045440674
-1.57549905776977539 3.14438581466674805 -0.870194673538208008
-0.461145877838134766 6.36539316177368164 2.13222885131835938
0.89907526969909668 3.45639491081237793 -0.668058931827545166
-1.27553701400756836 3.55588603019714355 -0.57057344913482666
-1.57745158672332764 3.65125012397766113 0.224038839340209961
1.01019644737243652 3.26057624816894531 -0.55310291051864624
1.65678048133850098 4.58668136596679688 0.0528038442134857178
1.76140820980072021 5.43327093124389648 1.97726249694824219
-0.139969274401664734 3.16795444488525391 -0.769872188568115234
0.412971943616867065 3.01631879806518555 -0.28860241174697876
2.06959295272827148 4.9854435920715332 -0.459046781063079834
-1.32147741317749023 3.64206600189208984 -0.695526719093322754
-0.506499528884887695 7.29976034164428711 2.39880204200744629
-1.3456186056137085 2.61754894256591797 -1.24400389194488525
0.83490455150604248 3.01036834716796875 -0.717386007308959961
0.948579788208007812 3.4198753833770752 -0.657611191272735596
1.72696828842163086 4.3138422966003418 -0.567938566207885742
1.2543492317199707 3.27649974822998047 -0.398865222930908203
0.709057807922363281 7.63853931427001953 2.08120489120483398
2.05471944808959961 4.0962977409362793 2.31103062629699707
1.02639889717102051 3.5624547004699707 -0.826734662055969238
2.0623323917388916 4.96880054473876953 1.53830289840698242
1.97473311424255371 4.87958860397338867 0.82123100757598877
0.464066505432128906 3.22218680381774902 -0.544587910175323486
2.4999079704284668 8.14752578735351562 2.04572439193725586
-1.36305177211761475 3.95025730133056641 0.786449730396270752
0.866255998611450195 3.16240954399108887 -0.651224493980407715
-0.352860629558563232 2.35146617889404297 -1.42408037185668945
-2.12223148345947266 3.61337709426879883 -0.556304454803466797
0.635123908519744873 4.12772893905639648 1.68548226356506348
-1.93028819561004639 3.69704413414001465 0.452662229537963867
0.975774586200714111 3.40837311744689941 -0.632983803749084473
0.704620480537414551 3.35253810882568359 -0.651890456676483154
0.691208302974700928 3.19065022468566895 -0.644599318504333496
2.00273513793945312 7.54855823516845703 1.88173222541809082
-0.923300027847290039 3.50237822532653809 -0.352095931768417358
-1.12176334857940674 7.20983648300170898 2.23764300346374512
0.154202669858932495 3.14356708526611328 -0.81152045726776123
1.88003480434417725 4.42320537567138672 -0.654919147491455078
0.365572810173034668 7.9027256965637207 2.0315544605255127
0.662284135818481445 3.44746518135070801 -0.513455033302307129
0.434303611516952515 3.55569171905517578 0.106873571872711182
0.736090660095214844 3.26613903045654297 -0.704154849052429199
-0.830828964710235596 3.81190824508666992 0.226892590522766113
-2.02041959762573242 7.17492580413818359 2.06193923950195312
0.820280134677886963 3.26177787780761719 -0.61793971061706543
-1.2836984395980835 3.66753172874450684 -0.8110198974609375
0.560544729232788086 3.76274371147155762 -0.688105642795562744
0.651402115821838379 3.31767106056213379 -0.533863246440887451
0.835039794445037842 2.90947580337524414 -0.648598015308380127
1.30947792530059814 3.49580264091491699 -0.381064772605895996
2.03353452682495117 4.96808147430419922 1.00613570213317871
0.885327339172363281 3.39325857162475586 -0.707381248474121094
0.834791600704193115 4.12999391555786133 0.225671768188476562
-1.42801368236541748 3.54565620422363281 -0.833886384963989258
1.82610023021697998 6.70368003845214844 2.30177664756774902
1.13110041618347168 5.24721574783325195 0.886097848415374756
-1.69967043399810791 3.45526790618896484 0.180693671107292175
-1.18738722801208496 3.69242238998413086 -0.506370186805725098
-1.44494986534118652 3.42168140411376953 -0.657662868499755859
1.10759294033050537 3.19619226455688477 -0.640623152256011963
1.94693219661712646 7.30400991439819336 2.03512263298034668
0.540128231048583984 3.14097857475280762 -0.553450107574462891
-0.323707133531570435 7.61448049545288086 2.00779223442077637
0.648113012313842773 3.25446701049804688 -0.465671062469482422
-0.204053491353988647 6.08109474182128906 2.10470438003540039
1.68281745910644531 4.80841350555419922 0.371740162372589111
0.97590714693069458 3.2552635669708252 -0.631181120872497559
-0.661082625389099121 2.68296217918395996 -1.52165651321411133
-1.38639461994171143 3.6401515007019043 0.469173312187194824
-0.826157093048095703 3.82923245429992676 -0.538976728916168213
2.35076212882995605 7.14754390716552734 2.00331282615661621
-0.4073447585105896 4.39158296585083008 1.41690385341644287
0.294509053230285645 7.11035394668579102 2.52503418922424316
1.74038171768188477 4.3446049690246582 -0.362589329481124878
1.31034255027770996 5.66858291625976562 2.00591397285461426
-1.10445237159729004 3.48781633377075195 -0.811179041862487793
1.08692061901092529 7.12250661849975586 2.47565364837646484
1.71295630931854248 6.9733881950378418 2.40179228782653809
0.998706579208374023 6.69037723541259766 2.37368321418762207
-1.26628613471984863 3.76327872276306152 -0.534954965114593506
-1.68961834907531738 7.19181537628173828 2.12521147727966309
-2.64761543273925781 7.02875995635986328 1.95736730098724365
2.26039862632751465 5.12193584442138672 1.35573005676269531
-0.565493762493133545 3.11128687858581543 -0.456551492214202881
-0.467434942722320557 3.00714015960693359 -0.814052760601043701
-1.11029481887817383 7.67067241668701172 2.00639009475708008
1.45797204971313477 6.32720565795898438 2.22786688804626465
-1.23776209354400635 3.62378096580505371 -0.523549556732177734
-0.597638428211212158 7.90085983276367188 2.11341714859008789
0.199423670768737793 2.96084761619567871 -0.770054996013641357
0.223383769392967224 6.32286596298217773 2.07912969589233398
2.32784628868103027 6.91115617752075195 2.09355616569519043
0.412061035633087158 3.2174077033996582 -0.424512207508087158
-0.143729478120803833 4.02416038513183594 0.0747734904289245605
-1.0040285587310791 3.68021392822265625 -0.454910099506378174
1.02837204933166504 3.29291772842407227 -0.683375954627990723
-0.194990456104278564 2.79532837867736816 -0.803019046783447266
0.619205653667449951 5.82090473175048828 1.97036242485046387
0.302557200193405151 4.29952907562255859 0.290553033351898193
0.953056216239929199 3.33080410957336426 -0.642260134220123291
1.8248058557510376 4.67458629608154297 -0.700350761413574219
-0.794812321662902832 7.2234349250793457 2.10694432258605957
0.811426043510437012 3.3880615234375 -0.62958294153213501
0.955720901489257812 5.85768938064575195 2.04638433456420898
1.79033982753753662 4.16862773895263672 -0.584941327571868896
-1.04275941848754883 3.86617493629455566 0.490656077861785889
-0.225480258464813232 6.53220367431640625 2.06288743019104004
-1.73690891265869141 3.55111575126647949 -0.67539525032043457
-0.756310939788818359 3.68810009956359863 -0.501653611660003662
-0.101420283317565918 7.15872859954833984 2.30602478981018066
1.46631157398223877 3.98254084587097168 -0.525773048400878906
-0.820966660976409912 3.44877791404724121 -0.761026501655578613
0.558160722255706787 6.84698486328125 2.45995640754699707
1.00097906589508057 3.03687477111816406 -0.672348439693450928
-1.61398029327392578 3.60983109474182129 0.191822648048400879
-3.47915792465209961 5.58732700347900391 1.1842423677444458
-1.58657824993133545 3.352020263671875 -0.831794917583465576
0.582677960395812988 3.06777238845825195 -0.765353024005889893
-1.10743570327758789 3.13512253761291504 -0.84249269962310791
1.01056563854217529 7.28450822830200195 2.23734021186828613
-0.637559592723846436 2.27793431282043457 -1.29013907909393311
1.35094106197357178 5.07361841201782227 0.549100041389465332
-1.33910465240478516 7.10629844665527344 2.21472716331481934
2.24491095542907715 5.03466987609863281 1.17828583717346191
0.886429667472839355 3.54436159133911133 -0.159282058477401733
0.232961118221282959 6.74267387390136719 2.32137966156005859
0.283770978450775146 2.94636154174804688 -0.837398767471313477
0.92067873477935791 3.5327754020690918 -0.602774858474731445
-1.33046555519104004 3.61339235305786133 -0.485188275575637817
0.833921909332275391 3.25260281562805176 -0.652150094509124756
-1.0162661075592041 3.74809122085571289 -0.611600875854492188
2.21120166778564453 5.11510992050170898 -0.636842846870422363
1.22045731544494629 4.59343528747558594 -0.0745549798011779785
0.625477313995361328 3.32954740524291992 -0.609080731868743896
0.535019516944885254 7.36505317687988281 2.12883543968200684
1.0312495231628418 3.14505147933959961 -0.631492018699645996
-0.494336724281311035 3.33296394348144531 -0.834381282329559326
0.804688990116119385 3.37327218055725098 -0.609621763229370117
0.755170464515686035 3.2673954963684082 -0.627346038818359375
-1.55175590515136719 3.50279474258422852 -0.0690652728080749512
-2.02227497100830078 3.81831979751586914 0.209794715046882629
0.654511690139770508 3.08544778823852539 -0.842953205108642578
1.86324763298034668 4.94291877746582031 0.518768012523651123
-0.992618203163146973 3.56352519989013672 -0.458473473787307739
1.86961960792541504 4.97879981994628906 0.832710385322570801
0.333636701107025146 3.07789468765258789 -0.730246484279632568
-0.939912557601928711 3.8742070198059082 0.433263301849365234
-1.90657579898834229 6.97195816040039062 2.13344812393188477
-0.882090270519256592 7.81003570556640625 2.08170819282531738
-1.81251394748687744 6.72786426544189453 2.15671420097351074
0.572936832904815674 3.02503728866577148 -0.184959441423416138
-0.915048182010650635 2.54177689552307129 -1.41795122623443604
0.932534992694854736 3.27866506576538086 -0.67316514253616333
-0.868537247180938721 2.84908294677734375 -1.04513859748840332
0.0732388272881507874 4.46413278579711914 0.581396043300628662
0.798013687133789062 3.36992883682250977 -0.52529454231262207
1.66044771671295166 4.14378118515014648 -0.498781502246856689
1.98202252388000488 6.86673498153686523 2.30574321746826172
2.09873628616333008 4.28464174270629883 -0.369472622871398926
0.500434398651123047 3.2315676212310791 -0.492278635501861572
0.193588495254516602 7.78634119033813477 2.09349727630615234
1.29007804393768311 5.92874574661254883 2.04278421401977539
-1.31131935119628906 3.54137969017028809 -0.645244359970092773
-1.28296589851379395 3.53016066551208496 -0.743039488792419434
-0.171552598476409912 7.43642902374267578 2.15002679824829102
0.82406240701675415 3.1466670036315918 -0.467254191637039185
0.215611711144447327 3.50240564346313477 -0.0621871352195739746
0.633082985877990723 3.2539827823638916 -0.763316750526428223
1.94914698600769043 4.83451652526855469 0.27212148904800415
0.957476437091827393 3.35704302787780762 -0.689850151538848877
1.1375119686126709 4.61688613891601562 1.77364659309387207
1.41376519203186035 3.67876434326171875 -0.171287655830383301
-1.49552643299102783 3.68215036392211914 0.289503574371337891
-1.03328144550323486 3.64628124237060547 -0.697977542877197266
-0.387677848339080811 2.31033444404602051 -0.987895488739013672
-1.32358884811401367 3.67027974128723145 -0.312369346618652344
0.619741737842559814 3.20916342735290527 -0.656352818012237549
1.88084721565246582 7.24416637420654297 2.11527276039123535
0.968759059906005859 3.02962493896484375 -0.63012540340423584
1.05653119087219238 3.24427151679992676 -0.480105698108673096
0.895126104354858398 3.28298759460449219 -0.622033417224884033
-1.8470149040222168 3.60299110412597656 -0.369507789611816406
0.594125688076019287 3.2289128303527832 -0.618775248527526855
-0.63788217306137085 7.10000944137573242 2.41526389122009277
-1.46250271797180176 3.66570901870727539 0.566728949546813965
1.06370007991790771 3.3320002555847168 -0.65411299467086792
2.07700347900390625 5.01728200912475586 1.36339092254638672
0.20392705500125885 3.12039422988891602 -0.717383146286010742
-0.911158442497253418 3.74625611305236816 -0.72595977783203125
1.90114188194274902 4.39988517761230469 -0.657436966896057129
0.663078427314758301 3.21113777160644531 -0.395251631736755371
