ply
format ascii 1.0
element vertex 191
comment vertices
property float x
property float y
property float z
end_header
-0.632857322692871094 2.2423090934753418 -0.344733685255050659
2.61127591133117676 5.93364953994750977 2.85144615173339844
2.28288817405700684 3.54412984848022461 -0.929539382457733154
-0.099985957145690918 1.15469241142272949 -0.719924807548522949
1.91488778591156006 3.6273338794708252 0.436212241649627686
-2.06285834312438965 2.73060297966003418 -1.02233374118804932
-1.99629557132720947 3.53811931610107422 0.543390154838562012
-0.290683597326278687 2.5158989429473877 -0.640490949153900146
1.61923158168792725 3.32474040985107422 -0.736917495727539062
0.951231300830841064 3.74512839317321777 1.39436137676239014
-1.50029253959655762 3.17785477638244629 -0.331205964088439941
-0.370876520872116089 3.67539429664611816 1.81371784210205078
-0.380852818489074707 3.10672926902770996 -0.626542448997497559
0.175151005387306213 2.02047109603881836 -0.761866450309753418
0.354289263486862183 2.4692378044128418 -0.665785133838653564
2.28128838539123535 3.72549724578857422 -0.335744142532348633
0.587381958961486816 3.28339362144470215 -0.455695986747741699
-2.11147356033325195 3.5266420841217041 -0.123554058372974396
0.164515569806098938 2.3374783992767334 -0.582911789417266846
1.58006203174591064 3.27168011665344238 -0.0221654027700424194
0.00475506670773029327 3.55982685089111328 0.577568113803863525
2.15285801887512207 3.86629199981689453 -0.671404540538787842
0.270436078310012817 1.48406219482421875 -0.678884744644165039
1.26384949684143066 2.4237823486328125 -0.56201481819152832
0.173842370510101318 2.35084962844848633 -0.587999522686004639
-1.38717424869537354 3.68848323822021484 0.152326032519340515
-1.17272400856018066 1.96550607681274414 -0.646344840526580811
-1.21320295333862305 3.66469836235046387 0.790192902088165283
-0.684145748615264893 3.32757210731506348 -0.380856364965438843
1.68018639087677002 3.60482287406921387 1.44467628002166748
-2.11731648445129395 3.12567949295043945 -0.576616466045379639
0.301550745964050293 2.39692831039428711 -0.631204664707183838
-1.67299485206604004 2.46607875823974609 -0.649206936359405518
0.220882818102836609 2.36027240753173828 -0.465852499008178711
-0.69529259204864502 2.89671230316162109 -0.3736380934715271
2.06702637672424316 3.42329931259155273 -0.0532132834196090698
-0.809513509273529053 2.52532482147216797 -0.0980845913290977478
1.03280329704284668 3.82915067672729492 0.734391212463378906
-1.80416262149810791 2.91925787925720215 -0.929057657718658447
0.246531307697296143 2.42674040794372559 -0.458838373422622681
2.06206870079040527 3.74019813537597656 -0.759505927562713623
-1.69248449802398682 2.24862980842590332 -0.587384998798370361
-2.16935300827026367 3.60823559761047363 0.356709301471710205
-0.450511455535888672 2.6779632568359375 -0.592032074928283691
0.200130820274353027 2.43082857131958008 -0.610186398029327393
0.0608770363032817841 3.83076333999633789 1.81742990016937256
0.543820083141326904 3.53436803817749023 0.298618614673614502
1.15679252147674561 2.98445963859558105 -0.603148996829986572
1.09256792068481445 2.29073596000671387 -0.29678383469581604
0.140947014093399048 2.36492800712585449 -0.615599751472473145
-0.988781630992889404 3.51561450958251953 0.442270994186401367
0.281601071357727051 3.8614342212677002 1.2770458459854126
-0.281178086996078491 2.7261803150177002 -0.36787337064743042
0.0717814266681671143 2.48055362701416016 -0.588386356830596924
1.53261768817901611 3.45202732086181641 0.153830096125602722
-0.229606673121452332 2.23881077766418457 -0.666823744773864746
0.166279301047325134 2.42283797264099121 -0.657332360744476318
2.2083897590637207 3.71803569793701172 -0.505094528198242188
-1.26610124111175537 3.65116024017333984 0.13310578465461731
0.287828147411346436 1.4380791187286377 -0.69774925708770752
-1.40708017349243164 3.4996802806854248 0.417937397956848145
0.413103401660919189 2.51443195343017578 -0.673075675964355469
0.358062177896499634 2.51708030700683594 -0.606993496417999268
2.28972959518432617 3.78753161430358887 -0.647256433963775635
2.37509369850158691 3.80951523780822754 -0.516812026500701904
0.235475942492485046 2.52003073692321777 -0.525116324424743652
-0.878078877925872803 2.9298698902130127 -0.371542274951934814
-2.14999580383300781 3.10030698776245117 -0.652339637279510498
-0.520646750926971436 3.74264740943908691 0.900882124900817871
-1.1566011905670166 2.60383272171020508 -0.625587284564971924
0.23776678740978241 2.43191790580749512 -0.635059118270874023
0.0961745232343673706 2.37978816032409668 -0.597063958644866943
-1.65781223773956299 3.62011027336120605 -0.0551798567175865173
0.183667585253715515 1.89669370651245117 -0.851014137268066406
-0.519560635089874268 3.1810147762298584 -0.478976428508758545
-0.86507868766784668 2.93197321891784668 -0.45808708667755127
-2.30064916610717773 3.06874418258666992 -0.531166970729827881
1.24017953872680664 3.29250192642211914 -0.187849447131156921
-0.697745978832244873 2.38305020332336426 -0.266749739646911621
0.590439498424530029 3.35625314712524414 -0.266280263662338257
1.65115630626678467 3.38517403602600098 1.76296508312225342
1.45589077472686768 3.58962535858154297 0.232866734266281128
-0.0775748193264007568 1.37116920948028564 -0.745646417140960693
-0.332915812730789185 2.29710578918457031 -0.365475237369537354
1.62349832057952881 3.25706076622009277 -0.255151808261871338
-0.88428950309753418 3.92774105072021484 1.59034180641174316
0.331319987773895264 2.51882624626159668 -0.426144838333129883
0.254802018404006958 2.41946244239807129 -0.512942910194396973
0.670779228210449219 1.75829648971557617 -0.705730736255645752
-1.57082295417785645 3.62645530700683594 0.943847358226776123
-0.819664180278778076 3.37794637680053711 0.133689314126968384
0.178610846400260925 2.34016776084899902 -0.570756912231445312
-0.706100225448608398 2.08500981330871582 -0.673377156257629395
1.57863235473632812 3.43398857116699219 -0.713392376899719238
-0.8652992844581604 2.77336454391479492 -0.553392291069030762
0.998421430587768555 2.803924560546875 -0.496215015649795532
0.640275478363037109 3.77286386489868164 0.56761091947555542
-1.89351868629455566 3.55592823028564453 0.345574676990509033
0.172587454319000244 2.42363286018371582 -0.626012742519378662
0.100524656474590302 2.65836906433105469 -0.412570595741271973
2.23850345611572266 3.67981839179992676 -0.172231793403625488
1.75089919567108154 3.61797237396240234 0.223915323615074158
0.366186857223510742 1.89722096920013428 -0.669428765773773193
0.281250417232513428 2.53959846496582031 -0.350979626178741455
-1.61166620254516602 2.70486235618591309 -1.02392840385437012
-0.369001150131225586 3.05561566352844238 -0.44687199592590332
0.631534337997436523 2.11958146095275879 -0.730379879474639893
-0.241414204239845276 3.19064450263977051 0.188248872756958008
-0.2183961421251297 2.90994429588317871 -0.180067509412765503
0.0566093996167182922 3.83629322052001953 1.26236283779144287
0.095671139657497406 2.39882826805114746 -0.621367096900939941
-0.51097637414932251 2.01270055770874023 -0.676978409290313721
1.59136867523193359 3.49748754501342773 0.151438146829605103
0.747718155384063721 3.79755830764770508 0.0161907970905303955
2.33312463760375977 3.75316333770751953 -0.754390239715576172
1.29523086547851562 2.51901340484619141 -0.567215561866760254
0.719821512699127197 2.16128444671630859 -0.639423370361328125
0.170944705605506897 2.35865378379821777 -0.552008092403411865
1.99372828006744385 3.7884213924407959 -0.560300230979919434
-0.745430648326873779 2.29244494438171387 -0.260827600955963135
0.44389006495475769 3.82657074928283691 0.951507627964019775
2.35438847541809082 3.80907797813415527 -0.638610482215881348
2.19507193565368652 3.46684002876281738 -0.0873346030712127686
2.23515772819519043 3.66657900810241699 -0.459714591503143311
2.21337318420410156 3.5220797061920166 -0.462471306324005127
-0.23363552987575531 2.22458863258361816 -0.572530567646026611
0.897741734981536865 3.43894433975219727 -0.247414708137512207
-0.497685045003890991 2.83041858673095703 -0.25027930736541748
0.24051983654499054 2.41230463981628418 -0.604770660400390625
-0.376486629247665405 2.64452481269836426 -0.59813004732131958
-2.05733418464660645 3.52890110015869141 0.328242242336273193
-0.8618125319480896 3.65777492523193359 0.71384739875793457
-0.749001204967498779 2.61138296127319336 -0.610867142677307129
-1.16406750679016113 3.52981352806091309 0.419689357280731201
0.15745227038860321 2.41381382942199707 -0.621477842330932617
1.8283613920211792 2.94159936904907227 -0.507749676704406738
0.0845524892210960388 1.46787190437316895 -0.716646790504455566
-1.34823286533355713 3.62072896957397461 0.369500279426574707
-0.569543361663818359 2.57262468338012695 -0.369248002767562866
0.0830010101199150085 2.40186977386474609 -0.588527500629425049
-0.51487356424331665 1.90599501132965088 -0.664610028266906738
0.448719263076782227 2.65023279190063477 -0.503238916397094727
-0.59455639123916626 3.29483675956726074 -0.634206712245941162
-2.20563030242919922 3.50214982032775879 0.0588486567139625549
1.72566163539886475 3.67233061790466309 1.04251670837402344
1.34422779083251953 3.90939211845397949 1.23736870288848877
2.45405840873718262 5.97103977203369141 2.88695454597473145
1.74106132984161377 3.58864688873291016 0.513547301292419434
0.407991379499435425 1.70736551284790039 -0.66513437032699585
-0.369040876626968384 2.30797052383422852 -0.287324011325836182
-0.0214357525110244751 3.69676923751831055 2.04273271560668945
-0.0633126050233840942 1.23209547996520996 -0.701951563358306885
-0.792233705520629883 2.48225021362304688 -0.579529106616973877
0.0917178839445114136 3.70320248603820801 0.827425777912139893
-2.01956796646118164 3.51955389976501465 0.510018527507781982
-0.742547214031219482 2.89129853248596191 -0.583722591400146484
2.41235828399658203 3.57119131088256836 -0.797667324542999268
-1.61416399478912354 2.32014322280883789 -0.618724465370178223
-0.0452549606561660767 1.16494393348693848 -0.725558280944824219
1.69101536273956299 3.36311173439025879 0.0757837444543838501
0.225323259830474854 2.49502778053283691 -0.562232553958892822
0.264280617237091064 2.4436335563659668 -0.665522933006286621
-0.240506038069725037 3.8384544849395752 1.27533090114593506
2.21896123886108398 3.84334731101989746 -0.585485458374023438
0.277930974960327148 2.48183131217956543 -0.671345114707946777
0.368263483047485352 2.42703485488891602 -0.633246243000030518
0.373943597078323364 3.32174086570739746 0.0182034671306610107
0.163093045353889465 2.31633639335632324 -0.313219696283340454
-0.389728337526321411 2.32048916816711426 -0.649555563926696777
-2.15037751197814941 3.12083911895751953 -0.392541348934173584
-2.17726993560791016 3.02097487449645996 -0.613205194473266602
0.254725158214569092 2.48876237869262695 -0.520131170749664307
1.90849757194519043 3.54000163078308105 0.157961189746856689
1.00831472873687744 3.74065923690795898 0.878828585147857666
0.00527296029031276703 1.21437680721282959 -0.734975636005401611
-2.09376192092895508 3.25449180603027344 -0.589694976806640625
-1.35773944854736328 3.87957167625427246 0.209737330675125122
2.18463850021362305 3.6286156177520752 -0.254518657922744751
0.272644370794296265 2.36206865310668945 -0.572517752647399902
1.49948930740356445 3.34499597549438477 -0.428758561611175537
-0.740399599075317383 2.06364941596984863 -0.652259409427642822
1.40272009372711182 3.53720641136169434 -0.0518242120742797852
-1.69615614414215088 2.88760876655578613 -1.03637433052062988
1.43865859508514404 3.65118527412414551 0.482356905937194824
-1.44661295413970947 3.60720324516296387 0.473787099123001099
-1.35895407199859619 3.11217999458312988 -0.299812793731689453
-0.295456439256668091 2.2769782543182373 -0.317990809679031372
-1.63853216171264648 3.45565533638000488 0.276938647031784058
-2.17870450019836426 3.11570286750793457 -0.491805434226989746
-0.537321984767913818 2.64727926254272461 -0.1339215487241745
0.284559100866317749 2.48866105079650879 -0.259406805038452148
