ply
format ascii 1.0
element vertex 256
comment vertices
property float x
property float y
property float z
end_header
-0.322723388671875 2.45038843154907227 -0.685294806957244873
0.156145066022872925 6.2454686164855957 2.78971600532531738
3.90382480621337891 5.96326303482055664 1.42581117153167725
-2.38760209083557129 4.11765813827514648 0.252096414566040039
1.81972682476043701 3.56419491767883301 0.909300386905670166
-0.231556326150894165 3.95064187049865723 1.30520057678222656
2.9170076847076416 4.97470331192016602 -0.208966284990310669
-0.384777724742889404 2.27378034591674805 -0.653378844261169434
2.22815990447998047 6.21201181411743164 2.37503337860107422
1.78611147403717041 2.8329460620880127 -0.767969489097595215
-0.973994016647338867 2.48681974411010742 -0.648953557014465332
0.439102411270141602 1.80770981311798096 -0.292488753795623779
0.334388315677642822 2.97236490249633789 -0.0583224594593048096
0.769013047218322754 6.59303712844848633 2.36528992652893066
-0.800725102424621582 1.9608532190322876 -0.774029552936553955
1.10629463195800781 2.8415224552154541 -0.907929718494415283
-0.94849783182144165 2.41548895835876465 -0.0825061053037643433
2.22247815132141113 7.25547599792480469 0.63766711950302124
-2.02928781509399414 3.83408379554748535 -0.576403260231018066
3.68297719955444336 5.59691953659057617 2.81878304481506348
-0.611450672149658203 2.35562539100646973 -0.693019330501556396
1.59630012512207031 3.01846861839294434 -0.234826579689979553
-0.157677561044692993 2.45427632331848145 -0.68143463134765625
0.472743034362792969 2.97567129135131836 -0.887958765029907227
-2.2182767391204834 3.54468274116516113 -0.0457787849009037018
1.35809195041656494 2.74872922897338867 -0.849190235137939453
1.5586235523223877 3.05399274826049805 -0.62981647253036499
-0.341468483209609985 2.06612801551818848 -0.60813140869140625
-0.775670528411865234 2.36667132377624512 -0.74573749303817749
0.0597018226981163025 2.34075617790222168 -0.854645788669586182
1.18887150287628174 3.77389311790466309 1.4303518533706665
2.92026996612548828 4.91487550735473633 0.254236280918121338
-0.733897507190704346 2.25224852561950684 -0.106436960399150848
-1.87730324268341064 2.55960512161254883 -0.541946291923522949
1.02094554901123047 2.58849406242370605 -0.322918891906738281
-0.540754139423370361 2.29098939895629883 -0.684806942939758301
-0.780690431594848633 4.15860366821289062 1.47809839248657227
1.68236148357391357 2.85617399215698242 -0.929524660110473633
0.65842890739440918 3.83764314651489258 1.3513103723526001
-1.59745824337005615 4.12539339065551758 1.23133182525634766
-2.11796808242797852 3.24482011795043945 -0.592589318752288818
1.50525760650634766 3.27144098281860352 0.476663291454315186
-0.0527115762233734131 3.16046953201293945 0.0872972160577774048
-0.78542095422744751 2.48390889167785645 -0.766304910182952881
-2.05686140060424805 3.81917214393615723 -0.0965140461921691895
1.28769576549530029 2.92017555236816406 -0.849709868431091309
-0.402260422706604004 2.5792543888092041 -0.526830732822418213
1.6470181941986084 3.40318512916564941 0.299627065658569336
1.65646159648895264 2.86495399475097656 -0.617913126945495605
-0.0411775186657905579 2.46275830268859863 -0.69794541597366333
0.467756897211074829 6.5062408447265625 2.45909357070922852
-0.325846076011657715 2.29549098014831543 -0.713393807411193848
2.68999838829040527 7.09129524230957031 0.656669318675994873
2.74163389205932617 6.18336248397827148 2.42498111724853516
-0.667180001735687256 2.30464458465576172 -0.696147739887237549
1.7653728723526001 2.98929142951965332 -0.862055957317352295
1.08945226669311523 2.70269155502319336 -0.772449970245361328
-0.451956719160079956 2.28221297264099121 -0.670770764350891113
0.373620927333831787 2.31216049194335938 -0.197525203227996826
1.24676144123077393 6.43644905090332031 2.43743491172790527
1.59534835815429688 2.83238744735717773 -0.364366531372070312
2.12526369094848633 2.94988679885864258 -0.541453361511230469
-2.35875034332275391 3.99263095855712891 -0.383823394775390625
-1.75951838493347168 2.65616989135742188 -0.827364027500152588
-0.819155097007751465 2.32862973213195801 -0.734040975570678711
-0.404229938983917236 2.32598400115966797 -0.628354132175445557
0.820495247840881348 3.86379504203796387 0.944704592227935791
-0.501237213611602783 3.63582062721252441 0.65245741605758667
0.829138457775115967 2.11781954765319824 -0.81777656078338623
-1.98467934131622314 3.79641222953796387 -0.53749847412109375
-0.205135256052017212 2.41968655586242676 -0.712777197360992432
1.08348762989044189 2.90682625770568848 -0.88424384593963623
1.50339019298553467 2.5954134464263916 -0.655836224555969238
-1.00125253200531006 2.50351810455322266 -0.73773193359375
-1.25903165340423584 2.27924180030822754 -0.452911883592605591
1.46394801139831543 2.96982955932617188 -0.851307451725006104
0.889001965522766113 2.84630489349365234 -0.882887125015258789
0.510738372802734375 2.18608379364013672 -0.483156144618988037
-0.826592445373535156 2.27314853668212891 -0.683929085731506348
2.61478328704833984 5.01506662368774414 -0.0764632225036621094
-0.267575681209564209 2.19088459014892578 -0.603587508201599121
-0.586300551891326904 2.2789759635925293 -0.730199754238128662
-0.874488532543182373 2.39110231399536133 -0.745062947273254395
-1.18043196201324463 3.87481689453125 0.865564942359924316
-1.09379816055297852 2.43386173248291016 -0.178603291511535645
1.50016164779663086 3.7683875560760498 0.81134951114654541
-0.104912281036376953 2.18393659591674805 -0.832929432392120361
-1.14280557632446289 2.36618852615356445 -0.597290098667144775
-0.317389935255050659 3.27277517318725586 0.251067996025085449
-1.43274891376495361 2.49976778030395508 -0.40529438853263855
-2.07697319984436035 4.24511194229125977 0.291124194860458374
-1.86563348770141602 3.87364816665649414 -0.605107307434082031
1.98142707347869873 3.15515780448913574 -0.0121806766837835312
-0.0963975116610527039 2.38181591033935547 -0.19302801787853241
1.45290160179138184 2.89179468154907227 -0.714356899261474609
1.56323015689849854 2.93267178535461426 -0.923409402370452881
0.143987476825714111 3.78671383857727051 1.13837146759033203
-0.417633146047592163 2.39816427230834961 -0.703599333763122559
1.25644195079803467 3.57330441474914551 0.849107980728149414
0.509573101997375488 2.60460853576660156 -0.831378817558288574
1.55158305168151855 2.75693774223327637 -0.759420871734619141
-2.29242634773254395 4.02977609634399414 -0.144736379384994507
1.16944277286529541 2.94171571731567383 -0.949615240097045898
-0.327990680932998657 2.52864980697631836 -0.568613767623901367
-0.17609444260597229 2.60669422149658203 -0.697569966316223145
-1.6792069673538208 3.86726212501525879 0.240189507603645325
-0.39909052848815918 2.35562252998352051 -0.729822218418121338
0.455138355493545532 2.80598092079162598 -0.748858153820037842
0.299169361591339111 2.37090778350830078 -0.63444054126739502
1.4148634672164917 3.5312492847442627 0.626098752021789551
-0.674783587455749512 2.65889310836791992 -0.0941404178738594055
1.84123110771179199 2.93323993682861328 -0.926167070865631104
1.20573616027832031 2.78542232513427734 -0.752593755722045898
1.57608985900878906 3.34474515914916992 0.134824797511100769
0.977518677711486816 2.93654775619506836 -0.815708816051483154
3.02501392364501953 5.18129920959472656 -0.139432862401008606
2.32965445518493652 2.71681427955627441 -0.787889540195465088
2.43163418769836426 7.18475008010864258 0.654922962188720703
-0.38261064887046814 2.61297464370727539 -0.652734577655792236
-0.816134452819824219 2.45775508880615234 -0.74490666389465332
-1.00114953517913818 2.47565484046936035 -0.736990749835968018
-0.616785168647766113 2.08912158012390137 -0.754713535308837891
1.30274009704589844 2.9129183292388916 -0.600473999977111816
0.319248199462890625 3.35614132881164551 0.207770287990570068
-0.311378002166748047 2.37030863761901855 -0.693247556686401367
-0.482948899269104004 4.03719234466552734 1.46571910381317139
1.22578489780426025 3.13709497451782227 0.261914044618606567
-0.614990770816802979 2.2291414737701416 -0.619856953620910645
1.43813765048980713 2.95282554626464844 -0.854330122470855713
-0.451059490442276001 2.4250023365020752 -0.729458332061767578
-0.392293095588684082 2.26568722724914551 -0.730385959148406982
1.70599627494812012 2.94676661491394043 -0.608968198299407959
-0.358074426651000977 2.37087130546569824 -0.668182253837585449
0.407175362110137939 3.59176802635192871 0.956004202365875244
0.232534110546112061 2.43108177185058594 -0.625828385353088379
0.399061083793640137 6.20478534698486328 2.65217304229736328
1.77827835083007812 3.32281208038330078 -0.0152946747839450836
-0.325858592987060547 2.31454682350158691 -0.630902886390686035
-0.154847592115402222 2.78835749626159668 -0.122423127293586731
1.46801447868347168 2.74118852615356445 -0.706311881542205811
-0.441843658685684204 2.28909397125244141 -0.661904454231262207
-0.667597353458404541 2.26190996170043945 -0.64053952693939209
0.189357772469520569 2.45711016654968262 -0.86650693416595459
-0.0369736552238464355 2.2746729850769043 -0.277575194835662842
-2.07338643074035645 2.7808539867401123 -0.68111574649810791
-0.98426741361618042 2.26109695434570312 -0.776224374771118164
1.53904414176940918 2.73486685752868652 -0.739418447017669678
-1.94029200077056885 3.21522974967956543 -0.448238790035247803
1.0310288667678833 3.51441526412963867 0.53467106819152832
1.68706655502319336 2.92969918251037598 -0.9199410080909729
1.03377103805541992 2.73115944862365723 -0.863002359867095947
1.61934614181518555 2.81078815460205078 -0.847410619258880615
-0.580820322036743164 2.17785477638244629 -0.722655653953552246
-0.748809158802032471 2.43244600296020508 -0.673292398452758789
1.08994507789611816 3.9256751537322998 1.64052963256835938
1.17531847953796387 2.82772564888000488 -0.510787308216094971
1.47068333625793457 2.97600245475769043 -0.560471236705780029
1.48598718643188477 3.35341024398803711 0.11511944979429245
-0.648960709571838379 3.8637087345123291 1.00320041179656982
1.06328833103179932 2.64075255393981934 -0.59083867073059082
-0.668061614036560059 2.34218478202819824 -0.708417713642120361
2.92951512336730957 5.08892631530761719 -0.0524425432085990906
-0.672880589962005615 2.30792427062988281 -0.696625828742980957
0.854693114757537842 2.55488038063049316 -0.295749902725219727
1.5230100154876709 2.9458472728729248 -0.919756591320037842
0.091158352792263031 2.87450909614562988 -0.0980733782052993774
-1.0283515453338623 2.37525582313537598 -0.652038633823394775
1.19683706760406494 2.41121363639831543 -0.478775471448898315
0.797056198120117188 2.96767902374267578 -0.870338082313537598
1.37709176540374756 2.87459945678710938 -0.764850139617919922
0.5303078293800354 6.61491155624389648 2.38037467002868652
-0.0444742590188980103 2.45964384078979492 -0.694871068000793457
-1.94616818428039551 4.05995607376098633 -0.270484566688537598
-0.53254544734954834 2.45912051200866699 -0.0722697153687477112
-0.215652599930763245 2.2420494556427002 -0.625986337661743164
-0.787034034729003906 2.49956750869750977 -0.742588996887207031
-0.425548255443572998 2.30954670906066895 -0.739414036273956299
-0.877028822898864746 2.4182589054107666 -0.732436716556549072
-1.16999256610870361 2.27708244323730469 -0.294863700866699219
-2.0609893798828125 3.97545647621154785 -0.458662748336791992
-0.931519985198974609 4.18099212646484375 1.45665442943572998
-0.164240971207618713 2.63271570205688477 -0.751753866672515869
-0.250915616750717163 2.36932229995727539 -0.664568483829498291
1.47492194175720215 2.8234562873840332 -0.535939157009124756
-2.29484915733337402 3.52565765380859375 -0.0138735119253396988
-0.170242875814437866 2.42767715454101562 -0.680342376232147217
0.836802899837493896 2.66977357864379883 -0.846834659576416016
-0.29982033371925354 2.56231069564819336 -0.606859326362609863
-0.704270601272583008 1.97874355316162109 -0.763378798961639404
0.350179731845855713 3.7814643383026123 1.94410121440887451
1.04014813899993896 3.71210956573486328 0.909983038902282715
0.0395394228398799896 3.17095541954040527 0.278237283229827881
-0.644861042499542236 2.37853693962097168 -0.191849827766418457
0.327997744083404541 2.2348330020904541 -0.81682896614074707
1.14125156402587891 2.66846728324890137 -0.421646982431411743
-0.991447865962982178 2.51040816307067871 -0.70064014196395874
-0.184836998581886292 2.57116317749023438 -0.548408567905426025
0.617804229259490967 2.97392606735229492 -0.808376133441925049
1.67716240882873535 2.81763958930969238 -0.867591559886932373
-0.356757104396820068 3.85413050651550293 1.03199398517608643
-0.481634289026260376 2.26099252700805664 -0.666601598262786865
-0.371633470058441162 2.35949301719665527 -0.722267746925354004
0.604864716529846191 3.80634284019470215 1.18442165851593018
-1.85506927967071533 3.97897601127624512 0.445074409246444702
2.84347748756408691 5.10450983047485352 -0.171351462602615356
-1.26568043231964111 3.43824148178100586 0.236813962459564209
-1.8580622673034668 2.89938688278198242 -0.277129769325256348
-0.976632654666900635 2.46844124794006348 -0.757192254066467285
-1.39618301391601562 4.09366846084594727 1.31811428070068359
1.45560371875762939 3.58662748336791992 0.768154740333557129
-0.34106871485710144 2.24730849266052246 -0.611217141151428223
-0.56878972053527832 2.25861334800720215 -0.688262820243835449
-2.11775898933410645 3.22751784324645996 -0.555169165134429932
-2.17329001426696777 4.13428974151611328 0.112329877912998199
1.29140782356262207 2.87836480140686035 -0.857684850692749023
1.82671844959259033 3.00575613975524902 -0.850852906703948975
-0.85233151912689209 2.3309931755065918 -0.706292986869812012
-0.0504748709499835968 2.43320298194885254 -0.67770230770111084
1.27457833290100098 2.94685578346252441 -0.880880951881408691
-0.195098027586936951 2.36631512641906738 -0.755971074104309082
1.85351574420928955 3.0063483715057373 -0.357094466686248779
1.31551253795623779 3.66326284408569336 0.804184079170227051
1.75880610942840576 3.13456153869628906 0.0532727651298046112
-0.902169883251190186 2.30448770523071289 -0.792916417121887207
-0.321322649717330933 2.89935064315795898 0.0539997220039367676
1.24163269996643066 3.65690898895263672 0.888320088386535645
-1.92889606952667236 3.9665217399597168 -0.545710563659667969
-1.26345217227935791 2.26672148704528809 -0.567490518093109131
0.16019025444984436 2.24936413764953613 -0.129773810505867004
1.57436203956604004 2.94390749931335449 -0.577192723751068115
1.23684060573577881 2.94028639793395996 -0.928426444530487061
-0.327353984117507935 2.50936555862426758 -0.584980785846710205
1.5843968391418457 2.98181867599487305 -0.766032576560974121
1.76034331321716309 3.60995340347290039 0.571109771728515625
-1.077004075050354 2.35711407661437988 -0.695494413375854492
2.69470596313476562 4.99937152862548828 -0.159735843539237976
2.18800997734069824 6.53209018707275391 2.10883522033691406
1.34047079086303711 2.85201787948608398 -0.877124905586242676
-1.45332193374633789 2.36733770370483398 -0.495348155498504639
-0.588166892528533936 2.51302909851074219 -0.672430813312530518
-0.194874852895736694 2.30126500129699707 -0.61461484432220459
-0.212174013257026672 2.2080838680267334 -0.62747955322265625
-2.14910364151000977 4.02165317535400391 -0.508666098117828369
-1.63625431060791016 4.01160573959350586 0.631366372108459473
-0.295391738414764404 2.38330173492431641 -0.650106072425842285
-2.11210060119628906 4.0434107780456543 0.0963871777057647705
1.14431285858154297 2.78808927536010742 -0.796063840389251709
-1.42078280448913574 3.62173175811767578 0.304971128702163696
2.90528559684753418 7.12549257278442383 0.644402623176574707
-0.519402444362640381 2.38096046447753906 -0.204178094863891602
0.0412792637944221497 2.87758684158325195 -0.11914101243019104
1.54108011722564697 2.68249201774597168 -0.683702766895294189
-2.53492259979248047 3.99247527122497559 -0.175775378942489624
0.00182262808084487915 2.3528134822845459 -0.645652234554290771
0.410109430551528931 3.8148338794708252 1.36596524715423584
-0.659736514091491699 4.10858154296875 1.36119604110717773
