ply
format ascii 1.0
element vertex 256
comment vertices
property float x
property float y
property float z
end_header
1.04701614379882812 3.41904163360595703 0.35796588659286499
-1.6199880838394165 7.93284893035888672 2.13860392570495605
-2.65654563903808594 4.29879140853881836 -0.622651278972625732
2.57629966735839844 7.11362838745117188 2.24321484565734863
-0.344145089387893677 0.781227827072143555 -0.312907487154006958
-0.804491758346557617 5.80112886428833008 1.32630515098571777
0.13790738582611084 3.13782405853271484 -0.79507756233215332
1.56090903282165527 2.69224834442138672 -0.681911945343017578
0.7185935378074646 4.65141391754150391 -0.447632670402526855
1.09612250328063965 5.50539827346801758 2.27554798126220703
0.334769725799560547 7.32569026947021484 2.32416105270385742
-1.28281688690185547 4.49969911575317383 -0.623073399066925049
-2.13031125068664551 4.89318227767944336 0.777241349220275879
-1.64425325393676758 2.74067854881286621 -0.366386204957962036
0.405007243156433105 3.33066534996032715 -0.592716217041015625
1.08379507064819336 5.17552089691162109 1.47339057922363281
-0.495175719261169434 6.25482559204101562 2.20694875717163086
1.59009194374084473 2.31329941749572754 -0.438549399375915527
-1.78064143657684326 6.82371616363525391 2.16971492767333984
1.40471422672271729 8.02101612091064453 2.34638690948486328
-0.100689411163330078 2.9716646671295166 -0.628020584583282471
-2.07093691825866699 3.98337960243225098 -0.662500739097595215
1.19682741165161133 6.67691230773925781 2.44435024261474609
0.28338700532913208 5.39908552169799805 0.317868947982788086
2.13510417938232422 3.6011052131652832 2.87586474418640137
-0.711507797241210938 2.14705085754394531 -0.772559046745300293
-2.15616893768310547 4.70615720748901367 0.156733483076095581
0.680995702743530273 3.23077392578125 -0.0148714780807495117
-0.750862598419189453 5.4126896858215332 -0.0275344550609588623
-1.98597204685211182 4.56358480453491211 -0.371013730764389038
-0.910881519317626953 7.23486042022705078 2.21325182914733887
0.177800953388214111 3.25255227088928223 -0.602949798107147217
-0.00316032767295837402 3.34559798240661621 -0.573531031608581543
-0.0506767332553863525 4.72476100921630859 -0.130655169486999512
0.21339571475982666 3.25476241111755371 -0.627008676528930664
-0.602875888347625732 5.40862655639648438 -0.601412057876586914
-1.73912143707275391 4.3836369514465332 -0.718354344367980957
0.133863657712936401 5.87787389755249023 1.46068358421325684
0.393163591623306274 6.10067415237426758 2.16382050514221191
-0.354565143585205078 7.96930217742919922 2.22266793251037598
0.0314161181449890137 3.20094633102416992 -0.538302600383758545
-1.37028217315673828 4.89609909057617188 0.512875616550445557
-0.606264710426330566 1.00522935390472412 -0.328060716390609741
2.44556117057800293 2.80987548828125 2.20282602310180664
1.14949870109558105 3.11790370941162109 0.0794147253036499023
-1.98734688758850098 4.34417867660522461 -0.543101012706756592
0.941521167755126953 4.07168388366699219 0.843848586082458496
1.07300758361816406 7.27861881256103516 2.23210811614990234
0.734532833099365234 8.09325885772705078 2.34917783737182617
1.89108335971832275 2.92961263656616211 -0.525951385498046875
-0.179100096225738525 6.88768815994262695 2.30241656303405762
1.26010727882385254 3.68073701858520508 -0.124156981706619263
-1.0719529390335083 2.73474884033203125 -0.706910490989685059
0.1988639235496521 3.24614477157592773 -0.627943933010101318
0.106722190976142883 3.30124139785766602 -0.669578015804290771
-0.264456689357757568 3.56316804885864258 -0.687546908855438232
0.559872806072235107 6.94791793823242188 2.50124692916870117
-0.53051227331161499 5.35046815872192383 0.125375360250473022
-0.972981393337249756 3.16441583633422852 -0.825330436229705811
0.56089627742767334 4.08297204971313477 -0.0861313194036483765
1.54754972457885742 3.20930719375610352 0.592574954032897949
-1.71661663055419922 7.27429628372192383 2.06217646598815918
-0.378496438264846802 3.10404038429260254 -0.738451242446899414
-2.24255251884460449 4.75210142135620117 -0.186815381050109863
-1.01275372505187988 4.95662546157836914 -0.438028186559677124
1.24922871589660645 2.86292028427124023 -0.458634853363037109
0.139732241630554199 3.30207300186157227 -0.666230618953704834
0.589302897453308105 3.33511161804199219 -0.757342815399169922
0.791305065155029297 5.41392183303833008 0.895037651062011719
1.07158315181732178 6.07585859298706055 2.17294120788574219
-0.334908068180084229 7.49283409118652344 2.21604013442993164
-0.374436616897583008 5.71099424362182617 0.807680070400238037
0.976941168308258057 4.4023127555847168 1.36849546432495117
-0.915696859359741211 5.23321056365966797 0.640291690826416016
-0.471759259700775146 0.713693439960479736 -0.504671812057495117
0.548703551292419434 5.70942592620849609 2.26827883720397949
0.839607536792755127 3.06898903846740723 -0.674243330955505371
0.592688024044036865 4.05645227432250977 0.380252718925476074
1.51776385307312012 3.68028831481933594 0.436462759971618652
-1.03438687324523926 4.15070581436157227 -0.706870138645172119
-0.134996116161346436 3.31052279472351074 -0.654653787612915039
0.30619126558303833 3.24527740478515625 -0.570100784301757812
0.856516420841217041 3.2530820369720459 -0.41231149435043335
1.25362491607666016 3.87238121032714844 1.21181929111480713
-0.741401195526123047 5.2208104133605957 -0.333546429872512817
-1.92093122005462646 4.76864910125732422 -0.529986977577209473
-1.68245267868041992 4.65732669830322266 0.253088474273681641
-0.757106304168701172 8.03415203094482422 2.2922360897064209
-0.542782068252563477 0.857295989990234375 -0.245504558086395264
0.171276763081550598 3.21092724800109863 -0.666844606399536133
-1.3475039005279541 4.38740205764770508 -0.590099215507507324
-1.71355926990509033 5.4084925651550293 1.43861138820648193
0.34294593334197998 4.99807024002075195 0.25729447603225708
-1.24880433082580566 5.48914909362792969 1.46446514129638672
1.41098475456237793 2.36287736892700195 -0.509020864963531494
-0.0650268271565437317 5.87908124923706055 2.25770473480224609
3.20076274871826172 6.40149688720703125 2.65824675559997559
-1.42493593692779541 6.89509439468383789 2.21702003479003906
-1.26900017261505127 7.56233882904052734 2.1534578800201416
0.105251133441925049 3.31610846519470215 -0.536014139652252197
0.933533966541290283 3.15713286399841309 0.134441256523132324
-1.6099388599395752 4.88606739044189453 -0.578481316566467285
0.0969529151916503906 3.35843777656555176 -0.626601576805114746
-2.02703189849853516 4.2023615837097168 -0.713225066661834717
0.956529438495635986 2.76205754280090332 -0.705636739730834961
-0.674681961536407471 5.01124334335327148 -0.48888242244720459
1.45596194267272949 7.62914800643920898 2.37705159187316895
1.20186805725097656 4.65501165390014648 2.18126559257507324
0.0200030207633972168 3.24189329147338867 -0.65084916353225708
0.0323332697153091431 5.50117874145507812 0.484306871891021729
-0.156539082527160645 3.07591986656188965 -0.686900496482849121
-0.911527812480926514 6.95711469650268555 2.3388831615447998
0.697060644626617432 7.50678873062133789 2.22054910659790039
-1.24630236625671387 4.72316217422485352 0.190771088004112244
-0.282588958740234375 3.14727997779846191 -0.613420605659484863
0.351775169372558594 3.2359015941619873 -0.420190870761871338
0.173238545656204224 3.30464053153991699 -0.614813506603240967
1.41493964195251465 5.1191105842590332 2.27001643180847168
0.637737274169921875 5.03425931930541992 0.450775742530822754
-0.195996016263961792 6.52555131912231445 2.28981351852416992
1.10689902305603027 3.5092473030090332 0.786639869213104248
-2.75658535957336426 4.38019609451293945 -0.208559930324554443
1.34525442123413086 3.50503277778625488 0.535147905349731445
-2.03607034683227539 4.46977329254150391 0.453613221645355225
-0.18548351526260376 3.24339747428894043 -0.794785797595977783
2.18457269668579102 2.93366599082946777 -0.551491796970367432
0.741511344909667969 5.79902744293212891 2.22723245620727539
0.261870354413986206 6.54808950424194336 2.25490283966064453
1.00773823261260986 6.98603963851928711 2.66736531257629395
1.31023836135864258 7.12635183334350586 2.38230228424072266
-1.08054673671722412 4.44477128982543945 -0.681171834468841553
-0.115585893392562866 3.37443685531616211 -0.58633655309677124
-0.00285743176937103271 3.28305530548095703 -0.606599986553192139
0.385896205902099609 3.33219814300537109 -0.681308627128601074
0.613559126853942871 7.2345128059387207 2.56913161277770996
0.551344692707061768 4.46850490570068359 -0.240261688828468323
-0.461606860160827637 2.8366246223449707 -0.811698794364929199
-0.537196874618530273 0.747055709362030029 -0.274490118026733398
-2.1133732795715332 4.78052902221679688 -0.342329323291778564
0.770528614521026611 6.35944843292236328 2.23553657531738281
0.987017393112182617 3.90504932403564453 0.874821186065673828
0.853772461414337158 3.40078902244567871 -0.159622758626937866
-0.678123354911804199 7.58926773071289062 2.17289066314697266
-0.448717385530471802 3.14516377449035645 -0.681462943553924561
-0.871016919612884521 3.60322761535644531 -0.736859321594238281
1.0905989408493042 4.08546257019042969 1.183258056640625
-0.503447532653808594 2.55625367164611816 -0.762377440929412842
1.05282247066497803 2.84305906295776367 -0.683348774909973145
-0.375863492488861084 5.92759275436401367 1.31034612655639648
-0.0646422207355499268 7.19995832443237305 2.44668078422546387
0.854184865951538086 4.48154544830322266 1.07893633842468262
-0.534351527690887451 5.48228645324707031 0.67543262243270874
-0.408711940050125122 2.93340587615966797 -0.718004047870635986
-0.337192356586456299 2.37619495391845703 -0.728787362575531006
-1.36325359344482422 7.08600378036499023 2.17119932174682617
0.926030397415161133 4.33410739898681641 -0.435215294361114502
-1.29522538185119629 2.79289555549621582 -0.38849109411239624
0.377253860235214233 3.25612163543701172 -0.647467911243438721
0.736035585403442383 3.53236103057861328 -0.0745174884796142578
1.5325324535369873 3.8195195198059082 0.374046266078948975
0.262001246213912964 3.13664841651916504 -0.629260718822479248
-0.711461424827575684 5.31684064865112305 0.0724186301231384277
-0.537662088871002197 6.97164630889892578 2.32287359237670898
-1.96895706653594971 4.61675882339477539 0.0231114327907562256
0.490071952342987061 3.5515894889831543 0.0657617449760437012
-0.749648571014404297 5.36314058303833008 -0.249400138854980469
0.0482349097728729248 3.39939975738525391 -0.634817719459533691
-0.075105622410774231 7.6575164794921875 2.12122917175292969
0.725869536399841309 2.87938976287841797 -0.162847697734832764
0.258258342742919922 6.96347284317016602 2.44929814338684082
0.108205139636993408 3.28397679328918457 -0.431148409843444824
0.378515839576721191 3.31439590454101562 -0.585955500602722168
0.785318195819854736 3.40079569816589355 -0.583322823047637939
-0.912994742393493652 5.47978878021240234 0.936111509799957275
-1.80684030055999756 7.0305333137512207 2.13863611221313477
2.15840935707092285 2.76250600814819336 -0.564512073993682861
0.849469006061553955 6.70423460006713867 2.46791505813598633
0.108344525098800659 3.24852299690246582 -0.566432833671569824
1.85405194759368896 2.28803563117980957 -0.545742034912109375
-1.91722393035888672 4.7835235595703125 0.632605373859405518
1.36461639404296875 5.41575717926025391 2.17626762390136719
0.0910088121891021729 3.22912025451660156 -0.578886032104492188
-0.756282329559326172 5.30404281616210938 -0.0917108058929443359
0.396730244159698486 3.27919244766235352 -0.623046219348907471
-0.914824843406677246 3.91480135917663574 -0.657869219779968262
-2.38794422149658203 4.40072393417358398 -0.544363915920257568
0.946623325347900391 3.23941469192504883 0.0971422195434570312
-0.0753517448902130127 4.84410905838012695 -0.0701301395893096924
1.64753735065460205 3.28859782218933105 0.886349260807037354
0.403305649757385254 5.38024377822875977 0.542376458644866943
0.433514118194580078 5.66908407211303711 1.18791317939758301
0.172917008399963379 3.1900174617767334 -0.632303953170776367
-0.204115599393844604 6.07469272613525391 2.19091939926147461
0.104070186614990234 5.53209924697875977 0.437698245048522949
1.74826812744140625 2.77481698989868164 -0.308382570743560791
1.32638990879058838 3.67433714866638184 0.927431464195251465
-0.0765259861946105957 2.82323122024536133 -0.779169976711273193
-1.3723297119140625 4.67030906677246094 -0.583030998706817627
-0.757203757762908936 5.23702478408813477 -0.100291967391967773
1.20530450344085693 4.13000869750976562 0.728344917297363281
-1.48509728908538818 4.25064325332641602 -0.693939089775085449
-1.65243184566497803 6.90738677978515625 2.10346722602844238
0.223687231540679932 3.4631040096282959 -0.722866058349609375
0.88590008020401001 5.41171360015869141 1.46962344646453857
0.101350545883178711 3.28371453285217285 -0.408124685287475586
-1.62641286849975586 4.52519941329956055 -0.605965077877044678
-1.30649387836456299 2.95639801025390625 -0.746476173400878906
-1.50623154640197754 5.37591981887817383 1.28073501586914062
-0.798564255237579346 5.28678369522094727 -0.453267097473144531
0.455420196056365967 4.9724574089050293 0.117826685309410095
-1.24470460414886475 4.41617345809936523 -0.708978712558746338
-0.57676231861114502 5.664154052734375 0.795381486415863037
-1.67650437355041504 3.594573974609375 -0.716624140739440918
1.00076103210449219 4.36134958267211914 1.62934958934783936
1.11117053031921387 5.73110818862915039 2.21286439895629883
-0.346411317586898804 5.46770286560058594 0.474881112575531006
0.200038135051727295 3.23774576187133789 -0.583344101905822754
0.99864959716796875 4.83156108856201172 1.52864992618560791
0.285636276006698608 3.11162042617797852 -0.677606046199798584
0.152931094169616699 3.24689960479736328 -0.671751320362091064
1.87878251075744629 3.70661664009094238 2.37587213516235352
-1.37342286109924316 4.35226058959960938 -0.615561425685882568
0.836719095706939697 3.87332820892333984 0.464526474475860596
-1.14546167850494385 5.03785276412963867 0.474648654460906982
0.362623363733291626 3.35929298400878906 -0.611313104629516602
-0.22517058253288269 3.3319847583770752 -0.58489382266998291
1.42475152015686035 3.26021289825439453 0.404653668403625488
0.975296258926391602 4.81190395355224609 0.82779693603515625
-1.57050704956054688 4.03357028961181641 -0.692366063594818115
0.0747547745704650879 3.27592301368713379 -0.622272372245788574
-0.172246143221855164 5.84893798828125 0.944156765937805176
0.219874978065490723 5.74620389938354492 2.1847686767578125
-1.49576210975646973 4.68989133834838867 0.403427362442016602
0.0499276518821716309 3.21922683715820312 -0.513346612453460693
-0.296947628259658813 3.22129726409912109 -0.597250640392303467
-0.567643165588378906 0.860012948513031006 -0.312536299228668213
0.540455937385559082 5.21469879150390625 0.661273837089538574
0.936572790145874023 4.33207607269287109 1.10906505584716797
-0.112464413046836853 3.24645471572875977 -0.60578078031539917
-1.66753852367401123 4.86380338668823242 0.702769458293914795
0.430918097496032715 4.63830661773681641 -0.102803632616996765
0.87258756160736084 4.64534711837768555 0.322623908519744873
-0.334967583417892456 6.77673196792602539 2.3223426342010498
1.3076854944229126 3.80683708190917969 0.749007165431976318
-0.430096149444580078 0.886964321136474609 -0.250090748071670532
0.2710152268409729 3.23532605171203613 -0.538481235504150391
-1.4295656681060791 7.81196117401123047 2.12731719017028809
1.02557528018951416 6.46379995346069336 2.41940116882324219
0.604256391525268555 3.43871021270751953 -0.617210149765014648
-0.721282958984375 7.01000738143920898 2.25968837738037109
-0.663763284683227539 7.37580728530883789 2.30569076538085938
-0.364038467407226562 7.78181076049804688 2.2151644229888916
-1.2043527364730835 5.19936513900756836 0.841377079486846924
0.431077659130096436 7.19093418121337891 2.53680515289306641
-0.768095552921295166 5.47815608978271484 0.838042020797729492
1.65285348892211914 4.74699115753173828 2.15025448799133301
