ply
format ascii 1.0
element vertex 42
comment vertices
property float x
property float y
property float z
end_header
0.102414004504680634 3.15114402770996094 -0.794366002082824707
0.320012181997299194 3.34497952461242676 -0.633496761322021484
0.143777146935462952 3.27343177795410156 -0.633677840232849121
-0.00254712067544460297 3.35592055320739746 -0.587264835834503174
0.170136243104934692 3.27532148361206055 -0.653271377086639404
0.027127683162689209 3.22858047485351562 -0.568483710289001465
0.158742070198059082 3.26690936088562012 -0.654654324054718018
0.0891042500734329224 3.30545949935913086 -0.676637709140777588
0.111857876181602478 3.30756306648254395 -0.688006997108459473
0.539062619209289551 3.33550715446472168 -0.77962106466293335
-0.0995331928133964539 3.3125150203704834 -0.64513927698135376
0.25335991382598877 3.27716565132141113 -0.615979433059692383
0.134405255317687988 3.22892975807189941 -0.692327141761779785
0.100132346153259277 3.32718658447265625 -0.559456348419189453
0.0851927772164344788 3.35925626754760742 -0.636663496494293213
0.0147365089505910873 3.25534796714782715 -0.656408965587615967
0.313659578561782837 3.29824733734130859 -0.482866287231445312
0.141239717602729797 3.31589794158935547 -0.641222000122070312
-0.0895996168255805969 3.38996315002441406 -0.580002546310424805
-0.0112580219283699989 3.29876065254211426 -0.618547558784484863
0.303013533353805542 3.33976125717163086 -0.712427973747253418
0.300199568271636963 3.27662134170532227 -0.683951258659362793
0.212348923087120056 3.17676663398742676 -0.663798749446868896
0.0412124916911125183 3.39299821853637695 -0.638891339302062988
0.0985905304551124573 3.30750441551208496 -0.475595176219940186
0.301746785640716553 3.3300628662109375 -0.629417061805725098
0.090017266571521759 3.26201486587524414 -0.593318700790405273
0.0750534385442733765 3.24510455131530762 -0.603790760040283203
0.314040839672088623 3.30028581619262695 -0.663314461708068848
0.137210816144943237 3.21684813499450684 -0.66047203540802002
0.183198243379592896 3.44291186332702637 -0.720828235149383545
0.0934246331453323364 3.31090235710144043 -0.456089705228805542
0.16309964656829834 3.26357626914978027 -0.619024515151977539
0.229701399803161621 3.15076327323913574 -0.707517921924591064
0.11918957531452179 3.26003026962280273 -0.69650501012802124
0.285235464572906494 3.36478424072265625 -0.651315271854400635
-0.220890402793884277 3.33586478233337402 -0.582630574703216553
0.0644434764981269836 3.28671145439147949 -0.635308623313903809
0.0475449748337268829 3.24225211143493652 -0.549918174743652344
-0.0860076993703842163 3.27025985717773438 -0.611827492713928223
0.225518554449081421 3.2648465633392334 -0.58413773775100708
0.541889607906341553 3.4346766471862793 -0.662715435028076172
