ply
format ascii 1.0
element vertex 80
comment vertices
property float x
property float y
property float z
end_header
-1.72807860374450684 3.23286724090576172 -0.721539080142974854
-0.0914297178387641907 2.82505607604980469 -0.642417073249816895
-0.420704632997512817 2.73747634887695312 -0.629209041595458984
-1.66561830043792725 3.47436332702636719 -0.682819366455078125
-0.299375295639038086 2.81213688850402832 -0.64085090160369873
-0.167817056179046631 2.73996973037719727 -0.672769665718078613
-0.093829624354839325 2.6406548023223877 -0.703075826168060303
-0.0815822780132293701 2.79986739158630371 -0.633996307849884033
-0.229865983128547668 2.75158929824829102 -0.429793477058410645
-1.61999452114105225 3.72255587577819824 -0.574100792407989502
-1.84222638607025146 3.26566934585571289 -0.607120275497436523
-0.118284747004508972 2.68418598175048828 -0.584022283554077148
-0.538299918174743652 2.74731111526489258 -0.695907831192016602
-1.77460205554962158 3.56594753265380859 -0.804773986339569092
-0.34736555814743042 2.68363142013549805 -0.657378435134887695
-0.139555364847183228 2.89151501655578613 -0.662730813026428223
-0.342972695827484131 2.74925875663757324 -0.634300053119659424
-0.340926140546798706 2.87444424629211426 -0.649852454662322998
-0.517498135566711426 2.81911873817443848 -0.663189828395843506
-1.82677125930786133 3.48747491836547852 -0.679167032241821289
-0.180276468396186829 2.79802060127258301 -0.723525822162628174
-1.78231871128082275 3.35234284400939941 -0.697358906269073486
-0.269203662872314453 2.93407487869262695 -0.656257748603820801
-1.71498739719390869 3.24830436706542969 -0.526300549507141113
-0.329770416021347046 2.89045143127441406 -0.663175880908966064
-0.253814071416854858 2.67698049545288086 -0.680635929107666016
-0.208482131361961365 2.63879251480102539 -0.620899558067321777
-0.0403292402625083923 2.46225643157958984 -0.734435319900512695
-0.625638306140899658 2.78140068054199219 -0.663666486740112305
-0.5360565185546875 2.90583205223083496 -0.670058488845825195
-1.82723069190979004 3.53336143493652344 -0.713126480579376221
-0.31829071044921875 2.78843259811401367 -0.6113167405128479
-0.0425628498196601868 2.94606161117553711 -0.465099215507507324
-0.157326385378837585 2.88434696197509766 -0.622910857200622559
-0.0862504616379737854 2.43048882484436035 -0.659046471118927002
-0.522764205932617188 2.7777869701385498 -0.643996000289916992
-0.501141548156738281 2.72956991195678711 -0.840021789073944092
-0.370921313762664795 2.91523957252502441 -0.646457195281982422
-0.207642003893852234 2.84726715087890625 -0.610925614833831787
-0.446662247180938721 2.80716514587402344 -0.468472838401794434
-1.66780805587768555 3.50269913673400879 -0.657352983951568604
-0.327706426382064819 2.74664974212646484 -0.63299793004989624
-1.88137733936309814 3.27159714698791504 -0.569383144378662109
-0.251443147659301758 2.79563713073730469 -0.709288477897644043
-0.601997077465057373 2.76006007194519043 -0.456662893295288086
-1.76010394096374512 3.54438209533691406 -0.666574597358703613
-2.00474762916564941 3.4013974666595459 -0.616674721240997314
-0.105041518807411194 2.83272814750671387 -0.678871691226959229
-1.66484534740447998 3.36115360260009766 -0.704750120639801025
-0.529786169528961182 2.89067625999450684 -0.427157580852508545
-0.359086334705352783 2.74689269065856934 -0.570088684558868408
-0.48865896463394165 2.75911998748779297 -0.669535338878631592
-0.405054032802581787 2.80011558532714844 -0.610327601432800293
-0.284987002611160278 2.78214406967163086 -0.516685426235198975
-1.72085356712341309 3.61297416687011719 -0.508964300155639648
-1.59563338756561279 3.3411717414855957 -0.587770819664001465
-0.13317185640335083 2.76283431053161621 -0.610189318656921387
-1.69910144805908203 3.5687410831451416 -0.749537646770477295
-0.0814099833369255066 2.77575135231018066 -0.679355740547180176
-0.121481411159038544 2.8440399169921875 -0.627705633640289307
-0.456200361251831055 2.88517498970031738 -0.645102024078369141
-0.316224873065948486 2.62790989875793457 -0.666720151901245117
-0.0669717639684677124 2.73269438743591309 -0.641114115715026855
-1.83567595481872559 3.44890642166137695 -0.73980480432510376
-0.0728461891412734985 2.80565571784973145 -0.609619379043579102
-1.773734450340271 3.45200443267822266 -0.704943418502807617
-0.389136373996734619 2.74929332733154297 -0.568069219589233398
-0.0934453010559082031 2.81806850433349609 -0.647955417633056641
-1.708335280418396 3.38988924026489258 -0.688931107521057129
0.145457178354263306 2.82018017768859863 -0.577362298965454102
-0.30170711874961853 2.78591060638427734 -0.616590321063995361
-1.65123832225799561 3.41762161254882812 -0.588708639144897461
-0.205375716090202332 2.83319830894470215 -0.560861170291900635
0.0967454239726066589 2.79496073722839355 -0.718615233898162842
-1.92838442325592041 3.27697110176086426 -0.622672498226165771
-0.272432804107666016 2.70938992500305176 -0.695369064807891846
-1.74411404132843018 3.3693242073059082 -0.762574613094329834
-0.35624346137046814 2.82166671752929688 -0.641425192356109619
-0.460632771253585815 2.82580757141113281 -0.702741622924804688
-0.340245634317398071 2.8379359245300293 -0.604604482650756836
