ply
format ascii 1.0
element vertex 256
comment vertices
property float x
property float y
property float z
end_header
-0.778607606887817383 2.68543124198913574 -0.783218979835510254
2.7420656681060791 8.01346302032470703 1.935965895652771
-1.38546836376190186 6.62752342224121094 3.2786719799041748
2.08045220375061035 3.90399932861328125 0.389900565147399902
-2.91947507858276367 4.53278732299804688 0.671515524387359619
0.0208159908652305603 6.34063434600830078 2.10940170288085938
-0.246193796396255493 2.94603681564331055 -0.71283423900604248
1.43117094039916992 2.90735530853271484 -1.66339349746704102
3.40568232536315918 6.25540494918823242 -0.470083832740783691
-2.6616814136505127 4.18299198150634766 -0.828050136566162109
2.66271233558654785 4.99935245513916016 2.47564530372619629
-0.633630156517028809 8.13294696807861328 2.10976839065551758
1.0327078104019165 7.83879423141479492 2.19978022575378418
2.57502055168151855 4.18516302108764648 -0.881294727325439453
-1.56511569023132324 6.92624855041503906 2.18442177772521973
1.39955461025238037 4.20801019668579102 2.35663557052612305
-0.557872653007507324 4.29233598709106445 2.11169719696044922
-0.140518590807914734 3.11432719230651855 -0.735818207263946533
-1.79425644874572754 3.1230475902557373 -0.726352095603942871
0.874279499053955078 4.02004384994506836 -0.450492918491363525
2.83276987075805664 6.5783085823059082 2.04029345512390137
-1.54921889305114746 4.00586366653442383 -0.532078921794891357
1.50955116748809814 6.76714086532592773 2.29356932640075684
-1.64849758148193359 7.92762899398803711 2.31410408020019531
-0.697886288166046143 3.09511518478393555 -0.688369512557983398
2.1523735523223877 3.81245708465576172 -0.704578995704650879
0.0237283408641815186 7.35465860366821289 2.15327072143554688
0.988539159297943115 5.67174577713012695 1.95415520668029785
-0.0444992780685424805 2.93032717704772949 -0.779252767562866211
1.04729902744293213 3.84583163261413574 -0.166080385446548462
0.0196667909622192383 5.06738948822021484 -0.102946281433105469
1.26694643497467041 3.99385833740234375 -0.801600039005279541
2.29924511909484863 7.29216384887695312 1.96109724044799805
-0.181863263249397278 4.48616743087768555 0.943530678749084473
0.332600772380828857 3.38592433929443359 -0.958858788013458252
-0.676108360290527344 3.21226119995117188 -0.618160247802734375
-2.57816171646118164 3.81792545318603516 -0.36455199122428894
-2.11068224906921387 7.03517627716064453 2.28075075149536133
-0.804148972034454346 6.8755650520324707 2.2655940055847168
-1.7816537618637085 3.96879386901855469 0.381371378898620605
0.674411177635192871 6.93030738830566406 2.50791692733764648
0.413226544857025146 3.20908069610595703 -0.792750954627990723
2.65340375900268555 3.85363149642944336 2.45451164245605469
-0.369143754243850708 3.10703706741333008 -0.540025949478149414
-0.814624369144439697 3.99048972129821777 -0.109027683734893799
-0.150401085615158081 3.02010011672973633 -0.707932353019714355
-1.95403075218200684 4.08111953735351562 -0.720435082912445068
-0.176439106464385986 3.03528261184692383 -0.689719974994659424
-1.32822012901306152 2.96016645431518555 -0.698214411735534668
1.97064626216888428 3.94849228858947754 -0.415325820446014404
2.02819728851318359 7.97144269943237305 2.02419519424438477
-1.68487334251403809 3.87618231773376465 -0.661444365978240967
-1.09684288501739502 7.5823211669921875 2.1215059757232666
3.49491238594055176 6.29140567779541016 0.415438652038574219
2.52376604080200195 4.42941617965698242 0.778847575187683105
1.80223381519317627 3.77046370506286621 -0.710451245307922363
-0.390000909566879272 2.86043071746826172 -0.640085279941558838
0.0752288699150085449 3.04452610015869141 -0.73499906063079834
2.40653014183044434 3.48288345336914062 -0.849689006805419922
1.65423202514648438 7.49837350845336914 2.12673187255859375
-2.0950467586517334 4.67134284973144531 1.41414844989776611
0.44951215386390686 7.95647525787353516 2.13945508003234863
2.17005515098571777 6.80407571792602539 2.22072219848632812
0.172554880380630493 4.17296600341796875 0.389508843421936035
1.60671579837799072 3.97745323181152344 -0.848732590675354004
-1.25617098808288574 3.18740534782409668 -0.488112092018127441
2.82851147651672363 7.54596328735351562 2.01602864265441895
2.26980304718017578 3.78100919723510742 -0.6392974853515625
-0.545285403728485107 7.44379520416259766 2.19069147109985352
0.95617830753326416 3.96124362945556641 -0.79813152551651001
-0.516503036022186279 3.03679347038269043 -0.771024525165557861
-0.50285869836807251 3.22172427177429199 -0.72810208797454834
-1.94503366947174072 3.96797609329223633 -0.661913692951202393
-0.138100862503051758 6.81702470779418945 2.23274135589599609
-0.0418109819293022156 7.94004440307617188 2.16783237457275391
-0.427015364170074463 3.31829643249511719 -0.683681964874267578
-2.29352784156799316 4.16893863677978516 -0.576302289962768555
1.61266767978668213 3.56785130500793457 -0.527150273323059082
0.722414016723632812 6.28699064254760742 2.07431626319885254
-2.48035979270935059 4.3197784423828125 0.189591825008392334
1.95974898338317871 4.05812406539916992 -0.125527262687683105
-0.0141884982585906982 3.33496904373168945 -0.225443631410598755
0.401014924049377441 3.07039308547973633 -0.926825821399688721
0.53318023681640625 7.51500988006591797 2.27125358581542969
0.499180436134338379 4.56405496597290039 2.1486048698425293
1.3594810962677002 8.01012420654296875 2.17766761779785156
2.06674313545227051 4.71679162979125977 1.49899816513061523
0.897584319114685059 4.65719795227050781 1.02285945415496826
1.99940574169158936 3.87029170989990234 -0.880135059356689453
0.381621599197387695 5.93193244934082031 2.00220870971679688
-0.800088763236999512 4.53633213043212891 0.825896799564361572
-1.68605875968933105 7.54935121536254883 2.16128683090209961
-1.65944182872772217 4.80698728561401367 1.28949642181396484
0.258858919143676758 3.24429798126220703 -0.737256765365600586
-2.23287439346313477 4.05564117431640625 -0.4977550208568573
1.12266921997070312 7.15732002258300781 2.36286830902099609
-0.622980773448944092 3.14187908172607422 -0.6588936448097229
-0.704801201820373535 3.1663665771484375 -0.63953864574432373
-0.0492530912160873413 3.1313626766204834 -0.687017083168029785
1.16902685165405273 3.75385522842407227 -0.739792943000793457
1.47009062767028809 3.49865341186523438 -0.873597681522369385
-0.680733203887939453 3.06856393814086914 -0.72844231128692627
-0.28765028715133667 3.02750587463378906 -0.656105577945709229
-1.38153696060180664 4.08263254165649414 -0.6851540207862854
1.61229622364044189 3.95224308967590332 0.240572273731231689
0.275932371616363525 4.19455766677856445 2.55830907821655273
2.4931633472442627 6.94649696350097656 1.97976434230804443
1.18768584728240967 6.27911806106567383 2.1079411506652832
1.7409365177154541 7.01093101501464844 2.20005655288696289
-1.97409021854400635 3.98814606666564941 -0.655035018920898438
1.93448936939239502 5.90989828109741211 2.05969142913818359
-1.15615606307983398 7.15132236480712891 2.16669964790344238
2.71189117431640625 6.18901681900024414 2.03884768486022949
-1.50964820384979248 3.97304701805114746 -0.696280539035797119
-0.516830861568450928 2.90676212310791016 -0.34095388650894165
-0.278981626033782959 2.77878427505493164 -0.708688914775848389
2.42007017135620117 3.94790101051330566 0.464478433132171631
2.17924690246582031 4.08785295486450195 -0.620550572872161865
0.884585738182067871 3.76498770713806152 -0.568813681602478027
0.245227143168449402 6.73155498504638672 2.24708962440490723
-2.20510601997375488 3.85298395156860352 -0.721466600894927979
1.02352190017700195 6.59604215621948242 2.21383762359619141
1.10159516334533691 3.86738252639770508 -0.749458670616149902
0.27994614839553833 3.86558389663696289 -0.166143596172332764
0.0962798893451690674 3.1108708381652832 -0.692531585693359375
-1.56898725032806396 4.27114152908325195 0.0552330464124679565
-0.481401681900024414 2.7853553295135498 -0.659148097038269043
2.13250231742858887 4.28772878646850586 -0.872522473335266113
1.14840197563171387 3.8819587230682373 -0.718843817710876465
0.0933389812707901001 3.04758214950561523 -0.687687337398529053
-1.41193664073944092 7.92624139785766602 2.06414508819580078
-1.10228204727172852 2.80876898765563965 -0.784748673439025879
-2.9005439281463623 4.28974103927612305 0.31963050365447998
-1.96687185764312744 3.56060004234313965 -0.725026547908782959
3.04207515716552734 7.80876541137695312 2.03267407417297363
-0.200894594192504883 3.14049935340881348 -0.452687203884124756
-0.348764896392822266 3.12505960464477539 -0.600572705268859863
2.0017852783203125 3.91582942008972168 -0.808973789215087891
1.25622189044952393 3.65777182579040527 -0.226036339998245239
-0.580437183380126953 3.0039215087890625 -0.63695138692855835
-0.200802356004714966 3.01003742218017578 -0.668310999870300293
-0.583809435367584229 3.12243461608886719 -0.656198620796203613
0.691334128379821777 3.70988893508911133 -0.833336353302001953
1.24101710319519043 3.88034367561340332 -0.846243143081665039
2.27702832221984863 3.86819171905517578 -0.663061141967773438
-0.624422907829284668 3.1227726936340332 -0.711842715740203857
0.190464228391647339 7.10689449310302734 2.39297008514404297
-1.66061019897460938 2.88039970397949219 -0.945793867111206055
-1.7382282018661499 7.20926856994628906 2.14037537574768066
-1.43015623092651367 3.86206865310668945 -0.478095710277557373
1.95288753509521484 3.59538054466247559 -0.864424288272857666
2.30791711807250977 4.37424898147583008 0.667970955371856689
-1.51533222198486328 4.24565935134887695 0.473708271980285645
-2.12800884246826172 4.06240224838256836 -0.63615715503692627
-1.55274081230163574 3.22475957870483398 -0.649408936500549316
0.907204985618591309 3.14954185485839844 -0.529527366161346436
-2.38723206520080566 4.63409233093261719 0.819141626358032227
0.188350379467010498 3.19567203521728516 -0.768134653568267822
0.526280045509338379 4.48734140396118164 0.658113420009613037
2.16730237007141113 7.58826255798339844 2.03667092323303223
2.0012819766998291 3.97827982902526855 -0.466412931680679321
-2.12533664703369141 7.17754077911376953 2.06431913375854492
-0.0664194226264953613 4.63308191299438477 0.987947225570678711
-0.241778373718261719 2.68418693542480469 -0.749600350856781006
-1.15103399753570557 7.98675155639648438 2.11385130882263184
-0.13476698100566864 3.22419905662536621 -0.739358067512512207
-0.374643653631210327 3.14504098892211914 -0.539858818054199219
2.3434760570526123 8.05722808837890625 2.050506591796875
1.28052616119384766 3.12062430381774902 -0.85631483793258667
-1.00884723663330078 3.04942655563354492 -0.652972400188446045
-0.407461345195770264 7.19854402542114258 2.42345881462097168
0.849654197692871094 7.25650882720947266 2.28303289413452148
1.74431478977203369 3.59215331077575684 -0.668318271636962891
1.91924786567687988 3.28195714950561523 -0.875708401203155518
1.77130997180938721 7.72614336013793945 2.13661718368530273
-0.390666484832763672 3.14151477813720703 -0.67026519775390625
-0.780058085918426514 4.00333166122436523 0.165204703807830811
0.281533807516098022 7.72844886779785156 2.12367939949035645
0.38391578197479248 3.19703149795532227 -0.405121117830276489
-0.375465720891952515 3.24444580078125 -0.682590901851654053
1.09553849697113037 7.5017237663269043 2.3800513744354248
1.29832136631011963 4.57743978500366211 1.04807126522064209
2.37519955635070801 7.00214672088623047 2.04352903366088867
0.239480435848236084 3.58759546279907227 -0.716866970062255859
-1.90019845962524414 4.57474327087402344 0.593851745128631592
1.77670550346374512 3.8768308162689209 -0.877225577831268311
1.94425010681152344 7.43636703491210938 2.06189775466918945
-1.93804407119750977 6.92450189590454102 2.11255025863647461
1.43848693370819092 7.06428146362304688 2.43080925941467285
-1.4117969274520874 4.12744235992431641 0.199501156806945801
0.750446796417236328 5.94274091720581055 2.03775835037231445
0.938150227069854736 3.69190025329589844 -0.6241111159324646
1.15701305866241455 3.56948995590209961 -0.516876459121704102
-0.444434285163879395 3.14124584197998047 -0.638359427452087402
-2.2913360595703125 4.20563888549804688 0.0838872194290161133
-1.94538319110870361 7.74046945571899414 2.10062098503112793
-0.434099674224853516 7.76662397384643555 2.12483644485473633
1.18610954284667969 3.84128761291503906 -0.772912025451660156
-1.42341053485870361 4.02380895614624023 -0.801394164562225342
0.329330086708068848 4.71596479415893555 1.03983938694000244
-0.0145930647850036621 2.88508152961730957 -0.789998710155487061
1.88880801200866699 6.71447372436523438 2.47149038314819336
-1.43378031253814697 7.36971664428710938 2.09916019439697266
0.689517676830291748 4.26987218856811523 0.364992022514343262
1.06636738777160645 2.71075606346130371 -1.14057517051696777
-0.564004719257354736 3.2024390697479248 -0.759046316146850586
0.998891532421112061 3.90594696998596191 -0.704408586025238037
-0.592152237892150879 4.56982898712158203 2.0895850658416748
2.52165102958679199 6.76788520812988281 1.99676787853240967
-0.530968248844146729 3.19560956954956055 -0.672837018966674805
-0.673692822456359863 6.73614978790283203 2.26172113418579102
1.8232872486114502 4.33696556091308594 2.34006261825561523
-0.834598302841186523 2.99234604835510254 -0.807488024234771729
2.04419827461242676 3.67554759979248047 -0.684685945510864258
-2.80232095718383789 4.163299560546875 -0.0672927498817443848
-0.560237884521484375 3.02906966209411621 -0.708075761795043945
-0.102097988128662109 3.27236032485961914 -0.704108595848083496
0.314489036798477173 3.74151134490966797 -0.213001608848571777
1.7987816333770752 3.81300902366638184 -0.733517944812774658
-0.0509969890117645264 3.10677456855773926 -0.557379007339477539
0.15333026647567749 3.08731698989868164 -0.63200831413269043
0.29837644100189209 2.90319156646728516 -0.506163120269775391
0.820931196212768555 2.97644305229187012 -0.832000195980072021
0.869358539581298828 8.00033092498779297 2.1639249324798584
1.59860658645629883 3.94620108604431152 -0.792696654796600342
-2.53989100456237793 4.17121791839599609 -0.111033320426940918
0.437701791524887085 6.58788394927978516 2.2718651294708252
0.567297458648681641 7.81475210189819336 2.08683872222900391
-0.531245768070220947 3.1434178352355957 -0.605308353900909424
1.01678299903869629 4.00201892852783203 -0.71113276481628418
2.69907212257385254 7.97235298156738281 2.02914071083068848
2.54675078392028809 7.55322551727294922 2.02850079536437988
1.30569565296173096 6.93965482711791992 2.22644615173339844
-1.96015036106109619 3.92057681083679199 -0.529801070690155029
-0.0636602193117141724 2.93753170967102051 -0.709845006465911865
1.66306793689727783 4.70642948150634766 1.0496983528137207
-0.918627738952636719 7.32339954376220703 2.09945964813232422
-1.10042095184326172 3.07349920272827148 -0.763525187969207764
0.332384467124938965 2.95408129692077637 -0.802307069301605225
0.056257244199514389 4.07759952545166016 0.238124728202819824
-1.64200282096862793 3.9254913330078125 -0.65922999382019043
1.40132284164428711 4.04276418685913086 0.193985700607299805
1.49882411956787109 3.774322509765625 -0.68119347095489502
-0.450283229351043701 3.02254176139831543 -0.649496376514434814
-0.214091107249259949 4.87674188613891602 1.68581891059875488
2.12640833854675293 3.97846698760986328 -0.811442971229553223
-0.199266225099563599 3.19564366340637207 -0.749043524265289307
-0.187436237931251526 3.08249950408935547 -0.656582295894622803
0.955755531787872314 4.03298187255859375 -0.744885921478271484
1.13651537895202637 3.84462189674377441 -0.681944727897644043
1.53632497787475586 7.86421775817871094 2.18795037269592285
1.24843764305114746 3.37281036376953125 -0.842538714408874512
0.57381904125213623 7.15000438690185547 2.39303874969482422
-0.650856971740722656 4.78611612319946289 1.36942100524902344
-0.517907023429870605 4.01935100555419922 0.0209355354309082031
-0.389981120824813843 3.11676216125488281 -0.69492417573928833
