ply
format ascii 1.0
element vertex 14
comment vertices
property float x
property float y
property float z
end_header
-0.944848895072937012 1.97146666049957275 -0.0867052972316741943
2.49333572387695312 4.80880117416381836 -0.653345286846160889
1.03557217121124268 4.32303619384765625 -0.252979040145874023
0.988447248935699463 4.00464534759521484 -0.535545289516448975
-1.14535808563232422 2.09021759033203125 -0.00568374432623386383
2.46563124656677246 4.565399169921875 -0.809538841247558594
-0.879298865795135498 2.01684379577636719 -0.263016372919082642
-1.07751011848449707 1.92849040031433105 -0.181264594197273254
2.51610374450683594 4.69693660736083984 -0.725951015949249268
-1.22302627563476562 1.90900421142578125 -0.244883477687835693
0.95707780122756958 3.97492718696594238 -0.469395279884338379
2.34926080703735352 4.53486776351928711 -0.78554379940032959
2.48794817924499512 4.75686359405517578 -0.689748883247375488
1.06343412399291992 4.03233432769775391 -0.505385518074035645
