ply
format ascii 1.0
element vertex 256
comment vertices
property float x
property float y
property float z
end_header
-1.88713467121124268 6.07085180282592773 1.14083313941955566
1.62891149520874023 2.23874282836914062 -0.678572416305541992
-1.77873885631561279 3.01722192764282227 -0.645531296730041504
2.23061656951904297 2.803375244140625 2.46255755424499512
-1.32616341114044189 6.4295496940612793 3.49029111862182617
-0.393001258373260498 4.19647789001464844 -0.378762990236282349
-3.01800131797790527 5.097930908203125 -0.0563245676457881927
-0.0735025703907012939 2.46468925476074219 -0.559245705604553223
1.33449935913085938 2.35504555702209473 -0.00852286815643310547
-2.15898466110229492 6.05027151107788086 -0.564074277877807617
0.213147491216659546 2.67485952377319336 -0.451764285564422607
1.06834793090820312 4.08335638046264648 2.96500682830810547
-1.00753486156463623 6.89727878570556641 0.228331923484802246
-3.00929069519042969 5.26406764984130859 1.07034122943878174
-2.2434995174407959 6.98094463348388672 1.95312952995300293
-1.18803060054779053 5.63489007949829102 -0.105662569403648376
-0.996440589427947998 2.75429463386535645 -0.556639790534973145
-0.367446184158325195 4.66423273086547852 0.628045499324798584
-2.29239416122436523 5.7297816276550293 0.0782774388790130615
-0.08013916015625 2.49096202850341797 -0.535076677799224854
0.368285775184631348 2.97347116470336914 0.0470701456069946289
0.0888649225234985352 2.52155566215515137 -0.539854764938354492
0.0172543525695800781 5.01489067077636719 2.9518122673034668
0.0813974142074584961 2.45448422431945801 -0.446555674076080322
-0.828342199325561523 5.45496702194213867 1.10808765888214111
-0.23246331512928009 3.19384670257568359 -0.346966862678527832
1.5329134464263916 3.1967923641204834 1.3699491024017334
-1.65418457984924316 5.8547520637512207 0.258755207061767578
-0.940869808197021484 5.64436197280883789 2.42432999610900879
1.84856891632080078 3.24611091613769531 2.6433255672454834
-2.94047379493713379 5.25044965744018555 0.389019668102264404
-0.296450257301330566 2.39128279685974121 -0.631361007690429688
0.120543539524078369 3.74526190757751465 0.544295191764831543
-0.0895760655403137207 2.45316147804260254 -0.587326645851135254
-2.38036561012268066 5.70144557952880859 0.87124943733215332
-0.071159660816192627 2.47447729110717773 -0.573807477951049805
-2.09343433380126953 2.84632587432861328 -0.53299713134765625
-1.06115293502807617 6.3529505729675293 0.158379971981048584
-0.0251739434897899628 2.52569913864135742 -0.557741403579711914
0.181702733039855957 2.4720451831817627 -0.500358104705810547
-0.534508943557739258 4.35206842422485352 -0.24375152587890625
-1.84658694267272949 3.3785250186920166 -0.617533743381500244
-0.52755129337310791 5.15312385559082031 1.21387851238250732
-1.18809640407562256 6.34830856323242188 0.468921899795532227
1.18754100799560547 2.31424617767333984 -0.655947744846343994
-2.67791318893432617 5.1626439094543457 -0.329520642757415771
0.111303210258483887 2.3391563892364502 -0.115880101919174194
-0.0208544731140136719 2.45865893363952637 -0.49404829740524292
-1.95203316211700439 5.82449436187744141 -0.130075782537460327
1.2796330451965332 2.68621826171875 -0.613053321838378906
0.0375732779502868652 2.59152722358703613 -0.475121498107910156
-2.3571009635925293 5.18195915222167969 -0.0209748446941375732
-2.11202669143676758 6.57427358627319336 1.44023489952087402
-1.76878964900970459 3.07918953895568848 -0.744902968406677246
0.473514080047607422 2.27334213256835938 -0.31807243824005127
-0.1857156902551651 3.1767878532409668 -0.477074682712554932
0.920895040035247803 3.61259031295776367 1.07784593105316162
-1.1641615629196167 5.84551095962524414 1.74919521808624268
-0.339327573776245117 2.52692389488220215 -0.532093524932861328
-0.0107226967811584473 2.35654354095458984 -0.13794398307800293
-2.09868288040161133 5.8263397216796875 -0.336879491806030273
-0.11569899320602417 2.53077459335327148 -0.603020906448364258
-1.90505814552307129 5.96564674377441406 0.64198756217956543
-0.154145717620849609 5.29583406448364258 2.48618316650390625
-0.612420618534088135 3.49331021308898926 -0.161607861518859863
0.267344534397125244 2.65594673156738281 -0.55078279972076416
-1.3820185661315918 5.42276716232299805 0.536935031414031982
0.593752264976501465 4.35407161712646484 1.59446978569030762
-0.758040964603424072 4.35174751281738281 -0.411134064197540283
0.955688893795013428 2.89187955856323242 0.177350103855133057
-0.184455111622810364 2.45072269439697266 -0.511690378189086914
-1.60271561145782471 6.13473987579345703 1.78964877128601074
0.042627338320016861 2.6669166088104248 -0.423685312271118164
-1.45086133480072021 5.97177982330322266 1.04000461101531982
-2.73093628883361816 5.57656145095825195 0.744726717472076416
-0.211259379982948303 4.12348413467407227 -0.471718698740005493
-1.7106248140335083 3.23180627822875977 -0.607673108577728271
-3.13061738014221191 5.33130836486816406 0.399379611015319824
-0.678470730781555176 5.14632749557495117 -0.250780999660491943
-0.120070278644561768 2.37156462669372559 -0.555269539356231689
-1.53169417381286621 6.38291501998901367 2.35482883453369141
0.0900206863880157471 2.77238345146179199 -0.371811240911483765
-1.77858364582061768 3.30274415016174316 -0.637039422988891602
-0.695861101150512695 2.35623288154602051 -0.736146092414855957
-0.260557353496551514 2.60093235969543457 -0.478595733642578125
0.50900191068649292 4.52068853378295898 2.14490985870361328
-2.07381343841552734 6.87791061401367188 2.41692662239074707
-1.24841070175170898 5.72817707061767578 0.0835626423358917236
-2.63002419471740723 5.67822599411010742 1.52376580238342285
1.1841132640838623 2.80712103843688965 0.403690755367279053
-2.66714978218078613 5.16644382476806641 0.0953167229890823364
-1.9725341796875 3.01946687698364258 -0.683814406394958496
-3.16259050369262695 5.17325973510742188 0.205286398530006409
-2.21285438537597656 6.16658306121826172 1.70591378211975098
-0.179512143135070801 2.55933523178100586 -0.477540373802185059
-1.1209113597869873 6.27863788604736328 0.245172083377838135
0.338221192359924316 2.64031553268432617 -0.471157252788543701
0.803996264934539795 3.53998756408691406 0.763576030731201172
0.0942940190434455872 4.67448759078979492 1.57213282585144043
0.0267676115036010742 2.59396219253540039 -0.537286996841430664
2.30933475494384766 2.74132394790649414 2.47873926162719727
-0.769157052040100098 3.06427431106567383 -0.620213806629180908
-0.970749795436859131 4.93158817291259766 0.686479270458221436
-1.96824789047241211 3.07122397422790527 -0.66309046745300293
0.715303003787994385 2.36348462104797363 -0.677658736705780029
0.377312004566192627 2.33319234848022461 -0.490539968013763428
-0.159533262252807617 2.50772452354431152 -0.514376640319824219
-0.219977825880050659 2.48209095001220703 -0.614956200122833252
-0.241717040538787842 3.95597410202026367 -0.0750516057014465332
0.783808529376983643 4.00154590606689453 1.34452545642852783
0.0714071691036224365 2.34714269638061523 -0.569224059581756592
-2.23595476150512695 5.95273637771606445 0.263630092144012451
-0.78567814826965332 4.53547382354736328 0.538875937461853027
0.0572731904685497284 4.43604898452758789 0.849353551864624023
-2.85776662826538086 5.28434610366821289 0.703077793121337891
-2.27190780639648438 5.74212551116943359 -0.128207176923751831
-2.33834719657897949 5.71236324310302734 0.726372480392456055
-0.342552602291107178 3.38922595977783203 -0.366311788558959961
0.231827139854431152 2.59170198440551758 -0.475066006183624268
0.25185084342956543 2.35163593292236328 -0.172504305839538574
-0.674968838691711426 5.46328306198120117 1.64127910137176514
-0.283310353755950928 2.42815208435058594 -0.586841225624084473
0.781338930130004883 3.19116473197937012 0.340084195137023926
0.190195038914680481 2.512847900390625 -0.458852052688598633
-0.112412944436073303 2.42425632476806641 -0.536883831024169922
-0.0344636440277099609 2.51790142059326172 -0.479845255613327026
-0.439708739519119263 3.11819767951965332 -0.210161387920379639
-1.86105787754058838 6.31160688400268555 1.51511061191558838
1.50401854515075684 2.32845282554626465 -0.708245992660522461
-1.87422657012939453 3.18464541435241699 -0.626522302627563477
2.04888343811035156 2.78232288360595703 2.06183791160583496
-1.46933114528656006 5.96307468414306641 1.30833041667938232
-2.08753156661987305 5.94105195999145508 -0.388618826866149902
0.457932591438293457 2.51778912544250488 -0.252195149660110474
0.119238674640655518 2.52409172058105469 -0.528492629528045654
0.0397751331329345703 2.75733208656311035 -0.483265817165374756
-3.00765442848205566 5.00850486755371094 0.00412477552890777588
-2.07076764106750488 6.0780339241027832 1.06322765350341797
-1.02962541580200195 5.85310173034667969 1.20452654361724854
0.102206647396087646 2.48507356643676758 -0.490278124809265137
-0.022487640380859375 2.45914793014526367 -0.573904991149902344
0.333118557929992676 2.25191926956176758 -0.225440680980682373
0.174028754234313965 2.63644170761108398 -0.468467622995376587
0.13617706298828125 2.29415059089660645 -0.556247711181640625
0.280268728733062744 2.7567744255065918 0.0340384840965270996
-2.79630351066589355 5.25779914855957031 -0.304953068494796753
-0.42999836802482605 3.86538124084472656 -0.414897769689559937
0.12193065881729126 2.62024974822998047 -0.426463127136230469
-1.81902766227722168 5.97801542282104492 0.817052721977233887
0.0607935786247253418 2.45266485214233398 -0.156586378812789917
-2.62626147270202637 5.44021463394165039 0.782858669757843018
0.853945434093475342 2.55309295654296875 -0.461766242980957031
-0.271122992038726807 5.27564668655395508 2.05907726287841797
-2.08773446083068848 6.12417030334472656 -0.627715706825256348
-0.975291848182678223 5.62878084182739258 1.63607645034790039
0.144284248352050781 2.33598685264587402 -0.489719092845916748
-0.00231822393834590912 2.64247870445251465 -0.477132022380828857
-2.07615232467651367 6.00675249099731445 -0.0676851421594619751
-2.2899925708770752 6.7977910041809082 1.4664914608001709
-1.71139848232269287 5.69562053680419922 0.118161484599113464
1.7871626615524292 3.40140342712402344 2.92020082473754883
0.52573096752166748 2.45132279396057129 -0.211053729057312012
0.0356426239013671875 2.50972986221313477 -0.545847058296203613
-0.214250117540359497 4.80812215805053711 1.14974486827850342
-0.728778481483459473 5.82474851608276367 2.40545487403869629
0.0498903170228004456 2.4958641529083252 -0.570411324501037598
-1.73977971076965332 3.12460708618164062 -0.694463014602661133
1.77359938621520996 3.02360200881958008 1.52636110782623291
-2.39367532730102539 5.35354137420654297 0.150870263576507568
-1.22101783752441406 5.49720096588134766 0.0516047179698944092
-0.252964377403259277 2.45250153541564941 -0.501416265964508057
-0.169166684150695801 2.51873111724853516 -0.606029868125915527
0.960366308689117432 2.34612274169921875 -0.507020473480224609
0.74495232105255127 2.62452435493469238 -0.103186666965484619
-1.74835431575775146 6.6356964111328125 1.79883480072021484
-0.147510141134262085 2.60873079299926758 -0.290024340152740479
0.0390810966491699219 2.63104033470153809 -0.426207304000854492
0.925750613212585449 2.04953455924987793 -0.264941394329071045
-0.516788840293884277 4.40000057220458984 0.143629252910614014
-0.306023716926574707 2.41425371170043945 -0.575539767742156982
0.354291796684265137 4.14586925506591797 0.995433211326599121
0.00748485326766967773 2.34196376800537109 -0.606109857559204102
1.03885960578918457 4.18213748931884766 3.06964015960693359
0.941392064094543457 2.55304336547851562 -0.413729071617126465
-1.2106252908706665 6.08539533615112305 2.14452171325683594
-1.61012923717498779 5.85077667236328125 0.605875551700592041
0.291030466556549072 2.9994044303894043 0.114029228687286377
-1.85234224796295166 5.92838096618652344 0.633683323860168457
-2.66715884208679199 5.48079633712768555 0.860556900501251221
1.41939115524291992 3.56014895439147949 2.17602252960205078
-0.610624194145202637 2.65568852424621582 -0.586125075817108154
-1.98952877521514893 5.95110607147216797 0.41645205020904541
-0.317765504121780396 3.69359254837036133 -0.288700371980667114
-2.40132713317871094 5.8352508544921875 1.28339123725891113
0.987714707851409912 3.16716241836547852 0.462820291519165039
-0.12350502610206604 4.08152866363525391 -0.564642190933227539
-2.32323312759399414 5.81000566482543945 0.704147577285766602
1.83488941192626953 2.52923727035522461 -0.532479286193847656
-0.343544244766235352 3.09311914443969727 -0.445121020078659058
-1.63266825675964355 6.00001239776611328 1.03124749660491943
0.00601863861083984375 2.50479650497436523 0.00232040882110595703
-2.69164204597473145 5.39639425277709961 -0.14055083692073822
0.892910897731781006 2.58578348159790039 0.121641159057617188
-0.255414009094238281 3.27033472061157227 -0.434486150741577148
-0.565761685371398926 3.76804113388061523 0.248367547988891602
0.751609504222869873 2.30728530883789062 -0.663780689239501953
-0.574636757373809814 3.53616786003112793 0.0359068512916564941
-0.994530439376831055 6.29718542098999023 0.253731191158294678
0.0905163884162902832 2.49026966094970703 -0.507702112197875977
-3.14808201789855957 5.21247339248657227 0.30397719144821167
-1.80501246452331543 3.16906023025512695 -0.635647773742675781
0.141154348850250244 4.93429040908813477 2.55606436729431152
0.744326412677764893 3.3366546630859375 0.485391736030578613
-2.53588032722473145 5.231597900390625 0.0518632680177688599
-1.07116985321044922 6.23862075805664062 0.141072511672973633
-1.09066653251647949 4.77879142761230469 0.731924057006835938
-0.19349360466003418 2.55958247184753418 -0.544156670570373535
-0.127553150057792664 2.3932492733001709 -0.567678749561309814
-0.0381990671157836914 2.42315864562988281 -0.499606132507324219
-2.21660447120666504 5.91826486587524414 -0.258103787899017334
-2.7802581787109375 5.16952991485595703 -0.212297648191452026
-0.173317015171051025 2.42203760147094727 -0.598832547664642334
-0.109215915203094482 2.54183006286621094 -0.557328999042510986
0.20273396372795105 2.67314672470092773 -0.51327204704284668
-1.1916050910949707 5.37323617935180664 0.81747281551361084
-0.249490052461624146 2.43233633041381836 -0.609051644802093506
-1.87913608551025391 3.06180953979492188 -0.752761483192443848
-0.420159637928009033 2.44041180610656738 -0.585509181022644043
0.146645307540893555 2.67752480506896973 -0.488180577754974365
-0.0644868016242980957 2.51575088500976562 -0.481564998626708984
1.58085250854492188 3.43233489990234375 2.23120307922363281
-1.20520508289337158 5.6613612174987793 -0.189487695693969727
-1.92268204689025879 3.05166006088256836 -0.569367825984954834
-1.85926330089569092 3.10614228248596191 -0.612494885921478271
-0.0510042309761047363 2.46688508987426758 -0.583582103252410889
0.185572385787963867 4.90839767456054688 2.9106755256652832
-0.382243573665618896 4.19972467422485352 -0.283579856157302856
1.64774405956268311 3.50598716735839844 2.65680074691772461
0.441463768482208252 2.49502873420715332 -0.334343314170837402
-0.686583936214447021 5.15920114517211914 1.06746280193328857
-1.7945559024810791 5.76603031158447266 -0.0450945496559143066
-0.0208152830600738525 2.44291925430297852 -0.621625781059265137
-1.38876867294311523 5.95064687728881836 1.7170337438583374
-2.69948673248291016 5.35087347030639648 0.452150285243988037
1.1952521800994873 3.64269590377807617 1.53900003433227539
-0.242337018251419067 2.50934767723083496 -0.550238132476806641
-0.0590631961822509766 2.38420772552490234 -0.592185497283935547
0.219977855682373047 2.59359598159790039 -0.00503200292587280273
1.27589881420135498 2.40025210380554199 -0.589546084403991699
-0.948238134384155273 6.68440103530883789 0.286796271800994873
1.6983640193939209 2.39582228660583496 -0.557793259620666504
0.0389809608459472656 2.43456554412841797 -0.490352809429168701
-0.125462189316749573 2.49802827835083008 -0.53395158052444458
-0.952919602394104004 2.378082275390625 -0.574598431587219238
0.768757045269012451 4.2524261474609375 2.17493200302124023
1.17131364345550537 3.08957982063293457 0.496863901615142822
