ply
format ascii 1.0
element vertex 256
comment vertices
property float x
property float y
property float z
end_header
-0.597958087921142578 1.88690555095672607 -1.09549880027770996
4.43055534362792969 7.01571893692016602 2.78568840026855469
3.1397697925567627 4.93990898132324219 -0.880424201488494873
-0.715229988098144531 5.29578447341918945 1.56660544872283936
-0.162533879280090332 4.7538294792175293 -0.764740109443664551
0.975745141506195068 7.7180628776550293 2.69040465354919434
2.16595816612243652 5.70027971267700195 1.82853114604949951
1.50624990463256836 3.02627825736999512 -0.743751168251037598
-1.13025939464569092 3.35370612144470215 0.532910764217376709
1.85796666145324707 6.74773311614990234 2.11174845695495605
-1.54859304428100586 5.3822021484375 0.0442773960530757904
1.46600675582885742 3.63017964363098145 -0.663204491138458252
0.147977113723754883 5.14800691604614258 -0.309318184852600098
-0.944848895072937012 1.97146666049957275 -0.0867052972316741943
-0.999321579933166504 3.51730871200561523 -0.579414606094360352
3.04360747337341309 5.09753894805908203 0.0368219688534736633
0.717126667499542236 2.75435996055603027 -0.810823023319244385
2.28680133819580078 3.48441958427429199 -0.781470000743865967
3.16198945045471191 7.24339914321899414 2.87688755989074707
0.350215107202529907 2.88867497444152832 -0.655232727527618408
-0.913312375545501709 4.75422239303588867 0.597907721996307373
0.757177948951721191 7.00923871994018555 2.13731002807617188
-0.0703415647149085999 7.33614397048950195 2.33562350273132324
-0.681735634803771973 4.34919071197509766 -0.487735003232955933
2.49333572387695312 4.80880117416381836 -0.653345286846160889
2.44283461570739746 2.90193414688110352 -0.789566397666931152
-1.55208969116210938 5.50726413726806641 0.759967148303985596
-0.603339314460754395 5.2423701286315918 -0.684459209442138672
-0.233072176575660706 2.80552244186401367 -0.774578094482421875
1.03557217121124268 4.32303619384765625 -0.252979040145874023
-0.714284718036651611 2.16942310333251953 -0.357570290565490723
0.854726433753967285 3.99715209007263184 -0.719014227390289307
0.991739928722381592 3.39809656143188477 -0.639217674732208252
-0.699077963829040527 5.46513128280639648 0.440893679857254028
-0.68643110990524292 1.7466360330581665 -0.581955015659332275
2.27405261993408203 4.38675832748413086 2.7093808650970459
-0.17599254846572876 3.78357243537902832 -0.738200962543487549
3.29606747627258301 6.18504142761230469 2.52356052398681641
1.65892767906188965 8.09497928619384766 2.13725519180297852
2.82546854019165039 5.39251041412353516 0.879683375358581543
-0.766112327575683594 5.16263628005981445 -0.742800891399383545
2.2390906810760498 4.81525468826293945 -0.0881554931402206421
-0.996252596378326416 3.01082634925842285 -0.474418193101882935
-1.1987309455871582 3.16848230361938477 -1.11890661716461182
2.9862370491027832 4.8948817253112793 -0.705191731452941895
0.78032219409942627 5.14563226699829102 2.41354513168334961
0.764569699764251709 2.62396001815795898 -0.822558403015136719
0.171444684267044067 2.25132131576538086 -0.890341520309448242
1.40342545509338379 2.6863706111907959 -0.801055610179901123
-0.853620767593383789 5.04072952270507812 0.285214424133300781
0.909714043140411377 3.40891671180725098 -0.589966297149658203
0.778395116329193115 2.65454697608947754 -0.819112658500671387
0.51953732967376709 7.11859560012817383 3.06173467636108398
0.235900908708572388 4.98119831085205078 -0.610148608684539795
-1.35625326633453369 3.70102119445800781 0.50885540246963501
-1.07600390911102295 4.24227571487426758 -0.42647165060043335
1.42320525646209717 4.25879859924316406 -0.532207190990447998
2.62250757217407227 7.23923778533935547 2.01125311851501465
0.988447248935699463 4.00464534759521484 -0.535545289516448975
-0.615945696830749512 4.34064769744873047 -0.60447239875793457
-1.14535808563232422 2.09021759033203125 -0.00568374432623386383
0.299196243286132812 7.11238622665405273 2.21334338188171387
2.46563124656677246 4.565399169921875 -0.809538841247558594
-0.380102276802062988 3.25260281562805176 -0.784720063209533691
3.69910192489624023 5.07410764694213867 -0.81934434175491333
-0.677811026573181152 1.64374613761901855 -0.829454779624938965
1.31025385856628418 7.09045982360839844 2.14597797393798828
-0.0958794504404067993 5.50202369689941406 0.0889226645231246948
-0.877174019813537598 3.30225968360900879 -0.671143174171447754
0.942959249019622803 3.93189191818237305 -0.568887710571289062
1.69549167156219482 5.70239114761352539 1.63350129127502441
-1.01300561428070068 4.25644826889038086 0.19211241602897644
2.17981648445129395 3.31763339042663574 -0.692148447036743164
1.46859753131866455 3.4115145206451416 -0.664988279342651367
-0.0452282950282096863 4.09983491897583008 -0.530847787857055664
-0.941722691059112549 1.91051304340362549 -0.612045824527740479
2.73574352264404297 4.94558191299438477 -0.415911555290222168
-1.0287395715713501 5.25367975234985352 0.70440065860748291
1.40464699268341064 2.99766325950622559 -0.742639720439910889
-1.48489129543304443 5.48594236373901367 0.196618646383285522
-0.646394252777099609 5.55011367797851562 -0.657305002212524414
1.54385280609130859 4.83302736282348633 -0.0366030782461166382
0.525469958782196045 5.01980733871459961 -0.0241160392761230469
1.18731057643890381 3.96154499053955078 -0.585038602352142334
0.188005551695823669 3.03462839126586914 -0.661100149154663086
-0.246349766850471497 2.59878253936767578 -1.02997720241546631
-0.880842447280883789 2.12082052230834961 -0.0792364925146102905
-1.01719498634338379 2.98205876350402832 -0.0523295029997825623
-0.796634078025817871 1.89351582527160645 -0.309558451175689697
-0.621070206165313721 4.44901943206787109 -0.661745607852935791
2.68907999992370605 5.09829235076904297 0.334687888622283936
2.67907977104187012 3.92729449272155762 -0.784705758094787598
3.86911773681640625 7.24795007705688477 2.78201150894165039
-0.916920781135559082 3.5235753059387207 -0.580873429775238037
-0.429613649845123291 2.43376684188842773 -0.958859920501708984
-0.295976787805557251 4.73639678955078125 -0.550145089626312256
-0.51388394832611084 5.72776126861572266 1.040763258934021
-0.868177890777587891 5.06351041793823242 0.165060147643089294
0.859078168869018555 2.9519493579864502 -0.706007421016693115
2.4187767505645752 4.69401407241821289 -0.331106185913085938
1.92096316814422607 4.05045747756958008 -0.809399247169494629
-0.162597730755805969 5.33866643905639648 0.393261194229125977
2.43871116638183594 5.40056800842285156 0.91282951831817627
-1.03754127025604248 3.60061454772949219 -0.726511716842651367
-0.916277647018432617 5.1939539909362793 -0.0707029178738594055
0.840029358863830566 5.68907976150512695 1.79487144947052002
0.288765907287597656 2.64081501960754395 -0.820356547832489014
1.10216200351715088 8.14068889617919922 2.12972784042358398
1.27670884132385254 7.58607625961303711 2.04794931411743164
0.784688115119934082 2.79691672325134277 -0.710624873638153076
-0.118688978254795074 1.81561672687530518 -1.32791984081268311
-1.23611676692962646 2.11207318305969238 -0.681481540203094482
0.905747592449188232 2.66430377960205078 -0.790860593318939209
0.113611340522766113 4.25589179992675781 -0.674684107303619385
-0.879298865795135498 2.01684379577636719 -0.263016372919082642
-0.360508859157562256 2.93294882774353027 -0.92123258113861084
0.710908055305480957 2.82318305969238281 -0.752374053001403809
-1.68739640712738037 5.35208272933959961 0.0261542238295078278
2.03887438774108887 4.16056585311889648 -0.53321152925491333
2.47958064079284668 6.64451932907104492 1.94798398017883301
0.413285195827484131 3.96057295799255371 -0.35434076189994812
0.790944159030914307 2.77400064468383789 -0.744697034358978271
-1.13744962215423584 4.11404609680175781 0.391091495752334595
1.51284527778625488 3.95022439956665039 -0.48528677225112915
-0.393929600715637207 4.98986625671386719 -0.848587632179260254
1.09167492389678955 3.87114572525024414 -0.653825581073760986
2.99320793151855469 4.98037862777709961 -0.323874801397323608
-0.490622758865356445 4.39844655990600586 -0.528317928314208984
-0.908960878849029541 4.99341964721679688 0.415823847055435181
-0.839799106121063232 4.08906745910644531 -0.430516600608825684
-1.0419851541519165 3.43567514419555664 -0.641148984432220459
-1.02620446681976318 4.21078109741210938 -0.432014524936676025
3.14632225036621094 5.10407447814941406 -0.710858404636383057
2.82370710372924805 4.8006901741027832 -0.640344023704528809
-0.528473496437072754 5.20450067520141602 -0.692414581775665283
0.764965474605560303 2.66231513023376465 -0.776887059211730957
0.67952495813369751 2.72277498245239258 -0.786916911602020264
-0.856145143508911133 5.38535833358764648 1.0322035551071167
2.91974020004272461 5.14663362503051758 0.316089481115341187
-0.315755635499954224 4.10261392593383789 -0.73724597692489624
0.169075712561607361 3.12987947463989258 -0.658198416233062744
-1.0439685583114624 3.15229177474975586 -0.650467336177825928
0.701135694980621338 3.16209197044372559 -0.733167052268981934
-1.23699033260345459 1.84665000438690186 -0.7662544846534729
-1.07022988796234131 3.18149352073669434 -0.649628400802612305
-0.911051511764526367 5.01044225692749023 0.325570881366729736
1.72958660125732422 4.40880918502807617 -0.388670682907104492
-1.07751011848449707 1.92849040031433105 -0.181264594197273254
-0.611335813999176025 3.45496773719787598 -0.799638032913208008
1.0813441276550293 4.4276881217956543 -0.501904129981994629
-0.241046756505966187 5.46956205368041992 -0.618063747882843018
-1.15357279777526855 3.42031311988830566 0.538284957408905029
0.296133637428283691 7.24202251434326172 2.70110106468200684
-0.602471530437469482 3.63965153694152832 -0.542803764343261719
1.90231585502624512 8.02551746368408203 2.02713131904602051
1.96450650691986084 2.57292270660400391 -0.841190993785858154
1.1054084300994873 7.27407979965209961 2.09034585952758789
-0.700335979461669922 5.08968734741210938 -0.771942138671875
1.30616593360900879 3.73717308044433594 -0.632682740688323975
2.01815199851989746 2.70840740203857422 -0.797484993934631348
1.51216089725494385 4.31410503387451172 -0.385969817638397217
0.267805486917495728 3.31079840660095215 -0.697943449020385742
2.51610374450683594 4.69693660736083984 -0.725951015949249268
-1.24023544788360596 4.75688362121582031 0.686057329177856445
0.987595617771148682 4.89209699630737305 0.103253237903118134
-0.497371554374694824 5.25804519653320312 -0.495372354984283447
1.12439370155334473 7.01627206802368164 2.22460627555847168
-0.829848706722259521 5.26741600036621094 0.146802797913551331
1.04992616176605225 2.46503949165344238 -0.829694867134094238
-1.23446571826934814 2.98874139785766602 -0.233541488647460938
0.802551627159118652 3.07733392715454102 -0.752623260021209717
1.84141814708709717 5.6580195426940918 1.50300097465515137
1.91369116306304932 6.94347476959228516 2.01318836212158203
2.06113862991333008 5.10743904113769531 0.356155037879943848
-0.0378065519034862518 3.67551660537719727 -0.75670093297958374
1.33371126651763916 3.87287020683288574 -0.677053511142730713
0.938008487224578857 2.97118616104125977 -0.690030157566070557
1.2819221019744873 3.08530974388122559 -0.729595541954040527
-0.841990470886230469 1.88646042346954346 -0.432449519634246826
-0.451539188623428345 1.81152439117431641 -1.03733253479003906
0.0964381024241447449 5.70510482788085938 1.12185275554656982
-0.029474455863237381 1.9535142183303833 -1.32988142967224121
1.27741849422454834 4.94436836242675781 0.0388040170073509216
-1.09395313262939453 1.64157676696777344 -0.678914427757263184
0.694637417793273926 7.24451303482055664 2.11630034446716309
-0.691824495792388916 1.96294569969177246 -0.260104894638061523
0.0111035071313381195 4.01530027389526367 -0.542787730693817139
0.547302961349487305 3.27189993858337402 -0.70841681957244873
1.50869500637054443 2.94858813285827637 -0.798115253448486328
-1.00625252723693848 5.28808021545410156 0.692476987838745117
-0.215724080801010132 2.43715906143188477 -1.27650737762451172
-1.35977017879486084 1.96402013301849365 -0.754540920257568359
1.15804076194763184 4.02930784225463867 -0.658148109912872314
0.646466195583343506 4.74483060836791992 -0.321677088737487793
-1.23894822597503662 4.70261144638061523 0.726790428161621094
1.45026612281799316 3.77409696578979492 -0.592350184917449951
0.852719008922576904 2.67233800888061523 -0.754118680953979492
2.49564576148986816 6.87862873077392578 2.18871140480041504
-1.51400315761566162 5.50185728073120117 0.452268332242965698
-0.271294534206390381 5.82835865020751953 1.05438745021820068
2.64351320266723633 7.11762714385986328 2.49147200584411621
2.2298884391784668 4.6979069709777832 2.56003117561340332
-1.06899619102478027 3.23604369163513184 -0.716350674629211426
2.56425094604492188 4.99678516387939453 0.284463256597518921
2.87602591514587402 5.30158853530883789 0.307550668716430664
-0.16708102822303772 5.28775644302368164 -0.146196678280830383
0.509736120700836182 3.71105861663818359 -0.642485976219177246
0.327193170785903931 2.93200516700744629 -0.656060099601745605
1.12713825702667236 5.66681623458862305 1.48253524303436279
-0.65156245231628418 5.53222846984863281 0.207860633730888367
-1.22302627563476562 1.90900421142578125 -0.244883477687835693
-1.08698594570159912 3.47879242897033691 0.633312225341796875
0.818618953227996826 2.81239485740661621 -0.807651638984680176
-0.485445290803909302 4.64772415161132812 -0.753818809986114502
1.23085284233093262 3.82555866241455078 -0.641602396965026855
0.44889378547668457 7.11504364013671875 2.13173961639404297
0.95707780122756958 3.97492718696594238 -0.469395279884338379
-0.688101887702941895 1.88302099704742432 -0.510142087936401367
3.11769676208496094 6.97742366790771484 2.49501276016235352
2.34926080703735352 4.53486776351928711 -0.78554379940032959
0.386625200510025024 4.86738300323486328 -0.60390627384185791
-0.0175188612192869186 2.37538385391235352 -0.861089944839477539
-0.509102880954742432 1.9904559850692749 -1.17713809013366699
-0.925978958606719971 3.69734501838684082 -0.630578756332397461
0.152304336428642273 4.85093975067138672 -0.562855958938598633
0.306498944759368896 6.88228607177734375 2.67590141296386719
2.88376641273498535 6.62068367004394531 2.36993741989135742
-0.782286405563354492 2.09464597702026367 -0.212121233344078064
2.48794817924499512 4.75686359405517578 -0.689748883247375488
-0.0754742547869682312 5.43590831756591797 -0.765133261680603027
-0.363669455051422119 5.52046823501586914 -0.416190147399902344
0.61129915714263916 2.78464531898498535 -0.807709872722625732
-0.592666864395141602 4.39856910705566406 -0.463333666324615479
-0.935702383518218994 5.34183740615844727 0.843051791191101074
0.45773741602897644 2.75356030464172363 -0.765527129173278809
-1.54527521133422852 5.33267307281494141 0.0603047683835029602
1.5357130765914917 4.72066879272460938 2.5725255012512207
0.656447470188140869 5.3683314323425293 0.306450366973876953
1.68502438068389893 4.45873641967773438 -0.589618980884552002
-0.944802820682525635 3.47849178314208984 -0.511253774166107178
-1.53045022487640381 5.48233175277709961 0.182245776057243347
0.68461918830871582 2.7794651985168457 -0.728348612785339355
-0.695968508720397949 1.61571383476257324 -0.130864813923835754
-0.91367727518081665 4.06423854827880859 -0.536943018436431885
2.66923785209655762 4.79854297637939453 2.62854671478271484
2.53394699096679688 4.85310268402099609 -0.163695335388183594
0.394082099199295044 2.57408881187438965 -0.942675352096557617
2.21237373352050781 4.65221357345581055 -0.697625935077667236
1.06343412399291992 4.03233432769775391 -0.505385518074035645
0.635287880897521973 2.88812398910522461 -0.75660938024520874
-0.800798177719116211 5.13514423370361328 0.1543751060962677
1.42458438873291016 2.30894780158996582 -0.798086702823638916
-1.07167899608612061 4.70094919204711914 0.623769462108612061
-1.24016571044921875 2.07369589805603027 -1.09037137031555176
-0.701126396656036377 3.51501297950744629 -0.584890305995941162
-0.852283000946044922 2.1248469352722168 -0.562520503997802734
