# 3ds Max Wavefront OBJ Exporter v0.97b - (c)2007 guruware
# File Created: 19.03.2012 13:24:00

mtllib 14314_Straight_Leg_Coffee_Table-White_V1_l1.mtl

#
# object Box771
#

v  60.5791 24.3845 38.9853
v  -60.5427 24.3845 38.9853
v  -60.5427 26.2556 38.9853
v  60.5791 26.2556 38.9853
v  60.5791 24.3845 45.0929
v  60.5791 26.2556 45.0929
v  -60.5427 26.2556 45.0929
v  -60.5427 24.3845 45.0929
# 8 vertices

vn -0.0000 -0.0000 -1.0000
vn 0.0000 0.0000 1.0000
vn 1.0000 0.0000 0.0000
vn -0.0000 1.0000 0.0000
vn -1.0000 -0.0000 -0.0000
vn 0.0000 -1.0000 0.0000
# 6 vertex normals

vt -251.8110 -525.9902 6.4084
vt -251.8110 -571.2900 6.4084
vt -251.1111 -571.2900 6.4084
vt -251.1111 -525.9902 6.4084
vt -525.9901 613.0268 8.6927
vt -525.9901 613.7266 8.6927
vt -571.2900 613.7266 8.6927
vt -571.2900 613.0268 8.6927
vt -474.0571 613.0268 58.3414
vt -474.0571 613.7266 58.3414
vt -476.3414 613.7266 58.3414
vt -476.3414 613.0268 58.3414
vt -474.0571 616.5630 55.5050
vt -474.0571 661.8629 55.5050
vt -476.3413 661.8629 55.5050
vt -476.3414 616.5630 55.5050
vt -474.0571 503.7165 103.6413
vt -474.0571 504.4163 103.6413
vt -476.3414 504.4163 103.6414
vt -476.3414 503.7165 103.6414
vt -202.9748 -474.0573 54.8052
vt -248.2747 -474.0573 54.8052
vt -248.2747 -476.3414 54.8052
vt -202.9748 -476.3414 54.8052
# 24 texture coords

g Box771
usemtl White_Mat__wood_
s 2
f 1/1/1 2/2/1 3/3/1 4/4/1 
s 4
f 5/5/2 6/6/2 7/7/2 8/8/2 
s 8
f 1/9/3 4/10/3 6/11/3 5/12/3 
s 16
f 4/13/4 3/14/4 7/15/4 6/16/4 
s 32
f 3/17/5 2/18/5 8/19/5 7/20/5 
s 64
f 2/21/6 1/22/6 5/23/6 8/24/6 
# 6 polygons

#
# object Box772
#

v  60.5791 -26.0029 38.9853
v  -60.5427 -26.0029 38.9853
v  -60.5427 -24.1318 38.9853
v  60.5791 -24.1318 38.9853
v  60.5791 -26.0029 45.0929
v  60.5791 -24.1318 45.0929
v  -60.5427 -24.1318 45.0929
v  -60.5427 -26.0029 45.0929
# 8 vertices

vn -0.0000 -0.0000 -1.0000
vn 0.0000 0.0000 1.0000
vn 1.0000 0.0000 0.0000
vn -0.0000 1.0000 0.0000
vn -1.0000 -0.0000 -0.0000
vn 0.0000 -1.0000 0.0000
# 6 vertex normals

vt -270.6559 -525.9902 6.4084
vt -270.6559 -571.2900 6.4084
vt -269.9561 -571.2900 6.4084
vt -269.9561 -525.9902 6.4084
vt -525.9901 594.1818 8.6927
vt -525.9901 594.8815 8.6927
vt -571.2900 594.8815 8.6927
vt -571.2900 594.1818 8.6927
vt -474.0571 594.1818 58.3414
vt -474.0571 594.8815 58.3414
vt -476.3414 594.8815 58.3414
vt -476.3414 594.1818 58.3414
vt -474.0571 616.5630 36.6600
vt -474.0571 661.8629 36.6600
vt -476.3413 661.8629 36.6600
vt -476.3414 616.5630 36.6600
vt -474.0571 522.5616 103.6413
vt -474.0571 523.2614 103.6413
vt -476.3414 523.2614 103.6414
vt -476.3414 522.5616 103.6414
vt -202.9748 -474.0573 35.9602
vt -248.2747 -474.0573 35.9602
vt -248.2747 -476.3414 35.9602
vt -202.9748 -476.3414 35.9602
# 24 texture coords

g Box772
usemtl White_Mat__wood_
s 2
f 9/25/7 10/26/7 11/27/7 12/28/7 
s 4
f 13/29/8 14/30/8 15/31/8 16/32/8 
s 8
f 9/33/9 12/34/9 14/35/9 13/36/9 
s 16
f 12/37/10 11/38/10 15/39/10 14/40/10 
s 32
f 11/41/11 10/42/11 16/43/11 15/44/11 
s 64
f 10/45/12 9/46/12 13/47/12 16/48/12 
# 6 polygons

#
# object Box773
#

v  -58.9726 -26.0029 38.9853
v  -60.6758 -26.0029 38.9853
v  -60.6758 26.2631 38.9853
v  -58.9726 26.2631 38.9853
v  -58.9726 -26.0029 45.0929
v  -58.9726 26.2631 45.0929
v  -60.6758 26.2631 45.0929
v  -60.6758 -26.0029 45.0929
# 8 vertices

vn 0.0000 0.0000 -1.0000
vn 0.0000 0.0000 1.0000
vn 1.0000 -0.0000 0.0000
vn 1.0000 0.0000 0.0000
vn -0.0000 1.0000 0.0000
vn -1.0000 -0.0000 -0.0000
vn -1.0000 0.0000 -0.0000
vn 0.0000 -1.0000 0.0000
# 8 vertex normals

vt -270.6559 -570.7029 6.4085
vt -270.6559 -571.3398 6.4085
vt -251.1083 -571.3398 6.4085
vt -251.1083 -570.7029 6.4085
vt -570.7028 594.1818 8.6927
vt -570.7028 613.7294 8.6927
vt -571.3398 613.7294 8.6927
vt -571.3398 594.1818 8.6927
vt -341.5764 -474.0573 103.0541
vt -361.1240 -474.0573 103.0541
vt -361.1240 -476.3414 103.0541
vt -341.5764 -476.3414 103.0541
vt -474.0571 661.2757 55.5079
vt -474.0571 661.9127 55.5079
vt -476.3414 661.9127 55.5079
vt -476.3414 661.2757 55.5079
vt -158.1658 -166.7543 103.6911
vt -177.7135 -166.7543 103.6911
vt -177.7135 -169.0385 103.6911
vt -158.1658 -169.0385 103.6911
vt -474.0571 455.5304 35.9602
vt -474.0571 456.1674 35.9602
vt -476.3414 456.1674 35.9602
vt -476.3414 455.5304 35.9602
# 24 texture coords

g Box773
usemtl White_Mat__wood_
s 2
f 17/49/13 18/50/13 19/51/13 20/52/13 
s 4
f 21/53/14 22/54/14 23/55/14 24/56/14 
s 8
f 17/57/15 20/58/16 22/59/16 21/60/15 
s 16
f 20/61/17 19/62/17 23/63/17 22/64/17 
s 32
f 19/65/18 18/66/19 24/67/19 23/68/18 
s 64
f 18/69/20 17/70/20 21/71/20 24/72/20 
# 6 polygons

#
# object Box774
#

v  60.6225 -26.0029 38.9853
v  58.9193 -26.0029 38.9853
v  58.9193 26.2631 38.9853
v  60.6225 26.2631 38.9853
v  60.6225 -26.0029 45.0929
v  60.6225 26.2631 45.0929
v  58.9193 26.2631 45.0929
v  58.9193 -26.0029 45.0929
# 8 vertices

vn -0.0000 0.0000 -1.0000
vn 0.0000 0.0000 1.0000
vn 1.0000 0.0000 0.0000
vn -0.0000 1.0000 0.0000
vn -1.0000 -0.0000 0.0000
vn 0.0000 -1.0000 0.0000
# 6 vertex normals

vt -270.6559 -525.9740 6.4085
vt -270.6559 -526.6110 6.4085
vt -251.1083 -526.6110 6.4085
vt -251.1083 -525.9740 6.4085
vt -525.9739 594.1818 8.6927
vt -525.9738 613.7294 8.6927
vt -526.6108 613.7294 8.6927
vt -526.6108 594.1818 8.6927
vt -341.5764 -474.0573 58.3252
vt -361.1240 -474.0573 58.3252
vt -361.1240 -476.3414 58.3252
vt -341.5764 -476.3414 58.3252
vt -474.0571 616.5468 55.5079
vt -474.0571 617.1837 55.5079
vt -476.3414 617.1837 55.5079
vt -476.3414 616.5468 55.5079
vt -156.0305 -121.5675 58.9622
vt -175.5782 -121.5674 58.9622
vt -175.5782 -123.8517 58.9622
vt -156.0305 -123.8517 58.9622
vt -474.0571 500.2594 35.9602
vt -474.0571 500.8964 35.9602
vt -476.3414 500.8964 35.9602
vt -476.3414 500.2594 35.9602
# 24 texture coords

g Box774
usemtl White_Mat__wood_
s 2
f 25/73/21 26/74/21 27/75/21 28/76/21 
s 4
f 29/77/22 30/78/22 31/79/22 32/80/22 
s 8
f 25/81/23 28/82/23 30/83/23 29/84/23 
s 16
f 28/85/24 27/86/24 31/87/24 30/88/24 
s 32
f 27/89/25 26/90/25 32/91/25 31/92/25 
s 64
f 26/93/26 25/94/26 29/95/26 32/96/26 
# 6 polygons

#
# object Box775
#

v  61.1518 -26.5391 -0.8709
v  55.4854 -26.5391 -0.8709
v  55.4854 -22.5418 -0.8709
v  61.1518 -22.5418 -0.8709
v  61.1230 -26.5063 45.0929
v  61.1230 -21.3860 45.0929
v  53.2303 -21.3860 45.0929
v  53.2303 -26.5063 45.0929
# 8 vertices

vn 0.0000 0.0000 -1.0000
vn 0.0000 0.0000 1.0000
vn 1.0000 0.0000 0.0006
vn -0.0000 0.9997 -0.0251
vn -0.9988 -0.0000 -0.0490
vn 0.0000 -1.0000 0.0007
# 6 vertex normals

vt -496.8239 103.9948 -8.4979
vt -496.8239 106.1140 -8.4979
vt -498.3189 106.1140 -8.4979
vt -498.3189 103.9948 -8.4979
vt -525.7867 593.9935 8.6927
vt -525.7867 595.9085 8.6927
vt -528.7385 595.9085 8.6927
vt -528.7385 593.9935 8.6927
vt -426.3046 37.3696 58.1273
vt -424.8096 37.3696 58.1273
vt -424.3773 54.5602 58.1380
vt -426.2923 54.5602 58.1380
vt -403.9370 37.3696 37.2547
vt -401.8177 37.3696 37.2547
vt -400.9743 54.5602 37.6869
vt -403.9262 54.5602 37.6869
vt -212.0116 318.8490 60.2465
vt -213.5066 318.8490 60.2465
vt -213.4943 301.6584 61.0899
vt -211.5793 301.6584 61.0899
vt -521.3107 37.3696 35.7596
vt -519.1915 37.3696 35.7596
vt -519.2023 54.5602 35.7719
vt -522.1542 54.5602 35.7719
# 24 texture coords

g Box775
usemtl White_Mat__wood_
s 2
f 33/97/27 34/98/27 35/99/27 36/100/27 
s 4
f 37/101/28 38/102/28 39/103/28 40/104/28 
s 8
f 33/105/29 36/106/29 38/107/29 37/108/29 
s 16
f 36/109/30 35/110/30 39/111/30 38/112/30 
s 32
f 35/113/31 34/114/31 40/115/31 39/116/31 
s 64
f 34/117/32 33/118/32 37/119/32 40/120/32 
# 6 polygons

#
# object Box776
#

v  61.1518 26.7764 -0.8709
v  55.4854 26.7764 -0.8709
v  55.4854 22.7791 -0.8709
v  61.1518 22.7791 -0.8709
v  61.1230 26.7436 45.0929
v  61.1230 21.6232 45.0929
v  53.2303 21.6232 45.0929
v  53.2303 26.7436 45.0929
# 8 vertices

vn 0.0000 0.0000 -1.0000
vn -0.0000 -0.0000 1.0000
vn 1.0000 0.0000 0.0006
vn -0.0000 -0.9997 -0.0251
vn 0.0000 -0.9997 -0.0251
vn -0.9988 -0.0000 -0.0490
vn -0.0000 1.0000 0.0007
# 7 vertex normals

vt -516.7641 103.9948 -8.4979
vt -516.7641 106.1140 -8.4979
vt -515.2690 106.1140 -8.4979
vt -515.2690 103.9948 -8.4979
vt -525.7867 613.9091 8.6927
vt -525.7867 611.9941 8.6927
vt -528.7385 611.9941 8.6927
vt -528.7385 613.9091 8.6927
vt -406.3644 37.3696 58.1273
vt -407.8594 37.3696 58.1273
vt -408.2917 54.5602 58.1380
vt -406.3767 54.5602 58.1380
vt -519.1915 37.3696 54.2048
vt -521.3107 37.3696 54.2048
vt -522.1542 54.5602 53.7725
vt -519.2023 54.5602 53.7725
vt -195.0615 318.8490 60.2465
vt -193.5665 318.8490 60.2465
vt -193.5788 301.6584 61.0899
vt -195.4938 301.6584 61.0899
vt -401.8177 37.3696 55.6998
vt -403.9370 37.3696 55.6998
vt -403.9262 54.5602 55.6875
vt -400.9743 54.5602 55.6875
# 24 texture coords

g Box776
usemtl White_Mat__wood_
s 2
f 44/124/33 43/123/33 42/122/33 41/121/33 
s 4
f 48/128/34 47/127/34 46/126/34 45/125/34 
s 8
f 45/132/35 46/131/35 44/130/35 41/129/35 
s 16
f 46/136/37 47/135/37 43/134/36 44/133/36 
s 32
f 47/140/38 48/139/38 42/138/38 43/137/38 
s 64
f 48/144/39 45/143/39 41/142/39 42/141/39 
# 6 polygons

#
# object Box777
#

v  -61.1958 26.7764 -0.8708
v  -55.5295 26.7764 -0.8708
v  -55.5295 22.7791 -0.8708
v  -61.1958 22.7791 -0.8708
v  -61.1671 26.7436 45.0929
v  -61.1671 21.6232 45.0929
v  -53.2744 21.6232 45.0929
v  -53.2744 26.7436 45.0929
# 8 vertices

vn -0.0000 0.0000 -1.0000
vn 0.0000 -0.0000 1.0000
vn -1.0000 -0.0000 0.0006
vn 0.0000 -0.9997 -0.0251
vn 0.9988 0.0000 -0.0490
vn -0.0000 1.0000 0.0007
# 6 vertex normals

vt -516.7640 149.7531 -8.4979
vt -516.7640 147.6339 -8.4979
vt -515.2690 147.6339 -8.4979
vt -515.2690 149.7531 -8.4979
vt -571.5235 613.9091 8.6927
vt -571.5235 611.9941 8.6927
vt -568.5717 611.9941 8.6927
vt -568.5717 613.9091 8.6927
vt -193.5665 318.8490 103.8856
vt -195.0615 318.8490 103.8856
vt -195.4937 301.6584 103.8749
vt -193.5787 301.6584 103.8749
vt -564.9499 37.3696 54.2048
vt -562.8307 37.3696 54.2048
vt -561.9872 54.5603 53.7725
vt -564.9391 54.5603 53.7725
vt -407.8594 37.3696 101.7664
vt -406.3644 37.3696 101.7664
vt -406.3767 54.5602 100.9230
vt -408.2917 54.5602 100.9230
vt -360.2978 37.3696 55.6998
vt -358.1786 37.3696 55.6998
vt -358.1893 54.5602 55.6875
vt -361.1412 54.5602 55.6875
# 24 texture coords

g Box777
usemtl White_Mat__wood_
s 2
f 49/145/40 50/146/40 51/147/40 52/148/40 
s 4
f 53/149/41 54/150/41 55/151/41 56/152/41 
s 8
f 49/153/42 52/154/42 54/155/42 53/156/42 
s 16
f 52/157/43 51/158/43 55/159/43 54/160/43 
s 32
f 51/161/44 50/162/44 56/163/44 55/164/44 
s 64
f 50/165/45 49/166/45 53/167/45 56/168/45 
# 6 polygons

#
# object Box778
#

v  -61.1958 -26.5391 -0.8709
v  -55.5295 -26.5391 -0.8709
v  -55.5295 -22.5418 -0.8709
v  -61.1958 -22.5418 -0.8709
v  -61.1671 -26.5063 45.0929
v  -61.1671 -21.3860 45.0929
v  -53.2744 -21.3860 45.0929
v  -53.2744 -26.5063 45.0929
# 8 vertices

vn -0.0000 -0.0000 -1.0000
vn 0.0000 0.0000 1.0000
vn -1.0000 -0.0000 0.0006
vn 0.0000 0.9997 -0.0251
vn -0.0000 0.9997 -0.0251
vn 0.9988 0.0000 -0.0490
vn -0.0000 -1.0000 0.0007
vn 0.0000 -1.0000 0.0007
# 8 vertex normals

vt -496.8239 149.7531 -8.4979
vt -496.8239 147.6339 -8.4979
vt -498.3188 147.6339 -8.4979
vt -498.3188 149.7531 -8.4979
vt -571.5236 593.9935 8.6927
vt -571.5236 595.9085 8.6927
vt -568.5717 595.9085 8.6927
vt -568.5717 593.9935 8.6927
vt -213.5066 318.8490 103.8856
vt -212.0116 318.8490 103.8856
vt -211.5793 301.6584 103.8749
vt -213.4943 301.6584 103.8749
vt -358.1786 37.3696 37.2547
vt -360.2978 37.3696 37.2547
vt -361.1412 54.5602 37.6870
vt -358.1893 54.5602 37.6870
vt -424.8096 37.3696 101.7664
vt -426.3046 37.3696 101.7664
vt -426.2923 54.5602 100.9230
vt -424.3773 54.5602 100.9230
vt -562.8307 37.3696 35.7597
vt -564.9499 37.3696 35.7597
vt -564.9391 54.5602 35.7719
vt -561.9872 54.5602 35.7719
# 24 texture coords

g Box778
usemtl White_Mat__wood_
s 2
f 60/172/46 59/171/46 58/170/46 57/169/46 
s 4
f 64/176/47 63/175/47 62/174/47 61/173/47 
s 8
f 61/180/48 62/179/48 60/178/48 57/177/48 
s 16
f 62/184/50 63/183/50 59/182/49 60/181/49 
s 32
f 63/188/51 64/187/51 58/186/51 59/185/51 
s 64
f 64/192/53 61/191/53 57/190/52 58/189/52 
# 6 polygons

#
# object Box779
#

v  64.1706 -29.4138 45.0545
v  -64.1706 -29.4138 45.0545
v  -64.1706 29.4138 45.0545
v  64.1706 29.4138 45.0545
v  64.1706 -29.4138 47.2458
v  64.1706 29.4138 47.2458
v  -64.1706 29.4138 47.2458
v  -64.1706 -29.4138 47.2458
# 8 vertices

vn 0.0000 0.0000 -1.0000
vn 0.0000 0.0000 1.0000
vn 1.0000 0.0000 0.0000
vn -0.0000 1.0000 0.0000
vn -1.0000 -0.0000 0.0000
vn 0.0000 -1.0000 0.0000
# 6 vertex normals

vt -779.4690 120.3497 8.6783
vt -779.4690 72.3497 8.6783
vt -757.4673 72.3497 8.6783
vt -757.4673 120.3497 8.6783
vt -847.8380 120.3497 9.4979
vt -869.8397 120.3497 9.4979
vt -869.8397 72.3497 9.4979
vt -847.8380 72.3497 9.4979
vt -364.3759 -219.5915 56.9982
vt -386.3776 -219.5915 56.9982
vt -386.3776 -220.4111 56.9982
vt -364.3759 -220.4111 56.9982
vt -386.6896 -219.5915 56.6862
vt -434.6896 -219.5915 56.6862
vt -434.6896 -220.4111 56.6862
vt -386.6896 -220.4111 56.6862
vt -156.9875 -169.0242 104.9982
vt -178.9892 -169.0242 104.9982
vt -178.9892 -169.8437 104.9982
vt -156.9875 -169.8437 104.9982
vt -225.6932 -219.5915 34.6845
vt -273.6932 -219.5915 34.6845
vt -273.6932 -220.4111 34.6845
vt -225.6932 -220.4111 34.6845
# 24 texture coords

g Box779
usemtl White_Mat__wood_
s 2
f 65/193/54 66/194/54 67/195/54 68/196/54 
s 4
f 69/197/55 70/198/55 71/199/55 72/200/55 
s 8
f 65/201/56 68/202/56 70/203/56 69/204/56 
s 16
f 68/205/57 67/206/57 71/207/57 70/208/57 
s 32
f 67/209/58 66/210/58 72/211/58 71/212/58 
s 64
f 66/213/59 65/214/59 69/215/59 72/216/59 
# 6 polygons

