# 3ds Max Wavefront OBJ Exporter v0.97b - (c)2007 guruware
# File Created: 10.08.2019 08:57:43

mtllib ????.mtl

#
# object top
#

v  400.0000 375.0000 400.0000
v  400.0000 450.0000 400.0000
v  -400.0000 450.0000 400.0000
v  -400.0000 375.0000 400.0000
v  400.0000 375.0000 -400.0000
v  400.0000 450.0000 -400.0000
v  -400.0000 375.0000 -400.0000
v  -400.0000 450.0000 -400.0000
v  -385.0000 375.0000 -385.0000
v  385.0000 375.0000 -385.0000
v  385.0000 450.0000 385.0000
v  385.0000 450.0000 -385.0000
v  -385.0000 450.0000 -385.0000
v  385.0000 375.0000 385.0000
v  -385.0000 375.0000 385.0000
v  -385.0000 450.0000 385.0000
# 16 vertices

vn 0.5774 -0.5774 0.5774
vn 0.5774 0.5774 0.5774
vn -0.5774 0.5774 0.5774
vn -0.5774 -0.5774 0.5774
vn 0.5774 -0.5774 -0.5774
vn 0.5774 0.5774 -0.5774
vn -0.5774 -0.5774 -0.5774
vn -0.5774 0.5774 -0.5774
vn 0.3015 -0.9045 0.3015
vn -0.3015 -0.9045 0.3015
vn -0.3015 0.9045 -0.3015
vn -0.3015 0.9045 0.3015
vn 0.3015 0.9045 0.3015
vn -0.3015 -0.9045 -0.3015
vn 0.3015 -0.9045 -0.3015
vn 0.3015 0.9045 -0.3015
# 16 vertex normals

vt 1.0000 0.0000 0.0000
vt 1.0000 1.0000 0.0000
vt 0.0000 1.0000 0.0000
vt 0.0000 0.0000 0.0000
vt 0.9812 0.9812 0.0000
vt 0.0187 0.9812 0.0000
vt 0.9812 0.0188 0.0000
vt 0.0187 0.0188 0.0000
vt 0.0188 0.9812 0.0000
vt 0.0188 0.0188 0.0000
# 10 texture coords

o top
g top
usemtl wire_225088199
s 8
f 1/1/1 2/2/2 3/3/3 4/4/4 
s 16
f 5/1/5 6/2/6 2/3/2 1/4/1 
s 32
f 7/1/7 8/2/8 6/3/6 5/4/5 
s 64
f 4/1/4 3/2/3 8/3/8 7/4/7 
s 2
f 9/5/9 7/2/7 5/3/5 10/6/10 
s 4
f 11/7/11 2/1/2 6/2/6 12/5/12 
s 1
f 13/2/13 9/1/9 10/4/10 12/3/12 
s 16
f 12/2/12 10/1/10 14/4/14 11/3/11 
s 1
f 11/2/11 14/1/14 15/4/15 16/3/16 
s 8
f 16/2/16 15/1/15 9/4/9 13/3/13 
s 2
f 1/4/1 14/8/14 10/6/10 5/3/5 
f 4/1/4 15/7/15 14/8/14 1/4/1 
f 7/2/7 9/5/9 15/7/15 4/1/4 
s 4
f 8/3/8 13/9/13 12/5/12 6/2/6 
f 3/4/3 16/10/16 13/9/13 8/3/8 
f 2/1/2 11/7/11 16/10/16 3/4/3 
# 16 polygons

#
# object housing
#

v  -375.0000 50.0000 375.0000
v  -375.0000 50.0000 -375.0000
v  375.0000 50.0000 -375.0000
v  375.0000 50.0000 375.0000
v  -375.0000 375.0000 375.0000
v  375.0000 375.0000 375.0000
v  375.0000 375.0000 -375.0000
v  -375.0000 375.0000 -375.0000
# 8 vertices

vn -0.5774 -0.5774 0.5774
vn -0.5774 -0.5774 -0.5774
vn 0.5774 -0.5774 -0.5774
vn 0.5774 -0.5774 0.5774
vn -0.5774 0.5774 0.5774
vn 0.5774 0.5774 0.5774
vn 0.5774 0.5774 -0.5774
vn -0.5774 0.5774 -0.5774
# 8 vertex normals

vt 1.0000 0.0000 0.0000
vt 1.0000 1.0000 0.0000
vt 0.0000 1.0000 0.0000
vt 0.0000 0.0000 0.0000
# 4 texture coords

o housing
g housing
usemtl wire_057008136
s 2
f 17/11/17 18/12/18 19/13/19 20/14/20 
s 4
f 21/14/21 22/11/22 23/12/23 24/13/24 
s 8
f 17/14/17 20/11/20 22/12/22 21/13/21 
s 16
f 20/14/20 19/11/19 23/12/23 22/13/22 
s 32
f 19/14/19 18/11/18 24/12/24 23/13/23 
s 64
f 18/14/18 17/11/17 21/12/21 24/13/24 
# 6 polygons

#
# object basis
#

v  -330.0000 0.0000 330.0000
v  -330.0000 0.0000 -330.0000
v  330.0000 0.0000 -330.0000
v  330.0000 0.0000 330.0000
v  -330.0000 50.0000 330.0000
v  330.0000 50.0000 330.0000
v  330.0000 50.0000 -330.0000
v  -330.0000 50.0000 -330.0000
# 8 vertices

vn -0.5774 -0.5774 0.5774
vn -0.5774 -0.5774 -0.5774
vn 0.5774 -0.5774 -0.5774
vn 0.5774 -0.5774 0.5774
vn -0.5774 0.5774 0.5774
vn 0.5774 0.5774 0.5774
vn 0.5774 0.5774 -0.5774
vn -0.5774 0.5774 -0.5774
# 8 vertex normals

vt 1.0000 0.0000 0.0000
vt 1.0000 1.0000 0.0000
vt 0.0000 1.0000 0.0000
vt 0.0000 0.0000 0.0000
# 4 texture coords

o basis
g basis
usemtl wire_028089177
s 2
f 25/15/25 26/16/26 27/17/27 28/18/28 
s 4
f 29/18/29 30/15/30 31/16/31 32/17/32 
s 8
f 25/18/25 28/15/28 30/16/30 29/17/29 
s 16
f 28/18/28 27/15/27 31/16/31 30/17/30 
s 32
f 27/18/27 26/15/26 32/16/32 31/17/31 
s 64
f 26/18/26 25/15/25 29/16/29 32/17/32 
# 6 polygons

#
# object travertine
#

v  -385.0000 375.0000 385.0000
v  -385.0000 375.0000 -385.0000
v  385.0000 375.0000 -385.0000
v  385.0000 375.0000 385.0000
v  -385.0000 425.0000 385.0000
v  385.0000 425.0000 385.0000
v  385.0000 425.0000 -385.0000
v  -385.0000 425.0000 -385.0000
# 8 vertices

vn -0.5774 -0.5774 0.5774
vn -0.5774 -0.5774 -0.5774
vn 0.5774 -0.5774 -0.5774
vn 0.5774 -0.5774 0.5774
vn -0.5774 0.5774 0.5774
vn 0.5774 0.5774 0.5774
vn 0.5774 0.5774 -0.5774
vn -0.5774 0.5774 -0.5774
# 8 vertex normals

vt 1.0000 0.0000 0.0000
vt 1.0000 1.0000 0.0000
vt 0.0000 1.0000 0.0000
vt 0.0000 0.0000 0.0000
# 4 texture coords

o travertine
g travertine
usemtl wire_177028149
s 2
f 33/19/33 34/20/34 35/21/35 36/22/36 
s 4
f 37/22/37 38/19/38 39/20/39 40/21/40 
s 8
f 33/22/33 36/19/36 38/20/38 37/21/37 
s 16
f 36/22/36 35/19/35 39/20/39 38/21/38 
s 32
f 35/22/35 34/19/34 40/20/40 39/21/39 
s 64
f 34/22/34 33/19/33 37/20/37 40/21/40 
# 6 polygons

#
# object epoxy_resin
#

v  -385.0000 425.9410 385.0000
v  -385.0000 425.9410 -385.0000
v  385.0000 425.9410 -385.0000
v  385.0000 425.9410 385.0000
v  -385.0000 450.9410 385.0000
v  385.0000 450.9410 385.0000
v  385.0000 450.9410 -385.0000
v  -385.0000 450.9410 -385.0000
# 8 vertices

vn -0.5774 -0.5774 0.5774
vn -0.5774 -0.5774 -0.5774
vn 0.5774 -0.5774 -0.5774
vn 0.5774 -0.5774 0.5774
vn -0.5774 0.5774 0.5774
vn 0.5774 0.5774 0.5774
vn 0.5774 0.5774 -0.5774
vn -0.5774 0.5774 -0.5774
# 8 vertex normals

vt 1.0000 0.0000 0.0000
vt 1.0000 1.0000 0.0000
vt 0.0000 1.0000 0.0000
vt 0.0000 0.0000 0.0000
# 4 texture coords

o epoxy_resin
g epoxy_resin
usemtl wire_115115115
s 2
f 41/23/41 42/24/42 43/25/43 44/26/44 
s 4
f 45/26/45 46/23/46 47/24/47 48/25/48 
s 8
f 41/26/41 44/23/44 46/24/46 45/25/45 
s 16
f 44/26/44 43/23/43 47/24/47 46/25/46 
s 32
f 43/26/43 42/23/42 48/24/48 47/25/47 
s 64
f 42/26/42 41/23/41 45/24/45 48/25/48 
# 6 polygons

